<?xml version="1.0" encoding="utf-8" standalone="no"?>
<!DOCTYPE svg PUBLIC "-//W3C//DTD SVG 1.1//EN"
  "http://www.w3.org/Graphics/SVG/1.1/DTD/svg11.dtd">
<svg xmlns:xlink="http://www.w3.org/1999/xlink" width="404.923125pt" height="310.86825pt" viewBox="0 0 404.923125 310.86825" xmlns="http://www.w3.org/2000/svg" version="1.1">
 <metadata>
  <rdf:RDF xmlns:dc="http://purl.org/dc/elements/1.1/" xmlns:cc="http://creativecommons.org/ns#" xmlns:rdf="http://www.w3.org/1999/02/22-rdf-syntax-ns#">
   <cc:Work>
    <dc:type rdf:resource="http://purl.org/dc/dcmitype/StillImage"/>
    <dc:date>2025-04-30T13:21:42.310055</dc:date>
    <dc:format>image/svg+xml</dc:format>
    <dc:creator>
     <cc:Agent>
      <dc:title>Matplotlib v3.9.2, https://matplotlib.org/</dc:title>
     </cc:Agent>
    </dc:creator>
   </cc:Work>
  </rdf:RDF>
 </metadata>
 <defs>
  <style type="text/css">*{stroke-linejoin: round; stroke-linecap: butt}</style>
 </defs>
 <g id="figure_1">
  <g id="patch_1">
   <path d="M 0 310.86825 
L 404.923125 310.86825 
L 404.923125 0 
L 0 0 
z
" style="fill: #ffffff"/>
  </g>
  <g id="axes_1">
   <g id="patch_2">
    <path d="M 40.603125 273.312 
L 397.723125 273.312 
L 397.723125 7.2 
L 40.603125 7.2 
z
" style="fill: #ffffff"/>
   </g>
   <g id="PolyCollection_1">
    <defs>
     <path id="me31625ac03" d="M 56.835852 -37.620543 
L 56.835852 -37.572323 
L 80.025463 -37.588397 
L 103.215073 -37.588397 
L 126.404683 -37.590406 
L 149.594294 -37.593219 
L 172.783904 -37.595094 
L 195.973515 -37.594137 
L 219.163125 -37.597438 
L 242.352735 -37.600005 
L 265.542346 -37.607685 
L 288.731956 -74.841917 
L 311.921567 -140.648974 
L 335.111177 -196.396593 
L 358.300787 -244.106522 
L 381.490398 -285.49285 
L 381.490398 -285.548277 
L 381.490398 -285.548277 
L 358.300787 -244.146231 
L 335.111177 -196.429684 
L 311.921567 -140.715155 
L 288.731956 -74.893042 
L 265.542346 -37.655905 
L 242.352735 -37.647332 
L 219.163125 -37.645657 
L 195.973515 -37.643506 
L 172.783904 -37.641974 
L 149.594294 -37.639831 
L 126.404683 -37.638626 
L 103.215073 -37.636616 
L 80.025463 -37.636616 
L 56.835852 -37.620543 
z
" style="stroke: #003f5c; stroke-opacity: 0.2"/>
    </defs>
    <g clip-path="url(#pf496daf190)">
     <use xlink:href="#me31625ac03" x="0" y="310.86825" style="fill: #003f5c; fill-opacity: 0.2; stroke: #003f5c; stroke-opacity: 0.2"/>
    </g>
   </g>
   <g id="PolyCollection_2">
    <defs>
     <path id="mfde29ea7cb" d="M 56.835852 -37.596433 
L 56.835852 -37.564287 
L 80.025463 -37.564287 
L 103.215073 -37.566966 
L 126.404683 -37.572323 
L 149.594294 -37.573395 
L 172.783904 -37.575002 
L 195.973515 -37.57462 
L 219.163125 -37.577346 
L 242.352735 -37.582146 
L 265.542346 -37.593219 
L 288.731956 -82.260483 
L 311.921567 -147.449906 
L 335.111177 -202.596104 
L 358.300787 -249.940383 
L 381.490398 -290.93707 
L 381.490398 -290.996633 
L 381.490398 -290.996633 
L 358.300787 -249.9743 
L 335.111177 -202.714403 
L 311.921567 -147.517742 
L 288.731956 -82.367117 
L 265.542346 -37.630187 
L 242.352735 -37.618757 
L 219.163125 -37.60313 
L 195.973515 -37.612507 
L 172.783904 -37.612507 
L 149.594294 -37.609292 
L 126.404683 -37.608488 
L 103.215073 -37.607149 
L 80.025463 -37.60447 
L 56.835852 -37.596433 
z
" style="stroke: #bc5090; stroke-opacity: 0.2"/>
    </defs>
    <g clip-path="url(#pf496daf190)">
     <use xlink:href="#mfde29ea7cb" x="0" y="310.86825" style="fill: #bc5090; fill-opacity: 0.2; stroke: #bc5090; stroke-opacity: 0.2"/>
    </g>
   </g>
   <g id="PolyCollection_3">
    <defs>
     <path id="mb4261f17c0" d="M 56.835852 -37.588396 
L 56.835852 -37.564287 
L 80.025463 -37.568305 
L 103.215073 -37.569644 
L 126.404683 -37.572323 
L 149.594294 -37.573931 
L 172.783904 -37.576342 
L 195.973515 -37.578064 
L 219.163125 -37.58036 
L 242.352735 -37.583932 
L 265.542346 -37.594826 
L 288.731956 -81.392518 
L 311.921567 -146.661524 
L 335.111177 -201.902858 
L 358.300787 -249.261634 
L 381.490398 -290.293459 
L 381.490398 -290.318277 
L 381.490398 -290.318277 
L 358.300787 -249.288499 
L 335.111177 -201.933466 
L 311.921567 -146.664833 
L 288.731956 -81.408567 
L 265.542346 -37.621347 
L 242.352735 -37.613399 
L 219.163125 -37.609493 
L 195.973515 -37.605618 
L 172.783904 -37.60313 
L 149.594294 -37.60447 
L 126.404683 -37.602461 
L 103.215073 -37.599112 
L 80.025463 -37.596433 
L 56.835852 -37.588396 
z
" style="stroke: #ffa600; stroke-opacity: 0.2"/>
    </defs>
    <g clip-path="url(#pf496daf190)">
     <use xlink:href="#mb4261f17c0" x="0" y="310.86825" style="fill: #ffa600; fill-opacity: 0.2; stroke: #ffa600; stroke-opacity: 0.2"/>
    </g>
   </g>
   <g id="matplotlib.axis_1">
    <g id="xtick_1">
     <g id="line2d_1">
      <path d="M 80.025463 273.312 
L 80.025463 7.2 
" clip-path="url(#pf496daf190)" style="fill: none; stroke-dasharray: 1.85,0.8; stroke-dashoffset: 0; stroke: #ffffff; stroke-width: 0.5"/>
     </g>
     <g id="line2d_2">
      <defs>
       <path id="mb8177388ad" d="M 0 0 
L 0 3.5 
" style="stroke: #000000; stroke-width: 0.8"/>
      </defs>
      <g>
       <use xlink:href="#mb8177388ad" x="80.025463" y="273.312" style="stroke: #000000; stroke-width: 0.8"/>
      </g>
     </g>
     <g id="text_1">
      <!-- 20 -->
      <g transform="translate(73.662963 287.910437) scale(0.1 -0.1)">
       <defs>
        <path id="DejaVuSans-32" d="M 1228 531 
L 3431 531 
L 3431 0 
L 469 0 
L 469 531 
Q 828 903 1448 1529 
Q 2069 2156 2228 2338 
Q 2531 2678 2651 2914 
Q 2772 3150 2772 3378 
Q 2772 3750 2511 3984 
Q 2250 4219 1831 4219 
Q 1534 4219 1204 4116 
Q 875 4013 500 3803 
L 500 4441 
Q 881 4594 1212 4672 
Q 1544 4750 1819 4750 
Q 2544 4750 2975 4387 
Q 3406 4025 3406 3419 
Q 3406 3131 3298 2873 
Q 3191 2616 2906 2266 
Q 2828 2175 2409 1742 
Q 1991 1309 1228 531 
z
" transform="scale(0.015625)"/>
        <path id="DejaVuSans-30" d="M 2034 4250 
Q 1547 4250 1301 3770 
Q 1056 3291 1056 2328 
Q 1056 1369 1301 889 
Q 1547 409 2034 409 
Q 2525 409 2770 889 
Q 3016 1369 3016 2328 
Q 3016 3291 2770 3770 
Q 2525 4250 2034 4250 
z
M 2034 4750 
Q 2819 4750 3233 4129 
Q 3647 3509 3647 2328 
Q 3647 1150 3233 529 
Q 2819 -91 2034 -91 
Q 1250 -91 836 529 
Q 422 1150 422 2328 
Q 422 3509 836 4129 
Q 1250 4750 2034 4750 
z
" transform="scale(0.015625)"/>
       </defs>
       <use xlink:href="#DejaVuSans-32"/>
       <use xlink:href="#DejaVuSans-30" x="63.623047"/>
      </g>
     </g>
    </g>
    <g id="xtick_2">
     <g id="line2d_3">
      <path d="M 126.404683 273.312 
L 126.404683 7.2 
" clip-path="url(#pf496daf190)" style="fill: none; stroke-dasharray: 1.85,0.8; stroke-dashoffset: 0; stroke: #ffffff; stroke-width: 0.5"/>
     </g>
     <g id="line2d_4">
      <g>
       <use xlink:href="#mb8177388ad" x="126.404683" y="273.312" style="stroke: #000000; stroke-width: 0.8"/>
      </g>
     </g>
     <g id="text_2">
      <!-- 40 -->
      <g transform="translate(120.042183 287.910437) scale(0.1 -0.1)">
       <defs>
        <path id="DejaVuSans-34" d="M 2419 4116 
L 825 1625 
L 2419 1625 
L 2419 4116 
z
M 2253 4666 
L 3047 4666 
L 3047 1625 
L 3713 1625 
L 3713 1100 
L 3047 1100 
L 3047 0 
L 2419 0 
L 2419 1100 
L 313 1100 
L 313 1709 
L 2253 4666 
z
" transform="scale(0.015625)"/>
       </defs>
       <use xlink:href="#DejaVuSans-34"/>
       <use xlink:href="#DejaVuSans-30" x="63.623047"/>
      </g>
     </g>
    </g>
    <g id="xtick_3">
     <g id="line2d_5">
      <path d="M 172.783904 273.312 
L 172.783904 7.2 
" clip-path="url(#pf496daf190)" style="fill: none; stroke-dasharray: 1.85,0.8; stroke-dashoffset: 0; stroke: #ffffff; stroke-width: 0.5"/>
     </g>
     <g id="line2d_6">
      <g>
       <use xlink:href="#mb8177388ad" x="172.783904" y="273.312" style="stroke: #000000; stroke-width: 0.8"/>
      </g>
     </g>
     <g id="text_3">
      <!-- 60 -->
      <g transform="translate(166.421404 287.910437) scale(0.1 -0.1)">
       <defs>
        <path id="DejaVuSans-36" d="M 2113 2584 
Q 1688 2584 1439 2293 
Q 1191 2003 1191 1497 
Q 1191 994 1439 701 
Q 1688 409 2113 409 
Q 2538 409 2786 701 
Q 3034 994 3034 1497 
Q 3034 2003 2786 2293 
Q 2538 2584 2113 2584 
z
M 3366 4563 
L 3366 3988 
Q 3128 4100 2886 4159 
Q 2644 4219 2406 4219 
Q 1781 4219 1451 3797 
Q 1122 3375 1075 2522 
Q 1259 2794 1537 2939 
Q 1816 3084 2150 3084 
Q 2853 3084 3261 2657 
Q 3669 2231 3669 1497 
Q 3669 778 3244 343 
Q 2819 -91 2113 -91 
Q 1303 -91 875 529 
Q 447 1150 447 2328 
Q 447 3434 972 4092 
Q 1497 4750 2381 4750 
Q 2619 4750 2861 4703 
Q 3103 4656 3366 4563 
z
" transform="scale(0.015625)"/>
       </defs>
       <use xlink:href="#DejaVuSans-36"/>
       <use xlink:href="#DejaVuSans-30" x="63.623047"/>
      </g>
     </g>
    </g>
    <g id="xtick_4">
     <g id="line2d_7">
      <path d="M 219.163125 273.312 
L 219.163125 7.2 
" clip-path="url(#pf496daf190)" style="fill: none; stroke-dasharray: 1.85,0.8; stroke-dashoffset: 0; stroke: #ffffff; stroke-width: 0.5"/>
     </g>
     <g id="line2d_8">
      <g>
       <use xlink:href="#mb8177388ad" x="219.163125" y="273.312" style="stroke: #000000; stroke-width: 0.8"/>
      </g>
     </g>
     <g id="text_4">
      <!-- 80 -->
      <g transform="translate(212.800625 287.910437) scale(0.1 -0.1)">
       <defs>
        <path id="DejaVuSans-38" d="M 2034 2216 
Q 1584 2216 1326 1975 
Q 1069 1734 1069 1313 
Q 1069 891 1326 650 
Q 1584 409 2034 409 
Q 2484 409 2743 651 
Q 3003 894 3003 1313 
Q 3003 1734 2745 1975 
Q 2488 2216 2034 2216 
z
M 1403 2484 
Q 997 2584 770 2862 
Q 544 3141 544 3541 
Q 544 4100 942 4425 
Q 1341 4750 2034 4750 
Q 2731 4750 3128 4425 
Q 3525 4100 3525 3541 
Q 3525 3141 3298 2862 
Q 3072 2584 2669 2484 
Q 3125 2378 3379 2068 
Q 3634 1759 3634 1313 
Q 3634 634 3220 271 
Q 2806 -91 2034 -91 
Q 1263 -91 848 271 
Q 434 634 434 1313 
Q 434 1759 690 2068 
Q 947 2378 1403 2484 
z
M 1172 3481 
Q 1172 3119 1398 2916 
Q 1625 2713 2034 2713 
Q 2441 2713 2670 2916 
Q 2900 3119 2900 3481 
Q 2900 3844 2670 4047 
Q 2441 4250 2034 4250 
Q 1625 4250 1398 4047 
Q 1172 3844 1172 3481 
z
" transform="scale(0.015625)"/>
       </defs>
       <use xlink:href="#DejaVuSans-38"/>
       <use xlink:href="#DejaVuSans-30" x="63.623047"/>
      </g>
     </g>
    </g>
    <g id="xtick_5">
     <g id="line2d_9">
      <path d="M 265.542346 273.312 
L 265.542346 7.2 
" clip-path="url(#pf496daf190)" style="fill: none; stroke-dasharray: 1.85,0.8; stroke-dashoffset: 0; stroke: #ffffff; stroke-width: 0.5"/>
     </g>
     <g id="line2d_10">
      <g>
       <use xlink:href="#mb8177388ad" x="265.542346" y="273.312" style="stroke: #000000; stroke-width: 0.8"/>
      </g>
     </g>
     <g id="text_5">
      <!-- 100 -->
      <g transform="translate(255.998596 287.910437) scale(0.1 -0.1)">
       <defs>
        <path id="DejaVuSans-31" d="M 794 531 
L 1825 531 
L 1825 4091 
L 703 3866 
L 703 4441 
L 1819 4666 
L 2450 4666 
L 2450 531 
L 3481 531 
L 3481 0 
L 794 0 
L 794 531 
z
" transform="scale(0.015625)"/>
       </defs>
       <use xlink:href="#DejaVuSans-31"/>
       <use xlink:href="#DejaVuSans-30" x="63.623047"/>
       <use xlink:href="#DejaVuSans-30" x="127.246094"/>
      </g>
     </g>
    </g>
    <g id="xtick_6">
     <g id="line2d_11">
      <path d="M 311.921567 273.312 
L 311.921567 7.2 
" clip-path="url(#pf496daf190)" style="fill: none; stroke-dasharray: 1.85,0.8; stroke-dashoffset: 0; stroke: #ffffff; stroke-width: 0.5"/>
     </g>
     <g id="line2d_12">
      <g>
       <use xlink:href="#mb8177388ad" x="311.921567" y="273.312" style="stroke: #000000; stroke-width: 0.8"/>
      </g>
     </g>
     <g id="text_6">
      <!-- 120 -->
      <g transform="translate(302.377817 287.910437) scale(0.1 -0.1)">
       <use xlink:href="#DejaVuSans-31"/>
       <use xlink:href="#DejaVuSans-32" x="63.623047"/>
       <use xlink:href="#DejaVuSans-30" x="127.246094"/>
      </g>
     </g>
    </g>
    <g id="xtick_7">
     <g id="line2d_13">
      <path d="M 358.300787 273.312 
L 358.300787 7.2 
" clip-path="url(#pf496daf190)" style="fill: none; stroke-dasharray: 1.85,0.8; stroke-dashoffset: 0; stroke: #ffffff; stroke-width: 0.5"/>
     </g>
     <g id="line2d_14">
      <g>
       <use xlink:href="#mb8177388ad" x="358.300787" y="273.312" style="stroke: #000000; stroke-width: 0.8"/>
      </g>
     </g>
     <g id="text_7">
      <!-- 140 -->
      <g transform="translate(348.757037 287.910437) scale(0.1 -0.1)">
       <use xlink:href="#DejaVuSans-31"/>
       <use xlink:href="#DejaVuSans-34" x="63.623047"/>
       <use xlink:href="#DejaVuSans-30" x="127.246094"/>
      </g>
     </g>
    </g>
    <g id="text_8">
     <!-- Data rate [Mbps] -->
     <g transform="translate(176.721719 301.588562) scale(0.1 -0.1)">
      <defs>
       <path id="DejaVuSans-44" d="M 1259 4147 
L 1259 519 
L 2022 519 
Q 2988 519 3436 956 
Q 3884 1394 3884 2338 
Q 3884 3275 3436 3711 
Q 2988 4147 2022 4147 
L 1259 4147 
z
M 628 4666 
L 1925 4666 
Q 3281 4666 3915 4102 
Q 4550 3538 4550 2338 
Q 4550 1131 3912 565 
Q 3275 0 1925 0 
L 628 0 
L 628 4666 
z
" transform="scale(0.015625)"/>
       <path id="DejaVuSans-61" d="M 2194 1759 
Q 1497 1759 1228 1600 
Q 959 1441 959 1056 
Q 959 750 1161 570 
Q 1363 391 1709 391 
Q 2188 391 2477 730 
Q 2766 1069 2766 1631 
L 2766 1759 
L 2194 1759 
z
M 3341 1997 
L 3341 0 
L 2766 0 
L 2766 531 
Q 2569 213 2275 61 
Q 1981 -91 1556 -91 
Q 1019 -91 701 211 
Q 384 513 384 1019 
Q 384 1609 779 1909 
Q 1175 2209 1959 2209 
L 2766 2209 
L 2766 2266 
Q 2766 2663 2505 2880 
Q 2244 3097 1772 3097 
Q 1472 3097 1187 3025 
Q 903 2953 641 2809 
L 641 3341 
Q 956 3463 1253 3523 
Q 1550 3584 1831 3584 
Q 2591 3584 2966 3190 
Q 3341 2797 3341 1997 
z
" transform="scale(0.015625)"/>
       <path id="DejaVuSans-74" d="M 1172 4494 
L 1172 3500 
L 2356 3500 
L 2356 3053 
L 1172 3053 
L 1172 1153 
Q 1172 725 1289 603 
Q 1406 481 1766 481 
L 2356 481 
L 2356 0 
L 1766 0 
Q 1100 0 847 248 
Q 594 497 594 1153 
L 594 3053 
L 172 3053 
L 172 3500 
L 594 3500 
L 594 4494 
L 1172 4494 
z
" transform="scale(0.015625)"/>
       <path id="DejaVuSans-20" transform="scale(0.015625)"/>
       <path id="DejaVuSans-72" d="M 2631 2963 
Q 2534 3019 2420 3045 
Q 2306 3072 2169 3072 
Q 1681 3072 1420 2755 
Q 1159 2438 1159 1844 
L 1159 0 
L 581 0 
L 581 3500 
L 1159 3500 
L 1159 2956 
Q 1341 3275 1631 3429 
Q 1922 3584 2338 3584 
Q 2397 3584 2469 3576 
Q 2541 3569 2628 3553 
L 2631 2963 
z
" transform="scale(0.015625)"/>
       <path id="DejaVuSans-65" d="M 3597 1894 
L 3597 1613 
L 953 1613 
Q 991 1019 1311 708 
Q 1631 397 2203 397 
Q 2534 397 2845 478 
Q 3156 559 3463 722 
L 3463 178 
Q 3153 47 2828 -22 
Q 2503 -91 2169 -91 
Q 1331 -91 842 396 
Q 353 884 353 1716 
Q 353 2575 817 3079 
Q 1281 3584 2069 3584 
Q 2775 3584 3186 3129 
Q 3597 2675 3597 1894 
z
M 3022 2063 
Q 3016 2534 2758 2815 
Q 2500 3097 2075 3097 
Q 1594 3097 1305 2825 
Q 1016 2553 972 2059 
L 3022 2063 
z
" transform="scale(0.015625)"/>
       <path id="DejaVuSans-5b" d="M 550 4863 
L 1875 4863 
L 1875 4416 
L 1125 4416 
L 1125 -397 
L 1875 -397 
L 1875 -844 
L 550 -844 
L 550 4863 
z
" transform="scale(0.015625)"/>
       <path id="DejaVuSans-4d" d="M 628 4666 
L 1569 4666 
L 2759 1491 
L 3956 4666 
L 4897 4666 
L 4897 0 
L 4281 0 
L 4281 4097 
L 3078 897 
L 2444 897 
L 1241 4097 
L 1241 0 
L 628 0 
L 628 4666 
z
" transform="scale(0.015625)"/>
       <path id="DejaVuSans-62" d="M 3116 1747 
Q 3116 2381 2855 2742 
Q 2594 3103 2138 3103 
Q 1681 3103 1420 2742 
Q 1159 2381 1159 1747 
Q 1159 1113 1420 752 
Q 1681 391 2138 391 
Q 2594 391 2855 752 
Q 3116 1113 3116 1747 
z
M 1159 2969 
Q 1341 3281 1617 3432 
Q 1894 3584 2278 3584 
Q 2916 3584 3314 3078 
Q 3713 2572 3713 1747 
Q 3713 922 3314 415 
Q 2916 -91 2278 -91 
Q 1894 -91 1617 61 
Q 1341 213 1159 525 
L 1159 0 
L 581 0 
L 581 4863 
L 1159 4863 
L 1159 2969 
z
" transform="scale(0.015625)"/>
       <path id="DejaVuSans-70" d="M 1159 525 
L 1159 -1331 
L 581 -1331 
L 581 3500 
L 1159 3500 
L 1159 2969 
Q 1341 3281 1617 3432 
Q 1894 3584 2278 3584 
Q 2916 3584 3314 3078 
Q 3713 2572 3713 1747 
Q 3713 922 3314 415 
Q 2916 -91 2278 -91 
Q 1894 -91 1617 61 
Q 1341 213 1159 525 
z
M 3116 1747 
Q 3116 2381 2855 2742 
Q 2594 3103 2138 3103 
Q 1681 3103 1420 2742 
Q 1159 2381 1159 1747 
Q 1159 1113 1420 752 
Q 1681 391 2138 391 
Q 2594 391 2855 752 
Q 3116 1113 3116 1747 
z
" transform="scale(0.015625)"/>
       <path id="DejaVuSans-73" d="M 2834 3397 
L 2834 2853 
Q 2591 2978 2328 3040 
Q 2066 3103 1784 3103 
Q 1356 3103 1142 2972 
Q 928 2841 928 2578 
Q 928 2378 1081 2264 
Q 1234 2150 1697 2047 
L 1894 2003 
Q 2506 1872 2764 1633 
Q 3022 1394 3022 966 
Q 3022 478 2636 193 
Q 2250 -91 1575 -91 
Q 1294 -91 989 -36 
Q 684 19 347 128 
L 347 722 
Q 666 556 975 473 
Q 1284 391 1588 391 
Q 1994 391 2212 530 
Q 2431 669 2431 922 
Q 2431 1156 2273 1281 
Q 2116 1406 1581 1522 
L 1381 1569 
Q 847 1681 609 1914 
Q 372 2147 372 2553 
Q 372 3047 722 3315 
Q 1072 3584 1716 3584 
Q 2034 3584 2315 3537 
Q 2597 3491 2834 3397 
z
" transform="scale(0.015625)"/>
       <path id="DejaVuSans-5d" d="M 1947 4863 
L 1947 -844 
L 622 -844 
L 622 -397 
L 1369 -397 
L 1369 4416 
L 622 4416 
L 622 4863 
L 1947 4863 
z
" transform="scale(0.015625)"/>
      </defs>
      <use xlink:href="#DejaVuSans-44"/>
      <use xlink:href="#DejaVuSans-61" x="77.001953"/>
      <use xlink:href="#DejaVuSans-74" x="138.28125"/>
      <use xlink:href="#DejaVuSans-61" x="177.490234"/>
      <use xlink:href="#DejaVuSans-20" x="238.769531"/>
      <use xlink:href="#DejaVuSans-72" x="270.556641"/>
      <use xlink:href="#DejaVuSans-61" x="311.669922"/>
      <use xlink:href="#DejaVuSans-74" x="372.949219"/>
      <use xlink:href="#DejaVuSans-65" x="412.158203"/>
      <use xlink:href="#DejaVuSans-20" x="473.681641"/>
      <use xlink:href="#DejaVuSans-5b" x="505.46875"/>
      <use xlink:href="#DejaVuSans-4d" x="544.482422"/>
      <use xlink:href="#DejaVuSans-62" x="630.761719"/>
      <use xlink:href="#DejaVuSans-70" x="694.238281"/>
      <use xlink:href="#DejaVuSans-73" x="757.714844"/>
      <use xlink:href="#DejaVuSans-5d" x="809.814453"/>
     </g>
    </g>
   </g>
   <g id="matplotlib.axis_2">
    <g id="ytick_1">
     <g id="line2d_15">
      <path d="M 40.603125 273.312 
L 397.723125 273.312 
" clip-path="url(#pf496daf190)" style="fill: none; stroke-dasharray: 1.85,0.8; stroke-dashoffset: 0; stroke: #ffffff; stroke-width: 0.5"/>
     </g>
     <g id="line2d_16">
      <defs>
       <path id="m40e284c443" d="M 0 0 
L -3.5 0 
" style="stroke: #000000; stroke-width: 0.8"/>
      </defs>
      <g>
       <use xlink:href="#m40e284c443" x="40.603125" y="273.312" style="stroke: #000000; stroke-width: 0.8"/>
      </g>
     </g>
     <g id="text_9">
      <!-- 0 -->
      <g transform="translate(27.240625 277.111219) scale(0.1 -0.1)">
       <use xlink:href="#DejaVuSans-30"/>
      </g>
     </g>
    </g>
    <g id="ytick_2">
     <g id="line2d_17">
      <path d="M 40.603125 231.948835 
L 397.723125 231.948835 
" clip-path="url(#pf496daf190)" style="fill: none; stroke-dasharray: 1.85,0.8; stroke-dashoffset: 0; stroke: #ffffff; stroke-width: 0.5"/>
     </g>
     <g id="line2d_18">
      <g>
       <use xlink:href="#m40e284c443" x="40.603125" y="231.948835" style="stroke: #000000; stroke-width: 0.8"/>
      </g>
     </g>
     <g id="text_10">
      <!-- 5 -->
      <g transform="translate(27.240625 235.748054) scale(0.1 -0.1)">
       <defs>
        <path id="DejaVuSans-35" d="M 691 4666 
L 3169 4666 
L 3169 4134 
L 1269 4134 
L 1269 2991 
Q 1406 3038 1543 3061 
Q 1681 3084 1819 3084 
Q 2600 3084 3056 2656 
Q 3513 2228 3513 1497 
Q 3513 744 3044 326 
Q 2575 -91 1722 -91 
Q 1428 -91 1123 -41 
Q 819 9 494 109 
L 494 744 
Q 775 591 1075 516 
Q 1375 441 1709 441 
Q 2250 441 2565 725 
Q 2881 1009 2881 1497 
Q 2881 1984 2565 2268 
Q 2250 2553 1709 2553 
Q 1456 2553 1204 2497 
Q 953 2441 691 2322 
L 691 4666 
z
" transform="scale(0.015625)"/>
       </defs>
       <use xlink:href="#DejaVuSans-35"/>
      </g>
     </g>
    </g>
    <g id="ytick_3">
     <g id="line2d_19">
      <path d="M 40.603125 190.585671 
L 397.723125 190.585671 
" clip-path="url(#pf496daf190)" style="fill: none; stroke-dasharray: 1.85,0.8; stroke-dashoffset: 0; stroke: #ffffff; stroke-width: 0.5"/>
     </g>
     <g id="line2d_20">
      <g>
       <use xlink:href="#m40e284c443" x="40.603125" y="190.585671" style="stroke: #000000; stroke-width: 0.8"/>
      </g>
     </g>
     <g id="text_11">
      <!-- 10 -->
      <g transform="translate(20.878125 194.384889) scale(0.1 -0.1)">
       <use xlink:href="#DejaVuSans-31"/>
       <use xlink:href="#DejaVuSans-30" x="63.623047"/>
      </g>
     </g>
    </g>
    <g id="ytick_4">
     <g id="line2d_21">
      <path d="M 40.603125 149.222506 
L 397.723125 149.222506 
" clip-path="url(#pf496daf190)" style="fill: none; stroke-dasharray: 1.85,0.8; stroke-dashoffset: 0; stroke: #ffffff; stroke-width: 0.5"/>
     </g>
     <g id="line2d_22">
      <g>
       <use xlink:href="#m40e284c443" x="40.603125" y="149.222506" style="stroke: #000000; stroke-width: 0.8"/>
      </g>
     </g>
     <g id="text_12">
      <!-- 15 -->
      <g transform="translate(20.878125 153.021725) scale(0.1 -0.1)">
       <use xlink:href="#DejaVuSans-31"/>
       <use xlink:href="#DejaVuSans-35" x="63.623047"/>
      </g>
     </g>
    </g>
    <g id="ytick_5">
     <g id="line2d_23">
      <path d="M 40.603125 107.859341 
L 397.723125 107.859341 
" clip-path="url(#pf496daf190)" style="fill: none; stroke-dasharray: 1.85,0.8; stroke-dashoffset: 0; stroke: #ffffff; stroke-width: 0.5"/>
     </g>
     <g id="line2d_24">
      <g>
       <use xlink:href="#m40e284c443" x="40.603125" y="107.859341" style="stroke: #000000; stroke-width: 0.8"/>
      </g>
     </g>
     <g id="text_13">
      <!-- 20 -->
      <g transform="translate(20.878125 111.65856) scale(0.1 -0.1)">
       <use xlink:href="#DejaVuSans-32"/>
       <use xlink:href="#DejaVuSans-30" x="63.623047"/>
      </g>
     </g>
    </g>
    <g id="ytick_6">
     <g id="line2d_25">
      <path d="M 40.603125 66.496177 
L 397.723125 66.496177 
" clip-path="url(#pf496daf190)" style="fill: none; stroke-dasharray: 1.85,0.8; stroke-dashoffset: 0; stroke: #ffffff; stroke-width: 0.5"/>
     </g>
     <g id="line2d_26">
      <g>
       <use xlink:href="#m40e284c443" x="40.603125" y="66.496177" style="stroke: #000000; stroke-width: 0.8"/>
      </g>
     </g>
     <g id="text_14">
      <!-- 25 -->
      <g transform="translate(20.878125 70.295395) scale(0.1 -0.1)">
       <use xlink:href="#DejaVuSans-32"/>
       <use xlink:href="#DejaVuSans-35" x="63.623047"/>
      </g>
     </g>
    </g>
    <g id="ytick_7">
     <g id="line2d_27">
      <path d="M 40.603125 25.133012 
L 397.723125 25.133012 
" clip-path="url(#pf496daf190)" style="fill: none; stroke-dasharray: 1.85,0.8; stroke-dashoffset: 0; stroke: #ffffff; stroke-width: 0.5"/>
     </g>
     <g id="line2d_28">
      <g>
       <use xlink:href="#m40e284c443" x="40.603125" y="25.133012" style="stroke: #000000; stroke-width: 0.8"/>
      </g>
     </g>
     <g id="text_15">
      <!-- 30 -->
      <g transform="translate(20.878125 28.932231) scale(0.1 -0.1)">
       <defs>
        <path id="DejaVuSans-33" d="M 2597 2516 
Q 3050 2419 3304 2112 
Q 3559 1806 3559 1356 
Q 3559 666 3084 287 
Q 2609 -91 1734 -91 
Q 1441 -91 1130 -33 
Q 819 25 488 141 
L 488 750 
Q 750 597 1062 519 
Q 1375 441 1716 441 
Q 2309 441 2620 675 
Q 2931 909 2931 1356 
Q 2931 1769 2642 2001 
Q 2353 2234 1838 2234 
L 1294 2234 
L 1294 2753 
L 1863 2753 
Q 2328 2753 2575 2939 
Q 2822 3125 2822 3475 
Q 2822 3834 2567 4026 
Q 2313 4219 1838 4219 
Q 1578 4219 1281 4162 
Q 984 4106 628 3988 
L 628 4550 
Q 988 4650 1302 4700 
Q 1616 4750 1894 4750 
Q 2613 4750 3031 4423 
Q 3450 4097 3450 3541 
Q 3450 3153 3228 2886 
Q 3006 2619 2597 2516 
z
" transform="scale(0.015625)"/>
       </defs>
       <use xlink:href="#DejaVuSans-33"/>
       <use xlink:href="#DejaVuSans-30" x="63.623047"/>
      </g>
     </g>
    </g>
    <g id="text_16">
     <!-- Loss [%] -->
     <g transform="translate(14.798438 161.464594) rotate(-90) scale(0.1 -0.1)">
      <defs>
       <path id="DejaVuSans-4c" d="M 628 4666 
L 1259 4666 
L 1259 531 
L 3531 531 
L 3531 0 
L 628 0 
L 628 4666 
z
" transform="scale(0.015625)"/>
       <path id="DejaVuSans-6f" d="M 1959 3097 
Q 1497 3097 1228 2736 
Q 959 2375 959 1747 
Q 959 1119 1226 758 
Q 1494 397 1959 397 
Q 2419 397 2687 759 
Q 2956 1122 2956 1747 
Q 2956 2369 2687 2733 
Q 2419 3097 1959 3097 
z
M 1959 3584 
Q 2709 3584 3137 3096 
Q 3566 2609 3566 1747 
Q 3566 888 3137 398 
Q 2709 -91 1959 -91 
Q 1206 -91 779 398 
Q 353 888 353 1747 
Q 353 2609 779 3096 
Q 1206 3584 1959 3584 
z
" transform="scale(0.015625)"/>
       <path id="DejaVuSans-25" d="M 4653 2053 
Q 4381 2053 4226 1822 
Q 4072 1591 4072 1178 
Q 4072 772 4226 539 
Q 4381 306 4653 306 
Q 4919 306 5073 539 
Q 5228 772 5228 1178 
Q 5228 1588 5073 1820 
Q 4919 2053 4653 2053 
z
M 4653 2450 
Q 5147 2450 5437 2106 
Q 5728 1763 5728 1178 
Q 5728 594 5436 251 
Q 5144 -91 4653 -91 
Q 4153 -91 3862 251 
Q 3572 594 3572 1178 
Q 3572 1766 3864 2108 
Q 4156 2450 4653 2450 
z
M 1428 4353 
Q 1159 4353 1004 4120 
Q 850 3888 850 3481 
Q 850 3069 1003 2837 
Q 1156 2606 1428 2606 
Q 1700 2606 1854 2837 
Q 2009 3069 2009 3481 
Q 2009 3884 1853 4118 
Q 1697 4353 1428 4353 
z
M 4250 4750 
L 4750 4750 
L 1831 -91 
L 1331 -91 
L 4250 4750 
z
M 1428 4750 
Q 1922 4750 2215 4408 
Q 2509 4066 2509 3481 
Q 2509 2891 2217 2550 
Q 1925 2209 1428 2209 
Q 931 2209 642 2551 
Q 353 2894 353 3481 
Q 353 4063 643 4406 
Q 934 4750 1428 4750 
z
" transform="scale(0.015625)"/>
      </defs>
      <use xlink:href="#DejaVuSans-4c"/>
      <use xlink:href="#DejaVuSans-6f" x="53.962891"/>
      <use xlink:href="#DejaVuSans-73" x="115.144531"/>
      <use xlink:href="#DejaVuSans-73" x="167.244141"/>
      <use xlink:href="#DejaVuSans-20" x="219.34375"/>
      <use xlink:href="#DejaVuSans-5b" x="251.130859"/>
      <use xlink:href="#DejaVuSans-25" x="290.144531"/>
      <use xlink:href="#DejaVuSans-5d" x="385.164062"/>
     </g>
    </g>
   </g>
   <g id="line2d_29">
    <path d="M 56.835852 273.266459 
L 80.025463 273.251725 
L 103.215073 273.252172 
L 126.404683 273.249716 
L 149.594294 273.247707 
L 172.783904 273.246367 
L 195.973515 273.245793 
L 219.163125 273.243019 
L 242.352735 273.241159 
L 265.542346 273.232973 
L 288.731956 235.999309 
L 311.921567 170.182049 
L 335.111177 114.458972 
L 358.300787 66.740495 
L 381.490398 25.346446 
" clip-path="url(#pf496daf190)" style="fill: none; stroke: #003f5c; stroke-width: 1.5; stroke-linecap: square"/>
    <defs>
     <path id="m577ab8187b" d="M 0 4 
C 1.060812 4 2.078319 3.578535 2.828427 2.828427 
C 3.578535 2.078319 4 1.060812 4 0 
C 4 -1.060812 3.578535 -2.078319 2.828427 -2.828427 
C 2.078319 -3.578535 1.060812 -4 0 -4 
C -1.060812 -4 -2.078319 -3.578535 -2.828427 -2.828427 
C -3.578535 -2.078319 -4 -1.060812 -4 0 
C -4 1.060812 -3.578535 2.078319 -2.828427 2.828427 
C -2.078319 3.578535 -1.060812 4 0 4 
z
" style="stroke: #ffffff; stroke-width: 0.75"/>
    </defs>
    <g clip-path="url(#pf496daf190)">
     <use xlink:href="#m577ab8187b" x="56.835852" y="273.266459" style="fill: #003f5c; stroke: #ffffff; stroke-width: 0.75"/>
     <use xlink:href="#m577ab8187b" x="80.025463" y="273.251725" style="fill: #003f5c; stroke: #ffffff; stroke-width: 0.75"/>
     <use xlink:href="#m577ab8187b" x="103.215073" y="273.252172" style="fill: #003f5c; stroke: #ffffff; stroke-width: 0.75"/>
     <use xlink:href="#m577ab8187b" x="126.404683" y="273.249716" style="fill: #003f5c; stroke: #ffffff; stroke-width: 0.75"/>
     <use xlink:href="#m577ab8187b" x="149.594294" y="273.247707" style="fill: #003f5c; stroke: #ffffff; stroke-width: 0.75"/>
     <use xlink:href="#m577ab8187b" x="172.783904" y="273.246367" style="fill: #003f5c; stroke: #ffffff; stroke-width: 0.75"/>
     <use xlink:href="#m577ab8187b" x="195.973515" y="273.245793" style="fill: #003f5c; stroke: #ffffff; stroke-width: 0.75"/>
     <use xlink:href="#m577ab8187b" x="219.163125" y="273.243019" style="fill: #003f5c; stroke: #ffffff; stroke-width: 0.75"/>
     <use xlink:href="#m577ab8187b" x="242.352735" y="273.241159" style="fill: #003f5c; stroke: #ffffff; stroke-width: 0.75"/>
     <use xlink:href="#m577ab8187b" x="265.542346" y="273.232973" style="fill: #003f5c; stroke: #ffffff; stroke-width: 0.75"/>
     <use xlink:href="#m577ab8187b" x="288.731956" y="235.999309" style="fill: #003f5c; stroke: #ffffff; stroke-width: 0.75"/>
     <use xlink:href="#m577ab8187b" x="311.921567" y="170.182049" style="fill: #003f5c; stroke: #ffffff; stroke-width: 0.75"/>
     <use xlink:href="#m577ab8187b" x="335.111177" y="114.458972" style="fill: #003f5c; stroke: #ffffff; stroke-width: 0.75"/>
     <use xlink:href="#m577ab8187b" x="358.300787" y="66.740495" style="fill: #003f5c; stroke: #ffffff; stroke-width: 0.75"/>
     <use xlink:href="#m577ab8187b" x="381.490398" y="25.346446" style="fill: #003f5c; stroke: #ffffff; stroke-width: 0.75"/>
    </g>
   </g>
   <g id="line2d_30">
    <path d="M 56.835852 273.293248 
L 80.025463 273.28923 
L 103.215073 273.286997 
L 126.404683 273.283872 
L 149.594294 273.282532 
L 172.783904 273.280746 
L 195.973515 273.279853 
L 219.163125 273.277509 
L 242.352735 273.273007 
L 265.542346 273.262173 
L 288.731956 228.559813 
L 311.921567 163.385529 
L 335.111177 108.205413 
L 358.300787 60.906634 
L 381.490398 19.905259 
" clip-path="url(#pf496daf190)" style="fill: none; stroke: #bc5090; stroke-width: 1.5; stroke-linecap: square"/>
    <defs>
     <path id="m03aa4be6bc" d="M 0 4 
C 1.060812 4 2.078319 3.578535 2.828427 2.828427 
C 3.578535 2.078319 4 1.060812 4 0 
C 4 -1.060812 3.578535 -2.078319 2.828427 -2.828427 
C 2.078319 -3.578535 1.060812 -4 0 -4 
C -1.060812 -4 -2.078319 -3.578535 -2.828427 -2.828427 
C -3.578535 -2.078319 -4 -1.060812 -4 0 
C -4 1.060812 -3.578535 2.078319 -2.828427 2.828427 
C -2.078319 3.578535 -1.060812 4 0 4 
z
" style="stroke: #ffffff; stroke-width: 0.75"/>
    </defs>
    <g clip-path="url(#pf496daf190)">
     <use xlink:href="#m03aa4be6bc" x="56.835852" y="273.293248" style="fill: #bc5090; stroke: #ffffff; stroke-width: 0.75"/>
     <use xlink:href="#m03aa4be6bc" x="80.025463" y="273.28923" style="fill: #bc5090; stroke: #ffffff; stroke-width: 0.75"/>
     <use xlink:href="#m03aa4be6bc" x="103.215073" y="273.286997" style="fill: #bc5090; stroke: #ffffff; stroke-width: 0.75"/>
     <use xlink:href="#m03aa4be6bc" x="126.404683" y="273.283872" style="fill: #bc5090; stroke: #ffffff; stroke-width: 0.75"/>
     <use xlink:href="#m03aa4be6bc" x="149.594294" y="273.282532" style="fill: #bc5090; stroke: #ffffff; stroke-width: 0.75"/>
     <use xlink:href="#m03aa4be6bc" x="172.783904" y="273.280746" style="fill: #bc5090; stroke: #ffffff; stroke-width: 0.75"/>
     <use xlink:href="#m03aa4be6bc" x="195.973515" y="273.279853" style="fill: #bc5090; stroke: #ffffff; stroke-width: 0.75"/>
     <use xlink:href="#m03aa4be6bc" x="219.163125" y="273.277509" style="fill: #bc5090; stroke: #ffffff; stroke-width: 0.75"/>
     <use xlink:href="#m03aa4be6bc" x="242.352735" y="273.273007" style="fill: #bc5090; stroke: #ffffff; stroke-width: 0.75"/>
     <use xlink:href="#m03aa4be6bc" x="265.542346" y="273.262173" style="fill: #bc5090; stroke: #ffffff; stroke-width: 0.75"/>
     <use xlink:href="#m03aa4be6bc" x="288.731956" y="228.559813" style="fill: #bc5090; stroke: #ffffff; stroke-width: 0.75"/>
     <use xlink:href="#m03aa4be6bc" x="311.921567" y="163.385529" style="fill: #bc5090; stroke: #ffffff; stroke-width: 0.75"/>
     <use xlink:href="#m03aa4be6bc" x="335.111177" y="108.205413" style="fill: #bc5090; stroke: #ffffff; stroke-width: 0.75"/>
     <use xlink:href="#m03aa4be6bc" x="358.300787" y="60.906634" style="fill: #bc5090; stroke: #ffffff; stroke-width: 0.75"/>
     <use xlink:href="#m03aa4be6bc" x="381.490398" y="19.905259" style="fill: #bc5090; stroke: #ffffff; stroke-width: 0.75"/>
    </g>
   </g>
   <g id="line2d_31">
    <path d="M 56.835852 273.290569 
L 80.025463 273.283872 
L 103.215073 273.281639 
L 126.404683 273.278514 
L 149.594294 273.276639 
L 172.783904 273.276728 
L 195.973515 273.274113 
L 219.163125 273.271482 
L 242.352735 273.267054 
L 265.542346 273.257351 
L 288.731956 229.468921 
L 311.921567 164.20452 
L 335.111177 108.949399 
L 358.300787 61.59602 
L 381.490398 20.563209 
" clip-path="url(#pf496daf190)" style="fill: none; stroke: #ffa600; stroke-width: 1.5; stroke-linecap: square"/>
    <defs>
     <path id="m9b26e8702c" d="M 0 4 
C 1.060812 4 2.078319 3.578535 2.828427 2.828427 
C 3.578535 2.078319 4 1.060812 4 0 
C 4 -1.060812 3.578535 -2.078319 2.828427 -2.828427 
C 2.078319 -3.578535 1.060812 -4 0 -4 
C -1.060812 -4 -2.078319 -3.578535 -2.828427 -2.828427 
C -3.578535 -2.078319 -4 -1.060812 -4 0 
C -4 1.060812 -3.578535 2.078319 -2.828427 2.828427 
C -2.078319 3.578535 -1.060812 4 0 4 
z
" style="stroke: #ffffff; stroke-width: 0.75"/>
    </defs>
    <g clip-path="url(#pf496daf190)">
     <use xlink:href="#m9b26e8702c" x="56.835852" y="273.290569" style="fill: #ffa600; stroke: #ffffff; stroke-width: 0.75"/>
     <use xlink:href="#m9b26e8702c" x="80.025463" y="273.283872" style="fill: #ffa600; stroke: #ffffff; stroke-width: 0.75"/>
     <use xlink:href="#m9b26e8702c" x="103.215073" y="273.281639" style="fill: #ffa600; stroke: #ffffff; stroke-width: 0.75"/>
     <use xlink:href="#m9b26e8702c" x="126.404683" y="273.278514" style="fill: #ffa600; stroke: #ffffff; stroke-width: 0.75"/>
     <use xlink:href="#m9b26e8702c" x="149.594294" y="273.276639" style="fill: #ffa600; stroke: #ffffff; stroke-width: 0.75"/>
     <use xlink:href="#m9b26e8702c" x="172.783904" y="273.276728" style="fill: #ffa600; stroke: #ffffff; stroke-width: 0.75"/>
     <use xlink:href="#m9b26e8702c" x="195.973515" y="273.274113" style="fill: #ffa600; stroke: #ffffff; stroke-width: 0.75"/>
     <use xlink:href="#m9b26e8702c" x="219.163125" y="273.271482" style="fill: #ffa600; stroke: #ffffff; stroke-width: 0.75"/>
     <use xlink:href="#m9b26e8702c" x="242.352735" y="273.267054" style="fill: #ffa600; stroke: #ffffff; stroke-width: 0.75"/>
     <use xlink:href="#m9b26e8702c" x="265.542346" y="273.257351" style="fill: #ffa600; stroke: #ffffff; stroke-width: 0.75"/>
     <use xlink:href="#m9b26e8702c" x="288.731956" y="229.468921" style="fill: #ffa600; stroke: #ffffff; stroke-width: 0.75"/>
     <use xlink:href="#m9b26e8702c" x="311.921567" y="164.20452" style="fill: #ffa600; stroke: #ffffff; stroke-width: 0.75"/>
     <use xlink:href="#m9b26e8702c" x="335.111177" y="108.949399" style="fill: #ffa600; stroke: #ffffff; stroke-width: 0.75"/>
     <use xlink:href="#m9b26e8702c" x="358.300787" y="61.59602" style="fill: #ffa600; stroke: #ffffff; stroke-width: 0.75"/>
     <use xlink:href="#m9b26e8702c" x="381.490398" y="20.563209" style="fill: #ffa600; stroke: #ffffff; stroke-width: 0.75"/>
    </g>
   </g>
   <g id="line2d_32"/>
   <g id="line2d_33"/>
   <g id="line2d_34"/>
   <g id="line2d_35"/>
   <g id="line2d_36"/>
   <g id="line2d_37"/>
   <g id="patch_3">
    <path d="M 40.603125 273.312 
L 40.603125 7.2 
" style="fill: none; stroke: #000000; stroke-width: 0.8; stroke-linejoin: miter; stroke-linecap: square"/>
   </g>
   <g id="patch_4">
    <path d="M 397.723125 273.312 
L 397.723125 7.2 
" style="fill: none; stroke: #000000; stroke-width: 0.8; stroke-linejoin: miter; stroke-linecap: square"/>
   </g>
   <g id="patch_5">
    <path d="M 40.603125 273.312 
L 397.723125 273.312 
" style="fill: none; stroke: #000000; stroke-width: 0.8; stroke-linejoin: miter; stroke-linecap: square"/>
   </g>
   <g id="patch_6">
    <path d="M 40.603125 7.2 
L 397.723125 7.2 
" style="fill: none; stroke: #000000; stroke-width: 0.8; stroke-linejoin: miter; stroke-linecap: square"/>
   </g>
   <g id="legend_1">
    <g id="patch_7">
     <path d="M 49.003125 69.64125 
L 126.324375 69.64125 
Q 128.724375 69.64125 128.724375 67.24125 
L 128.724375 15.6 
Q 128.724375 13.2 126.324375 13.2 
L 49.003125 13.2 
Q 46.603125 13.2 46.603125 15.6 
L 46.603125 67.24125 
Q 46.603125 69.64125 49.003125 69.64125 
z
" style="fill: #ffffff; opacity: 0.8; stroke: #cccccc; stroke-linejoin: miter"/>
    </g>
    <g id="line2d_38">
     <path d="M 51.403125 22.918125 
L 63.403125 22.918125 
L 75.403125 22.918125 
" style="fill: none; stroke: #003f5c; stroke-width: 1.5; stroke-linecap: square"/>
    </g>
    <g id="text_17">
     <!-- 1 link -->
     <g transform="translate(85.003125 27.118125) scale(0.12 -0.12)">
      <defs>
       <path id="DejaVuSans-6c" d="M 603 4863 
L 1178 4863 
L 1178 0 
L 603 0 
L 603 4863 
z
" transform="scale(0.015625)"/>
       <path id="DejaVuSans-69" d="M 603 3500 
L 1178 3500 
L 1178 0 
L 603 0 
L 603 3500 
z
M 603 4863 
L 1178 4863 
L 1178 4134 
L 603 4134 
L 603 4863 
z
" transform="scale(0.015625)"/>
       <path id="DejaVuSans-6e" d="M 3513 2113 
L 3513 0 
L 2938 0 
L 2938 2094 
Q 2938 2591 2744 2837 
Q 2550 3084 2163 3084 
Q 1697 3084 1428 2787 
Q 1159 2491 1159 1978 
L 1159 0 
L 581 0 
L 581 3500 
L 1159 3500 
L 1159 2956 
Q 1366 3272 1645 3428 
Q 1925 3584 2291 3584 
Q 2894 3584 3203 3211 
Q 3513 2838 3513 2113 
z
" transform="scale(0.015625)"/>
       <path id="DejaVuSans-6b" d="M 581 4863 
L 1159 4863 
L 1159 1991 
L 2875 3500 
L 3609 3500 
L 1753 1863 
L 3688 0 
L 2938 0 
L 1159 1709 
L 1159 0 
L 581 0 
L 581 4863 
z
" transform="scale(0.015625)"/>
      </defs>
      <use xlink:href="#DejaVuSans-31"/>
      <use xlink:href="#DejaVuSans-20" x="63.623047"/>
      <use xlink:href="#DejaVuSans-6c" x="95.410156"/>
      <use xlink:href="#DejaVuSans-69" x="123.193359"/>
      <use xlink:href="#DejaVuSans-6e" x="150.976562"/>
      <use xlink:href="#DejaVuSans-6b" x="214.355469"/>
     </g>
    </g>
    <g id="line2d_39">
     <path d="M 51.403125 40.531875 
L 63.403125 40.531875 
L 75.403125 40.531875 
" style="fill: none; stroke: #bc5090; stroke-width: 1.5; stroke-linecap: square"/>
    </g>
    <g id="text_18">
     <!-- 2 links -->
     <g transform="translate(85.003125 44.731875) scale(0.12 -0.12)">
      <use xlink:href="#DejaVuSans-32"/>
      <use xlink:href="#DejaVuSans-20" x="63.623047"/>
      <use xlink:href="#DejaVuSans-6c" x="95.410156"/>
      <use xlink:href="#DejaVuSans-69" x="123.193359"/>
      <use xlink:href="#DejaVuSans-6e" x="150.976562"/>
      <use xlink:href="#DejaVuSans-6b" x="214.355469"/>
      <use xlink:href="#DejaVuSans-73" x="272.265625"/>
     </g>
    </g>
    <g id="line2d_40">
     <path d="M 51.403125 58.145625 
L 63.403125 58.145625 
L 75.403125 58.145625 
" style="fill: none; stroke: #ffa600; stroke-width: 1.5; stroke-linecap: square"/>
    </g>
    <g id="text_19">
     <!-- 3 links -->
     <g transform="translate(85.003125 62.345625) scale(0.12 -0.12)">
      <use xlink:href="#DejaVuSans-33"/>
      <use xlink:href="#DejaVuSans-20" x="63.623047"/>
      <use xlink:href="#DejaVuSans-6c" x="95.410156"/>
      <use xlink:href="#DejaVuSans-69" x="123.193359"/>
      <use xlink:href="#DejaVuSans-6e" x="150.976562"/>
      <use xlink:href="#DejaVuSans-6b" x="214.355469"/>
      <use xlink:href="#DejaVuSans-73" x="272.265625"/>
     </g>
    </g>
   </g>
  </g>
 </g>
 <defs>
  <clipPath id="pf496daf190">
   <rect x="40.603125" y="7.2" width="357.12" height="266.112"/>
  </clipPath>
 </defs>
</svg>
