<?xml version="1.0" encoding="utf-8" standalone="no"?>
<!DOCTYPE svg PUBLIC "-//W3C//DTD SVG 1.1//EN"
  "http://www.w3.org/Graphics/SVG/1.1/DTD/svg11.dtd">
<svg xmlns:xlink="http://www.w3.org/1999/xlink" width="411.285625pt" height="310.86825pt" viewBox="0 0 411.285625 310.86825" xmlns="http://www.w3.org/2000/svg" version="1.1">
 <metadata>
  <rdf:RDF xmlns:dc="http://purl.org/dc/elements/1.1/" xmlns:cc="http://creativecommons.org/ns#" xmlns:rdf="http://www.w3.org/1999/02/22-rdf-syntax-ns#">
   <cc:Work>
    <dc:type rdf:resource="http://purl.org/dc/dcmitype/StillImage"/>
    <dc:date>2025-04-30T13:21:40.276704</dc:date>
    <dc:format>image/svg+xml</dc:format>
    <dc:creator>
     <cc:Agent>
      <dc:title>Matplotlib v3.9.2, https://matplotlib.org/</dc:title>
     </cc:Agent>
    </dc:creator>
   </cc:Work>
  </rdf:RDF>
 </metadata>
 <defs>
  <style type="text/css">*{stroke-linejoin: round; stroke-linecap: butt}</style>
 </defs>
 <g id="figure_1">
  <g id="patch_1">
   <path d="M 0 310.86825 
L 411.285625 310.86825 
L 411.285625 0 
L 0 0 
z
" style="fill: #ffffff"/>
  </g>
  <g id="axes_1">
   <g id="patch_2">
    <path d="M 46.965625 273.312 
L 404.085625 273.312 
L 404.085625 7.2 
L 46.965625 7.2 
z
" style="fill: #ffffff"/>
   </g>
   <g id="PolyCollection_1">
    <defs>
     <path id="m87d2cf7b55" d="M 63.198352 -61.791809 
L 63.198352 -61.791567 
L 86.387963 -86.026157 
L 109.577573 -110.260747 
L 132.767183 -134.495337 
L 155.956794 -158.729927 
L 179.146404 -182.964275 
L 202.336015 -207.198623 
L 225.525625 -231.433455 
L 248.715235 -255.667076 
L 271.904846 -279.899 
L 295.094456 -292.133349 
L 318.284067 -292.133349 
L 341.473677 -292.123655 
L 364.663287 -292.141427 
L 387.852898 -292.123655 
L 387.852898 -292.150313 
L 387.852898 -292.150313 
L 364.663287 -292.143042 
L 341.473677 -292.135772 
L 318.284067 -292.140619 
L 295.094456 -292.135772 
L 271.904846 -279.899485 
L 248.715235 -255.667318 
L 225.525625 -231.43394 
L 202.336015 -207.198865 
L 179.146404 -182.96476 
L 155.956794 -158.73017 
L 132.767183 -134.49558 
L 109.577573 -110.26099 
L 86.387963 -86.026157 
L 63.198352 -61.791809 
z
" style="stroke: #003f5c; stroke-opacity: 0.2"/>
    </defs>
    <g clip-path="url(#p2f3feda020)">
     <use xlink:href="#m87d2cf7b55" x="0" y="310.86825" style="fill: #003f5c; fill-opacity: 0.2; stroke: #003f5c; stroke-opacity: 0.2"/>
    </g>
   </g>
   <g id="PolyCollection_2">
    <defs>
     <path id="me1ecdd059f" d="M 63.198352 -61.791567 
L 63.198352 -61.791567 
L 86.387963 -86.026157 
L 109.577573 -110.260747 
L 132.767183 -134.495176 
L 155.956794 -158.729927 
L 179.146404 -182.964033 
L 202.336015 -207.197896 
L 225.525625 -231.432728 
L 248.715235 -255.666107 
L 271.904846 -279.897062 
L 295.094456 -289.702619 
L 318.284067 -289.722007 
L 341.473677 -289.712313 
L 364.663287 -289.731701 
L 387.852898 -289.714736 
L 387.852898 -289.743818 
L 387.852898 -289.743818 
L 364.663287 -289.743818 
L 341.473677 -289.758359 
L 318.284067 -289.743818 
L 295.094456 -289.738971 
L 271.904846 -279.897546 
L 248.715235 -255.666349 
L 225.525625 -231.433455 
L 202.336015 -207.198381 
L 179.146404 -182.964518 
L 155.956794 -158.729927 
L 132.767183 -134.49558 
L 109.577573 -110.26099 
L 86.387963 -86.0264 
L 63.198352 -61.791567 
z
" style="stroke: #bc5090; stroke-opacity: 0.2"/>
    </defs>
    <g clip-path="url(#p2f3feda020)">
     <use xlink:href="#me1ecdd059f" x="0" y="310.86825" style="fill: #bc5090; fill-opacity: 0.2; stroke: #bc5090; stroke-opacity: 0.2"/>
    </g>
   </g>
   <g id="PolyCollection_3">
    <defs>
     <path id="m8e240e903e" d="M 63.198352 -61.791809 
L 63.198352 -61.791567 
L 86.387963 -86.026157 
L 109.577573 -110.260747 
L 132.767183 -134.495337 
L 155.956794 -158.729927 
L 179.146404 -182.964518 
L 202.336015 -207.197896 
L 225.525625 -231.432728 
L 248.715235 -255.666349 
L 271.904846 -279.897062 
L 295.094456 -290.012822 
L 318.284067 -290.020092 
L 341.473677 -290.017669 
L 364.663287 -290.017669 
L 387.852898 -290.017669 
L 387.852898 -290.027363 
L 387.852898 -290.027363 
L 364.663287 -290.03221 
L 341.473677 -290.024939 
L 318.284067 -290.029786 
L 295.094456 -290.027363 
L 271.904846 -279.898031 
L 248.715235 -255.666591 
L 225.525625 -231.432971 
L 202.336015 -207.198623 
L 179.146404 -182.964518 
L 155.956794 -158.73017 
L 132.767183 -134.495337 
L 109.577573 -110.26099 
L 86.387963 -86.0264 
L 63.198352 -61.791809 
z
" style="stroke: #ffa600; stroke-opacity: 0.2"/>
    </defs>
    <g clip-path="url(#p2f3feda020)">
     <use xlink:href="#m8e240e903e" x="0" y="310.86825" style="fill: #ffa600; fill-opacity: 0.2; stroke: #ffa600; stroke-opacity: 0.2"/>
    </g>
   </g>
   <g id="matplotlib.axis_1">
    <g id="xtick_1">
     <g id="line2d_1">
      <path d="M 86.387963 273.312 
L 86.387963 7.2 
" clip-path="url(#p2f3feda020)" style="fill: none; stroke-dasharray: 1.85,0.8; stroke-dashoffset: 0; stroke: #ffffff; stroke-width: 0.5"/>
     </g>
     <g id="line2d_2">
      <defs>
       <path id="m5bd91ab23b" d="M 0 0 
L 0 3.5 
" style="stroke: #000000; stroke-width: 0.8"/>
      </defs>
      <g>
       <use xlink:href="#m5bd91ab23b" x="86.387963" y="273.312" style="stroke: #000000; stroke-width: 0.8"/>
      </g>
     </g>
     <g id="text_1">
      <!-- 20 -->
      <g transform="translate(80.025463 287.910437) scale(0.1 -0.1)">
       <defs>
        <path id="DejaVuSans-32" d="M 1228 531 
L 3431 531 
L 3431 0 
L 469 0 
L 469 531 
Q 828 903 1448 1529 
Q 2069 2156 2228 2338 
Q 2531 2678 2651 2914 
Q 2772 3150 2772 3378 
Q 2772 3750 2511 3984 
Q 2250 4219 1831 4219 
Q 1534 4219 1204 4116 
Q 875 4013 500 3803 
L 500 4441 
Q 881 4594 1212 4672 
Q 1544 4750 1819 4750 
Q 2544 4750 2975 4387 
Q 3406 4025 3406 3419 
Q 3406 3131 3298 2873 
Q 3191 2616 2906 2266 
Q 2828 2175 2409 1742 
Q 1991 1309 1228 531 
z
" transform="scale(0.015625)"/>
        <path id="DejaVuSans-30" d="M 2034 4250 
Q 1547 4250 1301 3770 
Q 1056 3291 1056 2328 
Q 1056 1369 1301 889 
Q 1547 409 2034 409 
Q 2525 409 2770 889 
Q 3016 1369 3016 2328 
Q 3016 3291 2770 3770 
Q 2525 4250 2034 4250 
z
M 2034 4750 
Q 2819 4750 3233 4129 
Q 3647 3509 3647 2328 
Q 3647 1150 3233 529 
Q 2819 -91 2034 -91 
Q 1250 -91 836 529 
Q 422 1150 422 2328 
Q 422 3509 836 4129 
Q 1250 4750 2034 4750 
z
" transform="scale(0.015625)"/>
       </defs>
       <use xlink:href="#DejaVuSans-32"/>
       <use xlink:href="#DejaVuSans-30" x="63.623047"/>
      </g>
     </g>
    </g>
    <g id="xtick_2">
     <g id="line2d_3">
      <path d="M 132.767183 273.312 
L 132.767183 7.2 
" clip-path="url(#p2f3feda020)" style="fill: none; stroke-dasharray: 1.85,0.8; stroke-dashoffset: 0; stroke: #ffffff; stroke-width: 0.5"/>
     </g>
     <g id="line2d_4">
      <g>
       <use xlink:href="#m5bd91ab23b" x="132.767183" y="273.312" style="stroke: #000000; stroke-width: 0.8"/>
      </g>
     </g>
     <g id="text_2">
      <!-- 40 -->
      <g transform="translate(126.404683 287.910437) scale(0.1 -0.1)">
       <defs>
        <path id="DejaVuSans-34" d="M 2419 4116 
L 825 1625 
L 2419 1625 
L 2419 4116 
z
M 2253 4666 
L 3047 4666 
L 3047 1625 
L 3713 1625 
L 3713 1100 
L 3047 1100 
L 3047 0 
L 2419 0 
L 2419 1100 
L 313 1100 
L 313 1709 
L 2253 4666 
z
" transform="scale(0.015625)"/>
       </defs>
       <use xlink:href="#DejaVuSans-34"/>
       <use xlink:href="#DejaVuSans-30" x="63.623047"/>
      </g>
     </g>
    </g>
    <g id="xtick_3">
     <g id="line2d_5">
      <path d="M 179.146404 273.312 
L 179.146404 7.2 
" clip-path="url(#p2f3feda020)" style="fill: none; stroke-dasharray: 1.85,0.8; stroke-dashoffset: 0; stroke: #ffffff; stroke-width: 0.5"/>
     </g>
     <g id="line2d_6">
      <g>
       <use xlink:href="#m5bd91ab23b" x="179.146404" y="273.312" style="stroke: #000000; stroke-width: 0.8"/>
      </g>
     </g>
     <g id="text_3">
      <!-- 60 -->
      <g transform="translate(172.783904 287.910437) scale(0.1 -0.1)">
       <defs>
        <path id="DejaVuSans-36" d="M 2113 2584 
Q 1688 2584 1439 2293 
Q 1191 2003 1191 1497 
Q 1191 994 1439 701 
Q 1688 409 2113 409 
Q 2538 409 2786 701 
Q 3034 994 3034 1497 
Q 3034 2003 2786 2293 
Q 2538 2584 2113 2584 
z
M 3366 4563 
L 3366 3988 
Q 3128 4100 2886 4159 
Q 2644 4219 2406 4219 
Q 1781 4219 1451 3797 
Q 1122 3375 1075 2522 
Q 1259 2794 1537 2939 
Q 1816 3084 2150 3084 
Q 2853 3084 3261 2657 
Q 3669 2231 3669 1497 
Q 3669 778 3244 343 
Q 2819 -91 2113 -91 
Q 1303 -91 875 529 
Q 447 1150 447 2328 
Q 447 3434 972 4092 
Q 1497 4750 2381 4750 
Q 2619 4750 2861 4703 
Q 3103 4656 3366 4563 
z
" transform="scale(0.015625)"/>
       </defs>
       <use xlink:href="#DejaVuSans-36"/>
       <use xlink:href="#DejaVuSans-30" x="63.623047"/>
      </g>
     </g>
    </g>
    <g id="xtick_4">
     <g id="line2d_7">
      <path d="M 225.525625 273.312 
L 225.525625 7.2 
" clip-path="url(#p2f3feda020)" style="fill: none; stroke-dasharray: 1.85,0.8; stroke-dashoffset: 0; stroke: #ffffff; stroke-width: 0.5"/>
     </g>
     <g id="line2d_8">
      <g>
       <use xlink:href="#m5bd91ab23b" x="225.525625" y="273.312" style="stroke: #000000; stroke-width: 0.8"/>
      </g>
     </g>
     <g id="text_4">
      <!-- 80 -->
      <g transform="translate(219.163125 287.910437) scale(0.1 -0.1)">
       <defs>
        <path id="DejaVuSans-38" d="M 2034 2216 
Q 1584 2216 1326 1975 
Q 1069 1734 1069 1313 
Q 1069 891 1326 650 
Q 1584 409 2034 409 
Q 2484 409 2743 651 
Q 3003 894 3003 1313 
Q 3003 1734 2745 1975 
Q 2488 2216 2034 2216 
z
M 1403 2484 
Q 997 2584 770 2862 
Q 544 3141 544 3541 
Q 544 4100 942 4425 
Q 1341 4750 2034 4750 
Q 2731 4750 3128 4425 
Q 3525 4100 3525 3541 
Q 3525 3141 3298 2862 
Q 3072 2584 2669 2484 
Q 3125 2378 3379 2068 
Q 3634 1759 3634 1313 
Q 3634 634 3220 271 
Q 2806 -91 2034 -91 
Q 1263 -91 848 271 
Q 434 634 434 1313 
Q 434 1759 690 2068 
Q 947 2378 1403 2484 
z
M 1172 3481 
Q 1172 3119 1398 2916 
Q 1625 2713 2034 2713 
Q 2441 2713 2670 2916 
Q 2900 3119 2900 3481 
Q 2900 3844 2670 4047 
Q 2441 4250 2034 4250 
Q 1625 4250 1398 4047 
Q 1172 3844 1172 3481 
z
" transform="scale(0.015625)"/>
       </defs>
       <use xlink:href="#DejaVuSans-38"/>
       <use xlink:href="#DejaVuSans-30" x="63.623047"/>
      </g>
     </g>
    </g>
    <g id="xtick_5">
     <g id="line2d_9">
      <path d="M 271.904846 273.312 
L 271.904846 7.2 
" clip-path="url(#p2f3feda020)" style="fill: none; stroke-dasharray: 1.85,0.8; stroke-dashoffset: 0; stroke: #ffffff; stroke-width: 0.5"/>
     </g>
     <g id="line2d_10">
      <g>
       <use xlink:href="#m5bd91ab23b" x="271.904846" y="273.312" style="stroke: #000000; stroke-width: 0.8"/>
      </g>
     </g>
     <g id="text_5">
      <!-- 100 -->
      <g transform="translate(262.361096 287.910437) scale(0.1 -0.1)">
       <defs>
        <path id="DejaVuSans-31" d="M 794 531 
L 1825 531 
L 1825 4091 
L 703 3866 
L 703 4441 
L 1819 4666 
L 2450 4666 
L 2450 531 
L 3481 531 
L 3481 0 
L 794 0 
L 794 531 
z
" transform="scale(0.015625)"/>
       </defs>
       <use xlink:href="#DejaVuSans-31"/>
       <use xlink:href="#DejaVuSans-30" x="63.623047"/>
       <use xlink:href="#DejaVuSans-30" x="127.246094"/>
      </g>
     </g>
    </g>
    <g id="xtick_6">
     <g id="line2d_11">
      <path d="M 318.284067 273.312 
L 318.284067 7.2 
" clip-path="url(#p2f3feda020)" style="fill: none; stroke-dasharray: 1.85,0.8; stroke-dashoffset: 0; stroke: #ffffff; stroke-width: 0.5"/>
     </g>
     <g id="line2d_12">
      <g>
       <use xlink:href="#m5bd91ab23b" x="318.284067" y="273.312" style="stroke: #000000; stroke-width: 0.8"/>
      </g>
     </g>
     <g id="text_6">
      <!-- 120 -->
      <g transform="translate(308.740317 287.910437) scale(0.1 -0.1)">
       <use xlink:href="#DejaVuSans-31"/>
       <use xlink:href="#DejaVuSans-32" x="63.623047"/>
       <use xlink:href="#DejaVuSans-30" x="127.246094"/>
      </g>
     </g>
    </g>
    <g id="xtick_7">
     <g id="line2d_13">
      <path d="M 364.663287 273.312 
L 364.663287 7.2 
" clip-path="url(#p2f3feda020)" style="fill: none; stroke-dasharray: 1.85,0.8; stroke-dashoffset: 0; stroke: #ffffff; stroke-width: 0.5"/>
     </g>
     <g id="line2d_14">
      <g>
       <use xlink:href="#m5bd91ab23b" x="364.663287" y="273.312" style="stroke: #000000; stroke-width: 0.8"/>
      </g>
     </g>
     <g id="text_7">
      <!-- 140 -->
      <g transform="translate(355.119537 287.910437) scale(0.1 -0.1)">
       <use xlink:href="#DejaVuSans-31"/>
       <use xlink:href="#DejaVuSans-34" x="63.623047"/>
       <use xlink:href="#DejaVuSans-30" x="127.246094"/>
      </g>
     </g>
    </g>
    <g id="text_8">
     <!-- Data rate [Mbps] -->
     <g transform="translate(183.084219 301.588562) scale(0.1 -0.1)">
      <defs>
       <path id="DejaVuSans-44" d="M 1259 4147 
L 1259 519 
L 2022 519 
Q 2988 519 3436 956 
Q 3884 1394 3884 2338 
Q 3884 3275 3436 3711 
Q 2988 4147 2022 4147 
L 1259 4147 
z
M 628 4666 
L 1925 4666 
Q 3281 4666 3915 4102 
Q 4550 3538 4550 2338 
Q 4550 1131 3912 565 
Q 3275 0 1925 0 
L 628 0 
L 628 4666 
z
" transform="scale(0.015625)"/>
       <path id="DejaVuSans-61" d="M 2194 1759 
Q 1497 1759 1228 1600 
Q 959 1441 959 1056 
Q 959 750 1161 570 
Q 1363 391 1709 391 
Q 2188 391 2477 730 
Q 2766 1069 2766 1631 
L 2766 1759 
L 2194 1759 
z
M 3341 1997 
L 3341 0 
L 2766 0 
L 2766 531 
Q 2569 213 2275 61 
Q 1981 -91 1556 -91 
Q 1019 -91 701 211 
Q 384 513 384 1019 
Q 384 1609 779 1909 
Q 1175 2209 1959 2209 
L 2766 2209 
L 2766 2266 
Q 2766 2663 2505 2880 
Q 2244 3097 1772 3097 
Q 1472 3097 1187 3025 
Q 903 2953 641 2809 
L 641 3341 
Q 956 3463 1253 3523 
Q 1550 3584 1831 3584 
Q 2591 3584 2966 3190 
Q 3341 2797 3341 1997 
z
" transform="scale(0.015625)"/>
       <path id="DejaVuSans-74" d="M 1172 4494 
L 1172 3500 
L 2356 3500 
L 2356 3053 
L 1172 3053 
L 1172 1153 
Q 1172 725 1289 603 
Q 1406 481 1766 481 
L 2356 481 
L 2356 0 
L 1766 0 
Q 1100 0 847 248 
Q 594 497 594 1153 
L 594 3053 
L 172 3053 
L 172 3500 
L 594 3500 
L 594 4494 
L 1172 4494 
z
" transform="scale(0.015625)"/>
       <path id="DejaVuSans-20" transform="scale(0.015625)"/>
       <path id="DejaVuSans-72" d="M 2631 2963 
Q 2534 3019 2420 3045 
Q 2306 3072 2169 3072 
Q 1681 3072 1420 2755 
Q 1159 2438 1159 1844 
L 1159 0 
L 581 0 
L 581 3500 
L 1159 3500 
L 1159 2956 
Q 1341 3275 1631 3429 
Q 1922 3584 2338 3584 
Q 2397 3584 2469 3576 
Q 2541 3569 2628 3553 
L 2631 2963 
z
" transform="scale(0.015625)"/>
       <path id="DejaVuSans-65" d="M 3597 1894 
L 3597 1613 
L 953 1613 
Q 991 1019 1311 708 
Q 1631 397 2203 397 
Q 2534 397 2845 478 
Q 3156 559 3463 722 
L 3463 178 
Q 3153 47 2828 -22 
Q 2503 -91 2169 -91 
Q 1331 -91 842 396 
Q 353 884 353 1716 
Q 353 2575 817 3079 
Q 1281 3584 2069 3584 
Q 2775 3584 3186 3129 
Q 3597 2675 3597 1894 
z
M 3022 2063 
Q 3016 2534 2758 2815 
Q 2500 3097 2075 3097 
Q 1594 3097 1305 2825 
Q 1016 2553 972 2059 
L 3022 2063 
z
" transform="scale(0.015625)"/>
       <path id="DejaVuSans-5b" d="M 550 4863 
L 1875 4863 
L 1875 4416 
L 1125 4416 
L 1125 -397 
L 1875 -397 
L 1875 -844 
L 550 -844 
L 550 4863 
z
" transform="scale(0.015625)"/>
       <path id="DejaVuSans-4d" d="M 628 4666 
L 1569 4666 
L 2759 1491 
L 3956 4666 
L 4897 4666 
L 4897 0 
L 4281 0 
L 4281 4097 
L 3078 897 
L 2444 897 
L 1241 4097 
L 1241 0 
L 628 0 
L 628 4666 
z
" transform="scale(0.015625)"/>
       <path id="DejaVuSans-62" d="M 3116 1747 
Q 3116 2381 2855 2742 
Q 2594 3103 2138 3103 
Q 1681 3103 1420 2742 
Q 1159 2381 1159 1747 
Q 1159 1113 1420 752 
Q 1681 391 2138 391 
Q 2594 391 2855 752 
Q 3116 1113 3116 1747 
z
M 1159 2969 
Q 1341 3281 1617 3432 
Q 1894 3584 2278 3584 
Q 2916 3584 3314 3078 
Q 3713 2572 3713 1747 
Q 3713 922 3314 415 
Q 2916 -91 2278 -91 
Q 1894 -91 1617 61 
Q 1341 213 1159 525 
L 1159 0 
L 581 0 
L 581 4863 
L 1159 4863 
L 1159 2969 
z
" transform="scale(0.015625)"/>
       <path id="DejaVuSans-70" d="M 1159 525 
L 1159 -1331 
L 581 -1331 
L 581 3500 
L 1159 3500 
L 1159 2969 
Q 1341 3281 1617 3432 
Q 1894 3584 2278 3584 
Q 2916 3584 3314 3078 
Q 3713 2572 3713 1747 
Q 3713 922 3314 415 
Q 2916 -91 2278 -91 
Q 1894 -91 1617 61 
Q 1341 213 1159 525 
z
M 3116 1747 
Q 3116 2381 2855 2742 
Q 2594 3103 2138 3103 
Q 1681 3103 1420 2742 
Q 1159 2381 1159 1747 
Q 1159 1113 1420 752 
Q 1681 391 2138 391 
Q 2594 391 2855 752 
Q 3116 1113 3116 1747 
z
" transform="scale(0.015625)"/>
       <path id="DejaVuSans-73" d="M 2834 3397 
L 2834 2853 
Q 2591 2978 2328 3040 
Q 2066 3103 1784 3103 
Q 1356 3103 1142 2972 
Q 928 2841 928 2578 
Q 928 2378 1081 2264 
Q 1234 2150 1697 2047 
L 1894 2003 
Q 2506 1872 2764 1633 
Q 3022 1394 3022 966 
Q 3022 478 2636 193 
Q 2250 -91 1575 -91 
Q 1294 -91 989 -36 
Q 684 19 347 128 
L 347 722 
Q 666 556 975 473 
Q 1284 391 1588 391 
Q 1994 391 2212 530 
Q 2431 669 2431 922 
Q 2431 1156 2273 1281 
Q 2116 1406 1581 1522 
L 1381 1569 
Q 847 1681 609 1914 
Q 372 2147 372 2553 
Q 372 3047 722 3315 
Q 1072 3584 1716 3584 
Q 2034 3584 2315 3537 
Q 2597 3491 2834 3397 
z
" transform="scale(0.015625)"/>
       <path id="DejaVuSans-5d" d="M 1947 4863 
L 1947 -844 
L 622 -844 
L 622 -397 
L 1369 -397 
L 1369 4416 
L 622 4416 
L 622 4863 
L 1947 4863 
z
" transform="scale(0.015625)"/>
      </defs>
      <use xlink:href="#DejaVuSans-44"/>
      <use xlink:href="#DejaVuSans-61" x="77.001953"/>
      <use xlink:href="#DejaVuSans-74" x="138.28125"/>
      <use xlink:href="#DejaVuSans-61" x="177.490234"/>
      <use xlink:href="#DejaVuSans-20" x="238.769531"/>
      <use xlink:href="#DejaVuSans-72" x="270.556641"/>
      <use xlink:href="#DejaVuSans-61" x="311.669922"/>
      <use xlink:href="#DejaVuSans-74" x="372.949219"/>
      <use xlink:href="#DejaVuSans-65" x="412.158203"/>
      <use xlink:href="#DejaVuSans-20" x="473.681641"/>
      <use xlink:href="#DejaVuSans-5b" x="505.46875"/>
      <use xlink:href="#DejaVuSans-4d" x="544.482422"/>
      <use xlink:href="#DejaVuSans-62" x="630.761719"/>
      <use xlink:href="#DejaVuSans-70" x="694.238281"/>
      <use xlink:href="#DejaVuSans-73" x="757.714844"/>
      <use xlink:href="#DejaVuSans-5d" x="809.814453"/>
     </g>
    </g>
   </g>
   <g id="matplotlib.axis_2">
    <g id="ytick_1">
     <g id="line2d_15">
      <path d="M 46.965625 273.312 
L 404.085625 273.312 
" clip-path="url(#p2f3feda020)" style="fill: none; stroke-dasharray: 1.85,0.8; stroke-dashoffset: 0; stroke: #ffffff; stroke-width: 0.5"/>
     </g>
     <g id="line2d_16">
      <defs>
       <path id="m4f33672637" d="M 0 0 
L -3.5 0 
" style="stroke: #000000; stroke-width: 0.8"/>
      </defs>
      <g>
       <use xlink:href="#m4f33672637" x="46.965625" y="273.312" style="stroke: #000000; stroke-width: 0.8"/>
      </g>
     </g>
     <g id="text_9">
      <!-- 0 -->
      <g transform="translate(33.603125 277.111219) scale(0.1 -0.1)">
       <use xlink:href="#DejaVuSans-30"/>
      </g>
     </g>
    </g>
    <g id="ytick_2">
     <g id="line2d_17">
      <path d="M 46.965625 224.84282 
L 404.085625 224.84282 
" clip-path="url(#p2f3feda020)" style="fill: none; stroke-dasharray: 1.85,0.8; stroke-dashoffset: 0; stroke: #ffffff; stroke-width: 0.5"/>
     </g>
     <g id="line2d_18">
      <g>
       <use xlink:href="#m4f33672637" x="46.965625" y="224.84282" style="stroke: #000000; stroke-width: 0.8"/>
      </g>
     </g>
     <g id="text_10">
      <!-- 20 -->
      <g transform="translate(27.240625 228.642039) scale(0.1 -0.1)">
       <use xlink:href="#DejaVuSans-32"/>
       <use xlink:href="#DejaVuSans-30" x="63.623047"/>
      </g>
     </g>
    </g>
    <g id="ytick_3">
     <g id="line2d_19">
      <path d="M 46.965625 176.37364 
L 404.085625 176.37364 
" clip-path="url(#p2f3feda020)" style="fill: none; stroke-dasharray: 1.85,0.8; stroke-dashoffset: 0; stroke: #ffffff; stroke-width: 0.5"/>
     </g>
     <g id="line2d_20">
      <g>
       <use xlink:href="#m4f33672637" x="46.965625" y="176.37364" style="stroke: #000000; stroke-width: 0.8"/>
      </g>
     </g>
     <g id="text_11">
      <!-- 40 -->
      <g transform="translate(27.240625 180.172858) scale(0.1 -0.1)">
       <use xlink:href="#DejaVuSans-34"/>
       <use xlink:href="#DejaVuSans-30" x="63.623047"/>
      </g>
     </g>
    </g>
    <g id="ytick_4">
     <g id="line2d_21">
      <path d="M 46.965625 127.904459 
L 404.085625 127.904459 
" clip-path="url(#p2f3feda020)" style="fill: none; stroke-dasharray: 1.85,0.8; stroke-dashoffset: 0; stroke: #ffffff; stroke-width: 0.5"/>
     </g>
     <g id="line2d_22">
      <g>
       <use xlink:href="#m4f33672637" x="46.965625" y="127.904459" style="stroke: #000000; stroke-width: 0.8"/>
      </g>
     </g>
     <g id="text_12">
      <!-- 60 -->
      <g transform="translate(27.240625 131.703678) scale(0.1 -0.1)">
       <use xlink:href="#DejaVuSans-36"/>
       <use xlink:href="#DejaVuSans-30" x="63.623047"/>
      </g>
     </g>
    </g>
    <g id="ytick_5">
     <g id="line2d_23">
      <path d="M 46.965625 79.435279 
L 404.085625 79.435279 
" clip-path="url(#p2f3feda020)" style="fill: none; stroke-dasharray: 1.85,0.8; stroke-dashoffset: 0; stroke: #ffffff; stroke-width: 0.5"/>
     </g>
     <g id="line2d_24">
      <g>
       <use xlink:href="#m4f33672637" x="46.965625" y="79.435279" style="stroke: #000000; stroke-width: 0.8"/>
      </g>
     </g>
     <g id="text_13">
      <!-- 80 -->
      <g transform="translate(27.240625 83.234498) scale(0.1 -0.1)">
       <use xlink:href="#DejaVuSans-38"/>
       <use xlink:href="#DejaVuSans-30" x="63.623047"/>
      </g>
     </g>
    </g>
    <g id="ytick_6">
     <g id="line2d_25">
      <path d="M 46.965625 30.966099 
L 404.085625 30.966099 
" clip-path="url(#p2f3feda020)" style="fill: none; stroke-dasharray: 1.85,0.8; stroke-dashoffset: 0; stroke: #ffffff; stroke-width: 0.5"/>
     </g>
     <g id="line2d_26">
      <g>
       <use xlink:href="#m4f33672637" x="46.965625" y="30.966099" style="stroke: #000000; stroke-width: 0.8"/>
      </g>
     </g>
     <g id="text_14">
      <!-- 100 -->
      <g transform="translate(20.878125 34.765318) scale(0.1 -0.1)">
       <use xlink:href="#DejaVuSans-31"/>
       <use xlink:href="#DejaVuSans-30" x="63.623047"/>
       <use xlink:href="#DejaVuSans-30" x="127.246094"/>
      </g>
     </g>
    </g>
    <g id="text_15">
     <!-- Total throughput [Mbps] -->
     <g transform="translate(14.798438 200.225531) rotate(-90) scale(0.1 -0.1)">
      <defs>
       <path id="DejaVuSans-54" d="M -19 4666 
L 3928 4666 
L 3928 4134 
L 2272 4134 
L 2272 0 
L 1638 0 
L 1638 4134 
L -19 4134 
L -19 4666 
z
" transform="scale(0.015625)"/>
       <path id="DejaVuSans-6f" d="M 1959 3097 
Q 1497 3097 1228 2736 
Q 959 2375 959 1747 
Q 959 1119 1226 758 
Q 1494 397 1959 397 
Q 2419 397 2687 759 
Q 2956 1122 2956 1747 
Q 2956 2369 2687 2733 
Q 2419 3097 1959 3097 
z
M 1959 3584 
Q 2709 3584 3137 3096 
Q 3566 2609 3566 1747 
Q 3566 888 3137 398 
Q 2709 -91 1959 -91 
Q 1206 -91 779 398 
Q 353 888 353 1747 
Q 353 2609 779 3096 
Q 1206 3584 1959 3584 
z
" transform="scale(0.015625)"/>
       <path id="DejaVuSans-6c" d="M 603 4863 
L 1178 4863 
L 1178 0 
L 603 0 
L 603 4863 
z
" transform="scale(0.015625)"/>
       <path id="DejaVuSans-68" d="M 3513 2113 
L 3513 0 
L 2938 0 
L 2938 2094 
Q 2938 2591 2744 2837 
Q 2550 3084 2163 3084 
Q 1697 3084 1428 2787 
Q 1159 2491 1159 1978 
L 1159 0 
L 581 0 
L 581 4863 
L 1159 4863 
L 1159 2956 
Q 1366 3272 1645 3428 
Q 1925 3584 2291 3584 
Q 2894 3584 3203 3211 
Q 3513 2838 3513 2113 
z
" transform="scale(0.015625)"/>
       <path id="DejaVuSans-75" d="M 544 1381 
L 544 3500 
L 1119 3500 
L 1119 1403 
Q 1119 906 1312 657 
Q 1506 409 1894 409 
Q 2359 409 2629 706 
Q 2900 1003 2900 1516 
L 2900 3500 
L 3475 3500 
L 3475 0 
L 2900 0 
L 2900 538 
Q 2691 219 2414 64 
Q 2138 -91 1772 -91 
Q 1169 -91 856 284 
Q 544 659 544 1381 
z
M 1991 3584 
L 1991 3584 
z
" transform="scale(0.015625)"/>
       <path id="DejaVuSans-67" d="M 2906 1791 
Q 2906 2416 2648 2759 
Q 2391 3103 1925 3103 
Q 1463 3103 1205 2759 
Q 947 2416 947 1791 
Q 947 1169 1205 825 
Q 1463 481 1925 481 
Q 2391 481 2648 825 
Q 2906 1169 2906 1791 
z
M 3481 434 
Q 3481 -459 3084 -895 
Q 2688 -1331 1869 -1331 
Q 1566 -1331 1297 -1286 
Q 1028 -1241 775 -1147 
L 775 -588 
Q 1028 -725 1275 -790 
Q 1522 -856 1778 -856 
Q 2344 -856 2625 -561 
Q 2906 -266 2906 331 
L 2906 616 
Q 2728 306 2450 153 
Q 2172 0 1784 0 
Q 1141 0 747 490 
Q 353 981 353 1791 
Q 353 2603 747 3093 
Q 1141 3584 1784 3584 
Q 2172 3584 2450 3431 
Q 2728 3278 2906 2969 
L 2906 3500 
L 3481 3500 
L 3481 434 
z
" transform="scale(0.015625)"/>
      </defs>
      <use xlink:href="#DejaVuSans-54"/>
      <use xlink:href="#DejaVuSans-6f" x="44.083984"/>
      <use xlink:href="#DejaVuSans-74" x="105.265625"/>
      <use xlink:href="#DejaVuSans-61" x="144.474609"/>
      <use xlink:href="#DejaVuSans-6c" x="205.753906"/>
      <use xlink:href="#DejaVuSans-20" x="233.537109"/>
      <use xlink:href="#DejaVuSans-74" x="265.324219"/>
      <use xlink:href="#DejaVuSans-68" x="304.533203"/>
      <use xlink:href="#DejaVuSans-72" x="367.912109"/>
      <use xlink:href="#DejaVuSans-6f" x="406.775391"/>
      <use xlink:href="#DejaVuSans-75" x="467.957031"/>
      <use xlink:href="#DejaVuSans-67" x="531.335938"/>
      <use xlink:href="#DejaVuSans-68" x="594.8125"/>
      <use xlink:href="#DejaVuSans-70" x="658.191406"/>
      <use xlink:href="#DejaVuSans-75" x="721.667969"/>
      <use xlink:href="#DejaVuSans-74" x="785.046875"/>
      <use xlink:href="#DejaVuSans-20" x="824.255859"/>
      <use xlink:href="#DejaVuSans-5b" x="856.042969"/>
      <use xlink:href="#DejaVuSans-4d" x="895.056641"/>
      <use xlink:href="#DejaVuSans-62" x="981.335938"/>
      <use xlink:href="#DejaVuSans-70" x="1044.8125"/>
      <use xlink:href="#DejaVuSans-73" x="1108.289062"/>
      <use xlink:href="#DejaVuSans-5d" x="1160.388672"/>
     </g>
    </g>
   </g>
   <g id="line2d_27">
    <path d="M 63.198352 249.076521 
L 86.387963 224.842093 
L 109.577573 200.607341 
L 132.767183 176.372832 
L 155.956794 152.138161 
L 179.146404 127.903732 
L 202.336015 103.669465 
L 225.525625 79.434552 
L 248.715235 55.201093 
L 271.904846 30.969007 
L 295.094456 18.734094 
L 318.284067 18.73167 
L 341.473677 18.738941 
L 364.663287 18.726015 
L 387.852898 18.734094 
" clip-path="url(#p2f3feda020)" style="fill: none; stroke: #003f5c; stroke-width: 1.5; stroke-linecap: square"/>
    <defs>
     <path id="m0f5cbae50d" d="M 0 4 
C 1.060812 4 2.078319 3.578535 2.828427 2.828427 
C 3.578535 2.078319 4 1.060812 4 0 
C 4 -1.060812 3.578535 -2.078319 2.828427 -2.828427 
C 2.078319 -3.578535 1.060812 -4 0 -4 
C -1.060812 -4 -2.078319 -3.578535 -2.828427 -2.828427 
C -3.578535 -2.078319 -4 -1.060812 -4 0 
C -4 1.060812 -3.578535 2.078319 -2.828427 2.828427 
C -2.078319 3.578535 -1.060812 4 0 4 
z
" style="stroke: #ffffff; stroke-width: 0.75"/>
    </defs>
    <g clip-path="url(#p2f3feda020)">
     <use xlink:href="#m0f5cbae50d" x="63.198352" y="249.076521" style="fill: #003f5c; stroke: #ffffff; stroke-width: 0.75"/>
     <use xlink:href="#m0f5cbae50d" x="86.387963" y="224.842093" style="fill: #003f5c; stroke: #ffffff; stroke-width: 0.75"/>
     <use xlink:href="#m0f5cbae50d" x="109.577573" y="200.607341" style="fill: #003f5c; stroke: #ffffff; stroke-width: 0.75"/>
     <use xlink:href="#m0f5cbae50d" x="132.767183" y="176.372832" style="fill: #003f5c; stroke: #ffffff; stroke-width: 0.75"/>
     <use xlink:href="#m0f5cbae50d" x="155.956794" y="152.138161" style="fill: #003f5c; stroke: #ffffff; stroke-width: 0.75"/>
     <use xlink:href="#m0f5cbae50d" x="179.146404" y="127.903732" style="fill: #003f5c; stroke: #ffffff; stroke-width: 0.75"/>
     <use xlink:href="#m0f5cbae50d" x="202.336015" y="103.669465" style="fill: #003f5c; stroke: #ffffff; stroke-width: 0.75"/>
     <use xlink:href="#m0f5cbae50d" x="225.525625" y="79.434552" style="fill: #003f5c; stroke: #ffffff; stroke-width: 0.75"/>
     <use xlink:href="#m0f5cbae50d" x="248.715235" y="55.201093" style="fill: #003f5c; stroke: #ffffff; stroke-width: 0.75"/>
     <use xlink:href="#m0f5cbae50d" x="271.904846" y="30.969007" style="fill: #003f5c; stroke: #ffffff; stroke-width: 0.75"/>
     <use xlink:href="#m0f5cbae50d" x="295.094456" y="18.734094" style="fill: #003f5c; stroke: #ffffff; stroke-width: 0.75"/>
     <use xlink:href="#m0f5cbae50d" x="318.284067" y="18.73167" style="fill: #003f5c; stroke: #ffffff; stroke-width: 0.75"/>
     <use xlink:href="#m0f5cbae50d" x="341.473677" y="18.738941" style="fill: #003f5c; stroke: #ffffff; stroke-width: 0.75"/>
     <use xlink:href="#m0f5cbae50d" x="364.663287" y="18.726015" style="fill: #003f5c; stroke: #ffffff; stroke-width: 0.75"/>
     <use xlink:href="#m0f5cbae50d" x="387.852898" y="18.734094" style="fill: #003f5c; stroke: #ffffff; stroke-width: 0.75"/>
    </g>
   </g>
   <g id="line2d_28">
    <path d="M 63.198352 249.076683 
L 86.387963 224.842012 
L 109.577573 200.607422 
L 132.767183 176.372913 
L 155.956794 152.138323 
L 179.146404 127.903975 
L 202.336015 103.670112 
L 225.525625 79.435199 
L 248.715235 55.202062 
L 271.904846 30.970946 
L 295.094456 21.142204 
L 318.284067 21.131702 
L 341.473677 21.131702 
L 364.663287 21.130087 
L 387.852898 21.135742 
" clip-path="url(#p2f3feda020)" style="fill: none; stroke: #bc5090; stroke-width: 1.5; stroke-linecap: square"/>
    <defs>
     <path id="md6e314be1b" d="M 0 4 
C 1.060812 4 2.078319 3.578535 2.828427 2.828427 
C 3.578535 2.078319 4 1.060812 4 0 
C 4 -1.060812 3.578535 -2.078319 2.828427 -2.828427 
C 2.078319 -3.578535 1.060812 -4 0 -4 
C -1.060812 -4 -2.078319 -3.578535 -2.828427 -2.828427 
C -3.578535 -2.078319 -4 -1.060812 -4 0 
C -4 1.060812 -3.578535 2.078319 -2.828427 2.828427 
C -2.078319 3.578535 -1.060812 4 0 4 
z
" style="stroke: #ffffff; stroke-width: 0.75"/>
    </defs>
    <g clip-path="url(#p2f3feda020)">
     <use xlink:href="#md6e314be1b" x="63.198352" y="249.076683" style="fill: #bc5090; stroke: #ffffff; stroke-width: 0.75"/>
     <use xlink:href="#md6e314be1b" x="86.387963" y="224.842012" style="fill: #bc5090; stroke: #ffffff; stroke-width: 0.75"/>
     <use xlink:href="#md6e314be1b" x="109.577573" y="200.607422" style="fill: #bc5090; stroke: #ffffff; stroke-width: 0.75"/>
     <use xlink:href="#md6e314be1b" x="132.767183" y="176.372913" style="fill: #bc5090; stroke: #ffffff; stroke-width: 0.75"/>
     <use xlink:href="#md6e314be1b" x="155.956794" y="152.138323" style="fill: #bc5090; stroke: #ffffff; stroke-width: 0.75"/>
     <use xlink:href="#md6e314be1b" x="179.146404" y="127.903975" style="fill: #bc5090; stroke: #ffffff; stroke-width: 0.75"/>
     <use xlink:href="#md6e314be1b" x="202.336015" y="103.670112" style="fill: #bc5090; stroke: #ffffff; stroke-width: 0.75"/>
     <use xlink:href="#md6e314be1b" x="225.525625" y="79.435199" style="fill: #bc5090; stroke: #ffffff; stroke-width: 0.75"/>
     <use xlink:href="#md6e314be1b" x="248.715235" y="55.202062" style="fill: #bc5090; stroke: #ffffff; stroke-width: 0.75"/>
     <use xlink:href="#md6e314be1b" x="271.904846" y="30.970946" style="fill: #bc5090; stroke: #ffffff; stroke-width: 0.75"/>
     <use xlink:href="#md6e314be1b" x="295.094456" y="21.142204" style="fill: #bc5090; stroke: #ffffff; stroke-width: 0.75"/>
     <use xlink:href="#md6e314be1b" x="318.284067" y="21.131702" style="fill: #bc5090; stroke: #ffffff; stroke-width: 0.75"/>
     <use xlink:href="#md6e314be1b" x="341.473677" y="21.131702" style="fill: #bc5090; stroke: #ffffff; stroke-width: 0.75"/>
     <use xlink:href="#md6e314be1b" x="364.663287" y="21.130087" style="fill: #bc5090; stroke: #ffffff; stroke-width: 0.75"/>
     <use xlink:href="#md6e314be1b" x="387.852898" y="21.135742" style="fill: #bc5090; stroke: #ffffff; stroke-width: 0.75"/>
    </g>
   </g>
   <g id="line2d_29">
    <path d="M 63.198352 249.076521 
L 86.387963 224.842012 
L 109.577573 200.607422 
L 132.767183 176.372913 
L 155.956794 152.138242 
L 179.146404 127.903732 
L 202.336015 103.66995 
L 225.525625 79.435441 
L 248.715235 55.20182 
L 271.904846 30.970865 
L 295.094456 20.84735 
L 318.284067 20.842503 
L 341.473677 20.846542 
L 364.663287 20.845734 
L 387.852898 20.845734 
" clip-path="url(#p2f3feda020)" style="fill: none; stroke: #ffa600; stroke-width: 1.5; stroke-linecap: square"/>
    <defs>
     <path id="md5c69d4f62" d="M 0 4 
C 1.060812 4 2.078319 3.578535 2.828427 2.828427 
C 3.578535 2.078319 4 1.060812 4 0 
C 4 -1.060812 3.578535 -2.078319 2.828427 -2.828427 
C 2.078319 -3.578535 1.060812 -4 0 -4 
C -1.060812 -4 -2.078319 -3.578535 -2.828427 -2.828427 
C -3.578535 -2.078319 -4 -1.060812 -4 0 
C -4 1.060812 -3.578535 2.078319 -2.828427 2.828427 
C -2.078319 3.578535 -1.060812 4 0 4 
z
" style="stroke: #ffffff; stroke-width: 0.75"/>
    </defs>
    <g clip-path="url(#p2f3feda020)">
     <use xlink:href="#md5c69d4f62" x="63.198352" y="249.076521" style="fill: #ffa600; stroke: #ffffff; stroke-width: 0.75"/>
     <use xlink:href="#md5c69d4f62" x="86.387963" y="224.842012" style="fill: #ffa600; stroke: #ffffff; stroke-width: 0.75"/>
     <use xlink:href="#md5c69d4f62" x="109.577573" y="200.607422" style="fill: #ffa600; stroke: #ffffff; stroke-width: 0.75"/>
     <use xlink:href="#md5c69d4f62" x="132.767183" y="176.372913" style="fill: #ffa600; stroke: #ffffff; stroke-width: 0.75"/>
     <use xlink:href="#md5c69d4f62" x="155.956794" y="152.138242" style="fill: #ffa600; stroke: #ffffff; stroke-width: 0.75"/>
     <use xlink:href="#md5c69d4f62" x="179.146404" y="127.903732" style="fill: #ffa600; stroke: #ffffff; stroke-width: 0.75"/>
     <use xlink:href="#md5c69d4f62" x="202.336015" y="103.66995" style="fill: #ffa600; stroke: #ffffff; stroke-width: 0.75"/>
     <use xlink:href="#md5c69d4f62" x="225.525625" y="79.435441" style="fill: #ffa600; stroke: #ffffff; stroke-width: 0.75"/>
     <use xlink:href="#md5c69d4f62" x="248.715235" y="55.20182" style="fill: #ffa600; stroke: #ffffff; stroke-width: 0.75"/>
     <use xlink:href="#md5c69d4f62" x="271.904846" y="30.970865" style="fill: #ffa600; stroke: #ffffff; stroke-width: 0.75"/>
     <use xlink:href="#md5c69d4f62" x="295.094456" y="20.84735" style="fill: #ffa600; stroke: #ffffff; stroke-width: 0.75"/>
     <use xlink:href="#md5c69d4f62" x="318.284067" y="20.842503" style="fill: #ffa600; stroke: #ffffff; stroke-width: 0.75"/>
     <use xlink:href="#md5c69d4f62" x="341.473677" y="20.846542" style="fill: #ffa600; stroke: #ffffff; stroke-width: 0.75"/>
     <use xlink:href="#md5c69d4f62" x="364.663287" y="20.845734" style="fill: #ffa600; stroke: #ffffff; stroke-width: 0.75"/>
     <use xlink:href="#md5c69d4f62" x="387.852898" y="20.845734" style="fill: #ffa600; stroke: #ffffff; stroke-width: 0.75"/>
    </g>
   </g>
   <g id="line2d_30"/>
   <g id="line2d_31"/>
   <g id="line2d_32"/>
   <g id="line2d_33"/>
   <g id="line2d_34"/>
   <g id="line2d_35"/>
   <g id="patch_3">
    <path d="M 46.965625 273.312 
L 46.965625 7.2 
" style="fill: none; stroke: #000000; stroke-width: 0.8; stroke-linejoin: miter; stroke-linecap: square"/>
   </g>
   <g id="patch_4">
    <path d="M 404.085625 273.312 
L 404.085625 7.2 
" style="fill: none; stroke: #000000; stroke-width: 0.8; stroke-linejoin: miter; stroke-linecap: square"/>
   </g>
   <g id="patch_5">
    <path d="M 46.965625 273.312 
L 404.085625 273.312 
" style="fill: none; stroke: #000000; stroke-width: 0.8; stroke-linejoin: miter; stroke-linecap: square"/>
   </g>
   <g id="patch_6">
    <path d="M 46.965625 7.2 
L 404.085625 7.2 
" style="fill: none; stroke: #000000; stroke-width: 0.8; stroke-linejoin: miter; stroke-linecap: square"/>
   </g>
   <g id="legend_1">
    <g id="patch_7">
     <path d="M 55.365625 69.64125 
L 132.686875 69.64125 
Q 135.086875 69.64125 135.086875 67.24125 
L 135.086875 15.6 
Q 135.086875 13.2 132.686875 13.2 
L 55.365625 13.2 
Q 52.965625 13.2 52.965625 15.6 
L 52.965625 67.24125 
Q 52.965625 69.64125 55.365625 69.64125 
z
" style="fill: #ffffff; opacity: 0.8; stroke: #cccccc; stroke-linejoin: miter"/>
    </g>
    <g id="line2d_36">
     <path d="M 57.765625 22.918125 
L 69.765625 22.918125 
L 81.765625 22.918125 
" style="fill: none; stroke: #003f5c; stroke-width: 1.5; stroke-linecap: square"/>
    </g>
    <g id="text_16">
     <!-- 1 link -->
     <g transform="translate(91.365625 27.118125) scale(0.12 -0.12)">
      <defs>
       <path id="DejaVuSans-69" d="M 603 3500 
L 1178 3500 
L 1178 0 
L 603 0 
L 603 3500 
z
M 603 4863 
L 1178 4863 
L 1178 4134 
L 603 4134 
L 603 4863 
z
" transform="scale(0.015625)"/>
       <path id="DejaVuSans-6e" d="M 3513 2113 
L 3513 0 
L 2938 0 
L 2938 2094 
Q 2938 2591 2744 2837 
Q 2550 3084 2163 3084 
Q 1697 3084 1428 2787 
Q 1159 2491 1159 1978 
L 1159 0 
L 581 0 
L 581 3500 
L 1159 3500 
L 1159 2956 
Q 1366 3272 1645 3428 
Q 1925 3584 2291 3584 
Q 2894 3584 3203 3211 
Q 3513 2838 3513 2113 
z
" transform="scale(0.015625)"/>
       <path id="DejaVuSans-6b" d="M 581 4863 
L 1159 4863 
L 1159 1991 
L 2875 3500 
L 3609 3500 
L 1753 1863 
L 3688 0 
L 2938 0 
L 1159 1709 
L 1159 0 
L 581 0 
L 581 4863 
z
" transform="scale(0.015625)"/>
      </defs>
      <use xlink:href="#DejaVuSans-31"/>
      <use xlink:href="#DejaVuSans-20" x="63.623047"/>
      <use xlink:href="#DejaVuSans-6c" x="95.410156"/>
      <use xlink:href="#DejaVuSans-69" x="123.193359"/>
      <use xlink:href="#DejaVuSans-6e" x="150.976562"/>
      <use xlink:href="#DejaVuSans-6b" x="214.355469"/>
     </g>
    </g>
    <g id="line2d_37">
     <path d="M 57.765625 40.531875 
L 69.765625 40.531875 
L 81.765625 40.531875 
" style="fill: none; stroke: #bc5090; stroke-width: 1.5; stroke-linecap: square"/>
    </g>
    <g id="text_17">
     <!-- 2 links -->
     <g transform="translate(91.365625 44.731875) scale(0.12 -0.12)">
      <use xlink:href="#DejaVuSans-32"/>
      <use xlink:href="#DejaVuSans-20" x="63.623047"/>
      <use xlink:href="#DejaVuSans-6c" x="95.410156"/>
      <use xlink:href="#DejaVuSans-69" x="123.193359"/>
      <use xlink:href="#DejaVuSans-6e" x="150.976562"/>
      <use xlink:href="#DejaVuSans-6b" x="214.355469"/>
      <use xlink:href="#DejaVuSans-73" x="272.265625"/>
     </g>
    </g>
    <g id="line2d_38">
     <path d="M 57.765625 58.145625 
L 69.765625 58.145625 
L 81.765625 58.145625 
" style="fill: none; stroke: #ffa600; stroke-width: 1.5; stroke-linecap: square"/>
    </g>
    <g id="text_18">
     <!-- 3 links -->
     <g transform="translate(91.365625 62.345625) scale(0.12 -0.12)">
      <defs>
       <path id="DejaVuSans-33" d="M 2597 2516 
Q 3050 2419 3304 2112 
Q 3559 1806 3559 1356 
Q 3559 666 3084 287 
Q 2609 -91 1734 -91 
Q 1441 -91 1130 -33 
Q 819 25 488 141 
L 488 750 
Q 750 597 1062 519 
Q 1375 441 1716 441 
Q 2309 441 2620 675 
Q 2931 909 2931 1356 
Q 2931 1769 2642 2001 
Q 2353 2234 1838 2234 
L 1294 2234 
L 1294 2753 
L 1863 2753 
Q 2328 2753 2575 2939 
Q 2822 3125 2822 3475 
Q 2822 3834 2567 4026 
Q 2313 4219 1838 4219 
Q 1578 4219 1281 4162 
Q 984 4106 628 3988 
L 628 4550 
Q 988 4650 1302 4700 
Q 1616 4750 1894 4750 
Q 2613 4750 3031 4423 
Q 3450 4097 3450 3541 
Q 3450 3153 3228 2886 
Q 3006 2619 2597 2516 
z
" transform="scale(0.015625)"/>
      </defs>
      <use xlink:href="#DejaVuSans-33"/>
      <use xlink:href="#DejaVuSans-20" x="63.623047"/>
      <use xlink:href="#DejaVuSans-6c" x="95.410156"/>
      <use xlink:href="#DejaVuSans-69" x="123.193359"/>
      <use xlink:href="#DejaVuSans-6e" x="150.976562"/>
      <use xlink:href="#DejaVuSans-6b" x="214.355469"/>
      <use xlink:href="#DejaVuSans-73" x="272.265625"/>
     </g>
    </g>
   </g>
  </g>
 </g>
 <defs>
  <clipPath id="p2f3feda020">
   <rect x="46.965625" y="7.2" width="357.12" height="266.112"/>
  </clipPath>
 </defs>
</svg>
