<?xml version="1.0" encoding="utf-8" standalone="no"?>
<!DOCTYPE svg PUBLIC "-//W3C//DTD SVG 1.1//EN"
  "http://www.w3.org/Graphics/SVG/1.1/DTD/svg11.dtd">
<svg xmlns:xlink="http://www.w3.org/1999/xlink" width="433.55125pt" height="310.86825pt" viewBox="0 0 433.55125 310.86825" xmlns="http://www.w3.org/2000/svg" version="1.1">
 <metadata>
  <rdf:RDF xmlns:dc="http://purl.org/dc/elements/1.1/" xmlns:cc="http://creativecommons.org/ns#" xmlns:rdf="http://www.w3.org/1999/02/22-rdf-syntax-ns#">
   <cc:Work>
    <dc:type rdf:resource="http://purl.org/dc/dcmitype/StillImage"/>
    <dc:date>2025-02-12T10:54:40.379754</dc:date>
    <dc:format>image/svg+xml</dc:format>
    <dc:creator>
     <cc:Agent>
      <dc:title>Matplotlib v3.9.2, https://matplotlib.org/</dc:title>
     </cc:Agent>
    </dc:creator>
   </cc:Work>
  </rdf:RDF>
 </metadata>
 <defs>
  <style type="text/css">*{stroke-linejoin: round; stroke-linecap: butt}</style>
 </defs>
 <g id="figure_1">
  <g id="patch_1">
   <path d="M 0 310.86825 
L 433.55125 310.86825 
L 433.55125 0 
L 0 0 
z
" style="fill: #ffffff"/>
  </g>
  <g id="axes_1">
   <g id="patch_2">
    <path d="M 69.23125 273.312 
L 426.35125 273.312 
L 426.35125 7.2 
L 69.23125 7.2 
z
" style="fill: #ffffff"/>
   </g>
   <g id="PolyCollection_1">
    <defs>
     <path id="mee1a168511" d="M 85.463977 -101.331584 
L 85.463977 -100.956908 
L 108.653588 -63.939147 
L 131.843198 -57.166716 
L 155.032808 -132.273535 
L 178.222419 -249.819692 
L 201.412029 -288.756501 
L 224.60164 -265.092101 
L 247.79125 -232.126647 
L 270.98086 -195.63974 
L 294.170471 -152.738932 
L 317.360081 -112.930148 
L 340.549692 -77.196631 
L 363.739302 -49.65225 
L 386.928912 -51.411841 
L 410.118523 -78.563884 
L 410.118523 -78.599207 
L 410.118523 -78.599207 
L 386.928912 -51.545816 
L 363.739302 -49.695647 
L 340.549692 -77.217573 
L 317.360081 -112.952099 
L 294.170471 -152.799233 
L 270.98086 -195.696762 
L 247.79125 -232.2856 
L 224.60164 -265.266698 
L 201.412029 -289.064316 
L 178.222419 -250.232719 
L 155.032808 -132.377485 
L 131.843198 -57.201787 
L 108.653588 -64.020895 
L 85.463977 -101.331584 
z
" style="stroke: #000000; stroke-opacity: 0.2"/>
    </defs>
    <g clip-path="url(#p63ffa110de)">
     <use xlink:href="#mee1a168511" x="0" y="310.86825" style="fill-opacity: 0.2; stroke: #000000; stroke-opacity: 0.2"/>
    </g>
   </g>
   <g id="PolyCollection_2">
    <defs>
     <path id="m322ca38b95" d="M 85.463977 -119.859262 
L 85.463977 -119.664733 
L 108.653588 -73.442552 
L 131.843198 -63.435334 
L 155.032808 -136.570831 
L 178.222419 -252.676566 
L 201.412029 -290.555452 
L 224.60164 -266.192665 
L 247.79125 -232.983734 
L 270.98086 -196.263191 
L 294.170471 -153.127232 
L 317.360081 -113.216264 
L 340.549692 -77.368452 
L 363.739302 -51.11109 
L 386.928912 -53.116176 
L 410.118523 -80.019192 
L 410.118523 -80.060318 
L 410.118523 -80.060318 
L 386.928912 -53.187579 
L 363.739302 -51.211761 
L 340.549692 -77.379806 
L 317.360081 -113.239224 
L 294.170471 -153.173405 
L 270.98086 -196.285647 
L 247.79125 -233.065482 
L 224.60164 -266.450018 
L 201.412029 -290.759821 
L 178.222419 -252.867815 
L 155.032808 -136.888739 
L 131.843198 -63.533185 
L 108.653588 -73.528084 
L 85.463977 -119.859262 
z
" style="stroke: #8b0000; stroke-opacity: 0.2"/>
    </defs>
    <g clip-path="url(#p63ffa110de)">
     <use xlink:href="#m322ca38b95" x="0" y="310.86825" style="fill: #8b0000; fill-opacity: 0.2; stroke: #8b0000; stroke-opacity: 0.2"/>
    </g>
   </g>
   <g id="PolyCollection_3">
    <defs>
     <path id="meb5cb6f6eb" d="M 85.463977 -129.273097 
L 85.463977 -129.166792 
L 108.653588 -78.168518 
L 131.843198 -66.624453 
L 155.032808 -138.654385 
L 178.222419 -253.804127 
L 201.412029 -291.311533 
L 224.60164 -266.889033 
L 247.79125 -233.398275 
L 270.98086 -196.531142 
L 294.170471 -153.275337 
L 317.360081 -113.360836 
L 340.549692 -77.454741 
L 363.739302 -51.925791 
L 386.928912 -53.951061 
L 410.118523 -80.749369 
L 410.118523 -80.868206 
L 410.118523 -80.868206 
L 386.928912 -54.06258 
L 363.739302 -51.973477 
L 340.549692 -77.471646 
L 317.360081 -113.372695 
L 294.170471 -153.301829 
L 270.98086 -196.582108 
L 247.79125 -233.453026 
L 224.60164 -266.995002 
L 201.412029 -291.57225 
L 178.222419 -253.868813 
L 155.032808 -138.950846 
L 131.843198 -66.654225 
L 108.653588 -78.223774 
L 85.463977 -129.273097 
z
" style="stroke: #556b2f; stroke-opacity: 0.2"/>
    </defs>
    <g clip-path="url(#p63ffa110de)">
     <use xlink:href="#meb5cb6f6eb" x="0" y="310.86825" style="fill: #556b2f; fill-opacity: 0.2; stroke: #556b2f; stroke-opacity: 0.2"/>
    </g>
   </g>
   <g id="matplotlib.axis_1">
    <g id="xtick_1">
     <g id="line2d_1">
      <path d="M 108.653588 273.312 
L 108.653588 7.2 
" clip-path="url(#p63ffa110de)" style="fill: none; stroke-dasharray: 1.85,0.8; stroke-dashoffset: 0; stroke: #ffffff; stroke-width: 0.5"/>
     </g>
     <g id="line2d_2">
      <defs>
       <path id="m5319056cfe" d="M 0 0 
L 0 3.5 
" style="stroke: #000000; stroke-width: 0.8"/>
      </defs>
      <g>
       <use xlink:href="#m5319056cfe" x="108.653588" y="273.312" style="stroke: #000000; stroke-width: 0.8"/>
      </g>
     </g>
     <g id="text_1">
      <!-- 20 -->
      <g transform="translate(102.291088 287.910437) scale(0.1 -0.1)">
       <defs>
        <path id="DejaVuSans-32" d="M 1228 531 
L 3431 531 
L 3431 0 
L 469 0 
L 469 531 
Q 828 903 1448 1529 
Q 2069 2156 2228 2338 
Q 2531 2678 2651 2914 
Q 2772 3150 2772 3378 
Q 2772 3750 2511 3984 
Q 2250 4219 1831 4219 
Q 1534 4219 1204 4116 
Q 875 4013 500 3803 
L 500 4441 
Q 881 4594 1212 4672 
Q 1544 4750 1819 4750 
Q 2544 4750 2975 4387 
Q 3406 4025 3406 3419 
Q 3406 3131 3298 2873 
Q 3191 2616 2906 2266 
Q 2828 2175 2409 1742 
Q 1991 1309 1228 531 
z
" transform="scale(0.015625)"/>
        <path id="DejaVuSans-30" d="M 2034 4250 
Q 1547 4250 1301 3770 
Q 1056 3291 1056 2328 
Q 1056 1369 1301 889 
Q 1547 409 2034 409 
Q 2525 409 2770 889 
Q 3016 1369 3016 2328 
Q 3016 3291 2770 3770 
Q 2525 4250 2034 4250 
z
M 2034 4750 
Q 2819 4750 3233 4129 
Q 3647 3509 3647 2328 
Q 3647 1150 3233 529 
Q 2819 -91 2034 -91 
Q 1250 -91 836 529 
Q 422 1150 422 2328 
Q 422 3509 836 4129 
Q 1250 4750 2034 4750 
z
" transform="scale(0.015625)"/>
       </defs>
       <use xlink:href="#DejaVuSans-32"/>
       <use xlink:href="#DejaVuSans-30" x="63.623047"/>
      </g>
     </g>
    </g>
    <g id="xtick_2">
     <g id="line2d_3">
      <path d="M 155.032808 273.312 
L 155.032808 7.2 
" clip-path="url(#p63ffa110de)" style="fill: none; stroke-dasharray: 1.85,0.8; stroke-dashoffset: 0; stroke: #ffffff; stroke-width: 0.5"/>
     </g>
     <g id="line2d_4">
      <g>
       <use xlink:href="#m5319056cfe" x="155.032808" y="273.312" style="stroke: #000000; stroke-width: 0.8"/>
      </g>
     </g>
     <g id="text_2">
      <!-- 40 -->
      <g transform="translate(148.670308 287.910437) scale(0.1 -0.1)">
       <defs>
        <path id="DejaVuSans-34" d="M 2419 4116 
L 825 1625 
L 2419 1625 
L 2419 4116 
z
M 2253 4666 
L 3047 4666 
L 3047 1625 
L 3713 1625 
L 3713 1100 
L 3047 1100 
L 3047 0 
L 2419 0 
L 2419 1100 
L 313 1100 
L 313 1709 
L 2253 4666 
z
" transform="scale(0.015625)"/>
       </defs>
       <use xlink:href="#DejaVuSans-34"/>
       <use xlink:href="#DejaVuSans-30" x="63.623047"/>
      </g>
     </g>
    </g>
    <g id="xtick_3">
     <g id="line2d_5">
      <path d="M 201.412029 273.312 
L 201.412029 7.2 
" clip-path="url(#p63ffa110de)" style="fill: none; stroke-dasharray: 1.85,0.8; stroke-dashoffset: 0; stroke: #ffffff; stroke-width: 0.5"/>
     </g>
     <g id="line2d_6">
      <g>
       <use xlink:href="#m5319056cfe" x="201.412029" y="273.312" style="stroke: #000000; stroke-width: 0.8"/>
      </g>
     </g>
     <g id="text_3">
      <!-- 60 -->
      <g transform="translate(195.049529 287.910437) scale(0.1 -0.1)">
       <defs>
        <path id="DejaVuSans-36" d="M 2113 2584 
Q 1688 2584 1439 2293 
Q 1191 2003 1191 1497 
Q 1191 994 1439 701 
Q 1688 409 2113 409 
Q 2538 409 2786 701 
Q 3034 994 3034 1497 
Q 3034 2003 2786 2293 
Q 2538 2584 2113 2584 
z
M 3366 4563 
L 3366 3988 
Q 3128 4100 2886 4159 
Q 2644 4219 2406 4219 
Q 1781 4219 1451 3797 
Q 1122 3375 1075 2522 
Q 1259 2794 1537 2939 
Q 1816 3084 2150 3084 
Q 2853 3084 3261 2657 
Q 3669 2231 3669 1497 
Q 3669 778 3244 343 
Q 2819 -91 2113 -91 
Q 1303 -91 875 529 
Q 447 1150 447 2328 
Q 447 3434 972 4092 
Q 1497 4750 2381 4750 
Q 2619 4750 2861 4703 
Q 3103 4656 3366 4563 
z
" transform="scale(0.015625)"/>
       </defs>
       <use xlink:href="#DejaVuSans-36"/>
       <use xlink:href="#DejaVuSans-30" x="63.623047"/>
      </g>
     </g>
    </g>
    <g id="xtick_4">
     <g id="line2d_7">
      <path d="M 247.79125 273.312 
L 247.79125 7.2 
" clip-path="url(#p63ffa110de)" style="fill: none; stroke-dasharray: 1.85,0.8; stroke-dashoffset: 0; stroke: #ffffff; stroke-width: 0.5"/>
     </g>
     <g id="line2d_8">
      <g>
       <use xlink:href="#m5319056cfe" x="247.79125" y="273.312" style="stroke: #000000; stroke-width: 0.8"/>
      </g>
     </g>
     <g id="text_4">
      <!-- 80 -->
      <g transform="translate(241.42875 287.910437) scale(0.1 -0.1)">
       <defs>
        <path id="DejaVuSans-38" d="M 2034 2216 
Q 1584 2216 1326 1975 
Q 1069 1734 1069 1313 
Q 1069 891 1326 650 
Q 1584 409 2034 409 
Q 2484 409 2743 651 
Q 3003 894 3003 1313 
Q 3003 1734 2745 1975 
Q 2488 2216 2034 2216 
z
M 1403 2484 
Q 997 2584 770 2862 
Q 544 3141 544 3541 
Q 544 4100 942 4425 
Q 1341 4750 2034 4750 
Q 2731 4750 3128 4425 
Q 3525 4100 3525 3541 
Q 3525 3141 3298 2862 
Q 3072 2584 2669 2484 
Q 3125 2378 3379 2068 
Q 3634 1759 3634 1313 
Q 3634 634 3220 271 
Q 2806 -91 2034 -91 
Q 1263 -91 848 271 
Q 434 634 434 1313 
Q 434 1759 690 2068 
Q 947 2378 1403 2484 
z
M 1172 3481 
Q 1172 3119 1398 2916 
Q 1625 2713 2034 2713 
Q 2441 2713 2670 2916 
Q 2900 3119 2900 3481 
Q 2900 3844 2670 4047 
Q 2441 4250 2034 4250 
Q 1625 4250 1398 4047 
Q 1172 3844 1172 3481 
z
" transform="scale(0.015625)"/>
       </defs>
       <use xlink:href="#DejaVuSans-38"/>
       <use xlink:href="#DejaVuSans-30" x="63.623047"/>
      </g>
     </g>
    </g>
    <g id="xtick_5">
     <g id="line2d_9">
      <path d="M 294.170471 273.312 
L 294.170471 7.2 
" clip-path="url(#p63ffa110de)" style="fill: none; stroke-dasharray: 1.85,0.8; stroke-dashoffset: 0; stroke: #ffffff; stroke-width: 0.5"/>
     </g>
     <g id="line2d_10">
      <g>
       <use xlink:href="#m5319056cfe" x="294.170471" y="273.312" style="stroke: #000000; stroke-width: 0.8"/>
      </g>
     </g>
     <g id="text_5">
      <!-- 100 -->
      <g transform="translate(284.626721 287.910437) scale(0.1 -0.1)">
       <defs>
        <path id="DejaVuSans-31" d="M 794 531 
L 1825 531 
L 1825 4091 
L 703 3866 
L 703 4441 
L 1819 4666 
L 2450 4666 
L 2450 531 
L 3481 531 
L 3481 0 
L 794 0 
L 794 531 
z
" transform="scale(0.015625)"/>
       </defs>
       <use xlink:href="#DejaVuSans-31"/>
       <use xlink:href="#DejaVuSans-30" x="63.623047"/>
       <use xlink:href="#DejaVuSans-30" x="127.246094"/>
      </g>
     </g>
    </g>
    <g id="xtick_6">
     <g id="line2d_11">
      <path d="M 340.549692 273.312 
L 340.549692 7.2 
" clip-path="url(#p63ffa110de)" style="fill: none; stroke-dasharray: 1.85,0.8; stroke-dashoffset: 0; stroke: #ffffff; stroke-width: 0.5"/>
     </g>
     <g id="line2d_12">
      <g>
       <use xlink:href="#m5319056cfe" x="340.549692" y="273.312" style="stroke: #000000; stroke-width: 0.8"/>
      </g>
     </g>
     <g id="text_6">
      <!-- 120 -->
      <g transform="translate(331.005942 287.910437) scale(0.1 -0.1)">
       <use xlink:href="#DejaVuSans-31"/>
       <use xlink:href="#DejaVuSans-32" x="63.623047"/>
       <use xlink:href="#DejaVuSans-30" x="127.246094"/>
      </g>
     </g>
    </g>
    <g id="xtick_7">
     <g id="line2d_13">
      <path d="M 386.928912 273.312 
L 386.928912 7.2 
" clip-path="url(#p63ffa110de)" style="fill: none; stroke-dasharray: 1.85,0.8; stroke-dashoffset: 0; stroke: #ffffff; stroke-width: 0.5"/>
     </g>
     <g id="line2d_14">
      <g>
       <use xlink:href="#m5319056cfe" x="386.928912" y="273.312" style="stroke: #000000; stroke-width: 0.8"/>
      </g>
     </g>
     <g id="text_7">
      <!-- 140 -->
      <g transform="translate(377.385162 287.910437) scale(0.1 -0.1)">
       <use xlink:href="#DejaVuSans-31"/>
       <use xlink:href="#DejaVuSans-34" x="63.623047"/>
       <use xlink:href="#DejaVuSans-30" x="127.246094"/>
      </g>
     </g>
    </g>
    <g id="text_8">
     <!-- Data rate [Mbps] -->
     <g transform="translate(205.349844 301.588562) scale(0.1 -0.1)">
      <defs>
       <path id="DejaVuSans-44" d="M 1259 4147 
L 1259 519 
L 2022 519 
Q 2988 519 3436 956 
Q 3884 1394 3884 2338 
Q 3884 3275 3436 3711 
Q 2988 4147 2022 4147 
L 1259 4147 
z
M 628 4666 
L 1925 4666 
Q 3281 4666 3915 4102 
Q 4550 3538 4550 2338 
Q 4550 1131 3912 565 
Q 3275 0 1925 0 
L 628 0 
L 628 4666 
z
" transform="scale(0.015625)"/>
       <path id="DejaVuSans-61" d="M 2194 1759 
Q 1497 1759 1228 1600 
Q 959 1441 959 1056 
Q 959 750 1161 570 
Q 1363 391 1709 391 
Q 2188 391 2477 730 
Q 2766 1069 2766 1631 
L 2766 1759 
L 2194 1759 
z
M 3341 1997 
L 3341 0 
L 2766 0 
L 2766 531 
Q 2569 213 2275 61 
Q 1981 -91 1556 -91 
Q 1019 -91 701 211 
Q 384 513 384 1019 
Q 384 1609 779 1909 
Q 1175 2209 1959 2209 
L 2766 2209 
L 2766 2266 
Q 2766 2663 2505 2880 
Q 2244 3097 1772 3097 
Q 1472 3097 1187 3025 
Q 903 2953 641 2809 
L 641 3341 
Q 956 3463 1253 3523 
Q 1550 3584 1831 3584 
Q 2591 3584 2966 3190 
Q 3341 2797 3341 1997 
z
" transform="scale(0.015625)"/>
       <path id="DejaVuSans-74" d="M 1172 4494 
L 1172 3500 
L 2356 3500 
L 2356 3053 
L 1172 3053 
L 1172 1153 
Q 1172 725 1289 603 
Q 1406 481 1766 481 
L 2356 481 
L 2356 0 
L 1766 0 
Q 1100 0 847 248 
Q 594 497 594 1153 
L 594 3053 
L 172 3053 
L 172 3500 
L 594 3500 
L 594 4494 
L 1172 4494 
z
" transform="scale(0.015625)"/>
       <path id="DejaVuSans-20" transform="scale(0.015625)"/>
       <path id="DejaVuSans-72" d="M 2631 2963 
Q 2534 3019 2420 3045 
Q 2306 3072 2169 3072 
Q 1681 3072 1420 2755 
Q 1159 2438 1159 1844 
L 1159 0 
L 581 0 
L 581 3500 
L 1159 3500 
L 1159 2956 
Q 1341 3275 1631 3429 
Q 1922 3584 2338 3584 
Q 2397 3584 2469 3576 
Q 2541 3569 2628 3553 
L 2631 2963 
z
" transform="scale(0.015625)"/>
       <path id="DejaVuSans-65" d="M 3597 1894 
L 3597 1613 
L 953 1613 
Q 991 1019 1311 708 
Q 1631 397 2203 397 
Q 2534 397 2845 478 
Q 3156 559 3463 722 
L 3463 178 
Q 3153 47 2828 -22 
Q 2503 -91 2169 -91 
Q 1331 -91 842 396 
Q 353 884 353 1716 
Q 353 2575 817 3079 
Q 1281 3584 2069 3584 
Q 2775 3584 3186 3129 
Q 3597 2675 3597 1894 
z
M 3022 2063 
Q 3016 2534 2758 2815 
Q 2500 3097 2075 3097 
Q 1594 3097 1305 2825 
Q 1016 2553 972 2059 
L 3022 2063 
z
" transform="scale(0.015625)"/>
       <path id="DejaVuSans-5b" d="M 550 4863 
L 1875 4863 
L 1875 4416 
L 1125 4416 
L 1125 -397 
L 1875 -397 
L 1875 -844 
L 550 -844 
L 550 4863 
z
" transform="scale(0.015625)"/>
       <path id="DejaVuSans-4d" d="M 628 4666 
L 1569 4666 
L 2759 1491 
L 3956 4666 
L 4897 4666 
L 4897 0 
L 4281 0 
L 4281 4097 
L 3078 897 
L 2444 897 
L 1241 4097 
L 1241 0 
L 628 0 
L 628 4666 
z
" transform="scale(0.015625)"/>
       <path id="DejaVuSans-62" d="M 3116 1747 
Q 3116 2381 2855 2742 
Q 2594 3103 2138 3103 
Q 1681 3103 1420 2742 
Q 1159 2381 1159 1747 
Q 1159 1113 1420 752 
Q 1681 391 2138 391 
Q 2594 391 2855 752 
Q 3116 1113 3116 1747 
z
M 1159 2969 
Q 1341 3281 1617 3432 
Q 1894 3584 2278 3584 
Q 2916 3584 3314 3078 
Q 3713 2572 3713 1747 
Q 3713 922 3314 415 
Q 2916 -91 2278 -91 
Q 1894 -91 1617 61 
Q 1341 213 1159 525 
L 1159 0 
L 581 0 
L 581 4863 
L 1159 4863 
L 1159 2969 
z
" transform="scale(0.015625)"/>
       <path id="DejaVuSans-70" d="M 1159 525 
L 1159 -1331 
L 581 -1331 
L 581 3500 
L 1159 3500 
L 1159 2969 
Q 1341 3281 1617 3432 
Q 1894 3584 2278 3584 
Q 2916 3584 3314 3078 
Q 3713 2572 3713 1747 
Q 3713 922 3314 415 
Q 2916 -91 2278 -91 
Q 1894 -91 1617 61 
Q 1341 213 1159 525 
z
M 3116 1747 
Q 3116 2381 2855 2742 
Q 2594 3103 2138 3103 
Q 1681 3103 1420 2742 
Q 1159 2381 1159 1747 
Q 1159 1113 1420 752 
Q 1681 391 2138 391 
Q 2594 391 2855 752 
Q 3116 1113 3116 1747 
z
" transform="scale(0.015625)"/>
       <path id="DejaVuSans-73" d="M 2834 3397 
L 2834 2853 
Q 2591 2978 2328 3040 
Q 2066 3103 1784 3103 
Q 1356 3103 1142 2972 
Q 928 2841 928 2578 
Q 928 2378 1081 2264 
Q 1234 2150 1697 2047 
L 1894 2003 
Q 2506 1872 2764 1633 
Q 3022 1394 3022 966 
Q 3022 478 2636 193 
Q 2250 -91 1575 -91 
Q 1294 -91 989 -36 
Q 684 19 347 128 
L 347 722 
Q 666 556 975 473 
Q 1284 391 1588 391 
Q 1994 391 2212 530 
Q 2431 669 2431 922 
Q 2431 1156 2273 1281 
Q 2116 1406 1581 1522 
L 1381 1569 
Q 847 1681 609 1914 
Q 372 2147 372 2553 
Q 372 3047 722 3315 
Q 1072 3584 1716 3584 
Q 2034 3584 2315 3537 
Q 2597 3491 2834 3397 
z
" transform="scale(0.015625)"/>
       <path id="DejaVuSans-5d" d="M 1947 4863 
L 1947 -844 
L 622 -844 
L 622 -397 
L 1369 -397 
L 1369 4416 
L 622 4416 
L 622 4863 
L 1947 4863 
z
" transform="scale(0.015625)"/>
      </defs>
      <use xlink:href="#DejaVuSans-44"/>
      <use xlink:href="#DejaVuSans-61" x="77.001953"/>
      <use xlink:href="#DejaVuSans-74" x="138.28125"/>
      <use xlink:href="#DejaVuSans-61" x="177.490234"/>
      <use xlink:href="#DejaVuSans-20" x="238.769531"/>
      <use xlink:href="#DejaVuSans-72" x="270.556641"/>
      <use xlink:href="#DejaVuSans-61" x="311.669922"/>
      <use xlink:href="#DejaVuSans-74" x="372.949219"/>
      <use xlink:href="#DejaVuSans-65" x="412.158203"/>
      <use xlink:href="#DejaVuSans-20" x="473.681641"/>
      <use xlink:href="#DejaVuSans-5b" x="505.46875"/>
      <use xlink:href="#DejaVuSans-4d" x="544.482422"/>
      <use xlink:href="#DejaVuSans-62" x="630.761719"/>
      <use xlink:href="#DejaVuSans-70" x="694.238281"/>
      <use xlink:href="#DejaVuSans-73" x="757.714844"/>
      <use xlink:href="#DejaVuSans-5d" x="809.814453"/>
     </g>
    </g>
   </g>
   <g id="matplotlib.axis_2">
    <g id="ytick_1">
     <g id="line2d_15">
      <path d="M 69.23125 247.316142 
L 426.35125 247.316142 
" clip-path="url(#p63ffa110de)" style="fill: none; stroke-dasharray: 1.85,0.8; stroke-dashoffset: 0; stroke: #ffffff; stroke-width: 0.5"/>
     </g>
     <g id="line2d_16">
      <defs>
       <path id="m507fa3a4cc" d="M 0 0 
L -3.5 0 
" style="stroke: #000000; stroke-width: 0.8"/>
      </defs>
      <g>
       <use xlink:href="#m507fa3a4cc" x="69.23125" y="247.316142" style="stroke: #000000; stroke-width: 0.8"/>
      </g>
     </g>
     <g id="text_9">
      <!-- 0.00002 -->
      <g transform="translate(20.878125 251.115361) scale(0.1 -0.1)">
       <defs>
        <path id="DejaVuSans-2e" d="M 684 794 
L 1344 794 
L 1344 0 
L 684 0 
L 684 794 
z
" transform="scale(0.015625)"/>
       </defs>
       <use xlink:href="#DejaVuSans-30"/>
       <use xlink:href="#DejaVuSans-2e" x="63.623047"/>
       <use xlink:href="#DejaVuSans-30" x="95.410156"/>
       <use xlink:href="#DejaVuSans-30" x="159.033203"/>
       <use xlink:href="#DejaVuSans-30" x="222.65625"/>
       <use xlink:href="#DejaVuSans-30" x="286.279297"/>
       <use xlink:href="#DejaVuSans-32" x="349.902344"/>
      </g>
     </g>
    </g>
    <g id="ytick_2">
     <g id="line2d_17">
      <path d="M 69.23125 196.854695 
L 426.35125 196.854695 
" clip-path="url(#p63ffa110de)" style="fill: none; stroke-dasharray: 1.85,0.8; stroke-dashoffset: 0; stroke: #ffffff; stroke-width: 0.5"/>
     </g>
     <g id="line2d_18">
      <g>
       <use xlink:href="#m507fa3a4cc" x="69.23125" y="196.854695" style="stroke: #000000; stroke-width: 0.8"/>
      </g>
     </g>
     <g id="text_10">
      <!-- 0.00004 -->
      <g transform="translate(20.878125 200.653913) scale(0.1 -0.1)">
       <use xlink:href="#DejaVuSans-30"/>
       <use xlink:href="#DejaVuSans-2e" x="63.623047"/>
       <use xlink:href="#DejaVuSans-30" x="95.410156"/>
       <use xlink:href="#DejaVuSans-30" x="159.033203"/>
       <use xlink:href="#DejaVuSans-30" x="222.65625"/>
       <use xlink:href="#DejaVuSans-30" x="286.279297"/>
       <use xlink:href="#DejaVuSans-34" x="349.902344"/>
      </g>
     </g>
    </g>
    <g id="ytick_3">
     <g id="line2d_19">
      <path d="M 69.23125 146.393247 
L 426.35125 146.393247 
" clip-path="url(#p63ffa110de)" style="fill: none; stroke-dasharray: 1.85,0.8; stroke-dashoffset: 0; stroke: #ffffff; stroke-width: 0.5"/>
     </g>
     <g id="line2d_20">
      <g>
       <use xlink:href="#m507fa3a4cc" x="69.23125" y="146.393247" style="stroke: #000000; stroke-width: 0.8"/>
      </g>
     </g>
     <g id="text_11">
      <!-- 0.00006 -->
      <g transform="translate(20.878125 150.192466) scale(0.1 -0.1)">
       <use xlink:href="#DejaVuSans-30"/>
       <use xlink:href="#DejaVuSans-2e" x="63.623047"/>
       <use xlink:href="#DejaVuSans-30" x="95.410156"/>
       <use xlink:href="#DejaVuSans-30" x="159.033203"/>
       <use xlink:href="#DejaVuSans-30" x="222.65625"/>
       <use xlink:href="#DejaVuSans-30" x="286.279297"/>
       <use xlink:href="#DejaVuSans-36" x="349.902344"/>
      </g>
     </g>
    </g>
    <g id="ytick_4">
     <g id="line2d_21">
      <path d="M 69.23125 95.9318 
L 426.35125 95.9318 
" clip-path="url(#p63ffa110de)" style="fill: none; stroke-dasharray: 1.85,0.8; stroke-dashoffset: 0; stroke: #ffffff; stroke-width: 0.5"/>
     </g>
     <g id="line2d_22">
      <g>
       <use xlink:href="#m507fa3a4cc" x="69.23125" y="95.9318" style="stroke: #000000; stroke-width: 0.8"/>
      </g>
     </g>
     <g id="text_12">
      <!-- 0.00008 -->
      <g transform="translate(20.878125 99.731019) scale(0.1 -0.1)">
       <use xlink:href="#DejaVuSans-30"/>
       <use xlink:href="#DejaVuSans-2e" x="63.623047"/>
       <use xlink:href="#DejaVuSans-30" x="95.410156"/>
       <use xlink:href="#DejaVuSans-30" x="159.033203"/>
       <use xlink:href="#DejaVuSans-30" x="222.65625"/>
       <use xlink:href="#DejaVuSans-30" x="286.279297"/>
       <use xlink:href="#DejaVuSans-38" x="349.902344"/>
      </g>
     </g>
    </g>
    <g id="ytick_5">
     <g id="line2d_23">
      <path d="M 69.23125 45.470353 
L 426.35125 45.470353 
" clip-path="url(#p63ffa110de)" style="fill: none; stroke-dasharray: 1.85,0.8; stroke-dashoffset: 0; stroke: #ffffff; stroke-width: 0.5"/>
     </g>
     <g id="line2d_24">
      <g>
       <use xlink:href="#m507fa3a4cc" x="69.23125" y="45.470353" style="stroke: #000000; stroke-width: 0.8"/>
      </g>
     </g>
     <g id="text_13">
      <!-- 0.00010 -->
      <g transform="translate(20.878125 49.269571) scale(0.1 -0.1)">
       <use xlink:href="#DejaVuSans-30"/>
       <use xlink:href="#DejaVuSans-2e" x="63.623047"/>
       <use xlink:href="#DejaVuSans-30" x="95.410156"/>
       <use xlink:href="#DejaVuSans-30" x="159.033203"/>
       <use xlink:href="#DejaVuSans-30" x="222.65625"/>
       <use xlink:href="#DejaVuSans-31" x="286.279297"/>
       <use xlink:href="#DejaVuSans-30" x="349.902344"/>
      </g>
     </g>
    </g>
    <g id="text_14">
     <!-- Average jitter [s] -->
     <g transform="translate(14.798438 182.303656) rotate(-90) scale(0.1 -0.1)">
      <defs>
       <path id="DejaVuSans-41" d="M 2188 4044 
L 1331 1722 
L 3047 1722 
L 2188 4044 
z
M 1831 4666 
L 2547 4666 
L 4325 0 
L 3669 0 
L 3244 1197 
L 1141 1197 
L 716 0 
L 50 0 
L 1831 4666 
z
" transform="scale(0.015625)"/>
       <path id="DejaVuSans-76" d="M 191 3500 
L 800 3500 
L 1894 563 
L 2988 3500 
L 3597 3500 
L 2284 0 
L 1503 0 
L 191 3500 
z
" transform="scale(0.015625)"/>
       <path id="DejaVuSans-67" d="M 2906 1791 
Q 2906 2416 2648 2759 
Q 2391 3103 1925 3103 
Q 1463 3103 1205 2759 
Q 947 2416 947 1791 
Q 947 1169 1205 825 
Q 1463 481 1925 481 
Q 2391 481 2648 825 
Q 2906 1169 2906 1791 
z
M 3481 434 
Q 3481 -459 3084 -895 
Q 2688 -1331 1869 -1331 
Q 1566 -1331 1297 -1286 
Q 1028 -1241 775 -1147 
L 775 -588 
Q 1028 -725 1275 -790 
Q 1522 -856 1778 -856 
Q 2344 -856 2625 -561 
Q 2906 -266 2906 331 
L 2906 616 
Q 2728 306 2450 153 
Q 2172 0 1784 0 
Q 1141 0 747 490 
Q 353 981 353 1791 
Q 353 2603 747 3093 
Q 1141 3584 1784 3584 
Q 2172 3584 2450 3431 
Q 2728 3278 2906 2969 
L 2906 3500 
L 3481 3500 
L 3481 434 
z
" transform="scale(0.015625)"/>
       <path id="DejaVuSans-6a" d="M 603 3500 
L 1178 3500 
L 1178 -63 
Q 1178 -731 923 -1031 
Q 669 -1331 103 -1331 
L -116 -1331 
L -116 -844 
L 38 -844 
Q 366 -844 484 -692 
Q 603 -541 603 -63 
L 603 3500 
z
M 603 4863 
L 1178 4863 
L 1178 4134 
L 603 4134 
L 603 4863 
z
" transform="scale(0.015625)"/>
       <path id="DejaVuSans-69" d="M 603 3500 
L 1178 3500 
L 1178 0 
L 603 0 
L 603 3500 
z
M 603 4863 
L 1178 4863 
L 1178 4134 
L 603 4134 
L 603 4863 
z
" transform="scale(0.015625)"/>
      </defs>
      <use xlink:href="#DejaVuSans-41"/>
      <use xlink:href="#DejaVuSans-76" x="62.533203"/>
      <use xlink:href="#DejaVuSans-65" x="121.712891"/>
      <use xlink:href="#DejaVuSans-72" x="183.236328"/>
      <use xlink:href="#DejaVuSans-61" x="224.349609"/>
      <use xlink:href="#DejaVuSans-67" x="285.628906"/>
      <use xlink:href="#DejaVuSans-65" x="349.105469"/>
      <use xlink:href="#DejaVuSans-20" x="410.628906"/>
      <use xlink:href="#DejaVuSans-6a" x="442.416016"/>
      <use xlink:href="#DejaVuSans-69" x="470.199219"/>
      <use xlink:href="#DejaVuSans-74" x="497.982422"/>
      <use xlink:href="#DejaVuSans-74" x="537.191406"/>
      <use xlink:href="#DejaVuSans-65" x="576.400391"/>
      <use xlink:href="#DejaVuSans-72" x="637.923828"/>
      <use xlink:href="#DejaVuSans-20" x="679.037109"/>
      <use xlink:href="#DejaVuSans-5b" x="710.824219"/>
      <use xlink:href="#DejaVuSans-73" x="749.837891"/>
      <use xlink:href="#DejaVuSans-5d" x="801.9375"/>
     </g>
    </g>
   </g>
   <g id="line2d_25">
    <path d="M 85.463977 209.728924 
L 108.653588 246.88108 
L 131.843198 253.681854 
L 155.032808 178.546777 
L 178.222419 60.889857 
L 201.412029 21.992323 
L 224.60164 45.712231 
L 247.79125 78.672639 
L 270.98086 115.197981 
L 294.170471 158.095005 
L 317.360081 197.923973 
L 340.549692 233.659424 
L 363.739302 261.19161 
L 386.928912 259.386857 
L 410.118523 232.289059 
" clip-path="url(#p63ffa110de)" style="fill: none; stroke: #000000; stroke-width: 1.5; stroke-linecap: square"/>
    <defs>
     <path id="me3e2a037b8" d="M 0 4 
C 1.060812 4 2.078319 3.578535 2.828427 2.828427 
C 3.578535 2.078319 4 1.060812 4 0 
C 4 -1.060812 3.578535 -2.078319 2.828427 -2.828427 
C 2.078319 -3.578535 1.060812 -4 0 -4 
C -1.060812 -4 -2.078319 -3.578535 -2.828427 -2.828427 
C -3.578535 -2.078319 -4 -1.060812 -4 0 
C -4 1.060812 -3.578535 2.078319 -2.828427 2.828427 
C -2.078319 3.578535 -1.060812 4 0 4 
z
" style="stroke: #ffffff; stroke-width: 0.75"/>
    </defs>
    <g clip-path="url(#p63ffa110de)">
     <use xlink:href="#me3e2a037b8" x="85.463977" y="209.728924" style="stroke: #ffffff; stroke-width: 0.75"/>
     <use xlink:href="#me3e2a037b8" x="108.653588" y="246.88108" style="stroke: #ffffff; stroke-width: 0.75"/>
     <use xlink:href="#me3e2a037b8" x="131.843198" y="253.681854" style="stroke: #ffffff; stroke-width: 0.75"/>
     <use xlink:href="#me3e2a037b8" x="155.032808" y="178.546777" style="stroke: #ffffff; stroke-width: 0.75"/>
     <use xlink:href="#me3e2a037b8" x="178.222419" y="60.889857" style="stroke: #ffffff; stroke-width: 0.75"/>
     <use xlink:href="#me3e2a037b8" x="201.412029" y="21.992323" style="stroke: #ffffff; stroke-width: 0.75"/>
     <use xlink:href="#me3e2a037b8" x="224.60164" y="45.712231" style="stroke: #ffffff; stroke-width: 0.75"/>
     <use xlink:href="#me3e2a037b8" x="247.79125" y="78.672639" style="stroke: #ffffff; stroke-width: 0.75"/>
     <use xlink:href="#me3e2a037b8" x="270.98086" y="115.197981" style="stroke: #ffffff; stroke-width: 0.75"/>
     <use xlink:href="#me3e2a037b8" x="294.170471" y="158.095005" style="stroke: #ffffff; stroke-width: 0.75"/>
     <use xlink:href="#me3e2a037b8" x="317.360081" y="197.923973" style="stroke: #ffffff; stroke-width: 0.75"/>
     <use xlink:href="#me3e2a037b8" x="340.549692" y="233.659424" style="stroke: #ffffff; stroke-width: 0.75"/>
     <use xlink:href="#me3e2a037b8" x="363.739302" y="261.19161" style="stroke: #ffffff; stroke-width: 0.75"/>
     <use xlink:href="#me3e2a037b8" x="386.928912" y="259.386857" style="stroke: #ffffff; stroke-width: 0.75"/>
     <use xlink:href="#me3e2a037b8" x="410.118523" y="232.289059" style="stroke: #ffffff; stroke-width: 0.75"/>
    </g>
   </g>
   <g id="line2d_26">
    <path d="M 85.463977 191.107893 
L 108.653588 237.386843 
L 131.843198 247.39503 
L 155.032808 174.155622 
L 178.222419 58.077304 
L 201.412029 20.233742 
L 224.60164 44.517472 
L 247.79125 77.851716 
L 270.98086 114.59606 
L 294.170471 157.713012 
L 317.360081 197.642146 
L 340.549692 233.494331 
L 363.739302 259.701652 
L 386.928912 257.7276 
L 410.118523 230.822734 
" clip-path="url(#p63ffa110de)" style="fill: none; stroke: #8b0000; stroke-width: 1.5; stroke-linecap: square"/>
    <defs>
     <path id="m56377001e8" d="M 0 4 
C 1.060812 4 2.078319 3.578535 2.828427 2.828427 
C 3.578535 2.078319 4 1.060812 4 0 
C 4 -1.060812 3.578535 -2.078319 2.828427 -2.828427 
C 2.078319 -3.578535 1.060812 -4 0 -4 
C -1.060812 -4 -2.078319 -3.578535 -2.828427 -2.828427 
C -3.578535 -2.078319 -4 -1.060812 -4 0 
C -4 1.060812 -3.578535 2.078319 -2.828427 2.828427 
C -2.078319 3.578535 -1.060812 4 0 4 
z
" style="stroke: #ffffff; stroke-width: 0.75"/>
    </defs>
    <g clip-path="url(#p63ffa110de)">
     <use xlink:href="#m56377001e8" x="85.463977" y="191.107893" style="fill: #8b0000; stroke: #ffffff; stroke-width: 0.75"/>
     <use xlink:href="#m56377001e8" x="108.653588" y="237.386843" style="fill: #8b0000; stroke: #ffffff; stroke-width: 0.75"/>
     <use xlink:href="#m56377001e8" x="131.843198" y="247.39503" style="fill: #8b0000; stroke: #ffffff; stroke-width: 0.75"/>
     <use xlink:href="#m56377001e8" x="155.032808" y="174.155622" style="fill: #8b0000; stroke: #ffffff; stroke-width: 0.75"/>
     <use xlink:href="#m56377001e8" x="178.222419" y="58.077304" style="fill: #8b0000; stroke: #ffffff; stroke-width: 0.75"/>
     <use xlink:href="#m56377001e8" x="201.412029" y="20.233742" style="fill: #8b0000; stroke: #ffffff; stroke-width: 0.75"/>
     <use xlink:href="#m56377001e8" x="224.60164" y="44.517472" style="fill: #8b0000; stroke: #ffffff; stroke-width: 0.75"/>
     <use xlink:href="#m56377001e8" x="247.79125" y="77.851716" style="fill: #8b0000; stroke: #ffffff; stroke-width: 0.75"/>
     <use xlink:href="#m56377001e8" x="270.98086" y="114.59606" style="fill: #8b0000; stroke: #ffffff; stroke-width: 0.75"/>
     <use xlink:href="#m56377001e8" x="294.170471" y="157.713012" style="fill: #8b0000; stroke: #ffffff; stroke-width: 0.75"/>
     <use xlink:href="#m56377001e8" x="317.360081" y="197.642146" style="fill: #8b0000; stroke: #ffffff; stroke-width: 0.75"/>
     <use xlink:href="#m56377001e8" x="340.549692" y="233.494331" style="fill: #8b0000; stroke: #ffffff; stroke-width: 0.75"/>
     <use xlink:href="#m56377001e8" x="363.739302" y="259.701652" style="fill: #8b0000; stroke: #ffffff; stroke-width: 0.75"/>
     <use xlink:href="#m56377001e8" x="386.928912" y="257.7276" style="fill: #8b0000; stroke: #ffffff; stroke-width: 0.75"/>
     <use xlink:href="#m56377001e8" x="410.118523" y="230.822734" style="fill: #8b0000; stroke: #ffffff; stroke-width: 0.75"/>
    </g>
   </g>
   <g id="line2d_27">
    <path d="M 85.463977 181.662267 
L 108.653588 232.67181 
L 131.843198 244.229079 
L 155.032808 172.106382 
L 178.222419 57.028211 
L 201.412029 19.462523 
L 224.60164 43.938007 
L 247.79125 77.444997 
L 270.98086 114.310532 
L 294.170471 157.576597 
L 317.360081 197.502872 
L 340.549692 233.407117 
L 363.739302 258.923705 
L 386.928912 256.873961 
L 410.118523 230.065139 
" clip-path="url(#p63ffa110de)" style="fill: none; stroke: #556b2f; stroke-width: 1.5; stroke-linecap: square"/>
    <defs>
     <path id="m52e2e1c7a3" d="M 0 4 
C 1.060812 4 2.078319 3.578535 2.828427 2.828427 
C 3.578535 2.078319 4 1.060812 4 0 
C 4 -1.060812 3.578535 -2.078319 2.828427 -2.828427 
C 2.078319 -3.578535 1.060812 -4 0 -4 
C -1.060812 -4 -2.078319 -3.578535 -2.828427 -2.828427 
C -3.578535 -2.078319 -4 -1.060812 -4 0 
C -4 1.060812 -3.578535 2.078319 -2.828427 2.828427 
C -2.078319 3.578535 -1.060812 4 0 4 
z
" style="stroke: #ffffff; stroke-width: 0.75"/>
    </defs>
    <g clip-path="url(#p63ffa110de)">
     <use xlink:href="#m52e2e1c7a3" x="85.463977" y="181.662267" style="fill: #556b2f; stroke: #ffffff; stroke-width: 0.75"/>
     <use xlink:href="#m52e2e1c7a3" x="108.653588" y="232.67181" style="fill: #556b2f; stroke: #ffffff; stroke-width: 0.75"/>
     <use xlink:href="#m52e2e1c7a3" x="131.843198" y="244.229079" style="fill: #556b2f; stroke: #ffffff; stroke-width: 0.75"/>
     <use xlink:href="#m52e2e1c7a3" x="155.032808" y="172.106382" style="fill: #556b2f; stroke: #ffffff; stroke-width: 0.75"/>
     <use xlink:href="#m52e2e1c7a3" x="178.222419" y="57.028211" style="fill: #556b2f; stroke: #ffffff; stroke-width: 0.75"/>
     <use xlink:href="#m52e2e1c7a3" x="201.412029" y="19.462523" style="fill: #556b2f; stroke: #ffffff; stroke-width: 0.75"/>
     <use xlink:href="#m52e2e1c7a3" x="224.60164" y="43.938007" style="fill: #556b2f; stroke: #ffffff; stroke-width: 0.75"/>
     <use xlink:href="#m52e2e1c7a3" x="247.79125" y="77.444997" style="fill: #556b2f; stroke: #ffffff; stroke-width: 0.75"/>
     <use xlink:href="#m52e2e1c7a3" x="270.98086" y="114.310532" style="fill: #556b2f; stroke: #ffffff; stroke-width: 0.75"/>
     <use xlink:href="#m52e2e1c7a3" x="294.170471" y="157.576597" style="fill: #556b2f; stroke: #ffffff; stroke-width: 0.75"/>
     <use xlink:href="#m52e2e1c7a3" x="317.360081" y="197.502872" style="fill: #556b2f; stroke: #ffffff; stroke-width: 0.75"/>
     <use xlink:href="#m52e2e1c7a3" x="340.549692" y="233.407117" style="fill: #556b2f; stroke: #ffffff; stroke-width: 0.75"/>
     <use xlink:href="#m52e2e1c7a3" x="363.739302" y="258.923705" style="fill: #556b2f; stroke: #ffffff; stroke-width: 0.75"/>
     <use xlink:href="#m52e2e1c7a3" x="386.928912" y="256.873961" style="fill: #556b2f; stroke: #ffffff; stroke-width: 0.75"/>
     <use xlink:href="#m52e2e1c7a3" x="410.118523" y="230.065139" style="fill: #556b2f; stroke: #ffffff; stroke-width: 0.75"/>
    </g>
   </g>
   <g id="line2d_28"/>
   <g id="line2d_29"/>
   <g id="line2d_30"/>
   <g id="line2d_31"/>
   <g id="line2d_32"/>
   <g id="line2d_33"/>
   <g id="patch_3">
    <path d="M 69.23125 273.312 
L 69.23125 7.2 
" style="fill: none; stroke: #000000; stroke-width: 0.8; stroke-linejoin: miter; stroke-linecap: square"/>
   </g>
   <g id="patch_4">
    <path d="M 426.35125 273.312 
L 426.35125 7.2 
" style="fill: none; stroke: #000000; stroke-width: 0.8; stroke-linejoin: miter; stroke-linecap: square"/>
   </g>
   <g id="patch_5">
    <path d="M 69.23125 273.312 
L 426.35125 273.312 
" style="fill: none; stroke: #000000; stroke-width: 0.8; stroke-linejoin: miter; stroke-linecap: square"/>
   </g>
   <g id="patch_6">
    <path d="M 69.23125 7.2 
L 426.35125 7.2 
" style="fill: none; stroke: #000000; stroke-width: 0.8; stroke-linejoin: miter; stroke-linecap: square"/>
   </g>
   <g id="legend_1">
    <g id="patch_7">
     <path d="M 371.91625 69.64125 
L 417.95125 69.64125 
Q 420.35125 69.64125 420.35125 67.24125 
L 420.35125 15.6 
Q 420.35125 13.2 417.95125 13.2 
L 371.91625 13.2 
Q 369.51625 13.2 369.51625 15.6 
L 369.51625 67.24125 
Q 369.51625 69.64125 371.91625 69.64125 
z
" style="fill: #ffffff; opacity: 0.8; stroke: #cccccc; stroke-linejoin: miter"/>
    </g>
    <g id="line2d_34">
     <path d="M 374.31625 22.918125 
L 386.31625 22.918125 
L 398.31625 22.918125 
" style="fill: none; stroke: #000000; stroke-width: 1.5; stroke-linecap: square"/>
    </g>
    <g id="text_15">
     <!-- 1 -->
     <g transform="translate(407.91625 27.118125) scale(0.12 -0.12)">
      <use xlink:href="#DejaVuSans-31"/>
     </g>
    </g>
    <g id="line2d_35">
     <path d="M 374.31625 40.531875 
L 386.31625 40.531875 
L 398.31625 40.531875 
" style="fill: none; stroke: #8b0000; stroke-width: 1.5; stroke-linecap: square"/>
    </g>
    <g id="text_16">
     <!-- 2 -->
     <g transform="translate(407.91625 44.731875) scale(0.12 -0.12)">
      <use xlink:href="#DejaVuSans-32"/>
     </g>
    </g>
    <g id="line2d_36">
     <path d="M 374.31625 58.145625 
L 386.31625 58.145625 
L 398.31625 58.145625 
" style="fill: none; stroke: #556b2f; stroke-width: 1.5; stroke-linecap: square"/>
    </g>
    <g id="text_17">
     <!-- 3 -->
     <g transform="translate(407.91625 62.345625) scale(0.12 -0.12)">
      <defs>
       <path id="DejaVuSans-33" d="M 2597 2516 
Q 3050 2419 3304 2112 
Q 3559 1806 3559 1356 
Q 3559 666 3084 287 
Q 2609 -91 1734 -91 
Q 1441 -91 1130 -33 
Q 819 25 488 141 
L 488 750 
Q 750 597 1062 519 
Q 1375 441 1716 441 
Q 2309 441 2620 675 
Q 2931 909 2931 1356 
Q 2931 1769 2642 2001 
Q 2353 2234 1838 2234 
L 1294 2234 
L 1294 2753 
L 1863 2753 
Q 2328 2753 2575 2939 
Q 2822 3125 2822 3475 
Q 2822 3834 2567 4026 
Q 2313 4219 1838 4219 
Q 1578 4219 1281 4162 
Q 984 4106 628 3988 
L 628 4550 
Q 988 4650 1302 4700 
Q 1616 4750 1894 4750 
Q 2613 4750 3031 4423 
Q 3450 4097 3450 3541 
Q 3450 3153 3228 2886 
Q 3006 2619 2597 2516 
z
" transform="scale(0.015625)"/>
      </defs>
      <use xlink:href="#DejaVuSans-33"/>
     </g>
    </g>
   </g>
  </g>
 </g>
 <defs>
  <clipPath id="p63ffa110de">
   <rect x="69.23125" y="7.2" width="357.12" height="266.112"/>
  </clipPath>
 </defs>
</svg>
