<?xml version="1.0" encoding="utf-8" standalone="no"?>
<!DOCTYPE svg PUBLIC "-//W3C//DTD SVG 1.1//EN"
  "http://www.w3.org/Graphics/SVG/1.1/DTD/svg11.dtd">
<svg xmlns:xlink="http://www.w3.org/1999/xlink" width="427.18875pt" height="310.86825pt" viewBox="0 0 427.18875 310.86825" xmlns="http://www.w3.org/2000/svg" version="1.1">
 <metadata>
  <rdf:RDF xmlns:dc="http://purl.org/dc/elements/1.1/" xmlns:cc="http://creativecommons.org/ns#" xmlns:rdf="http://www.w3.org/1999/02/22-rdf-syntax-ns#">
   <cc:Work>
    <dc:type rdf:resource="http://purl.org/dc/dcmitype/StillImage"/>
    <dc:date>2025-02-19T19:59:29.531199</dc:date>
    <dc:format>image/svg+xml</dc:format>
    <dc:creator>
     <cc:Agent>
      <dc:title>Matplotlib v3.9.2, https://matplotlib.org/</dc:title>
     </cc:Agent>
    </dc:creator>
   </cc:Work>
  </rdf:RDF>
 </metadata>
 <defs>
  <style type="text/css">*{stroke-linejoin: round; stroke-linecap: butt}</style>
 </defs>
 <g id="figure_1">
  <g id="patch_1">
   <path d="M 0 310.86825 
L 427.18875 310.86825 
L 427.18875 0 
L 0 0 
z
" style="fill: #ffffff"/>
  </g>
  <g id="axes_1">
   <g id="patch_2">
    <path d="M 62.86875 273.312 
L 419.98875 273.312 
L 419.98875 7.2 
L 62.86875 7.2 
z
" style="fill: #ffffff"/>
   </g>
   <g id="PolyCollection_1">
    <defs>
     <path id="me2d6fc1a11" d="M 79.101477 -49.658792 
L 79.101477 -49.65225 
L 95.334205 -49.65225 
L 111.566932 -49.65225 
L 127.799659 -49.65244 
L 144.032386 -52.259139 
L 160.265114 -57.725466 
L 176.497841 -58.433137 
L 192.730568 -66.693977 
L 208.963295 -76.684857 
L 225.196023 -76.684857 
L 241.42875 -76.684857 
L 257.661477 -76.709884 
L 273.894205 -77.976131 
L 290.126932 -94.369521 
L 306.359659 -94.101757 
L 322.592386 -109.577259 
L 338.825114 -109.577259 
L 355.057841 -109.577259 
L 371.290568 -109.784167 
L 387.523295 -111.788208 
L 403.756023 -123.552678 
L 403.756023 -123.619999 
L 403.756023 -123.619999 
L 387.523295 -111.825102 
L 371.290568 -109.813073 
L 355.057841 -109.603123 
L 338.825114 -109.603123 
L 322.592386 -109.603123 
L 306.359659 -94.191899 
L 290.126932 -94.761657 
L 273.894205 -78.094837 
L 257.661477 -76.735367 
L 241.42875 -76.694138 
L 225.196023 -76.694138 
L 208.963295 -76.694138 
L 192.730568 -66.740684 
L 176.497841 -58.462766 
L 160.265114 -57.738207 
L 144.032386 -52.288083 
L 127.799659 -49.658792 
L 111.566932 -49.658792 
L 95.334205 -49.658792 
L 79.101477 -49.658792 
z
" style="stroke: #000000; stroke-opacity: 0.2"/>
    </defs>
    <g clip-path="url(#p82c9ece2df)">
     <use xlink:href="#me2d6fc1a11" x="0" y="310.86825" style="fill-opacity: 0.2; stroke: #000000; stroke-opacity: 0.2"/>
    </g>
   </g>
   <g id="PolyCollection_2">
    <defs>
     <path id="m1fc613754c" d="M 79.101477 -49.887342 
L 79.101477 -49.872166 
L 95.334205 -49.872166 
L 111.566932 -49.872166 
L 127.799659 -49.872166 
L 144.032386 -52.436342 
L 160.265114 -57.98585 
L 176.497841 -58.660393 
L 192.730568 -66.994108 
L 208.963295 -77.015073 
L 225.196023 -77.015073 
L 241.42875 -77.015073 
L 257.661477 -77.044854 
L 273.894205 -78.285161 
L 290.126932 -94.719058 
L 306.359659 -94.395004 
L 322.592386 -109.991456 
L 338.825114 -109.991456 
L 355.057841 -109.991456 
L 371.290568 -110.180107 
L 387.523295 -112.15334 
L 403.756023 -124.091628 
L 403.756023 -124.131184 
L 403.756023 -124.131184 
L 387.523295 -112.215717 
L 371.290568 -110.258839 
L 355.057841 -110.002105 
L 338.825114 -110.002105 
L 322.592386 -110.002105 
L 306.359659 -94.692814 
L 290.126932 -95.115378 
L 273.894205 -78.357579 
L 257.661477 -77.063149 
L 241.42875 -77.042002 
L 225.196023 -77.042002 
L 208.963295 -77.042002 
L 192.730568 -67.030849 
L 176.497841 -58.706314 
L 160.265114 -57.996842 
L 144.032386 -52.477723 
L 127.799659 -49.889395 
L 111.566932 -49.887342 
L 95.334205 -49.887342 
L 79.101477 -49.887342 
z
" style="stroke: #8b0000; stroke-opacity: 0.2"/>
    </defs>
    <g clip-path="url(#p82c9ece2df)">
     <use xlink:href="#m1fc613754c" x="0" y="310.86825" style="fill: #8b0000; fill-opacity: 0.2; stroke: #8b0000; stroke-opacity: 0.2"/>
    </g>
   </g>
   <g id="PolyCollection_3">
    <defs>
     <path id="m3db5cec718" d="M 79.101477 -50.002168 
L 79.101477 -49.994979 
L 95.334205 -49.994979 
L 111.566932 -52.633323 
L 127.799659 -58.677851 
L 144.032386 -77.192429 
L 160.265114 -77.192429 
L 176.497841 -77.336199 
L 192.730568 -89.667688 
L 208.963295 -110.208253 
L 225.196023 -110.209013 
L 241.42875 -111.993595 
L 257.661477 -125.217451 
L 273.894205 -142.028346 
L 290.126932 -150.113733 
L 306.359659 -193.160107 
L 322.592386 -193.160107 
L 338.825114 -193.169996 
L 355.057841 -193.459059 
L 371.290568 -194.595912 
L 387.523295 -291.430761 
L 403.756023 -291.430761 
L 403.756023 -291.57225 
L 403.756023 -291.57225 
L 387.523295 -291.57225 
L 371.290568 -194.950774 
L 355.057841 -193.543115 
L 338.825114 -193.254053 
L 322.592386 -193.205368 
L 306.359659 -193.205368 
L 290.126932 -150.592588 
L 273.894205 -142.07627 
L 257.661477 -125.33726 
L 241.42875 -112.020599 
L 225.196023 -110.245146 
L 208.963295 -110.245146 
L 192.730568 -89.847592 
L 176.497841 -77.34354 
L 160.265114 -77.198134 
L 144.032386 -77.198134 
L 127.799659 -58.726878 
L 111.566932 -52.651389 
L 95.334205 -50.002168 
L 79.101477 -50.002168 
z
" style="stroke: #556b2f; stroke-opacity: 0.2"/>
    </defs>
    <g clip-path="url(#p82c9ece2df)">
     <use xlink:href="#m3db5cec718" x="0" y="310.86825" style="fill: #556b2f; fill-opacity: 0.2; stroke: #556b2f; stroke-opacity: 0.2"/>
    </g>
   </g>
   <g id="matplotlib.axis_1">
    <g id="xtick_1">
     <g id="line2d_1">
      <path d="M 70.985114 273.312 
L 70.985114 7.2 
" clip-path="url(#p82c9ece2df)" style="fill: none; stroke-dasharray: 1.85,0.8; stroke-dashoffset: 0; stroke: #ffffff; stroke-width: 0.5"/>
     </g>
     <g id="line2d_2">
      <defs>
       <path id="mae82a57586" d="M 0 0 
L 0 3.5 
" style="stroke: #000000; stroke-width: 0.8"/>
      </defs>
      <g>
       <use xlink:href="#mae82a57586" x="70.985114" y="273.312" style="stroke: #000000; stroke-width: 0.8"/>
      </g>
     </g>
     <g id="text_1">
      <!-- 0 -->
      <g transform="translate(67.803864 287.910437) scale(0.1 -0.1)">
       <defs>
        <path id="DejaVuSans-30" d="M 2034 4250 
Q 1547 4250 1301 3770 
Q 1056 3291 1056 2328 
Q 1056 1369 1301 889 
Q 1547 409 2034 409 
Q 2525 409 2770 889 
Q 3016 1369 3016 2328 
Q 3016 3291 2770 3770 
Q 2525 4250 2034 4250 
z
M 2034 4750 
Q 2819 4750 3233 4129 
Q 3647 3509 3647 2328 
Q 3647 1150 3233 529 
Q 2819 -91 2034 -91 
Q 1250 -91 836 529 
Q 422 1150 422 2328 
Q 422 3509 836 4129 
Q 1250 4750 2034 4750 
z
" transform="scale(0.015625)"/>
       </defs>
       <use xlink:href="#DejaVuSans-30"/>
      </g>
     </g>
    </g>
    <g id="xtick_2">
     <g id="line2d_3">
      <path d="M 111.566932 273.312 
L 111.566932 7.2 
" clip-path="url(#p82c9ece2df)" style="fill: none; stroke-dasharray: 1.85,0.8; stroke-dashoffset: 0; stroke: #ffffff; stroke-width: 0.5"/>
     </g>
     <g id="line2d_4">
      <g>
       <use xlink:href="#mae82a57586" x="111.566932" y="273.312" style="stroke: #000000; stroke-width: 0.8"/>
      </g>
     </g>
     <g id="text_2">
      <!-- 5 -->
      <g transform="translate(108.385682 287.910437) scale(0.1 -0.1)">
       <defs>
        <path id="DejaVuSans-35" d="M 691 4666 
L 3169 4666 
L 3169 4134 
L 1269 4134 
L 1269 2991 
Q 1406 3038 1543 3061 
Q 1681 3084 1819 3084 
Q 2600 3084 3056 2656 
Q 3513 2228 3513 1497 
Q 3513 744 3044 326 
Q 2575 -91 1722 -91 
Q 1428 -91 1123 -41 
Q 819 9 494 109 
L 494 744 
Q 775 591 1075 516 
Q 1375 441 1709 441 
Q 2250 441 2565 725 
Q 2881 1009 2881 1497 
Q 2881 1984 2565 2268 
Q 2250 2553 1709 2553 
Q 1456 2553 1204 2497 
Q 953 2441 691 2322 
L 691 4666 
z
" transform="scale(0.015625)"/>
       </defs>
       <use xlink:href="#DejaVuSans-35"/>
      </g>
     </g>
    </g>
    <g id="xtick_3">
     <g id="line2d_5">
      <path d="M 152.14875 273.312 
L 152.14875 7.2 
" clip-path="url(#p82c9ece2df)" style="fill: none; stroke-dasharray: 1.85,0.8; stroke-dashoffset: 0; stroke: #ffffff; stroke-width: 0.5"/>
     </g>
     <g id="line2d_6">
      <g>
       <use xlink:href="#mae82a57586" x="152.14875" y="273.312" style="stroke: #000000; stroke-width: 0.8"/>
      </g>
     </g>
     <g id="text_3">
      <!-- 10 -->
      <g transform="translate(145.78625 287.910437) scale(0.1 -0.1)">
       <defs>
        <path id="DejaVuSans-31" d="M 794 531 
L 1825 531 
L 1825 4091 
L 703 3866 
L 703 4441 
L 1819 4666 
L 2450 4666 
L 2450 531 
L 3481 531 
L 3481 0 
L 794 0 
L 794 531 
z
" transform="scale(0.015625)"/>
       </defs>
       <use xlink:href="#DejaVuSans-31"/>
       <use xlink:href="#DejaVuSans-30" x="63.623047"/>
      </g>
     </g>
    </g>
    <g id="xtick_4">
     <g id="line2d_7">
      <path d="M 192.730568 273.312 
L 192.730568 7.2 
" clip-path="url(#p82c9ece2df)" style="fill: none; stroke-dasharray: 1.85,0.8; stroke-dashoffset: 0; stroke: #ffffff; stroke-width: 0.5"/>
     </g>
     <g id="line2d_8">
      <g>
       <use xlink:href="#mae82a57586" x="192.730568" y="273.312" style="stroke: #000000; stroke-width: 0.8"/>
      </g>
     </g>
     <g id="text_4">
      <!-- 15 -->
      <g transform="translate(186.368068 287.910437) scale(0.1 -0.1)">
       <use xlink:href="#DejaVuSans-31"/>
       <use xlink:href="#DejaVuSans-35" x="63.623047"/>
      </g>
     </g>
    </g>
    <g id="xtick_5">
     <g id="line2d_9">
      <path d="M 233.312386 273.312 
L 233.312386 7.2 
" clip-path="url(#p82c9ece2df)" style="fill: none; stroke-dasharray: 1.85,0.8; stroke-dashoffset: 0; stroke: #ffffff; stroke-width: 0.5"/>
     </g>
     <g id="line2d_10">
      <g>
       <use xlink:href="#mae82a57586" x="233.312386" y="273.312" style="stroke: #000000; stroke-width: 0.8"/>
      </g>
     </g>
     <g id="text_5">
      <!-- 20 -->
      <g transform="translate(226.949886 287.910437) scale(0.1 -0.1)">
       <defs>
        <path id="DejaVuSans-32" d="M 1228 531 
L 3431 531 
L 3431 0 
L 469 0 
L 469 531 
Q 828 903 1448 1529 
Q 2069 2156 2228 2338 
Q 2531 2678 2651 2914 
Q 2772 3150 2772 3378 
Q 2772 3750 2511 3984 
Q 2250 4219 1831 4219 
Q 1534 4219 1204 4116 
Q 875 4013 500 3803 
L 500 4441 
Q 881 4594 1212 4672 
Q 1544 4750 1819 4750 
Q 2544 4750 2975 4387 
Q 3406 4025 3406 3419 
Q 3406 3131 3298 2873 
Q 3191 2616 2906 2266 
Q 2828 2175 2409 1742 
Q 1991 1309 1228 531 
z
" transform="scale(0.015625)"/>
       </defs>
       <use xlink:href="#DejaVuSans-32"/>
       <use xlink:href="#DejaVuSans-30" x="63.623047"/>
      </g>
     </g>
    </g>
    <g id="xtick_6">
     <g id="line2d_11">
      <path d="M 273.894205 273.312 
L 273.894205 7.2 
" clip-path="url(#p82c9ece2df)" style="fill: none; stroke-dasharray: 1.85,0.8; stroke-dashoffset: 0; stroke: #ffffff; stroke-width: 0.5"/>
     </g>
     <g id="line2d_12">
      <g>
       <use xlink:href="#mae82a57586" x="273.894205" y="273.312" style="stroke: #000000; stroke-width: 0.8"/>
      </g>
     </g>
     <g id="text_6">
      <!-- 25 -->
      <g transform="translate(267.531705 287.910437) scale(0.1 -0.1)">
       <use xlink:href="#DejaVuSans-32"/>
       <use xlink:href="#DejaVuSans-35" x="63.623047"/>
      </g>
     </g>
    </g>
    <g id="xtick_7">
     <g id="line2d_13">
      <path d="M 314.476023 273.312 
L 314.476023 7.2 
" clip-path="url(#p82c9ece2df)" style="fill: none; stroke-dasharray: 1.85,0.8; stroke-dashoffset: 0; stroke: #ffffff; stroke-width: 0.5"/>
     </g>
     <g id="line2d_14">
      <g>
       <use xlink:href="#mae82a57586" x="314.476023" y="273.312" style="stroke: #000000; stroke-width: 0.8"/>
      </g>
     </g>
     <g id="text_7">
      <!-- 30 -->
      <g transform="translate(308.113523 287.910437) scale(0.1 -0.1)">
       <defs>
        <path id="DejaVuSans-33" d="M 2597 2516 
Q 3050 2419 3304 2112 
Q 3559 1806 3559 1356 
Q 3559 666 3084 287 
Q 2609 -91 1734 -91 
Q 1441 -91 1130 -33 
Q 819 25 488 141 
L 488 750 
Q 750 597 1062 519 
Q 1375 441 1716 441 
Q 2309 441 2620 675 
Q 2931 909 2931 1356 
Q 2931 1769 2642 2001 
Q 2353 2234 1838 2234 
L 1294 2234 
L 1294 2753 
L 1863 2753 
Q 2328 2753 2575 2939 
Q 2822 3125 2822 3475 
Q 2822 3834 2567 4026 
Q 2313 4219 1838 4219 
Q 1578 4219 1281 4162 
Q 984 4106 628 3988 
L 628 4550 
Q 988 4650 1302 4700 
Q 1616 4750 1894 4750 
Q 2613 4750 3031 4423 
Q 3450 4097 3450 3541 
Q 3450 3153 3228 2886 
Q 3006 2619 2597 2516 
z
" transform="scale(0.015625)"/>
       </defs>
       <use xlink:href="#DejaVuSans-33"/>
       <use xlink:href="#DejaVuSans-30" x="63.623047"/>
      </g>
     </g>
    </g>
    <g id="xtick_8">
     <g id="line2d_15">
      <path d="M 355.057841 273.312 
L 355.057841 7.2 
" clip-path="url(#p82c9ece2df)" style="fill: none; stroke-dasharray: 1.85,0.8; stroke-dashoffset: 0; stroke: #ffffff; stroke-width: 0.5"/>
     </g>
     <g id="line2d_16">
      <g>
       <use xlink:href="#mae82a57586" x="355.057841" y="273.312" style="stroke: #000000; stroke-width: 0.8"/>
      </g>
     </g>
     <g id="text_8">
      <!-- 35 -->
      <g transform="translate(348.695341 287.910437) scale(0.1 -0.1)">
       <use xlink:href="#DejaVuSans-33"/>
       <use xlink:href="#DejaVuSans-35" x="63.623047"/>
      </g>
     </g>
    </g>
    <g id="xtick_9">
     <g id="line2d_17">
      <path d="M 395.639659 273.312 
L 395.639659 7.2 
" clip-path="url(#p82c9ece2df)" style="fill: none; stroke-dasharray: 1.85,0.8; stroke-dashoffset: 0; stroke: #ffffff; stroke-width: 0.5"/>
     </g>
     <g id="line2d_18">
      <g>
       <use xlink:href="#mae82a57586" x="395.639659" y="273.312" style="stroke: #000000; stroke-width: 0.8"/>
      </g>
     </g>
     <g id="text_9">
      <!-- 40 -->
      <g transform="translate(389.277159 287.910437) scale(0.1 -0.1)">
       <defs>
        <path id="DejaVuSans-34" d="M 2419 4116 
L 825 1625 
L 2419 1625 
L 2419 4116 
z
M 2253 4666 
L 3047 4666 
L 3047 1625 
L 3713 1625 
L 3713 1100 
L 3047 1100 
L 3047 0 
L 2419 0 
L 2419 1100 
L 313 1100 
L 313 1709 
L 2253 4666 
z
" transform="scale(0.015625)"/>
       </defs>
       <use xlink:href="#DejaVuSans-34"/>
       <use xlink:href="#DejaVuSans-30" x="63.623047"/>
      </g>
     </g>
    </g>
    <g id="text_10">
     <!-- Distance beetwen AP and STAs [m] -->
     <g transform="translate(153.519375 301.588562) scale(0.1 -0.1)">
      <defs>
       <path id="DejaVuSans-44" d="M 1259 4147 
L 1259 519 
L 2022 519 
Q 2988 519 3436 956 
Q 3884 1394 3884 2338 
Q 3884 3275 3436 3711 
Q 2988 4147 2022 4147 
L 1259 4147 
z
M 628 4666 
L 1925 4666 
Q 3281 4666 3915 4102 
Q 4550 3538 4550 2338 
Q 4550 1131 3912 565 
Q 3275 0 1925 0 
L 628 0 
L 628 4666 
z
" transform="scale(0.015625)"/>
       <path id="DejaVuSans-69" d="M 603 3500 
L 1178 3500 
L 1178 0 
L 603 0 
L 603 3500 
z
M 603 4863 
L 1178 4863 
L 1178 4134 
L 603 4134 
L 603 4863 
z
" transform="scale(0.015625)"/>
       <path id="DejaVuSans-73" d="M 2834 3397 
L 2834 2853 
Q 2591 2978 2328 3040 
Q 2066 3103 1784 3103 
Q 1356 3103 1142 2972 
Q 928 2841 928 2578 
Q 928 2378 1081 2264 
Q 1234 2150 1697 2047 
L 1894 2003 
Q 2506 1872 2764 1633 
Q 3022 1394 3022 966 
Q 3022 478 2636 193 
Q 2250 -91 1575 -91 
Q 1294 -91 989 -36 
Q 684 19 347 128 
L 347 722 
Q 666 556 975 473 
Q 1284 391 1588 391 
Q 1994 391 2212 530 
Q 2431 669 2431 922 
Q 2431 1156 2273 1281 
Q 2116 1406 1581 1522 
L 1381 1569 
Q 847 1681 609 1914 
Q 372 2147 372 2553 
Q 372 3047 722 3315 
Q 1072 3584 1716 3584 
Q 2034 3584 2315 3537 
Q 2597 3491 2834 3397 
z
" transform="scale(0.015625)"/>
       <path id="DejaVuSans-74" d="M 1172 4494 
L 1172 3500 
L 2356 3500 
L 2356 3053 
L 1172 3053 
L 1172 1153 
Q 1172 725 1289 603 
Q 1406 481 1766 481 
L 2356 481 
L 2356 0 
L 1766 0 
Q 1100 0 847 248 
Q 594 497 594 1153 
L 594 3053 
L 172 3053 
L 172 3500 
L 594 3500 
L 594 4494 
L 1172 4494 
z
" transform="scale(0.015625)"/>
       <path id="DejaVuSans-61" d="M 2194 1759 
Q 1497 1759 1228 1600 
Q 959 1441 959 1056 
Q 959 750 1161 570 
Q 1363 391 1709 391 
Q 2188 391 2477 730 
Q 2766 1069 2766 1631 
L 2766 1759 
L 2194 1759 
z
M 3341 1997 
L 3341 0 
L 2766 0 
L 2766 531 
Q 2569 213 2275 61 
Q 1981 -91 1556 -91 
Q 1019 -91 701 211 
Q 384 513 384 1019 
Q 384 1609 779 1909 
Q 1175 2209 1959 2209 
L 2766 2209 
L 2766 2266 
Q 2766 2663 2505 2880 
Q 2244 3097 1772 3097 
Q 1472 3097 1187 3025 
Q 903 2953 641 2809 
L 641 3341 
Q 956 3463 1253 3523 
Q 1550 3584 1831 3584 
Q 2591 3584 2966 3190 
Q 3341 2797 3341 1997 
z
" transform="scale(0.015625)"/>
       <path id="DejaVuSans-6e" d="M 3513 2113 
L 3513 0 
L 2938 0 
L 2938 2094 
Q 2938 2591 2744 2837 
Q 2550 3084 2163 3084 
Q 1697 3084 1428 2787 
Q 1159 2491 1159 1978 
L 1159 0 
L 581 0 
L 581 3500 
L 1159 3500 
L 1159 2956 
Q 1366 3272 1645 3428 
Q 1925 3584 2291 3584 
Q 2894 3584 3203 3211 
Q 3513 2838 3513 2113 
z
" transform="scale(0.015625)"/>
       <path id="DejaVuSans-63" d="M 3122 3366 
L 3122 2828 
Q 2878 2963 2633 3030 
Q 2388 3097 2138 3097 
Q 1578 3097 1268 2742 
Q 959 2388 959 1747 
Q 959 1106 1268 751 
Q 1578 397 2138 397 
Q 2388 397 2633 464 
Q 2878 531 3122 666 
L 3122 134 
Q 2881 22 2623 -34 
Q 2366 -91 2075 -91 
Q 1284 -91 818 406 
Q 353 903 353 1747 
Q 353 2603 823 3093 
Q 1294 3584 2113 3584 
Q 2378 3584 2631 3529 
Q 2884 3475 3122 3366 
z
" transform="scale(0.015625)"/>
       <path id="DejaVuSans-65" d="M 3597 1894 
L 3597 1613 
L 953 1613 
Q 991 1019 1311 708 
Q 1631 397 2203 397 
Q 2534 397 2845 478 
Q 3156 559 3463 722 
L 3463 178 
Q 3153 47 2828 -22 
Q 2503 -91 2169 -91 
Q 1331 -91 842 396 
Q 353 884 353 1716 
Q 353 2575 817 3079 
Q 1281 3584 2069 3584 
Q 2775 3584 3186 3129 
Q 3597 2675 3597 1894 
z
M 3022 2063 
Q 3016 2534 2758 2815 
Q 2500 3097 2075 3097 
Q 1594 3097 1305 2825 
Q 1016 2553 972 2059 
L 3022 2063 
z
" transform="scale(0.015625)"/>
       <path id="DejaVuSans-20" transform="scale(0.015625)"/>
       <path id="DejaVuSans-62" d="M 3116 1747 
Q 3116 2381 2855 2742 
Q 2594 3103 2138 3103 
Q 1681 3103 1420 2742 
Q 1159 2381 1159 1747 
Q 1159 1113 1420 752 
Q 1681 391 2138 391 
Q 2594 391 2855 752 
Q 3116 1113 3116 1747 
z
M 1159 2969 
Q 1341 3281 1617 3432 
Q 1894 3584 2278 3584 
Q 2916 3584 3314 3078 
Q 3713 2572 3713 1747 
Q 3713 922 3314 415 
Q 2916 -91 2278 -91 
Q 1894 -91 1617 61 
Q 1341 213 1159 525 
L 1159 0 
L 581 0 
L 581 4863 
L 1159 4863 
L 1159 2969 
z
" transform="scale(0.015625)"/>
       <path id="DejaVuSans-77" d="M 269 3500 
L 844 3500 
L 1563 769 
L 2278 3500 
L 2956 3500 
L 3675 769 
L 4391 3500 
L 4966 3500 
L 4050 0 
L 3372 0 
L 2619 2869 
L 1863 0 
L 1184 0 
L 269 3500 
z
" transform="scale(0.015625)"/>
       <path id="DejaVuSans-41" d="M 2188 4044 
L 1331 1722 
L 3047 1722 
L 2188 4044 
z
M 1831 4666 
L 2547 4666 
L 4325 0 
L 3669 0 
L 3244 1197 
L 1141 1197 
L 716 0 
L 50 0 
L 1831 4666 
z
" transform="scale(0.015625)"/>
       <path id="DejaVuSans-50" d="M 1259 4147 
L 1259 2394 
L 2053 2394 
Q 2494 2394 2734 2622 
Q 2975 2850 2975 3272 
Q 2975 3691 2734 3919 
Q 2494 4147 2053 4147 
L 1259 4147 
z
M 628 4666 
L 2053 4666 
Q 2838 4666 3239 4311 
Q 3641 3956 3641 3272 
Q 3641 2581 3239 2228 
Q 2838 1875 2053 1875 
L 1259 1875 
L 1259 0 
L 628 0 
L 628 4666 
z
" transform="scale(0.015625)"/>
       <path id="DejaVuSans-64" d="M 2906 2969 
L 2906 4863 
L 3481 4863 
L 3481 0 
L 2906 0 
L 2906 525 
Q 2725 213 2448 61 
Q 2172 -91 1784 -91 
Q 1150 -91 751 415 
Q 353 922 353 1747 
Q 353 2572 751 3078 
Q 1150 3584 1784 3584 
Q 2172 3584 2448 3432 
Q 2725 3281 2906 2969 
z
M 947 1747 
Q 947 1113 1208 752 
Q 1469 391 1925 391 
Q 2381 391 2643 752 
Q 2906 1113 2906 1747 
Q 2906 2381 2643 2742 
Q 2381 3103 1925 3103 
Q 1469 3103 1208 2742 
Q 947 2381 947 1747 
z
" transform="scale(0.015625)"/>
       <path id="DejaVuSans-53" d="M 3425 4513 
L 3425 3897 
Q 3066 4069 2747 4153 
Q 2428 4238 2131 4238 
Q 1616 4238 1336 4038 
Q 1056 3838 1056 3469 
Q 1056 3159 1242 3001 
Q 1428 2844 1947 2747 
L 2328 2669 
Q 3034 2534 3370 2195 
Q 3706 1856 3706 1288 
Q 3706 609 3251 259 
Q 2797 -91 1919 -91 
Q 1588 -91 1214 -16 
Q 841 59 441 206 
L 441 856 
Q 825 641 1194 531 
Q 1563 422 1919 422 
Q 2459 422 2753 634 
Q 3047 847 3047 1241 
Q 3047 1584 2836 1778 
Q 2625 1972 2144 2069 
L 1759 2144 
Q 1053 2284 737 2584 
Q 422 2884 422 3419 
Q 422 4038 858 4394 
Q 1294 4750 2059 4750 
Q 2388 4750 2728 4690 
Q 3069 4631 3425 4513 
z
" transform="scale(0.015625)"/>
       <path id="DejaVuSans-54" d="M -19 4666 
L 3928 4666 
L 3928 4134 
L 2272 4134 
L 2272 0 
L 1638 0 
L 1638 4134 
L -19 4134 
L -19 4666 
z
" transform="scale(0.015625)"/>
       <path id="DejaVuSans-5b" d="M 550 4863 
L 1875 4863 
L 1875 4416 
L 1125 4416 
L 1125 -397 
L 1875 -397 
L 1875 -844 
L 550 -844 
L 550 4863 
z
" transform="scale(0.015625)"/>
       <path id="DejaVuSans-6d" d="M 3328 2828 
Q 3544 3216 3844 3400 
Q 4144 3584 4550 3584 
Q 5097 3584 5394 3201 
Q 5691 2819 5691 2113 
L 5691 0 
L 5113 0 
L 5113 2094 
Q 5113 2597 4934 2840 
Q 4756 3084 4391 3084 
Q 3944 3084 3684 2787 
Q 3425 2491 3425 1978 
L 3425 0 
L 2847 0 
L 2847 2094 
Q 2847 2600 2669 2842 
Q 2491 3084 2119 3084 
Q 1678 3084 1418 2786 
Q 1159 2488 1159 1978 
L 1159 0 
L 581 0 
L 581 3500 
L 1159 3500 
L 1159 2956 
Q 1356 3278 1631 3431 
Q 1906 3584 2284 3584 
Q 2666 3584 2933 3390 
Q 3200 3197 3328 2828 
z
" transform="scale(0.015625)"/>
       <path id="DejaVuSans-5d" d="M 1947 4863 
L 1947 -844 
L 622 -844 
L 622 -397 
L 1369 -397 
L 1369 4416 
L 622 4416 
L 622 4863 
L 1947 4863 
z
" transform="scale(0.015625)"/>
      </defs>
      <use xlink:href="#DejaVuSans-44"/>
      <use xlink:href="#DejaVuSans-69" x="77.001953"/>
      <use xlink:href="#DejaVuSans-73" x="104.785156"/>
      <use xlink:href="#DejaVuSans-74" x="156.884766"/>
      <use xlink:href="#DejaVuSans-61" x="196.09375"/>
      <use xlink:href="#DejaVuSans-6e" x="257.373047"/>
      <use xlink:href="#DejaVuSans-63" x="320.751953"/>
      <use xlink:href="#DejaVuSans-65" x="375.732422"/>
      <use xlink:href="#DejaVuSans-20" x="437.255859"/>
      <use xlink:href="#DejaVuSans-62" x="469.042969"/>
      <use xlink:href="#DejaVuSans-65" x="532.519531"/>
      <use xlink:href="#DejaVuSans-65" x="594.042969"/>
      <use xlink:href="#DejaVuSans-74" x="655.566406"/>
      <use xlink:href="#DejaVuSans-77" x="694.775391"/>
      <use xlink:href="#DejaVuSans-65" x="776.5625"/>
      <use xlink:href="#DejaVuSans-6e" x="838.085938"/>
      <use xlink:href="#DejaVuSans-20" x="901.464844"/>
      <use xlink:href="#DejaVuSans-41" x="933.251953"/>
      <use xlink:href="#DejaVuSans-50" x="1001.660156"/>
      <use xlink:href="#DejaVuSans-20" x="1061.962891"/>
      <use xlink:href="#DejaVuSans-61" x="1093.75"/>
      <use xlink:href="#DejaVuSans-6e" x="1155.029297"/>
      <use xlink:href="#DejaVuSans-64" x="1218.408203"/>
      <use xlink:href="#DejaVuSans-20" x="1281.884766"/>
      <use xlink:href="#DejaVuSans-53" x="1313.671875"/>
      <use xlink:href="#DejaVuSans-54" x="1377.148438"/>
      <use xlink:href="#DejaVuSans-41" x="1430.482422"/>
      <use xlink:href="#DejaVuSans-73" x="1498.890625"/>
      <use xlink:href="#DejaVuSans-20" x="1550.990234"/>
      <use xlink:href="#DejaVuSans-5b" x="1582.777344"/>
      <use xlink:href="#DejaVuSans-6d" x="1621.791016"/>
      <use xlink:href="#DejaVuSans-5d" x="1719.203125"/>
     </g>
    </g>
   </g>
   <g id="matplotlib.axis_2">
    <g id="ytick_1">
     <g id="line2d_19">
      <path d="M 62.86875 266.72755 
L 419.98875 266.72755 
" clip-path="url(#p82c9ece2df)" style="fill: none; stroke-dasharray: 1.85,0.8; stroke-dashoffset: 0; stroke: #ffffff; stroke-width: 0.5"/>
     </g>
     <g id="line2d_20">
      <defs>
       <path id="m161fd3194e" d="M 0 0 
L -3.5 0 
" style="stroke: #000000; stroke-width: 0.8"/>
      </defs>
      <g>
       <use xlink:href="#m161fd3194e" x="62.86875" y="266.72755" style="stroke: #000000; stroke-width: 0.8"/>
      </g>
     </g>
     <g id="text_11">
      <!-- 0.0000 -->
      <g transform="translate(20.878125 270.526769) scale(0.1 -0.1)">
       <defs>
        <path id="DejaVuSans-2e" d="M 684 794 
L 1344 794 
L 1344 0 
L 684 0 
L 684 794 
z
" transform="scale(0.015625)"/>
       </defs>
       <use xlink:href="#DejaVuSans-30"/>
       <use xlink:href="#DejaVuSans-2e" x="63.623047"/>
       <use xlink:href="#DejaVuSans-30" x="95.410156"/>
       <use xlink:href="#DejaVuSans-30" x="159.033203"/>
       <use xlink:href="#DejaVuSans-30" x="222.65625"/>
       <use xlink:href="#DejaVuSans-30" x="286.279297"/>
      </g>
     </g>
    </g>
    <g id="ytick_2">
     <g id="line2d_21">
      <path d="M 62.86875 228.69299 
L 419.98875 228.69299 
" clip-path="url(#p82c9ece2df)" style="fill: none; stroke-dasharray: 1.85,0.8; stroke-dashoffset: 0; stroke: #ffffff; stroke-width: 0.5"/>
     </g>
     <g id="line2d_22">
      <g>
       <use xlink:href="#m161fd3194e" x="62.86875" y="228.69299" style="stroke: #000000; stroke-width: 0.8"/>
      </g>
     </g>
     <g id="text_12">
      <!-- 0.0001 -->
      <g transform="translate(20.878125 232.492209) scale(0.1 -0.1)">
       <use xlink:href="#DejaVuSans-30"/>
       <use xlink:href="#DejaVuSans-2e" x="63.623047"/>
       <use xlink:href="#DejaVuSans-30" x="95.410156"/>
       <use xlink:href="#DejaVuSans-30" x="159.033203"/>
       <use xlink:href="#DejaVuSans-30" x="222.65625"/>
       <use xlink:href="#DejaVuSans-31" x="286.279297"/>
      </g>
     </g>
    </g>
    <g id="ytick_3">
     <g id="line2d_23">
      <path d="M 62.86875 190.658429 
L 419.98875 190.658429 
" clip-path="url(#p82c9ece2df)" style="fill: none; stroke-dasharray: 1.85,0.8; stroke-dashoffset: 0; stroke: #ffffff; stroke-width: 0.5"/>
     </g>
     <g id="line2d_24">
      <g>
       <use xlink:href="#m161fd3194e" x="62.86875" y="190.658429" style="stroke: #000000; stroke-width: 0.8"/>
      </g>
     </g>
     <g id="text_13">
      <!-- 0.0002 -->
      <g transform="translate(20.878125 194.457648) scale(0.1 -0.1)">
       <use xlink:href="#DejaVuSans-30"/>
       <use xlink:href="#DejaVuSans-2e" x="63.623047"/>
       <use xlink:href="#DejaVuSans-30" x="95.410156"/>
       <use xlink:href="#DejaVuSans-30" x="159.033203"/>
       <use xlink:href="#DejaVuSans-30" x="222.65625"/>
       <use xlink:href="#DejaVuSans-32" x="286.279297"/>
      </g>
     </g>
    </g>
    <g id="ytick_4">
     <g id="line2d_25">
      <path d="M 62.86875 152.623869 
L 419.98875 152.623869 
" clip-path="url(#p82c9ece2df)" style="fill: none; stroke-dasharray: 1.85,0.8; stroke-dashoffset: 0; stroke: #ffffff; stroke-width: 0.5"/>
     </g>
     <g id="line2d_26">
      <g>
       <use xlink:href="#m161fd3194e" x="62.86875" y="152.623869" style="stroke: #000000; stroke-width: 0.8"/>
      </g>
     </g>
     <g id="text_14">
      <!-- 0.0003 -->
      <g transform="translate(20.878125 156.423088) scale(0.1 -0.1)">
       <use xlink:href="#DejaVuSans-30"/>
       <use xlink:href="#DejaVuSans-2e" x="63.623047"/>
       <use xlink:href="#DejaVuSans-30" x="95.410156"/>
       <use xlink:href="#DejaVuSans-30" x="159.033203"/>
       <use xlink:href="#DejaVuSans-30" x="222.65625"/>
       <use xlink:href="#DejaVuSans-33" x="286.279297"/>
      </g>
     </g>
    </g>
    <g id="ytick_5">
     <g id="line2d_27">
      <path d="M 62.86875 114.589309 
L 419.98875 114.589309 
" clip-path="url(#p82c9ece2df)" style="fill: none; stroke-dasharray: 1.85,0.8; stroke-dashoffset: 0; stroke: #ffffff; stroke-width: 0.5"/>
     </g>
     <g id="line2d_28">
      <g>
       <use xlink:href="#m161fd3194e" x="62.86875" y="114.589309" style="stroke: #000000; stroke-width: 0.8"/>
      </g>
     </g>
     <g id="text_15">
      <!-- 0.0004 -->
      <g transform="translate(20.878125 118.388528) scale(0.1 -0.1)">
       <use xlink:href="#DejaVuSans-30"/>
       <use xlink:href="#DejaVuSans-2e" x="63.623047"/>
       <use xlink:href="#DejaVuSans-30" x="95.410156"/>
       <use xlink:href="#DejaVuSans-30" x="159.033203"/>
       <use xlink:href="#DejaVuSans-30" x="222.65625"/>
       <use xlink:href="#DejaVuSans-34" x="286.279297"/>
      </g>
     </g>
    </g>
    <g id="ytick_6">
     <g id="line2d_29">
      <path d="M 62.86875 76.554748 
L 419.98875 76.554748 
" clip-path="url(#p82c9ece2df)" style="fill: none; stroke-dasharray: 1.85,0.8; stroke-dashoffset: 0; stroke: #ffffff; stroke-width: 0.5"/>
     </g>
     <g id="line2d_30">
      <g>
       <use xlink:href="#m161fd3194e" x="62.86875" y="76.554748" style="stroke: #000000; stroke-width: 0.8"/>
      </g>
     </g>
     <g id="text_16">
      <!-- 0.0005 -->
      <g transform="translate(20.878125 80.353967) scale(0.1 -0.1)">
       <use xlink:href="#DejaVuSans-30"/>
       <use xlink:href="#DejaVuSans-2e" x="63.623047"/>
       <use xlink:href="#DejaVuSans-30" x="95.410156"/>
       <use xlink:href="#DejaVuSans-30" x="159.033203"/>
       <use xlink:href="#DejaVuSans-30" x="222.65625"/>
       <use xlink:href="#DejaVuSans-35" x="286.279297"/>
      </g>
     </g>
    </g>
    <g id="ytick_7">
     <g id="line2d_31">
      <path d="M 62.86875 38.520188 
L 419.98875 38.520188 
" clip-path="url(#p82c9ece2df)" style="fill: none; stroke-dasharray: 1.85,0.8; stroke-dashoffset: 0; stroke: #ffffff; stroke-width: 0.5"/>
     </g>
     <g id="line2d_32">
      <g>
       <use xlink:href="#m161fd3194e" x="62.86875" y="38.520188" style="stroke: #000000; stroke-width: 0.8"/>
      </g>
     </g>
     <g id="text_17">
      <!-- 0.0006 -->
      <g transform="translate(20.878125 42.319407) scale(0.1 -0.1)">
       <defs>
        <path id="DejaVuSans-36" d="M 2113 2584 
Q 1688 2584 1439 2293 
Q 1191 2003 1191 1497 
Q 1191 994 1439 701 
Q 1688 409 2113 409 
Q 2538 409 2786 701 
Q 3034 994 3034 1497 
Q 3034 2003 2786 2293 
Q 2538 2584 2113 2584 
z
M 3366 4563 
L 3366 3988 
Q 3128 4100 2886 4159 
Q 2644 4219 2406 4219 
Q 1781 4219 1451 3797 
Q 1122 3375 1075 2522 
Q 1259 2794 1537 2939 
Q 1816 3084 2150 3084 
Q 2853 3084 3261 2657 
Q 3669 2231 3669 1497 
Q 3669 778 3244 343 
Q 2819 -91 2113 -91 
Q 1303 -91 875 529 
Q 447 1150 447 2328 
Q 447 3434 972 4092 
Q 1497 4750 2381 4750 
Q 2619 4750 2861 4703 
Q 3103 4656 3366 4563 
z
" transform="scale(0.015625)"/>
       </defs>
       <use xlink:href="#DejaVuSans-30"/>
       <use xlink:href="#DejaVuSans-2e" x="63.623047"/>
       <use xlink:href="#DejaVuSans-30" x="95.410156"/>
       <use xlink:href="#DejaVuSans-30" x="159.033203"/>
       <use xlink:href="#DejaVuSans-30" x="222.65625"/>
       <use xlink:href="#DejaVuSans-36" x="286.279297"/>
      </g>
     </g>
    </g>
    <g id="text_18">
     <!-- Average jitter [s] -->
     <g transform="translate(14.798438 182.303656) rotate(-90) scale(0.1 -0.1)">
      <defs>
       <path id="DejaVuSans-76" d="M 191 3500 
L 800 3500 
L 1894 563 
L 2988 3500 
L 3597 3500 
L 2284 0 
L 1503 0 
L 191 3500 
z
" transform="scale(0.015625)"/>
       <path id="DejaVuSans-72" d="M 2631 2963 
Q 2534 3019 2420 3045 
Q 2306 3072 2169 3072 
Q 1681 3072 1420 2755 
Q 1159 2438 1159 1844 
L 1159 0 
L 581 0 
L 581 3500 
L 1159 3500 
L 1159 2956 
Q 1341 3275 1631 3429 
Q 1922 3584 2338 3584 
Q 2397 3584 2469 3576 
Q 2541 3569 2628 3553 
L 2631 2963 
z
" transform="scale(0.015625)"/>
       <path id="DejaVuSans-67" d="M 2906 1791 
Q 2906 2416 2648 2759 
Q 2391 3103 1925 3103 
Q 1463 3103 1205 2759 
Q 947 2416 947 1791 
Q 947 1169 1205 825 
Q 1463 481 1925 481 
Q 2391 481 2648 825 
Q 2906 1169 2906 1791 
z
M 3481 434 
Q 3481 -459 3084 -895 
Q 2688 -1331 1869 -1331 
Q 1566 -1331 1297 -1286 
Q 1028 -1241 775 -1147 
L 775 -588 
Q 1028 -725 1275 -790 
Q 1522 -856 1778 -856 
Q 2344 -856 2625 -561 
Q 2906 -266 2906 331 
L 2906 616 
Q 2728 306 2450 153 
Q 2172 0 1784 0 
Q 1141 0 747 490 
Q 353 981 353 1791 
Q 353 2603 747 3093 
Q 1141 3584 1784 3584 
Q 2172 3584 2450 3431 
Q 2728 3278 2906 2969 
L 2906 3500 
L 3481 3500 
L 3481 434 
z
" transform="scale(0.015625)"/>
       <path id="DejaVuSans-6a" d="M 603 3500 
L 1178 3500 
L 1178 -63 
Q 1178 -731 923 -1031 
Q 669 -1331 103 -1331 
L -116 -1331 
L -116 -844 
L 38 -844 
Q 366 -844 484 -692 
Q 603 -541 603 -63 
L 603 3500 
z
M 603 4863 
L 1178 4863 
L 1178 4134 
L 603 4134 
L 603 4863 
z
" transform="scale(0.015625)"/>
      </defs>
      <use xlink:href="#DejaVuSans-41"/>
      <use xlink:href="#DejaVuSans-76" x="62.533203"/>
      <use xlink:href="#DejaVuSans-65" x="121.712891"/>
      <use xlink:href="#DejaVuSans-72" x="183.236328"/>
      <use xlink:href="#DejaVuSans-61" x="224.349609"/>
      <use xlink:href="#DejaVuSans-67" x="285.628906"/>
      <use xlink:href="#DejaVuSans-65" x="349.105469"/>
      <use xlink:href="#DejaVuSans-20" x="410.628906"/>
      <use xlink:href="#DejaVuSans-6a" x="442.416016"/>
      <use xlink:href="#DejaVuSans-69" x="470.199219"/>
      <use xlink:href="#DejaVuSans-74" x="497.982422"/>
      <use xlink:href="#DejaVuSans-74" x="537.191406"/>
      <use xlink:href="#DejaVuSans-65" x="576.400391"/>
      <use xlink:href="#DejaVuSans-72" x="637.923828"/>
      <use xlink:href="#DejaVuSans-20" x="679.037109"/>
      <use xlink:href="#DejaVuSans-5b" x="710.824219"/>
      <use xlink:href="#DejaVuSans-73" x="749.837891"/>
      <use xlink:href="#DejaVuSans-5d" x="801.9375"/>
     </g>
    </g>
   </g>
   <g id="line2d_33">
    <path d="M 79.101477 261.212323 
L 95.334205 261.212323 
L 111.566932 261.212323 
L 127.799659 261.21226 
L 144.032386 258.594899 
L 160.265114 253.136547 
L 176.497841 252.416426 
L 192.730568 244.157119 
L 208.963295 234.177687 
L 225.196023 234.177687 
L 241.42875 234.177687 
L 257.661477 234.144293 
L 273.894205 232.836082 
L 290.126932 216.274199 
L 306.359659 216.726556 
L 322.592386 201.281229 
L 338.825114 201.281229 
L 355.057841 201.281229 
L 371.290568 201.071785 
L 387.523295 199.064194 
L 403.756023 187.278678 
" clip-path="url(#p82c9ece2df)" style="fill: none; stroke: #000000; stroke-width: 1.5; stroke-linecap: square"/>
    <defs>
     <path id="md865c6fac7" d="M 0 4 
C 1.060812 4 2.078319 3.578535 2.828427 2.828427 
C 3.578535 2.078319 4 1.060812 4 0 
C 4 -1.060812 3.578535 -2.078319 2.828427 -2.828427 
C 2.078319 -3.578535 1.060812 -4 0 -4 
C -1.060812 -4 -2.078319 -3.578535 -2.828427 -2.828427 
C -3.578535 -2.078319 -4 -1.060812 -4 0 
C -4 1.060812 -3.578535 2.078319 -2.828427 2.828427 
C -2.078319 3.578535 -1.060812 4 0 4 
z
" style="stroke: #ffffff; stroke-width: 0.75"/>
    </defs>
    <g clip-path="url(#p82c9ece2df)">
     <use xlink:href="#md865c6fac7" x="79.101477" y="261.212323" style="stroke: #ffffff; stroke-width: 0.75"/>
     <use xlink:href="#md865c6fac7" x="95.334205" y="261.212323" style="stroke: #ffffff; stroke-width: 0.75"/>
     <use xlink:href="#md865c6fac7" x="111.566932" y="261.212323" style="stroke: #ffffff; stroke-width: 0.75"/>
     <use xlink:href="#md865c6fac7" x="127.799659" y="261.21226" style="stroke: #ffffff; stroke-width: 0.75"/>
     <use xlink:href="#md865c6fac7" x="144.032386" y="258.594899" style="stroke: #ffffff; stroke-width: 0.75"/>
     <use xlink:href="#md865c6fac7" x="160.265114" y="253.136547" style="stroke: #ffffff; stroke-width: 0.75"/>
     <use xlink:href="#md865c6fac7" x="176.497841" y="252.416426" style="stroke: #ffffff; stroke-width: 0.75"/>
     <use xlink:href="#md865c6fac7" x="192.730568" y="244.157119" style="stroke: #ffffff; stroke-width: 0.75"/>
     <use xlink:href="#md865c6fac7" x="208.963295" y="234.177687" style="stroke: #ffffff; stroke-width: 0.75"/>
     <use xlink:href="#md865c6fac7" x="225.196023" y="234.177687" style="stroke: #ffffff; stroke-width: 0.75"/>
     <use xlink:href="#md865c6fac7" x="241.42875" y="234.177687" style="stroke: #ffffff; stroke-width: 0.75"/>
     <use xlink:href="#md865c6fac7" x="257.661477" y="234.144293" style="stroke: #ffffff; stroke-width: 0.75"/>
     <use xlink:href="#md865c6fac7" x="273.894205" y="232.836082" style="stroke: #ffffff; stroke-width: 0.75"/>
     <use xlink:href="#md865c6fac7" x="290.126932" y="216.274199" style="stroke: #ffffff; stroke-width: 0.75"/>
     <use xlink:href="#md865c6fac7" x="306.359659" y="216.726556" style="stroke: #ffffff; stroke-width: 0.75"/>
     <use xlink:href="#md865c6fac7" x="322.592386" y="201.281229" style="stroke: #ffffff; stroke-width: 0.75"/>
     <use xlink:href="#md865c6fac7" x="338.825114" y="201.281229" style="stroke: #ffffff; stroke-width: 0.75"/>
     <use xlink:href="#md865c6fac7" x="355.057841" y="201.281229" style="stroke: #ffffff; stroke-width: 0.75"/>
     <use xlink:href="#md865c6fac7" x="371.290568" y="201.071785" style="stroke: #ffffff; stroke-width: 0.75"/>
     <use xlink:href="#md865c6fac7" x="387.523295" y="199.064194" style="stroke: #ffffff; stroke-width: 0.75"/>
     <use xlink:href="#md865c6fac7" x="403.756023" y="187.278678" style="stroke: #ffffff; stroke-width: 0.75"/>
    </g>
   </g>
   <g id="line2d_34">
    <path d="M 79.101477 260.987717 
L 95.334205 260.987717 
L 111.566932 260.987717 
L 127.799659 260.987032 
L 144.032386 258.410812 
L 160.265114 252.876847 
L 176.497841 252.178646 
L 192.730568 243.852057 
L 208.963295 233.842514 
L 225.196023 233.842514 
L 241.42875 233.842514 
L 257.661477 233.813278 
L 273.894205 232.545739 
L 290.126932 215.969162 
L 306.359659 216.296639 
L 322.592386 200.869821 
L 338.825114 200.869821 
L 355.057841 200.869821 
L 371.290568 200.655814 
L 387.523295 198.678017 
L 403.756023 186.753928 
" clip-path="url(#p82c9ece2df)" style="fill: none; stroke: #8b0000; stroke-width: 1.5; stroke-linecap: square"/>
    <defs>
     <path id="mf8cd54a52e" d="M 0 4 
C 1.060812 4 2.078319 3.578535 2.828427 2.828427 
C 3.578535 2.078319 4 1.060812 4 0 
C 4 -1.060812 3.578535 -2.078319 2.828427 -2.828427 
C 2.078319 -3.578535 1.060812 -4 0 -4 
C -1.060812 -4 -2.078319 -3.578535 -2.828427 -2.828427 
C -3.578535 -2.078319 -4 -1.060812 -4 0 
C -4 1.060812 -3.578535 2.078319 -2.828427 2.828427 
C -2.078319 3.578535 -1.060812 4 0 4 
z
" style="stroke: #ffffff; stroke-width: 0.75"/>
    </defs>
    <g clip-path="url(#p82c9ece2df)">
     <use xlink:href="#mf8cd54a52e" x="79.101477" y="260.987717" style="fill: #8b0000; stroke: #ffffff; stroke-width: 0.75"/>
     <use xlink:href="#mf8cd54a52e" x="95.334205" y="260.987717" style="fill: #8b0000; stroke: #ffffff; stroke-width: 0.75"/>
     <use xlink:href="#mf8cd54a52e" x="111.566932" y="260.987717" style="fill: #8b0000; stroke: #ffffff; stroke-width: 0.75"/>
     <use xlink:href="#mf8cd54a52e" x="127.799659" y="260.987032" style="fill: #8b0000; stroke: #ffffff; stroke-width: 0.75"/>
     <use xlink:href="#mf8cd54a52e" x="144.032386" y="258.410812" style="fill: #8b0000; stroke: #ffffff; stroke-width: 0.75"/>
     <use xlink:href="#mf8cd54a52e" x="160.265114" y="252.876847" style="fill: #8b0000; stroke: #ffffff; stroke-width: 0.75"/>
     <use xlink:href="#mf8cd54a52e" x="176.497841" y="252.178646" style="fill: #8b0000; stroke: #ffffff; stroke-width: 0.75"/>
     <use xlink:href="#mf8cd54a52e" x="192.730568" y="243.852057" style="fill: #8b0000; stroke: #ffffff; stroke-width: 0.75"/>
     <use xlink:href="#mf8cd54a52e" x="208.963295" y="233.842514" style="fill: #8b0000; stroke: #ffffff; stroke-width: 0.75"/>
     <use xlink:href="#mf8cd54a52e" x="225.196023" y="233.842514" style="fill: #8b0000; stroke: #ffffff; stroke-width: 0.75"/>
     <use xlink:href="#mf8cd54a52e" x="241.42875" y="233.842514" style="fill: #8b0000; stroke: #ffffff; stroke-width: 0.75"/>
     <use xlink:href="#mf8cd54a52e" x="257.661477" y="233.813278" style="fill: #8b0000; stroke: #ffffff; stroke-width: 0.75"/>
     <use xlink:href="#mf8cd54a52e" x="273.894205" y="232.545739" style="fill: #8b0000; stroke: #ffffff; stroke-width: 0.75"/>
     <use xlink:href="#mf8cd54a52e" x="290.126932" y="215.969162" style="fill: #8b0000; stroke: #ffffff; stroke-width: 0.75"/>
     <use xlink:href="#mf8cd54a52e" x="306.359659" y="216.296639" style="fill: #8b0000; stroke: #ffffff; stroke-width: 0.75"/>
     <use xlink:href="#mf8cd54a52e" x="322.592386" y="200.869821" style="fill: #8b0000; stroke: #ffffff; stroke-width: 0.75"/>
     <use xlink:href="#mf8cd54a52e" x="338.825114" y="200.869821" style="fill: #8b0000; stroke: #ffffff; stroke-width: 0.75"/>
     <use xlink:href="#mf8cd54a52e" x="355.057841" y="200.869821" style="fill: #8b0000; stroke: #ffffff; stroke-width: 0.75"/>
     <use xlink:href="#mf8cd54a52e" x="371.290568" y="200.655814" style="fill: #8b0000; stroke: #ffffff; stroke-width: 0.75"/>
     <use xlink:href="#mf8cd54a52e" x="387.523295" y="198.678017" style="fill: #8b0000; stroke: #ffffff; stroke-width: 0.75"/>
     <use xlink:href="#mf8cd54a52e" x="403.756023" y="186.753928" style="fill: #8b0000; stroke: #ffffff; stroke-width: 0.75"/>
    </g>
   </g>
   <g id="line2d_35">
    <path d="M 79.101477 260.870443 
L 95.334205 260.870443 
L 111.566932 258.22552 
L 127.799659 252.170215 
L 144.032386 233.672614 
L 160.265114 233.672614 
L 176.497841 233.529046 
L 192.730568 221.110547 
L 208.963295 200.637303 
L 225.196023 200.63705 
L 241.42875 198.864006 
L 257.661477 185.60744 
L 273.894205 168.810871 
L 290.126932 160.507926 
L 306.359659 117.691915 
L 322.592386 117.691915 
L 338.825114 117.650077 
L 355.057841 117.369128 
L 371.290568 116.090786 
L 387.523295 19.363194 
L 403.756023 19.363194 
" clip-path="url(#p82c9ece2df)" style="fill: none; stroke: #556b2f; stroke-width: 1.5; stroke-linecap: square"/>
    <defs>
     <path id="m5a58a7bab8" d="M 0 4 
C 1.060812 4 2.078319 3.578535 2.828427 2.828427 
C 3.578535 2.078319 4 1.060812 4 0 
C 4 -1.060812 3.578535 -2.078319 2.828427 -2.828427 
C 2.078319 -3.578535 1.060812 -4 0 -4 
C -1.060812 -4 -2.078319 -3.578535 -2.828427 -2.828427 
C -3.578535 -2.078319 -4 -1.060812 -4 0 
C -4 1.060812 -3.578535 2.078319 -2.828427 2.828427 
C -2.078319 3.578535 -1.060812 4 0 4 
z
" style="stroke: #ffffff; stroke-width: 0.75"/>
    </defs>
    <g clip-path="url(#p82c9ece2df)">
     <use xlink:href="#m5a58a7bab8" x="79.101477" y="260.870443" style="fill: #556b2f; stroke: #ffffff; stroke-width: 0.75"/>
     <use xlink:href="#m5a58a7bab8" x="95.334205" y="260.870443" style="fill: #556b2f; stroke: #ffffff; stroke-width: 0.75"/>
     <use xlink:href="#m5a58a7bab8" x="111.566932" y="258.22552" style="fill: #556b2f; stroke: #ffffff; stroke-width: 0.75"/>
     <use xlink:href="#m5a58a7bab8" x="127.799659" y="252.170215" style="fill: #556b2f; stroke: #ffffff; stroke-width: 0.75"/>
     <use xlink:href="#m5a58a7bab8" x="144.032386" y="233.672614" style="fill: #556b2f; stroke: #ffffff; stroke-width: 0.75"/>
     <use xlink:href="#m5a58a7bab8" x="160.265114" y="233.672614" style="fill: #556b2f; stroke: #ffffff; stroke-width: 0.75"/>
     <use xlink:href="#m5a58a7bab8" x="176.497841" y="233.529046" style="fill: #556b2f; stroke: #ffffff; stroke-width: 0.75"/>
     <use xlink:href="#m5a58a7bab8" x="192.730568" y="221.110547" style="fill: #556b2f; stroke: #ffffff; stroke-width: 0.75"/>
     <use xlink:href="#m5a58a7bab8" x="208.963295" y="200.637303" style="fill: #556b2f; stroke: #ffffff; stroke-width: 0.75"/>
     <use xlink:href="#m5a58a7bab8" x="225.196023" y="200.63705" style="fill: #556b2f; stroke: #ffffff; stroke-width: 0.75"/>
     <use xlink:href="#m5a58a7bab8" x="241.42875" y="198.864006" style="fill: #556b2f; stroke: #ffffff; stroke-width: 0.75"/>
     <use xlink:href="#m5a58a7bab8" x="257.661477" y="185.60744" style="fill: #556b2f; stroke: #ffffff; stroke-width: 0.75"/>
     <use xlink:href="#m5a58a7bab8" x="273.894205" y="168.810871" style="fill: #556b2f; stroke: #ffffff; stroke-width: 0.75"/>
     <use xlink:href="#m5a58a7bab8" x="290.126932" y="160.507926" style="fill: #556b2f; stroke: #ffffff; stroke-width: 0.75"/>
     <use xlink:href="#m5a58a7bab8" x="306.359659" y="117.691915" style="fill: #556b2f; stroke: #ffffff; stroke-width: 0.75"/>
     <use xlink:href="#m5a58a7bab8" x="322.592386" y="117.691915" style="fill: #556b2f; stroke: #ffffff; stroke-width: 0.75"/>
     <use xlink:href="#m5a58a7bab8" x="338.825114" y="117.650077" style="fill: #556b2f; stroke: #ffffff; stroke-width: 0.75"/>
     <use xlink:href="#m5a58a7bab8" x="355.057841" y="117.369128" style="fill: #556b2f; stroke: #ffffff; stroke-width: 0.75"/>
     <use xlink:href="#m5a58a7bab8" x="371.290568" y="116.090786" style="fill: #556b2f; stroke: #ffffff; stroke-width: 0.75"/>
     <use xlink:href="#m5a58a7bab8" x="387.523295" y="19.363194" style="fill: #556b2f; stroke: #ffffff; stroke-width: 0.75"/>
     <use xlink:href="#m5a58a7bab8" x="403.756023" y="19.363194" style="fill: #556b2f; stroke: #ffffff; stroke-width: 0.75"/>
    </g>
   </g>
   <g id="line2d_36"/>
   <g id="line2d_37"/>
   <g id="line2d_38"/>
   <g id="line2d_39"/>
   <g id="line2d_40"/>
   <g id="line2d_41"/>
   <g id="patch_3">
    <path d="M 62.86875 273.312 
L 62.86875 7.2 
" style="fill: none; stroke: #000000; stroke-width: 0.8; stroke-linejoin: miter; stroke-linecap: square"/>
   </g>
   <g id="patch_4">
    <path d="M 419.98875 273.312 
L 419.98875 7.2 
" style="fill: none; stroke: #000000; stroke-width: 0.8; stroke-linejoin: miter; stroke-linecap: square"/>
   </g>
   <g id="patch_5">
    <path d="M 62.86875 273.312 
L 419.98875 273.312 
" style="fill: none; stroke: #000000; stroke-width: 0.8; stroke-linejoin: miter; stroke-linecap: square"/>
   </g>
   <g id="patch_6">
    <path d="M 62.86875 7.2 
L 419.98875 7.2 
" style="fill: none; stroke: #000000; stroke-width: 0.8; stroke-linejoin: miter; stroke-linecap: square"/>
   </g>
   <g id="legend_1">
    <g id="patch_7">
     <path d="M 71.26875 69.64125 
L 117.30375 69.64125 
Q 119.70375 69.64125 119.70375 67.24125 
L 119.70375 15.6 
Q 119.70375 13.2 117.30375 13.2 
L 71.26875 13.2 
Q 68.86875 13.2 68.86875 15.6 
L 68.86875 67.24125 
Q 68.86875 69.64125 71.26875 69.64125 
z
" style="fill: #ffffff; opacity: 0.8; stroke: #cccccc; stroke-linejoin: miter"/>
    </g>
    <g id="line2d_42">
     <path d="M 73.66875 22.918125 
L 85.66875 22.918125 
L 97.66875 22.918125 
" style="fill: none; stroke: #000000; stroke-width: 1.5; stroke-linecap: square"/>
    </g>
    <g id="text_19">
     <!-- 1 -->
     <g transform="translate(107.26875 27.118125) scale(0.12 -0.12)">
      <use xlink:href="#DejaVuSans-31"/>
     </g>
    </g>
    <g id="line2d_43">
     <path d="M 73.66875 40.531875 
L 85.66875 40.531875 
L 97.66875 40.531875 
" style="fill: none; stroke: #8b0000; stroke-width: 1.5; stroke-linecap: square"/>
    </g>
    <g id="text_20">
     <!-- 2 -->
     <g transform="translate(107.26875 44.731875) scale(0.12 -0.12)">
      <use xlink:href="#DejaVuSans-32"/>
     </g>
    </g>
    <g id="line2d_44">
     <path d="M 73.66875 58.145625 
L 85.66875 58.145625 
L 97.66875 58.145625 
" style="fill: none; stroke: #556b2f; stroke-width: 1.5; stroke-linecap: square"/>
    </g>
    <g id="text_21">
     <!-- 3 -->
     <g transform="translate(107.26875 62.345625) scale(0.12 -0.12)">
      <use xlink:href="#DejaVuSans-33"/>
     </g>
    </g>
   </g>
  </g>
 </g>
 <defs>
  <clipPath id="p82c9ece2df">
   <rect x="62.86875" y="7.2" width="357.12" height="266.112"/>
  </clipPath>
 </defs>
</svg>
