<?xml version="1.0" encoding="utf-8" standalone="no"?>
<!DOCTYPE svg PUBLIC "-//W3C//DTD SVG 1.1//EN"
  "http://www.w3.org/Graphics/SVG/1.1/DTD/svg11.dtd">
<svg xmlns:xlink="http://www.w3.org/1999/xlink" width="427.18875pt" height="310.86825pt" viewBox="0 0 427.18875 310.86825" xmlns="http://www.w3.org/2000/svg" version="1.1">
 <metadata>
  <rdf:RDF xmlns:dc="http://purl.org/dc/elements/1.1/" xmlns:cc="http://creativecommons.org/ns#" xmlns:rdf="http://www.w3.org/1999/02/22-rdf-syntax-ns#">
   <cc:Work>
    <dc:type rdf:resource="http://purl.org/dc/dcmitype/StillImage"/>
    <dc:date>2025-05-16T14:07:13.675932</dc:date>
    <dc:format>image/svg+xml</dc:format>
    <dc:creator>
     <cc:Agent>
      <dc:title>Matplotlib v3.9.2, https://matplotlib.org/</dc:title>
     </cc:Agent>
    </dc:creator>
   </cc:Work>
  </rdf:RDF>
 </metadata>
 <defs>
  <style type="text/css">*{stroke-linejoin: round; stroke-linecap: butt}</style>
 </defs>
 <g id="figure_1">
  <g id="patch_1">
   <path d="M 0 310.86825 
L 427.18875 310.86825 
L 427.18875 0 
L 0 0 
z
" style="fill: #ffffff"/>
  </g>
  <g id="axes_1">
   <g id="patch_2">
    <path d="M 62.86875 273.312 
L 419.98875 273.312 
L 419.98875 7.2 
L 62.86875 7.2 
z
" style="fill: #ffffff"/>
   </g>
   <g id="PolyCollection_1">
    <defs>
     <path id="m4a380c7ed4" d="M 79.101477 -132.228755 
L 79.101477 -129.172768 
L 100.745114 -138.149203 
L 122.38875 -164.473709 
L 144.032386 -154.813821 
L 165.676023 -160.459643 
L 187.319659 -160.459643 
L 208.963295 -160.581403 
L 230.606932 -185.338144 
L 252.250568 -199.628895 
L 273.894205 -202.941733 
L 295.537841 -202.623114 
L 317.181477 -204.348189 
L 338.825114 -204.356188 
L 360.46875 -226.739951 
L 382.112386 -259.623921 
L 403.756023 -277.793203 
L 403.756023 -281.682399 
L 403.756023 -281.682399 
L 382.112386 -269.002518 
L 360.46875 -227.59449 
L 338.825114 -207.109109 
L 317.181477 -206.386107 
L 295.537841 -204.35441 
L 273.894205 -203.852708 
L 252.250568 -221.967331 
L 230.606932 -188.37369 
L 208.963295 -161.415945 
L 187.319659 -161.114212 
L 165.676023 -161.114212 
L 144.032386 -163.537849 
L 122.38875 -177.309567 
L 100.745114 -140.952783 
L 79.101477 -132.228755 
z
" style="stroke: #003f5c; stroke-opacity: 0.2"/>
    </defs>
    <g clip-path="url(#pe950a12c0e)">
     <use xlink:href="#m4a380c7ed4" x="0" y="310.86825" style="fill: #003f5c; fill-opacity: 0.2; stroke: #003f5c; stroke-opacity: 0.2"/>
    </g>
   </g>
   <g id="PolyCollection_2">
    <defs>
     <path id="m9809ac7184" d="M 79.101477 -132.474052 
L 79.101477 -130.437023 
L 100.745114 -139.181493 
L 122.38875 -158.724347 
L 144.032386 -161.205754 
L 165.676023 -161.767448 
L 187.319659 -161.767448 
L 208.963295 -165.059844 
L 230.606932 -200.371895 
L 252.250568 -223.664855 
L 273.894205 -206.826929 
L 295.537841 -209.411432 
L 317.181477 -208.735977 
L 338.825114 -209.794486 
L 360.46875 -231.004202 
L 382.112386 -270.523179 
L 403.756023 -283.757644 
L 403.756023 -291.243191 
L 403.756023 -291.243191 
L 382.112386 -278.400667 
L 360.46875 -232.391994 
L 338.825114 -211.029412 
L 317.181477 -209.260788 
L 295.537841 -210.591255 
L 273.894205 -208.662655 
L 252.250568 -247.558614 
L 230.606932 -212.136357 
L 208.963295 -168.133162 
L 187.319659 -169.375198 
L 165.676023 -169.375198 
L 144.032386 -171.774395 
L 122.38875 -168.645974 
L 100.745114 -141.682896 
L 79.101477 -132.474052 
z
" style="stroke: #003f5c; stroke-opacity: 0.2"/>
    </defs>
    <g clip-path="url(#pe950a12c0e)">
     <use xlink:href="#m9809ac7184" x="0" y="310.86825" style="fill: #003f5c; fill-opacity: 0.2; stroke: #003f5c; stroke-opacity: 0.2"/>
    </g>
   </g>
   <g id="PolyCollection_3">
    <defs>
     <path id="md2234e39b9" d="M 79.101477 -47.311146 
L 79.101477 -47.293949 
L 100.745114 -47.360428 
L 122.38875 -47.423441 
L 144.032386 -47.504806 
L 165.676023 -121.964513 
L 165.676023 -121.981843 
L 165.676023 -121.981843 
L 144.032386 -47.526492 
L 122.38875 -47.510272 
L 100.745114 -47.384824 
L 79.101477 -47.311146 
z
" style="stroke: #bc5090; stroke-opacity: 0.2"/>
    </defs>
    <g clip-path="url(#pe950a12c0e)">
     <use xlink:href="#md2234e39b9" x="0" y="310.86825" style="fill: #bc5090; fill-opacity: 0.2; stroke: #bc5090; stroke-opacity: 0.2"/>
    </g>
   </g>
   <g id="PolyCollection_4">
    <defs>
     <path id="m825560b3eb" d="M 79.101477 -48.134979 
L 79.101477 -48.08583 
L 100.745114 -49.534814 
L 122.38875 -70.066143 
L 144.032386 -70.372586 
L 165.676023 -70.336013 
L 165.676023 -70.341212 
L 165.676023 -70.341212 
L 144.032386 -70.384584 
L 122.38875 -70.364809 
L 100.745114 -49.574719 
L 79.101477 -48.134979 
z
" style="stroke: #bc5090; stroke-opacity: 0.2"/>
    </defs>
    <g clip-path="url(#pe950a12c0e)">
     <use xlink:href="#m825560b3eb" x="0" y="310.86825" style="fill: #bc5090; fill-opacity: 0.2; stroke: #bc5090; stroke-opacity: 0.2"/>
    </g>
   </g>
   <g id="PolyCollection_5">
    <defs>
     <path id="ma1a4d887bb" d="M 79.101477 -42.751562 
L 79.101477 -42.742008 
L 100.745114 -42.805731 
L 122.38875 -42.902073 
L 144.032386 -42.962464 
L 165.676023 -117.934893 
L 187.319659 -60.074793 
L 208.963295 -60.031955 
L 230.606932 -63.18966 
L 252.250568 -125.981245 
L 273.894205 -135.760671 
L 295.537841 -99.540311 
L 317.181477 -100.735688 
L 338.825114 -121.317054 
L 360.46875 -130.959167 
L 382.112386 -187.370284 
L 403.756023 -174.812607 
L 403.756023 -177.632185 
L 403.756023 -177.632185 
L 382.112386 -188.707862 
L 360.46875 -134.928351 
L 338.825114 -122.830605 
L 317.181477 -101.175622 
L 295.537841 -100.026905 
L 273.894205 -135.873543 
L 252.250568 -126.291865 
L 230.606932 -64.102057 
L 208.963295 -60.061061 
L 187.319659 -60.089324 
L 165.676023 -118.00466 
L 144.032386 -43.031653 
L 122.38875 -42.929491 
L 100.745114 -42.815286 
L 79.101477 -42.751562 
z
" style="stroke: #ff6361; stroke-opacity: 0.2"/>
    </defs>
    <g clip-path="url(#pe950a12c0e)">
     <use xlink:href="#ma1a4d887bb" x="0" y="310.86825" style="fill: #ff6361; fill-opacity: 0.2; stroke: #ff6361; stroke-opacity: 0.2"/>
    </g>
   </g>
   <g id="PolyCollection_6">
    <defs>
     <path id="mb7e043e18c" d="M 79.101477 -47.367094 
L 79.101477 -47.273907 
L 100.745114 -47.433972 
L 122.38875 -47.567552 
L 144.032386 -47.739704 
L 165.676023 -47.572041 
L 187.319659 -50.166408 
L 208.963295 -51.438884 
L 230.606932 -96.448774 
L 252.250568 -116.143161 
L 273.894205 -66.957941 
L 295.537841 -67.215547 
L 317.181477 -67.319309 
L 338.825114 -69.28617 
L 360.46875 -92.130309 
L 382.112386 -96.387894 
L 403.756023 -129.186543 
L 403.756023 -129.400289 
L 403.756023 -129.400289 
L 382.112386 -100.988984 
L 360.46875 -92.157416 
L 338.825114 -69.455789 
L 317.181477 -67.732714 
L 295.537841 -67.760399 
L 273.894205 -67.156889 
L 252.250568 -116.72974 
L 230.606932 -107.077406 
L 208.963295 -51.551934 
L 187.319659 -50.508712 
L 165.676023 -47.63492 
L 144.032386 -47.772544 
L 122.38875 -47.703354 
L 100.745114 -47.45948 
L 79.101477 -47.367094 
z
" style="stroke: #ff6361; stroke-opacity: 0.2"/>
    </defs>
    <g clip-path="url(#pe950a12c0e)">
     <use xlink:href="#mb7e043e18c" x="0" y="310.86825" style="fill: #ff6361; fill-opacity: 0.2; stroke: #ff6361; stroke-opacity: 0.2"/>
    </g>
   </g>
   <g id="PolyCollection_7">
    <defs>
     <path id="mc982d91bd2" d="M 79.101477 -46.999904 
L 79.101477 -46.971286 
L 100.745114 -47.031633 
L 122.38875 -47.0994 
L 144.032386 -47.589105 
L 165.676023 -105.082149 
L 187.319659 -65.971555 
L 187.319659 -66.204098 
L 187.319659 -66.204098 
L 165.676023 -105.373217 
L 144.032386 -47.670159 
L 122.38875 -47.109177 
L 100.745114 -47.063317 
L 79.101477 -46.999904 
z
" style="stroke: #ffa600; stroke-opacity: 0.2"/>
    </defs>
    <g clip-path="url(#pe950a12c0e)">
     <use xlink:href="#mc982d91bd2" x="0" y="310.86825" style="fill: #ffa600; fill-opacity: 0.2; stroke: #ffa600; stroke-opacity: 0.2"/>
    </g>
   </g>
   <g id="PolyCollection_8">
    <defs>
     <path id="mc15b7eed62" d="M 79.101477 -48.647924 
L 79.101477 -48.475772 
L 100.745114 -49.769579 
L 122.38875 -69.877993 
L 144.032386 -69.636118 
L 165.676023 -69.192629 
L 187.319659 -66.50823 
L 187.319659 -66.772635 
L 187.319659 -66.772635 
L 165.676023 -69.641762 
L 144.032386 -69.913188 
L 122.38875 -69.979711 
L 100.745114 -49.810772 
L 79.101477 -48.647924 
z
" style="stroke: #ffa600; stroke-opacity: 0.2"/>
    </defs>
    <g clip-path="url(#pe950a12c0e)">
     <use xlink:href="#mc15b7eed62" x="0" y="310.86825" style="fill: #ffa600; fill-opacity: 0.2; stroke: #ffa600; stroke-opacity: 0.2"/>
    </g>
   </g>
   <g id="matplotlib.axis_1">
    <g id="xtick_1">
     <g id="line2d_1">
      <path d="M 68.279659 273.312 
L 68.279659 7.2 
" clip-path="url(#pe950a12c0e)" style="fill: none; stroke-dasharray: 1.85,0.8; stroke-dashoffset: 0; stroke: #ffffff; stroke-width: 0.5"/>
     </g>
     <g id="line2d_2">
      <defs>
       <path id="m149733776b" d="M 0 0 
L 0 3.5 
" style="stroke: #000000; stroke-width: 0.8"/>
      </defs>
      <g>
       <use xlink:href="#m149733776b" x="68.279659" y="273.312" style="stroke: #000000; stroke-width: 0.8"/>
      </g>
     </g>
     <g id="text_1">
      <!-- 0 -->
      <g transform="translate(65.098409 287.910437) scale(0.1 -0.1)">
       <defs>
        <path id="DejaVuSans-30" d="M 2034 4250 
Q 1547 4250 1301 3770 
Q 1056 3291 1056 2328 
Q 1056 1369 1301 889 
Q 1547 409 2034 409 
Q 2525 409 2770 889 
Q 3016 1369 3016 2328 
Q 3016 3291 2770 3770 
Q 2525 4250 2034 4250 
z
M 2034 4750 
Q 2819 4750 3233 4129 
Q 3647 3509 3647 2328 
Q 3647 1150 3233 529 
Q 2819 -91 2034 -91 
Q 1250 -91 836 529 
Q 422 1150 422 2328 
Q 422 3509 836 4129 
Q 1250 4750 2034 4750 
z
" transform="scale(0.015625)"/>
       </defs>
       <use xlink:href="#DejaVuSans-30"/>
      </g>
     </g>
    </g>
    <g id="xtick_2">
     <g id="line2d_3">
      <path d="M 122.38875 273.312 
L 122.38875 7.2 
" clip-path="url(#pe950a12c0e)" style="fill: none; stroke-dasharray: 1.85,0.8; stroke-dashoffset: 0; stroke: #ffffff; stroke-width: 0.5"/>
     </g>
     <g id="line2d_4">
      <g>
       <use xlink:href="#m149733776b" x="122.38875" y="273.312" style="stroke: #000000; stroke-width: 0.8"/>
      </g>
     </g>
     <g id="text_2">
      <!-- 5 -->
      <g transform="translate(119.2075 287.910437) scale(0.1 -0.1)">
       <defs>
        <path id="DejaVuSans-35" d="M 691 4666 
L 3169 4666 
L 3169 4134 
L 1269 4134 
L 1269 2991 
Q 1406 3038 1543 3061 
Q 1681 3084 1819 3084 
Q 2600 3084 3056 2656 
Q 3513 2228 3513 1497 
Q 3513 744 3044 326 
Q 2575 -91 1722 -91 
Q 1428 -91 1123 -41 
Q 819 9 494 109 
L 494 744 
Q 775 591 1075 516 
Q 1375 441 1709 441 
Q 2250 441 2565 725 
Q 2881 1009 2881 1497 
Q 2881 1984 2565 2268 
Q 2250 2553 1709 2553 
Q 1456 2553 1204 2497 
Q 953 2441 691 2322 
L 691 4666 
z
" transform="scale(0.015625)"/>
       </defs>
       <use xlink:href="#DejaVuSans-35"/>
      </g>
     </g>
    </g>
    <g id="xtick_3">
     <g id="line2d_5">
      <path d="M 176.497841 273.312 
L 176.497841 7.2 
" clip-path="url(#pe950a12c0e)" style="fill: none; stroke-dasharray: 1.85,0.8; stroke-dashoffset: 0; stroke: #ffffff; stroke-width: 0.5"/>
     </g>
     <g id="line2d_6">
      <g>
       <use xlink:href="#m149733776b" x="176.497841" y="273.312" style="stroke: #000000; stroke-width: 0.8"/>
      </g>
     </g>
     <g id="text_3">
      <!-- 10 -->
      <g transform="translate(170.135341 287.910437) scale(0.1 -0.1)">
       <defs>
        <path id="DejaVuSans-31" d="M 794 531 
L 1825 531 
L 1825 4091 
L 703 3866 
L 703 4441 
L 1819 4666 
L 2450 4666 
L 2450 531 
L 3481 531 
L 3481 0 
L 794 0 
L 794 531 
z
" transform="scale(0.015625)"/>
       </defs>
       <use xlink:href="#DejaVuSans-31"/>
       <use xlink:href="#DejaVuSans-30" x="63.623047"/>
      </g>
     </g>
    </g>
    <g id="xtick_4">
     <g id="line2d_7">
      <path d="M 230.606932 273.312 
L 230.606932 7.2 
" clip-path="url(#pe950a12c0e)" style="fill: none; stroke-dasharray: 1.85,0.8; stroke-dashoffset: 0; stroke: #ffffff; stroke-width: 0.5"/>
     </g>
     <g id="line2d_8">
      <g>
       <use xlink:href="#m149733776b" x="230.606932" y="273.312" style="stroke: #000000; stroke-width: 0.8"/>
      </g>
     </g>
     <g id="text_4">
      <!-- 15 -->
      <g transform="translate(224.244432 287.910437) scale(0.1 -0.1)">
       <use xlink:href="#DejaVuSans-31"/>
       <use xlink:href="#DejaVuSans-35" x="63.623047"/>
      </g>
     </g>
    </g>
    <g id="xtick_5">
     <g id="line2d_9">
      <path d="M 284.716023 273.312 
L 284.716023 7.2 
" clip-path="url(#pe950a12c0e)" style="fill: none; stroke-dasharray: 1.85,0.8; stroke-dashoffset: 0; stroke: #ffffff; stroke-width: 0.5"/>
     </g>
     <g id="line2d_10">
      <g>
       <use xlink:href="#m149733776b" x="284.716023" y="273.312" style="stroke: #000000; stroke-width: 0.8"/>
      </g>
     </g>
     <g id="text_5">
      <!-- 20 -->
      <g transform="translate(278.353523 287.910437) scale(0.1 -0.1)">
       <defs>
        <path id="DejaVuSans-32" d="M 1228 531 
L 3431 531 
L 3431 0 
L 469 0 
L 469 531 
Q 828 903 1448 1529 
Q 2069 2156 2228 2338 
Q 2531 2678 2651 2914 
Q 2772 3150 2772 3378 
Q 2772 3750 2511 3984 
Q 2250 4219 1831 4219 
Q 1534 4219 1204 4116 
Q 875 4013 500 3803 
L 500 4441 
Q 881 4594 1212 4672 
Q 1544 4750 1819 4750 
Q 2544 4750 2975 4387 
Q 3406 4025 3406 3419 
Q 3406 3131 3298 2873 
Q 3191 2616 2906 2266 
Q 2828 2175 2409 1742 
Q 1991 1309 1228 531 
z
" transform="scale(0.015625)"/>
       </defs>
       <use xlink:href="#DejaVuSans-32"/>
       <use xlink:href="#DejaVuSans-30" x="63.623047"/>
      </g>
     </g>
    </g>
    <g id="xtick_6">
     <g id="line2d_11">
      <path d="M 338.825114 273.312 
L 338.825114 7.2 
" clip-path="url(#pe950a12c0e)" style="fill: none; stroke-dasharray: 1.85,0.8; stroke-dashoffset: 0; stroke: #ffffff; stroke-width: 0.5"/>
     </g>
     <g id="line2d_12">
      <g>
       <use xlink:href="#m149733776b" x="338.825114" y="273.312" style="stroke: #000000; stroke-width: 0.8"/>
      </g>
     </g>
     <g id="text_6">
      <!-- 25 -->
      <g transform="translate(332.462614 287.910437) scale(0.1 -0.1)">
       <use xlink:href="#DejaVuSans-32"/>
       <use xlink:href="#DejaVuSans-35" x="63.623047"/>
      </g>
     </g>
    </g>
    <g id="xtick_7">
     <g id="line2d_13">
      <path d="M 392.934205 273.312 
L 392.934205 7.2 
" clip-path="url(#pe950a12c0e)" style="fill: none; stroke-dasharray: 1.85,0.8; stroke-dashoffset: 0; stroke: #ffffff; stroke-width: 0.5"/>
     </g>
     <g id="line2d_14">
      <g>
       <use xlink:href="#m149733776b" x="392.934205" y="273.312" style="stroke: #000000; stroke-width: 0.8"/>
      </g>
     </g>
     <g id="text_7">
      <!-- 30 -->
      <g transform="translate(386.571705 287.910437) scale(0.1 -0.1)">
       <defs>
        <path id="DejaVuSans-33" d="M 2597 2516 
Q 3050 2419 3304 2112 
Q 3559 1806 3559 1356 
Q 3559 666 3084 287 
Q 2609 -91 1734 -91 
Q 1441 -91 1130 -33 
Q 819 25 488 141 
L 488 750 
Q 750 597 1062 519 
Q 1375 441 1716 441 
Q 2309 441 2620 675 
Q 2931 909 2931 1356 
Q 2931 1769 2642 2001 
Q 2353 2234 1838 2234 
L 1294 2234 
L 1294 2753 
L 1863 2753 
Q 2328 2753 2575 2939 
Q 2822 3125 2822 3475 
Q 2822 3834 2567 4026 
Q 2313 4219 1838 4219 
Q 1578 4219 1281 4162 
Q 984 4106 628 3988 
L 628 4550 
Q 988 4650 1302 4700 
Q 1616 4750 1894 4750 
Q 2613 4750 3031 4423 
Q 3450 4097 3450 3541 
Q 3450 3153 3228 2886 
Q 3006 2619 2597 2516 
z
" transform="scale(0.015625)"/>
       </defs>
       <use xlink:href="#DejaVuSans-33"/>
       <use xlink:href="#DejaVuSans-30" x="63.623047"/>
      </g>
     </g>
    </g>
    <g id="text_8">
     <!-- Distance [m] -->
     <g transform="translate(209.205312 301.588562) scale(0.1 -0.1)">
      <defs>
       <path id="DejaVuSans-44" d="M 1259 4147 
L 1259 519 
L 2022 519 
Q 2988 519 3436 956 
Q 3884 1394 3884 2338 
Q 3884 3275 3436 3711 
Q 2988 4147 2022 4147 
L 1259 4147 
z
M 628 4666 
L 1925 4666 
Q 3281 4666 3915 4102 
Q 4550 3538 4550 2338 
Q 4550 1131 3912 565 
Q 3275 0 1925 0 
L 628 0 
L 628 4666 
z
" transform="scale(0.015625)"/>
       <path id="DejaVuSans-69" d="M 603 3500 
L 1178 3500 
L 1178 0 
L 603 0 
L 603 3500 
z
M 603 4863 
L 1178 4863 
L 1178 4134 
L 603 4134 
L 603 4863 
z
" transform="scale(0.015625)"/>
       <path id="DejaVuSans-73" d="M 2834 3397 
L 2834 2853 
Q 2591 2978 2328 3040 
Q 2066 3103 1784 3103 
Q 1356 3103 1142 2972 
Q 928 2841 928 2578 
Q 928 2378 1081 2264 
Q 1234 2150 1697 2047 
L 1894 2003 
Q 2506 1872 2764 1633 
Q 3022 1394 3022 966 
Q 3022 478 2636 193 
Q 2250 -91 1575 -91 
Q 1294 -91 989 -36 
Q 684 19 347 128 
L 347 722 
Q 666 556 975 473 
Q 1284 391 1588 391 
Q 1994 391 2212 530 
Q 2431 669 2431 922 
Q 2431 1156 2273 1281 
Q 2116 1406 1581 1522 
L 1381 1569 
Q 847 1681 609 1914 
Q 372 2147 372 2553 
Q 372 3047 722 3315 
Q 1072 3584 1716 3584 
Q 2034 3584 2315 3537 
Q 2597 3491 2834 3397 
z
" transform="scale(0.015625)"/>
       <path id="DejaVuSans-74" d="M 1172 4494 
L 1172 3500 
L 2356 3500 
L 2356 3053 
L 1172 3053 
L 1172 1153 
Q 1172 725 1289 603 
Q 1406 481 1766 481 
L 2356 481 
L 2356 0 
L 1766 0 
Q 1100 0 847 248 
Q 594 497 594 1153 
L 594 3053 
L 172 3053 
L 172 3500 
L 594 3500 
L 594 4494 
L 1172 4494 
z
" transform="scale(0.015625)"/>
       <path id="DejaVuSans-61" d="M 2194 1759 
Q 1497 1759 1228 1600 
Q 959 1441 959 1056 
Q 959 750 1161 570 
Q 1363 391 1709 391 
Q 2188 391 2477 730 
Q 2766 1069 2766 1631 
L 2766 1759 
L 2194 1759 
z
M 3341 1997 
L 3341 0 
L 2766 0 
L 2766 531 
Q 2569 213 2275 61 
Q 1981 -91 1556 -91 
Q 1019 -91 701 211 
Q 384 513 384 1019 
Q 384 1609 779 1909 
Q 1175 2209 1959 2209 
L 2766 2209 
L 2766 2266 
Q 2766 2663 2505 2880 
Q 2244 3097 1772 3097 
Q 1472 3097 1187 3025 
Q 903 2953 641 2809 
L 641 3341 
Q 956 3463 1253 3523 
Q 1550 3584 1831 3584 
Q 2591 3584 2966 3190 
Q 3341 2797 3341 1997 
z
" transform="scale(0.015625)"/>
       <path id="DejaVuSans-6e" d="M 3513 2113 
L 3513 0 
L 2938 0 
L 2938 2094 
Q 2938 2591 2744 2837 
Q 2550 3084 2163 3084 
Q 1697 3084 1428 2787 
Q 1159 2491 1159 1978 
L 1159 0 
L 581 0 
L 581 3500 
L 1159 3500 
L 1159 2956 
Q 1366 3272 1645 3428 
Q 1925 3584 2291 3584 
Q 2894 3584 3203 3211 
Q 3513 2838 3513 2113 
z
" transform="scale(0.015625)"/>
       <path id="DejaVuSans-63" d="M 3122 3366 
L 3122 2828 
Q 2878 2963 2633 3030 
Q 2388 3097 2138 3097 
Q 1578 3097 1268 2742 
Q 959 2388 959 1747 
Q 959 1106 1268 751 
Q 1578 397 2138 397 
Q 2388 397 2633 464 
Q 2878 531 3122 666 
L 3122 134 
Q 2881 22 2623 -34 
Q 2366 -91 2075 -91 
Q 1284 -91 818 406 
Q 353 903 353 1747 
Q 353 2603 823 3093 
Q 1294 3584 2113 3584 
Q 2378 3584 2631 3529 
Q 2884 3475 3122 3366 
z
" transform="scale(0.015625)"/>
       <path id="DejaVuSans-65" d="M 3597 1894 
L 3597 1613 
L 953 1613 
Q 991 1019 1311 708 
Q 1631 397 2203 397 
Q 2534 397 2845 478 
Q 3156 559 3463 722 
L 3463 178 
Q 3153 47 2828 -22 
Q 2503 -91 2169 -91 
Q 1331 -91 842 396 
Q 353 884 353 1716 
Q 353 2575 817 3079 
Q 1281 3584 2069 3584 
Q 2775 3584 3186 3129 
Q 3597 2675 3597 1894 
z
M 3022 2063 
Q 3016 2534 2758 2815 
Q 2500 3097 2075 3097 
Q 1594 3097 1305 2825 
Q 1016 2553 972 2059 
L 3022 2063 
z
" transform="scale(0.015625)"/>
       <path id="DejaVuSans-20" transform="scale(0.015625)"/>
       <path id="DejaVuSans-5b" d="M 550 4863 
L 1875 4863 
L 1875 4416 
L 1125 4416 
L 1125 -397 
L 1875 -397 
L 1875 -844 
L 550 -844 
L 550 4863 
z
" transform="scale(0.015625)"/>
       <path id="DejaVuSans-6d" d="M 3328 2828 
Q 3544 3216 3844 3400 
Q 4144 3584 4550 3584 
Q 5097 3584 5394 3201 
Q 5691 2819 5691 2113 
L 5691 0 
L 5113 0 
L 5113 2094 
Q 5113 2597 4934 2840 
Q 4756 3084 4391 3084 
Q 3944 3084 3684 2787 
Q 3425 2491 3425 1978 
L 3425 0 
L 2847 0 
L 2847 2094 
Q 2847 2600 2669 2842 
Q 2491 3084 2119 3084 
Q 1678 3084 1418 2786 
Q 1159 2488 1159 1978 
L 1159 0 
L 581 0 
L 581 3500 
L 1159 3500 
L 1159 2956 
Q 1356 3278 1631 3431 
Q 1906 3584 2284 3584 
Q 2666 3584 2933 3390 
Q 3200 3197 3328 2828 
z
" transform="scale(0.015625)"/>
       <path id="DejaVuSans-5d" d="M 1947 4863 
L 1947 -844 
L 622 -844 
L 622 -397 
L 1369 -397 
L 1369 4416 
L 622 4416 
L 622 4863 
L 1947 4863 
z
" transform="scale(0.015625)"/>
      </defs>
      <use xlink:href="#DejaVuSans-44"/>
      <use xlink:href="#DejaVuSans-69" x="77.001953"/>
      <use xlink:href="#DejaVuSans-73" x="104.785156"/>
      <use xlink:href="#DejaVuSans-74" x="156.884766"/>
      <use xlink:href="#DejaVuSans-61" x="196.09375"/>
      <use xlink:href="#DejaVuSans-6e" x="257.373047"/>
      <use xlink:href="#DejaVuSans-63" x="320.751953"/>
      <use xlink:href="#DejaVuSans-65" x="375.732422"/>
      <use xlink:href="#DejaVuSans-20" x="437.255859"/>
      <use xlink:href="#DejaVuSans-5b" x="469.042969"/>
      <use xlink:href="#DejaVuSans-6d" x="508.056641"/>
      <use xlink:href="#DejaVuSans-5d" x="605.46875"/>
     </g>
    </g>
   </g>
   <g id="matplotlib.axis_2">
    <g id="ytick_1">
     <g id="line2d_15">
      <path d="M 62.86875 273.312 
L 419.98875 273.312 
" clip-path="url(#pe950a12c0e)" style="fill: none; stroke-dasharray: 1.85,0.8; stroke-dashoffset: 0; stroke: #ffffff; stroke-width: 0.5"/>
     </g>
     <g id="line2d_16">
      <defs>
       <path id="m98aa94b5a4" d="M 0 0 
L -3.5 0 
" style="stroke: #000000; stroke-width: 0.8"/>
      </defs>
      <g>
       <use xlink:href="#m98aa94b5a4" x="62.86875" y="273.312" style="stroke: #000000; stroke-width: 0.8"/>
      </g>
     </g>
     <g id="text_9">
      <!-- 0.0000 -->
      <g transform="translate(20.878125 277.111219) scale(0.1 -0.1)">
       <defs>
        <path id="DejaVuSans-2e" d="M 684 794 
L 1344 794 
L 1344 0 
L 684 0 
L 684 794 
z
" transform="scale(0.015625)"/>
       </defs>
       <use xlink:href="#DejaVuSans-30"/>
       <use xlink:href="#DejaVuSans-2e" x="63.623047"/>
       <use xlink:href="#DejaVuSans-30" x="95.410156"/>
       <use xlink:href="#DejaVuSans-30" x="159.033203"/>
       <use xlink:href="#DejaVuSans-30" x="222.65625"/>
       <use xlink:href="#DejaVuSans-30" x="286.279297"/>
      </g>
     </g>
    </g>
    <g id="ytick_2">
     <g id="line2d_17">
      <path d="M 62.86875 228.874203 
L 419.98875 228.874203 
" clip-path="url(#pe950a12c0e)" style="fill: none; stroke-dasharray: 1.85,0.8; stroke-dashoffset: 0; stroke: #ffffff; stroke-width: 0.5"/>
     </g>
     <g id="line2d_18">
      <g>
       <use xlink:href="#m98aa94b5a4" x="62.86875" y="228.874203" style="stroke: #000000; stroke-width: 0.8"/>
      </g>
     </g>
     <g id="text_10">
      <!-- 0.0001 -->
      <g transform="translate(20.878125 232.673422) scale(0.1 -0.1)">
       <use xlink:href="#DejaVuSans-30"/>
       <use xlink:href="#DejaVuSans-2e" x="63.623047"/>
       <use xlink:href="#DejaVuSans-30" x="95.410156"/>
       <use xlink:href="#DejaVuSans-30" x="159.033203"/>
       <use xlink:href="#DejaVuSans-30" x="222.65625"/>
       <use xlink:href="#DejaVuSans-31" x="286.279297"/>
      </g>
     </g>
    </g>
    <g id="ytick_3">
     <g id="line2d_19">
      <path d="M 62.86875 184.436406 
L 419.98875 184.436406 
" clip-path="url(#pe950a12c0e)" style="fill: none; stroke-dasharray: 1.85,0.8; stroke-dashoffset: 0; stroke: #ffffff; stroke-width: 0.5"/>
     </g>
     <g id="line2d_20">
      <g>
       <use xlink:href="#m98aa94b5a4" x="62.86875" y="184.436406" style="stroke: #000000; stroke-width: 0.8"/>
      </g>
     </g>
     <g id="text_11">
      <!-- 0.0002 -->
      <g transform="translate(20.878125 188.235624) scale(0.1 -0.1)">
       <use xlink:href="#DejaVuSans-30"/>
       <use xlink:href="#DejaVuSans-2e" x="63.623047"/>
       <use xlink:href="#DejaVuSans-30" x="95.410156"/>
       <use xlink:href="#DejaVuSans-30" x="159.033203"/>
       <use xlink:href="#DejaVuSans-30" x="222.65625"/>
       <use xlink:href="#DejaVuSans-32" x="286.279297"/>
      </g>
     </g>
    </g>
    <g id="ytick_4">
     <g id="line2d_21">
      <path d="M 62.86875 139.998609 
L 419.98875 139.998609 
" clip-path="url(#pe950a12c0e)" style="fill: none; stroke-dasharray: 1.85,0.8; stroke-dashoffset: 0; stroke: #ffffff; stroke-width: 0.5"/>
     </g>
     <g id="line2d_22">
      <g>
       <use xlink:href="#m98aa94b5a4" x="62.86875" y="139.998609" style="stroke: #000000; stroke-width: 0.8"/>
      </g>
     </g>
     <g id="text_12">
      <!-- 0.0003 -->
      <g transform="translate(20.878125 143.797827) scale(0.1 -0.1)">
       <use xlink:href="#DejaVuSans-30"/>
       <use xlink:href="#DejaVuSans-2e" x="63.623047"/>
       <use xlink:href="#DejaVuSans-30" x="95.410156"/>
       <use xlink:href="#DejaVuSans-30" x="159.033203"/>
       <use xlink:href="#DejaVuSans-30" x="222.65625"/>
       <use xlink:href="#DejaVuSans-33" x="286.279297"/>
      </g>
     </g>
    </g>
    <g id="ytick_5">
     <g id="line2d_23">
      <path d="M 62.86875 95.560811 
L 419.98875 95.560811 
" clip-path="url(#pe950a12c0e)" style="fill: none; stroke-dasharray: 1.85,0.8; stroke-dashoffset: 0; stroke: #ffffff; stroke-width: 0.5"/>
     </g>
     <g id="line2d_24">
      <g>
       <use xlink:href="#m98aa94b5a4" x="62.86875" y="95.560811" style="stroke: #000000; stroke-width: 0.8"/>
      </g>
     </g>
     <g id="text_13">
      <!-- 0.0004 -->
      <g transform="translate(20.878125 99.36003) scale(0.1 -0.1)">
       <defs>
        <path id="DejaVuSans-34" d="M 2419 4116 
L 825 1625 
L 2419 1625 
L 2419 4116 
z
M 2253 4666 
L 3047 4666 
L 3047 1625 
L 3713 1625 
L 3713 1100 
L 3047 1100 
L 3047 0 
L 2419 0 
L 2419 1100 
L 313 1100 
L 313 1709 
L 2253 4666 
z
" transform="scale(0.015625)"/>
       </defs>
       <use xlink:href="#DejaVuSans-30"/>
       <use xlink:href="#DejaVuSans-2e" x="63.623047"/>
       <use xlink:href="#DejaVuSans-30" x="95.410156"/>
       <use xlink:href="#DejaVuSans-30" x="159.033203"/>
       <use xlink:href="#DejaVuSans-30" x="222.65625"/>
       <use xlink:href="#DejaVuSans-34" x="286.279297"/>
      </g>
     </g>
    </g>
    <g id="ytick_6">
     <g id="line2d_25">
      <path d="M 62.86875 51.123014 
L 419.98875 51.123014 
" clip-path="url(#pe950a12c0e)" style="fill: none; stroke-dasharray: 1.85,0.8; stroke-dashoffset: 0; stroke: #ffffff; stroke-width: 0.5"/>
     </g>
     <g id="line2d_26">
      <g>
       <use xlink:href="#m98aa94b5a4" x="62.86875" y="51.123014" style="stroke: #000000; stroke-width: 0.8"/>
      </g>
     </g>
     <g id="text_14">
      <!-- 0.0005 -->
      <g transform="translate(20.878125 54.922233) scale(0.1 -0.1)">
       <use xlink:href="#DejaVuSans-30"/>
       <use xlink:href="#DejaVuSans-2e" x="63.623047"/>
       <use xlink:href="#DejaVuSans-30" x="95.410156"/>
       <use xlink:href="#DejaVuSans-30" x="159.033203"/>
       <use xlink:href="#DejaVuSans-30" x="222.65625"/>
       <use xlink:href="#DejaVuSans-35" x="286.279297"/>
      </g>
     </g>
    </g>
    <g id="text_15">
     <!-- Jitter [s] -->
     <g transform="translate(14.798438 160.267719) rotate(-90) scale(0.1 -0.1)">
      <defs>
       <path id="DejaVuSans-4a" d="M 628 4666 
L 1259 4666 
L 1259 325 
Q 1259 -519 939 -900 
Q 619 -1281 -91 -1281 
L -331 -1281 
L -331 -750 
L -134 -750 
Q 284 -750 456 -515 
Q 628 -281 628 325 
L 628 4666 
z
" transform="scale(0.015625)"/>
       <path id="DejaVuSans-72" d="M 2631 2963 
Q 2534 3019 2420 3045 
Q 2306 3072 2169 3072 
Q 1681 3072 1420 2755 
Q 1159 2438 1159 1844 
L 1159 0 
L 581 0 
L 581 3500 
L 1159 3500 
L 1159 2956 
Q 1341 3275 1631 3429 
Q 1922 3584 2338 3584 
Q 2397 3584 2469 3576 
Q 2541 3569 2628 3553 
L 2631 2963 
z
" transform="scale(0.015625)"/>
      </defs>
      <use xlink:href="#DejaVuSans-4a"/>
      <use xlink:href="#DejaVuSans-69" x="29.492188"/>
      <use xlink:href="#DejaVuSans-74" x="57.275391"/>
      <use xlink:href="#DejaVuSans-74" x="96.484375"/>
      <use xlink:href="#DejaVuSans-65" x="135.693359"/>
      <use xlink:href="#DejaVuSans-72" x="197.216797"/>
      <use xlink:href="#DejaVuSans-20" x="238.330078"/>
      <use xlink:href="#DejaVuSans-5b" x="270.117188"/>
      <use xlink:href="#DejaVuSans-73" x="309.130859"/>
      <use xlink:href="#DejaVuSans-5d" x="361.230469"/>
     </g>
    </g>
   </g>
   <g id="line2d_27">
    <path d="M 79.101477 180.054987 
L 100.745114 171.406947 
L 122.38875 139.976612 
L 144.032386 151.692415 
L 165.676023 150.081322 
L 187.319659 150.081322 
L 208.963295 149.869576 
L 230.606932 124.012333 
L 252.250568 100.070137 
L 273.894205 107.47103 
L 295.537841 107.379488 
L 317.181477 105.501102 
L 338.825114 105.135601 
L 360.46875 83.70103 
L 382.112386 46.555031 
L 403.756023 31.130449 
" clip-path="url(#pe950a12c0e)" style="fill: none; stroke: #003f5c; stroke-width: 1.5; stroke-linecap: square"/>
    <defs>
     <path id="m8e01e080d2" d="M 0 4 
C 1.060812 4 2.078319 3.578535 2.828427 2.828427 
C 3.578535 2.078319 4 1.060812 4 0 
C 4 -1.060812 3.578535 -2.078319 2.828427 -2.828427 
C 2.078319 -3.578535 1.060812 -4 0 -4 
C -1.060812 -4 -2.078319 -3.578535 -2.828427 -2.828427 
C -3.578535 -2.078319 -4 -1.060812 -4 0 
C -4 1.060812 -3.578535 2.078319 -2.828427 2.828427 
C -2.078319 3.578535 -1.060812 4 0 4 
z
" style="stroke: #ffffff; stroke-width: 0.75"/>
    </defs>
    <g clip-path="url(#pe950a12c0e)">
     <use xlink:href="#m8e01e080d2" x="79.101477" y="180.054987" style="fill: #003f5c; stroke: #ffffff; stroke-width: 0.75"/>
     <use xlink:href="#m8e01e080d2" x="100.745114" y="171.406947" style="fill: #003f5c; stroke: #ffffff; stroke-width: 0.75"/>
     <use xlink:href="#m8e01e080d2" x="122.38875" y="139.976612" style="fill: #003f5c; stroke: #ffffff; stroke-width: 0.75"/>
     <use xlink:href="#m8e01e080d2" x="144.032386" y="151.692415" style="fill: #003f5c; stroke: #ffffff; stroke-width: 0.75"/>
     <use xlink:href="#m8e01e080d2" x="165.676023" y="150.081322" style="fill: #003f5c; stroke: #ffffff; stroke-width: 0.75"/>
     <use xlink:href="#m8e01e080d2" x="187.319659" y="150.081322" style="fill: #003f5c; stroke: #ffffff; stroke-width: 0.75"/>
     <use xlink:href="#m8e01e080d2" x="208.963295" y="149.869576" style="fill: #003f5c; stroke: #ffffff; stroke-width: 0.75"/>
     <use xlink:href="#m8e01e080d2" x="230.606932" y="124.012333" style="fill: #003f5c; stroke: #ffffff; stroke-width: 0.75"/>
     <use xlink:href="#m8e01e080d2" x="252.250568" y="100.070137" style="fill: #003f5c; stroke: #ffffff; stroke-width: 0.75"/>
     <use xlink:href="#m8e01e080d2" x="273.894205" y="107.47103" style="fill: #003f5c; stroke: #ffffff; stroke-width: 0.75"/>
     <use xlink:href="#m8e01e080d2" x="295.537841" y="107.379488" style="fill: #003f5c; stroke: #ffffff; stroke-width: 0.75"/>
     <use xlink:href="#m8e01e080d2" x="317.181477" y="105.501102" style="fill: #003f5c; stroke: #ffffff; stroke-width: 0.75"/>
     <use xlink:href="#m8e01e080d2" x="338.825114" y="105.135601" style="fill: #003f5c; stroke: #ffffff; stroke-width: 0.75"/>
     <use xlink:href="#m8e01e080d2" x="360.46875" y="83.70103" style="fill: #003f5c; stroke: #ffffff; stroke-width: 0.75"/>
     <use xlink:href="#m8e01e080d2" x="382.112386" y="46.555031" style="fill: #003f5c; stroke: #ffffff; stroke-width: 0.75"/>
     <use xlink:href="#m8e01e080d2" x="403.756023" y="31.130449" style="fill: #003f5c; stroke: #ffffff; stroke-width: 0.75"/>
    </g>
   </g>
   <g id="line2d_28">
    <path d="M 79.101477 179.234962 
L 100.745114 170.419688 
L 122.38875 147.183089 
L 144.032386 144.378176 
L 165.676023 145.296927 
L 187.319659 145.296927 
L 208.963295 144.271747 
L 230.606932 104.614124 
L 252.250568 75.256515 
L 273.894205 103.123458 
L 295.537841 100.866907 
L 317.181477 101.869868 
L 338.825114 100.456301 
L 360.46875 79.170152 
L 382.112386 36.406327 
L 403.756023 23.367833 
" clip-path="url(#pe950a12c0e)" style="fill: none; stroke-dasharray: 6,2.25; stroke-dashoffset: 0; stroke: #003f5c; stroke-width: 1.5"/>
    <defs>
     <path id="me3c67a7371" d="M -2 4 
L 0 2 
L 2 4 
L 4 2 
L 2 0 
L 4 -2 
L 2 -4 
L 0 -2 
L -2 -4 
L -4 -2 
L -2 0 
L -4 2 
z
" style="stroke: #ffffff; stroke-width: 0.75; stroke-linejoin: miter"/>
    </defs>
    <g clip-path="url(#pe950a12c0e)">
     <use xlink:href="#me3c67a7371" x="79.101477" y="179.234962" style="fill: #003f5c; stroke: #ffffff; stroke-width: 0.75; stroke-linejoin: miter"/>
     <use xlink:href="#me3c67a7371" x="100.745114" y="170.419688" style="fill: #003f5c; stroke: #ffffff; stroke-width: 0.75; stroke-linejoin: miter"/>
     <use xlink:href="#me3c67a7371" x="122.38875" y="147.183089" style="fill: #003f5c; stroke: #ffffff; stroke-width: 0.75; stroke-linejoin: miter"/>
     <use xlink:href="#me3c67a7371" x="144.032386" y="144.378176" style="fill: #003f5c; stroke: #ffffff; stroke-width: 0.75; stroke-linejoin: miter"/>
     <use xlink:href="#me3c67a7371" x="165.676023" y="145.296927" style="fill: #003f5c; stroke: #ffffff; stroke-width: 0.75; stroke-linejoin: miter"/>
     <use xlink:href="#me3c67a7371" x="187.319659" y="145.296927" style="fill: #003f5c; stroke: #ffffff; stroke-width: 0.75; stroke-linejoin: miter"/>
     <use xlink:href="#me3c67a7371" x="208.963295" y="144.271747" style="fill: #003f5c; stroke: #ffffff; stroke-width: 0.75; stroke-linejoin: miter"/>
     <use xlink:href="#me3c67a7371" x="230.606932" y="104.614124" style="fill: #003f5c; stroke: #ffffff; stroke-width: 0.75; stroke-linejoin: miter"/>
     <use xlink:href="#me3c67a7371" x="252.250568" y="75.256515" style="fill: #003f5c; stroke: #ffffff; stroke-width: 0.75; stroke-linejoin: miter"/>
     <use xlink:href="#me3c67a7371" x="273.894205" y="103.123458" style="fill: #003f5c; stroke: #ffffff; stroke-width: 0.75; stroke-linejoin: miter"/>
     <use xlink:href="#me3c67a7371" x="295.537841" y="100.866907" style="fill: #003f5c; stroke: #ffffff; stroke-width: 0.75; stroke-linejoin: miter"/>
     <use xlink:href="#me3c67a7371" x="317.181477" y="101.869868" style="fill: #003f5c; stroke: #ffffff; stroke-width: 0.75; stroke-linejoin: miter"/>
     <use xlink:href="#me3c67a7371" x="338.825114" y="100.456301" style="fill: #003f5c; stroke: #ffffff; stroke-width: 0.75; stroke-linejoin: miter"/>
     <use xlink:href="#me3c67a7371" x="360.46875" y="79.170152" style="fill: #003f5c; stroke: #ffffff; stroke-width: 0.75; stroke-linejoin: miter"/>
     <use xlink:href="#me3c67a7371" x="382.112386" y="36.406327" style="fill: #003f5c; stroke: #ffffff; stroke-width: 0.75; stroke-linejoin: miter"/>
     <use xlink:href="#me3c67a7371" x="403.756023" y="23.367833" style="fill: #003f5c; stroke: #ffffff; stroke-width: 0.75; stroke-linejoin: miter"/>
    </g>
   </g>
   <g id="line2d_29">
    <path d="M 79.101477 263.56728 
L 100.745114 263.495624 
L 122.38875 263.401394 
L 144.032386 263.352601 
L 165.676023 188.895072 
L 187.319659 245.771231 
L 208.963295 245.697197 
L 230.606932 243.298845 
L 252.250568 180.528101 
L 273.894205 171.133507 
L 295.537841 202.908754 
L 317.181477 201.981337 
L 338.825114 181.294209 
L 360.46875 174.505447 
L 382.112386 116.159063 
L 403.756023 127.921304 
" clip-path="url(#pe950a12c0e)" style="fill: none; stroke: #bc5090; stroke-width: 1.5; stroke-linecap: square"/>
    <defs>
     <path id="mfd325d09d8" d="M 0 4 
C 1.060812 4 2.078319 3.578535 2.828427 2.828427 
C 3.578535 2.078319 4 1.060812 4 0 
C 4 -1.060812 3.578535 -2.078319 2.828427 -2.828427 
C 2.078319 -3.578535 1.060812 -4 0 -4 
C -1.060812 -4 -2.078319 -3.578535 -2.828427 -2.828427 
C -3.578535 -2.078319 -4 -1.060812 -4 0 
C -4 1.060812 -3.578535 2.078319 -2.828427 2.828427 
C -2.078319 3.578535 -1.060812 4 0 4 
z
" style="stroke: #ffffff; stroke-width: 0.75"/>
    </defs>
    <g clip-path="url(#pe950a12c0e)">
     <use xlink:href="#mfd325d09d8" x="79.101477" y="263.56728" style="fill: #bc5090; stroke: #ffffff; stroke-width: 0.75"/>
     <use xlink:href="#mfd325d09d8" x="100.745114" y="263.495624" style="fill: #bc5090; stroke: #ffffff; stroke-width: 0.75"/>
     <use xlink:href="#mfd325d09d8" x="122.38875" y="263.401394" style="fill: #bc5090; stroke: #ffffff; stroke-width: 0.75"/>
     <use xlink:href="#mfd325d09d8" x="144.032386" y="263.352601" style="fill: #bc5090; stroke: #ffffff; stroke-width: 0.75"/>
     <use xlink:href="#mfd325d09d8" x="165.676023" y="188.895072" style="fill: #bc5090; stroke: #ffffff; stroke-width: 0.75"/>
     <use xlink:href="#mfd325d09d8" x="187.319659" y="245.771231" style="fill: #bc5090; stroke: #ffffff; stroke-width: 0.75"/>
     <use xlink:href="#mfd325d09d8" x="208.963295" y="245.697197" style="fill: #bc5090; stroke: #ffffff; stroke-width: 0.75"/>
     <use xlink:href="#mfd325d09d8" x="230.606932" y="243.298845" style="fill: #bc5090; stroke: #ffffff; stroke-width: 0.75"/>
     <use xlink:href="#mfd325d09d8" x="252.250568" y="180.528101" style="fill: #bc5090; stroke: #ffffff; stroke-width: 0.75"/>
     <use xlink:href="#mfd325d09d8" x="273.894205" y="171.133507" style="fill: #bc5090; stroke: #ffffff; stroke-width: 0.75"/>
     <use xlink:href="#mfd325d09d8" x="295.537841" y="202.908754" style="fill: #bc5090; stroke: #ffffff; stroke-width: 0.75"/>
     <use xlink:href="#mfd325d09d8" x="317.181477" y="201.981337" style="fill: #bc5090; stroke: #ffffff; stroke-width: 0.75"/>
     <use xlink:href="#mfd325d09d8" x="338.825114" y="181.294209" style="fill: #bc5090; stroke: #ffffff; stroke-width: 0.75"/>
     <use xlink:href="#mfd325d09d8" x="360.46875" y="174.505447" style="fill: #bc5090; stroke: #ffffff; stroke-width: 0.75"/>
     <use xlink:href="#mfd325d09d8" x="382.112386" y="116.159063" style="fill: #bc5090; stroke: #ffffff; stroke-width: 0.75"/>
     <use xlink:href="#mfd325d09d8" x="403.756023" y="127.921304" style="fill: #bc5090; stroke: #ffffff; stroke-width: 0.75"/>
    </g>
   </g>
   <g id="line2d_30">
    <path d="M 79.101477 262.759312 
L 100.745114 261.313484 
L 122.38875 240.652774 
L 144.032386 240.489665 
L 165.676023 240.529637 
L 187.319659 244.287542 
L 208.963295 243.511569 
L 230.606932 197.251822 
L 252.250568 188.769091 
L 273.894205 218.965018 
L 295.537841 218.976128 
L 317.181477 219.290303 
L 338.825114 218.113146 
L 360.46875 201.76137 
L 382.112386 188.554012 
L 403.756023 169.691945 
" clip-path="url(#pe950a12c0e)" style="fill: none; stroke-dasharray: 6,2.25; stroke-dashoffset: 0; stroke: #bc5090; stroke-width: 1.5"/>
    <defs>
     <path id="m5345acdf9a" d="M -2 4 
L 0 2 
L 2 4 
L 4 2 
L 2 0 
L 4 -2 
L 2 -4 
L 0 -2 
L -2 -4 
L -4 -2 
L -2 0 
L -4 2 
z
" style="stroke: #ffffff; stroke-width: 0.75; stroke-linejoin: miter"/>
    </defs>
    <g clip-path="url(#pe950a12c0e)">
     <use xlink:href="#m5345acdf9a" x="79.101477" y="262.759312" style="fill: #bc5090; stroke: #ffffff; stroke-width: 0.75; stroke-linejoin: miter"/>
     <use xlink:href="#m5345acdf9a" x="100.745114" y="261.313484" style="fill: #bc5090; stroke: #ffffff; stroke-width: 0.75; stroke-linejoin: miter"/>
     <use xlink:href="#m5345acdf9a" x="122.38875" y="240.652774" style="fill: #bc5090; stroke: #ffffff; stroke-width: 0.75; stroke-linejoin: miter"/>
     <use xlink:href="#m5345acdf9a" x="144.032386" y="240.489665" style="fill: #bc5090; stroke: #ffffff; stroke-width: 0.75; stroke-linejoin: miter"/>
     <use xlink:href="#m5345acdf9a" x="165.676023" y="240.529637" style="fill: #bc5090; stroke: #ffffff; stroke-width: 0.75; stroke-linejoin: miter"/>
     <use xlink:href="#m5345acdf9a" x="187.319659" y="244.287542" style="fill: #bc5090; stroke: #ffffff; stroke-width: 0.75; stroke-linejoin: miter"/>
     <use xlink:href="#m5345acdf9a" x="208.963295" y="243.511569" style="fill: #bc5090; stroke: #ffffff; stroke-width: 0.75; stroke-linejoin: miter"/>
     <use xlink:href="#m5345acdf9a" x="230.606932" y="197.251822" style="fill: #bc5090; stroke: #ffffff; stroke-width: 0.75; stroke-linejoin: miter"/>
     <use xlink:href="#m5345acdf9a" x="252.250568" y="188.769091" style="fill: #bc5090; stroke: #ffffff; stroke-width: 0.75; stroke-linejoin: miter"/>
     <use xlink:href="#m5345acdf9a" x="273.894205" y="218.965018" style="fill: #bc5090; stroke: #ffffff; stroke-width: 0.75; stroke-linejoin: miter"/>
     <use xlink:href="#m5345acdf9a" x="295.537841" y="218.976128" style="fill: #bc5090; stroke: #ffffff; stroke-width: 0.75; stroke-linejoin: miter"/>
     <use xlink:href="#m5345acdf9a" x="317.181477" y="219.290303" style="fill: #bc5090; stroke: #ffffff; stroke-width: 0.75; stroke-linejoin: miter"/>
     <use xlink:href="#m5345acdf9a" x="338.825114" y="218.113146" style="fill: #bc5090; stroke: #ffffff; stroke-width: 0.75; stroke-linejoin: miter"/>
     <use xlink:href="#m5345acdf9a" x="360.46875" y="201.76137" style="fill: #bc5090; stroke: #ffffff; stroke-width: 0.75; stroke-linejoin: miter"/>
     <use xlink:href="#m5345acdf9a" x="382.112386" y="188.554012" style="fill: #bc5090; stroke: #ffffff; stroke-width: 0.75; stroke-linejoin: miter"/>
     <use xlink:href="#m5345acdf9a" x="403.756023" y="169.691945" style="fill: #bc5090; stroke: #ffffff; stroke-width: 0.75; stroke-linejoin: miter"/>
    </g>
   </g>
   <g id="line2d_31">
    <path d="M 79.101477 268.12208 
L 100.745114 268.057742 
L 122.38875 267.952468 
L 144.032386 267.871192 
L 165.676023 192.898473 
L 187.319659 250.786192 
L 208.963295 250.821742 
L 230.606932 247.222392 
L 252.250568 184.731695 
L 273.894205 175.051143 
L 295.537841 211.084642 
L 317.181477 209.912595 
L 338.825114 188.79442 
L 360.46875 177.924491 
L 382.112386 122.829177 
L 403.756023 134.645854 
" clip-path="url(#pe950a12c0e)" style="fill: none; stroke: #ff6361; stroke-width: 1.5; stroke-linecap: square"/>
    <defs>
     <path id="m03751b7735" d="M 0 4 
C 1.060812 4 2.078319 3.578535 2.828427 2.828427 
C 3.578535 2.078319 4 1.060812 4 0 
C 4 -1.060812 3.578535 -2.078319 2.828427 -2.828427 
C 2.078319 -3.578535 1.060812 -4 0 -4 
C -1.060812 -4 -2.078319 -3.578535 -2.828427 -2.828427 
C -3.578535 -2.078319 -4 -1.060812 -4 0 
C -4 1.060812 -3.578535 2.078319 -2.828427 2.828427 
C -2.078319 3.578535 -1.060812 4 0 4 
z
" style="stroke: #ffffff; stroke-width: 0.75"/>
    </defs>
    <g clip-path="url(#pe950a12c0e)">
     <use xlink:href="#m03751b7735" x="79.101477" y="268.12208" style="fill: #ff6361; stroke: #ffffff; stroke-width: 0.75"/>
     <use xlink:href="#m03751b7735" x="100.745114" y="268.057742" style="fill: #ff6361; stroke: #ffffff; stroke-width: 0.75"/>
     <use xlink:href="#m03751b7735" x="122.38875" y="267.952468" style="fill: #ff6361; stroke: #ffffff; stroke-width: 0.75"/>
     <use xlink:href="#m03751b7735" x="144.032386" y="267.871192" style="fill: #ff6361; stroke: #ffffff; stroke-width: 0.75"/>
     <use xlink:href="#m03751b7735" x="165.676023" y="192.898473" style="fill: #ff6361; stroke: #ffffff; stroke-width: 0.75"/>
     <use xlink:href="#m03751b7735" x="187.319659" y="250.786192" style="fill: #ff6361; stroke: #ffffff; stroke-width: 0.75"/>
     <use xlink:href="#m03751b7735" x="208.963295" y="250.821742" style="fill: #ff6361; stroke: #ffffff; stroke-width: 0.75"/>
     <use xlink:href="#m03751b7735" x="230.606932" y="247.222392" style="fill: #ff6361; stroke: #ffffff; stroke-width: 0.75"/>
     <use xlink:href="#m03751b7735" x="252.250568" y="184.731695" style="fill: #ff6361; stroke: #ffffff; stroke-width: 0.75"/>
     <use xlink:href="#m03751b7735" x="273.894205" y="175.051143" style="fill: #ff6361; stroke: #ffffff; stroke-width: 0.75"/>
     <use xlink:href="#m03751b7735" x="295.537841" y="211.084642" style="fill: #ff6361; stroke: #ffffff; stroke-width: 0.75"/>
     <use xlink:href="#m03751b7735" x="317.181477" y="209.912595" style="fill: #ff6361; stroke: #ffffff; stroke-width: 0.75"/>
     <use xlink:href="#m03751b7735" x="338.825114" y="188.79442" style="fill: #ff6361; stroke: #ffffff; stroke-width: 0.75"/>
     <use xlink:href="#m03751b7735" x="360.46875" y="177.924491" style="fill: #ff6361; stroke: #ffffff; stroke-width: 0.75"/>
     <use xlink:href="#m03751b7735" x="382.112386" y="122.829177" style="fill: #ff6361; stroke: #ffffff; stroke-width: 0.75"/>
     <use xlink:href="#m03751b7735" x="403.756023" y="134.645854" style="fill: #ff6361; stroke: #ffffff; stroke-width: 0.75"/>
    </g>
   </g>
   <g id="line2d_32">
    <path d="M 79.101477 263.551875 
L 100.745114 263.421524 
L 122.38875 263.232797 
L 144.032386 263.112126 
L 165.676023 263.26477 
L 187.319659 260.53069 
L 208.963295 259.372841 
L 230.606932 209.10516 
L 252.250568 194.431799 
L 273.894205 243.810835 
L 295.537841 243.380277 
L 317.181477 243.342239 
L 338.825114 241.49727 
L 360.46875 218.724388 
L 382.112386 212.179811 
L 403.756023 181.574834 
" clip-path="url(#pe950a12c0e)" style="fill: none; stroke-dasharray: 6,2.25; stroke-dashoffset: 0; stroke: #ff6361; stroke-width: 1.5"/>
    <defs>
     <path id="mcee15d90be" d="M -2 4 
L 0 2 
L 2 4 
L 4 2 
L 2 0 
L 4 -2 
L 2 -4 
L 0 -2 
L -2 -4 
L -4 -2 
L -2 0 
L -4 2 
z
" style="stroke: #ffffff; stroke-width: 0.75; stroke-linejoin: miter"/>
    </defs>
    <g clip-path="url(#pe950a12c0e)">
     <use xlink:href="#mcee15d90be" x="79.101477" y="263.551875" style="fill: #ff6361; stroke: #ffffff; stroke-width: 0.75; stroke-linejoin: miter"/>
     <use xlink:href="#mcee15d90be" x="100.745114" y="263.421524" style="fill: #ff6361; stroke: #ffffff; stroke-width: 0.75; stroke-linejoin: miter"/>
     <use xlink:href="#mcee15d90be" x="122.38875" y="263.232797" style="fill: #ff6361; stroke: #ffffff; stroke-width: 0.75; stroke-linejoin: miter"/>
     <use xlink:href="#mcee15d90be" x="144.032386" y="263.112126" style="fill: #ff6361; stroke: #ffffff; stroke-width: 0.75; stroke-linejoin: miter"/>
     <use xlink:href="#mcee15d90be" x="165.676023" y="263.26477" style="fill: #ff6361; stroke: #ffffff; stroke-width: 0.75; stroke-linejoin: miter"/>
     <use xlink:href="#mcee15d90be" x="187.319659" y="260.53069" style="fill: #ff6361; stroke: #ffffff; stroke-width: 0.75; stroke-linejoin: miter"/>
     <use xlink:href="#mcee15d90be" x="208.963295" y="259.372841" style="fill: #ff6361; stroke: #ffffff; stroke-width: 0.75; stroke-linejoin: miter"/>
     <use xlink:href="#mcee15d90be" x="230.606932" y="209.10516" style="fill: #ff6361; stroke: #ffffff; stroke-width: 0.75; stroke-linejoin: miter"/>
     <use xlink:href="#mcee15d90be" x="252.250568" y="194.431799" style="fill: #ff6361; stroke: #ffffff; stroke-width: 0.75; stroke-linejoin: miter"/>
     <use xlink:href="#mcee15d90be" x="273.894205" y="243.810835" style="fill: #ff6361; stroke: #ffffff; stroke-width: 0.75; stroke-linejoin: miter"/>
     <use xlink:href="#mcee15d90be" x="295.537841" y="243.380277" style="fill: #ff6361; stroke: #ffffff; stroke-width: 0.75; stroke-linejoin: miter"/>
     <use xlink:href="#mcee15d90be" x="317.181477" y="243.342239" style="fill: #ff6361; stroke: #ffffff; stroke-width: 0.75; stroke-linejoin: miter"/>
     <use xlink:href="#mcee15d90be" x="338.825114" y="241.49727" style="fill: #ff6361; stroke: #ffffff; stroke-width: 0.75; stroke-linejoin: miter"/>
     <use xlink:href="#mcee15d90be" x="360.46875" y="218.724388" style="fill: #ff6361; stroke: #ffffff; stroke-width: 0.75; stroke-linejoin: miter"/>
     <use xlink:href="#mcee15d90be" x="382.112386" y="212.179811" style="fill: #ff6361; stroke: #ffffff; stroke-width: 0.75; stroke-linejoin: miter"/>
     <use xlink:href="#mcee15d90be" x="403.756023" y="181.574834" style="fill: #ff6361; stroke: #ffffff; stroke-width: 0.75; stroke-linejoin: miter"/>
    </g>
   </g>
   <g id="line2d_33">
    <path d="M 79.101477 263.883425 
L 100.745114 263.820775 
L 122.38875 263.763962 
L 144.032386 263.238618 
L 165.676023 205.640567 
L 187.319659 244.780423 
L 208.963295 244.014249 
L 230.606932 220.215498 
L 252.250568 176.534477 
L 273.894205 183.592976 
L 403.756023 105.302021 
" clip-path="url(#pe950a12c0e)" style="fill: none; stroke: #ffa600; stroke-width: 1.5; stroke-linecap: square"/>
    <defs>
     <path id="mcad2bc8bcf" d="M 0 4 
C 1.060812 4 2.078319 3.578535 2.828427 2.828427 
C 3.578535 2.078319 4 1.060812 4 0 
C 4 -1.060812 3.578535 -2.078319 2.828427 -2.828427 
C 2.078319 -3.578535 1.060812 -4 0 -4 
C -1.060812 -4 -2.078319 -3.578535 -2.828427 -2.828427 
C -3.578535 -2.078319 -4 -1.060812 -4 0 
C -4 1.060812 -3.578535 2.078319 -2.828427 2.828427 
C -2.078319 3.578535 -1.060812 4 0 4 
z
" style="stroke: #ffffff; stroke-width: 0.75"/>
    </defs>
    <g clip-path="url(#pe950a12c0e)">
     <use xlink:href="#mcad2bc8bcf" x="79.101477" y="263.883425" style="fill: #ffa600; stroke: #ffffff; stroke-width: 0.75"/>
     <use xlink:href="#mcad2bc8bcf" x="100.745114" y="263.820775" style="fill: #ffa600; stroke: #ffffff; stroke-width: 0.75"/>
     <use xlink:href="#mcad2bc8bcf" x="122.38875" y="263.763962" style="fill: #ffa600; stroke: #ffffff; stroke-width: 0.75"/>
     <use xlink:href="#mcad2bc8bcf" x="144.032386" y="263.238618" style="fill: #ffa600; stroke: #ffffff; stroke-width: 0.75"/>
     <use xlink:href="#mcad2bc8bcf" x="165.676023" y="205.640567" style="fill: #ffa600; stroke: #ffffff; stroke-width: 0.75"/>
     <use xlink:href="#mcad2bc8bcf" x="187.319659" y="244.780423" style="fill: #ffa600; stroke: #ffffff; stroke-width: 0.75"/>
     <use xlink:href="#mcad2bc8bcf" x="208.963295" y="244.014249" style="fill: #ffa600; stroke: #ffffff; stroke-width: 0.75"/>
     <use xlink:href="#mcad2bc8bcf" x="230.606932" y="220.215498" style="fill: #ffa600; stroke: #ffffff; stroke-width: 0.75"/>
     <use xlink:href="#mcad2bc8bcf" x="252.250568" y="176.534477" style="fill: #ffa600; stroke: #ffffff; stroke-width: 0.75"/>
     <use xlink:href="#mcad2bc8bcf" x="273.894205" y="183.592976" style="fill: #ffa600; stroke: #ffffff; stroke-width: 0.75"/>
     <use xlink:href="#mcad2bc8bcf" x="403.756023" y="105.302021" style="fill: #ffa600; stroke: #ffffff; stroke-width: 0.75"/>
    </g>
   </g>
   <g id="line2d_34">
    <path d="M 79.101477 262.335064 
L 100.745114 261.078074 
L 122.38875 240.939398 
L 144.032386 241.093597 
L 165.676023 241.451055 
L 187.319659 244.227817 
L 208.963295 243.307466 
L 230.606932 196.352401 
L 252.250568 189.121483 
L 273.894205 218.484201 
L 403.756023 169.475977 
" clip-path="url(#pe950a12c0e)" style="fill: none; stroke-dasharray: 6,2.25; stroke-dashoffset: 0; stroke: #ffa600; stroke-width: 1.5"/>
    <defs>
     <path id="m58b42e0db1" d="M -2 4 
L 0 2 
L 2 4 
L 4 2 
L 2 0 
L 4 -2 
L 2 -4 
L 0 -2 
L -2 -4 
L -4 -2 
L -2 0 
L -4 2 
z
" style="stroke: #ffffff; stroke-width: 0.75; stroke-linejoin: miter"/>
    </defs>
    <g clip-path="url(#pe950a12c0e)">
     <use xlink:href="#m58b42e0db1" x="79.101477" y="262.335064" style="fill: #ffa600; stroke: #ffffff; stroke-width: 0.75; stroke-linejoin: miter"/>
     <use xlink:href="#m58b42e0db1" x="100.745114" y="261.078074" style="fill: #ffa600; stroke: #ffffff; stroke-width: 0.75; stroke-linejoin: miter"/>
     <use xlink:href="#m58b42e0db1" x="122.38875" y="240.939398" style="fill: #ffa600; stroke: #ffffff; stroke-width: 0.75; stroke-linejoin: miter"/>
     <use xlink:href="#m58b42e0db1" x="144.032386" y="241.093597" style="fill: #ffa600; stroke: #ffffff; stroke-width: 0.75; stroke-linejoin: miter"/>
     <use xlink:href="#m58b42e0db1" x="165.676023" y="241.451055" style="fill: #ffa600; stroke: #ffffff; stroke-width: 0.75; stroke-linejoin: miter"/>
     <use xlink:href="#m58b42e0db1" x="187.319659" y="244.227817" style="fill: #ffa600; stroke: #ffffff; stroke-width: 0.75; stroke-linejoin: miter"/>
     <use xlink:href="#m58b42e0db1" x="208.963295" y="243.307466" style="fill: #ffa600; stroke: #ffffff; stroke-width: 0.75; stroke-linejoin: miter"/>
     <use xlink:href="#m58b42e0db1" x="230.606932" y="196.352401" style="fill: #ffa600; stroke: #ffffff; stroke-width: 0.75; stroke-linejoin: miter"/>
     <use xlink:href="#m58b42e0db1" x="252.250568" y="189.121483" style="fill: #ffa600; stroke: #ffffff; stroke-width: 0.75; stroke-linejoin: miter"/>
     <use xlink:href="#m58b42e0db1" x="273.894205" y="218.484201" style="fill: #ffa600; stroke: #ffffff; stroke-width: 0.75; stroke-linejoin: miter"/>
     <use xlink:href="#m58b42e0db1" x="403.756023" y="169.475977" style="fill: #ffa600; stroke: #ffffff; stroke-width: 0.75; stroke-linejoin: miter"/>
    </g>
   </g>
   <g id="line2d_35"/>
   <g id="line2d_36"/>
   <g id="line2d_37"/>
   <g id="line2d_38"/>
   <g id="line2d_39"/>
   <g id="line2d_40"/>
   <g id="line2d_41"/>
   <g id="line2d_42"/>
   <g id="patch_3">
    <path d="M 62.86875 273.312 
L 62.86875 7.2 
" style="fill: none; stroke: #000000; stroke-width: 0.8; stroke-linejoin: miter; stroke-linecap: square"/>
   </g>
   <g id="patch_4">
    <path d="M 419.98875 273.312 
L 419.98875 7.2 
" style="fill: none; stroke: #000000; stroke-width: 0.8; stroke-linejoin: miter; stroke-linecap: square"/>
   </g>
   <g id="patch_5">
    <path d="M 62.86875 273.312 
L 419.98875 273.312 
" style="fill: none; stroke: #000000; stroke-width: 0.8; stroke-linejoin: miter; stroke-linecap: square"/>
   </g>
   <g id="patch_6">
    <path d="M 62.86875 7.2 
L 419.98875 7.2 
" style="fill: none; stroke: #000000; stroke-width: 0.8; stroke-linejoin: miter; stroke-linecap: square"/>
   </g>
   <g id="legend_1">
    <g id="patch_7">
     <path d="M 71.26875 87.255 
L 118.90875 87.255 
Q 121.30875 87.255 121.30875 84.855 
L 121.30875 15.6 
Q 121.30875 13.2 118.90875 13.2 
L 71.26875 13.2 
Q 68.86875 13.2 68.86875 15.6 
L 68.86875 84.855 
Q 68.86875 87.255 71.26875 87.255 
z
" style="fill: #ffffff; opacity: 0.8; stroke: #cccccc; stroke-linejoin: miter"/>
    </g>
    <g id="line2d_43">
     <path d="M 73.66875 22.918125 
L 85.66875 22.918125 
L 97.66875 22.918125 
" style="fill: none; stroke: #003f5c; stroke-width: 1.5; stroke-linecap: square"/>
    </g>
    <g id="text_16">
     <!-- A -->
     <g transform="translate(107.26875 27.118125) scale(0.12 -0.12)">
      <defs>
       <path id="DejaVuSans-41" d="M 2188 4044 
L 1331 1722 
L 3047 1722 
L 2188 4044 
z
M 1831 4666 
L 2547 4666 
L 4325 0 
L 3669 0 
L 3244 1197 
L 1141 1197 
L 716 0 
L 50 0 
L 1831 4666 
z
" transform="scale(0.015625)"/>
      </defs>
      <use xlink:href="#DejaVuSans-41"/>
     </g>
    </g>
    <g id="line2d_44">
     <path d="M 73.66875 40.531875 
L 85.66875 40.531875 
L 97.66875 40.531875 
" style="fill: none; stroke: #bc5090; stroke-width: 1.5; stroke-linecap: square"/>
    </g>
    <g id="text_17">
     <!-- B -->
     <g transform="translate(107.26875 44.731875) scale(0.12 -0.12)">
      <defs>
       <path id="DejaVuSans-42" d="M 1259 2228 
L 1259 519 
L 2272 519 
Q 2781 519 3026 730 
Q 3272 941 3272 1375 
Q 3272 1813 3026 2020 
Q 2781 2228 2272 2228 
L 1259 2228 
z
M 1259 4147 
L 1259 2741 
L 2194 2741 
Q 2656 2741 2882 2914 
Q 3109 3088 3109 3444 
Q 3109 3797 2882 3972 
Q 2656 4147 2194 4147 
L 1259 4147 
z
M 628 4666 
L 2241 4666 
Q 2963 4666 3353 4366 
Q 3744 4066 3744 3513 
Q 3744 3084 3544 2831 
Q 3344 2578 2956 2516 
Q 3422 2416 3680 2098 
Q 3938 1781 3938 1306 
Q 3938 681 3513 340 
Q 3088 0 2303 0 
L 628 0 
L 628 4666 
z
" transform="scale(0.015625)"/>
      </defs>
      <use xlink:href="#DejaVuSans-42"/>
     </g>
    </g>
    <g id="line2d_45">
     <path d="M 73.66875 58.145625 
L 85.66875 58.145625 
L 97.66875 58.145625 
" style="fill: none; stroke: #ff6361; stroke-width: 1.5; stroke-linecap: square"/>
    </g>
    <g id="text_18">
     <!-- C -->
     <g transform="translate(107.26875 62.345625) scale(0.12 -0.12)">
      <defs>
       <path id="DejaVuSans-43" d="M 4122 4306 
L 4122 3641 
Q 3803 3938 3442 4084 
Q 3081 4231 2675 4231 
Q 1875 4231 1450 3742 
Q 1025 3253 1025 2328 
Q 1025 1406 1450 917 
Q 1875 428 2675 428 
Q 3081 428 3442 575 
Q 3803 722 4122 1019 
L 4122 359 
Q 3791 134 3420 21 
Q 3050 -91 2638 -91 
Q 1578 -91 968 557 
Q 359 1206 359 2328 
Q 359 3453 968 4101 
Q 1578 4750 2638 4750 
Q 3056 4750 3426 4639 
Q 3797 4528 4122 4306 
z
" transform="scale(0.015625)"/>
      </defs>
      <use xlink:href="#DejaVuSans-43"/>
     </g>
    </g>
    <g id="line2d_46">
     <path d="M 73.66875 75.759375 
L 85.66875 75.759375 
L 97.66875 75.759375 
" style="fill: none; stroke: #ffa600; stroke-width: 1.5; stroke-linecap: square"/>
    </g>
    <g id="text_19">
     <!-- D -->
     <g transform="translate(107.26875 79.959375) scale(0.12 -0.12)">
      <use xlink:href="#DejaVuSans-44"/>
     </g>
    </g>
   </g>
  </g>
 </g>
 <defs>
  <clipPath id="pe950a12c0e">
   <rect x="62.86875" y="7.2" width="357.12" height="266.112"/>
  </clipPath>
 </defs>
</svg>
