<?xml version="1.0" encoding="utf-8" standalone="no"?>
<!DOCTYPE svg PUBLIC "-//W3C//DTD SVG 1.1//EN"
  "http://www.w3.org/Graphics/SVG/1.1/DTD/svg11.dtd">
<svg xmlns:xlink="http://www.w3.org/1999/xlink" width="404.923125pt" height="310.86825pt" viewBox="0 0 404.923125 310.86825" xmlns="http://www.w3.org/2000/svg" version="1.1">
 <metadata>
  <rdf:RDF xmlns:dc="http://purl.org/dc/elements/1.1/" xmlns:cc="http://creativecommons.org/ns#" xmlns:rdf="http://www.w3.org/1999/02/22-rdf-syntax-ns#">
   <cc:Work>
    <dc:type rdf:resource="http://purl.org/dc/dcmitype/StillImage"/>
    <dc:date>2025-05-02T17:09:32.776390</dc:date>
    <dc:format>image/svg+xml</dc:format>
    <dc:creator>
     <cc:Agent>
      <dc:title>Matplotlib v3.9.2, https://matplotlib.org/</dc:title>
     </cc:Agent>
    </dc:creator>
   </cc:Work>
  </rdf:RDF>
 </metadata>
 <defs>
  <style type="text/css">*{stroke-linejoin: round; stroke-linecap: butt}</style>
 </defs>
 <g id="figure_1">
  <g id="patch_1">
   <path d="M 0 310.86825 
L 404.923125 310.86825 
L 404.923125 0 
L 0 0 
z
" style="fill: #ffffff"/>
  </g>
  <g id="axes_1">
   <g id="patch_2">
    <path d="M 40.603125 273.312 
L 397.723125 273.312 
L 397.723125 7.2 
L 40.603125 7.2 
z
" style="fill: #ffffff"/>
   </g>
   <g id="PolyCollection_1">
    <defs>
     <path id="m901ec89f60" d="M 56.835852 -191.826925 
L 56.835852 -191.129267 
L 73.06858 -210.794684 
L 89.301307 -211.232666 
L 105.534034 -211.489166 
L 121.766761 -224.700401 
L 137.999489 -234.21385 
L 154.232216 -234.446974 
L 170.464943 -245.988542 
L 186.69767 -257.392967 
L 202.930398 -257.650675 
L 219.163125 -257.82212 
L 235.395852 -258.2864 
L 251.62858 -258.356718 
L 267.861307 -259.267365 
L 284.094034 -268.032274 
L 300.326761 -282.072371 
L 316.559489 -282.146787 
L 332.792216 -281.812155 
L 349.024943 -281.900895 
L 365.25767 -281.922556 
L 381.490398 -288.971935 
L 381.490398 -289.401469 
L 381.490398 -289.401469 
L 365.25767 -282.35816 
L 349.024943 -282.378578 
L 332.792216 -282.602237 
L 316.559489 -282.48072 
L 300.326761 -282.431682 
L 284.094034 -268.606446 
L 267.861307 -259.822036 
L 251.62858 -258.931081 
L 235.395852 -258.769863 
L 219.163125 -258.785997 
L 202.930398 -258.695416 
L 186.69767 -258.221353 
L 170.464943 -246.44088 
L 154.232216 -234.996881 
L 137.999489 -234.827977 
L 121.766761 -225.543715 
L 105.534034 -212.160858 
L 89.301307 -211.966277 
L 73.06858 -211.753861 
L 56.835852 -191.826925 
z
" style="stroke: #003f5c; stroke-opacity: 0.2"/>
    </defs>
    <g clip-path="url(#pddb2cc6e70)">
     <use xlink:href="#m901ec89f60" x="0" y="310.86825" style="fill: #003f5c; fill-opacity: 0.2; stroke: #003f5c; stroke-opacity: 0.2"/>
    </g>
   </g>
   <g id="PolyCollection_2">
    <defs>
     <path id="m8f28daef6c" d="M 56.835852 -190.944546 
L 56.835852 -190.47513 
L 73.06858 -210.000599 
L 89.301307 -210.189576 
L 105.534034 -210.510234 
L 121.766761 -223.818657 
L 137.999489 -233.293357 
L 154.232216 -233.369329 
L 170.464943 -244.982613 
L 186.69767 -256.905185 
L 202.930398 -257.352266 
L 219.163125 -257.511499 
L 235.395852 -257.609005 
L 251.62858 -257.587471 
L 267.861307 -258.850218 
L 284.094034 -267.147862 
L 300.326761 -281.568232 
L 316.559489 -281.346033 
L 332.792216 -281.12339 
L 349.024943 -281.237983 
L 365.25767 -281.220832 
L 381.490398 -288.624599 
L 381.490398 -289.079033 
L 381.490398 -289.079033 
L 365.25767 -281.927828 
L 349.024943 -281.708678 
L 332.792216 -281.826687 
L 316.559489 -281.781283 
L 300.326761 -282.005134 
L 284.094034 -267.776472 
L 267.861307 -259.292551 
L 251.62858 -257.925152 
L 235.395852 -258.039364 
L 219.163125 -257.962503 
L 202.930398 -258.156244 
L 186.69767 -257.435209 
L 170.464943 -245.484562 
L 154.232216 -234.0701 
L 137.999489 -234.016615 
L 121.766761 -224.437993 
L 105.534034 -211.183055 
L 89.301307 -211.040255 
L 73.06858 -210.806359 
L 56.835852 -190.944546 
z
" style="stroke: #003f5c; stroke-opacity: 0.2"/>
    </defs>
    <g clip-path="url(#pddb2cc6e70)">
     <use xlink:href="#m8f28daef6c" x="0" y="310.86825" style="fill: #003f5c; fill-opacity: 0.2; stroke: #003f5c; stroke-opacity: 0.2"/>
    </g>
   </g>
   <g id="PolyCollection_3">
    <defs>
     <path id="m43371a6dcb" d="M 56.835852 -38.798172 
L 56.835852 -38.773966 
L 73.06858 -40.565158 
L 89.301307 -41.12146 
L 105.534034 -90.212976 
L 121.766761 -115.349508 
L 137.999489 -140.929432 
L 154.232216 -141.171253 
L 170.464943 -141.374147 
L 186.69767 -162.986312 
L 202.930398 -194.848732 
L 219.163125 -194.879903 
L 235.395852 -195.054969 
L 251.62858 -210.837434 
L 267.861307 -211.909934 
L 284.094034 -227.05184 
L 300.326761 -259.080801 
L 316.559489 -259.032207 
L 332.792216 -258.99257 
L 349.024943 -258.983545 
L 365.25767 -259.019884 
L 381.490398 -259.3333 
L 381.490398 -276.83879 
L 381.490398 -276.83879 
L 365.25767 -272.679582 
L 349.024943 -273.235957 
L 332.792216 -259.009724 
L 316.559489 -259.045674 
L 300.326761 -259.106274 
L 284.094034 -227.102092 
L 267.861307 -211.998419 
L 251.62858 -210.900003 
L 235.395852 -195.138398 
L 219.163125 -194.906851 
L 202.930398 -194.938597 
L 186.69767 -163.041176 
L 170.464943 -141.479403 
L 154.232216 -141.197875 
L 137.999489 -140.954841 
L 121.766761 -115.409541 
L 105.534034 -90.315928 
L 89.301307 -41.18906 
L 73.06858 -40.62128 
L 56.835852 -38.798172 
z
" style="stroke: #bc5090; stroke-opacity: 0.2"/>
    </defs>
    <g clip-path="url(#pddb2cc6e70)">
     <use xlink:href="#m43371a6dcb" x="0" y="310.86825" style="fill: #bc5090; fill-opacity: 0.2; stroke: #bc5090; stroke-opacity: 0.2"/>
    </g>
   </g>
   <g id="PolyCollection_4">
    <defs>
     <path id="md7800d7cec" d="M 56.835852 -51.708146 
L 56.835852 -51.691509 
L 73.06858 -51.688359 
L 89.301307 -51.688359 
L 105.534034 -51.685055 
L 121.766761 -79.673271 
L 137.999489 -99.380104 
L 154.232216 -99.506957 
L 170.464943 -123.609298 
L 186.69767 -148.324355 
L 202.930398 -148.347936 
L 219.163125 -148.349704 
L 235.395852 -148.35251 
L 251.62858 -148.489208 
L 267.861307 -151.169568 
L 284.094034 -169.910301 
L 300.326761 -200.021813 
L 316.559489 -199.970339 
L 332.792216 -199.877915 
L 349.024943 -199.792097 
L 365.25767 -199.859557 
L 381.490398 -214.87252 
L 381.490398 -259.863769 
L 381.490398 -259.863769 
L 365.25767 -249.375968 
L 349.024943 -249.342042 
L 332.792216 -199.906309 
L 316.559489 -200.009595 
L 300.326761 -200.059015 
L 284.094034 -169.928849 
L 267.861307 -151.200249 
L 251.62858 -148.524399 
L 235.395852 -148.376966 
L 219.163125 -148.365535 
L 202.930398 -148.384779 
L 186.69767 -148.375251 
L 170.464943 -123.630197 
L 154.232216 -99.551359 
L 137.999489 -99.453662 
L 121.766761 -79.709923 
L 105.534034 -51.705942 
L 89.301307 -51.706673 
L 73.06858 -51.706673 
L 56.835852 -51.708146 
z
" style="stroke: #bc5090; stroke-opacity: 0.2"/>
    </defs>
    <g clip-path="url(#pddb2cc6e70)">
     <use xlink:href="#md7800d7cec" x="0" y="310.86825" style="fill: #bc5090; fill-opacity: 0.2; stroke: #bc5090; stroke-opacity: 0.2"/>
    </g>
   </g>
   <g id="PolyCollection_5">
    <defs>
     <path id="m0586e8d889" d="M 56.835852 -38.79619 
L 56.835852 -38.559253 
L 73.06858 -40.003308 
L 89.301307 -46.95299 
L 105.534034 -89.947455 
L 121.766761 -120.471074 
L 137.999489 -140.597595 
L 154.232216 -140.837516 
L 170.464943 -145.672658 
L 186.69767 -169.363379 
L 202.930398 -194.600216 
L 219.163125 -194.936501 
L 235.395852 -198.26853 
L 251.62858 -214.07653 
L 267.861307 -215.237135 
L 284.094034 -233.543415 
L 300.326761 -258.93756 
L 316.559489 -258.888776 
L 332.792216 -258.882677 
L 349.024943 -259.151882 
L 365.25767 -270.136556 
L 381.490398 -272.049003 
L 381.490398 -291.034611 
L 381.490398 -291.034611 
L 365.25767 -291.044012 
L 349.024943 -273.487832 
L 332.792216 -258.982364 
L 316.559489 -259.069113 
L 300.326761 -259.113642 
L 284.094034 -258.986472 
L 267.861307 -227.736419 
L 251.62858 -226.558727 
L 235.395852 -210.749393 
L 219.163125 -195.001611 
L 202.930398 -194.92043 
L 186.69767 -194.476223 
L 170.464943 -162.471533 
L 154.232216 -141.270861 
L 137.999489 -140.950458 
L 121.766761 -140.56134 
L 105.534034 -90.3404 
L 89.301307 -69.344516 
L 73.06858 -40.668061 
L 56.835852 -38.79619 
z
" style="stroke: #ffa600; stroke-opacity: 0.2"/>
    </defs>
    <g clip-path="url(#pddb2cc6e70)">
     <use xlink:href="#m0586e8d889" x="0" y="310.86825" style="fill: #ffa600; fill-opacity: 0.2; stroke: #ffa600; stroke-opacity: 0.2"/>
    </g>
   </g>
   <g id="PolyCollection_6">
    <defs>
     <path id="mc3414e6af5" d="M 56.835852 -52.555994 
L 56.835852 -52.543354 
L 73.06858 -52.446718 
L 89.301307 -52.461532 
L 105.534034 -52.445308 
L 121.766761 -80.578264 
L 137.999489 -100.216113 
L 154.232216 -100.330134 
L 170.464943 -124.287074 
L 186.69767 -148.999732 
L 202.930398 -149.007799 
L 219.163125 -148.976229 
L 235.395852 -148.984931 
L 251.62858 -149.137765 
L 267.861307 -151.83572 
L 284.094034 -170.520299 
L 300.326761 -200.543113 
L 316.559489 -200.469238 
L 332.792216 -200.381422 
L 349.024943 -200.279627 
L 365.25767 -200.380358 
L 381.490398 -215.246282 
L 381.490398 -259.880793 
L 381.490398 -259.880793 
L 365.25767 -249.912784 
L 349.024943 -249.037392 
L 332.792216 -200.412643 
L 316.559489 -200.504561 
L 300.326761 -200.573286 
L 284.094034 -170.571974 
L 267.861307 -151.894224 
L 251.62858 -149.195188 
L 235.395852 -149.047437 
L 219.163125 -149.021329 
L 202.930398 -149.058363 
L 186.69767 -149.060332 
L 170.464943 -124.345151 
L 154.232216 -100.375107 
L 137.999489 -100.254226 
L 121.766761 -80.629018 
L 105.534034 -52.534556 
L 89.301307 -52.545876 
L 73.06858 -52.537376 
L 56.835852 -52.555994 
z
" style="stroke: #ffa600; stroke-opacity: 0.2"/>
    </defs>
    <g clip-path="url(#pddb2cc6e70)">
     <use xlink:href="#mc3414e6af5" x="0" y="310.86825" style="fill: #ffa600; fill-opacity: 0.2; stroke: #ffa600; stroke-opacity: 0.2"/>
    </g>
   </g>
   <g id="matplotlib.axis_1">
    <g id="xtick_1">
     <g id="line2d_1">
      <path d="M 48.719489 273.312 
L 48.719489 7.2 
" clip-path="url(#pddb2cc6e70)" style="fill: none; stroke-dasharray: 1.85,0.8; stroke-dashoffset: 0; stroke: #ffffff; stroke-width: 0.5"/>
     </g>
     <g id="line2d_2">
      <defs>
       <path id="m2f011064ba" d="M 0 0 
L 0 3.5 
" style="stroke: #000000; stroke-width: 0.8"/>
      </defs>
      <g>
       <use xlink:href="#m2f011064ba" x="48.719489" y="273.312" style="stroke: #000000; stroke-width: 0.8"/>
      </g>
     </g>
     <g id="text_1">
      <!-- 0 -->
      <g transform="translate(45.538239 287.910437) scale(0.1 -0.1)">
       <defs>
        <path id="DejaVuSans-30" d="M 2034 4250 
Q 1547 4250 1301 3770 
Q 1056 3291 1056 2328 
Q 1056 1369 1301 889 
Q 1547 409 2034 409 
Q 2525 409 2770 889 
Q 3016 1369 3016 2328 
Q 3016 3291 2770 3770 
Q 2525 4250 2034 4250 
z
M 2034 4750 
Q 2819 4750 3233 4129 
Q 3647 3509 3647 2328 
Q 3647 1150 3233 529 
Q 2819 -91 2034 -91 
Q 1250 -91 836 529 
Q 422 1150 422 2328 
Q 422 3509 836 4129 
Q 1250 4750 2034 4750 
z
" transform="scale(0.015625)"/>
       </defs>
       <use xlink:href="#DejaVuSans-30"/>
      </g>
     </g>
    </g>
    <g id="xtick_2">
     <g id="line2d_3">
      <path d="M 89.301307 273.312 
L 89.301307 7.2 
" clip-path="url(#pddb2cc6e70)" style="fill: none; stroke-dasharray: 1.85,0.8; stroke-dashoffset: 0; stroke: #ffffff; stroke-width: 0.5"/>
     </g>
     <g id="line2d_4">
      <g>
       <use xlink:href="#m2f011064ba" x="89.301307" y="273.312" style="stroke: #000000; stroke-width: 0.8"/>
      </g>
     </g>
     <g id="text_2">
      <!-- 5 -->
      <g transform="translate(86.120057 287.910437) scale(0.1 -0.1)">
       <defs>
        <path id="DejaVuSans-35" d="M 691 4666 
L 3169 4666 
L 3169 4134 
L 1269 4134 
L 1269 2991 
Q 1406 3038 1543 3061 
Q 1681 3084 1819 3084 
Q 2600 3084 3056 2656 
Q 3513 2228 3513 1497 
Q 3513 744 3044 326 
Q 2575 -91 1722 -91 
Q 1428 -91 1123 -41 
Q 819 9 494 109 
L 494 744 
Q 775 591 1075 516 
Q 1375 441 1709 441 
Q 2250 441 2565 725 
Q 2881 1009 2881 1497 
Q 2881 1984 2565 2268 
Q 2250 2553 1709 2553 
Q 1456 2553 1204 2497 
Q 953 2441 691 2322 
L 691 4666 
z
" transform="scale(0.015625)"/>
       </defs>
       <use xlink:href="#DejaVuSans-35"/>
      </g>
     </g>
    </g>
    <g id="xtick_3">
     <g id="line2d_5">
      <path d="M 129.883125 273.312 
L 129.883125 7.2 
" clip-path="url(#pddb2cc6e70)" style="fill: none; stroke-dasharray: 1.85,0.8; stroke-dashoffset: 0; stroke: #ffffff; stroke-width: 0.5"/>
     </g>
     <g id="line2d_6">
      <g>
       <use xlink:href="#m2f011064ba" x="129.883125" y="273.312" style="stroke: #000000; stroke-width: 0.8"/>
      </g>
     </g>
     <g id="text_3">
      <!-- 10 -->
      <g transform="translate(123.520625 287.910437) scale(0.1 -0.1)">
       <defs>
        <path id="DejaVuSans-31" d="M 794 531 
L 1825 531 
L 1825 4091 
L 703 3866 
L 703 4441 
L 1819 4666 
L 2450 4666 
L 2450 531 
L 3481 531 
L 3481 0 
L 794 0 
L 794 531 
z
" transform="scale(0.015625)"/>
       </defs>
       <use xlink:href="#DejaVuSans-31"/>
       <use xlink:href="#DejaVuSans-30" x="63.623047"/>
      </g>
     </g>
    </g>
    <g id="xtick_4">
     <g id="line2d_7">
      <path d="M 170.464943 273.312 
L 170.464943 7.2 
" clip-path="url(#pddb2cc6e70)" style="fill: none; stroke-dasharray: 1.85,0.8; stroke-dashoffset: 0; stroke: #ffffff; stroke-width: 0.5"/>
     </g>
     <g id="line2d_8">
      <g>
       <use xlink:href="#m2f011064ba" x="170.464943" y="273.312" style="stroke: #000000; stroke-width: 0.8"/>
      </g>
     </g>
     <g id="text_4">
      <!-- 15 -->
      <g transform="translate(164.102443 287.910437) scale(0.1 -0.1)">
       <use xlink:href="#DejaVuSans-31"/>
       <use xlink:href="#DejaVuSans-35" x="63.623047"/>
      </g>
     </g>
    </g>
    <g id="xtick_5">
     <g id="line2d_9">
      <path d="M 211.046761 273.312 
L 211.046761 7.2 
" clip-path="url(#pddb2cc6e70)" style="fill: none; stroke-dasharray: 1.85,0.8; stroke-dashoffset: 0; stroke: #ffffff; stroke-width: 0.5"/>
     </g>
     <g id="line2d_10">
      <g>
       <use xlink:href="#m2f011064ba" x="211.046761" y="273.312" style="stroke: #000000; stroke-width: 0.8"/>
      </g>
     </g>
     <g id="text_5">
      <!-- 20 -->
      <g transform="translate(204.684261 287.910437) scale(0.1 -0.1)">
       <defs>
        <path id="DejaVuSans-32" d="M 1228 531 
L 3431 531 
L 3431 0 
L 469 0 
L 469 531 
Q 828 903 1448 1529 
Q 2069 2156 2228 2338 
Q 2531 2678 2651 2914 
Q 2772 3150 2772 3378 
Q 2772 3750 2511 3984 
Q 2250 4219 1831 4219 
Q 1534 4219 1204 4116 
Q 875 4013 500 3803 
L 500 4441 
Q 881 4594 1212 4672 
Q 1544 4750 1819 4750 
Q 2544 4750 2975 4387 
Q 3406 4025 3406 3419 
Q 3406 3131 3298 2873 
Q 3191 2616 2906 2266 
Q 2828 2175 2409 1742 
Q 1991 1309 1228 531 
z
" transform="scale(0.015625)"/>
       </defs>
       <use xlink:href="#DejaVuSans-32"/>
       <use xlink:href="#DejaVuSans-30" x="63.623047"/>
      </g>
     </g>
    </g>
    <g id="xtick_6">
     <g id="line2d_11">
      <path d="M 251.62858 273.312 
L 251.62858 7.2 
" clip-path="url(#pddb2cc6e70)" style="fill: none; stroke-dasharray: 1.85,0.8; stroke-dashoffset: 0; stroke: #ffffff; stroke-width: 0.5"/>
     </g>
     <g id="line2d_12">
      <g>
       <use xlink:href="#m2f011064ba" x="251.62858" y="273.312" style="stroke: #000000; stroke-width: 0.8"/>
      </g>
     </g>
     <g id="text_6">
      <!-- 25 -->
      <g transform="translate(245.26608 287.910437) scale(0.1 -0.1)">
       <use xlink:href="#DejaVuSans-32"/>
       <use xlink:href="#DejaVuSans-35" x="63.623047"/>
      </g>
     </g>
    </g>
    <g id="xtick_7">
     <g id="line2d_13">
      <path d="M 292.210398 273.312 
L 292.210398 7.2 
" clip-path="url(#pddb2cc6e70)" style="fill: none; stroke-dasharray: 1.85,0.8; stroke-dashoffset: 0; stroke: #ffffff; stroke-width: 0.5"/>
     </g>
     <g id="line2d_14">
      <g>
       <use xlink:href="#m2f011064ba" x="292.210398" y="273.312" style="stroke: #000000; stroke-width: 0.8"/>
      </g>
     </g>
     <g id="text_7">
      <!-- 30 -->
      <g transform="translate(285.847898 287.910437) scale(0.1 -0.1)">
       <defs>
        <path id="DejaVuSans-33" d="M 2597 2516 
Q 3050 2419 3304 2112 
Q 3559 1806 3559 1356 
Q 3559 666 3084 287 
Q 2609 -91 1734 -91 
Q 1441 -91 1130 -33 
Q 819 25 488 141 
L 488 750 
Q 750 597 1062 519 
Q 1375 441 1716 441 
Q 2309 441 2620 675 
Q 2931 909 2931 1356 
Q 2931 1769 2642 2001 
Q 2353 2234 1838 2234 
L 1294 2234 
L 1294 2753 
L 1863 2753 
Q 2328 2753 2575 2939 
Q 2822 3125 2822 3475 
Q 2822 3834 2567 4026 
Q 2313 4219 1838 4219 
Q 1578 4219 1281 4162 
Q 984 4106 628 3988 
L 628 4550 
Q 988 4650 1302 4700 
Q 1616 4750 1894 4750 
Q 2613 4750 3031 4423 
Q 3450 4097 3450 3541 
Q 3450 3153 3228 2886 
Q 3006 2619 2597 2516 
z
" transform="scale(0.015625)"/>
       </defs>
       <use xlink:href="#DejaVuSans-33"/>
       <use xlink:href="#DejaVuSans-30" x="63.623047"/>
      </g>
     </g>
    </g>
    <g id="xtick_8">
     <g id="line2d_15">
      <path d="M 332.792216 273.312 
L 332.792216 7.2 
" clip-path="url(#pddb2cc6e70)" style="fill: none; stroke-dasharray: 1.85,0.8; stroke-dashoffset: 0; stroke: #ffffff; stroke-width: 0.5"/>
     </g>
     <g id="line2d_16">
      <g>
       <use xlink:href="#m2f011064ba" x="332.792216" y="273.312" style="stroke: #000000; stroke-width: 0.8"/>
      </g>
     </g>
     <g id="text_8">
      <!-- 35 -->
      <g transform="translate(326.429716 287.910437) scale(0.1 -0.1)">
       <use xlink:href="#DejaVuSans-33"/>
       <use xlink:href="#DejaVuSans-35" x="63.623047"/>
      </g>
     </g>
    </g>
    <g id="xtick_9">
     <g id="line2d_17">
      <path d="M 373.374034 273.312 
L 373.374034 7.2 
" clip-path="url(#pddb2cc6e70)" style="fill: none; stroke-dasharray: 1.85,0.8; stroke-dashoffset: 0; stroke: #ffffff; stroke-width: 0.5"/>
     </g>
     <g id="line2d_18">
      <g>
       <use xlink:href="#m2f011064ba" x="373.374034" y="273.312" style="stroke: #000000; stroke-width: 0.8"/>
      </g>
     </g>
     <g id="text_9">
      <!-- 40 -->
      <g transform="translate(367.011534 287.910437) scale(0.1 -0.1)">
       <defs>
        <path id="DejaVuSans-34" d="M 2419 4116 
L 825 1625 
L 2419 1625 
L 2419 4116 
z
M 2253 4666 
L 3047 4666 
L 3047 1625 
L 3713 1625 
L 3713 1100 
L 3047 1100 
L 3047 0 
L 2419 0 
L 2419 1100 
L 313 1100 
L 313 1709 
L 2253 4666 
z
" transform="scale(0.015625)"/>
       </defs>
       <use xlink:href="#DejaVuSans-34"/>
       <use xlink:href="#DejaVuSans-30" x="63.623047"/>
      </g>
     </g>
    </g>
    <g id="text_10">
     <!-- Distance beetwen AP and STAs [m] -->
     <g transform="translate(131.25375 301.588562) scale(0.1 -0.1)">
      <defs>
       <path id="DejaVuSans-44" d="M 1259 4147 
L 1259 519 
L 2022 519 
Q 2988 519 3436 956 
Q 3884 1394 3884 2338 
Q 3884 3275 3436 3711 
Q 2988 4147 2022 4147 
L 1259 4147 
z
M 628 4666 
L 1925 4666 
Q 3281 4666 3915 4102 
Q 4550 3538 4550 2338 
Q 4550 1131 3912 565 
Q 3275 0 1925 0 
L 628 0 
L 628 4666 
z
" transform="scale(0.015625)"/>
       <path id="DejaVuSans-69" d="M 603 3500 
L 1178 3500 
L 1178 0 
L 603 0 
L 603 3500 
z
M 603 4863 
L 1178 4863 
L 1178 4134 
L 603 4134 
L 603 4863 
z
" transform="scale(0.015625)"/>
       <path id="DejaVuSans-73" d="M 2834 3397 
L 2834 2853 
Q 2591 2978 2328 3040 
Q 2066 3103 1784 3103 
Q 1356 3103 1142 2972 
Q 928 2841 928 2578 
Q 928 2378 1081 2264 
Q 1234 2150 1697 2047 
L 1894 2003 
Q 2506 1872 2764 1633 
Q 3022 1394 3022 966 
Q 3022 478 2636 193 
Q 2250 -91 1575 -91 
Q 1294 -91 989 -36 
Q 684 19 347 128 
L 347 722 
Q 666 556 975 473 
Q 1284 391 1588 391 
Q 1994 391 2212 530 
Q 2431 669 2431 922 
Q 2431 1156 2273 1281 
Q 2116 1406 1581 1522 
L 1381 1569 
Q 847 1681 609 1914 
Q 372 2147 372 2553 
Q 372 3047 722 3315 
Q 1072 3584 1716 3584 
Q 2034 3584 2315 3537 
Q 2597 3491 2834 3397 
z
" transform="scale(0.015625)"/>
       <path id="DejaVuSans-74" d="M 1172 4494 
L 1172 3500 
L 2356 3500 
L 2356 3053 
L 1172 3053 
L 1172 1153 
Q 1172 725 1289 603 
Q 1406 481 1766 481 
L 2356 481 
L 2356 0 
L 1766 0 
Q 1100 0 847 248 
Q 594 497 594 1153 
L 594 3053 
L 172 3053 
L 172 3500 
L 594 3500 
L 594 4494 
L 1172 4494 
z
" transform="scale(0.015625)"/>
       <path id="DejaVuSans-61" d="M 2194 1759 
Q 1497 1759 1228 1600 
Q 959 1441 959 1056 
Q 959 750 1161 570 
Q 1363 391 1709 391 
Q 2188 391 2477 730 
Q 2766 1069 2766 1631 
L 2766 1759 
L 2194 1759 
z
M 3341 1997 
L 3341 0 
L 2766 0 
L 2766 531 
Q 2569 213 2275 61 
Q 1981 -91 1556 -91 
Q 1019 -91 701 211 
Q 384 513 384 1019 
Q 384 1609 779 1909 
Q 1175 2209 1959 2209 
L 2766 2209 
L 2766 2266 
Q 2766 2663 2505 2880 
Q 2244 3097 1772 3097 
Q 1472 3097 1187 3025 
Q 903 2953 641 2809 
L 641 3341 
Q 956 3463 1253 3523 
Q 1550 3584 1831 3584 
Q 2591 3584 2966 3190 
Q 3341 2797 3341 1997 
z
" transform="scale(0.015625)"/>
       <path id="DejaVuSans-6e" d="M 3513 2113 
L 3513 0 
L 2938 0 
L 2938 2094 
Q 2938 2591 2744 2837 
Q 2550 3084 2163 3084 
Q 1697 3084 1428 2787 
Q 1159 2491 1159 1978 
L 1159 0 
L 581 0 
L 581 3500 
L 1159 3500 
L 1159 2956 
Q 1366 3272 1645 3428 
Q 1925 3584 2291 3584 
Q 2894 3584 3203 3211 
Q 3513 2838 3513 2113 
z
" transform="scale(0.015625)"/>
       <path id="DejaVuSans-63" d="M 3122 3366 
L 3122 2828 
Q 2878 2963 2633 3030 
Q 2388 3097 2138 3097 
Q 1578 3097 1268 2742 
Q 959 2388 959 1747 
Q 959 1106 1268 751 
Q 1578 397 2138 397 
Q 2388 397 2633 464 
Q 2878 531 3122 666 
L 3122 134 
Q 2881 22 2623 -34 
Q 2366 -91 2075 -91 
Q 1284 -91 818 406 
Q 353 903 353 1747 
Q 353 2603 823 3093 
Q 1294 3584 2113 3584 
Q 2378 3584 2631 3529 
Q 2884 3475 3122 3366 
z
" transform="scale(0.015625)"/>
       <path id="DejaVuSans-65" d="M 3597 1894 
L 3597 1613 
L 953 1613 
Q 991 1019 1311 708 
Q 1631 397 2203 397 
Q 2534 397 2845 478 
Q 3156 559 3463 722 
L 3463 178 
Q 3153 47 2828 -22 
Q 2503 -91 2169 -91 
Q 1331 -91 842 396 
Q 353 884 353 1716 
Q 353 2575 817 3079 
Q 1281 3584 2069 3584 
Q 2775 3584 3186 3129 
Q 3597 2675 3597 1894 
z
M 3022 2063 
Q 3016 2534 2758 2815 
Q 2500 3097 2075 3097 
Q 1594 3097 1305 2825 
Q 1016 2553 972 2059 
L 3022 2063 
z
" transform="scale(0.015625)"/>
       <path id="DejaVuSans-20" transform="scale(0.015625)"/>
       <path id="DejaVuSans-62" d="M 3116 1747 
Q 3116 2381 2855 2742 
Q 2594 3103 2138 3103 
Q 1681 3103 1420 2742 
Q 1159 2381 1159 1747 
Q 1159 1113 1420 752 
Q 1681 391 2138 391 
Q 2594 391 2855 752 
Q 3116 1113 3116 1747 
z
M 1159 2969 
Q 1341 3281 1617 3432 
Q 1894 3584 2278 3584 
Q 2916 3584 3314 3078 
Q 3713 2572 3713 1747 
Q 3713 922 3314 415 
Q 2916 -91 2278 -91 
Q 1894 -91 1617 61 
Q 1341 213 1159 525 
L 1159 0 
L 581 0 
L 581 4863 
L 1159 4863 
L 1159 2969 
z
" transform="scale(0.015625)"/>
       <path id="DejaVuSans-77" d="M 269 3500 
L 844 3500 
L 1563 769 
L 2278 3500 
L 2956 3500 
L 3675 769 
L 4391 3500 
L 4966 3500 
L 4050 0 
L 3372 0 
L 2619 2869 
L 1863 0 
L 1184 0 
L 269 3500 
z
" transform="scale(0.015625)"/>
       <path id="DejaVuSans-41" d="M 2188 4044 
L 1331 1722 
L 3047 1722 
L 2188 4044 
z
M 1831 4666 
L 2547 4666 
L 4325 0 
L 3669 0 
L 3244 1197 
L 1141 1197 
L 716 0 
L 50 0 
L 1831 4666 
z
" transform="scale(0.015625)"/>
       <path id="DejaVuSans-50" d="M 1259 4147 
L 1259 2394 
L 2053 2394 
Q 2494 2394 2734 2622 
Q 2975 2850 2975 3272 
Q 2975 3691 2734 3919 
Q 2494 4147 2053 4147 
L 1259 4147 
z
M 628 4666 
L 2053 4666 
Q 2838 4666 3239 4311 
Q 3641 3956 3641 3272 
Q 3641 2581 3239 2228 
Q 2838 1875 2053 1875 
L 1259 1875 
L 1259 0 
L 628 0 
L 628 4666 
z
" transform="scale(0.015625)"/>
       <path id="DejaVuSans-64" d="M 2906 2969 
L 2906 4863 
L 3481 4863 
L 3481 0 
L 2906 0 
L 2906 525 
Q 2725 213 2448 61 
Q 2172 -91 1784 -91 
Q 1150 -91 751 415 
Q 353 922 353 1747 
Q 353 2572 751 3078 
Q 1150 3584 1784 3584 
Q 2172 3584 2448 3432 
Q 2725 3281 2906 2969 
z
M 947 1747 
Q 947 1113 1208 752 
Q 1469 391 1925 391 
Q 2381 391 2643 752 
Q 2906 1113 2906 1747 
Q 2906 2381 2643 2742 
Q 2381 3103 1925 3103 
Q 1469 3103 1208 2742 
Q 947 2381 947 1747 
z
" transform="scale(0.015625)"/>
       <path id="DejaVuSans-53" d="M 3425 4513 
L 3425 3897 
Q 3066 4069 2747 4153 
Q 2428 4238 2131 4238 
Q 1616 4238 1336 4038 
Q 1056 3838 1056 3469 
Q 1056 3159 1242 3001 
Q 1428 2844 1947 2747 
L 2328 2669 
Q 3034 2534 3370 2195 
Q 3706 1856 3706 1288 
Q 3706 609 3251 259 
Q 2797 -91 1919 -91 
Q 1588 -91 1214 -16 
Q 841 59 441 206 
L 441 856 
Q 825 641 1194 531 
Q 1563 422 1919 422 
Q 2459 422 2753 634 
Q 3047 847 3047 1241 
Q 3047 1584 2836 1778 
Q 2625 1972 2144 2069 
L 1759 2144 
Q 1053 2284 737 2584 
Q 422 2884 422 3419 
Q 422 4038 858 4394 
Q 1294 4750 2059 4750 
Q 2388 4750 2728 4690 
Q 3069 4631 3425 4513 
z
" transform="scale(0.015625)"/>
       <path id="DejaVuSans-54" d="M -19 4666 
L 3928 4666 
L 3928 4134 
L 2272 4134 
L 2272 0 
L 1638 0 
L 1638 4134 
L -19 4134 
L -19 4666 
z
" transform="scale(0.015625)"/>
       <path id="DejaVuSans-5b" d="M 550 4863 
L 1875 4863 
L 1875 4416 
L 1125 4416 
L 1125 -397 
L 1875 -397 
L 1875 -844 
L 550 -844 
L 550 4863 
z
" transform="scale(0.015625)"/>
       <path id="DejaVuSans-6d" d="M 3328 2828 
Q 3544 3216 3844 3400 
Q 4144 3584 4550 3584 
Q 5097 3584 5394 3201 
Q 5691 2819 5691 2113 
L 5691 0 
L 5113 0 
L 5113 2094 
Q 5113 2597 4934 2840 
Q 4756 3084 4391 3084 
Q 3944 3084 3684 2787 
Q 3425 2491 3425 1978 
L 3425 0 
L 2847 0 
L 2847 2094 
Q 2847 2600 2669 2842 
Q 2491 3084 2119 3084 
Q 1678 3084 1418 2786 
Q 1159 2488 1159 1978 
L 1159 0 
L 581 0 
L 581 3500 
L 1159 3500 
L 1159 2956 
Q 1356 3278 1631 3431 
Q 1906 3584 2284 3584 
Q 2666 3584 2933 3390 
Q 3200 3197 3328 2828 
z
" transform="scale(0.015625)"/>
       <path id="DejaVuSans-5d" d="M 1947 4863 
L 1947 -844 
L 622 -844 
L 622 -397 
L 1369 -397 
L 1369 4416 
L 622 4416 
L 622 4863 
L 1947 4863 
z
" transform="scale(0.015625)"/>
      </defs>
      <use xlink:href="#DejaVuSans-44"/>
      <use xlink:href="#DejaVuSans-69" x="77.001953"/>
      <use xlink:href="#DejaVuSans-73" x="104.785156"/>
      <use xlink:href="#DejaVuSans-74" x="156.884766"/>
      <use xlink:href="#DejaVuSans-61" x="196.09375"/>
      <use xlink:href="#DejaVuSans-6e" x="257.373047"/>
      <use xlink:href="#DejaVuSans-63" x="320.751953"/>
      <use xlink:href="#DejaVuSans-65" x="375.732422"/>
      <use xlink:href="#DejaVuSans-20" x="437.255859"/>
      <use xlink:href="#DejaVuSans-62" x="469.042969"/>
      <use xlink:href="#DejaVuSans-65" x="532.519531"/>
      <use xlink:href="#DejaVuSans-65" x="594.042969"/>
      <use xlink:href="#DejaVuSans-74" x="655.566406"/>
      <use xlink:href="#DejaVuSans-77" x="694.775391"/>
      <use xlink:href="#DejaVuSans-65" x="776.5625"/>
      <use xlink:href="#DejaVuSans-6e" x="838.085938"/>
      <use xlink:href="#DejaVuSans-20" x="901.464844"/>
      <use xlink:href="#DejaVuSans-41" x="933.251953"/>
      <use xlink:href="#DejaVuSans-50" x="1001.660156"/>
      <use xlink:href="#DejaVuSans-20" x="1061.962891"/>
      <use xlink:href="#DejaVuSans-61" x="1093.75"/>
      <use xlink:href="#DejaVuSans-6e" x="1155.029297"/>
      <use xlink:href="#DejaVuSans-64" x="1218.408203"/>
      <use xlink:href="#DejaVuSans-20" x="1281.884766"/>
      <use xlink:href="#DejaVuSans-53" x="1313.671875"/>
      <use xlink:href="#DejaVuSans-54" x="1377.148438"/>
      <use xlink:href="#DejaVuSans-41" x="1430.482422"/>
      <use xlink:href="#DejaVuSans-73" x="1498.890625"/>
      <use xlink:href="#DejaVuSans-20" x="1550.990234"/>
      <use xlink:href="#DejaVuSans-5b" x="1582.777344"/>
      <use xlink:href="#DejaVuSans-6d" x="1621.791016"/>
      <use xlink:href="#DejaVuSans-5d" x="1719.203125"/>
     </g>
    </g>
   </g>
   <g id="matplotlib.axis_2">
    <g id="ytick_1">
     <g id="line2d_19">
      <path d="M 40.603125 273.312 
L 397.723125 273.312 
" clip-path="url(#pddb2cc6e70)" style="fill: none; stroke-dasharray: 1.85,0.8; stroke-dashoffset: 0; stroke: #ffffff; stroke-width: 0.5"/>
     </g>
     <g id="line2d_20">
      <defs>
       <path id="mfad470294f" d="M 0 0 
L -3.5 0 
" style="stroke: #000000; stroke-width: 0.8"/>
      </defs>
      <g>
       <use xlink:href="#mfad470294f" x="40.603125" y="273.312" style="stroke: #000000; stroke-width: 0.8"/>
      </g>
     </g>
     <g id="text_11">
      <!-- 0 -->
      <g transform="translate(27.240625 277.111219) scale(0.1 -0.1)">
       <use xlink:href="#DejaVuSans-30"/>
      </g>
     </g>
    </g>
    <g id="ytick_2">
     <g id="line2d_21">
      <path d="M 40.603125 241.551169 
L 397.723125 241.551169 
" clip-path="url(#pddb2cc6e70)" style="fill: none; stroke-dasharray: 1.85,0.8; stroke-dashoffset: 0; stroke: #ffffff; stroke-width: 0.5"/>
     </g>
     <g id="line2d_22">
      <g>
       <use xlink:href="#mfad470294f" x="40.603125" y="241.551169" style="stroke: #000000; stroke-width: 0.8"/>
      </g>
     </g>
     <g id="text_12">
      <!-- 10 -->
      <g transform="translate(20.878125 245.350388) scale(0.1 -0.1)">
       <use xlink:href="#DejaVuSans-31"/>
       <use xlink:href="#DejaVuSans-30" x="63.623047"/>
      </g>
     </g>
    </g>
    <g id="ytick_3">
     <g id="line2d_23">
      <path d="M 40.603125 209.790339 
L 397.723125 209.790339 
" clip-path="url(#pddb2cc6e70)" style="fill: none; stroke-dasharray: 1.85,0.8; stroke-dashoffset: 0; stroke: #ffffff; stroke-width: 0.5"/>
     </g>
     <g id="line2d_24">
      <g>
       <use xlink:href="#mfad470294f" x="40.603125" y="209.790339" style="stroke: #000000; stroke-width: 0.8"/>
      </g>
     </g>
     <g id="text_13">
      <!-- 20 -->
      <g transform="translate(20.878125 213.589558) scale(0.1 -0.1)">
       <use xlink:href="#DejaVuSans-32"/>
       <use xlink:href="#DejaVuSans-30" x="63.623047"/>
      </g>
     </g>
    </g>
    <g id="ytick_4">
     <g id="line2d_25">
      <path d="M 40.603125 178.029508 
L 397.723125 178.029508 
" clip-path="url(#pddb2cc6e70)" style="fill: none; stroke-dasharray: 1.85,0.8; stroke-dashoffset: 0; stroke: #ffffff; stroke-width: 0.5"/>
     </g>
     <g id="line2d_26">
      <g>
       <use xlink:href="#mfad470294f" x="40.603125" y="178.029508" style="stroke: #000000; stroke-width: 0.8"/>
      </g>
     </g>
     <g id="text_14">
      <!-- 30 -->
      <g transform="translate(20.878125 181.828727) scale(0.1 -0.1)">
       <use xlink:href="#DejaVuSans-33"/>
       <use xlink:href="#DejaVuSans-30" x="63.623047"/>
      </g>
     </g>
    </g>
    <g id="ytick_5">
     <g id="line2d_27">
      <path d="M 40.603125 146.268678 
L 397.723125 146.268678 
" clip-path="url(#pddb2cc6e70)" style="fill: none; stroke-dasharray: 1.85,0.8; stroke-dashoffset: 0; stroke: #ffffff; stroke-width: 0.5"/>
     </g>
     <g id="line2d_28">
      <g>
       <use xlink:href="#mfad470294f" x="40.603125" y="146.268678" style="stroke: #000000; stroke-width: 0.8"/>
      </g>
     </g>
     <g id="text_15">
      <!-- 40 -->
      <g transform="translate(20.878125 150.067897) scale(0.1 -0.1)">
       <use xlink:href="#DejaVuSans-34"/>
       <use xlink:href="#DejaVuSans-30" x="63.623047"/>
      </g>
     </g>
    </g>
    <g id="ytick_6">
     <g id="line2d_29">
      <path d="M 40.603125 114.507847 
L 397.723125 114.507847 
" clip-path="url(#pddb2cc6e70)" style="fill: none; stroke-dasharray: 1.85,0.8; stroke-dashoffset: 0; stroke: #ffffff; stroke-width: 0.5"/>
     </g>
     <g id="line2d_30">
      <g>
       <use xlink:href="#mfad470294f" x="40.603125" y="114.507847" style="stroke: #000000; stroke-width: 0.8"/>
      </g>
     </g>
     <g id="text_16">
      <!-- 50 -->
      <g transform="translate(20.878125 118.307066) scale(0.1 -0.1)">
       <use xlink:href="#DejaVuSans-35"/>
       <use xlink:href="#DejaVuSans-30" x="63.623047"/>
      </g>
     </g>
    </g>
    <g id="ytick_7">
     <g id="line2d_31">
      <path d="M 40.603125 82.747017 
L 397.723125 82.747017 
" clip-path="url(#pddb2cc6e70)" style="fill: none; stroke-dasharray: 1.85,0.8; stroke-dashoffset: 0; stroke: #ffffff; stroke-width: 0.5"/>
     </g>
     <g id="line2d_32">
      <g>
       <use xlink:href="#mfad470294f" x="40.603125" y="82.747017" style="stroke: #000000; stroke-width: 0.8"/>
      </g>
     </g>
     <g id="text_17">
      <!-- 60 -->
      <g transform="translate(20.878125 86.546236) scale(0.1 -0.1)">
       <defs>
        <path id="DejaVuSans-36" d="M 2113 2584 
Q 1688 2584 1439 2293 
Q 1191 2003 1191 1497 
Q 1191 994 1439 701 
Q 1688 409 2113 409 
Q 2538 409 2786 701 
Q 3034 994 3034 1497 
Q 3034 2003 2786 2293 
Q 2538 2584 2113 2584 
z
M 3366 4563 
L 3366 3988 
Q 3128 4100 2886 4159 
Q 2644 4219 2406 4219 
Q 1781 4219 1451 3797 
Q 1122 3375 1075 2522 
Q 1259 2794 1537 2939 
Q 1816 3084 2150 3084 
Q 2853 3084 3261 2657 
Q 3669 2231 3669 1497 
Q 3669 778 3244 343 
Q 2819 -91 2113 -91 
Q 1303 -91 875 529 
Q 447 1150 447 2328 
Q 447 3434 972 4092 
Q 1497 4750 2381 4750 
Q 2619 4750 2861 4703 
Q 3103 4656 3366 4563 
z
" transform="scale(0.015625)"/>
       </defs>
       <use xlink:href="#DejaVuSans-36"/>
       <use xlink:href="#DejaVuSans-30" x="63.623047"/>
      </g>
     </g>
    </g>
    <g id="ytick_8">
     <g id="line2d_33">
      <path d="M 40.603125 50.986186 
L 397.723125 50.986186 
" clip-path="url(#pddb2cc6e70)" style="fill: none; stroke-dasharray: 1.85,0.8; stroke-dashoffset: 0; stroke: #ffffff; stroke-width: 0.5"/>
     </g>
     <g id="line2d_34">
      <g>
       <use xlink:href="#mfad470294f" x="40.603125" y="50.986186" style="stroke: #000000; stroke-width: 0.8"/>
      </g>
     </g>
     <g id="text_18">
      <!-- 70 -->
      <g transform="translate(20.878125 54.785405) scale(0.1 -0.1)">
       <defs>
        <path id="DejaVuSans-37" d="M 525 4666 
L 3525 4666 
L 3525 4397 
L 1831 0 
L 1172 0 
L 2766 4134 
L 525 4134 
L 525 4666 
z
" transform="scale(0.015625)"/>
       </defs>
       <use xlink:href="#DejaVuSans-37"/>
       <use xlink:href="#DejaVuSans-30" x="63.623047"/>
      </g>
     </g>
    </g>
    <g id="ytick_9">
     <g id="line2d_35">
      <path d="M 40.603125 19.225356 
L 397.723125 19.225356 
" clip-path="url(#pddb2cc6e70)" style="fill: none; stroke-dasharray: 1.85,0.8; stroke-dashoffset: 0; stroke: #ffffff; stroke-width: 0.5"/>
     </g>
     <g id="line2d_36">
      <g>
       <use xlink:href="#mfad470294f" x="40.603125" y="19.225356" style="stroke: #000000; stroke-width: 0.8"/>
      </g>
     </g>
     <g id="text_19">
      <!-- 80 -->
      <g transform="translate(20.878125 23.024575) scale(0.1 -0.1)">
       <defs>
        <path id="DejaVuSans-38" d="M 2034 2216 
Q 1584 2216 1326 1975 
Q 1069 1734 1069 1313 
Q 1069 891 1326 650 
Q 1584 409 2034 409 
Q 2484 409 2743 651 
Q 3003 894 3003 1313 
Q 3003 1734 2745 1975 
Q 2488 2216 2034 2216 
z
M 1403 2484 
Q 997 2584 770 2862 
Q 544 3141 544 3541 
Q 544 4100 942 4425 
Q 1341 4750 2034 4750 
Q 2731 4750 3128 4425 
Q 3525 4100 3525 3541 
Q 3525 3141 3298 2862 
Q 3072 2584 2669 2484 
Q 3125 2378 3379 2068 
Q 3634 1759 3634 1313 
Q 3634 634 3220 271 
Q 2806 -91 2034 -91 
Q 1263 -91 848 271 
Q 434 634 434 1313 
Q 434 1759 690 2068 
Q 947 2378 1403 2484 
z
M 1172 3481 
Q 1172 3119 1398 2916 
Q 1625 2713 2034 2713 
Q 2441 2713 2670 2916 
Q 2900 3119 2900 3481 
Q 2900 3844 2670 4047 
Q 2441 4250 2034 4250 
Q 1625 4250 1398 4047 
Q 1172 3844 1172 3481 
z
" transform="scale(0.015625)"/>
       </defs>
       <use xlink:href="#DejaVuSans-38"/>
       <use xlink:href="#DejaVuSans-30" x="63.623047"/>
      </g>
     </g>
    </g>
    <g id="text_20">
     <!-- Loss [%] -->
     <g transform="translate(14.798438 161.464594) rotate(-90) scale(0.1 -0.1)">
      <defs>
       <path id="DejaVuSans-4c" d="M 628 4666 
L 1259 4666 
L 1259 531 
L 3531 531 
L 3531 0 
L 628 0 
L 628 4666 
z
" transform="scale(0.015625)"/>
       <path id="DejaVuSans-6f" d="M 1959 3097 
Q 1497 3097 1228 2736 
Q 959 2375 959 1747 
Q 959 1119 1226 758 
Q 1494 397 1959 397 
Q 2419 397 2687 759 
Q 2956 1122 2956 1747 
Q 2956 2369 2687 2733 
Q 2419 3097 1959 3097 
z
M 1959 3584 
Q 2709 3584 3137 3096 
Q 3566 2609 3566 1747 
Q 3566 888 3137 398 
Q 2709 -91 1959 -91 
Q 1206 -91 779 398 
Q 353 888 353 1747 
Q 353 2609 779 3096 
Q 1206 3584 1959 3584 
z
" transform="scale(0.015625)"/>
       <path id="DejaVuSans-25" d="M 4653 2053 
Q 4381 2053 4226 1822 
Q 4072 1591 4072 1178 
Q 4072 772 4226 539 
Q 4381 306 4653 306 
Q 4919 306 5073 539 
Q 5228 772 5228 1178 
Q 5228 1588 5073 1820 
Q 4919 2053 4653 2053 
z
M 4653 2450 
Q 5147 2450 5437 2106 
Q 5728 1763 5728 1178 
Q 5728 594 5436 251 
Q 5144 -91 4653 -91 
Q 4153 -91 3862 251 
Q 3572 594 3572 1178 
Q 3572 1766 3864 2108 
Q 4156 2450 4653 2450 
z
M 1428 4353 
Q 1159 4353 1004 4120 
Q 850 3888 850 3481 
Q 850 3069 1003 2837 
Q 1156 2606 1428 2606 
Q 1700 2606 1854 2837 
Q 2009 3069 2009 3481 
Q 2009 3884 1853 4118 
Q 1697 4353 1428 4353 
z
M 4250 4750 
L 4750 4750 
L 1831 -91 
L 1331 -91 
L 4250 4750 
z
M 1428 4750 
Q 1922 4750 2215 4408 
Q 2509 4066 2509 3481 
Q 2509 2891 2217 2550 
Q 1925 2209 1428 2209 
Q 931 2209 642 2551 
Q 353 2894 353 3481 
Q 353 4063 643 4406 
Q 934 4750 1428 4750 
z
" transform="scale(0.015625)"/>
      </defs>
      <use xlink:href="#DejaVuSans-4c"/>
      <use xlink:href="#DejaVuSans-6f" x="53.962891"/>
      <use xlink:href="#DejaVuSans-73" x="115.144531"/>
      <use xlink:href="#DejaVuSans-73" x="167.244141"/>
      <use xlink:href="#DejaVuSans-20" x="219.34375"/>
      <use xlink:href="#DejaVuSans-5b" x="251.130859"/>
      <use xlink:href="#DejaVuSans-25" x="290.144531"/>
      <use xlink:href="#DejaVuSans-5d" x="385.164062"/>
     </g>
    </g>
   </g>
   <g id="line2d_37">
    <path d="M 56.835852 119.439796 
L 73.06858 99.576128 
L 89.301307 99.276369 
L 105.534034 99.061031 
L 121.766761 85.781065 
L 137.999489 76.376302 
L 154.232216 76.157026 
L 170.464943 64.683997 
L 186.69767 53.000395 
L 202.930398 52.625363 
L 219.163125 52.564191 
L 235.395852 52.342437 
L 251.62858 52.277645 
L 267.861307 51.323804 
L 284.094034 42.571408 
L 300.326761 28.620908 
L 316.559489 28.567423 
L 332.792216 28.722543 
L 349.024943 28.731563 
L 365.25767 28.70247 
L 381.490398 21.643181 
" clip-path="url(#pddb2cc6e70)" style="fill: none; stroke: #003f5c; stroke-width: 1.5; stroke-linecap: square"/>
    <defs>
     <path id="m96d8a491ce" d="M 0 4 
C 1.060812 4 2.078319 3.578535 2.828427 2.828427 
C 3.578535 2.078319 4 1.060812 4 0 
C 4 -1.060812 3.578535 -2.078319 2.828427 -2.828427 
C 2.078319 -3.578535 1.060812 -4 0 -4 
C -1.060812 -4 -2.078319 -3.578535 -2.828427 -2.828427 
C -3.578535 -2.078319 -4 -1.060812 -4 0 
C -4 1.060812 -3.578535 2.078319 -2.828427 2.828427 
C -2.078319 3.578535 -1.060812 4 0 4 
z
" style="stroke: #ffffff; stroke-width: 0.75"/>
    </defs>
    <g clip-path="url(#pddb2cc6e70)">
     <use xlink:href="#m96d8a491ce" x="56.835852" y="119.439796" style="fill: #003f5c; stroke: #ffffff; stroke-width: 0.75"/>
     <use xlink:href="#m96d8a491ce" x="73.06858" y="99.576128" style="fill: #003f5c; stroke: #ffffff; stroke-width: 0.75"/>
     <use xlink:href="#m96d8a491ce" x="89.301307" y="99.276369" style="fill: #003f5c; stroke: #ffffff; stroke-width: 0.75"/>
     <use xlink:href="#m96d8a491ce" x="105.534034" y="99.061031" style="fill: #003f5c; stroke: #ffffff; stroke-width: 0.75"/>
     <use xlink:href="#m96d8a491ce" x="121.766761" y="85.781065" style="fill: #003f5c; stroke: #ffffff; stroke-width: 0.75"/>
     <use xlink:href="#m96d8a491ce" x="137.999489" y="76.376302" style="fill: #003f5c; stroke: #ffffff; stroke-width: 0.75"/>
     <use xlink:href="#m96d8a491ce" x="154.232216" y="76.157026" style="fill: #003f5c; stroke: #ffffff; stroke-width: 0.75"/>
     <use xlink:href="#m96d8a491ce" x="170.464943" y="64.683997" style="fill: #003f5c; stroke: #ffffff; stroke-width: 0.75"/>
     <use xlink:href="#m96d8a491ce" x="186.69767" y="53.000395" style="fill: #003f5c; stroke: #ffffff; stroke-width: 0.75"/>
     <use xlink:href="#m96d8a491ce" x="202.930398" y="52.625363" style="fill: #003f5c; stroke: #ffffff; stroke-width: 0.75"/>
     <use xlink:href="#m96d8a491ce" x="219.163125" y="52.564191" style="fill: #003f5c; stroke: #ffffff; stroke-width: 0.75"/>
     <use xlink:href="#m96d8a491ce" x="235.395852" y="52.342437" style="fill: #003f5c; stroke: #ffffff; stroke-width: 0.75"/>
     <use xlink:href="#m96d8a491ce" x="251.62858" y="52.277645" style="fill: #003f5c; stroke: #ffffff; stroke-width: 0.75"/>
     <use xlink:href="#m96d8a491ce" x="267.861307" y="51.323804" style="fill: #003f5c; stroke: #ffffff; stroke-width: 0.75"/>
     <use xlink:href="#m96d8a491ce" x="284.094034" y="42.571408" style="fill: #003f5c; stroke: #ffffff; stroke-width: 0.75"/>
     <use xlink:href="#m96d8a491ce" x="300.326761" y="28.620908" style="fill: #003f5c; stroke: #ffffff; stroke-width: 0.75"/>
     <use xlink:href="#m96d8a491ce" x="316.559489" y="28.567423" style="fill: #003f5c; stroke: #ffffff; stroke-width: 0.75"/>
     <use xlink:href="#m96d8a491ce" x="332.792216" y="28.722543" style="fill: #003f5c; stroke: #ffffff; stroke-width: 0.75"/>
     <use xlink:href="#m96d8a491ce" x="349.024943" y="28.731563" style="fill: #003f5c; stroke: #ffffff; stroke-width: 0.75"/>
     <use xlink:href="#m96d8a491ce" x="365.25767" y="28.70247" style="fill: #003f5c; stroke: #ffffff; stroke-width: 0.75"/>
     <use xlink:href="#m96d8a491ce" x="381.490398" y="21.643181" style="fill: #003f5c; stroke: #ffffff; stroke-width: 0.75"/>
    </g>
   </g>
   <g id="line2d_38">
    <path d="M 56.835852 120.141012 
L 73.06858 100.46378 
L 89.301307 100.247616 
L 105.534034 100.021605 
L 121.766761 86.735542 
L 137.999489 77.213264 
L 154.232216 77.148535 
L 170.464943 65.630661 
L 186.69767 53.67563 
L 202.930398 53.144589 
L 219.163125 53.09879 
L 235.395852 53.0279 
L 251.62858 53.106476 
L 267.861307 51.79704 
L 284.094034 43.406083 
L 300.326761 29.103736 
L 316.559489 29.282042 
L 332.792216 29.349502 
L 349.024943 29.385455 
L 365.25767 29.284201 
L 381.490398 22.027233 
" clip-path="url(#pddb2cc6e70)" style="fill: none; stroke-dasharray: 6,2.25; stroke-dashoffset: 0; stroke: #003f5c; stroke-width: 1.5"/>
    <defs>
     <path id="m2cfb2d53f5" d="M -2 4 
L 0 2 
L 2 4 
L 4 2 
L 2 0 
L 4 -2 
L 2 -4 
L 0 -2 
L -2 -4 
L -4 -2 
L -2 0 
L -4 2 
z
" style="stroke: #ffffff; stroke-width: 0.75; stroke-linejoin: miter"/>
    </defs>
    <g clip-path="url(#pddb2cc6e70)">
     <use xlink:href="#m2cfb2d53f5" x="56.835852" y="120.141012" style="fill: #003f5c; stroke: #ffffff; stroke-width: 0.75; stroke-linejoin: miter"/>
     <use xlink:href="#m2cfb2d53f5" x="73.06858" y="100.46378" style="fill: #003f5c; stroke: #ffffff; stroke-width: 0.75; stroke-linejoin: miter"/>
     <use xlink:href="#m2cfb2d53f5" x="89.301307" y="100.247616" style="fill: #003f5c; stroke: #ffffff; stroke-width: 0.75; stroke-linejoin: miter"/>
     <use xlink:href="#m2cfb2d53f5" x="105.534034" y="100.021605" style="fill: #003f5c; stroke: #ffffff; stroke-width: 0.75; stroke-linejoin: miter"/>
     <use xlink:href="#m2cfb2d53f5" x="121.766761" y="86.735542" style="fill: #003f5c; stroke: #ffffff; stroke-width: 0.75; stroke-linejoin: miter"/>
     <use xlink:href="#m2cfb2d53f5" x="137.999489" y="77.213264" style="fill: #003f5c; stroke: #ffffff; stroke-width: 0.75; stroke-linejoin: miter"/>
     <use xlink:href="#m2cfb2d53f5" x="154.232216" y="77.148535" style="fill: #003f5c; stroke: #ffffff; stroke-width: 0.75; stroke-linejoin: miter"/>
     <use xlink:href="#m2cfb2d53f5" x="170.464943" y="65.630661" style="fill: #003f5c; stroke: #ffffff; stroke-width: 0.75; stroke-linejoin: miter"/>
     <use xlink:href="#m2cfb2d53f5" x="186.69767" y="53.67563" style="fill: #003f5c; stroke: #ffffff; stroke-width: 0.75; stroke-linejoin: miter"/>
     <use xlink:href="#m2cfb2d53f5" x="202.930398" y="53.144589" style="fill: #003f5c; stroke: #ffffff; stroke-width: 0.75; stroke-linejoin: miter"/>
     <use xlink:href="#m2cfb2d53f5" x="219.163125" y="53.09879" style="fill: #003f5c; stroke: #ffffff; stroke-width: 0.75; stroke-linejoin: miter"/>
     <use xlink:href="#m2cfb2d53f5" x="235.395852" y="53.0279" style="fill: #003f5c; stroke: #ffffff; stroke-width: 0.75; stroke-linejoin: miter"/>
     <use xlink:href="#m2cfb2d53f5" x="251.62858" y="53.106476" style="fill: #003f5c; stroke: #ffffff; stroke-width: 0.75; stroke-linejoin: miter"/>
     <use xlink:href="#m2cfb2d53f5" x="267.861307" y="51.79704" style="fill: #003f5c; stroke: #ffffff; stroke-width: 0.75; stroke-linejoin: miter"/>
     <use xlink:href="#m2cfb2d53f5" x="284.094034" y="43.406083" style="fill: #003f5c; stroke: #ffffff; stroke-width: 0.75; stroke-linejoin: miter"/>
     <use xlink:href="#m2cfb2d53f5" x="300.326761" y="29.103736" style="fill: #003f5c; stroke: #ffffff; stroke-width: 0.75; stroke-linejoin: miter"/>
     <use xlink:href="#m2cfb2d53f5" x="316.559489" y="29.282042" style="fill: #003f5c; stroke: #ffffff; stroke-width: 0.75; stroke-linejoin: miter"/>
     <use xlink:href="#m2cfb2d53f5" x="332.792216" y="29.349502" style="fill: #003f5c; stroke: #ffffff; stroke-width: 0.75; stroke-linejoin: miter"/>
     <use xlink:href="#m2cfb2d53f5" x="349.024943" y="29.385455" style="fill: #003f5c; stroke: #ffffff; stroke-width: 0.75; stroke-linejoin: miter"/>
     <use xlink:href="#m2cfb2d53f5" x="365.25767" y="29.284201" style="fill: #003f5c; stroke: #ffffff; stroke-width: 0.75; stroke-linejoin: miter"/>
     <use xlink:href="#m2cfb2d53f5" x="381.490398" y="22.027233" style="fill: #003f5c; stroke: #ffffff; stroke-width: 0.75; stroke-linejoin: miter"/>
    </g>
   </g>
   <g id="line2d_39">
    <path d="M 56.835852 272.082761 
L 73.06858 270.277922 
L 89.301307 269.7117 
L 105.534034 220.60668 
L 121.766761 195.487992 
L 137.999489 169.925034 
L 154.232216 169.684223 
L 170.464943 169.450209 
L 186.69767 147.856211 
L 202.930398 115.975833 
L 219.163125 115.972911 
L 235.395852 115.771801 
L 251.62858 99.995117 
L 267.861307 98.918806 
L 284.094034 83.794298 
L 300.326761 51.775062 
L 316.559489 51.830262 
L 332.792216 51.867041 
L 349.024943 47.128325 
L 365.25767 47.287447 
L 381.490398 45.693371 
" clip-path="url(#pddb2cc6e70)" style="fill: none; stroke: #bc5090; stroke-width: 1.5; stroke-linecap: square"/>
    <defs>
     <path id="ma58c195fe9" d="M 0 4 
C 1.060812 4 2.078319 3.578535 2.828427 2.828427 
C 3.578535 2.078319 4 1.060812 4 0 
C 4 -1.060812 3.578535 -2.078319 2.828427 -2.828427 
C 2.078319 -3.578535 1.060812 -4 0 -4 
C -1.060812 -4 -2.078319 -3.578535 -2.828427 -2.828427 
C -3.578535 -2.078319 -4 -1.060812 -4 0 
C -4 1.060812 -3.578535 2.078319 -2.828427 2.828427 
C -2.078319 3.578535 -1.060812 4 0 4 
z
" style="stroke: #ffffff; stroke-width: 0.75"/>
    </defs>
    <g clip-path="url(#pddb2cc6e70)">
     <use xlink:href="#ma58c195fe9" x="56.835852" y="272.082761" style="fill: #bc5090; stroke: #ffffff; stroke-width: 0.75"/>
     <use xlink:href="#ma58c195fe9" x="73.06858" y="270.277922" style="fill: #bc5090; stroke: #ffffff; stroke-width: 0.75"/>
     <use xlink:href="#ma58c195fe9" x="89.301307" y="269.7117" style="fill: #bc5090; stroke: #ffffff; stroke-width: 0.75"/>
     <use xlink:href="#ma58c195fe9" x="105.534034" y="220.60668" style="fill: #bc5090; stroke: #ffffff; stroke-width: 0.75"/>
     <use xlink:href="#ma58c195fe9" x="121.766761" y="195.487992" style="fill: #bc5090; stroke: #ffffff; stroke-width: 0.75"/>
     <use xlink:href="#ma58c195fe9" x="137.999489" y="169.925034" style="fill: #bc5090; stroke: #ffffff; stroke-width: 0.75"/>
     <use xlink:href="#ma58c195fe9" x="154.232216" y="169.684223" style="fill: #bc5090; stroke: #ffffff; stroke-width: 0.75"/>
     <use xlink:href="#ma58c195fe9" x="170.464943" y="169.450209" style="fill: #bc5090; stroke: #ffffff; stroke-width: 0.75"/>
     <use xlink:href="#ma58c195fe9" x="186.69767" y="147.856211" style="fill: #bc5090; stroke: #ffffff; stroke-width: 0.75"/>
     <use xlink:href="#ma58c195fe9" x="202.930398" y="115.975833" style="fill: #bc5090; stroke: #ffffff; stroke-width: 0.75"/>
     <use xlink:href="#ma58c195fe9" x="219.163125" y="115.972911" style="fill: #bc5090; stroke: #ffffff; stroke-width: 0.75"/>
     <use xlink:href="#ma58c195fe9" x="235.395852" y="115.771801" style="fill: #bc5090; stroke: #ffffff; stroke-width: 0.75"/>
     <use xlink:href="#ma58c195fe9" x="251.62858" y="99.995117" style="fill: #bc5090; stroke: #ffffff; stroke-width: 0.75"/>
     <use xlink:href="#ma58c195fe9" x="267.861307" y="98.918806" style="fill: #bc5090; stroke: #ffffff; stroke-width: 0.75"/>
     <use xlink:href="#ma58c195fe9" x="284.094034" y="83.794298" style="fill: #bc5090; stroke: #ffffff; stroke-width: 0.75"/>
     <use xlink:href="#ma58c195fe9" x="300.326761" y="51.775062" style="fill: #bc5090; stroke: #ffffff; stroke-width: 0.75"/>
     <use xlink:href="#ma58c195fe9" x="316.559489" y="51.830262" style="fill: #bc5090; stroke: #ffffff; stroke-width: 0.75"/>
     <use xlink:href="#ma58c195fe9" x="332.792216" y="51.867041" style="fill: #bc5090; stroke: #ffffff; stroke-width: 0.75"/>
     <use xlink:href="#ma58c195fe9" x="349.024943" y="47.128325" style="fill: #bc5090; stroke: #ffffff; stroke-width: 0.75"/>
     <use xlink:href="#ma58c195fe9" x="365.25767" y="47.287447" style="fill: #bc5090; stroke: #ffffff; stroke-width: 0.75"/>
     <use xlink:href="#ma58c195fe9" x="381.490398" y="45.693371" style="fill: #bc5090; stroke: #ffffff; stroke-width: 0.75"/>
    </g>
   </g>
   <g id="line2d_40">
    <path d="M 56.835852 259.167403 
L 73.06858 259.168959 
L 89.301307 259.168959 
L 105.534034 259.172262 
L 121.766761 231.177129 
L 137.999489 211.451367 
L 154.232216 211.340839 
L 170.464943 187.247391 
L 186.69767 162.519996 
L 202.930398 162.50221 
L 219.163125 162.51015 
L 235.395852 162.503353 
L 251.62858 162.361446 
L 267.861307 159.685406 
L 284.094034 140.948294 
L 300.326761 110.826894 
L 316.559489 110.877839 
L 332.792216 110.975662 
L 349.024943 94.547753 
L 365.25767 94.495348 
L 381.490398 80.989118 
" clip-path="url(#pddb2cc6e70)" style="fill: none; stroke-dasharray: 6,2.25; stroke-dashoffset: 0; stroke: #bc5090; stroke-width: 1.5"/>
    <defs>
     <path id="m6ec2fb772b" d="M -2 4 
L 0 2 
L 2 4 
L 4 2 
L 2 0 
L 4 -2 
L 2 -4 
L 0 -2 
L -2 -4 
L -4 -2 
L -2 0 
L -4 2 
z
" style="stroke: #ffffff; stroke-width: 0.75; stroke-linejoin: miter"/>
    </defs>
    <g clip-path="url(#pddb2cc6e70)">
     <use xlink:href="#m6ec2fb772b" x="56.835852" y="259.167403" style="fill: #bc5090; stroke: #ffffff; stroke-width: 0.75; stroke-linejoin: miter"/>
     <use xlink:href="#m6ec2fb772b" x="73.06858" y="259.168959" style="fill: #bc5090; stroke: #ffffff; stroke-width: 0.75; stroke-linejoin: miter"/>
     <use xlink:href="#m6ec2fb772b" x="89.301307" y="259.168959" style="fill: #bc5090; stroke: #ffffff; stroke-width: 0.75; stroke-linejoin: miter"/>
     <use xlink:href="#m6ec2fb772b" x="105.534034" y="259.172262" style="fill: #bc5090; stroke: #ffffff; stroke-width: 0.75; stroke-linejoin: miter"/>
     <use xlink:href="#m6ec2fb772b" x="121.766761" y="231.177129" style="fill: #bc5090; stroke: #ffffff; stroke-width: 0.75; stroke-linejoin: miter"/>
     <use xlink:href="#m6ec2fb772b" x="137.999489" y="211.451367" style="fill: #bc5090; stroke: #ffffff; stroke-width: 0.75; stroke-linejoin: miter"/>
     <use xlink:href="#m6ec2fb772b" x="154.232216" y="211.340839" style="fill: #bc5090; stroke: #ffffff; stroke-width: 0.75; stroke-linejoin: miter"/>
     <use xlink:href="#m6ec2fb772b" x="170.464943" y="187.247391" style="fill: #bc5090; stroke: #ffffff; stroke-width: 0.75; stroke-linejoin: miter"/>
     <use xlink:href="#m6ec2fb772b" x="186.69767" y="162.519996" style="fill: #bc5090; stroke: #ffffff; stroke-width: 0.75; stroke-linejoin: miter"/>
     <use xlink:href="#m6ec2fb772b" x="202.930398" y="162.50221" style="fill: #bc5090; stroke: #ffffff; stroke-width: 0.75; stroke-linejoin: miter"/>
     <use xlink:href="#m6ec2fb772b" x="219.163125" y="162.51015" style="fill: #bc5090; stroke: #ffffff; stroke-width: 0.75; stroke-linejoin: miter"/>
     <use xlink:href="#m6ec2fb772b" x="235.395852" y="162.503353" style="fill: #bc5090; stroke: #ffffff; stroke-width: 0.75; stroke-linejoin: miter"/>
     <use xlink:href="#m6ec2fb772b" x="251.62858" y="162.361446" style="fill: #bc5090; stroke: #ffffff; stroke-width: 0.75; stroke-linejoin: miter"/>
     <use xlink:href="#m6ec2fb772b" x="267.861307" y="159.685406" style="fill: #bc5090; stroke: #ffffff; stroke-width: 0.75; stroke-linejoin: miter"/>
     <use xlink:href="#m6ec2fb772b" x="284.094034" y="140.948294" style="fill: #bc5090; stroke: #ffffff; stroke-width: 0.75; stroke-linejoin: miter"/>
     <use xlink:href="#m6ec2fb772b" x="300.326761" y="110.826894" style="fill: #bc5090; stroke: #ffffff; stroke-width: 0.75; stroke-linejoin: miter"/>
     <use xlink:href="#m6ec2fb772b" x="316.559489" y="110.877839" style="fill: #bc5090; stroke: #ffffff; stroke-width: 0.75; stroke-linejoin: miter"/>
     <use xlink:href="#m6ec2fb772b" x="332.792216" y="110.975662" style="fill: #bc5090; stroke: #ffffff; stroke-width: 0.75; stroke-linejoin: miter"/>
     <use xlink:href="#m6ec2fb772b" x="349.024943" y="94.547753" style="fill: #bc5090; stroke: #ffffff; stroke-width: 0.75; stroke-linejoin: miter"/>
     <use xlink:href="#m6ec2fb772b" x="365.25767" y="94.495348" style="fill: #bc5090; stroke: #ffffff; stroke-width: 0.75; stroke-linejoin: miter"/>
     <use xlink:href="#m6ec2fb772b" x="381.490398" y="80.989118" style="fill: #bc5090; stroke: #ffffff; stroke-width: 0.75; stroke-linejoin: miter"/>
    </g>
   </g>
   <g id="line2d_41">
    <path d="M 56.835852 272.190292 
L 73.06858 270.534436 
L 89.301307 252.719497 
L 105.534034 220.728007 
L 121.766761 180.349637 
L 137.999489 170.099782 
L 154.232216 169.815777 
L 170.464943 156.788754 
L 186.69767 128.944161 
L 202.930398 116.110435 
L 219.163125 115.899289 
L 235.395852 106.359289 
L 251.62858 90.543665 
L 267.861307 89.374041 
L 284.094034 64.603007 
L 300.326761 51.849382 
L 316.559489 51.891243 
L 332.792216 51.948539 
L 349.024943 46.883259 
L 365.25767 27.952533 
L 381.490398 26.476226 
" clip-path="url(#pddb2cc6e70)" style="fill: none; stroke: #ffa600; stroke-width: 1.5; stroke-linecap: square"/>
    <defs>
     <path id="macf34cd756" d="M 0 4 
C 1.060812 4 2.078319 3.578535 2.828427 2.828427 
C 3.578535 2.078319 4 1.060812 4 0 
C 4 -1.060812 3.578535 -2.078319 2.828427 -2.828427 
C 2.078319 -3.578535 1.060812 -4 0 -4 
C -1.060812 -4 -2.078319 -3.578535 -2.828427 -2.828427 
C -3.578535 -2.078319 -4 -1.060812 -4 0 
C -4 1.060812 -3.578535 2.078319 -2.828427 2.828427 
C -2.078319 3.578535 -1.060812 4 0 4 
z
" style="stroke: #ffffff; stroke-width: 0.75"/>
    </defs>
    <g clip-path="url(#pddb2cc6e70)">
     <use xlink:href="#macf34cd756" x="56.835852" y="272.190292" style="fill: #ffa600; stroke: #ffffff; stroke-width: 0.75"/>
     <use xlink:href="#macf34cd756" x="73.06858" y="270.534436" style="fill: #ffa600; stroke: #ffffff; stroke-width: 0.75"/>
     <use xlink:href="#macf34cd756" x="89.301307" y="252.719497" style="fill: #ffa600; stroke: #ffffff; stroke-width: 0.75"/>
     <use xlink:href="#macf34cd756" x="105.534034" y="220.728007" style="fill: #ffa600; stroke: #ffffff; stroke-width: 0.75"/>
     <use xlink:href="#macf34cd756" x="121.766761" y="180.349637" style="fill: #ffa600; stroke: #ffffff; stroke-width: 0.75"/>
     <use xlink:href="#macf34cd756" x="137.999489" y="170.099782" style="fill: #ffa600; stroke: #ffffff; stroke-width: 0.75"/>
     <use xlink:href="#macf34cd756" x="154.232216" y="169.815777" style="fill: #ffa600; stroke: #ffffff; stroke-width: 0.75"/>
     <use xlink:href="#macf34cd756" x="170.464943" y="156.788754" style="fill: #ffa600; stroke: #ffffff; stroke-width: 0.75"/>
     <use xlink:href="#macf34cd756" x="186.69767" y="128.944161" style="fill: #ffa600; stroke: #ffffff; stroke-width: 0.75"/>
     <use xlink:href="#macf34cd756" x="202.930398" y="116.110435" style="fill: #ffa600; stroke: #ffffff; stroke-width: 0.75"/>
     <use xlink:href="#macf34cd756" x="219.163125" y="115.899289" style="fill: #ffa600; stroke: #ffffff; stroke-width: 0.75"/>
     <use xlink:href="#macf34cd756" x="235.395852" y="106.359289" style="fill: #ffa600; stroke: #ffffff; stroke-width: 0.75"/>
     <use xlink:href="#macf34cd756" x="251.62858" y="90.543665" style="fill: #ffa600; stroke: #ffffff; stroke-width: 0.75"/>
     <use xlink:href="#macf34cd756" x="267.861307" y="89.374041" style="fill: #ffa600; stroke: #ffffff; stroke-width: 0.75"/>
     <use xlink:href="#macf34cd756" x="284.094034" y="64.603007" style="fill: #ffa600; stroke: #ffffff; stroke-width: 0.75"/>
     <use xlink:href="#macf34cd756" x="300.326761" y="51.849382" style="fill: #ffa600; stroke: #ffffff; stroke-width: 0.75"/>
     <use xlink:href="#macf34cd756" x="316.559489" y="51.891243" style="fill: #ffa600; stroke: #ffffff; stroke-width: 0.75"/>
     <use xlink:href="#macf34cd756" x="332.792216" y="51.948539" style="fill: #ffa600; stroke: #ffffff; stroke-width: 0.75"/>
     <use xlink:href="#macf34cd756" x="349.024943" y="46.883259" style="fill: #ffa600; stroke: #ffffff; stroke-width: 0.75"/>
     <use xlink:href="#macf34cd756" x="365.25767" y="27.952533" style="fill: #ffa600; stroke: #ffffff; stroke-width: 0.75"/>
     <use xlink:href="#macf34cd756" x="381.490398" y="26.476226" style="fill: #ffa600; stroke: #ffffff; stroke-width: 0.75"/>
    </g>
   </g>
   <g id="line2d_42">
    <path d="M 56.835852 258.318582 
L 73.06858 258.374843 
L 89.301307 258.355704 
L 105.534034 258.376253 
L 121.766761 230.261655 
L 137.999489 210.633081 
L 154.232216 210.517027 
L 170.464943 186.552146 
L 186.69767 161.844062 
L 202.930398 161.837964 
L 219.163125 161.869471 
L 235.395852 161.860387 
L 251.62858 161.701774 
L 267.861307 159.000134 
L 284.094034 140.321018 
L 300.326761 110.308367 
L 316.559489 110.384402 
L 332.792216 110.470538 
L 349.024943 94.315201 
L 365.25767 93.96869 
L 381.490398 80.718707 
" clip-path="url(#pddb2cc6e70)" style="fill: none; stroke-dasharray: 6,2.25; stroke-dashoffset: 0; stroke: #ffa600; stroke-width: 1.5"/>
    <defs>
     <path id="m6cfb958689" d="M -2 4 
L 0 2 
L 2 4 
L 4 2 
L 2 0 
L 4 -2 
L 2 -4 
L 0 -2 
L -2 -4 
L -4 -2 
L -2 0 
L -4 2 
z
" style="stroke: #ffffff; stroke-width: 0.75; stroke-linejoin: miter"/>
    </defs>
    <g clip-path="url(#pddb2cc6e70)">
     <use xlink:href="#m6cfb958689" x="56.835852" y="258.318582" style="fill: #ffa600; stroke: #ffffff; stroke-width: 0.75; stroke-linejoin: miter"/>
     <use xlink:href="#m6cfb958689" x="73.06858" y="258.374843" style="fill: #ffa600; stroke: #ffffff; stroke-width: 0.75; stroke-linejoin: miter"/>
     <use xlink:href="#m6cfb958689" x="89.301307" y="258.355704" style="fill: #ffa600; stroke: #ffffff; stroke-width: 0.75; stroke-linejoin: miter"/>
     <use xlink:href="#m6cfb958689" x="105.534034" y="258.376253" style="fill: #ffa600; stroke: #ffffff; stroke-width: 0.75; stroke-linejoin: miter"/>
     <use xlink:href="#m6cfb958689" x="121.766761" y="230.261655" style="fill: #ffa600; stroke: #ffffff; stroke-width: 0.75; stroke-linejoin: miter"/>
     <use xlink:href="#m6cfb958689" x="137.999489" y="210.633081" style="fill: #ffa600; stroke: #ffffff; stroke-width: 0.75; stroke-linejoin: miter"/>
     <use xlink:href="#m6cfb958689" x="154.232216" y="210.517027" style="fill: #ffa600; stroke: #ffffff; stroke-width: 0.75; stroke-linejoin: miter"/>
     <use xlink:href="#m6cfb958689" x="170.464943" y="186.552146" style="fill: #ffa600; stroke: #ffffff; stroke-width: 0.75; stroke-linejoin: miter"/>
     <use xlink:href="#m6cfb958689" x="186.69767" y="161.844062" style="fill: #ffa600; stroke: #ffffff; stroke-width: 0.75; stroke-linejoin: miter"/>
     <use xlink:href="#m6cfb958689" x="202.930398" y="161.837964" style="fill: #ffa600; stroke: #ffffff; stroke-width: 0.75; stroke-linejoin: miter"/>
     <use xlink:href="#m6cfb958689" x="219.163125" y="161.869471" style="fill: #ffa600; stroke: #ffffff; stroke-width: 0.75; stroke-linejoin: miter"/>
     <use xlink:href="#m6cfb958689" x="235.395852" y="161.860387" style="fill: #ffa600; stroke: #ffffff; stroke-width: 0.75; stroke-linejoin: miter"/>
     <use xlink:href="#m6cfb958689" x="251.62858" y="161.701774" style="fill: #ffa600; stroke: #ffffff; stroke-width: 0.75; stroke-linejoin: miter"/>
     <use xlink:href="#m6cfb958689" x="267.861307" y="159.000134" style="fill: #ffa600; stroke: #ffffff; stroke-width: 0.75; stroke-linejoin: miter"/>
     <use xlink:href="#m6cfb958689" x="284.094034" y="140.321018" style="fill: #ffa600; stroke: #ffffff; stroke-width: 0.75; stroke-linejoin: miter"/>
     <use xlink:href="#m6cfb958689" x="300.326761" y="110.308367" style="fill: #ffa600; stroke: #ffffff; stroke-width: 0.75; stroke-linejoin: miter"/>
     <use xlink:href="#m6cfb958689" x="316.559489" y="110.384402" style="fill: #ffa600; stroke: #ffffff; stroke-width: 0.75; stroke-linejoin: miter"/>
     <use xlink:href="#m6cfb958689" x="332.792216" y="110.470538" style="fill: #ffa600; stroke: #ffffff; stroke-width: 0.75; stroke-linejoin: miter"/>
     <use xlink:href="#m6cfb958689" x="349.024943" y="94.315201" style="fill: #ffa600; stroke: #ffffff; stroke-width: 0.75; stroke-linejoin: miter"/>
     <use xlink:href="#m6cfb958689" x="365.25767" y="93.96869" style="fill: #ffa600; stroke: #ffffff; stroke-width: 0.75; stroke-linejoin: miter"/>
     <use xlink:href="#m6cfb958689" x="381.490398" y="80.718707" style="fill: #ffa600; stroke: #ffffff; stroke-width: 0.75; stroke-linejoin: miter"/>
    </g>
   </g>
   <g id="line2d_43"/>
   <g id="line2d_44"/>
   <g id="line2d_45"/>
   <g id="line2d_46"/>
   <g id="line2d_47"/>
   <g id="line2d_48"/>
   <g id="line2d_49"/>
   <g id="patch_3">
    <path d="M 40.603125 273.312 
L 40.603125 7.2 
" style="fill: none; stroke: #000000; stroke-width: 0.8; stroke-linejoin: miter; stroke-linecap: square"/>
   </g>
   <g id="patch_4">
    <path d="M 397.723125 273.312 
L 397.723125 7.2 
" style="fill: none; stroke: #000000; stroke-width: 0.8; stroke-linejoin: miter; stroke-linecap: square"/>
   </g>
   <g id="patch_5">
    <path d="M 40.603125 273.312 
L 397.723125 273.312 
" style="fill: none; stroke: #000000; stroke-width: 0.8; stroke-linejoin: miter; stroke-linecap: square"/>
   </g>
   <g id="patch_6">
    <path d="M 40.603125 7.2 
L 397.723125 7.2 
" style="fill: none; stroke: #000000; stroke-width: 0.8; stroke-linejoin: miter; stroke-linecap: square"/>
   </g>
   <g id="legend_1">
    <g id="patch_7">
     <path d="M 49.003125 69.64125 
L 126.324375 69.64125 
Q 128.724375 69.64125 128.724375 67.24125 
L 128.724375 15.6 
Q 128.724375 13.2 126.324375 13.2 
L 49.003125 13.2 
Q 46.603125 13.2 46.603125 15.6 
L 46.603125 67.24125 
Q 46.603125 69.64125 49.003125 69.64125 
z
" style="fill: #ffffff; opacity: 0.8; stroke: #cccccc; stroke-linejoin: miter"/>
    </g>
    <g id="line2d_50">
     <path d="M 51.403125 22.918125 
L 63.403125 22.918125 
L 75.403125 22.918125 
" style="fill: none; stroke: #003f5c; stroke-width: 1.5; stroke-linecap: square"/>
    </g>
    <g id="text_21">
     <!-- 1 link -->
     <g transform="translate(85.003125 27.118125) scale(0.12 -0.12)">
      <defs>
       <path id="DejaVuSans-6c" d="M 603 4863 
L 1178 4863 
L 1178 0 
L 603 0 
L 603 4863 
z
" transform="scale(0.015625)"/>
       <path id="DejaVuSans-6b" d="M 581 4863 
L 1159 4863 
L 1159 1991 
L 2875 3500 
L 3609 3500 
L 1753 1863 
L 3688 0 
L 2938 0 
L 1159 1709 
L 1159 0 
L 581 0 
L 581 4863 
z
" transform="scale(0.015625)"/>
      </defs>
      <use xlink:href="#DejaVuSans-31"/>
      <use xlink:href="#DejaVuSans-20" x="63.623047"/>
      <use xlink:href="#DejaVuSans-6c" x="95.410156"/>
      <use xlink:href="#DejaVuSans-69" x="123.193359"/>
      <use xlink:href="#DejaVuSans-6e" x="150.976562"/>
      <use xlink:href="#DejaVuSans-6b" x="214.355469"/>
     </g>
    </g>
    <g id="line2d_51">
     <path d="M 51.403125 40.531875 
L 63.403125 40.531875 
L 75.403125 40.531875 
" style="fill: none; stroke: #bc5090; stroke-width: 1.5; stroke-linecap: square"/>
    </g>
    <g id="text_22">
     <!-- 2 links -->
     <g transform="translate(85.003125 44.731875) scale(0.12 -0.12)">
      <use xlink:href="#DejaVuSans-32"/>
      <use xlink:href="#DejaVuSans-20" x="63.623047"/>
      <use xlink:href="#DejaVuSans-6c" x="95.410156"/>
      <use xlink:href="#DejaVuSans-69" x="123.193359"/>
      <use xlink:href="#DejaVuSans-6e" x="150.976562"/>
      <use xlink:href="#DejaVuSans-6b" x="214.355469"/>
      <use xlink:href="#DejaVuSans-73" x="272.265625"/>
     </g>
    </g>
    <g id="line2d_52">
     <path d="M 51.403125 58.145625 
L 63.403125 58.145625 
L 75.403125 58.145625 
" style="fill: none; stroke: #ffa600; stroke-width: 1.5; stroke-linecap: square"/>
    </g>
    <g id="text_23">
     <!-- 3 links -->
     <g transform="translate(85.003125 62.345625) scale(0.12 -0.12)">
      <use xlink:href="#DejaVuSans-33"/>
      <use xlink:href="#DejaVuSans-20" x="63.623047"/>
      <use xlink:href="#DejaVuSans-6c" x="95.410156"/>
      <use xlink:href="#DejaVuSans-69" x="123.193359"/>
      <use xlink:href="#DejaVuSans-6e" x="150.976562"/>
      <use xlink:href="#DejaVuSans-6b" x="214.355469"/>
      <use xlink:href="#DejaVuSans-73" x="272.265625"/>
     </g>
    </g>
   </g>
  </g>
 </g>
 <defs>
  <clipPath id="pddb2cc6e70">
   <rect x="40.603125" y="7.2" width="357.12" height="266.112"/>
  </clipPath>
 </defs>
</svg>
