<?xml version="1.0" encoding="utf-8" standalone="no"?>
<!DOCTYPE svg PUBLIC "-//W3C//DTD SVG 1.1//EN"
  "http://www.w3.org/Graphics/SVG/1.1/DTD/svg11.dtd">
<svg xmlns:xlink="http://www.w3.org/1999/xlink" width="404.923125pt" height="310.86825pt" viewBox="0 0 404.923125 310.86825" xmlns="http://www.w3.org/2000/svg" version="1.1">
 <metadata>
  <rdf:RDF xmlns:dc="http://purl.org/dc/elements/1.1/" xmlns:cc="http://creativecommons.org/ns#" xmlns:rdf="http://www.w3.org/1999/02/22-rdf-syntax-ns#">
   <cc:Work>
    <dc:type rdf:resource="http://purl.org/dc/dcmitype/StillImage"/>
    <dc:date>2025-05-16T14:07:10.691705</dc:date>
    <dc:format>image/svg+xml</dc:format>
    <dc:creator>
     <cc:Agent>
      <dc:title>Matplotlib v3.9.2, https://matplotlib.org/</dc:title>
     </cc:Agent>
    </dc:creator>
   </cc:Work>
  </rdf:RDF>
 </metadata>
 <defs>
  <style type="text/css">*{stroke-linejoin: round; stroke-linecap: butt}</style>
 </defs>
 <g id="figure_1">
  <g id="patch_1">
   <path d="M 0 310.86825 
L 404.923125 310.86825 
L 404.923125 0 
L 0 0 
z
" style="fill: #ffffff"/>
  </g>
  <g id="axes_1">
   <g id="patch_2">
    <path d="M 40.603125 273.312 
L 397.723125 273.312 
L 397.723125 7.2 
L 40.603125 7.2 
z
" style="fill: #ffffff"/>
   </g>
   <g id="PolyCollection_1">
    <defs>
     <path id="m64d85bd79c" d="M 56.835852 -214.813235 
L 56.835852 -211.681966 
L 78.479489 -213.552196 
L 100.123125 -244.568487 
L 121.766761 -236.398534 
L 143.410398 -239.754376 
L 165.054034 -239.754376 
L 186.69767 -239.495898 
L 208.341307 -250.239331 
L 229.984943 -256.368436 
L 251.62858 -268.647062 
L 273.272216 -268.528942 
L 294.915852 -269.464057 
L 316.559489 -268.633208 
L 338.203125 -270.911024 
L 359.846761 -283.24069 
L 381.490398 -285.138627 
L 381.490398 -286.960005 
L 381.490398 -286.960005 
L 359.846761 -283.431358 
L 338.203125 -272.091129 
L 316.559489 -270.103872 
L 294.915852 -270.520937 
L 273.272216 -269.427965 
L 251.62858 -269.18334 
L 229.984943 -262.957625 
L 208.341307 -250.876594 
L 186.69767 -240.372682 
L 165.054034 -240.137901 
L 143.410398 -240.137901 
L 121.766761 -241.288839 
L 100.123125 -251.660414 
L 78.479489 -216.602166 
L 56.835852 -214.813235 
z
" style="stroke: #003f5c; stroke-opacity: 0.2"/>
    </defs>
    <g clip-path="url(#p0272ab4f32)">
     <use xlink:href="#m64d85bd79c" x="0" y="310.86825" style="fill: #003f5c; fill-opacity: 0.2; stroke: #003f5c; stroke-opacity: 0.2"/>
    </g>
   </g>
   <g id="PolyCollection_2">
    <defs>
     <path id="meec0233f53" d="M 56.835852 -215.029788 
L 56.835852 -213.066593 
L 78.479489 -214.809224 
L 100.123125 -239.878329 
L 121.766761 -240.645743 
L 143.410398 -240.101079 
L 165.054034 -240.101079 
L 186.69767 -242.106564 
L 208.341307 -256.338541 
L 229.984943 -265.465483 
L 251.62858 -270.533697 
L 273.272216 -272.036808 
L 294.915852 -271.509279 
L 316.559489 -271.375483 
L 338.203125 -272.432728 
L 359.846761 -284.566256 
L 381.490398 -287.927931 
L 381.490398 -291.057012 
L 381.490398 -291.057012 
L 359.846761 -286.508306 
L 338.203125 -273.670799 
L 316.559489 -271.995612 
L 294.915852 -271.859993 
L 273.272216 -272.589857 
L 251.62858 -271.448397 
L 229.984943 -272.223467 
L 208.341307 -258.467614 
L 186.69767 -246.028579 
L 165.054034 -245.684063 
L 143.410398 -245.684063 
L 121.766761 -246.993224 
L 100.123125 -246.927237 
L 78.479489 -216.939391 
L 56.835852 -215.029788 
z
" style="stroke: #003f5c; stroke-opacity: 0.2"/>
    </defs>
    <g clip-path="url(#p0272ab4f32)">
     <use xlink:href="#meec0233f53" x="0" y="310.86825" style="fill: #003f5c; fill-opacity: 0.2; stroke: #003f5c; stroke-opacity: 0.2"/>
    </g>
   </g>
   <g id="PolyCollection_3">
    <defs>
     <path id="ma5b35bca0e" d="M 56.835852 -55.28162 
L 56.835852 -55.218404 
L 78.479489 -55.253476 
L 100.123125 -55.640427 
L 121.766761 -55.810535 
L 143.410398 -85.368519 
L 143.410398 -85.621893 
L 143.410398 -85.621893 
L 121.766761 -55.881698 
L 100.123125 -55.848267 
L 78.479489 -55.254788 
L 56.835852 -55.28162 
z
" style="stroke: #bc5090; stroke-opacity: 0.2"/>
    </defs>
    <g clip-path="url(#p0272ab4f32)">
     <use xlink:href="#ma5b35bca0e" x="0" y="310.86825" style="fill: #bc5090; fill-opacity: 0.2; stroke: #bc5090; stroke-opacity: 0.2"/>
    </g>
   </g>
   <g id="PolyCollection_4">
    <defs>
     <path id="m53ad45a87b" d="M 56.835852 -58.095424 
L 56.835852 -57.984532 
L 78.479489 -58.315549 
L 100.123125 -65.382394 
L 121.766761 -65.406237 
L 143.410398 -65.37678 
L 143.410398 -65.980175 
L 143.410398 -65.980175 
L 121.766761 -65.713057 
L 100.123125 -65.576709 
L 78.479489 -58.35197 
L 56.835852 -58.095424 
z
" style="stroke: #bc5090; stroke-opacity: 0.2"/>
    </defs>
    <g clip-path="url(#p0272ab4f32)">
     <use xlink:href="#m53ad45a87b" x="0" y="310.86825" style="fill: #bc5090; fill-opacity: 0.2; stroke: #bc5090; stroke-opacity: 0.2"/>
    </g>
   </g>
   <g id="PolyCollection_5">
    <defs>
     <path id="m5cf49d0a34" d="M 56.835852 -38.869655 
L 56.835852 -38.832254 
L 78.479489 -38.867671 
L 100.123125 -39.270496 
L 121.766761 -39.619041 
L 143.410398 -70.94518 
L 165.054034 -108.551352 
L 186.69767 -109.102943 
L 208.341307 -110.332628 
L 229.984943 -126.628421 
L 251.62858 -154.448914 
L 273.272216 -184.008029 
L 294.915852 -184.50858 
L 316.559489 -187.888848 
L 338.203125 -208.14056 
L 359.846761 -221.832978 
L 381.490398 -234.456484 
L 381.490398 -235.652265 
L 381.490398 -235.652265 
L 359.846761 -222.644869 
L 338.203125 -209.582423 
L 316.559489 -188.068215 
L 294.915852 -185.184123 
L 273.272216 -184.421813 
L 251.62858 -154.505058 
L 229.984943 -127.04184 
L 208.341307 -110.485382 
L 186.69767 -109.135389 
L 165.054034 -108.61187 
L 143.410398 -70.946821 
L 121.766761 -39.649493 
L 100.123125 -39.49359 
L 78.479489 -38.897792 
L 56.835852 -38.869655 
z
" style="stroke: #ff6361; stroke-opacity: 0.2"/>
    </defs>
    <g clip-path="url(#p0272ab4f32)">
     <use xlink:href="#m5cf49d0a34" x="0" y="310.86825" style="fill: #ff6361; fill-opacity: 0.2; stroke: #ff6361; stroke-opacity: 0.2"/>
    </g>
   </g>
   <g id="PolyCollection_6">
    <defs>
     <path id="m0872de13a5" d="M 56.835852 -55.470612 
L 56.835852 -55.269043 
L 78.479489 -55.506012 
L 100.123125 -56.433835 
L 121.766761 -56.829682 
L 143.410398 -56.329569 
L 165.054034 -64.869667 
L 186.69767 -66.045068 
L 208.341307 -96.613597 
L 229.984943 -111.541533 
L 251.62858 -124.190924 
L 273.272216 -124.853707 
L 294.915852 -125.048022 
L 316.559489 -125.471649 
L 338.203125 -129.785938 
L 359.846761 -154.517817 
L 381.490398 -162.380075 
L 381.490398 -164.712212 
L 381.490398 -164.712212 
L 359.846761 -159.143082 
L 338.203125 -131.736008 
L 316.559489 -127.579941 
L 294.915852 -127.214645 
L 273.272216 -127.303964 
L 251.62858 -124.402373 
L 229.984943 -111.8598 
L 208.341307 -97.218414 
L 186.69767 -66.900708 
L 165.054034 -65.912657 
L 143.410398 -56.471896 
L 121.766761 -57.192791 
L 100.123125 -56.647654 
L 78.479489 -55.623876 
L 56.835852 -55.470612 
z
" style="stroke: #ff6361; stroke-opacity: 0.2"/>
    </defs>
    <g clip-path="url(#p0272ab4f32)">
     <use xlink:href="#m0872de13a5" x="0" y="310.86825" style="fill: #ff6361; fill-opacity: 0.2; stroke: #ff6361; stroke-opacity: 0.2"/>
    </g>
   </g>
   <g id="PolyCollection_7">
    <defs>
     <path id="m486b822713" d="M 56.835852 -54.261124 
L 56.835852 -54.162508 
L 78.479489 -54.187007 
L 100.123125 -54.590802 
L 121.766761 -54.691422 
L 143.410398 -89.640519 
L 165.054034 -119.584252 
L 165.054034 -120.200735 
L 165.054034 -120.200735 
L 143.410398 -89.668955 
L 121.766761 -55.067437 
L 100.123125 -54.678845 
L 78.479489 -54.290581 
L 56.835852 -54.261124 
z
" style="stroke: #ffa600; stroke-opacity: 0.2"/>
    </defs>
    <g clip-path="url(#p0272ab4f32)">
     <use xlink:href="#m486b822713" x="0" y="310.86825" style="fill: #ffa600; fill-opacity: 0.2; stroke: #ffa600; stroke-opacity: 0.2"/>
    </g>
   </g>
   <g id="PolyCollection_8">
    <defs>
     <path id="mab851f7960" d="M 56.835852 -59.916583 
L 56.835852 -59.269841 
L 78.479489 -59.540568 
L 100.123125 -66.255241 
L 121.766761 -66.307192 
L 143.410398 -66.069567 
L 165.054034 -64.585997 
L 165.054034 -64.694893 
L 165.054034 -64.694893 
L 143.410398 -66.266506 
L 121.766761 -66.76662 
L 100.123125 -66.488601 
L 78.479489 -59.545198 
L 56.835852 -59.916583 
z
" style="stroke: #ffa600; stroke-opacity: 0.2"/>
    </defs>
    <g clip-path="url(#p0272ab4f32)">
     <use xlink:href="#mab851f7960" x="0" y="310.86825" style="fill: #ffa600; fill-opacity: 0.2; stroke: #ffa600; stroke-opacity: 0.2"/>
    </g>
   </g>
   <g id="matplotlib.axis_1">
    <g id="xtick_1">
     <g id="line2d_1">
      <path d="M 46.014034 273.312 
L 46.014034 7.2 
" clip-path="url(#p0272ab4f32)" style="fill: none; stroke-dasharray: 1.85,0.8; stroke-dashoffset: 0; stroke: #ffffff; stroke-width: 0.5"/>
     </g>
     <g id="line2d_2">
      <defs>
       <path id="mcf1c6521f1" d="M 0 0 
L 0 3.5 
" style="stroke: #000000; stroke-width: 0.8"/>
      </defs>
      <g>
       <use xlink:href="#mcf1c6521f1" x="46.014034" y="273.312" style="stroke: #000000; stroke-width: 0.8"/>
      </g>
     </g>
     <g id="text_1">
      <!-- 0 -->
      <g transform="translate(42.832784 287.910437) scale(0.1 -0.1)">
       <defs>
        <path id="DejaVuSans-30" d="M 2034 4250 
Q 1547 4250 1301 3770 
Q 1056 3291 1056 2328 
Q 1056 1369 1301 889 
Q 1547 409 2034 409 
Q 2525 409 2770 889 
Q 3016 1369 3016 2328 
Q 3016 3291 2770 3770 
Q 2525 4250 2034 4250 
z
M 2034 4750 
Q 2819 4750 3233 4129 
Q 3647 3509 3647 2328 
Q 3647 1150 3233 529 
Q 2819 -91 2034 -91 
Q 1250 -91 836 529 
Q 422 1150 422 2328 
Q 422 3509 836 4129 
Q 1250 4750 2034 4750 
z
" transform="scale(0.015625)"/>
       </defs>
       <use xlink:href="#DejaVuSans-30"/>
      </g>
     </g>
    </g>
    <g id="xtick_2">
     <g id="line2d_3">
      <path d="M 100.123125 273.312 
L 100.123125 7.2 
" clip-path="url(#p0272ab4f32)" style="fill: none; stroke-dasharray: 1.85,0.8; stroke-dashoffset: 0; stroke: #ffffff; stroke-width: 0.5"/>
     </g>
     <g id="line2d_4">
      <g>
       <use xlink:href="#mcf1c6521f1" x="100.123125" y="273.312" style="stroke: #000000; stroke-width: 0.8"/>
      </g>
     </g>
     <g id="text_2">
      <!-- 5 -->
      <g transform="translate(96.941875 287.910437) scale(0.1 -0.1)">
       <defs>
        <path id="DejaVuSans-35" d="M 691 4666 
L 3169 4666 
L 3169 4134 
L 1269 4134 
L 1269 2991 
Q 1406 3038 1543 3061 
Q 1681 3084 1819 3084 
Q 2600 3084 3056 2656 
Q 3513 2228 3513 1497 
Q 3513 744 3044 326 
Q 2575 -91 1722 -91 
Q 1428 -91 1123 -41 
Q 819 9 494 109 
L 494 744 
Q 775 591 1075 516 
Q 1375 441 1709 441 
Q 2250 441 2565 725 
Q 2881 1009 2881 1497 
Q 2881 1984 2565 2268 
Q 2250 2553 1709 2553 
Q 1456 2553 1204 2497 
Q 953 2441 691 2322 
L 691 4666 
z
" transform="scale(0.015625)"/>
       </defs>
       <use xlink:href="#DejaVuSans-35"/>
      </g>
     </g>
    </g>
    <g id="xtick_3">
     <g id="line2d_5">
      <path d="M 154.232216 273.312 
L 154.232216 7.2 
" clip-path="url(#p0272ab4f32)" style="fill: none; stroke-dasharray: 1.85,0.8; stroke-dashoffset: 0; stroke: #ffffff; stroke-width: 0.5"/>
     </g>
     <g id="line2d_6">
      <g>
       <use xlink:href="#mcf1c6521f1" x="154.232216" y="273.312" style="stroke: #000000; stroke-width: 0.8"/>
      </g>
     </g>
     <g id="text_3">
      <!-- 10 -->
      <g transform="translate(147.869716 287.910437) scale(0.1 -0.1)">
       <defs>
        <path id="DejaVuSans-31" d="M 794 531 
L 1825 531 
L 1825 4091 
L 703 3866 
L 703 4441 
L 1819 4666 
L 2450 4666 
L 2450 531 
L 3481 531 
L 3481 0 
L 794 0 
L 794 531 
z
" transform="scale(0.015625)"/>
       </defs>
       <use xlink:href="#DejaVuSans-31"/>
       <use xlink:href="#DejaVuSans-30" x="63.623047"/>
      </g>
     </g>
    </g>
    <g id="xtick_4">
     <g id="line2d_7">
      <path d="M 208.341307 273.312 
L 208.341307 7.2 
" clip-path="url(#p0272ab4f32)" style="fill: none; stroke-dasharray: 1.85,0.8; stroke-dashoffset: 0; stroke: #ffffff; stroke-width: 0.5"/>
     </g>
     <g id="line2d_8">
      <g>
       <use xlink:href="#mcf1c6521f1" x="208.341307" y="273.312" style="stroke: #000000; stroke-width: 0.8"/>
      </g>
     </g>
     <g id="text_4">
      <!-- 15 -->
      <g transform="translate(201.978807 287.910437) scale(0.1 -0.1)">
       <use xlink:href="#DejaVuSans-31"/>
       <use xlink:href="#DejaVuSans-35" x="63.623047"/>
      </g>
     </g>
    </g>
    <g id="xtick_5">
     <g id="line2d_9">
      <path d="M 262.450398 273.312 
L 262.450398 7.2 
" clip-path="url(#p0272ab4f32)" style="fill: none; stroke-dasharray: 1.85,0.8; stroke-dashoffset: 0; stroke: #ffffff; stroke-width: 0.5"/>
     </g>
     <g id="line2d_10">
      <g>
       <use xlink:href="#mcf1c6521f1" x="262.450398" y="273.312" style="stroke: #000000; stroke-width: 0.8"/>
      </g>
     </g>
     <g id="text_5">
      <!-- 20 -->
      <g transform="translate(256.087898 287.910437) scale(0.1 -0.1)">
       <defs>
        <path id="DejaVuSans-32" d="M 1228 531 
L 3431 531 
L 3431 0 
L 469 0 
L 469 531 
Q 828 903 1448 1529 
Q 2069 2156 2228 2338 
Q 2531 2678 2651 2914 
Q 2772 3150 2772 3378 
Q 2772 3750 2511 3984 
Q 2250 4219 1831 4219 
Q 1534 4219 1204 4116 
Q 875 4013 500 3803 
L 500 4441 
Q 881 4594 1212 4672 
Q 1544 4750 1819 4750 
Q 2544 4750 2975 4387 
Q 3406 4025 3406 3419 
Q 3406 3131 3298 2873 
Q 3191 2616 2906 2266 
Q 2828 2175 2409 1742 
Q 1991 1309 1228 531 
z
" transform="scale(0.015625)"/>
       </defs>
       <use xlink:href="#DejaVuSans-32"/>
       <use xlink:href="#DejaVuSans-30" x="63.623047"/>
      </g>
     </g>
    </g>
    <g id="xtick_6">
     <g id="line2d_11">
      <path d="M 316.559489 273.312 
L 316.559489 7.2 
" clip-path="url(#p0272ab4f32)" style="fill: none; stroke-dasharray: 1.85,0.8; stroke-dashoffset: 0; stroke: #ffffff; stroke-width: 0.5"/>
     </g>
     <g id="line2d_12">
      <g>
       <use xlink:href="#mcf1c6521f1" x="316.559489" y="273.312" style="stroke: #000000; stroke-width: 0.8"/>
      </g>
     </g>
     <g id="text_6">
      <!-- 25 -->
      <g transform="translate(310.196989 287.910437) scale(0.1 -0.1)">
       <use xlink:href="#DejaVuSans-32"/>
       <use xlink:href="#DejaVuSans-35" x="63.623047"/>
      </g>
     </g>
    </g>
    <g id="xtick_7">
     <g id="line2d_13">
      <path d="M 370.66858 273.312 
L 370.66858 7.2 
" clip-path="url(#p0272ab4f32)" style="fill: none; stroke-dasharray: 1.85,0.8; stroke-dashoffset: 0; stroke: #ffffff; stroke-width: 0.5"/>
     </g>
     <g id="line2d_14">
      <g>
       <use xlink:href="#mcf1c6521f1" x="370.66858" y="273.312" style="stroke: #000000; stroke-width: 0.8"/>
      </g>
     </g>
     <g id="text_7">
      <!-- 30 -->
      <g transform="translate(364.30608 287.910437) scale(0.1 -0.1)">
       <defs>
        <path id="DejaVuSans-33" d="M 2597 2516 
Q 3050 2419 3304 2112 
Q 3559 1806 3559 1356 
Q 3559 666 3084 287 
Q 2609 -91 1734 -91 
Q 1441 -91 1130 -33 
Q 819 25 488 141 
L 488 750 
Q 750 597 1062 519 
Q 1375 441 1716 441 
Q 2309 441 2620 675 
Q 2931 909 2931 1356 
Q 2931 1769 2642 2001 
Q 2353 2234 1838 2234 
L 1294 2234 
L 1294 2753 
L 1863 2753 
Q 2328 2753 2575 2939 
Q 2822 3125 2822 3475 
Q 2822 3834 2567 4026 
Q 2313 4219 1838 4219 
Q 1578 4219 1281 4162 
Q 984 4106 628 3988 
L 628 4550 
Q 988 4650 1302 4700 
Q 1616 4750 1894 4750 
Q 2613 4750 3031 4423 
Q 3450 4097 3450 3541 
Q 3450 3153 3228 2886 
Q 3006 2619 2597 2516 
z
" transform="scale(0.015625)"/>
       </defs>
       <use xlink:href="#DejaVuSans-33"/>
       <use xlink:href="#DejaVuSans-30" x="63.623047"/>
      </g>
     </g>
    </g>
    <g id="text_8">
     <!-- Distance [m] -->
     <g transform="translate(186.939687 301.588562) scale(0.1 -0.1)">
      <defs>
       <path id="DejaVuSans-44" d="M 1259 4147 
L 1259 519 
L 2022 519 
Q 2988 519 3436 956 
Q 3884 1394 3884 2338 
Q 3884 3275 3436 3711 
Q 2988 4147 2022 4147 
L 1259 4147 
z
M 628 4666 
L 1925 4666 
Q 3281 4666 3915 4102 
Q 4550 3538 4550 2338 
Q 4550 1131 3912 565 
Q 3275 0 1925 0 
L 628 0 
L 628 4666 
z
" transform="scale(0.015625)"/>
       <path id="DejaVuSans-69" d="M 603 3500 
L 1178 3500 
L 1178 0 
L 603 0 
L 603 3500 
z
M 603 4863 
L 1178 4863 
L 1178 4134 
L 603 4134 
L 603 4863 
z
" transform="scale(0.015625)"/>
       <path id="DejaVuSans-73" d="M 2834 3397 
L 2834 2853 
Q 2591 2978 2328 3040 
Q 2066 3103 1784 3103 
Q 1356 3103 1142 2972 
Q 928 2841 928 2578 
Q 928 2378 1081 2264 
Q 1234 2150 1697 2047 
L 1894 2003 
Q 2506 1872 2764 1633 
Q 3022 1394 3022 966 
Q 3022 478 2636 193 
Q 2250 -91 1575 -91 
Q 1294 -91 989 -36 
Q 684 19 347 128 
L 347 722 
Q 666 556 975 473 
Q 1284 391 1588 391 
Q 1994 391 2212 530 
Q 2431 669 2431 922 
Q 2431 1156 2273 1281 
Q 2116 1406 1581 1522 
L 1381 1569 
Q 847 1681 609 1914 
Q 372 2147 372 2553 
Q 372 3047 722 3315 
Q 1072 3584 1716 3584 
Q 2034 3584 2315 3537 
Q 2597 3491 2834 3397 
z
" transform="scale(0.015625)"/>
       <path id="DejaVuSans-74" d="M 1172 4494 
L 1172 3500 
L 2356 3500 
L 2356 3053 
L 1172 3053 
L 1172 1153 
Q 1172 725 1289 603 
Q 1406 481 1766 481 
L 2356 481 
L 2356 0 
L 1766 0 
Q 1100 0 847 248 
Q 594 497 594 1153 
L 594 3053 
L 172 3053 
L 172 3500 
L 594 3500 
L 594 4494 
L 1172 4494 
z
" transform="scale(0.015625)"/>
       <path id="DejaVuSans-61" d="M 2194 1759 
Q 1497 1759 1228 1600 
Q 959 1441 959 1056 
Q 959 750 1161 570 
Q 1363 391 1709 391 
Q 2188 391 2477 730 
Q 2766 1069 2766 1631 
L 2766 1759 
L 2194 1759 
z
M 3341 1997 
L 3341 0 
L 2766 0 
L 2766 531 
Q 2569 213 2275 61 
Q 1981 -91 1556 -91 
Q 1019 -91 701 211 
Q 384 513 384 1019 
Q 384 1609 779 1909 
Q 1175 2209 1959 2209 
L 2766 2209 
L 2766 2266 
Q 2766 2663 2505 2880 
Q 2244 3097 1772 3097 
Q 1472 3097 1187 3025 
Q 903 2953 641 2809 
L 641 3341 
Q 956 3463 1253 3523 
Q 1550 3584 1831 3584 
Q 2591 3584 2966 3190 
Q 3341 2797 3341 1997 
z
" transform="scale(0.015625)"/>
       <path id="DejaVuSans-6e" d="M 3513 2113 
L 3513 0 
L 2938 0 
L 2938 2094 
Q 2938 2591 2744 2837 
Q 2550 3084 2163 3084 
Q 1697 3084 1428 2787 
Q 1159 2491 1159 1978 
L 1159 0 
L 581 0 
L 581 3500 
L 1159 3500 
L 1159 2956 
Q 1366 3272 1645 3428 
Q 1925 3584 2291 3584 
Q 2894 3584 3203 3211 
Q 3513 2838 3513 2113 
z
" transform="scale(0.015625)"/>
       <path id="DejaVuSans-63" d="M 3122 3366 
L 3122 2828 
Q 2878 2963 2633 3030 
Q 2388 3097 2138 3097 
Q 1578 3097 1268 2742 
Q 959 2388 959 1747 
Q 959 1106 1268 751 
Q 1578 397 2138 397 
Q 2388 397 2633 464 
Q 2878 531 3122 666 
L 3122 134 
Q 2881 22 2623 -34 
Q 2366 -91 2075 -91 
Q 1284 -91 818 406 
Q 353 903 353 1747 
Q 353 2603 823 3093 
Q 1294 3584 2113 3584 
Q 2378 3584 2631 3529 
Q 2884 3475 3122 3366 
z
" transform="scale(0.015625)"/>
       <path id="DejaVuSans-65" d="M 3597 1894 
L 3597 1613 
L 953 1613 
Q 991 1019 1311 708 
Q 1631 397 2203 397 
Q 2534 397 2845 478 
Q 3156 559 3463 722 
L 3463 178 
Q 3153 47 2828 -22 
Q 2503 -91 2169 -91 
Q 1331 -91 842 396 
Q 353 884 353 1716 
Q 353 2575 817 3079 
Q 1281 3584 2069 3584 
Q 2775 3584 3186 3129 
Q 3597 2675 3597 1894 
z
M 3022 2063 
Q 3016 2534 2758 2815 
Q 2500 3097 2075 3097 
Q 1594 3097 1305 2825 
Q 1016 2553 972 2059 
L 3022 2063 
z
" transform="scale(0.015625)"/>
       <path id="DejaVuSans-20" transform="scale(0.015625)"/>
       <path id="DejaVuSans-5b" d="M 550 4863 
L 1875 4863 
L 1875 4416 
L 1125 4416 
L 1125 -397 
L 1875 -397 
L 1875 -844 
L 550 -844 
L 550 4863 
z
" transform="scale(0.015625)"/>
       <path id="DejaVuSans-6d" d="M 3328 2828 
Q 3544 3216 3844 3400 
Q 4144 3584 4550 3584 
Q 5097 3584 5394 3201 
Q 5691 2819 5691 2113 
L 5691 0 
L 5113 0 
L 5113 2094 
Q 5113 2597 4934 2840 
Q 4756 3084 4391 3084 
Q 3944 3084 3684 2787 
Q 3425 2491 3425 1978 
L 3425 0 
L 2847 0 
L 2847 2094 
Q 2847 2600 2669 2842 
Q 2491 3084 2119 3084 
Q 1678 3084 1418 2786 
Q 1159 2488 1159 1978 
L 1159 0 
L 581 0 
L 581 3500 
L 1159 3500 
L 1159 2956 
Q 1356 3278 1631 3431 
Q 1906 3584 2284 3584 
Q 2666 3584 2933 3390 
Q 3200 3197 3328 2828 
z
" transform="scale(0.015625)"/>
       <path id="DejaVuSans-5d" d="M 1947 4863 
L 1947 -844 
L 622 -844 
L 622 -397 
L 1369 -397 
L 1369 4416 
L 622 4416 
L 622 4863 
L 1947 4863 
z
" transform="scale(0.015625)"/>
      </defs>
      <use xlink:href="#DejaVuSans-44"/>
      <use xlink:href="#DejaVuSans-69" x="77.001953"/>
      <use xlink:href="#DejaVuSans-73" x="104.785156"/>
      <use xlink:href="#DejaVuSans-74" x="156.884766"/>
      <use xlink:href="#DejaVuSans-61" x="196.09375"/>
      <use xlink:href="#DejaVuSans-6e" x="257.373047"/>
      <use xlink:href="#DejaVuSans-63" x="320.751953"/>
      <use xlink:href="#DejaVuSans-65" x="375.732422"/>
      <use xlink:href="#DejaVuSans-20" x="437.255859"/>
      <use xlink:href="#DejaVuSans-5b" x="469.042969"/>
      <use xlink:href="#DejaVuSans-6d" x="508.056641"/>
      <use xlink:href="#DejaVuSans-5d" x="605.46875"/>
     </g>
    </g>
   </g>
   <g id="matplotlib.axis_2">
    <g id="ytick_1">
     <g id="line2d_15">
      <path d="M 40.603125 273.312 
L 397.723125 273.312 
" clip-path="url(#p0272ab4f32)" style="fill: none; stroke-dasharray: 1.85,0.8; stroke-dashoffset: 0; stroke: #ffffff; stroke-width: 0.5"/>
     </g>
     <g id="line2d_16">
      <defs>
       <path id="m031cb869b6" d="M 0 0 
L -3.5 0 
" style="stroke: #000000; stroke-width: 0.8"/>
      </defs>
      <g>
       <use xlink:href="#m031cb869b6" x="40.603125" y="273.312" style="stroke: #000000; stroke-width: 0.8"/>
      </g>
     </g>
     <g id="text_9">
      <!-- 0 -->
      <g transform="translate(27.240625 277.111219) scale(0.1 -0.1)">
       <use xlink:href="#DejaVuSans-30"/>
      </g>
     </g>
    </g>
    <g id="ytick_2">
     <g id="line2d_17">
      <path d="M 40.603125 236.855272 
L 397.723125 236.855272 
" clip-path="url(#p0272ab4f32)" style="fill: none; stroke-dasharray: 1.85,0.8; stroke-dashoffset: 0; stroke: #ffffff; stroke-width: 0.5"/>
     </g>
     <g id="line2d_18">
      <g>
       <use xlink:href="#m031cb869b6" x="40.603125" y="236.855272" style="stroke: #000000; stroke-width: 0.8"/>
      </g>
     </g>
     <g id="text_10">
      <!-- 10 -->
      <g transform="translate(20.878125 240.654491) scale(0.1 -0.1)">
       <use xlink:href="#DejaVuSans-31"/>
       <use xlink:href="#DejaVuSans-30" x="63.623047"/>
      </g>
     </g>
    </g>
    <g id="ytick_3">
     <g id="line2d_19">
      <path d="M 40.603125 200.398545 
L 397.723125 200.398545 
" clip-path="url(#p0272ab4f32)" style="fill: none; stroke-dasharray: 1.85,0.8; stroke-dashoffset: 0; stroke: #ffffff; stroke-width: 0.5"/>
     </g>
     <g id="line2d_20">
      <g>
       <use xlink:href="#m031cb869b6" x="40.603125" y="200.398545" style="stroke: #000000; stroke-width: 0.8"/>
      </g>
     </g>
     <g id="text_11">
      <!-- 20 -->
      <g transform="translate(20.878125 204.197763) scale(0.1 -0.1)">
       <use xlink:href="#DejaVuSans-32"/>
       <use xlink:href="#DejaVuSans-30" x="63.623047"/>
      </g>
     </g>
    </g>
    <g id="ytick_4">
     <g id="line2d_21">
      <path d="M 40.603125 163.941817 
L 397.723125 163.941817 
" clip-path="url(#p0272ab4f32)" style="fill: none; stroke-dasharray: 1.85,0.8; stroke-dashoffset: 0; stroke: #ffffff; stroke-width: 0.5"/>
     </g>
     <g id="line2d_22">
      <g>
       <use xlink:href="#m031cb869b6" x="40.603125" y="163.941817" style="stroke: #000000; stroke-width: 0.8"/>
      </g>
     </g>
     <g id="text_12">
      <!-- 30 -->
      <g transform="translate(20.878125 167.741036) scale(0.1 -0.1)">
       <use xlink:href="#DejaVuSans-33"/>
       <use xlink:href="#DejaVuSans-30" x="63.623047"/>
      </g>
     </g>
    </g>
    <g id="ytick_5">
     <g id="line2d_23">
      <path d="M 40.603125 127.485089 
L 397.723125 127.485089 
" clip-path="url(#p0272ab4f32)" style="fill: none; stroke-dasharray: 1.85,0.8; stroke-dashoffset: 0; stroke: #ffffff; stroke-width: 0.5"/>
     </g>
     <g id="line2d_24">
      <g>
       <use xlink:href="#m031cb869b6" x="40.603125" y="127.485089" style="stroke: #000000; stroke-width: 0.8"/>
      </g>
     </g>
     <g id="text_13">
      <!-- 40 -->
      <g transform="translate(20.878125 131.284308) scale(0.1 -0.1)">
       <defs>
        <path id="DejaVuSans-34" d="M 2419 4116 
L 825 1625 
L 2419 1625 
L 2419 4116 
z
M 2253 4666 
L 3047 4666 
L 3047 1625 
L 3713 1625 
L 3713 1100 
L 3047 1100 
L 3047 0 
L 2419 0 
L 2419 1100 
L 313 1100 
L 313 1709 
L 2253 4666 
z
" transform="scale(0.015625)"/>
       </defs>
       <use xlink:href="#DejaVuSans-34"/>
       <use xlink:href="#DejaVuSans-30" x="63.623047"/>
      </g>
     </g>
    </g>
    <g id="ytick_6">
     <g id="line2d_25">
      <path d="M 40.603125 91.028362 
L 397.723125 91.028362 
" clip-path="url(#p0272ab4f32)" style="fill: none; stroke-dasharray: 1.85,0.8; stroke-dashoffset: 0; stroke: #ffffff; stroke-width: 0.5"/>
     </g>
     <g id="line2d_26">
      <g>
       <use xlink:href="#m031cb869b6" x="40.603125" y="91.028362" style="stroke: #000000; stroke-width: 0.8"/>
      </g>
     </g>
     <g id="text_14">
      <!-- 50 -->
      <g transform="translate(20.878125 94.82758) scale(0.1 -0.1)">
       <use xlink:href="#DejaVuSans-35"/>
       <use xlink:href="#DejaVuSans-30" x="63.623047"/>
      </g>
     </g>
    </g>
    <g id="ytick_7">
     <g id="line2d_27">
      <path d="M 40.603125 54.571634 
L 397.723125 54.571634 
" clip-path="url(#p0272ab4f32)" style="fill: none; stroke-dasharray: 1.85,0.8; stroke-dashoffset: 0; stroke: #ffffff; stroke-width: 0.5"/>
     </g>
     <g id="line2d_28">
      <g>
       <use xlink:href="#m031cb869b6" x="40.603125" y="54.571634" style="stroke: #000000; stroke-width: 0.8"/>
      </g>
     </g>
     <g id="text_15">
      <!-- 60 -->
      <g transform="translate(20.878125 58.370853) scale(0.1 -0.1)">
       <defs>
        <path id="DejaVuSans-36" d="M 2113 2584 
Q 1688 2584 1439 2293 
Q 1191 2003 1191 1497 
Q 1191 994 1439 701 
Q 1688 409 2113 409 
Q 2538 409 2786 701 
Q 3034 994 3034 1497 
Q 3034 2003 2786 2293 
Q 2538 2584 2113 2584 
z
M 3366 4563 
L 3366 3988 
Q 3128 4100 2886 4159 
Q 2644 4219 2406 4219 
Q 1781 4219 1451 3797 
Q 1122 3375 1075 2522 
Q 1259 2794 1537 2939 
Q 1816 3084 2150 3084 
Q 2853 3084 3261 2657 
Q 3669 2231 3669 1497 
Q 3669 778 3244 343 
Q 2819 -91 2113 -91 
Q 1303 -91 875 529 
Q 447 1150 447 2328 
Q 447 3434 972 4092 
Q 1497 4750 2381 4750 
Q 2619 4750 2861 4703 
Q 3103 4656 3366 4563 
z
" transform="scale(0.015625)"/>
       </defs>
       <use xlink:href="#DejaVuSans-36"/>
       <use xlink:href="#DejaVuSans-30" x="63.623047"/>
      </g>
     </g>
    </g>
    <g id="ytick_8">
     <g id="line2d_29">
      <path d="M 40.603125 18.114906 
L 397.723125 18.114906 
" clip-path="url(#p0272ab4f32)" style="fill: none; stroke-dasharray: 1.85,0.8; stroke-dashoffset: 0; stroke: #ffffff; stroke-width: 0.5"/>
     </g>
     <g id="line2d_30">
      <g>
       <use xlink:href="#m031cb869b6" x="40.603125" y="18.114906" style="stroke: #000000; stroke-width: 0.8"/>
      </g>
     </g>
     <g id="text_16">
      <!-- 70 -->
      <g transform="translate(20.878125 21.914125) scale(0.1 -0.1)">
       <defs>
        <path id="DejaVuSans-37" d="M 525 4666 
L 3525 4666 
L 3525 4397 
L 1831 0 
L 1172 0 
L 2766 4134 
L 525 4134 
L 525 4666 
z
" transform="scale(0.015625)"/>
       </defs>
       <use xlink:href="#DejaVuSans-37"/>
       <use xlink:href="#DejaVuSans-30" x="63.623047"/>
      </g>
     </g>
    </g>
    <g id="text_17">
     <!-- Loss [%] -->
     <g transform="translate(14.798438 161.464594) rotate(-90) scale(0.1 -0.1)">
      <defs>
       <path id="DejaVuSans-4c" d="M 628 4666 
L 1259 4666 
L 1259 531 
L 3531 531 
L 3531 0 
L 628 0 
L 628 4666 
z
" transform="scale(0.015625)"/>
       <path id="DejaVuSans-6f" d="M 1959 3097 
Q 1497 3097 1228 2736 
Q 959 2375 959 1747 
Q 959 1119 1226 758 
Q 1494 397 1959 397 
Q 2419 397 2687 759 
Q 2956 1122 2956 1747 
Q 2956 2369 2687 2733 
Q 2419 3097 1959 3097 
z
M 1959 3584 
Q 2709 3584 3137 3096 
Q 3566 2609 3566 1747 
Q 3566 888 3137 398 
Q 2709 -91 1959 -91 
Q 1206 -91 779 398 
Q 353 888 353 1747 
Q 353 2609 779 3096 
Q 1206 3584 1959 3584 
z
" transform="scale(0.015625)"/>
       <path id="DejaVuSans-25" d="M 4653 2053 
Q 4381 2053 4226 1822 
Q 4072 1591 4072 1178 
Q 4072 772 4226 539 
Q 4381 306 4653 306 
Q 4919 306 5073 539 
Q 5228 772 5228 1178 
Q 5228 1588 5073 1820 
Q 4919 2053 4653 2053 
z
M 4653 2450 
Q 5147 2450 5437 2106 
Q 5728 1763 5728 1178 
Q 5728 594 5436 251 
Q 5144 -91 4653 -91 
Q 4153 -91 3862 251 
Q 3572 594 3572 1178 
Q 3572 1766 3864 2108 
Q 4156 2450 4653 2450 
z
M 1428 4353 
Q 1159 4353 1004 4120 
Q 850 3888 850 3481 
Q 850 3069 1003 2837 
Q 1156 2606 1428 2606 
Q 1700 2606 1854 2837 
Q 2009 3069 2009 3481 
Q 2009 3884 1853 4118 
Q 1697 4353 1428 4353 
z
M 4250 4750 
L 4750 4750 
L 1831 -91 
L 1331 -91 
L 4250 4750 
z
M 1428 4750 
Q 1922 4750 2215 4408 
Q 2509 4066 2509 3481 
Q 2509 2891 2217 2550 
Q 1925 2209 1428 2209 
Q 931 2209 642 2551 
Q 353 2894 353 3481 
Q 353 4063 643 4406 
Q 934 4750 1428 4750 
z
" transform="scale(0.015625)"/>
      </defs>
      <use xlink:href="#DejaVuSans-4c"/>
      <use xlink:href="#DejaVuSans-6f" x="53.962891"/>
      <use xlink:href="#DejaVuSans-73" x="115.144531"/>
      <use xlink:href="#DejaVuSans-73" x="167.244141"/>
      <use xlink:href="#DejaVuSans-20" x="219.34375"/>
      <use xlink:href="#DejaVuSans-5b" x="251.130859"/>
      <use xlink:href="#DejaVuSans-25" x="290.144531"/>
      <use xlink:href="#DejaVuSans-5d" x="385.164062"/>
     </g>
    </g>
   </g>
   <g id="line2d_31">
    <path d="M 56.835852 97.478529 
L 78.479489 95.732859 
L 100.123125 62.7538 
L 121.766761 72.024563 
L 143.410398 70.922112 
L 165.054034 70.922112 
L 186.69767 70.93396 
L 208.341307 60.310288 
L 229.984943 51.20522 
L 251.62858 41.953049 
L 273.272216 41.889797 
L 294.915852 40.875753 
L 316.559489 41.49971 
L 338.203125 39.367173 
L 359.846761 27.532226 
L 381.490398 24.818934 
" clip-path="url(#p0272ab4f32)" style="fill: none; stroke: #003f5c; stroke-width: 1.5; stroke-linecap: square"/>
    <defs>
     <path id="m5875bd58e2" d="M 0 4 
C 1.060812 4 2.078319 3.578535 2.828427 2.828427 
C 3.578535 2.078319 4 1.060812 4 0 
C 4 -1.060812 3.578535 -2.078319 2.828427 -2.828427 
C 2.078319 -3.578535 1.060812 -4 0 -4 
C -1.060812 -4 -2.078319 -3.578535 -2.828427 -2.828427 
C -3.578535 -2.078319 -4 -1.060812 -4 0 
C -4 1.060812 -3.578535 2.078319 -2.828427 2.828427 
C -2.078319 3.578535 -1.060812 4 0 4 
z
" style="stroke: #ffffff; stroke-width: 0.75"/>
    </defs>
    <g clip-path="url(#p0272ab4f32)">
     <use xlink:href="#m5875bd58e2" x="56.835852" y="97.478529" style="fill: #003f5c; stroke: #ffffff; stroke-width: 0.75"/>
     <use xlink:href="#m5875bd58e2" x="78.479489" y="95.732859" style="fill: #003f5c; stroke: #ffffff; stroke-width: 0.75"/>
     <use xlink:href="#m5875bd58e2" x="100.123125" y="62.7538" style="fill: #003f5c; stroke: #ffffff; stroke-width: 0.75"/>
     <use xlink:href="#m5875bd58e2" x="121.766761" y="72.024563" style="fill: #003f5c; stroke: #ffffff; stroke-width: 0.75"/>
     <use xlink:href="#m5875bd58e2" x="143.410398" y="70.922112" style="fill: #003f5c; stroke: #ffffff; stroke-width: 0.75"/>
     <use xlink:href="#m5875bd58e2" x="165.054034" y="70.922112" style="fill: #003f5c; stroke: #ffffff; stroke-width: 0.75"/>
     <use xlink:href="#m5875bd58e2" x="186.69767" y="70.93396" style="fill: #003f5c; stroke: #ffffff; stroke-width: 0.75"/>
     <use xlink:href="#m5875bd58e2" x="208.341307" y="60.310288" style="fill: #003f5c; stroke: #ffffff; stroke-width: 0.75"/>
     <use xlink:href="#m5875bd58e2" x="229.984943" y="51.20522" style="fill: #003f5c; stroke: #ffffff; stroke-width: 0.75"/>
     <use xlink:href="#m5875bd58e2" x="251.62858" y="41.953049" style="fill: #003f5c; stroke: #ffffff; stroke-width: 0.75"/>
     <use xlink:href="#m5875bd58e2" x="273.272216" y="41.889797" style="fill: #003f5c; stroke: #ffffff; stroke-width: 0.75"/>
     <use xlink:href="#m5875bd58e2" x="294.915852" y="40.875753" style="fill: #003f5c; stroke: #ffffff; stroke-width: 0.75"/>
     <use xlink:href="#m5875bd58e2" x="316.559489" y="41.49971" style="fill: #003f5c; stroke: #ffffff; stroke-width: 0.75"/>
     <use xlink:href="#m5875bd58e2" x="338.203125" y="39.367173" style="fill: #003f5c; stroke: #ffffff; stroke-width: 0.75"/>
     <use xlink:href="#m5875bd58e2" x="359.846761" y="27.532226" style="fill: #003f5c; stroke: #ffffff; stroke-width: 0.75"/>
     <use xlink:href="#m5875bd58e2" x="381.490398" y="24.818934" style="fill: #003f5c; stroke: #ffffff; stroke-width: 0.75"/>
    </g>
   </g>
   <g id="line2d_32">
    <path d="M 56.835852 96.637108 
L 78.479489 94.872724 
L 100.123125 67.465467 
L 121.766761 67.048767 
L 143.410398 67.975679 
L 165.054034 67.975679 
L 186.69767 66.800679 
L 208.341307 53.465172 
L 229.984943 42.023775 
L 251.62858 39.877203 
L 273.272216 38.554918 
L 294.915852 39.183614 
L 316.559489 39.182702 
L 338.203125 37.816487 
L 359.846761 25.330969 
L 381.490398 21.375778 
" clip-path="url(#p0272ab4f32)" style="fill: none; stroke-dasharray: 6,2.25; stroke-dashoffset: 0; stroke: #003f5c; stroke-width: 1.5"/>
    <defs>
     <path id="m65e85bb86c" d="M -2 4 
L 0 2 
L 2 4 
L 4 2 
L 2 0 
L 4 -2 
L 2 -4 
L 0 -2 
L -2 -4 
L -4 -2 
L -2 0 
L -4 2 
z
" style="stroke: #ffffff; stroke-width: 0.75; stroke-linejoin: miter"/>
    </defs>
    <g clip-path="url(#p0272ab4f32)">
     <use xlink:href="#m65e85bb86c" x="56.835852" y="96.637108" style="fill: #003f5c; stroke: #ffffff; stroke-width: 0.75; stroke-linejoin: miter"/>
     <use xlink:href="#m65e85bb86c" x="78.479489" y="94.872724" style="fill: #003f5c; stroke: #ffffff; stroke-width: 0.75; stroke-linejoin: miter"/>
     <use xlink:href="#m65e85bb86c" x="100.123125" y="67.465467" style="fill: #003f5c; stroke: #ffffff; stroke-width: 0.75; stroke-linejoin: miter"/>
     <use xlink:href="#m65e85bb86c" x="121.766761" y="67.048767" style="fill: #003f5c; stroke: #ffffff; stroke-width: 0.75; stroke-linejoin: miter"/>
     <use xlink:href="#m65e85bb86c" x="143.410398" y="67.975679" style="fill: #003f5c; stroke: #ffffff; stroke-width: 0.75; stroke-linejoin: miter"/>
     <use xlink:href="#m65e85bb86c" x="165.054034" y="67.975679" style="fill: #003f5c; stroke: #ffffff; stroke-width: 0.75; stroke-linejoin: miter"/>
     <use xlink:href="#m65e85bb86c" x="186.69767" y="66.800679" style="fill: #003f5c; stroke: #ffffff; stroke-width: 0.75; stroke-linejoin: miter"/>
     <use xlink:href="#m65e85bb86c" x="208.341307" y="53.465172" style="fill: #003f5c; stroke: #ffffff; stroke-width: 0.75; stroke-linejoin: miter"/>
     <use xlink:href="#m65e85bb86c" x="229.984943" y="42.023775" style="fill: #003f5c; stroke: #ffffff; stroke-width: 0.75; stroke-linejoin: miter"/>
     <use xlink:href="#m65e85bb86c" x="251.62858" y="39.877203" style="fill: #003f5c; stroke: #ffffff; stroke-width: 0.75; stroke-linejoin: miter"/>
     <use xlink:href="#m65e85bb86c" x="273.272216" y="38.554918" style="fill: #003f5c; stroke: #ffffff; stroke-width: 0.75; stroke-linejoin: miter"/>
     <use xlink:href="#m65e85bb86c" x="294.915852" y="39.183614" style="fill: #003f5c; stroke: #ffffff; stroke-width: 0.75; stroke-linejoin: miter"/>
     <use xlink:href="#m65e85bb86c" x="316.559489" y="39.182702" style="fill: #003f5c; stroke: #ffffff; stroke-width: 0.75; stroke-linejoin: miter"/>
     <use xlink:href="#m65e85bb86c" x="338.203125" y="37.816487" style="fill: #003f5c; stroke: #ffffff; stroke-width: 0.75; stroke-linejoin: miter"/>
     <use xlink:href="#m65e85bb86c" x="359.846761" y="25.330969" style="fill: #003f5c; stroke: #ffffff; stroke-width: 0.75; stroke-linejoin: miter"/>
     <use xlink:href="#m65e85bb86c" x="381.490398" y="21.375778" style="fill: #003f5c; stroke: #ffffff; stroke-width: 0.75; stroke-linejoin: miter"/>
    </g>
   </g>
   <g id="line2d_33">
    <path d="M 56.835852 255.628117 
L 78.479489 255.614118 
L 100.123125 255.123903 
L 121.766761 255.022134 
L 143.410398 225.373044 
L 165.054034 191.224574 
L 186.69767 190.382423 
L 208.341307 189.737504 
L 229.984943 173.858047 
L 251.62858 146.330666 
L 273.272216 117.627919 
L 294.915852 117.821869 
L 316.559489 114.338064 
L 338.203125 95.164742 
L 359.846761 81.742833 
L 381.490398 70.758786 
" clip-path="url(#p0272ab4f32)" style="fill: none; stroke: #bc5090; stroke-width: 1.5; stroke-linecap: square"/>
    <defs>
     <path id="m9ccaeaac94" d="M 0 4 
C 1.060812 4 2.078319 3.578535 2.828427 2.828427 
C 3.578535 2.078319 4 1.060812 4 0 
C 4 -1.060812 3.578535 -2.078319 2.828427 -2.828427 
C 2.078319 -3.578535 1.060812 -4 0 -4 
C -1.060812 -4 -2.078319 -3.578535 -2.828427 -2.828427 
C -3.578535 -2.078319 -4 -1.060812 -4 0 
C -4 1.060812 -3.578535 2.078319 -2.828427 2.828427 
C -2.078319 3.578535 -1.060812 4 0 4 
z
" style="stroke: #ffffff; stroke-width: 0.75"/>
    </defs>
    <g clip-path="url(#p0272ab4f32)">
     <use xlink:href="#m9ccaeaac94" x="56.835852" y="255.628117" style="fill: #bc5090; stroke: #ffffff; stroke-width: 0.75"/>
     <use xlink:href="#m9ccaeaac94" x="78.479489" y="255.614118" style="fill: #bc5090; stroke: #ffffff; stroke-width: 0.75"/>
     <use xlink:href="#m9ccaeaac94" x="100.123125" y="255.123903" style="fill: #bc5090; stroke: #ffffff; stroke-width: 0.75"/>
     <use xlink:href="#m9ccaeaac94" x="121.766761" y="255.022134" style="fill: #bc5090; stroke: #ffffff; stroke-width: 0.75"/>
     <use xlink:href="#m9ccaeaac94" x="143.410398" y="225.373044" style="fill: #bc5090; stroke: #ffffff; stroke-width: 0.75"/>
     <use xlink:href="#m9ccaeaac94" x="165.054034" y="191.224574" style="fill: #bc5090; stroke: #ffffff; stroke-width: 0.75"/>
     <use xlink:href="#m9ccaeaac94" x="186.69767" y="190.382423" style="fill: #bc5090; stroke: #ffffff; stroke-width: 0.75"/>
     <use xlink:href="#m9ccaeaac94" x="208.341307" y="189.737504" style="fill: #bc5090; stroke: #ffffff; stroke-width: 0.75"/>
     <use xlink:href="#m9ccaeaac94" x="229.984943" y="173.858047" style="fill: #bc5090; stroke: #ffffff; stroke-width: 0.75"/>
     <use xlink:href="#m9ccaeaac94" x="251.62858" y="146.330666" style="fill: #bc5090; stroke: #ffffff; stroke-width: 0.75"/>
     <use xlink:href="#m9ccaeaac94" x="273.272216" y="117.627919" style="fill: #bc5090; stroke: #ffffff; stroke-width: 0.75"/>
     <use xlink:href="#m9ccaeaac94" x="294.915852" y="117.821869" style="fill: #bc5090; stroke: #ffffff; stroke-width: 0.75"/>
     <use xlink:href="#m9ccaeaac94" x="316.559489" y="114.338064" style="fill: #bc5090; stroke: #ffffff; stroke-width: 0.75"/>
     <use xlink:href="#m9ccaeaac94" x="338.203125" y="95.164742" style="fill: #bc5090; stroke: #ffffff; stroke-width: 0.75"/>
     <use xlink:href="#m9ccaeaac94" x="359.846761" y="81.742833" style="fill: #bc5090; stroke: #ffffff; stroke-width: 0.75"/>
     <use xlink:href="#m9ccaeaac94" x="381.490398" y="70.758786" style="fill: #bc5090; stroke: #ffffff; stroke-width: 0.75"/>
    </g>
   </g>
   <g id="line2d_34">
    <path d="M 56.835852 252.831072 
L 78.479489 252.534491 
L 100.123125 245.388699 
L 121.766761 245.308603 
L 143.410398 245.189772 
L 165.054034 246.52819 
L 186.69767 247.152439 
L 208.341307 214.477768 
L 229.984943 199.31578 
L 251.62858 180.563533 
L 273.272216 180.779721 
L 294.915852 180.887269 
L 316.559489 180.372864 
L 338.203125 176.977649 
L 359.846761 150.970878 
L 381.490398 143.492509 
" clip-path="url(#p0272ab4f32)" style="fill: none; stroke-dasharray: 6,2.25; stroke-dashoffset: 0; stroke: #bc5090; stroke-width: 1.5"/>
    <defs>
     <path id="m823e863cd5" d="M -2 4 
L 0 2 
L 2 4 
L 4 2 
L 2 0 
L 4 -2 
L 2 -4 
L 0 -2 
L -2 -4 
L -4 -2 
L -2 0 
L -4 2 
z
" style="stroke: #ffffff; stroke-width: 0.75; stroke-linejoin: miter"/>
    </defs>
    <g clip-path="url(#p0272ab4f32)">
     <use xlink:href="#m823e863cd5" x="56.835852" y="252.831072" style="fill: #bc5090; stroke: #ffffff; stroke-width: 0.75; stroke-linejoin: miter"/>
     <use xlink:href="#m823e863cd5" x="78.479489" y="252.534491" style="fill: #bc5090; stroke: #ffffff; stroke-width: 0.75; stroke-linejoin: miter"/>
     <use xlink:href="#m823e863cd5" x="100.123125" y="245.388699" style="fill: #bc5090; stroke: #ffffff; stroke-width: 0.75; stroke-linejoin: miter"/>
     <use xlink:href="#m823e863cd5" x="121.766761" y="245.308603" style="fill: #bc5090; stroke: #ffffff; stroke-width: 0.75; stroke-linejoin: miter"/>
     <use xlink:href="#m823e863cd5" x="143.410398" y="245.189772" style="fill: #bc5090; stroke: #ffffff; stroke-width: 0.75; stroke-linejoin: miter"/>
     <use xlink:href="#m823e863cd5" x="165.054034" y="246.52819" style="fill: #bc5090; stroke: #ffffff; stroke-width: 0.75; stroke-linejoin: miter"/>
     <use xlink:href="#m823e863cd5" x="186.69767" y="247.152439" style="fill: #bc5090; stroke: #ffffff; stroke-width: 0.75; stroke-linejoin: miter"/>
     <use xlink:href="#m823e863cd5" x="208.341307" y="214.477768" style="fill: #bc5090; stroke: #ffffff; stroke-width: 0.75; stroke-linejoin: miter"/>
     <use xlink:href="#m823e863cd5" x="229.984943" y="199.31578" style="fill: #bc5090; stroke: #ffffff; stroke-width: 0.75; stroke-linejoin: miter"/>
     <use xlink:href="#m823e863cd5" x="251.62858" y="180.563533" style="fill: #bc5090; stroke: #ffffff; stroke-width: 0.75; stroke-linejoin: miter"/>
     <use xlink:href="#m823e863cd5" x="273.272216" y="180.779721" style="fill: #bc5090; stroke: #ffffff; stroke-width: 0.75; stroke-linejoin: miter"/>
     <use xlink:href="#m823e863cd5" x="294.915852" y="180.887269" style="fill: #bc5090; stroke: #ffffff; stroke-width: 0.75; stroke-linejoin: miter"/>
     <use xlink:href="#m823e863cd5" x="316.559489" y="180.372864" style="fill: #bc5090; stroke: #ffffff; stroke-width: 0.75; stroke-linejoin: miter"/>
     <use xlink:href="#m823e863cd5" x="338.203125" y="176.977649" style="fill: #bc5090; stroke: #ffffff; stroke-width: 0.75; stroke-linejoin: miter"/>
     <use xlink:href="#m823e863cd5" x="359.846761" y="150.970878" style="fill: #bc5090; stroke: #ffffff; stroke-width: 0.75; stroke-linejoin: miter"/>
     <use xlink:href="#m823e863cd5" x="381.490398" y="143.492509" style="fill: #bc5090; stroke: #ffffff; stroke-width: 0.75; stroke-linejoin: miter"/>
    </g>
   </g>
   <g id="line2d_35">
    <path d="M 56.835852 272.018455 
L 78.479489 271.985518 
L 100.123125 271.486207 
L 121.766761 271.233983 
L 143.410398 239.922249 
L 165.054034 202.286639 
L 186.69767 201.749084 
L 208.341307 200.459245 
L 229.984943 184.03312 
L 251.62858 156.391264 
L 273.272216 126.653329 
L 294.915852 126.021899 
L 316.559489 122.889719 
L 338.203125 102.006758 
L 359.846761 88.629327 
L 381.490398 75.813876 
" clip-path="url(#p0272ab4f32)" style="fill: none; stroke: #ff6361; stroke-width: 1.5; stroke-linecap: square"/>
    <defs>
     <path id="me3260ef0f8" d="M 0 4 
C 1.060812 4 2.078319 3.578535 2.828427 2.828427 
C 3.578535 2.078319 4 1.060812 4 0 
C 4 -1.060812 3.578535 -2.078319 2.828427 -2.828427 
C 2.078319 -3.578535 1.060812 -4 0 -4 
C -1.060812 -4 -2.078319 -3.578535 -2.828427 -2.828427 
C -3.578535 -2.078319 -4 -1.060812 -4 0 
C -4 1.060812 -3.578535 2.078319 -2.828427 2.828427 
C -2.078319 3.578535 -1.060812 4 0 4 
z
" style="stroke: #ffffff; stroke-width: 0.75"/>
    </defs>
    <g clip-path="url(#p0272ab4f32)">
     <use xlink:href="#me3260ef0f8" x="56.835852" y="272.018455" style="fill: #ff6361; stroke: #ffffff; stroke-width: 0.75"/>
     <use xlink:href="#me3260ef0f8" x="78.479489" y="271.985518" style="fill: #ff6361; stroke: #ffffff; stroke-width: 0.75"/>
     <use xlink:href="#me3260ef0f8" x="100.123125" y="271.486207" style="fill: #ff6361; stroke: #ffffff; stroke-width: 0.75"/>
     <use xlink:href="#me3260ef0f8" x="121.766761" y="271.233983" style="fill: #ff6361; stroke: #ffffff; stroke-width: 0.75"/>
     <use xlink:href="#me3260ef0f8" x="143.410398" y="239.922249" style="fill: #ff6361; stroke: #ffffff; stroke-width: 0.75"/>
     <use xlink:href="#me3260ef0f8" x="165.054034" y="202.286639" style="fill: #ff6361; stroke: #ffffff; stroke-width: 0.75"/>
     <use xlink:href="#me3260ef0f8" x="186.69767" y="201.749084" style="fill: #ff6361; stroke: #ffffff; stroke-width: 0.75"/>
     <use xlink:href="#me3260ef0f8" x="208.341307" y="200.459245" style="fill: #ff6361; stroke: #ffffff; stroke-width: 0.75"/>
     <use xlink:href="#me3260ef0f8" x="229.984943" y="184.03312" style="fill: #ff6361; stroke: #ffffff; stroke-width: 0.75"/>
     <use xlink:href="#me3260ef0f8" x="251.62858" y="156.391264" style="fill: #ff6361; stroke: #ffffff; stroke-width: 0.75"/>
     <use xlink:href="#me3260ef0f8" x="273.272216" y="126.653329" style="fill: #ff6361; stroke: #ffffff; stroke-width: 0.75"/>
     <use xlink:href="#me3260ef0f8" x="294.915852" y="126.021899" style="fill: #ff6361; stroke: #ffffff; stroke-width: 0.75"/>
     <use xlink:href="#me3260ef0f8" x="316.559489" y="122.889719" style="fill: #ff6361; stroke: #ffffff; stroke-width: 0.75"/>
     <use xlink:href="#me3260ef0f8" x="338.203125" y="102.006758" style="fill: #ff6361; stroke: #ffffff; stroke-width: 0.75"/>
     <use xlink:href="#me3260ef0f8" x="359.846761" y="88.629327" style="fill: #ff6361; stroke: #ffffff; stroke-width: 0.75"/>
     <use xlink:href="#me3260ef0f8" x="381.490398" y="75.813876" style="fill: #ff6361; stroke: #ffffff; stroke-width: 0.75"/>
    </g>
   </g>
   <g id="line2d_36">
    <path d="M 56.835852 255.528821 
L 78.479489 255.303306 
L 100.123125 254.327505 
L 121.766761 253.857013 
L 143.410398 254.467517 
L 165.054034 245.477088 
L 186.69767 244.395362 
L 208.341307 213.952245 
L 229.984943 199.167583 
L 251.62858 186.571602 
L 273.272216 184.789414 
L 294.915852 184.736917 
L 316.559489 184.342455 
L 338.203125 180.107277 
L 359.846761 154.0378 
L 381.490398 147.322106 
" clip-path="url(#p0272ab4f32)" style="fill: none; stroke-dasharray: 6,2.25; stroke-dashoffset: 0; stroke: #ff6361; stroke-width: 1.5"/>
    <defs>
     <path id="m1a144e6397" d="M -2 4 
L 0 2 
L 2 4 
L 4 2 
L 2 0 
L 4 -2 
L 2 -4 
L 0 -2 
L -2 -4 
L -4 -2 
L -2 0 
L -4 2 
z
" style="stroke: #ffffff; stroke-width: 0.75; stroke-linejoin: miter"/>
    </defs>
    <g clip-path="url(#p0272ab4f32)">
     <use xlink:href="#m1a144e6397" x="56.835852" y="255.528821" style="fill: #ff6361; stroke: #ffffff; stroke-width: 0.75; stroke-linejoin: miter"/>
     <use xlink:href="#m1a144e6397" x="78.479489" y="255.303306" style="fill: #ff6361; stroke: #ffffff; stroke-width: 0.75; stroke-linejoin: miter"/>
     <use xlink:href="#m1a144e6397" x="100.123125" y="254.327505" style="fill: #ff6361; stroke: #ffffff; stroke-width: 0.75; stroke-linejoin: miter"/>
     <use xlink:href="#m1a144e6397" x="121.766761" y="253.857013" style="fill: #ff6361; stroke: #ffffff; stroke-width: 0.75; stroke-linejoin: miter"/>
     <use xlink:href="#m1a144e6397" x="143.410398" y="254.467517" style="fill: #ff6361; stroke: #ffffff; stroke-width: 0.75; stroke-linejoin: miter"/>
     <use xlink:href="#m1a144e6397" x="165.054034" y="245.477088" style="fill: #ff6361; stroke: #ffffff; stroke-width: 0.75; stroke-linejoin: miter"/>
     <use xlink:href="#m1a144e6397" x="186.69767" y="244.395362" style="fill: #ff6361; stroke: #ffffff; stroke-width: 0.75; stroke-linejoin: miter"/>
     <use xlink:href="#m1a144e6397" x="208.341307" y="213.952245" style="fill: #ff6361; stroke: #ffffff; stroke-width: 0.75; stroke-linejoin: miter"/>
     <use xlink:href="#m1a144e6397" x="229.984943" y="199.167583" style="fill: #ff6361; stroke: #ffffff; stroke-width: 0.75; stroke-linejoin: miter"/>
     <use xlink:href="#m1a144e6397" x="251.62858" y="186.571602" style="fill: #ff6361; stroke: #ffffff; stroke-width: 0.75; stroke-linejoin: miter"/>
     <use xlink:href="#m1a144e6397" x="273.272216" y="184.789414" style="fill: #ff6361; stroke: #ffffff; stroke-width: 0.75; stroke-linejoin: miter"/>
     <use xlink:href="#m1a144e6397" x="294.915852" y="184.736917" style="fill: #ff6361; stroke: #ffffff; stroke-width: 0.75; stroke-linejoin: miter"/>
     <use xlink:href="#m1a144e6397" x="316.559489" y="184.342455" style="fill: #ff6361; stroke: #ffffff; stroke-width: 0.75; stroke-linejoin: miter"/>
     <use xlink:href="#m1a144e6397" x="338.203125" y="180.107277" style="fill: #ff6361; stroke: #ffffff; stroke-width: 0.75; stroke-linejoin: miter"/>
     <use xlink:href="#m1a144e6397" x="359.846761" y="154.0378" style="fill: #ff6361; stroke: #ffffff; stroke-width: 0.75; stroke-linejoin: miter"/>
     <use xlink:href="#m1a144e6397" x="381.490398" y="147.322106" style="fill: #ff6361; stroke: #ffffff; stroke-width: 0.75; stroke-linejoin: miter"/>
    </g>
   </g>
   <g id="line2d_37">
    <path d="M 56.835852 256.65853 
L 78.479489 256.629456 
L 100.123125 256.233427 
L 121.766761 255.98882 
L 143.410398 221.213513 
L 165.054034 190.975757 
L 186.69767 190.388621 
L 208.341307 184.878187 
L 229.984943 160.630088 
L 251.62858 132.358625 
L 381.490398 49.317855 
" clip-path="url(#p0272ab4f32)" style="fill: none; stroke: #ffa600; stroke-width: 1.5; stroke-linecap: square"/>
    <defs>
     <path id="m4235b4358c" d="M 0 4 
C 1.060812 4 2.078319 3.578535 2.828427 2.828427 
C 3.578535 2.078319 4 1.060812 4 0 
C 4 -1.060812 3.578535 -2.078319 2.828427 -2.828427 
C 2.078319 -3.578535 1.060812 -4 0 -4 
C -1.060812 -4 -2.078319 -3.578535 -2.828427 -2.828427 
C -3.578535 -2.078319 -4 -1.060812 -4 0 
C -4 1.060812 -3.578535 2.078319 -2.828427 2.828427 
C -2.078319 3.578535 -1.060812 4 0 4 
z
" style="stroke: #ffffff; stroke-width: 0.75"/>
    </defs>
    <g clip-path="url(#p0272ab4f32)">
     <use xlink:href="#m4235b4358c" x="56.835852" y="256.65853" style="fill: #ffa600; stroke: #ffffff; stroke-width: 0.75"/>
     <use xlink:href="#m4235b4358c" x="78.479489" y="256.629456" style="fill: #ffa600; stroke: #ffffff; stroke-width: 0.75"/>
     <use xlink:href="#m4235b4358c" x="100.123125" y="256.233427" style="fill: #ffa600; stroke: #ffffff; stroke-width: 0.75"/>
     <use xlink:href="#m4235b4358c" x="121.766761" y="255.98882" style="fill: #ffa600; stroke: #ffffff; stroke-width: 0.75"/>
     <use xlink:href="#m4235b4358c" x="143.410398" y="221.213513" style="fill: #ffa600; stroke: #ffffff; stroke-width: 0.75"/>
     <use xlink:href="#m4235b4358c" x="165.054034" y="190.975757" style="fill: #ffa600; stroke: #ffffff; stroke-width: 0.75"/>
     <use xlink:href="#m4235b4358c" x="186.69767" y="190.388621" style="fill: #ffa600; stroke: #ffffff; stroke-width: 0.75"/>
     <use xlink:href="#m4235b4358c" x="208.341307" y="184.878187" style="fill: #ffa600; stroke: #ffffff; stroke-width: 0.75"/>
     <use xlink:href="#m4235b4358c" x="229.984943" y="160.630088" style="fill: #ffa600; stroke: #ffffff; stroke-width: 0.75"/>
     <use xlink:href="#m4235b4358c" x="251.62858" y="132.358625" style="fill: #ffa600; stroke: #ffffff; stroke-width: 0.75"/>
     <use xlink:href="#m4235b4358c" x="381.490398" y="49.317855" style="fill: #ffa600; stroke: #ffffff; stroke-width: 0.75"/>
    </g>
   </g>
   <g id="line2d_38">
    <path d="M 56.835852 251.377761 
L 78.479489 251.325367 
L 100.123125 244.496329 
L 121.766761 244.331344 
L 143.410398 244.700213 
L 165.054034 246.227805 
L 186.69767 246.06344 
L 208.341307 213.994352 
L 229.984943 198.499149 
L 251.62858 180.093241 
L 381.490398 142.045542 
" clip-path="url(#p0272ab4f32)" style="fill: none; stroke-dasharray: 6,2.25; stroke-dashoffset: 0; stroke: #ffa600; stroke-width: 1.5"/>
    <defs>
     <path id="m7b47ceee51" d="M -2 4 
L 0 2 
L 2 4 
L 4 2 
L 2 0 
L 4 -2 
L 2 -4 
L 0 -2 
L -2 -4 
L -4 -2 
L -2 0 
L -4 2 
z
" style="stroke: #ffffff; stroke-width: 0.75; stroke-linejoin: miter"/>
    </defs>
    <g clip-path="url(#p0272ab4f32)">
     <use xlink:href="#m7b47ceee51" x="56.835852" y="251.377761" style="fill: #ffa600; stroke: #ffffff; stroke-width: 0.75; stroke-linejoin: miter"/>
     <use xlink:href="#m7b47ceee51" x="78.479489" y="251.325367" style="fill: #ffa600; stroke: #ffffff; stroke-width: 0.75; stroke-linejoin: miter"/>
     <use xlink:href="#m7b47ceee51" x="100.123125" y="244.496329" style="fill: #ffa600; stroke: #ffffff; stroke-width: 0.75; stroke-linejoin: miter"/>
     <use xlink:href="#m7b47ceee51" x="121.766761" y="244.331344" style="fill: #ffa600; stroke: #ffffff; stroke-width: 0.75; stroke-linejoin: miter"/>
     <use xlink:href="#m7b47ceee51" x="143.410398" y="244.700213" style="fill: #ffa600; stroke: #ffffff; stroke-width: 0.75; stroke-linejoin: miter"/>
     <use xlink:href="#m7b47ceee51" x="165.054034" y="246.227805" style="fill: #ffa600; stroke: #ffffff; stroke-width: 0.75; stroke-linejoin: miter"/>
     <use xlink:href="#m7b47ceee51" x="186.69767" y="246.06344" style="fill: #ffa600; stroke: #ffffff; stroke-width: 0.75; stroke-linejoin: miter"/>
     <use xlink:href="#m7b47ceee51" x="208.341307" y="213.994352" style="fill: #ffa600; stroke: #ffffff; stroke-width: 0.75; stroke-linejoin: miter"/>
     <use xlink:href="#m7b47ceee51" x="229.984943" y="198.499149" style="fill: #ffa600; stroke: #ffffff; stroke-width: 0.75; stroke-linejoin: miter"/>
     <use xlink:href="#m7b47ceee51" x="251.62858" y="180.093241" style="fill: #ffa600; stroke: #ffffff; stroke-width: 0.75; stroke-linejoin: miter"/>
     <use xlink:href="#m7b47ceee51" x="381.490398" y="142.045542" style="fill: #ffa600; stroke: #ffffff; stroke-width: 0.75; stroke-linejoin: miter"/>
    </g>
   </g>
   <g id="line2d_39"/>
   <g id="line2d_40"/>
   <g id="line2d_41"/>
   <g id="line2d_42"/>
   <g id="line2d_43"/>
   <g id="line2d_44"/>
   <g id="line2d_45"/>
   <g id="line2d_46"/>
   <g id="patch_3">
    <path d="M 40.603125 273.312 
L 40.603125 7.2 
" style="fill: none; stroke: #000000; stroke-width: 0.8; stroke-linejoin: miter; stroke-linecap: square"/>
   </g>
   <g id="patch_4">
    <path d="M 397.723125 273.312 
L 397.723125 7.2 
" style="fill: none; stroke: #000000; stroke-width: 0.8; stroke-linejoin: miter; stroke-linecap: square"/>
   </g>
   <g id="patch_5">
    <path d="M 40.603125 273.312 
L 397.723125 273.312 
" style="fill: none; stroke: #000000; stroke-width: 0.8; stroke-linejoin: miter; stroke-linecap: square"/>
   </g>
   <g id="patch_6">
    <path d="M 40.603125 7.2 
L 397.723125 7.2 
" style="fill: none; stroke: #000000; stroke-width: 0.8; stroke-linejoin: miter; stroke-linecap: square"/>
   </g>
   <g id="legend_1">
    <g id="patch_7">
     <path d="M 341.683125 267.312 
L 389.323125 267.312 
Q 391.723125 267.312 391.723125 264.912 
L 391.723125 195.657 
Q 391.723125 193.257 389.323125 193.257 
L 341.683125 193.257 
Q 339.283125 193.257 339.283125 195.657 
L 339.283125 264.912 
Q 339.283125 267.312 341.683125 267.312 
z
" style="fill: #ffffff; opacity: 0.8; stroke: #cccccc; stroke-linejoin: miter"/>
    </g>
    <g id="line2d_47">
     <path d="M 344.083125 202.975125 
L 356.083125 202.975125 
L 368.083125 202.975125 
" style="fill: none; stroke: #003f5c; stroke-width: 1.5; stroke-linecap: square"/>
    </g>
    <g id="text_18">
     <!-- A -->
     <g transform="translate(377.683125 207.175125) scale(0.12 -0.12)">
      <defs>
       <path id="DejaVuSans-41" d="M 2188 4044 
L 1331 1722 
L 3047 1722 
L 2188 4044 
z
M 1831 4666 
L 2547 4666 
L 4325 0 
L 3669 0 
L 3244 1197 
L 1141 1197 
L 716 0 
L 50 0 
L 1831 4666 
z
" transform="scale(0.015625)"/>
      </defs>
      <use xlink:href="#DejaVuSans-41"/>
     </g>
    </g>
    <g id="line2d_48">
     <path d="M 344.083125 220.588875 
L 356.083125 220.588875 
L 368.083125 220.588875 
" style="fill: none; stroke: #bc5090; stroke-width: 1.5; stroke-linecap: square"/>
    </g>
    <g id="text_19">
     <!-- B -->
     <g transform="translate(377.683125 224.788875) scale(0.12 -0.12)">
      <defs>
       <path id="DejaVuSans-42" d="M 1259 2228 
L 1259 519 
L 2272 519 
Q 2781 519 3026 730 
Q 3272 941 3272 1375 
Q 3272 1813 3026 2020 
Q 2781 2228 2272 2228 
L 1259 2228 
z
M 1259 4147 
L 1259 2741 
L 2194 2741 
Q 2656 2741 2882 2914 
Q 3109 3088 3109 3444 
Q 3109 3797 2882 3972 
Q 2656 4147 2194 4147 
L 1259 4147 
z
M 628 4666 
L 2241 4666 
Q 2963 4666 3353 4366 
Q 3744 4066 3744 3513 
Q 3744 3084 3544 2831 
Q 3344 2578 2956 2516 
Q 3422 2416 3680 2098 
Q 3938 1781 3938 1306 
Q 3938 681 3513 340 
Q 3088 0 2303 0 
L 628 0 
L 628 4666 
z
" transform="scale(0.015625)"/>
      </defs>
      <use xlink:href="#DejaVuSans-42"/>
     </g>
    </g>
    <g id="line2d_49">
     <path d="M 344.083125 238.202625 
L 356.083125 238.202625 
L 368.083125 238.202625 
" style="fill: none; stroke: #ff6361; stroke-width: 1.5; stroke-linecap: square"/>
    </g>
    <g id="text_20">
     <!-- C -->
     <g transform="translate(377.683125 242.402625) scale(0.12 -0.12)">
      <defs>
       <path id="DejaVuSans-43" d="M 4122 4306 
L 4122 3641 
Q 3803 3938 3442 4084 
Q 3081 4231 2675 4231 
Q 1875 4231 1450 3742 
Q 1025 3253 1025 2328 
Q 1025 1406 1450 917 
Q 1875 428 2675 428 
Q 3081 428 3442 575 
Q 3803 722 4122 1019 
L 4122 359 
Q 3791 134 3420 21 
Q 3050 -91 2638 -91 
Q 1578 -91 968 557 
Q 359 1206 359 2328 
Q 359 3453 968 4101 
Q 1578 4750 2638 4750 
Q 3056 4750 3426 4639 
Q 3797 4528 4122 4306 
z
" transform="scale(0.015625)"/>
      </defs>
      <use xlink:href="#DejaVuSans-43"/>
     </g>
    </g>
    <g id="line2d_50">
     <path d="M 344.083125 255.816375 
L 356.083125 255.816375 
L 368.083125 255.816375 
" style="fill: none; stroke: #ffa600; stroke-width: 1.5; stroke-linecap: square"/>
    </g>
    <g id="text_21">
     <!-- D -->
     <g transform="translate(377.683125 260.016375) scale(0.12 -0.12)">
      <use xlink:href="#DejaVuSans-44"/>
     </g>
    </g>
   </g>
  </g>
 </g>
 <defs>
  <clipPath id="p0272ab4f32">
   <rect x="40.603125" y="7.2" width="357.12" height="266.112"/>
  </clipPath>
 </defs>
</svg>
