<?xml version="1.0" encoding="utf-8" standalone="no"?>
<!DOCTYPE svg PUBLIC "-//W3C//DTD SVG 1.1//EN"
  "http://www.w3.org/Graphics/SVG/1.1/DTD/svg11.dtd">
<svg xmlns:xlink="http://www.w3.org/1999/xlink" width="408.10125pt" height="310.86825pt" viewBox="0 0 408.10125 310.86825" xmlns="http://www.w3.org/2000/svg" version="1.1">
 <metadata>
  <rdf:RDF xmlns:dc="http://purl.org/dc/elements/1.1/" xmlns:cc="http://creativecommons.org/ns#" xmlns:rdf="http://www.w3.org/1999/02/22-rdf-syntax-ns#">
   <cc:Work>
    <dc:type rdf:resource="http://purl.org/dc/dcmitype/StillImage"/>
    <dc:date>2025-01-23T19:45:41.346786</dc:date>
    <dc:format>image/svg+xml</dc:format>
    <dc:creator>
     <cc:Agent>
      <dc:title>Matplotlib v3.9.2, https://matplotlib.org/</dc:title>
     </cc:Agent>
    </dc:creator>
   </cc:Work>
  </rdf:RDF>
 </metadata>
 <defs>
  <style type="text/css">*{stroke-linejoin: round; stroke-linecap: butt}</style>
 </defs>
 <g id="figure_1">
  <g id="patch_1">
   <path d="M 0 310.86825 
L 408.10125 310.86825 
L 408.10125 0 
L 0 0 
z
" style="fill: #ffffff"/>
  </g>
  <g id="axes_1">
   <g id="patch_2">
    <path d="M 43.78125 273.312 
L 400.90125 273.312 
L 400.90125 7.2 
L 43.78125 7.2 
z
" style="fill: #ffffff"/>
   </g>
   <g id="PolyCollection_1">
    <defs>
     <path id="mcc185147f2" d="M 60.013977 -191.214345 
L 60.013977 -190.703645 
L 77.101059 -190.703645 
L 94.18814 -200.391038 
L 111.275221 -207.459008 
L 128.362303 -226.342794 
L 145.449384 -226.342794 
L 162.536465 -226.487518 
L 179.623547 -237.056134 
L 196.710628 -253.30307 
L 213.797709 -252.856018 
L 230.884791 -252.316525 
L 247.971872 -251.040532 
L 265.058953 -192.713107 
L 282.146035 -261.860709 
L 299.233116 -276.193656 
L 316.320197 -279.260888 
L 333.407279 -277.914428 
L 350.49436 -281.590864 
L 367.581441 -277.271885 
L 384.668523 -277.009716 
L 384.668523 -287.409361 
L 384.668523 -287.409361 
L 367.581441 -281.424924 
L 350.49436 -291.57225 
L 333.407279 -284.955878 
L 316.320197 -285.896203 
L 299.233116 -277.352203 
L 282.146035 -262.285788 
L 265.058953 -261.812973 
L 247.971872 -253.424305 
L 230.884791 -253.83726 
L 213.797709 -254.322955 
L 196.710628 -253.765277 
L 179.623547 -237.388014 
L 162.536465 -226.991399 
L 145.449384 -227.200528 
L 128.362303 -227.200528 
L 111.275221 -208.101551 
L 94.18814 -200.622141 
L 77.101059 -191.214345 
L 60.013977 -191.214345 
z
" style="stroke: #000000; stroke-opacity: 0.2"/>
    </defs>
    <g clip-path="url(#p92f0a9463f)">
     <use xlink:href="#mcc185147f2" x="0" y="310.86825" style="fill-opacity: 0.2; stroke: #000000; stroke-opacity: 0.2"/>
    </g>
   </g>
   <g id="PolyCollection_2">
    <path d="M 60.013977 180.018069 
L 60.013977 224.918775 
L 77.101059 225.819017 
L 94.18814 172.768247 
L 111.275221 214.793422 
L 128.362303 203.873984 
L 145.449384 203.90202 
L 162.536465 147.305217 
L 179.623547 137.108639 
L 196.710628 232.977534 
L 213.797709 234.624277 
L 230.884791 183.889237 
L 230.884791 118.656751 
L 230.884791 118.656751 
L 213.797709 119.415224 
L 196.710628 119.138658 
L 179.623547 136.431999 
L 162.536465 147.164282 
L 145.449384 147.208987 
L 128.362303 147.286274 
L 111.275221 165.846516 
L 94.18814 171.8552 
L 77.101059 180.096114 
L 60.013977 180.018069 
z
" clip-path="url(#p92f0a9463f)" style="fill: #8b0000; fill-opacity: 0.2; stroke: #8b0000; stroke-opacity: 0.2"/>
    <path d="M 299.233116 73.193062 
L 299.233116 141.40034 
L 316.320197 61.344665 
L 333.407279 62.070556 
L 350.49436 61.527861 
L 367.581441 61.906132 
L 384.668523 37.287955 
L 384.668523 34.075999 
L 384.668523 34.075999 
L 367.581441 60.652113 
L 350.49436 60.830934 
L 333.407279 61.198426 
L 316.320197 59.400367 
L 299.233116 73.193062 
z
" clip-path="url(#p92f0a9463f)" style="fill: #8b0000; fill-opacity: 0.2; stroke: #8b0000; stroke-opacity: 0.2"/>
   </g>
   <g id="PolyCollection_3">
    <defs>
     <path id="mc2345b6663" d="M 60.013977 -97.948658 
L 60.013977 -97.797873 
L 77.101059 -97.797873 
L 94.18814 -97.797873 
L 111.275221 -96.315023 
L 128.362303 -104.393029 
L 145.449384 -109.808421 
L 162.536465 -109.890255 
L 179.623547 -117.772769 
L 196.710628 -127.273006 
L 213.797709 -127.273006 
L 230.884791 -127.273006 
L 247.971872 -126.641829 
L 265.058953 -127.156318 
L 282.146035 -49.65225 
L 299.233116 -137.265001 
L 316.320197 -100.868894 
L 333.407279 -101.090904 
L 350.49436 -100.549895 
L 367.581441 -100.746144 
L 384.668523 -100.214985 
L 384.668523 -152.720882 
L 384.668523 -152.720882 
L 367.581441 -152.452651 
L 350.49436 -152.964109 
L 333.407279 -153.208093 
L 316.320197 -153.208093 
L 299.233116 -137.688564 
L 282.146035 -129.724974 
L 265.058953 -127.893575 
L 247.971872 -128.378513 
L 230.884791 -127.849628 
L 213.797709 -127.849628 
L 196.710628 -127.986774 
L 179.623547 -119.161662 
L 162.536465 -110.960149 
L 145.449384 -110.431263 
L 128.362303 -105.315926 
L 111.275221 -97.797873 
L 94.18814 -97.948658 
L 77.101059 -97.948658 
L 60.013977 -97.948658 
z
" style="stroke: #556b2f; stroke-opacity: 0.2"/>
    </defs>
    <g clip-path="url(#p92f0a9463f)">
     <use xlink:href="#mc2345b6663" x="0" y="310.86825" style="fill: #556b2f; fill-opacity: 0.2; stroke: #556b2f; stroke-opacity: 0.2"/>
    </g>
   </g>
   <g id="matplotlib.axis_1">
    <g id="xtick_1">
     <g id="line2d_1">
      <path d="M 51.470437 273.312 
L 51.470437 7.2 
" clip-path="url(#p92f0a9463f)" style="fill: none; stroke-dasharray: 1.85,0.8; stroke-dashoffset: 0; stroke: #ffffff; stroke-width: 0.5"/>
     </g>
     <g id="line2d_2">
      <defs>
       <path id="m37f84973a5" d="M 0 0 
L 0 3.5 
" style="stroke: #000000; stroke-width: 0.8"/>
      </defs>
      <g>
       <use xlink:href="#m37f84973a5" x="51.470437" y="273.312" style="stroke: #000000; stroke-width: 0.8"/>
      </g>
     </g>
     <g id="text_1">
      <!-- 0 -->
      <g transform="translate(48.289187 287.910437) scale(0.1 -0.1)">
       <defs>
        <path id="DejaVuSans-30" d="M 2034 4250 
Q 1547 4250 1301 3770 
Q 1056 3291 1056 2328 
Q 1056 1369 1301 889 
Q 1547 409 2034 409 
Q 2525 409 2770 889 
Q 3016 1369 3016 2328 
Q 3016 3291 2770 3770 
Q 2525 4250 2034 4250 
z
M 2034 4750 
Q 2819 4750 3233 4129 
Q 3647 3509 3647 2328 
Q 3647 1150 3233 529 
Q 2819 -91 2034 -91 
Q 1250 -91 836 529 
Q 422 1150 422 2328 
Q 422 3509 836 4129 
Q 1250 4750 2034 4750 
z
" transform="scale(0.015625)"/>
       </defs>
       <use xlink:href="#DejaVuSans-30"/>
      </g>
     </g>
    </g>
    <g id="xtick_2">
     <g id="line2d_3">
      <path d="M 94.18814 273.312 
L 94.18814 7.2 
" clip-path="url(#p92f0a9463f)" style="fill: none; stroke-dasharray: 1.85,0.8; stroke-dashoffset: 0; stroke: #ffffff; stroke-width: 0.5"/>
     </g>
     <g id="line2d_4">
      <g>
       <use xlink:href="#m37f84973a5" x="94.18814" y="273.312" style="stroke: #000000; stroke-width: 0.8"/>
      </g>
     </g>
     <g id="text_2">
      <!-- 5 -->
      <g transform="translate(91.00689 287.910437) scale(0.1 -0.1)">
       <defs>
        <path id="DejaVuSans-35" d="M 691 4666 
L 3169 4666 
L 3169 4134 
L 1269 4134 
L 1269 2991 
Q 1406 3038 1543 3061 
Q 1681 3084 1819 3084 
Q 2600 3084 3056 2656 
Q 3513 2228 3513 1497 
Q 3513 744 3044 326 
Q 2575 -91 1722 -91 
Q 1428 -91 1123 -41 
Q 819 9 494 109 
L 494 744 
Q 775 591 1075 516 
Q 1375 441 1709 441 
Q 2250 441 2565 725 
Q 2881 1009 2881 1497 
Q 2881 1984 2565 2268 
Q 2250 2553 1709 2553 
Q 1456 2553 1204 2497 
Q 953 2441 691 2322 
L 691 4666 
z
" transform="scale(0.015625)"/>
       </defs>
       <use xlink:href="#DejaVuSans-35"/>
      </g>
     </g>
    </g>
    <g id="xtick_3">
     <g id="line2d_5">
      <path d="M 136.905843 273.312 
L 136.905843 7.2 
" clip-path="url(#p92f0a9463f)" style="fill: none; stroke-dasharray: 1.85,0.8; stroke-dashoffset: 0; stroke: #ffffff; stroke-width: 0.5"/>
     </g>
     <g id="line2d_6">
      <g>
       <use xlink:href="#m37f84973a5" x="136.905843" y="273.312" style="stroke: #000000; stroke-width: 0.8"/>
      </g>
     </g>
     <g id="text_3">
      <!-- 10 -->
      <g transform="translate(130.543343 287.910437) scale(0.1 -0.1)">
       <defs>
        <path id="DejaVuSans-31" d="M 794 531 
L 1825 531 
L 1825 4091 
L 703 3866 
L 703 4441 
L 1819 4666 
L 2450 4666 
L 2450 531 
L 3481 531 
L 3481 0 
L 794 0 
L 794 531 
z
" transform="scale(0.015625)"/>
       </defs>
       <use xlink:href="#DejaVuSans-31"/>
       <use xlink:href="#DejaVuSans-30" x="63.623047"/>
      </g>
     </g>
    </g>
    <g id="xtick_4">
     <g id="line2d_7">
      <path d="M 179.623547 273.312 
L 179.623547 7.2 
" clip-path="url(#p92f0a9463f)" style="fill: none; stroke-dasharray: 1.85,0.8; stroke-dashoffset: 0; stroke: #ffffff; stroke-width: 0.5"/>
     </g>
     <g id="line2d_8">
      <g>
       <use xlink:href="#m37f84973a5" x="179.623547" y="273.312" style="stroke: #000000; stroke-width: 0.8"/>
      </g>
     </g>
     <g id="text_4">
      <!-- 15 -->
      <g transform="translate(173.261047 287.910437) scale(0.1 -0.1)">
       <use xlink:href="#DejaVuSans-31"/>
       <use xlink:href="#DejaVuSans-35" x="63.623047"/>
      </g>
     </g>
    </g>
    <g id="xtick_5">
     <g id="line2d_9">
      <path d="M 222.34125 273.312 
L 222.34125 7.2 
" clip-path="url(#p92f0a9463f)" style="fill: none; stroke-dasharray: 1.85,0.8; stroke-dashoffset: 0; stroke: #ffffff; stroke-width: 0.5"/>
     </g>
     <g id="line2d_10">
      <g>
       <use xlink:href="#m37f84973a5" x="222.34125" y="273.312" style="stroke: #000000; stroke-width: 0.8"/>
      </g>
     </g>
     <g id="text_5">
      <!-- 20 -->
      <g transform="translate(215.97875 287.910437) scale(0.1 -0.1)">
       <defs>
        <path id="DejaVuSans-32" d="M 1228 531 
L 3431 531 
L 3431 0 
L 469 0 
L 469 531 
Q 828 903 1448 1529 
Q 2069 2156 2228 2338 
Q 2531 2678 2651 2914 
Q 2772 3150 2772 3378 
Q 2772 3750 2511 3984 
Q 2250 4219 1831 4219 
Q 1534 4219 1204 4116 
Q 875 4013 500 3803 
L 500 4441 
Q 881 4594 1212 4672 
Q 1544 4750 1819 4750 
Q 2544 4750 2975 4387 
Q 3406 4025 3406 3419 
Q 3406 3131 3298 2873 
Q 3191 2616 2906 2266 
Q 2828 2175 2409 1742 
Q 1991 1309 1228 531 
z
" transform="scale(0.015625)"/>
       </defs>
       <use xlink:href="#DejaVuSans-32"/>
       <use xlink:href="#DejaVuSans-30" x="63.623047"/>
      </g>
     </g>
    </g>
    <g id="xtick_6">
     <g id="line2d_11">
      <path d="M 265.058953 273.312 
L 265.058953 7.2 
" clip-path="url(#p92f0a9463f)" style="fill: none; stroke-dasharray: 1.85,0.8; stroke-dashoffset: 0; stroke: #ffffff; stroke-width: 0.5"/>
     </g>
     <g id="line2d_12">
      <g>
       <use xlink:href="#m37f84973a5" x="265.058953" y="273.312" style="stroke: #000000; stroke-width: 0.8"/>
      </g>
     </g>
     <g id="text_6">
      <!-- 25 -->
      <g transform="translate(258.696453 287.910437) scale(0.1 -0.1)">
       <use xlink:href="#DejaVuSans-32"/>
       <use xlink:href="#DejaVuSans-35" x="63.623047"/>
      </g>
     </g>
    </g>
    <g id="xtick_7">
     <g id="line2d_13">
      <path d="M 307.776657 273.312 
L 307.776657 7.2 
" clip-path="url(#p92f0a9463f)" style="fill: none; stroke-dasharray: 1.85,0.8; stroke-dashoffset: 0; stroke: #ffffff; stroke-width: 0.5"/>
     </g>
     <g id="line2d_14">
      <g>
       <use xlink:href="#m37f84973a5" x="307.776657" y="273.312" style="stroke: #000000; stroke-width: 0.8"/>
      </g>
     </g>
     <g id="text_7">
      <!-- 30 -->
      <g transform="translate(301.414157 287.910437) scale(0.1 -0.1)">
       <defs>
        <path id="DejaVuSans-33" d="M 2597 2516 
Q 3050 2419 3304 2112 
Q 3559 1806 3559 1356 
Q 3559 666 3084 287 
Q 2609 -91 1734 -91 
Q 1441 -91 1130 -33 
Q 819 25 488 141 
L 488 750 
Q 750 597 1062 519 
Q 1375 441 1716 441 
Q 2309 441 2620 675 
Q 2931 909 2931 1356 
Q 2931 1769 2642 2001 
Q 2353 2234 1838 2234 
L 1294 2234 
L 1294 2753 
L 1863 2753 
Q 2328 2753 2575 2939 
Q 2822 3125 2822 3475 
Q 2822 3834 2567 4026 
Q 2313 4219 1838 4219 
Q 1578 4219 1281 4162 
Q 984 4106 628 3988 
L 628 4550 
Q 988 4650 1302 4700 
Q 1616 4750 1894 4750 
Q 2613 4750 3031 4423 
Q 3450 4097 3450 3541 
Q 3450 3153 3228 2886 
Q 3006 2619 2597 2516 
z
" transform="scale(0.015625)"/>
       </defs>
       <use xlink:href="#DejaVuSans-33"/>
       <use xlink:href="#DejaVuSans-30" x="63.623047"/>
      </g>
     </g>
    </g>
    <g id="xtick_8">
     <g id="line2d_15">
      <path d="M 350.49436 273.312 
L 350.49436 7.2 
" clip-path="url(#p92f0a9463f)" style="fill: none; stroke-dasharray: 1.85,0.8; stroke-dashoffset: 0; stroke: #ffffff; stroke-width: 0.5"/>
     </g>
     <g id="line2d_16">
      <g>
       <use xlink:href="#m37f84973a5" x="350.49436" y="273.312" style="stroke: #000000; stroke-width: 0.8"/>
      </g>
     </g>
     <g id="text_8">
      <!-- 35 -->
      <g transform="translate(344.13186 287.910437) scale(0.1 -0.1)">
       <use xlink:href="#DejaVuSans-33"/>
       <use xlink:href="#DejaVuSans-35" x="63.623047"/>
      </g>
     </g>
    </g>
    <g id="xtick_9">
     <g id="line2d_17">
      <path d="M 393.212063 273.312 
L 393.212063 7.2 
" clip-path="url(#p92f0a9463f)" style="fill: none; stroke-dasharray: 1.85,0.8; stroke-dashoffset: 0; stroke: #ffffff; stroke-width: 0.5"/>
     </g>
     <g id="line2d_18">
      <g>
       <use xlink:href="#m37f84973a5" x="393.212063" y="273.312" style="stroke: #000000; stroke-width: 0.8"/>
      </g>
     </g>
     <g id="text_9">
      <!-- 40 -->
      <g transform="translate(386.849563 287.910437) scale(0.1 -0.1)">
       <defs>
        <path id="DejaVuSans-34" d="M 2419 4116 
L 825 1625 
L 2419 1625 
L 2419 4116 
z
M 2253 4666 
L 3047 4666 
L 3047 1625 
L 3713 1625 
L 3713 1100 
L 3047 1100 
L 3047 0 
L 2419 0 
L 2419 1100 
L 313 1100 
L 313 1709 
L 2253 4666 
z
" transform="scale(0.015625)"/>
       </defs>
       <use xlink:href="#DejaVuSans-34"/>
       <use xlink:href="#DejaVuSans-30" x="63.623047"/>
      </g>
     </g>
    </g>
    <g id="text_10">
     <!-- Distance beetwen APs [m] -->
     <g transform="translate(156.365469 301.588562) scale(0.1 -0.1)">
      <defs>
       <path id="DejaVuSans-44" d="M 1259 4147 
L 1259 519 
L 2022 519 
Q 2988 519 3436 956 
Q 3884 1394 3884 2338 
Q 3884 3275 3436 3711 
Q 2988 4147 2022 4147 
L 1259 4147 
z
M 628 4666 
L 1925 4666 
Q 3281 4666 3915 4102 
Q 4550 3538 4550 2338 
Q 4550 1131 3912 565 
Q 3275 0 1925 0 
L 628 0 
L 628 4666 
z
" transform="scale(0.015625)"/>
       <path id="DejaVuSans-69" d="M 603 3500 
L 1178 3500 
L 1178 0 
L 603 0 
L 603 3500 
z
M 603 4863 
L 1178 4863 
L 1178 4134 
L 603 4134 
L 603 4863 
z
" transform="scale(0.015625)"/>
       <path id="DejaVuSans-73" d="M 2834 3397 
L 2834 2853 
Q 2591 2978 2328 3040 
Q 2066 3103 1784 3103 
Q 1356 3103 1142 2972 
Q 928 2841 928 2578 
Q 928 2378 1081 2264 
Q 1234 2150 1697 2047 
L 1894 2003 
Q 2506 1872 2764 1633 
Q 3022 1394 3022 966 
Q 3022 478 2636 193 
Q 2250 -91 1575 -91 
Q 1294 -91 989 -36 
Q 684 19 347 128 
L 347 722 
Q 666 556 975 473 
Q 1284 391 1588 391 
Q 1994 391 2212 530 
Q 2431 669 2431 922 
Q 2431 1156 2273 1281 
Q 2116 1406 1581 1522 
L 1381 1569 
Q 847 1681 609 1914 
Q 372 2147 372 2553 
Q 372 3047 722 3315 
Q 1072 3584 1716 3584 
Q 2034 3584 2315 3537 
Q 2597 3491 2834 3397 
z
" transform="scale(0.015625)"/>
       <path id="DejaVuSans-74" d="M 1172 4494 
L 1172 3500 
L 2356 3500 
L 2356 3053 
L 1172 3053 
L 1172 1153 
Q 1172 725 1289 603 
Q 1406 481 1766 481 
L 2356 481 
L 2356 0 
L 1766 0 
Q 1100 0 847 248 
Q 594 497 594 1153 
L 594 3053 
L 172 3053 
L 172 3500 
L 594 3500 
L 594 4494 
L 1172 4494 
z
" transform="scale(0.015625)"/>
       <path id="DejaVuSans-61" d="M 2194 1759 
Q 1497 1759 1228 1600 
Q 959 1441 959 1056 
Q 959 750 1161 570 
Q 1363 391 1709 391 
Q 2188 391 2477 730 
Q 2766 1069 2766 1631 
L 2766 1759 
L 2194 1759 
z
M 3341 1997 
L 3341 0 
L 2766 0 
L 2766 531 
Q 2569 213 2275 61 
Q 1981 -91 1556 -91 
Q 1019 -91 701 211 
Q 384 513 384 1019 
Q 384 1609 779 1909 
Q 1175 2209 1959 2209 
L 2766 2209 
L 2766 2266 
Q 2766 2663 2505 2880 
Q 2244 3097 1772 3097 
Q 1472 3097 1187 3025 
Q 903 2953 641 2809 
L 641 3341 
Q 956 3463 1253 3523 
Q 1550 3584 1831 3584 
Q 2591 3584 2966 3190 
Q 3341 2797 3341 1997 
z
" transform="scale(0.015625)"/>
       <path id="DejaVuSans-6e" d="M 3513 2113 
L 3513 0 
L 2938 0 
L 2938 2094 
Q 2938 2591 2744 2837 
Q 2550 3084 2163 3084 
Q 1697 3084 1428 2787 
Q 1159 2491 1159 1978 
L 1159 0 
L 581 0 
L 581 3500 
L 1159 3500 
L 1159 2956 
Q 1366 3272 1645 3428 
Q 1925 3584 2291 3584 
Q 2894 3584 3203 3211 
Q 3513 2838 3513 2113 
z
" transform="scale(0.015625)"/>
       <path id="DejaVuSans-63" d="M 3122 3366 
L 3122 2828 
Q 2878 2963 2633 3030 
Q 2388 3097 2138 3097 
Q 1578 3097 1268 2742 
Q 959 2388 959 1747 
Q 959 1106 1268 751 
Q 1578 397 2138 397 
Q 2388 397 2633 464 
Q 2878 531 3122 666 
L 3122 134 
Q 2881 22 2623 -34 
Q 2366 -91 2075 -91 
Q 1284 -91 818 406 
Q 353 903 353 1747 
Q 353 2603 823 3093 
Q 1294 3584 2113 3584 
Q 2378 3584 2631 3529 
Q 2884 3475 3122 3366 
z
" transform="scale(0.015625)"/>
       <path id="DejaVuSans-65" d="M 3597 1894 
L 3597 1613 
L 953 1613 
Q 991 1019 1311 708 
Q 1631 397 2203 397 
Q 2534 397 2845 478 
Q 3156 559 3463 722 
L 3463 178 
Q 3153 47 2828 -22 
Q 2503 -91 2169 -91 
Q 1331 -91 842 396 
Q 353 884 353 1716 
Q 353 2575 817 3079 
Q 1281 3584 2069 3584 
Q 2775 3584 3186 3129 
Q 3597 2675 3597 1894 
z
M 3022 2063 
Q 3016 2534 2758 2815 
Q 2500 3097 2075 3097 
Q 1594 3097 1305 2825 
Q 1016 2553 972 2059 
L 3022 2063 
z
" transform="scale(0.015625)"/>
       <path id="DejaVuSans-20" transform="scale(0.015625)"/>
       <path id="DejaVuSans-62" d="M 3116 1747 
Q 3116 2381 2855 2742 
Q 2594 3103 2138 3103 
Q 1681 3103 1420 2742 
Q 1159 2381 1159 1747 
Q 1159 1113 1420 752 
Q 1681 391 2138 391 
Q 2594 391 2855 752 
Q 3116 1113 3116 1747 
z
M 1159 2969 
Q 1341 3281 1617 3432 
Q 1894 3584 2278 3584 
Q 2916 3584 3314 3078 
Q 3713 2572 3713 1747 
Q 3713 922 3314 415 
Q 2916 -91 2278 -91 
Q 1894 -91 1617 61 
Q 1341 213 1159 525 
L 1159 0 
L 581 0 
L 581 4863 
L 1159 4863 
L 1159 2969 
z
" transform="scale(0.015625)"/>
       <path id="DejaVuSans-77" d="M 269 3500 
L 844 3500 
L 1563 769 
L 2278 3500 
L 2956 3500 
L 3675 769 
L 4391 3500 
L 4966 3500 
L 4050 0 
L 3372 0 
L 2619 2869 
L 1863 0 
L 1184 0 
L 269 3500 
z
" transform="scale(0.015625)"/>
       <path id="DejaVuSans-41" d="M 2188 4044 
L 1331 1722 
L 3047 1722 
L 2188 4044 
z
M 1831 4666 
L 2547 4666 
L 4325 0 
L 3669 0 
L 3244 1197 
L 1141 1197 
L 716 0 
L 50 0 
L 1831 4666 
z
" transform="scale(0.015625)"/>
       <path id="DejaVuSans-50" d="M 1259 4147 
L 1259 2394 
L 2053 2394 
Q 2494 2394 2734 2622 
Q 2975 2850 2975 3272 
Q 2975 3691 2734 3919 
Q 2494 4147 2053 4147 
L 1259 4147 
z
M 628 4666 
L 2053 4666 
Q 2838 4666 3239 4311 
Q 3641 3956 3641 3272 
Q 3641 2581 3239 2228 
Q 2838 1875 2053 1875 
L 1259 1875 
L 1259 0 
L 628 0 
L 628 4666 
z
" transform="scale(0.015625)"/>
       <path id="DejaVuSans-5b" d="M 550 4863 
L 1875 4863 
L 1875 4416 
L 1125 4416 
L 1125 -397 
L 1875 -397 
L 1875 -844 
L 550 -844 
L 550 4863 
z
" transform="scale(0.015625)"/>
       <path id="DejaVuSans-6d" d="M 3328 2828 
Q 3544 3216 3844 3400 
Q 4144 3584 4550 3584 
Q 5097 3584 5394 3201 
Q 5691 2819 5691 2113 
L 5691 0 
L 5113 0 
L 5113 2094 
Q 5113 2597 4934 2840 
Q 4756 3084 4391 3084 
Q 3944 3084 3684 2787 
Q 3425 2491 3425 1978 
L 3425 0 
L 2847 0 
L 2847 2094 
Q 2847 2600 2669 2842 
Q 2491 3084 2119 3084 
Q 1678 3084 1418 2786 
Q 1159 2488 1159 1978 
L 1159 0 
L 581 0 
L 581 3500 
L 1159 3500 
L 1159 2956 
Q 1356 3278 1631 3431 
Q 1906 3584 2284 3584 
Q 2666 3584 2933 3390 
Q 3200 3197 3328 2828 
z
" transform="scale(0.015625)"/>
       <path id="DejaVuSans-5d" d="M 1947 4863 
L 1947 -844 
L 622 -844 
L 622 -397 
L 1369 -397 
L 1369 4416 
L 622 4416 
L 622 4863 
L 1947 4863 
z
" transform="scale(0.015625)"/>
      </defs>
      <use xlink:href="#DejaVuSans-44"/>
      <use xlink:href="#DejaVuSans-69" x="77.001953"/>
      <use xlink:href="#DejaVuSans-73" x="104.785156"/>
      <use xlink:href="#DejaVuSans-74" x="156.884766"/>
      <use xlink:href="#DejaVuSans-61" x="196.09375"/>
      <use xlink:href="#DejaVuSans-6e" x="257.373047"/>
      <use xlink:href="#DejaVuSans-63" x="320.751953"/>
      <use xlink:href="#DejaVuSans-65" x="375.732422"/>
      <use xlink:href="#DejaVuSans-20" x="437.255859"/>
      <use xlink:href="#DejaVuSans-62" x="469.042969"/>
      <use xlink:href="#DejaVuSans-65" x="532.519531"/>
      <use xlink:href="#DejaVuSans-65" x="594.042969"/>
      <use xlink:href="#DejaVuSans-74" x="655.566406"/>
      <use xlink:href="#DejaVuSans-77" x="694.775391"/>
      <use xlink:href="#DejaVuSans-65" x="776.5625"/>
      <use xlink:href="#DejaVuSans-6e" x="838.085938"/>
      <use xlink:href="#DejaVuSans-20" x="901.464844"/>
      <use xlink:href="#DejaVuSans-41" x="933.251953"/>
      <use xlink:href="#DejaVuSans-50" x="1001.660156"/>
      <use xlink:href="#DejaVuSans-73" x="1060.212891"/>
      <use xlink:href="#DejaVuSans-20" x="1112.3125"/>
      <use xlink:href="#DejaVuSans-5b" x="1144.099609"/>
      <use xlink:href="#DejaVuSans-6d" x="1183.113281"/>
      <use xlink:href="#DejaVuSans-5d" x="1280.525391"/>
     </g>
    </g>
   </g>
   <g id="matplotlib.axis_2">
    <g id="ytick_1">
     <g id="line2d_19">
      <path d="M 43.78125 255.159959 
L 400.90125 255.159959 
" clip-path="url(#p92f0a9463f)" style="fill: none; stroke-dasharray: 1.85,0.8; stroke-dashoffset: 0; stroke: #ffffff; stroke-width: 0.5"/>
     </g>
     <g id="line2d_20">
      <defs>
       <path id="mfbab90367d" d="M 0 0 
L -3.5 0 
" style="stroke: #000000; stroke-width: 0.8"/>
      </defs>
      <g>
       <use xlink:href="#mfbab90367d" x="43.78125" y="255.159959" style="stroke: #000000; stroke-width: 0.8"/>
      </g>
     </g>
     <g id="text_11">
      <!-- 0.5 -->
      <g transform="translate(20.878125 258.959177) scale(0.1 -0.1)">
       <defs>
        <path id="DejaVuSans-2e" d="M 684 794 
L 1344 794 
L 1344 0 
L 684 0 
L 684 794 
z
" transform="scale(0.015625)"/>
       </defs>
       <use xlink:href="#DejaVuSans-30"/>
       <use xlink:href="#DejaVuSans-2e" x="63.623047"/>
       <use xlink:href="#DejaVuSans-35" x="95.410156"/>
      </g>
     </g>
    </g>
    <g id="ytick_2">
     <g id="line2d_21">
      <path d="M 43.78125 217.274183 
L 400.90125 217.274183 
" clip-path="url(#p92f0a9463f)" style="fill: none; stroke-dasharray: 1.85,0.8; stroke-dashoffset: 0; stroke: #ffffff; stroke-width: 0.5"/>
     </g>
     <g id="line2d_22">
      <g>
       <use xlink:href="#mfbab90367d" x="43.78125" y="217.274183" style="stroke: #000000; stroke-width: 0.8"/>
      </g>
     </g>
     <g id="text_12">
      <!-- 1.0 -->
      <g transform="translate(20.878125 221.073402) scale(0.1 -0.1)">
       <use xlink:href="#DejaVuSans-31"/>
       <use xlink:href="#DejaVuSans-2e" x="63.623047"/>
       <use xlink:href="#DejaVuSans-30" x="95.410156"/>
      </g>
     </g>
    </g>
    <g id="ytick_3">
     <g id="line2d_23">
      <path d="M 43.78125 179.388407 
L 400.90125 179.388407 
" clip-path="url(#p92f0a9463f)" style="fill: none; stroke-dasharray: 1.85,0.8; stroke-dashoffset: 0; stroke: #ffffff; stroke-width: 0.5"/>
     </g>
     <g id="line2d_24">
      <g>
       <use xlink:href="#mfbab90367d" x="43.78125" y="179.388407" style="stroke: #000000; stroke-width: 0.8"/>
      </g>
     </g>
     <g id="text_13">
      <!-- 1.5 -->
      <g transform="translate(20.878125 183.187626) scale(0.1 -0.1)">
       <use xlink:href="#DejaVuSans-31"/>
       <use xlink:href="#DejaVuSans-2e" x="63.623047"/>
       <use xlink:href="#DejaVuSans-35" x="95.410156"/>
      </g>
     </g>
    </g>
    <g id="ytick_4">
     <g id="line2d_25">
      <path d="M 43.78125 141.502631 
L 400.90125 141.502631 
" clip-path="url(#p92f0a9463f)" style="fill: none; stroke-dasharray: 1.85,0.8; stroke-dashoffset: 0; stroke: #ffffff; stroke-width: 0.5"/>
     </g>
     <g id="line2d_26">
      <g>
       <use xlink:href="#mfbab90367d" x="43.78125" y="141.502631" style="stroke: #000000; stroke-width: 0.8"/>
      </g>
     </g>
     <g id="text_14">
      <!-- 2.0 -->
      <g transform="translate(20.878125 145.30185) scale(0.1 -0.1)">
       <use xlink:href="#DejaVuSans-32"/>
       <use xlink:href="#DejaVuSans-2e" x="63.623047"/>
       <use xlink:href="#DejaVuSans-30" x="95.410156"/>
      </g>
     </g>
    </g>
    <g id="ytick_5">
     <g id="line2d_27">
      <path d="M 43.78125 103.616856 
L 400.90125 103.616856 
" clip-path="url(#p92f0a9463f)" style="fill: none; stroke-dasharray: 1.85,0.8; stroke-dashoffset: 0; stroke: #ffffff; stroke-width: 0.5"/>
     </g>
     <g id="line2d_28">
      <g>
       <use xlink:href="#mfbab90367d" x="43.78125" y="103.616856" style="stroke: #000000; stroke-width: 0.8"/>
      </g>
     </g>
     <g id="text_15">
      <!-- 2.5 -->
      <g transform="translate(20.878125 107.416074) scale(0.1 -0.1)">
       <use xlink:href="#DejaVuSans-32"/>
       <use xlink:href="#DejaVuSans-2e" x="63.623047"/>
       <use xlink:href="#DejaVuSans-35" x="95.410156"/>
      </g>
     </g>
    </g>
    <g id="ytick_6">
     <g id="line2d_29">
      <path d="M 43.78125 65.73108 
L 400.90125 65.73108 
" clip-path="url(#p92f0a9463f)" style="fill: none; stroke-dasharray: 1.85,0.8; stroke-dashoffset: 0; stroke: #ffffff; stroke-width: 0.5"/>
     </g>
     <g id="line2d_30">
      <g>
       <use xlink:href="#mfbab90367d" x="43.78125" y="65.73108" style="stroke: #000000; stroke-width: 0.8"/>
      </g>
     </g>
     <g id="text_16">
      <!-- 3.0 -->
      <g transform="translate(20.878125 69.530299) scale(0.1 -0.1)">
       <use xlink:href="#DejaVuSans-33"/>
       <use xlink:href="#DejaVuSans-2e" x="63.623047"/>
       <use xlink:href="#DejaVuSans-30" x="95.410156"/>
      </g>
     </g>
    </g>
    <g id="ytick_7">
     <g id="line2d_31">
      <path d="M 43.78125 27.845304 
L 400.90125 27.845304 
" clip-path="url(#p92f0a9463f)" style="fill: none; stroke-dasharray: 1.85,0.8; stroke-dashoffset: 0; stroke: #ffffff; stroke-width: 0.5"/>
     </g>
     <g id="line2d_32">
      <g>
       <use xlink:href="#mfbab90367d" x="43.78125" y="27.845304" style="stroke: #000000; stroke-width: 0.8"/>
      </g>
     </g>
     <g id="text_17">
      <!-- 3.5 -->
      <g transform="translate(20.878125 31.644523) scale(0.1 -0.1)">
       <use xlink:href="#DejaVuSans-33"/>
       <use xlink:href="#DejaVuSans-2e" x="63.623047"/>
       <use xlink:href="#DejaVuSans-35" x="95.410156"/>
      </g>
     </g>
    </g>
    <g id="text_18">
     <!-- Average latency [s] -->
     <g transform="translate(14.798438 188.840375) rotate(-90) scale(0.1 -0.1)">
      <defs>
       <path id="DejaVuSans-76" d="M 191 3500 
L 800 3500 
L 1894 563 
L 2988 3500 
L 3597 3500 
L 2284 0 
L 1503 0 
L 191 3500 
z
" transform="scale(0.015625)"/>
       <path id="DejaVuSans-72" d="M 2631 2963 
Q 2534 3019 2420 3045 
Q 2306 3072 2169 3072 
Q 1681 3072 1420 2755 
Q 1159 2438 1159 1844 
L 1159 0 
L 581 0 
L 581 3500 
L 1159 3500 
L 1159 2956 
Q 1341 3275 1631 3429 
Q 1922 3584 2338 3584 
Q 2397 3584 2469 3576 
Q 2541 3569 2628 3553 
L 2631 2963 
z
" transform="scale(0.015625)"/>
       <path id="DejaVuSans-67" d="M 2906 1791 
Q 2906 2416 2648 2759 
Q 2391 3103 1925 3103 
Q 1463 3103 1205 2759 
Q 947 2416 947 1791 
Q 947 1169 1205 825 
Q 1463 481 1925 481 
Q 2391 481 2648 825 
Q 2906 1169 2906 1791 
z
M 3481 434 
Q 3481 -459 3084 -895 
Q 2688 -1331 1869 -1331 
Q 1566 -1331 1297 -1286 
Q 1028 -1241 775 -1147 
L 775 -588 
Q 1028 -725 1275 -790 
Q 1522 -856 1778 -856 
Q 2344 -856 2625 -561 
Q 2906 -266 2906 331 
L 2906 616 
Q 2728 306 2450 153 
Q 2172 0 1784 0 
Q 1141 0 747 490 
Q 353 981 353 1791 
Q 353 2603 747 3093 
Q 1141 3584 1784 3584 
Q 2172 3584 2450 3431 
Q 2728 3278 2906 2969 
L 2906 3500 
L 3481 3500 
L 3481 434 
z
" transform="scale(0.015625)"/>
       <path id="DejaVuSans-6c" d="M 603 4863 
L 1178 4863 
L 1178 0 
L 603 0 
L 603 4863 
z
" transform="scale(0.015625)"/>
       <path id="DejaVuSans-79" d="M 2059 -325 
Q 1816 -950 1584 -1140 
Q 1353 -1331 966 -1331 
L 506 -1331 
L 506 -850 
L 844 -850 
Q 1081 -850 1212 -737 
Q 1344 -625 1503 -206 
L 1606 56 
L 191 3500 
L 800 3500 
L 1894 763 
L 2988 3500 
L 3597 3500 
L 2059 -325 
z
" transform="scale(0.015625)"/>
      </defs>
      <use xlink:href="#DejaVuSans-41"/>
      <use xlink:href="#DejaVuSans-76" x="62.533203"/>
      <use xlink:href="#DejaVuSans-65" x="121.712891"/>
      <use xlink:href="#DejaVuSans-72" x="183.236328"/>
      <use xlink:href="#DejaVuSans-61" x="224.349609"/>
      <use xlink:href="#DejaVuSans-67" x="285.628906"/>
      <use xlink:href="#DejaVuSans-65" x="349.105469"/>
      <use xlink:href="#DejaVuSans-20" x="410.628906"/>
      <use xlink:href="#DejaVuSans-6c" x="442.416016"/>
      <use xlink:href="#DejaVuSans-61" x="470.199219"/>
      <use xlink:href="#DejaVuSans-74" x="531.478516"/>
      <use xlink:href="#DejaVuSans-65" x="570.6875"/>
      <use xlink:href="#DejaVuSans-6e" x="632.210938"/>
      <use xlink:href="#DejaVuSans-63" x="695.589844"/>
      <use xlink:href="#DejaVuSans-79" x="750.570312"/>
      <use xlink:href="#DejaVuSans-20" x="809.75"/>
      <use xlink:href="#DejaVuSans-5b" x="841.537109"/>
      <use xlink:href="#DejaVuSans-73" x="880.550781"/>
      <use xlink:href="#DejaVuSans-5d" x="932.650391"/>
     </g>
    </g>
   </g>
   <g id="line2d_33">
    <path d="M 60.013977 119.923399 
L 77.101059 119.923399 
L 94.18814 110.367848 
L 111.275221 103.062713 
L 128.362303 84.060976 
L 145.449384 84.060976 
L 162.536465 84.069311 
L 179.623547 73.61511 
L 196.710628 57.374488 
L 213.797709 57.149194 
L 230.884791 57.544974 
L 247.971872 58.884615 
L 265.058953 72.191868 
L 282.146035 48.843622 
L 299.233116 34.222743 
L 316.320197 29.070783 
L 333.407279 29.888105 
L 350.49436 24.487109 
L 367.581441 31.427783 
L 384.668523 27.211601 
" clip-path="url(#p92f0a9463f)" style="fill: none; stroke: #000000; stroke-width: 1.5; stroke-linecap: square"/>
    <defs>
     <path id="m2b62540e31" d="M 0 4 
C 1.060812 4 2.078319 3.578535 2.828427 2.828427 
C 3.578535 2.078319 4 1.060812 4 0 
C 4 -1.060812 3.578535 -2.078319 2.828427 -2.828427 
C 2.078319 -3.578535 1.060812 -4 0 -4 
C -1.060812 -4 -2.078319 -3.578535 -2.828427 -2.828427 
C -3.578535 -2.078319 -4 -1.060812 -4 0 
C -4 1.060812 -3.578535 2.078319 -2.828427 2.828427 
C -2.078319 3.578535 -1.060812 4 0 4 
z
" style="stroke: #ffffff; stroke-width: 0.75"/>
    </defs>
    <g clip-path="url(#p92f0a9463f)">
     <use xlink:href="#m2b62540e31" x="60.013977" y="119.923399" style="stroke: #ffffff; stroke-width: 0.75"/>
     <use xlink:href="#m2b62540e31" x="77.101059" y="119.923399" style="stroke: #ffffff; stroke-width: 0.75"/>
     <use xlink:href="#m2b62540e31" x="94.18814" y="110.367848" style="stroke: #ffffff; stroke-width: 0.75"/>
     <use xlink:href="#m2b62540e31" x="111.275221" y="103.062713" style="stroke: #ffffff; stroke-width: 0.75"/>
     <use xlink:href="#m2b62540e31" x="128.362303" y="84.060976" style="stroke: #ffffff; stroke-width: 0.75"/>
     <use xlink:href="#m2b62540e31" x="145.449384" y="84.060976" style="stroke: #ffffff; stroke-width: 0.75"/>
     <use xlink:href="#m2b62540e31" x="162.536465" y="84.069311" style="stroke: #ffffff; stroke-width: 0.75"/>
     <use xlink:href="#m2b62540e31" x="179.623547" y="73.61511" style="stroke: #ffffff; stroke-width: 0.75"/>
     <use xlink:href="#m2b62540e31" x="196.710628" y="57.374488" style="stroke: #ffffff; stroke-width: 0.75"/>
     <use xlink:href="#m2b62540e31" x="213.797709" y="57.149194" style="stroke: #ffffff; stroke-width: 0.75"/>
     <use xlink:href="#m2b62540e31" x="230.884791" y="57.544974" style="stroke: #ffffff; stroke-width: 0.75"/>
     <use xlink:href="#m2b62540e31" x="247.971872" y="58.884615" style="stroke: #ffffff; stroke-width: 0.75"/>
     <use xlink:href="#m2b62540e31" x="265.058953" y="72.191868" style="stroke: #ffffff; stroke-width: 0.75"/>
     <use xlink:href="#m2b62540e31" x="282.146035" y="48.843622" style="stroke: #ffffff; stroke-width: 0.75"/>
     <use xlink:href="#m2b62540e31" x="299.233116" y="34.222743" style="stroke: #ffffff; stroke-width: 0.75"/>
     <use xlink:href="#m2b62540e31" x="316.320197" y="29.070783" style="stroke: #ffffff; stroke-width: 0.75"/>
     <use xlink:href="#m2b62540e31" x="333.407279" y="29.888105" style="stroke: #ffffff; stroke-width: 0.75"/>
     <use xlink:href="#m2b62540e31" x="350.49436" y="24.487109" style="stroke: #ffffff; stroke-width: 0.75"/>
     <use xlink:href="#m2b62540e31" x="367.581441" y="31.427783" style="stroke: #ffffff; stroke-width: 0.75"/>
     <use xlink:href="#m2b62540e31" x="384.668523" y="27.211601" style="stroke: #ffffff; stroke-width: 0.75"/>
    </g>
   </g>
   <g id="line2d_34">
    <path d="M 60.013977 195.010986 
L 77.101059 210.277968 
L 94.18814 172.360596 
L 111.275221 182.234639 
L 128.362303 166.336 
L 145.449384 166.273867 
L 162.536465 147.255208 
L 179.623547 136.811362 
L 196.710628 157.452695 
L 213.797709 157.852339 
L 230.884791 140.445618 
L 282.146035 161.034264 
L 299.233116 96.245799 
L 316.320197 60.287147 
L 333.407279 61.490651 
L 350.49436 61.283795 
L 367.581441 61.279122 
L 384.668523 35.304508 
" clip-path="url(#p92f0a9463f)" style="fill: none; stroke: #8b0000; stroke-width: 1.5; stroke-linecap: square"/>
    <defs>
     <path id="mae23b641da" d="M 0 4 
C 1.060812 4 2.078319 3.578535 2.828427 2.828427 
C 3.578535 2.078319 4 1.060812 4 0 
C 4 -1.060812 3.578535 -2.078319 2.828427 -2.828427 
C 2.078319 -3.578535 1.060812 -4 0 -4 
C -1.060812 -4 -2.078319 -3.578535 -2.828427 -2.828427 
C -3.578535 -2.078319 -4 -1.060812 -4 0 
C -4 1.060812 -3.578535 2.078319 -2.828427 2.828427 
C -2.078319 3.578535 -1.060812 4 0 4 
z
" style="stroke: #ffffff; stroke-width: 0.75"/>
    </defs>
    <g clip-path="url(#p92f0a9463f)">
     <use xlink:href="#mae23b641da" x="60.013977" y="195.010986" style="fill: #8b0000; stroke: #ffffff; stroke-width: 0.75"/>
     <use xlink:href="#mae23b641da" x="77.101059" y="210.277968" style="fill: #8b0000; stroke: #ffffff; stroke-width: 0.75"/>
     <use xlink:href="#mae23b641da" x="94.18814" y="172.360596" style="fill: #8b0000; stroke: #ffffff; stroke-width: 0.75"/>
     <use xlink:href="#mae23b641da" x="111.275221" y="182.234639" style="fill: #8b0000; stroke: #ffffff; stroke-width: 0.75"/>
     <use xlink:href="#mae23b641da" x="128.362303" y="166.336" style="fill: #8b0000; stroke: #ffffff; stroke-width: 0.75"/>
     <use xlink:href="#mae23b641da" x="145.449384" y="166.273867" style="fill: #8b0000; stroke: #ffffff; stroke-width: 0.75"/>
     <use xlink:href="#mae23b641da" x="162.536465" y="147.255208" style="fill: #8b0000; stroke: #ffffff; stroke-width: 0.75"/>
     <use xlink:href="#mae23b641da" x="179.623547" y="136.811362" style="fill: #8b0000; stroke: #ffffff; stroke-width: 0.75"/>
     <use xlink:href="#mae23b641da" x="196.710628" y="157.452695" style="fill: #8b0000; stroke: #ffffff; stroke-width: 0.75"/>
     <use xlink:href="#mae23b641da" x="213.797709" y="157.852339" style="fill: #8b0000; stroke: #ffffff; stroke-width: 0.75"/>
     <use xlink:href="#mae23b641da" x="230.884791" y="140.445618" style="fill: #8b0000; stroke: #ffffff; stroke-width: 0.75"/>
     <use xlink:href="#mae23b641da" x="282.146035" y="161.034264" style="fill: #8b0000; stroke: #ffffff; stroke-width: 0.75"/>
     <use xlink:href="#mae23b641da" x="299.233116" y="96.245799" style="fill: #8b0000; stroke: #ffffff; stroke-width: 0.75"/>
     <use xlink:href="#mae23b641da" x="316.320197" y="60.287147" style="fill: #8b0000; stroke: #ffffff; stroke-width: 0.75"/>
     <use xlink:href="#mae23b641da" x="333.407279" y="61.490651" style="fill: #8b0000; stroke: #ffffff; stroke-width: 0.75"/>
     <use xlink:href="#mae23b641da" x="350.49436" y="61.283795" style="fill: #8b0000; stroke: #ffffff; stroke-width: 0.75"/>
     <use xlink:href="#mae23b641da" x="367.581441" y="61.279122" style="fill: #8b0000; stroke: #ffffff; stroke-width: 0.75"/>
     <use xlink:href="#mae23b641da" x="384.668523" y="35.304508" style="fill: #8b0000; stroke: #ffffff; stroke-width: 0.75"/>
    </g>
   </g>
   <g id="line2d_35">
    <path d="M 60.013977 212.994985 
L 77.101059 212.994985 
L 94.18814 212.994985 
L 111.275221 213.811802 
L 128.362303 206.153445 
L 145.449384 200.716078 
L 162.536465 200.539026 
L 179.623547 192.378429 
L 196.710628 183.315142 
L 213.797709 183.255029 
L 230.884791 183.255029 
L 247.971872 183.336358 
L 265.058953 183.407835 
L 282.146035 223.690518 
L 299.233116 173.391468 
L 316.320197 175.23941 
L 333.407279 175.165406 
L 350.49436 175.715508 
L 367.581441 175.779408 
L 384.668523 175.708941 
" clip-path="url(#p92f0a9463f)" style="fill: none; stroke: #556b2f; stroke-width: 1.5; stroke-linecap: square"/>
    <defs>
     <path id="me8831996a6" d="M 0 4 
C 1.060812 4 2.078319 3.578535 2.828427 2.828427 
C 3.578535 2.078319 4 1.060812 4 0 
C 4 -1.060812 3.578535 -2.078319 2.828427 -2.828427 
C 2.078319 -3.578535 1.060812 -4 0 -4 
C -1.060812 -4 -2.078319 -3.578535 -2.828427 -2.828427 
C -3.578535 -2.078319 -4 -1.060812 -4 0 
C -4 1.060812 -3.578535 2.078319 -2.828427 2.828427 
C -2.078319 3.578535 -1.060812 4 0 4 
z
" style="stroke: #ffffff; stroke-width: 0.75"/>
    </defs>
    <g clip-path="url(#p92f0a9463f)">
     <use xlink:href="#me8831996a6" x="60.013977" y="212.994985" style="fill: #556b2f; stroke: #ffffff; stroke-width: 0.75"/>
     <use xlink:href="#me8831996a6" x="77.101059" y="212.994985" style="fill: #556b2f; stroke: #ffffff; stroke-width: 0.75"/>
     <use xlink:href="#me8831996a6" x="94.18814" y="212.994985" style="fill: #556b2f; stroke: #ffffff; stroke-width: 0.75"/>
     <use xlink:href="#me8831996a6" x="111.275221" y="213.811802" style="fill: #556b2f; stroke: #ffffff; stroke-width: 0.75"/>
     <use xlink:href="#me8831996a6" x="128.362303" y="206.153445" style="fill: #556b2f; stroke: #ffffff; stroke-width: 0.75"/>
     <use xlink:href="#me8831996a6" x="145.449384" y="200.716078" style="fill: #556b2f; stroke: #ffffff; stroke-width: 0.75"/>
     <use xlink:href="#me8831996a6" x="162.536465" y="200.539026" style="fill: #556b2f; stroke: #ffffff; stroke-width: 0.75"/>
     <use xlink:href="#me8831996a6" x="179.623547" y="192.378429" style="fill: #556b2f; stroke: #ffffff; stroke-width: 0.75"/>
     <use xlink:href="#me8831996a6" x="196.710628" y="183.315142" style="fill: #556b2f; stroke: #ffffff; stroke-width: 0.75"/>
     <use xlink:href="#me8831996a6" x="213.797709" y="183.255029" style="fill: #556b2f; stroke: #ffffff; stroke-width: 0.75"/>
     <use xlink:href="#me8831996a6" x="230.884791" y="183.255029" style="fill: #556b2f; stroke: #ffffff; stroke-width: 0.75"/>
     <use xlink:href="#me8831996a6" x="247.971872" y="183.336358" style="fill: #556b2f; stroke: #ffffff; stroke-width: 0.75"/>
     <use xlink:href="#me8831996a6" x="265.058953" y="183.407835" style="fill: #556b2f; stroke: #ffffff; stroke-width: 0.75"/>
     <use xlink:href="#me8831996a6" x="282.146035" y="223.690518" style="fill: #556b2f; stroke: #ffffff; stroke-width: 0.75"/>
     <use xlink:href="#me8831996a6" x="299.233116" y="173.391468" style="fill: #556b2f; stroke: #ffffff; stroke-width: 0.75"/>
     <use xlink:href="#me8831996a6" x="316.320197" y="175.23941" style="fill: #556b2f; stroke: #ffffff; stroke-width: 0.75"/>
     <use xlink:href="#me8831996a6" x="333.407279" y="175.165406" style="fill: #556b2f; stroke: #ffffff; stroke-width: 0.75"/>
     <use xlink:href="#me8831996a6" x="350.49436" y="175.715508" style="fill: #556b2f; stroke: #ffffff; stroke-width: 0.75"/>
     <use xlink:href="#me8831996a6" x="367.581441" y="175.779408" style="fill: #556b2f; stroke: #ffffff; stroke-width: 0.75"/>
     <use xlink:href="#me8831996a6" x="384.668523" y="175.708941" style="fill: #556b2f; stroke: #ffffff; stroke-width: 0.75"/>
    </g>
   </g>
   <g id="line2d_36"/>
   <g id="line2d_37"/>
   <g id="line2d_38"/>
   <g id="line2d_39"/>
   <g id="line2d_40"/>
   <g id="line2d_41"/>
   <g id="patch_3">
    <path d="M 43.78125 273.312 
L 43.78125 7.2 
" style="fill: none; stroke: #000000; stroke-width: 0.8; stroke-linejoin: miter; stroke-linecap: square"/>
   </g>
   <g id="patch_4">
    <path d="M 400.90125 273.312 
L 400.90125 7.2 
" style="fill: none; stroke: #000000; stroke-width: 0.8; stroke-linejoin: miter; stroke-linecap: square"/>
   </g>
   <g id="patch_5">
    <path d="M 43.78125 273.312 
L 400.90125 273.312 
" style="fill: none; stroke: #000000; stroke-width: 0.8; stroke-linejoin: miter; stroke-linecap: square"/>
   </g>
   <g id="patch_6">
    <path d="M 43.78125 7.2 
L 400.90125 7.2 
" style="fill: none; stroke: #000000; stroke-width: 0.8; stroke-linejoin: miter; stroke-linecap: square"/>
   </g>
   <g id="legend_1">
    <g id="patch_7">
     <path d="M 298.835625 268.312 
L 393.90125 268.312 
Q 395.90125 268.312 395.90125 266.312 
L 395.90125 179.24325 
Q 395.90125 177.24325 393.90125 177.24325 
L 298.835625 177.24325 
Q 296.835625 177.24325 296.835625 179.24325 
L 296.835625 266.312 
Q 296.835625 268.312 298.835625 268.312 
z
" style="fill: #ffffff; opacity: 0.8; stroke: #cccccc; stroke-linejoin: miter"/>
    </g>
    <g id="line2d_42">
     <path d="M 300.835625 185.341687 
L 310.835625 185.341687 
L 320.835625 185.341687 
" style="fill: none"/>
    </g>
    <g id="text_19">
     <!-- linksNumber -->
     <g transform="translate(328.835625 188.841687) scale(0.1 -0.1)">
      <defs>
       <path id="DejaVuSans-6b" d="M 581 4863 
L 1159 4863 
L 1159 1991 
L 2875 3500 
L 3609 3500 
L 1753 1863 
L 3688 0 
L 2938 0 
L 1159 1709 
L 1159 0 
L 581 0 
L 581 4863 
z
" transform="scale(0.015625)"/>
       <path id="DejaVuSans-4e" d="M 628 4666 
L 1478 4666 
L 3547 763 
L 3547 4666 
L 4159 4666 
L 4159 0 
L 3309 0 
L 1241 3903 
L 1241 0 
L 628 0 
L 628 4666 
z
" transform="scale(0.015625)"/>
       <path id="DejaVuSans-75" d="M 544 1381 
L 544 3500 
L 1119 3500 
L 1119 1403 
Q 1119 906 1312 657 
Q 1506 409 1894 409 
Q 2359 409 2629 706 
Q 2900 1003 2900 1516 
L 2900 3500 
L 3475 3500 
L 3475 0 
L 2900 0 
L 2900 538 
Q 2691 219 2414 64 
Q 2138 -91 1772 -91 
Q 1169 -91 856 284 
Q 544 659 544 1381 
z
M 1991 3584 
L 1991 3584 
z
" transform="scale(0.015625)"/>
      </defs>
      <use xlink:href="#DejaVuSans-6c"/>
      <use xlink:href="#DejaVuSans-69" x="27.783203"/>
      <use xlink:href="#DejaVuSans-6e" x="55.566406"/>
      <use xlink:href="#DejaVuSans-6b" x="118.945312"/>
      <use xlink:href="#DejaVuSans-73" x="176.855469"/>
      <use xlink:href="#DejaVuSans-4e" x="228.955078"/>
      <use xlink:href="#DejaVuSans-75" x="303.759766"/>
      <use xlink:href="#DejaVuSans-6d" x="367.138672"/>
      <use xlink:href="#DejaVuSans-62" x="464.550781"/>
      <use xlink:href="#DejaVuSans-65" x="528.027344"/>
      <use xlink:href="#DejaVuSans-72" x="589.550781"/>
     </g>
    </g>
    <g id="line2d_43">
     <path d="M 300.835625 200.019812 
L 310.835625 200.019812 
L 320.835625 200.019812 
" style="fill: none; stroke: #000000; stroke-width: 1.5; stroke-linecap: square"/>
    </g>
    <g id="text_20">
     <!-- 1 -->
     <g transform="translate(328.835625 203.519812) scale(0.1 -0.1)">
      <use xlink:href="#DejaVuSans-31"/>
     </g>
    </g>
    <g id="line2d_44">
     <path d="M 300.835625 214.697937 
L 310.835625 214.697937 
L 320.835625 214.697937 
" style="fill: none; stroke: #8b0000; stroke-width: 1.5; stroke-linecap: square"/>
    </g>
    <g id="text_21">
     <!-- 2 -->
     <g transform="translate(328.835625 218.197937) scale(0.1 -0.1)">
      <use xlink:href="#DejaVuSans-32"/>
     </g>
    </g>
    <g id="line2d_45">
     <path d="M 300.835625 229.376062 
L 310.835625 229.376062 
L 320.835625 229.376062 
" style="fill: none; stroke: #556b2f; stroke-width: 1.5; stroke-linecap: square"/>
    </g>
    <g id="text_22">
     <!-- 3 -->
     <g transform="translate(328.835625 232.876062) scale(0.1 -0.1)">
      <use xlink:href="#DejaVuSans-33"/>
     </g>
    </g>
    <g id="line2d_46">
     <path d="M 300.835625 244.054187 
L 310.835625 244.054187 
L 320.835625 244.054187 
" style="fill: none"/>
    </g>
    <g id="text_23">
     <!-- nStations -->
     <g transform="translate(328.835625 247.554187) scale(0.1 -0.1)">
      <defs>
       <path id="DejaVuSans-53" d="M 3425 4513 
L 3425 3897 
Q 3066 4069 2747 4153 
Q 2428 4238 2131 4238 
Q 1616 4238 1336 4038 
Q 1056 3838 1056 3469 
Q 1056 3159 1242 3001 
Q 1428 2844 1947 2747 
L 2328 2669 
Q 3034 2534 3370 2195 
Q 3706 1856 3706 1288 
Q 3706 609 3251 259 
Q 2797 -91 1919 -91 
Q 1588 -91 1214 -16 
Q 841 59 441 206 
L 441 856 
Q 825 641 1194 531 
Q 1563 422 1919 422 
Q 2459 422 2753 634 
Q 3047 847 3047 1241 
Q 3047 1584 2836 1778 
Q 2625 1972 2144 2069 
L 1759 2144 
Q 1053 2284 737 2584 
Q 422 2884 422 3419 
Q 422 4038 858 4394 
Q 1294 4750 2059 4750 
Q 2388 4750 2728 4690 
Q 3069 4631 3425 4513 
z
" transform="scale(0.015625)"/>
       <path id="DejaVuSans-6f" d="M 1959 3097 
Q 1497 3097 1228 2736 
Q 959 2375 959 1747 
Q 959 1119 1226 758 
Q 1494 397 1959 397 
Q 2419 397 2687 759 
Q 2956 1122 2956 1747 
Q 2956 2369 2687 2733 
Q 2419 3097 1959 3097 
z
M 1959 3584 
Q 2709 3584 3137 3096 
Q 3566 2609 3566 1747 
Q 3566 888 3137 398 
Q 2709 -91 1959 -91 
Q 1206 -91 779 398 
Q 353 888 353 1747 
Q 353 2609 779 3096 
Q 1206 3584 1959 3584 
z
" transform="scale(0.015625)"/>
      </defs>
      <use xlink:href="#DejaVuSans-6e"/>
      <use xlink:href="#DejaVuSans-53" x="63.378906"/>
      <use xlink:href="#DejaVuSans-74" x="126.855469"/>
      <use xlink:href="#DejaVuSans-61" x="166.064453"/>
      <use xlink:href="#DejaVuSans-74" x="227.34375"/>
      <use xlink:href="#DejaVuSans-69" x="266.552734"/>
      <use xlink:href="#DejaVuSans-6f" x="294.335938"/>
      <use xlink:href="#DejaVuSans-6e" x="355.517578"/>
      <use xlink:href="#DejaVuSans-73" x="418.896484"/>
     </g>
    </g>
    <g id="line2d_47">
     <path d="M 300.835625 258.732312 
L 310.835625 258.732312 
L 320.835625 258.732312 
" style="fill: none; stroke: #333333; stroke-width: 1.5; stroke-linecap: square"/>
     <defs>
      <path id="m71c6db4f07" d="M 0 3 
C 0.795609 3 1.55874 2.683901 2.12132 2.12132 
C 2.683901 1.55874 3 0.795609 3 0 
C 3 -0.795609 2.683901 -1.55874 2.12132 -2.12132 
C 1.55874 -2.683901 0.795609 -3 0 -3 
C -0.795609 -3 -1.55874 -2.683901 -2.12132 -2.12132 
C -2.683901 -1.55874 -3 -0.795609 -3 0 
C -3 0.795609 -2.683901 1.55874 -2.12132 2.12132 
C -1.55874 2.683901 -0.795609 3 0 3 
z
" style="stroke: #ffffff; stroke-width: 0.75"/>
     </defs>
     <g>
      <use xlink:href="#m71c6db4f07" x="310.835625" y="258.732312" style="fill: #333333; stroke: #ffffff; stroke-width: 0.75"/>
     </g>
    </g>
    <g id="text_24">
     <!-- 4 -->
     <g transform="translate(328.835625 262.232312) scale(0.1 -0.1)">
      <use xlink:href="#DejaVuSans-34"/>
     </g>
    </g>
   </g>
  </g>
 </g>
 <defs>
  <clipPath id="p92f0a9463f">
   <rect x="43.78125" y="7.2" width="357.12" height="266.112"/>
  </clipPath>
 </defs>
</svg>
