<?xml version="1.0" encoding="utf-8" standalone="no"?>
<!DOCTYPE svg PUBLIC "-//W3C//DTD SVG 1.1//EN"
  "http://www.w3.org/Graphics/SVG/1.1/DTD/svg11.dtd">
<svg xmlns:xlink="http://www.w3.org/1999/xlink" width="1304.39952pt" height="383.39976pt" viewBox="0 0 1304.39952 383.39976" xmlns="http://www.w3.org/2000/svg" version="1.1">
 <metadata>
  <rdf:RDF xmlns:dc="http://purl.org/dc/elements/1.1/" xmlns:cc="http://creativecommons.org/ns#" xmlns:rdf="http://www.w3.org/1999/02/22-rdf-syntax-ns#">
   <cc:Work>
    <dc:type rdf:resource="http://purl.org/dc/dcmitype/StillImage"/>
    <dc:date>2025-05-15T13:27:18.942653</dc:date>
    <dc:format>image/svg+xml</dc:format>
    <dc:creator>
     <cc:Agent>
      <dc:title>Matplotlib v3.9.2, https://matplotlib.org/</dc:title>
     </cc:Agent>
    </dc:creator>
   </cc:Work>
  </rdf:RDF>
 </metadata>
 <defs>
  <style type="text/css">*{stroke-linejoin: round; stroke-linecap: butt}</style>
 </defs>
 <g id="figure_1">
  <g id="patch_1">
   <path d="M 0 383.39976 
L 1304.39952 383.39976 
L 1304.39952 0 
L 0 0 
z
" style="fill: #ffffff"/>
  </g>
  <g id="axes_1">
   <g id="patch_2">
    <path d="M 46.965625 345.84351 
L 455.616923 345.84351 
L 455.616923 39.318365 
L 46.965625 39.318365 
z
" style="fill: #ffffff"/>
   </g>
   <g id="PolyCollection_1">
    <defs>
     <path id="m3c64d7d9cb" d="M 65.540684 -191.444646 
L 65.540684 -190.012993 
L 84.115743 -190.019046 
L 102.690802 -162.708839 
L 121.265861 -163.881765 
L 139.84092 -164.632358 
L 158.415979 -165.845177 
L 176.991038 -165.970801 
L 195.566097 -153.920499 
L 214.141156 -147.190259 
L 232.716215 -143.358693 
L 251.291274 -144.142446 
L 269.866333 -143.673063 
L 288.441392 -143.409092 
L 307.016451 -141.87117 
L 325.59151 -132.131015 
L 344.166569 -129.786823 
L 362.741628 -115.594812 
L 381.316687 -115.940508 
L 399.891746 -115.284601 
L 418.466805 -116.287868 
L 437.041864 -115.848748 
L 437.041864 -117.080445 
L 437.041864 -117.080445 
L 418.466805 -116.68485 
L 399.891746 -116.897202 
L 381.316687 -116.708136 
L 362.741628 -117.00615 
L 344.166569 -131.400397 
L 325.59151 -133.565282 
L 307.016451 -143.914059 
L 288.441392 -145.028587 
L 269.866333 -145.412123 
L 251.291274 -145.519131 
L 232.716215 -145.743678 
L 214.141156 -153.663592 
L 195.566097 -160.181313 
L 176.991038 -168.934368 
L 158.415979 -168.499499 
L 139.84092 -169.693498 
L 121.265861 -166.390933 
L 102.690802 -165.533593 
L 84.115743 -191.438162 
L 65.540684 -191.444646 
z
" style="stroke: #003f5c; stroke-opacity: 0.2"/>
    </defs>
    <g clip-path="url(#paa733905ec)">
     <use xlink:href="#m3c64d7d9cb" x="0" y="383.39976" style="fill: #003f5c; fill-opacity: 0.2; stroke: #003f5c; stroke-opacity: 0.2"/>
    </g>
   </g>
   <g id="PolyCollection_2">
    <defs>
     <path id="me81caf9716" d="M 65.540684 -319.854239 
L 65.540684 -319.818651 
L 84.115743 -319.819586 
L 102.690802 -318.019953 
L 121.265861 -317.97606 
L 139.84092 -293.942386 
L 158.415979 -265.936352 
L 176.991038 -265.927469 
L 195.566097 -265.162474 
L 214.141156 -252.343468 
L 232.716215 -229.952236 
L 251.291274 -206.597733 
L 269.866333 -206.560794 
L 288.441392 -204.189367 
L 307.016451 -188.346404 
L 325.59151 -177.741274 
L 344.166569 -167.761557 
L 362.741628 -145.387589 
L 381.316687 -137.1735 
L 399.891746 -136.946455 
L 418.466805 -137.146055 
L 437.041864 -136.463811 
L 437.041864 -137.096987 
L 437.041864 -137.096987 
L 418.466805 -137.364506 
L 399.891746 -160.092833 
L 381.316687 -137.587115 
L 362.741628 -145.391193 
L 344.166569 -168.39799 
L 325.59151 -178.287332 
L 307.016451 -189.043201 
L 288.441392 -204.548647 
L 269.866333 -207.162989 
L 251.291274 -207.072892 
L 232.716215 -230.575376 
L 214.141156 -252.625063 
L 195.566097 -265.60399 
L 176.991038 -266.108756 
L 158.415979 -266.286052 
L 139.84092 -294.132514 
L 121.265861 -318.153493 
L 102.690802 -318.111945 
L 84.115743 -319.855163 
L 65.540684 -319.854239 
z
" style="stroke: #7a5195; stroke-opacity: 0.2"/>
    </defs>
    <g clip-path="url(#paa733905ec)">
     <use xlink:href="#me81caf9716" x="0" y="383.39976" style="fill: #7a5195; fill-opacity: 0.2; stroke: #7a5195; stroke-opacity: 0.2"/>
    </g>
   </g>
   <g id="PolyCollection_3">
    <defs>
     <path id="m3ee3991e90" d="M 65.540684 -333.18631 
L 65.540684 -333.161336 
L 84.115743 -333.160436 
L 102.690802 -331.030885 
L 121.265861 -331.1515 
L 139.84092 -305.858129 
L 158.415979 -274.771095 
L 176.991038 -274.252089 
L 195.566097 -273.352601 
L 214.141156 -260.167909 
L 232.716215 -237.838746 
L 251.291274 -213.522989 
L 269.866333 -213.436732 
L 288.441392 -210.601074 
L 307.016451 -194.840539 
L 325.59151 -183.429791 
L 344.166569 -173.254273 
L 362.741628 -149.626314 
L 381.316687 -141.331831 
L 399.891746 -142.72099 
L 418.466805 -142.337315 
L 437.041864 -142.025163 
L 437.041864 -142.64614 
L 437.041864 -142.64614 
L 418.466805 -143.66105 
L 399.891746 -142.972985 
L 381.316687 -142.126813 
L 362.741628 -150.263094 
L 344.166569 -173.831467 
L 325.59151 -183.942847 
L 307.016451 -195.407018 
L 288.441392 -211.241906 
L 269.866333 -213.958048 
L 251.291274 -214.023161 
L 232.716215 -238.321293 
L 214.141156 -260.571167 
L 195.566097 -273.915957 
L 176.991038 -275.044621 
L 158.415979 -275.252649 
L 139.84092 -306.007598 
L 121.265861 -331.344631 
L 102.690802 -331.350638 
L 84.115743 -333.185385 
L 65.540684 -333.18631 
z
" style="stroke: #ef5675; stroke-opacity: 0.2"/>
    </defs>
    <g clip-path="url(#paa733905ec)">
     <use xlink:href="#m3ee3991e90" x="0" y="383.39976" style="fill: #ef5675; fill-opacity: 0.2; stroke: #ef5675; stroke-opacity: 0.2"/>
    </g>
   </g>
   <g id="PolyCollection_4">
    <path d="M 65.540684 62.674085 
L 65.540684 62.765152 
L 84.115743 62.764679 
L 102.690802 64.567107 
L 121.265861 64.607281 
L 139.84092 92.72439 
L 158.415979 117.402891 
L 176.991038 117.831143 
L 195.566097 122.747122 
L 214.141156 141.579648 
L 232.716215 165.05897 
L 251.291274 177.493765 
L 269.866333 180.700392 
L 288.441392 189.140418 
L 307.016451 204.650992 
L 325.59151 216.627816 
L 344.166569 232.074074 
L 344.166569 231.764972 
L 344.166569 231.764972 
L 325.59151 216.418236 
L 307.016451 203.927165 
L 288.441392 188.646408 
L 269.866333 180.274302 
L 251.291274 177.177177 
L 232.716215 164.853825 
L 214.141156 141.3709 
L 195.566097 121.696728 
L 176.991038 117.174127 
L 158.415979 117.051429 
L 139.84092 92.562092 
L 121.265861 64.511178 
L 102.690802 64.410454 
L 84.115743 62.67412 
L 65.540684 62.674085 
z
" clip-path="url(#paa733905ec)" style="fill: #ffa600; fill-opacity: 0.2; stroke: #ffa600; stroke-opacity: 0.2"/>
    <path d="M 399.891746 247.354831 
L 399.891746 247.815574 
L 418.466805 249.599498 
L 437.041864 256.864934 
L 437.041864 256.127523 
L 437.041864 256.127523 
L 418.466805 225.737055 
L 399.891746 247.354831 
z
" clip-path="url(#paa733905ec)" style="fill: #ffa600; fill-opacity: 0.2; stroke: #ffa600; stroke-opacity: 0.2"/>
   </g>
   <g id="matplotlib.axis_1">
    <g id="xtick_1">
     <g id="line2d_1">
      <path d="M 56.253155 345.84351 
L 56.253155 39.318365 
" clip-path="url(#paa733905ec)" style="fill: none; stroke-dasharray: 1.85,0.8; stroke-dashoffset: 0; stroke: #ffffff; stroke-width: 0.5"/>
     </g>
     <g id="line2d_2">
      <defs>
       <path id="m8e7e3ab85e" d="M 0 0 
L 0 3.5 
" style="stroke: #000000; stroke-width: 0.8"/>
      </defs>
      <g>
       <use xlink:href="#m8e7e3ab85e" x="56.253155" y="345.84351" style="stroke: #000000; stroke-width: 0.8"/>
      </g>
     </g>
     <g id="text_1">
      <!-- 0 -->
      <g transform="translate(53.071905 360.441947) scale(0.1 -0.1)">
       <defs>
        <path id="DejaVuSans-30" d="M 2034 4250 
Q 1547 4250 1301 3770 
Q 1056 3291 1056 2328 
Q 1056 1369 1301 889 
Q 1547 409 2034 409 
Q 2525 409 2770 889 
Q 3016 1369 3016 2328 
Q 3016 3291 2770 3770 
Q 2525 4250 2034 4250 
z
M 2034 4750 
Q 2819 4750 3233 4129 
Q 3647 3509 3647 2328 
Q 3647 1150 3233 529 
Q 2819 -91 2034 -91 
Q 1250 -91 836 529 
Q 422 1150 422 2328 
Q 422 3509 836 4129 
Q 1250 4750 2034 4750 
z
" transform="scale(0.015625)"/>
       </defs>
       <use xlink:href="#DejaVuSans-30"/>
      </g>
     </g>
    </g>
    <g id="xtick_2">
     <g id="line2d_3">
      <path d="M 102.690802 345.84351 
L 102.690802 39.318365 
" clip-path="url(#paa733905ec)" style="fill: none; stroke-dasharray: 1.85,0.8; stroke-dashoffset: 0; stroke: #ffffff; stroke-width: 0.5"/>
     </g>
     <g id="line2d_4">
      <g>
       <use xlink:href="#m8e7e3ab85e" x="102.690802" y="345.84351" style="stroke: #000000; stroke-width: 0.8"/>
      </g>
     </g>
     <g id="text_2">
      <!-- 5 -->
      <g transform="translate(99.509552 360.441947) scale(0.1 -0.1)">
       <defs>
        <path id="DejaVuSans-35" d="M 691 4666 
L 3169 4666 
L 3169 4134 
L 1269 4134 
L 1269 2991 
Q 1406 3038 1543 3061 
Q 1681 3084 1819 3084 
Q 2600 3084 3056 2656 
Q 3513 2228 3513 1497 
Q 3513 744 3044 326 
Q 2575 -91 1722 -91 
Q 1428 -91 1123 -41 
Q 819 9 494 109 
L 494 744 
Q 775 591 1075 516 
Q 1375 441 1709 441 
Q 2250 441 2565 725 
Q 2881 1009 2881 1497 
Q 2881 1984 2565 2268 
Q 2250 2553 1709 2553 
Q 1456 2553 1204 2497 
Q 953 2441 691 2322 
L 691 4666 
z
" transform="scale(0.015625)"/>
       </defs>
       <use xlink:href="#DejaVuSans-35"/>
      </g>
     </g>
    </g>
    <g id="xtick_3">
     <g id="line2d_5">
      <path d="M 149.12845 345.84351 
L 149.12845 39.318365 
" clip-path="url(#paa733905ec)" style="fill: none; stroke-dasharray: 1.85,0.8; stroke-dashoffset: 0; stroke: #ffffff; stroke-width: 0.5"/>
     </g>
     <g id="line2d_6">
      <g>
       <use xlink:href="#m8e7e3ab85e" x="149.12845" y="345.84351" style="stroke: #000000; stroke-width: 0.8"/>
      </g>
     </g>
     <g id="text_3">
      <!-- 10 -->
      <g transform="translate(142.76595 360.441947) scale(0.1 -0.1)">
       <defs>
        <path id="DejaVuSans-31" d="M 794 531 
L 1825 531 
L 1825 4091 
L 703 3866 
L 703 4441 
L 1819 4666 
L 2450 4666 
L 2450 531 
L 3481 531 
L 3481 0 
L 794 0 
L 794 531 
z
" transform="scale(0.015625)"/>
       </defs>
       <use xlink:href="#DejaVuSans-31"/>
       <use xlink:href="#DejaVuSans-30" x="63.623047"/>
      </g>
     </g>
    </g>
    <g id="xtick_4">
     <g id="line2d_7">
      <path d="M 195.566097 345.84351 
L 195.566097 39.318365 
" clip-path="url(#paa733905ec)" style="fill: none; stroke-dasharray: 1.85,0.8; stroke-dashoffset: 0; stroke: #ffffff; stroke-width: 0.5"/>
     </g>
     <g id="line2d_8">
      <g>
       <use xlink:href="#m8e7e3ab85e" x="195.566097" y="345.84351" style="stroke: #000000; stroke-width: 0.8"/>
      </g>
     </g>
     <g id="text_4">
      <!-- 15 -->
      <g transform="translate(189.203597 360.441947) scale(0.1 -0.1)">
       <use xlink:href="#DejaVuSans-31"/>
       <use xlink:href="#DejaVuSans-35" x="63.623047"/>
      </g>
     </g>
    </g>
    <g id="xtick_5">
     <g id="line2d_9">
      <path d="M 242.003745 345.84351 
L 242.003745 39.318365 
" clip-path="url(#paa733905ec)" style="fill: none; stroke-dasharray: 1.85,0.8; stroke-dashoffset: 0; stroke: #ffffff; stroke-width: 0.5"/>
     </g>
     <g id="line2d_10">
      <g>
       <use xlink:href="#m8e7e3ab85e" x="242.003745" y="345.84351" style="stroke: #000000; stroke-width: 0.8"/>
      </g>
     </g>
     <g id="text_5">
      <!-- 20 -->
      <g transform="translate(235.641245 360.441947) scale(0.1 -0.1)">
       <defs>
        <path id="DejaVuSans-32" d="M 1228 531 
L 3431 531 
L 3431 0 
L 469 0 
L 469 531 
Q 828 903 1448 1529 
Q 2069 2156 2228 2338 
Q 2531 2678 2651 2914 
Q 2772 3150 2772 3378 
Q 2772 3750 2511 3984 
Q 2250 4219 1831 4219 
Q 1534 4219 1204 4116 
Q 875 4013 500 3803 
L 500 4441 
Q 881 4594 1212 4672 
Q 1544 4750 1819 4750 
Q 2544 4750 2975 4387 
Q 3406 4025 3406 3419 
Q 3406 3131 3298 2873 
Q 3191 2616 2906 2266 
Q 2828 2175 2409 1742 
Q 1991 1309 1228 531 
z
" transform="scale(0.015625)"/>
       </defs>
       <use xlink:href="#DejaVuSans-32"/>
       <use xlink:href="#DejaVuSans-30" x="63.623047"/>
      </g>
     </g>
    </g>
    <g id="xtick_6">
     <g id="line2d_11">
      <path d="M 288.441392 345.84351 
L 288.441392 39.318365 
" clip-path="url(#paa733905ec)" style="fill: none; stroke-dasharray: 1.85,0.8; stroke-dashoffset: 0; stroke: #ffffff; stroke-width: 0.5"/>
     </g>
     <g id="line2d_12">
      <g>
       <use xlink:href="#m8e7e3ab85e" x="288.441392" y="345.84351" style="stroke: #000000; stroke-width: 0.8"/>
      </g>
     </g>
     <g id="text_6">
      <!-- 25 -->
      <g transform="translate(282.078892 360.441947) scale(0.1 -0.1)">
       <use xlink:href="#DejaVuSans-32"/>
       <use xlink:href="#DejaVuSans-35" x="63.623047"/>
      </g>
     </g>
    </g>
    <g id="xtick_7">
     <g id="line2d_13">
      <path d="M 334.87904 345.84351 
L 334.87904 39.318365 
" clip-path="url(#paa733905ec)" style="fill: none; stroke-dasharray: 1.85,0.8; stroke-dashoffset: 0; stroke: #ffffff; stroke-width: 0.5"/>
     </g>
     <g id="line2d_14">
      <g>
       <use xlink:href="#m8e7e3ab85e" x="334.87904" y="345.84351" style="stroke: #000000; stroke-width: 0.8"/>
      </g>
     </g>
     <g id="text_7">
      <!-- 30 -->
      <g transform="translate(328.51654 360.441947) scale(0.1 -0.1)">
       <defs>
        <path id="DejaVuSans-33" d="M 2597 2516 
Q 3050 2419 3304 2112 
Q 3559 1806 3559 1356 
Q 3559 666 3084 287 
Q 2609 -91 1734 -91 
Q 1441 -91 1130 -33 
Q 819 25 488 141 
L 488 750 
Q 750 597 1062 519 
Q 1375 441 1716 441 
Q 2309 441 2620 675 
Q 2931 909 2931 1356 
Q 2931 1769 2642 2001 
Q 2353 2234 1838 2234 
L 1294 2234 
L 1294 2753 
L 1863 2753 
Q 2328 2753 2575 2939 
Q 2822 3125 2822 3475 
Q 2822 3834 2567 4026 
Q 2313 4219 1838 4219 
Q 1578 4219 1281 4162 
Q 984 4106 628 3988 
L 628 4550 
Q 988 4650 1302 4700 
Q 1616 4750 1894 4750 
Q 2613 4750 3031 4423 
Q 3450 4097 3450 3541 
Q 3450 3153 3228 2886 
Q 3006 2619 2597 2516 
z
" transform="scale(0.015625)"/>
       </defs>
       <use xlink:href="#DejaVuSans-33"/>
       <use xlink:href="#DejaVuSans-30" x="63.623047"/>
      </g>
     </g>
    </g>
    <g id="xtick_8">
     <g id="line2d_15">
      <path d="M 381.316687 345.84351 
L 381.316687 39.318365 
" clip-path="url(#paa733905ec)" style="fill: none; stroke-dasharray: 1.85,0.8; stroke-dashoffset: 0; stroke: #ffffff; stroke-width: 0.5"/>
     </g>
     <g id="line2d_16">
      <g>
       <use xlink:href="#m8e7e3ab85e" x="381.316687" y="345.84351" style="stroke: #000000; stroke-width: 0.8"/>
      </g>
     </g>
     <g id="text_8">
      <!-- 35 -->
      <g transform="translate(374.954187 360.441947) scale(0.1 -0.1)">
       <use xlink:href="#DejaVuSans-33"/>
       <use xlink:href="#DejaVuSans-35" x="63.623047"/>
      </g>
     </g>
    </g>
    <g id="xtick_9">
     <g id="line2d_17">
      <path d="M 427.754335 345.84351 
L 427.754335 39.318365 
" clip-path="url(#paa733905ec)" style="fill: none; stroke-dasharray: 1.85,0.8; stroke-dashoffset: 0; stroke: #ffffff; stroke-width: 0.5"/>
     </g>
     <g id="line2d_18">
      <g>
       <use xlink:href="#m8e7e3ab85e" x="427.754335" y="345.84351" style="stroke: #000000; stroke-width: 0.8"/>
      </g>
     </g>
     <g id="text_9">
      <!-- 40 -->
      <g transform="translate(421.391835 360.441947) scale(0.1 -0.1)">
       <defs>
        <path id="DejaVuSans-34" d="M 2419 4116 
L 825 1625 
L 2419 1625 
L 2419 4116 
z
M 2253 4666 
L 3047 4666 
L 3047 1625 
L 3713 1625 
L 3713 1100 
L 3047 1100 
L 3047 0 
L 2419 0 
L 2419 1100 
L 313 1100 
L 313 1709 
L 2253 4666 
z
" transform="scale(0.015625)"/>
       </defs>
       <use xlink:href="#DejaVuSans-34"/>
       <use xlink:href="#DejaVuSans-30" x="63.623047"/>
      </g>
     </g>
    </g>
    <g id="text_10">
     <!-- Distance [m] -->
     <g transform="translate(219.067837 374.120072) scale(0.1 -0.1)">
      <defs>
       <path id="DejaVuSans-44" d="M 1259 4147 
L 1259 519 
L 2022 519 
Q 2988 519 3436 956 
Q 3884 1394 3884 2338 
Q 3884 3275 3436 3711 
Q 2988 4147 2022 4147 
L 1259 4147 
z
M 628 4666 
L 1925 4666 
Q 3281 4666 3915 4102 
Q 4550 3538 4550 2338 
Q 4550 1131 3912 565 
Q 3275 0 1925 0 
L 628 0 
L 628 4666 
z
" transform="scale(0.015625)"/>
       <path id="DejaVuSans-69" d="M 603 3500 
L 1178 3500 
L 1178 0 
L 603 0 
L 603 3500 
z
M 603 4863 
L 1178 4863 
L 1178 4134 
L 603 4134 
L 603 4863 
z
" transform="scale(0.015625)"/>
       <path id="DejaVuSans-73" d="M 2834 3397 
L 2834 2853 
Q 2591 2978 2328 3040 
Q 2066 3103 1784 3103 
Q 1356 3103 1142 2972 
Q 928 2841 928 2578 
Q 928 2378 1081 2264 
Q 1234 2150 1697 2047 
L 1894 2003 
Q 2506 1872 2764 1633 
Q 3022 1394 3022 966 
Q 3022 478 2636 193 
Q 2250 -91 1575 -91 
Q 1294 -91 989 -36 
Q 684 19 347 128 
L 347 722 
Q 666 556 975 473 
Q 1284 391 1588 391 
Q 1994 391 2212 530 
Q 2431 669 2431 922 
Q 2431 1156 2273 1281 
Q 2116 1406 1581 1522 
L 1381 1569 
Q 847 1681 609 1914 
Q 372 2147 372 2553 
Q 372 3047 722 3315 
Q 1072 3584 1716 3584 
Q 2034 3584 2315 3537 
Q 2597 3491 2834 3397 
z
" transform="scale(0.015625)"/>
       <path id="DejaVuSans-74" d="M 1172 4494 
L 1172 3500 
L 2356 3500 
L 2356 3053 
L 1172 3053 
L 1172 1153 
Q 1172 725 1289 603 
Q 1406 481 1766 481 
L 2356 481 
L 2356 0 
L 1766 0 
Q 1100 0 847 248 
Q 594 497 594 1153 
L 594 3053 
L 172 3053 
L 172 3500 
L 594 3500 
L 594 4494 
L 1172 4494 
z
" transform="scale(0.015625)"/>
       <path id="DejaVuSans-61" d="M 2194 1759 
Q 1497 1759 1228 1600 
Q 959 1441 959 1056 
Q 959 750 1161 570 
Q 1363 391 1709 391 
Q 2188 391 2477 730 
Q 2766 1069 2766 1631 
L 2766 1759 
L 2194 1759 
z
M 3341 1997 
L 3341 0 
L 2766 0 
L 2766 531 
Q 2569 213 2275 61 
Q 1981 -91 1556 -91 
Q 1019 -91 701 211 
Q 384 513 384 1019 
Q 384 1609 779 1909 
Q 1175 2209 1959 2209 
L 2766 2209 
L 2766 2266 
Q 2766 2663 2505 2880 
Q 2244 3097 1772 3097 
Q 1472 3097 1187 3025 
Q 903 2953 641 2809 
L 641 3341 
Q 956 3463 1253 3523 
Q 1550 3584 1831 3584 
Q 2591 3584 2966 3190 
Q 3341 2797 3341 1997 
z
" transform="scale(0.015625)"/>
       <path id="DejaVuSans-6e" d="M 3513 2113 
L 3513 0 
L 2938 0 
L 2938 2094 
Q 2938 2591 2744 2837 
Q 2550 3084 2163 3084 
Q 1697 3084 1428 2787 
Q 1159 2491 1159 1978 
L 1159 0 
L 581 0 
L 581 3500 
L 1159 3500 
L 1159 2956 
Q 1366 3272 1645 3428 
Q 1925 3584 2291 3584 
Q 2894 3584 3203 3211 
Q 3513 2838 3513 2113 
z
" transform="scale(0.015625)"/>
       <path id="DejaVuSans-63" d="M 3122 3366 
L 3122 2828 
Q 2878 2963 2633 3030 
Q 2388 3097 2138 3097 
Q 1578 3097 1268 2742 
Q 959 2388 959 1747 
Q 959 1106 1268 751 
Q 1578 397 2138 397 
Q 2388 397 2633 464 
Q 2878 531 3122 666 
L 3122 134 
Q 2881 22 2623 -34 
Q 2366 -91 2075 -91 
Q 1284 -91 818 406 
Q 353 903 353 1747 
Q 353 2603 823 3093 
Q 1294 3584 2113 3584 
Q 2378 3584 2631 3529 
Q 2884 3475 3122 3366 
z
" transform="scale(0.015625)"/>
       <path id="DejaVuSans-65" d="M 3597 1894 
L 3597 1613 
L 953 1613 
Q 991 1019 1311 708 
Q 1631 397 2203 397 
Q 2534 397 2845 478 
Q 3156 559 3463 722 
L 3463 178 
Q 3153 47 2828 -22 
Q 2503 -91 2169 -91 
Q 1331 -91 842 396 
Q 353 884 353 1716 
Q 353 2575 817 3079 
Q 1281 3584 2069 3584 
Q 2775 3584 3186 3129 
Q 3597 2675 3597 1894 
z
M 3022 2063 
Q 3016 2534 2758 2815 
Q 2500 3097 2075 3097 
Q 1594 3097 1305 2825 
Q 1016 2553 972 2059 
L 3022 2063 
z
" transform="scale(0.015625)"/>
       <path id="DejaVuSans-20" transform="scale(0.015625)"/>
       <path id="DejaVuSans-5b" d="M 550 4863 
L 1875 4863 
L 1875 4416 
L 1125 4416 
L 1125 -397 
L 1875 -397 
L 1875 -844 
L 550 -844 
L 550 4863 
z
" transform="scale(0.015625)"/>
       <path id="DejaVuSans-6d" d="M 3328 2828 
Q 3544 3216 3844 3400 
Q 4144 3584 4550 3584 
Q 5097 3584 5394 3201 
Q 5691 2819 5691 2113 
L 5691 0 
L 5113 0 
L 5113 2094 
Q 5113 2597 4934 2840 
Q 4756 3084 4391 3084 
Q 3944 3084 3684 2787 
Q 3425 2491 3425 1978 
L 3425 0 
L 2847 0 
L 2847 2094 
Q 2847 2600 2669 2842 
Q 2491 3084 2119 3084 
Q 1678 3084 1418 2786 
Q 1159 2488 1159 1978 
L 1159 0 
L 581 0 
L 581 3500 
L 1159 3500 
L 1159 2956 
Q 1356 3278 1631 3431 
Q 1906 3584 2284 3584 
Q 2666 3584 2933 3390 
Q 3200 3197 3328 2828 
z
" transform="scale(0.015625)"/>
       <path id="DejaVuSans-5d" d="M 1947 4863 
L 1947 -844 
L 622 -844 
L 622 -397 
L 1369 -397 
L 1369 4416 
L 622 4416 
L 622 4863 
L 1947 4863 
z
" transform="scale(0.015625)"/>
      </defs>
      <use xlink:href="#DejaVuSans-44"/>
      <use xlink:href="#DejaVuSans-69" x="77.001953"/>
      <use xlink:href="#DejaVuSans-73" x="104.785156"/>
      <use xlink:href="#DejaVuSans-74" x="156.884766"/>
      <use xlink:href="#DejaVuSans-61" x="196.09375"/>
      <use xlink:href="#DejaVuSans-6e" x="257.373047"/>
      <use xlink:href="#DejaVuSans-63" x="320.751953"/>
      <use xlink:href="#DejaVuSans-65" x="375.732422"/>
      <use xlink:href="#DejaVuSans-20" x="437.255859"/>
      <use xlink:href="#DejaVuSans-5b" x="469.042969"/>
      <use xlink:href="#DejaVuSans-6d" x="508.056641"/>
      <use xlink:href="#DejaVuSans-5d" x="605.46875"/>
     </g>
    </g>
   </g>
   <g id="matplotlib.axis_2">
    <g id="ytick_1">
     <g id="line2d_19">
      <path d="M 46.965625 345.84351 
L 455.616923 345.84351 
" clip-path="url(#paa733905ec)" style="fill: none; stroke-dasharray: 1.85,0.8; stroke-dashoffset: 0; stroke: #ffffff; stroke-width: 0.5"/>
     </g>
     <g id="line2d_20">
      <defs>
       <path id="m489fa2a628" d="M 0 0 
L -3.5 0 
" style="stroke: #000000; stroke-width: 0.8"/>
      </defs>
      <g>
       <use xlink:href="#m489fa2a628" x="46.965625" y="345.84351" style="stroke: #000000; stroke-width: 0.8"/>
      </g>
     </g>
     <g id="text_11">
      <!-- 0 -->
      <g transform="translate(33.603125 349.642729) scale(0.1 -0.1)">
       <use xlink:href="#DejaVuSans-30"/>
      </g>
     </g>
    </g>
    <g id="ytick_2">
     <g id="line2d_21">
      <path d="M 46.965625 290.399099 
L 455.616923 290.399099 
" clip-path="url(#paa733905ec)" style="fill: none; stroke-dasharray: 1.85,0.8; stroke-dashoffset: 0; stroke: #ffffff; stroke-width: 0.5"/>
     </g>
     <g id="line2d_22">
      <g>
       <use xlink:href="#m489fa2a628" x="46.965625" y="290.399099" style="stroke: #000000; stroke-width: 0.8"/>
      </g>
     </g>
     <g id="text_12">
      <!-- 20 -->
      <g transform="translate(27.240625 294.198318) scale(0.1 -0.1)">
       <use xlink:href="#DejaVuSans-32"/>
       <use xlink:href="#DejaVuSans-30" x="63.623047"/>
      </g>
     </g>
    </g>
    <g id="ytick_3">
     <g id="line2d_23">
      <path d="M 46.965625 234.954689 
L 455.616923 234.954689 
" clip-path="url(#paa733905ec)" style="fill: none; stroke-dasharray: 1.85,0.8; stroke-dashoffset: 0; stroke: #ffffff; stroke-width: 0.5"/>
     </g>
     <g id="line2d_24">
      <g>
       <use xlink:href="#m489fa2a628" x="46.965625" y="234.954689" style="stroke: #000000; stroke-width: 0.8"/>
      </g>
     </g>
     <g id="text_13">
      <!-- 40 -->
      <g transform="translate(27.240625 238.753907) scale(0.1 -0.1)">
       <use xlink:href="#DejaVuSans-34"/>
       <use xlink:href="#DejaVuSans-30" x="63.623047"/>
      </g>
     </g>
    </g>
    <g id="ytick_4">
     <g id="line2d_25">
      <path d="M 46.965625 179.510278 
L 455.616923 179.510278 
" clip-path="url(#paa733905ec)" style="fill: none; stroke-dasharray: 1.85,0.8; stroke-dashoffset: 0; stroke: #ffffff; stroke-width: 0.5"/>
     </g>
     <g id="line2d_26">
      <g>
       <use xlink:href="#m489fa2a628" x="46.965625" y="179.510278" style="stroke: #000000; stroke-width: 0.8"/>
      </g>
     </g>
     <g id="text_14">
      <!-- 60 -->
      <g transform="translate(27.240625 183.309497) scale(0.1 -0.1)">
       <defs>
        <path id="DejaVuSans-36" d="M 2113 2584 
Q 1688 2584 1439 2293 
Q 1191 2003 1191 1497 
Q 1191 994 1439 701 
Q 1688 409 2113 409 
Q 2538 409 2786 701 
Q 3034 994 3034 1497 
Q 3034 2003 2786 2293 
Q 2538 2584 2113 2584 
z
M 3366 4563 
L 3366 3988 
Q 3128 4100 2886 4159 
Q 2644 4219 2406 4219 
Q 1781 4219 1451 3797 
Q 1122 3375 1075 2522 
Q 1259 2794 1537 2939 
Q 1816 3084 2150 3084 
Q 2853 3084 3261 2657 
Q 3669 2231 3669 1497 
Q 3669 778 3244 343 
Q 2819 -91 2113 -91 
Q 1303 -91 875 529 
Q 447 1150 447 2328 
Q 447 3434 972 4092 
Q 1497 4750 2381 4750 
Q 2619 4750 2861 4703 
Q 3103 4656 3366 4563 
z
" transform="scale(0.015625)"/>
       </defs>
       <use xlink:href="#DejaVuSans-36"/>
       <use xlink:href="#DejaVuSans-30" x="63.623047"/>
      </g>
     </g>
    </g>
    <g id="ytick_5">
     <g id="line2d_27">
      <path d="M 46.965625 124.065867 
L 455.616923 124.065867 
" clip-path="url(#paa733905ec)" style="fill: none; stroke-dasharray: 1.85,0.8; stroke-dashoffset: 0; stroke: #ffffff; stroke-width: 0.5"/>
     </g>
     <g id="line2d_28">
      <g>
       <use xlink:href="#m489fa2a628" x="46.965625" y="124.065867" style="stroke: #000000; stroke-width: 0.8"/>
      </g>
     </g>
     <g id="text_15">
      <!-- 80 -->
      <g transform="translate(27.240625 127.865086) scale(0.1 -0.1)">
       <defs>
        <path id="DejaVuSans-38" d="M 2034 2216 
Q 1584 2216 1326 1975 
Q 1069 1734 1069 1313 
Q 1069 891 1326 650 
Q 1584 409 2034 409 
Q 2484 409 2743 651 
Q 3003 894 3003 1313 
Q 3003 1734 2745 1975 
Q 2488 2216 2034 2216 
z
M 1403 2484 
Q 997 2584 770 2862 
Q 544 3141 544 3541 
Q 544 4100 942 4425 
Q 1341 4750 2034 4750 
Q 2731 4750 3128 4425 
Q 3525 4100 3525 3541 
Q 3525 3141 3298 2862 
Q 3072 2584 2669 2484 
Q 3125 2378 3379 2068 
Q 3634 1759 3634 1313 
Q 3634 634 3220 271 
Q 2806 -91 2034 -91 
Q 1263 -91 848 271 
Q 434 634 434 1313 
Q 434 1759 690 2068 
Q 947 2378 1403 2484 
z
M 1172 3481 
Q 1172 3119 1398 2916 
Q 1625 2713 2034 2713 
Q 2441 2713 2670 2916 
Q 2900 3119 2900 3481 
Q 2900 3844 2670 4047 
Q 2441 4250 2034 4250 
Q 1625 4250 1398 4047 
Q 1172 3844 1172 3481 
z
" transform="scale(0.015625)"/>
       </defs>
       <use xlink:href="#DejaVuSans-38"/>
       <use xlink:href="#DejaVuSans-30" x="63.623047"/>
      </g>
     </g>
    </g>
    <g id="ytick_6">
     <g id="line2d_29">
      <path d="M 46.965625 68.621457 
L 455.616923 68.621457 
" clip-path="url(#paa733905ec)" style="fill: none; stroke-dasharray: 1.85,0.8; stroke-dashoffset: 0; stroke: #ffffff; stroke-width: 0.5"/>
     </g>
     <g id="line2d_30">
      <g>
       <use xlink:href="#m489fa2a628" x="46.965625" y="68.621457" style="stroke: #000000; stroke-width: 0.8"/>
      </g>
     </g>
     <g id="text_16">
      <!-- 100 -->
      <g transform="translate(20.878125 72.420676) scale(0.1 -0.1)">
       <use xlink:href="#DejaVuSans-31"/>
       <use xlink:href="#DejaVuSans-30" x="63.623047"/>
       <use xlink:href="#DejaVuSans-30" x="127.246094"/>
      </g>
     </g>
    </g>
    <g id="text_17">
     <!-- Total throughput [Mbps] -->
     <g transform="translate(14.798438 252.550469) rotate(-90) scale(0.1 -0.1)">
      <defs>
       <path id="DejaVuSans-54" d="M -19 4666 
L 3928 4666 
L 3928 4134 
L 2272 4134 
L 2272 0 
L 1638 0 
L 1638 4134 
L -19 4134 
L -19 4666 
z
" transform="scale(0.015625)"/>
       <path id="DejaVuSans-6f" d="M 1959 3097 
Q 1497 3097 1228 2736 
Q 959 2375 959 1747 
Q 959 1119 1226 758 
Q 1494 397 1959 397 
Q 2419 397 2687 759 
Q 2956 1122 2956 1747 
Q 2956 2369 2687 2733 
Q 2419 3097 1959 3097 
z
M 1959 3584 
Q 2709 3584 3137 3096 
Q 3566 2609 3566 1747 
Q 3566 888 3137 398 
Q 2709 -91 1959 -91 
Q 1206 -91 779 398 
Q 353 888 353 1747 
Q 353 2609 779 3096 
Q 1206 3584 1959 3584 
z
" transform="scale(0.015625)"/>
       <path id="DejaVuSans-6c" d="M 603 4863 
L 1178 4863 
L 1178 0 
L 603 0 
L 603 4863 
z
" transform="scale(0.015625)"/>
       <path id="DejaVuSans-68" d="M 3513 2113 
L 3513 0 
L 2938 0 
L 2938 2094 
Q 2938 2591 2744 2837 
Q 2550 3084 2163 3084 
Q 1697 3084 1428 2787 
Q 1159 2491 1159 1978 
L 1159 0 
L 581 0 
L 581 4863 
L 1159 4863 
L 1159 2956 
Q 1366 3272 1645 3428 
Q 1925 3584 2291 3584 
Q 2894 3584 3203 3211 
Q 3513 2838 3513 2113 
z
" transform="scale(0.015625)"/>
       <path id="DejaVuSans-72" d="M 2631 2963 
Q 2534 3019 2420 3045 
Q 2306 3072 2169 3072 
Q 1681 3072 1420 2755 
Q 1159 2438 1159 1844 
L 1159 0 
L 581 0 
L 581 3500 
L 1159 3500 
L 1159 2956 
Q 1341 3275 1631 3429 
Q 1922 3584 2338 3584 
Q 2397 3584 2469 3576 
Q 2541 3569 2628 3553 
L 2631 2963 
z
" transform="scale(0.015625)"/>
       <path id="DejaVuSans-75" d="M 544 1381 
L 544 3500 
L 1119 3500 
L 1119 1403 
Q 1119 906 1312 657 
Q 1506 409 1894 409 
Q 2359 409 2629 706 
Q 2900 1003 2900 1516 
L 2900 3500 
L 3475 3500 
L 3475 0 
L 2900 0 
L 2900 538 
Q 2691 219 2414 64 
Q 2138 -91 1772 -91 
Q 1169 -91 856 284 
Q 544 659 544 1381 
z
M 1991 3584 
L 1991 3584 
z
" transform="scale(0.015625)"/>
       <path id="DejaVuSans-67" d="M 2906 1791 
Q 2906 2416 2648 2759 
Q 2391 3103 1925 3103 
Q 1463 3103 1205 2759 
Q 947 2416 947 1791 
Q 947 1169 1205 825 
Q 1463 481 1925 481 
Q 2391 481 2648 825 
Q 2906 1169 2906 1791 
z
M 3481 434 
Q 3481 -459 3084 -895 
Q 2688 -1331 1869 -1331 
Q 1566 -1331 1297 -1286 
Q 1028 -1241 775 -1147 
L 775 -588 
Q 1028 -725 1275 -790 
Q 1522 -856 1778 -856 
Q 2344 -856 2625 -561 
Q 2906 -266 2906 331 
L 2906 616 
Q 2728 306 2450 153 
Q 2172 0 1784 0 
Q 1141 0 747 490 
Q 353 981 353 1791 
Q 353 2603 747 3093 
Q 1141 3584 1784 3584 
Q 2172 3584 2450 3431 
Q 2728 3278 2906 2969 
L 2906 3500 
L 3481 3500 
L 3481 434 
z
" transform="scale(0.015625)"/>
       <path id="DejaVuSans-70" d="M 1159 525 
L 1159 -1331 
L 581 -1331 
L 581 3500 
L 1159 3500 
L 1159 2969 
Q 1341 3281 1617 3432 
Q 1894 3584 2278 3584 
Q 2916 3584 3314 3078 
Q 3713 2572 3713 1747 
Q 3713 922 3314 415 
Q 2916 -91 2278 -91 
Q 1894 -91 1617 61 
Q 1341 213 1159 525 
z
M 3116 1747 
Q 3116 2381 2855 2742 
Q 2594 3103 2138 3103 
Q 1681 3103 1420 2742 
Q 1159 2381 1159 1747 
Q 1159 1113 1420 752 
Q 1681 391 2138 391 
Q 2594 391 2855 752 
Q 3116 1113 3116 1747 
z
" transform="scale(0.015625)"/>
       <path id="DejaVuSans-4d" d="M 628 4666 
L 1569 4666 
L 2759 1491 
L 3956 4666 
L 4897 4666 
L 4897 0 
L 4281 0 
L 4281 4097 
L 3078 897 
L 2444 897 
L 1241 4097 
L 1241 0 
L 628 0 
L 628 4666 
z
" transform="scale(0.015625)"/>
       <path id="DejaVuSans-62" d="M 3116 1747 
Q 3116 2381 2855 2742 
Q 2594 3103 2138 3103 
Q 1681 3103 1420 2742 
Q 1159 2381 1159 1747 
Q 1159 1113 1420 752 
Q 1681 391 2138 391 
Q 2594 391 2855 752 
Q 3116 1113 3116 1747 
z
M 1159 2969 
Q 1341 3281 1617 3432 
Q 1894 3584 2278 3584 
Q 2916 3584 3314 3078 
Q 3713 2572 3713 1747 
Q 3713 922 3314 415 
Q 2916 -91 2278 -91 
Q 1894 -91 1617 61 
Q 1341 213 1159 525 
L 1159 0 
L 581 0 
L 581 4863 
L 1159 4863 
L 1159 2969 
z
" transform="scale(0.015625)"/>
      </defs>
      <use xlink:href="#DejaVuSans-54"/>
      <use xlink:href="#DejaVuSans-6f" x="44.083984"/>
      <use xlink:href="#DejaVuSans-74" x="105.265625"/>
      <use xlink:href="#DejaVuSans-61" x="144.474609"/>
      <use xlink:href="#DejaVuSans-6c" x="205.753906"/>
      <use xlink:href="#DejaVuSans-20" x="233.537109"/>
      <use xlink:href="#DejaVuSans-74" x="265.324219"/>
      <use xlink:href="#DejaVuSans-68" x="304.533203"/>
      <use xlink:href="#DejaVuSans-72" x="367.912109"/>
      <use xlink:href="#DejaVuSans-6f" x="406.775391"/>
      <use xlink:href="#DejaVuSans-75" x="467.957031"/>
      <use xlink:href="#DejaVuSans-67" x="531.335938"/>
      <use xlink:href="#DejaVuSans-68" x="594.8125"/>
      <use xlink:href="#DejaVuSans-70" x="658.191406"/>
      <use xlink:href="#DejaVuSans-75" x="721.667969"/>
      <use xlink:href="#DejaVuSans-74" x="785.046875"/>
      <use xlink:href="#DejaVuSans-20" x="824.255859"/>
      <use xlink:href="#DejaVuSans-5b" x="856.042969"/>
      <use xlink:href="#DejaVuSans-4d" x="895.056641"/>
      <use xlink:href="#DejaVuSans-62" x="981.335938"/>
      <use xlink:href="#DejaVuSans-70" x="1044.8125"/>
      <use xlink:href="#DejaVuSans-73" x="1108.289062"/>
      <use xlink:href="#DejaVuSans-5d" x="1160.388672"/>
     </g>
    </g>
   </g>
   <g id="line2d_31">
    <path d="M 65.540684 192.80132 
L 84.115743 192.801505 
L 102.690802 219.263458 
L 121.265861 218.281954 
L 139.84092 216.384646 
L 158.415979 216.254814 
L 176.991038 215.877145 
L 195.566097 226.067966 
L 214.141156 233.032154 
L 232.716215 238.870774 
L 251.291274 238.607782 
L 269.866333 238.774762 
L 288.441392 239.139356 
L 307.016451 240.654605 
L 325.59151 250.562845 
L 344.166569 252.768146 
L 362.741628 267.313063 
L 381.316687 267.125754 
L 399.891746 267.196907 
L 418.466805 266.890854 
L 437.041864 267.131575 
" clip-path="url(#paa733905ec)" style="fill: none; stroke: #003f5c; stroke-width: 1.5; stroke-linecap: square"/>
   </g>
   <g id="line2d_32">
    <path d="M 65.540684 63.562154 
L 84.115743 63.562154 
L 102.690802 65.334527 
L 121.265861 65.334527 
L 139.84092 89.36067 
L 158.415979 117.294488 
L 176.991038 117.362084 
L 195.566097 118.007568 
L 214.141156 130.912143 
L 232.716215 153.129495 
L 251.291274 176.5921 
L 269.866333 176.52023 
L 288.441392 179.022367 
L 307.016451 194.687215 
L 325.59151 205.4216 
L 344.166569 215.281556 
L 362.741628 238.010369 
L 381.316687 246.019453 
L 399.891746 238.520042 
L 418.466805 246.137087 
L 437.041864 246.645882 
" clip-path="url(#paa733905ec)" style="fill: none; stroke: #7a5195; stroke-width: 1.5; stroke-linecap: square"/>
   </g>
   <g id="line2d_33">
    <path d="M 65.540684 50.226387 
L 84.115743 50.226387 
L 102.690802 52.194202 
L 121.265861 52.13922 
L 139.84092 77.464702 
L 158.415979 108.377733 
L 176.991038 108.665258 
L 195.566097 109.746471 
L 214.141156 123.027717 
L 232.716215 145.291836 
L 251.291274 169.59959 
L 269.866333 169.686453 
L 288.441392 172.44934 
L 307.016451 188.247255 
L 325.59151 199.694954 
L 344.166569 209.814576 
L 362.741628 233.513966 
L 381.316687 241.618183 
L 399.891746 240.561043 
L 418.466805 240.43888 
L 437.041864 241.125836 
" clip-path="url(#paa733905ec)" style="fill: none; stroke: #ef5675; stroke-width: 1.5; stroke-linecap: square"/>
   </g>
   <g id="line2d_34">
    <path d="M 65.540684 62.723558 
L 84.115743 62.723558 
L 102.690802 64.489924 
L 121.265861 64.557382 
L 139.84092 92.643256 
L 158.415979 117.219869 
L 176.991038 117.416327 
L 195.566097 122.14093 
L 214.141156 141.478831 
L 232.716215 164.925164 
L 251.291274 177.335471 
L 269.866333 180.487347 
L 288.441392 188.893413 
L 307.016451 204.289078 
L 325.59151 216.523026 
L 344.166569 231.919523 
L 362.741628 243.670827 
L 381.316687 224.240056 
L 399.891746 247.585203 
L 418.466805 237.668277 
L 437.041864 256.496228 
" clip-path="url(#paa733905ec)" style="fill: none; stroke: #ffa600; stroke-width: 1.5; stroke-linecap: square"/>
   </g>
   <g id="line2d_35"/>
   <g id="line2d_36"/>
   <g id="line2d_37"/>
   <g id="line2d_38"/>
   <g id="patch_3">
    <path d="M 46.965625 345.84351 
L 46.965625 39.318365 
" style="fill: none; stroke: #000000; stroke-width: 0.8; stroke-linejoin: miter; stroke-linecap: square"/>
   </g>
   <g id="patch_4">
    <path d="M 455.616923 345.84351 
L 455.616923 39.318365 
" style="fill: none; stroke: #000000; stroke-width: 0.8; stroke-linejoin: miter; stroke-linecap: square"/>
   </g>
   <g id="patch_5">
    <path d="M 46.965625 345.84351 
L 455.616923 345.84351 
" style="fill: none; stroke: #000000; stroke-width: 0.8; stroke-linejoin: miter; stroke-linecap: square"/>
   </g>
   <g id="patch_6">
    <path d="M 46.965625 39.318365 
L 455.616923 39.318365 
" style="fill: none; stroke: #000000; stroke-width: 0.8; stroke-linejoin: miter; stroke-linecap: square"/>
   </g>
   <g id="text_18">
    <!-- Flow 0 -->
    <g transform="translate(231.870962 31.318365) scale(0.12 -0.12)">
     <defs>
      <path id="DejaVuSans-46" d="M 628 4666 
L 3309 4666 
L 3309 4134 
L 1259 4134 
L 1259 2759 
L 3109 2759 
L 3109 2228 
L 1259 2228 
L 1259 0 
L 628 0 
L 628 4666 
z
" transform="scale(0.015625)"/>
      <path id="DejaVuSans-77" d="M 269 3500 
L 844 3500 
L 1563 769 
L 2278 3500 
L 2956 3500 
L 3675 769 
L 4391 3500 
L 4966 3500 
L 4050 0 
L 3372 0 
L 2619 2869 
L 1863 0 
L 1184 0 
L 269 3500 
z
" transform="scale(0.015625)"/>
     </defs>
     <use xlink:href="#DejaVuSans-46"/>
     <use xlink:href="#DejaVuSans-6c" x="57.519531"/>
     <use xlink:href="#DejaVuSans-6f" x="85.302734"/>
     <use xlink:href="#DejaVuSans-77" x="146.484375"/>
     <use xlink:href="#DejaVuSans-20" x="228.271484"/>
     <use xlink:href="#DejaVuSans-30" x="260.058594"/>
    </g>
   </g>
   <g id="legend_1">
    <g id="patch_7">
     <path d="M 402.282548 120.70899 
L 448.616923 120.70899 
Q 450.616923 120.70899 450.616923 118.70899 
L 450.616923 46.318365 
Q 450.616923 44.318365 448.616923 44.318365 
L 402.282548 44.318365 
Q 400.282548 44.318365 400.282548 46.318365 
L 400.282548 118.70899 
Q 400.282548 120.70899 402.282548 120.70899 
z
" style="fill: #ffffff; opacity: 0.8; stroke: #cccccc; stroke-linejoin: miter"/>
    </g>
    <g id="text_19">
     <!-- scenario -->
     <g transform="translate(404.282548 55.916802) scale(0.1 -0.1)">
      <use xlink:href="#DejaVuSans-73"/>
      <use xlink:href="#DejaVuSans-63" x="52.099609"/>
      <use xlink:href="#DejaVuSans-65" x="107.080078"/>
      <use xlink:href="#DejaVuSans-6e" x="168.603516"/>
      <use xlink:href="#DejaVuSans-61" x="231.982422"/>
      <use xlink:href="#DejaVuSans-72" x="293.261719"/>
      <use xlink:href="#DejaVuSans-69" x="334.375"/>
      <use xlink:href="#DejaVuSans-6f" x="362.158203"/>
     </g>
    </g>
    <g id="line2d_39">
     <path d="M 407.599736 67.094927 
L 417.599736 67.094927 
L 427.599736 67.094927 
" style="fill: none; stroke: #003f5c; stroke-width: 1.5; stroke-linecap: square"/>
    </g>
    <g id="text_20">
     <!-- A -->
     <g transform="translate(435.599736 70.594927) scale(0.1 -0.1)">
      <defs>
       <path id="DejaVuSans-41" d="M 2188 4044 
L 1331 1722 
L 3047 1722 
L 2188 4044 
z
M 1831 4666 
L 2547 4666 
L 4325 0 
L 3669 0 
L 3244 1197 
L 1141 1197 
L 716 0 
L 50 0 
L 1831 4666 
z
" transform="scale(0.015625)"/>
      </defs>
      <use xlink:href="#DejaVuSans-41"/>
     </g>
    </g>
    <g id="line2d_40">
     <path d="M 407.599736 81.773052 
L 417.599736 81.773052 
L 427.599736 81.773052 
" style="fill: none; stroke: #7a5195; stroke-width: 1.5; stroke-linecap: square"/>
    </g>
    <g id="text_21">
     <!-- C -->
     <g transform="translate(435.599736 85.273052) scale(0.1 -0.1)">
      <defs>
       <path id="DejaVuSans-43" d="M 4122 4306 
L 4122 3641 
Q 3803 3938 3442 4084 
Q 3081 4231 2675 4231 
Q 1875 4231 1450 3742 
Q 1025 3253 1025 2328 
Q 1025 1406 1450 917 
Q 1875 428 2675 428 
Q 3081 428 3442 575 
Q 3803 722 4122 1019 
L 4122 359 
Q 3791 134 3420 21 
Q 3050 -91 2638 -91 
Q 1578 -91 968 557 
Q 359 1206 359 2328 
Q 359 3453 968 4101 
Q 1578 4750 2638 4750 
Q 3056 4750 3426 4639 
Q 3797 4528 4122 4306 
z
" transform="scale(0.015625)"/>
      </defs>
      <use xlink:href="#DejaVuSans-43"/>
     </g>
    </g>
    <g id="line2d_41">
     <path d="M 407.599736 96.451177 
L 417.599736 96.451177 
L 427.599736 96.451177 
" style="fill: none; stroke: #ef5675; stroke-width: 1.5; stroke-linecap: square"/>
    </g>
    <g id="text_22">
     <!-- D -->
     <g transform="translate(435.599736 99.951177) scale(0.1 -0.1)">
      <use xlink:href="#DejaVuSans-44"/>
     </g>
    </g>
    <g id="line2d_42">
     <path d="M 407.599736 111.129302 
L 417.599736 111.129302 
L 427.599736 111.129302 
" style="fill: none; stroke: #ffa600; stroke-width: 1.5; stroke-linecap: square"/>
    </g>
    <g id="text_23">
     <!-- E -->
     <g transform="translate(435.599736 114.629302) scale(0.1 -0.1)">
      <defs>
       <path id="DejaVuSans-45" d="M 628 4666 
L 3578 4666 
L 3578 4134 
L 1259 4134 
L 1259 2753 
L 3481 2753 
L 3481 2222 
L 1259 2222 
L 1259 531 
L 3634 531 
L 3634 0 
L 628 0 
L 628 4666 
z
" transform="scale(0.015625)"/>
      </defs>
      <use xlink:href="#DejaVuSans-45"/>
     </g>
    </g>
   </g>
  </g>
  <g id="axes_2">
   <g id="patch_8">
    <path d="M 467.756923 345.84351 
L 876.408222 345.84351 
L 876.408222 39.318365 
L 467.756923 39.318365 
z
" style="fill: #ffffff"/>
   </g>
   <g id="PolyCollection_5">
    <defs>
     <path id="mbd8e04adb8" d="M 486.331982 -191.244368 
L 486.331982 -190.237867 
L 504.907041 -190.224144 
L 523.4821 -162.805035 
L 542.057159 -163.603897 
L 560.632218 -164.466129 
L 579.207277 -166.821748 
L 597.782336 -166.225836 
L 616.357395 -156.359484 
L 634.932454 -145.695675 
L 653.507513 -144.128904 
L 672.082572 -143.634893 
L 690.657632 -143.838245 
L 709.232691 -143.660368 
L 727.80775 -141.855254 
L 746.382809 -132.460078 
L 764.957868 -128.974889 
L 783.532927 -117.046624 
L 802.107986 -116.516853 
L 820.683045 -117.247888 
L 839.258104 -117.734967 
L 857.833163 -115.860668 
L 857.833163 -117.027496 
L 857.833163 -117.027496 
L 839.258104 -118.314915 
L 820.683045 -118.739065 
L 802.107986 -118.904567 
L 783.532927 -118.094524 
L 764.957868 -130.937852 
L 746.382809 -134.474402 
L 727.80775 -143.639427 
L 709.232691 -145.241245 
L 690.657632 -145.151006 
L 672.082572 -145.012425 
L 653.507513 -145.816267 
L 634.932454 -151.410331 
L 616.357395 -161.859662 
L 597.782336 -169.428378 
L 579.207277 -170.71723 
L 560.632218 -170.76907 
L 542.057159 -165.883771 
L 523.4821 -166.694229 
L 504.907041 -191.24435 
L 486.331982 -191.244368 
z
" style="stroke: #003f5c; stroke-opacity: 0.2"/>
    </defs>
    <g clip-path="url(#p0572247478)">
     <use xlink:href="#mbd8e04adb8" x="0" y="383.39976" style="fill: #003f5c; fill-opacity: 0.2; stroke: #003f5c; stroke-opacity: 0.2"/>
    </g>
   </g>
   <g id="PolyCollection_6">
    <defs>
     <path id="mf8b1d8ec08" d="M 486.331982 -317.660962 
L 486.331982 -317.324126 
L 504.907041 -317.329659 
L 523.4821 -311.331001 
L 542.057159 -311.370459 
L 560.632218 -311.279484 
L 579.207277 -313.214067 
L 597.782336 -313.065363 
L 616.357395 -286.314952 
L 634.932454 -273.934457 
L 653.507513 -259.033051 
L 672.082572 -259.080304 
L 690.657632 -259.238597 
L 709.232691 -258.80627 
L 727.80775 -255.981862 
L 746.382809 -234.891016 
L 764.957868 -227.605136 
L 783.532927 -201.076787 
L 802.107986 -200.872474 
L 820.683045 -200.394266 
L 839.258104 -201.435235 
L 857.833163 -200.230705 
L 857.833163 -200.524283 
L 857.833163 -200.524283 
L 839.258104 -202.197041 
L 820.683045 -202.110825 
L 802.107986 -201.639271 
L 783.532927 -201.299396 
L 764.957868 -228.214192 
L 746.382809 -235.035241 
L 727.80775 -256.1667 
L 709.232691 -259.084462 
L 690.657632 -259.377416 
L 672.082572 -259.500919 
L 653.507513 -259.496511 
L 634.932454 -274.071405 
L 616.357395 -286.786804 
L 597.782336 -313.290231 
L 579.207277 -313.520854 
L 560.632218 -311.557214 
L 542.057159 -311.697279 
L 523.4821 -311.715184 
L 504.907041 -317.683128 
L 486.331982 -317.660962 
z
" style="stroke: #7a5195; stroke-opacity: 0.2"/>
    </defs>
    <g clip-path="url(#p0572247478)">
     <use xlink:href="#mf8b1d8ec08" x="0" y="383.39976" style="fill: #7a5195; fill-opacity: 0.2; stroke: #7a5195; stroke-opacity: 0.2"/>
    </g>
   </g>
   <g id="PolyCollection_7">
    <defs>
     <path id="m94c245f31a" d="M 486.331982 -319.777541 
L 486.331982 -319.692988 
L 504.907041 -319.695298 
L 523.4821 -318.610898 
L 542.057159 -318.482452 
L 560.632218 -318.779992 
L 579.207277 -311.216379 
L 597.782336 -311.054564 
L 616.357395 -285.594583 
L 634.932454 -273.517611 
L 653.507513 -263.559922 
L 672.082572 -262.650316 
L 690.657632 -262.813907 
L 709.232691 -262.507577 
L 727.80775 -259.00945 
L 746.382809 -238.762292 
L 764.957868 -231.692451 
L 783.532927 -206.19292 
L 802.107986 -199.606401 
L 820.683045 -201.678082 
L 839.258104 -201.558044 
L 857.833163 -200.630737 
L 857.833163 -201.478205 
L 857.833163 -201.478205 
L 839.258104 -202.509193 
L 820.683045 -201.997996 
L 802.107986 -200.566698 
L 783.532927 -206.261948 
L 764.957868 -232.121212 
L 746.382809 -239.124717 
L 727.80775 -259.342486 
L 709.232691 -263.158592 
L 690.657632 -263.208117 
L 672.082572 -263.311706 
L 653.507513 -263.910095 
L 634.932454 -274.019176 
L 616.357395 -286.152908 
L 597.782336 -311.657938 
L 579.207277 -311.815391 
L 560.632218 -319.01518 
L 542.057159 -318.981313 
L 523.4821 -319.001793 
L 504.907041 -319.779389 
L 486.331982 -319.777541 
z
" style="stroke: #ef5675; stroke-opacity: 0.2"/>
    </defs>
    <g clip-path="url(#p0572247478)">
     <use xlink:href="#m94c245f31a" x="0" y="383.39976" style="fill: #ef5675; fill-opacity: 0.2; stroke: #ef5675; stroke-opacity: 0.2"/>
    </g>
   </g>
   <g id="PolyCollection_8">
    <path d="M 486.331982 66.675358 
L 486.331982 66.746061 
L 504.907041 66.745137 
L 523.4821 72.917527 
L 542.057159 72.983988 
L 560.632218 72.48528 
L 579.207277 70.940087 
L 597.782336 70.93432 
L 616.357395 97.714525 
L 634.932454 110.019858 
L 653.507513 125.172538 
L 672.082572 124.898365 
L 690.657632 125.408177 
L 709.232691 125.112103 
L 727.80775 128.165704 
L 746.382809 149.102623 
L 764.957868 155.786446 
L 764.957868 155.666132 
L 764.957868 155.666132 
L 746.382809 148.971774 
L 727.80775 128.145744 
L 709.232691 124.86898 
L 690.657632 124.946047 
L 672.082572 124.644984 
L 653.507513 124.631123 
L 634.932454 109.959423 
L 616.357395 97.572865 
L 597.782336 70.864183 
L 579.207277 70.578312 
L 560.632218 71.970623 
L 542.057159 72.544934 
L 523.4821 72.606755 
L 504.907041 66.67485 
L 486.331982 66.675358 
z
" clip-path="url(#p0572247478)" style="fill: #ffa600; fill-opacity: 0.2; stroke: #ffa600; stroke-opacity: 0.2"/>
    <path d="M 820.683045 181.990307 
L 820.683045 182.068483 
L 839.258104 182.531444 
L 857.833163 183.760369 
L 857.833163 183.479266 
L 857.833163 183.479266 
L 839.258104 181.985871 
L 820.683045 181.990307 
z
" clip-path="url(#p0572247478)" style="fill: #ffa600; fill-opacity: 0.2; stroke: #ffa600; stroke-opacity: 0.2"/>
   </g>
   <g id="matplotlib.axis_3">
    <g id="xtick_10">
     <g id="line2d_43">
      <path d="M 477.044453 345.84351 
L 477.044453 39.318365 
" clip-path="url(#p0572247478)" style="fill: none; stroke-dasharray: 1.85,0.8; stroke-dashoffset: 0; stroke: #ffffff; stroke-width: 0.5"/>
     </g>
     <g id="line2d_44">
      <g>
       <use xlink:href="#m8e7e3ab85e" x="477.044453" y="345.84351" style="stroke: #000000; stroke-width: 0.8"/>
      </g>
     </g>
     <g id="text_24">
      <!-- 0 -->
      <g transform="translate(473.863203 360.441947) scale(0.1 -0.1)">
       <use xlink:href="#DejaVuSans-30"/>
      </g>
     </g>
    </g>
    <g id="xtick_11">
     <g id="line2d_45">
      <path d="M 523.4821 345.84351 
L 523.4821 39.318365 
" clip-path="url(#p0572247478)" style="fill: none; stroke-dasharray: 1.85,0.8; stroke-dashoffset: 0; stroke: #ffffff; stroke-width: 0.5"/>
     </g>
     <g id="line2d_46">
      <g>
       <use xlink:href="#m8e7e3ab85e" x="523.4821" y="345.84351" style="stroke: #000000; stroke-width: 0.8"/>
      </g>
     </g>
     <g id="text_25">
      <!-- 5 -->
      <g transform="translate(520.30085 360.441947) scale(0.1 -0.1)">
       <use xlink:href="#DejaVuSans-35"/>
      </g>
     </g>
    </g>
    <g id="xtick_12">
     <g id="line2d_47">
      <path d="M 569.919748 345.84351 
L 569.919748 39.318365 
" clip-path="url(#p0572247478)" style="fill: none; stroke-dasharray: 1.85,0.8; stroke-dashoffset: 0; stroke: #ffffff; stroke-width: 0.5"/>
     </g>
     <g id="line2d_48">
      <g>
       <use xlink:href="#m8e7e3ab85e" x="569.919748" y="345.84351" style="stroke: #000000; stroke-width: 0.8"/>
      </g>
     </g>
     <g id="text_26">
      <!-- 10 -->
      <g transform="translate(563.557248 360.441947) scale(0.1 -0.1)">
       <use xlink:href="#DejaVuSans-31"/>
       <use xlink:href="#DejaVuSans-30" x="63.623047"/>
      </g>
     </g>
    </g>
    <g id="xtick_13">
     <g id="line2d_49">
      <path d="M 616.357395 345.84351 
L 616.357395 39.318365 
" clip-path="url(#p0572247478)" style="fill: none; stroke-dasharray: 1.85,0.8; stroke-dashoffset: 0; stroke: #ffffff; stroke-width: 0.5"/>
     </g>
     <g id="line2d_50">
      <g>
       <use xlink:href="#m8e7e3ab85e" x="616.357395" y="345.84351" style="stroke: #000000; stroke-width: 0.8"/>
      </g>
     </g>
     <g id="text_27">
      <!-- 15 -->
      <g transform="translate(609.994895 360.441947) scale(0.1 -0.1)">
       <use xlink:href="#DejaVuSans-31"/>
       <use xlink:href="#DejaVuSans-35" x="63.623047"/>
      </g>
     </g>
    </g>
    <g id="xtick_14">
     <g id="line2d_51">
      <path d="M 662.795043 345.84351 
L 662.795043 39.318365 
" clip-path="url(#p0572247478)" style="fill: none; stroke-dasharray: 1.85,0.8; stroke-dashoffset: 0; stroke: #ffffff; stroke-width: 0.5"/>
     </g>
     <g id="line2d_52">
      <g>
       <use xlink:href="#m8e7e3ab85e" x="662.795043" y="345.84351" style="stroke: #000000; stroke-width: 0.8"/>
      </g>
     </g>
     <g id="text_28">
      <!-- 20 -->
      <g transform="translate(656.432543 360.441947) scale(0.1 -0.1)">
       <use xlink:href="#DejaVuSans-32"/>
       <use xlink:href="#DejaVuSans-30" x="63.623047"/>
      </g>
     </g>
    </g>
    <g id="xtick_15">
     <g id="line2d_53">
      <path d="M 709.232691 345.84351 
L 709.232691 39.318365 
" clip-path="url(#p0572247478)" style="fill: none; stroke-dasharray: 1.85,0.8; stroke-dashoffset: 0; stroke: #ffffff; stroke-width: 0.5"/>
     </g>
     <g id="line2d_54">
      <g>
       <use xlink:href="#m8e7e3ab85e" x="709.232691" y="345.84351" style="stroke: #000000; stroke-width: 0.8"/>
      </g>
     </g>
     <g id="text_29">
      <!-- 25 -->
      <g transform="translate(702.870191 360.441947) scale(0.1 -0.1)">
       <use xlink:href="#DejaVuSans-32"/>
       <use xlink:href="#DejaVuSans-35" x="63.623047"/>
      </g>
     </g>
    </g>
    <g id="xtick_16">
     <g id="line2d_55">
      <path d="M 755.670338 345.84351 
L 755.670338 39.318365 
" clip-path="url(#p0572247478)" style="fill: none; stroke-dasharray: 1.85,0.8; stroke-dashoffset: 0; stroke: #ffffff; stroke-width: 0.5"/>
     </g>
     <g id="line2d_56">
      <g>
       <use xlink:href="#m8e7e3ab85e" x="755.670338" y="345.84351" style="stroke: #000000; stroke-width: 0.8"/>
      </g>
     </g>
     <g id="text_30">
      <!-- 30 -->
      <g transform="translate(749.307838 360.441947) scale(0.1 -0.1)">
       <use xlink:href="#DejaVuSans-33"/>
       <use xlink:href="#DejaVuSans-30" x="63.623047"/>
      </g>
     </g>
    </g>
    <g id="xtick_17">
     <g id="line2d_57">
      <path d="M 802.107986 345.84351 
L 802.107986 39.318365 
" clip-path="url(#p0572247478)" style="fill: none; stroke-dasharray: 1.85,0.8; stroke-dashoffset: 0; stroke: #ffffff; stroke-width: 0.5"/>
     </g>
     <g id="line2d_58">
      <g>
       <use xlink:href="#m8e7e3ab85e" x="802.107986" y="345.84351" style="stroke: #000000; stroke-width: 0.8"/>
      </g>
     </g>
     <g id="text_31">
      <!-- 35 -->
      <g transform="translate(795.745486 360.441947) scale(0.1 -0.1)">
       <use xlink:href="#DejaVuSans-33"/>
       <use xlink:href="#DejaVuSans-35" x="63.623047"/>
      </g>
     </g>
    </g>
    <g id="xtick_18">
     <g id="line2d_59">
      <path d="M 848.545633 345.84351 
L 848.545633 39.318365 
" clip-path="url(#p0572247478)" style="fill: none; stroke-dasharray: 1.85,0.8; stroke-dashoffset: 0; stroke: #ffffff; stroke-width: 0.5"/>
     </g>
     <g id="line2d_60">
      <g>
       <use xlink:href="#m8e7e3ab85e" x="848.545633" y="345.84351" style="stroke: #000000; stroke-width: 0.8"/>
      </g>
     </g>
     <g id="text_32">
      <!-- 40 -->
      <g transform="translate(842.183133 360.441947) scale(0.1 -0.1)">
       <use xlink:href="#DejaVuSans-34"/>
       <use xlink:href="#DejaVuSans-30" x="63.623047"/>
      </g>
     </g>
    </g>
    <g id="text_33">
     <!-- Distance [m] -->
     <g transform="translate(639.859135 374.120072) scale(0.1 -0.1)">
      <use xlink:href="#DejaVuSans-44"/>
      <use xlink:href="#DejaVuSans-69" x="77.001953"/>
      <use xlink:href="#DejaVuSans-73" x="104.785156"/>
      <use xlink:href="#DejaVuSans-74" x="156.884766"/>
      <use xlink:href="#DejaVuSans-61" x="196.09375"/>
      <use xlink:href="#DejaVuSans-6e" x="257.373047"/>
      <use xlink:href="#DejaVuSans-63" x="320.751953"/>
      <use xlink:href="#DejaVuSans-65" x="375.732422"/>
      <use xlink:href="#DejaVuSans-20" x="437.255859"/>
      <use xlink:href="#DejaVuSans-5b" x="469.042969"/>
      <use xlink:href="#DejaVuSans-6d" x="508.056641"/>
      <use xlink:href="#DejaVuSans-5d" x="605.46875"/>
     </g>
    </g>
   </g>
   <g id="matplotlib.axis_4">
    <g id="ytick_7">
     <g id="line2d_61">
      <path d="M 467.756923 345.84351 
L 876.408222 345.84351 
" clip-path="url(#p0572247478)" style="fill: none; stroke-dasharray: 1.85,0.8; stroke-dashoffset: 0; stroke: #ffffff; stroke-width: 0.5"/>
     </g>
     <g id="line2d_62">
      <g>
       <use xlink:href="#m489fa2a628" x="467.756923" y="345.84351" style="stroke: #000000; stroke-width: 0.8"/>
      </g>
     </g>
    </g>
    <g id="ytick_8">
     <g id="line2d_63">
      <path d="M 467.756923 290.399099 
L 876.408222 290.399099 
" clip-path="url(#p0572247478)" style="fill: none; stroke-dasharray: 1.85,0.8; stroke-dashoffset: 0; stroke: #ffffff; stroke-width: 0.5"/>
     </g>
     <g id="line2d_64">
      <g>
       <use xlink:href="#m489fa2a628" x="467.756923" y="290.399099" style="stroke: #000000; stroke-width: 0.8"/>
      </g>
     </g>
    </g>
    <g id="ytick_9">
     <g id="line2d_65">
      <path d="M 467.756923 234.954689 
L 876.408222 234.954689 
" clip-path="url(#p0572247478)" style="fill: none; stroke-dasharray: 1.85,0.8; stroke-dashoffset: 0; stroke: #ffffff; stroke-width: 0.5"/>
     </g>
     <g id="line2d_66">
      <g>
       <use xlink:href="#m489fa2a628" x="467.756923" y="234.954689" style="stroke: #000000; stroke-width: 0.8"/>
      </g>
     </g>
    </g>
    <g id="ytick_10">
     <g id="line2d_67">
      <path d="M 467.756923 179.510278 
L 876.408222 179.510278 
" clip-path="url(#p0572247478)" style="fill: none; stroke-dasharray: 1.85,0.8; stroke-dashoffset: 0; stroke: #ffffff; stroke-width: 0.5"/>
     </g>
     <g id="line2d_68">
      <g>
       <use xlink:href="#m489fa2a628" x="467.756923" y="179.510278" style="stroke: #000000; stroke-width: 0.8"/>
      </g>
     </g>
    </g>
    <g id="ytick_11">
     <g id="line2d_69">
      <path d="M 467.756923 124.065867 
L 876.408222 124.065867 
" clip-path="url(#p0572247478)" style="fill: none; stroke-dasharray: 1.85,0.8; stroke-dashoffset: 0; stroke: #ffffff; stroke-width: 0.5"/>
     </g>
     <g id="line2d_70">
      <g>
       <use xlink:href="#m489fa2a628" x="467.756923" y="124.065867" style="stroke: #000000; stroke-width: 0.8"/>
      </g>
     </g>
    </g>
    <g id="ytick_12">
     <g id="line2d_71">
      <path d="M 467.756923 68.621457 
L 876.408222 68.621457 
" clip-path="url(#p0572247478)" style="fill: none; stroke-dasharray: 1.85,0.8; stroke-dashoffset: 0; stroke: #ffffff; stroke-width: 0.5"/>
     </g>
     <g id="line2d_72">
      <g>
       <use xlink:href="#m489fa2a628" x="467.756923" y="68.621457" style="stroke: #000000; stroke-width: 0.8"/>
      </g>
     </g>
    </g>
   </g>
   <g id="line2d_73">
    <path d="M 486.331982 192.655409 
L 504.907041 192.655547 
L 523.4821 218.682078 
L 542.057159 218.660685 
L 560.632218 215.727491 
L 579.207277 214.698997 
L 597.782336 215.62247 
L 616.357395 224.435729 
L 634.932454 234.846757 
L 653.507513 238.350844 
L 672.082572 239.061733 
L 690.657632 238.88445 
L 709.232691 238.876734 
L 727.80775 240.698175 
L 746.382809 249.880047 
L 764.957868 253.359415 
L 783.532927 265.69039 
L 802.107986 265.490328 
L 820.683045 265.363268 
L 839.258104 265.414554 
L 857.833163 266.856016 
" clip-path="url(#p0572247478)" style="fill: none; stroke: #003f5c; stroke-width: 1.5; stroke-linecap: square"/>
   </g>
   <g id="line2d_74">
    <path d="M 486.331982 65.897288 
L 504.907041 65.897288 
L 523.4821 71.854744 
L 542.057159 71.855298 
L 560.632218 71.983467 
L 579.207277 70.027666 
L 597.782336 70.212046 
L 616.357395 96.832016 
L 634.932454 109.385574 
L 653.507513 124.14981 
L 672.082572 124.108352 
L 690.657632 124.105857 
L 709.232691 124.452176 
L 727.80775 127.331474 
L 746.382809 148.420864 
L 764.957868 155.445741 
L 783.532927 182.211668 
L 802.107986 182.143888 
L 820.683045 182.024405 
L 839.258104 181.659765 
L 857.833163 182.982115 
" clip-path="url(#p0572247478)" style="fill: none; stroke: #7a5195; stroke-width: 1.5; stroke-linecap: square"/>
   </g>
   <g id="line2d_75">
    <path d="M 486.331982 63.662416 
L 504.907041 63.662416 
L 523.4821 64.602661 
L 542.057159 64.673815 
L 560.632218 64.494545 
L 579.207277 71.855899 
L 597.782336 72.034522 
L 616.357395 97.535532 
L 634.932454 109.623569 
L 653.507513 119.662842 
L 672.082572 120.474594 
L 690.657632 120.393969 
L 709.232691 120.584698 
L 727.80775 124.235343 
L 746.382809 144.450005 
L 764.957868 151.497544 
L 783.532927 177.161745 
L 802.107986 183.429921 
L 820.683045 181.609034 
L 839.258104 181.24347 
L 857.833163 182.249324 
" clip-path="url(#p0572247478)" style="fill: none; stroke: #ef5675; stroke-width: 1.5; stroke-linecap: square"/>
   </g>
   <g id="line2d_76">
    <path d="M 486.331982 66.709549 
L 504.907041 66.709549 
L 523.4821 72.774474 
L 542.057159 72.731412 
L 560.632218 72.224419 
L 579.207277 70.778023 
L 597.782336 70.898651 
L 616.357395 97.643187 
L 634.932454 109.998974 
L 653.507513 124.892544 
L 672.082572 124.771675 
L 690.657632 125.177112 
L 709.232691 124.990542 
L 727.80775 128.155724 
L 746.382809 149.037198 
L 764.957868 155.726289 
L 783.532927 182.403645 
L 802.107986 188.106934 
L 820.683045 182.029395 
L 839.258104 182.258658 
L 857.833163 183.619818 
" clip-path="url(#p0572247478)" style="fill: none; stroke: #ffa600; stroke-width: 1.5; stroke-linecap: square"/>
   </g>
   <g id="line2d_77"/>
   <g id="line2d_78"/>
   <g id="line2d_79"/>
   <g id="line2d_80"/>
   <g id="patch_9">
    <path d="M 467.756923 345.84351 
L 467.756923 39.318365 
" style="fill: none; stroke: #000000; stroke-width: 0.8; stroke-linejoin: miter; stroke-linecap: square"/>
   </g>
   <g id="patch_10">
    <path d="M 876.408222 345.84351 
L 876.408222 39.318365 
" style="fill: none; stroke: #000000; stroke-width: 0.8; stroke-linejoin: miter; stroke-linecap: square"/>
   </g>
   <g id="patch_11">
    <path d="M 467.756923 345.84351 
L 876.408222 345.84351 
" style="fill: none; stroke: #000000; stroke-width: 0.8; stroke-linejoin: miter; stroke-linecap: square"/>
   </g>
   <g id="patch_12">
    <path d="M 467.756923 39.318365 
L 876.408222 39.318365 
" style="fill: none; stroke: #000000; stroke-width: 0.8; stroke-linejoin: miter; stroke-linecap: square"/>
   </g>
   <g id="text_34">
    <!-- Flow 1 -->
    <g transform="translate(652.66226 31.318365) scale(0.12 -0.12)">
     <use xlink:href="#DejaVuSans-46"/>
     <use xlink:href="#DejaVuSans-6c" x="57.519531"/>
     <use xlink:href="#DejaVuSans-6f" x="85.302734"/>
     <use xlink:href="#DejaVuSans-77" x="146.484375"/>
     <use xlink:href="#DejaVuSans-20" x="228.271484"/>
     <use xlink:href="#DejaVuSans-31" x="260.058594"/>
    </g>
   </g>
   <g id="legend_2">
    <g id="patch_13">
     <path d="M 823.073847 120.70899 
L 869.408222 120.70899 
Q 871.408222 120.70899 871.408222 118.70899 
L 871.408222 46.318365 
Q 871.408222 44.318365 869.408222 44.318365 
L 823.073847 44.318365 
Q 821.073847 44.318365 821.073847 46.318365 
L 821.073847 118.70899 
Q 821.073847 120.70899 823.073847 120.70899 
z
" style="fill: #ffffff; opacity: 0.8; stroke: #cccccc; stroke-linejoin: miter"/>
    </g>
    <g id="text_35">
     <!-- scenario -->
     <g transform="translate(825.073847 55.916802) scale(0.1 -0.1)">
      <use xlink:href="#DejaVuSans-73"/>
      <use xlink:href="#DejaVuSans-63" x="52.099609"/>
      <use xlink:href="#DejaVuSans-65" x="107.080078"/>
      <use xlink:href="#DejaVuSans-6e" x="168.603516"/>
      <use xlink:href="#DejaVuSans-61" x="231.982422"/>
      <use xlink:href="#DejaVuSans-72" x="293.261719"/>
      <use xlink:href="#DejaVuSans-69" x="334.375"/>
      <use xlink:href="#DejaVuSans-6f" x="362.158203"/>
     </g>
    </g>
    <g id="line2d_81">
     <path d="M 828.391034 67.094927 
L 838.391034 67.094927 
L 848.391034 67.094927 
" style="fill: none; stroke: #003f5c; stroke-width: 1.5; stroke-linecap: square"/>
    </g>
    <g id="text_36">
     <!-- A -->
     <g transform="translate(856.391034 70.594927) scale(0.1 -0.1)">
      <use xlink:href="#DejaVuSans-41"/>
     </g>
    </g>
    <g id="line2d_82">
     <path d="M 828.391034 81.773052 
L 838.391034 81.773052 
L 848.391034 81.773052 
" style="fill: none; stroke: #7a5195; stroke-width: 1.5; stroke-linecap: square"/>
    </g>
    <g id="text_37">
     <!-- C -->
     <g transform="translate(856.391034 85.273052) scale(0.1 -0.1)">
      <use xlink:href="#DejaVuSans-43"/>
     </g>
    </g>
    <g id="line2d_83">
     <path d="M 828.391034 96.451177 
L 838.391034 96.451177 
L 848.391034 96.451177 
" style="fill: none; stroke: #ef5675; stroke-width: 1.5; stroke-linecap: square"/>
    </g>
    <g id="text_38">
     <!-- D -->
     <g transform="translate(856.391034 99.951177) scale(0.1 -0.1)">
      <use xlink:href="#DejaVuSans-44"/>
     </g>
    </g>
    <g id="line2d_84">
     <path d="M 828.391034 111.129302 
L 838.391034 111.129302 
L 848.391034 111.129302 
" style="fill: none; stroke: #ffa600; stroke-width: 1.5; stroke-linecap: square"/>
    </g>
    <g id="text_39">
     <!-- E -->
     <g transform="translate(856.391034 114.629302) scale(0.1 -0.1)">
      <use xlink:href="#DejaVuSans-45"/>
     </g>
    </g>
   </g>
  </g>
  <g id="axes_3">
   <g id="patch_14">
    <path d="M 888.548222 345.84351 
L 1297.19952 345.84351 
L 1297.19952 39.318365 
L 888.548222 39.318365 
z
" style="fill: #ffffff"/>
   </g>
   <g id="PolyCollection_9">
    <defs>
     <path id="m758f64d6f1" d="M 907.123281 -191.161886 
L 907.123281 -190.241874 
L 925.69834 -190.251299 
L 944.273399 -163.179844 
L 962.848458 -164.103893 
L 981.423517 -165.317672 
L 999.998576 -166.68466 
L 1018.573635 -166.531887 
L 1037.148694 -155.957661 
L 1055.723753 -147.227811 
L 1074.298812 -143.960887 
L 1092.873871 -144.06492 
L 1111.44893 -143.995941 
L 1130.023989 -143.784703 
L 1148.599048 -142.047568 
L 1167.174107 -132.540546 
L 1185.749166 -129.689276 
L 1204.324225 -116.100119 
L 1222.899284 -116.274006 
L 1241.474343 -116.216714 
L 1260.049402 -116.689692 
L 1278.624461 -116.00666 
L 1278.624461 -116.814543 
L 1278.624461 -116.814543 
L 1260.049402 -117.878383 
L 1241.474343 -117.942685 
L 1222.899284 -117.983681 
L 1204.324225 -117.684866 
L 1185.749166 -130.99987 
L 1167.174107 -133.845108 
L 1148.599048 -143.481163 
L 1130.023989 -144.931985 
L 1111.44893 -145.100227 
L 1092.873871 -145.064946 
L 1074.298812 -145.573584 
L 1055.723753 -151.764111 
L 1037.148694 -160.351556 
L 1018.573635 -168.662107 
L 999.998576 -169.187306 
L 981.423517 -169.482193 
L 962.848458 -165.795721 
L 944.273399 -165.670173 
L 925.69834 -191.167186 
L 907.123281 -191.161886 
z
" style="stroke: #003f5c; stroke-opacity: 0.2"/>
    </defs>
    <g clip-path="url(#p4d47ca9266)">
     <use xlink:href="#m758f64d6f1" x="0" y="383.39976" style="fill: #003f5c; fill-opacity: 0.2; stroke: #003f5c; stroke-opacity: 0.2"/>
    </g>
   </g>
   <g id="PolyCollection_10">
    <defs>
     <path id="md3d3a3a017" d="M 907.123281 -319.296878 
L 907.123281 -318.062622 
L 925.69834 -318.033699 
L 944.273399 -313.134949 
L 962.848458 -313.109989 
L 981.423517 -297.000748 
L 999.998576 -277.887116 
L 1018.573635 -275.45537 
L 1037.148694 -269.591102 
L 1055.723753 -256.760651 
L 1074.298812 -236.012589 
L 1092.873871 -213.434417 
L 1111.44893 -213.459717 
L 1130.023989 -217.903019 
L 1148.599048 -197.169951 
L 1167.174107 -185.12692 
L 1185.749166 -175.677797 
L 1204.324225 -145.389391 
L 1222.899284 -137.380307 
L 1241.474343 -148.13389 
L 1260.049402 -147.933645 
L 1278.624461 -147.276164 
L 1278.624461 -189.850928 
L 1278.624461 -189.850928 
L 1260.049402 -191.14895 
L 1241.474343 -194.576808 
L 1222.899284 -201.255872 
L 1204.324225 -201.188092 
L 1185.749166 -220.350181 
L 1167.174107 -227.825743 
L 1148.599048 -247.615832 
L 1130.023989 -252.071273 
L 1111.44893 -252.744749 
L 1092.873871 -252.6515 
L 1074.298812 -253.492492 
L 1055.723753 -269.726548 
L 1037.148694 -282.368191 
L 1018.573635 -303.767903 
L 999.998576 -301.590948 
L 981.423517 -307.10077 
L 962.848458 -316.496631 
L 944.273399 -316.481542 
L 925.69834 -319.270767 
L 907.123281 -319.296878 
z
" style="stroke: #7a5195; stroke-opacity: 0.2"/>
    </defs>
    <g clip-path="url(#p4d47ca9266)">
     <use xlink:href="#md3d3a3a017" x="0" y="383.39976" style="fill: #7a5195; fill-opacity: 0.2; stroke: #7a5195; stroke-opacity: 0.2"/>
    </g>
   </g>
   <g id="PolyCollection_11">
    <defs>
     <path id="m5605aa8768" d="M 907.123281 -329.820678 
L 907.123281 -323.071389 
L 925.69834 -323.093042 
L 944.273399 -321.826431 
L 962.848458 -321.771564 
L 981.423517 -309.113439 
L 999.998576 -284.037225 
L 1018.573635 -283.877765 
L 1037.148694 -276.525099 
L 1055.723753 -263.610053 
L 1074.298812 -244.419671 
L 1092.873871 -225.940029 
L 1111.44893 -222.083739 
L 1130.023989 -223.81945 
L 1148.599048 -211.055161 
L 1167.174107 -197.41977 
L 1185.749166 -188.064872 
L 1204.324225 -159.170372 
L 1222.899284 -151.23075 
L 1241.474343 -152.59755 
L 1260.049402 -152.568148 
L 1278.624461 -151.917139 
L 1278.624461 -191.582867 
L 1278.624461 -191.582867 
L 1260.049402 -192.507069 
L 1241.474343 -192.018135 
L 1222.899284 -190.565543 
L 1204.324225 -196.916377 
L 1185.749166 -217.446337 
L 1167.174107 -225.250052 
L 1148.599048 -243.23344 
L 1130.023989 -249.957242 
L 1111.44893 -254.63677 
L 1092.873871 -250.747683 
L 1074.298812 -257.385142 
L 1055.723753 -270.56663 
L 1037.148694 -282.858854 
L 1018.573635 -302.395545 
L 999.998576 -305.198772 
L 981.423517 -315.700781 
L 962.848458 -328.156878 
L 944.273399 -328.171611 
L 925.69834 -329.82315 
L 907.123281 -329.820678 
z
" style="stroke: #ef5675; stroke-opacity: 0.2"/>
    </defs>
    <g clip-path="url(#p4d47ca9266)">
     <use xlink:href="#m5605aa8768" x="0" y="383.39976" style="fill: #ef5675; fill-opacity: 0.2; stroke: #ef5675; stroke-opacity: 0.2"/>
    </g>
   </g>
   <g id="PolyCollection_12">
    <defs>
     <path id="mf93c26a2e4" d="M 907.123281 -319.689823 
L 907.123281 -317.673657 
L 925.69834 -317.370774 
L 944.273399 -312.663868 
L 962.848458 -312.647173 
L 981.423517 -295.776742 
L 999.998576 -275.427929 
L 1018.573635 -273.598153 
L 1037.148694 -265.092556 
L 1055.723753 -247.130846 
L 1074.298812 -225.089623 
L 1092.873871 -206.064289 
L 1111.44893 -202.912413 
L 1130.023989 -194.506347 
L 1148.599048 -179.110682 
L 1167.174107 -166.876734 
L 1185.749166 -151.480237 
L 1204.324225 -139.728933 
L 1222.899284 -159.159704 
L 1241.474343 -135.814557 
L 1260.049402 -145.731483 
L 1278.624461 -126.903532 
L 1278.624461 -199.779942 
L 1278.624461 -199.779942 
L 1260.049402 -201.141102 
L 1241.474343 -201.370365 
L 1222.899284 -195.292826 
L 1204.324225 -200.996115 
L 1185.749166 -227.673471 
L 1167.174107 -234.395274 
L 1148.599048 -255.244036 
L 1130.023989 -258.409218 
L 1111.44893 -258.33818 
L 1092.873871 -258.628085 
L 1074.298812 -251.9343 
L 1055.723753 -268.175622 
L 1037.148694 -281.759044 
L 1018.573635 -304.794474 
L 999.998576 -303.385051 
L 981.423517 -306.227165 
L 962.848458 -316.850007 
L 944.273399 -316.874817 
L 925.69834 -319.705036 
L 907.123281 -319.689823 
z
" style="stroke: #ffa600; stroke-opacity: 0.2"/>
    </defs>
    <g clip-path="url(#p4d47ca9266)">
     <use xlink:href="#mf93c26a2e4" x="0" y="383.39976" style="fill: #ffa600; fill-opacity: 0.2; stroke: #ffa600; stroke-opacity: 0.2"/>
    </g>
   </g>
   <g id="matplotlib.axis_5">
    <g id="xtick_19">
     <g id="line2d_85">
      <path d="M 897.835751 345.84351 
L 897.835751 39.318365 
" clip-path="url(#p4d47ca9266)" style="fill: none; stroke-dasharray: 1.85,0.8; stroke-dashoffset: 0; stroke: #ffffff; stroke-width: 0.5"/>
     </g>
     <g id="line2d_86">
      <g>
       <use xlink:href="#m8e7e3ab85e" x="897.835751" y="345.84351" style="stroke: #000000; stroke-width: 0.8"/>
      </g>
     </g>
     <g id="text_40">
      <!-- 0 -->
      <g transform="translate(894.654501 360.441947) scale(0.1 -0.1)">
       <use xlink:href="#DejaVuSans-30"/>
      </g>
     </g>
    </g>
    <g id="xtick_20">
     <g id="line2d_87">
      <path d="M 944.273399 345.84351 
L 944.273399 39.318365 
" clip-path="url(#p4d47ca9266)" style="fill: none; stroke-dasharray: 1.85,0.8; stroke-dashoffset: 0; stroke: #ffffff; stroke-width: 0.5"/>
     </g>
     <g id="line2d_88">
      <g>
       <use xlink:href="#m8e7e3ab85e" x="944.273399" y="345.84351" style="stroke: #000000; stroke-width: 0.8"/>
      </g>
     </g>
     <g id="text_41">
      <!-- 5 -->
      <g transform="translate(941.092149 360.441947) scale(0.1 -0.1)">
       <use xlink:href="#DejaVuSans-35"/>
      </g>
     </g>
    </g>
    <g id="xtick_21">
     <g id="line2d_89">
      <path d="M 990.711046 345.84351 
L 990.711046 39.318365 
" clip-path="url(#p4d47ca9266)" style="fill: none; stroke-dasharray: 1.85,0.8; stroke-dashoffset: 0; stroke: #ffffff; stroke-width: 0.5"/>
     </g>
     <g id="line2d_90">
      <g>
       <use xlink:href="#m8e7e3ab85e" x="990.711046" y="345.84351" style="stroke: #000000; stroke-width: 0.8"/>
      </g>
     </g>
     <g id="text_42">
      <!-- 10 -->
      <g transform="translate(984.348546 360.441947) scale(0.1 -0.1)">
       <use xlink:href="#DejaVuSans-31"/>
       <use xlink:href="#DejaVuSans-30" x="63.623047"/>
      </g>
     </g>
    </g>
    <g id="xtick_22">
     <g id="line2d_91">
      <path d="M 1037.148694 345.84351 
L 1037.148694 39.318365 
" clip-path="url(#p4d47ca9266)" style="fill: none; stroke-dasharray: 1.85,0.8; stroke-dashoffset: 0; stroke: #ffffff; stroke-width: 0.5"/>
     </g>
     <g id="line2d_92">
      <g>
       <use xlink:href="#m8e7e3ab85e" x="1037.148694" y="345.84351" style="stroke: #000000; stroke-width: 0.8"/>
      </g>
     </g>
     <g id="text_43">
      <!-- 15 -->
      <g transform="translate(1030.786194 360.441947) scale(0.1 -0.1)">
       <use xlink:href="#DejaVuSans-31"/>
       <use xlink:href="#DejaVuSans-35" x="63.623047"/>
      </g>
     </g>
    </g>
    <g id="xtick_23">
     <g id="line2d_93">
      <path d="M 1083.586341 345.84351 
L 1083.586341 39.318365 
" clip-path="url(#p4d47ca9266)" style="fill: none; stroke-dasharray: 1.85,0.8; stroke-dashoffset: 0; stroke: #ffffff; stroke-width: 0.5"/>
     </g>
     <g id="line2d_94">
      <g>
       <use xlink:href="#m8e7e3ab85e" x="1083.586341" y="345.84351" style="stroke: #000000; stroke-width: 0.8"/>
      </g>
     </g>
     <g id="text_44">
      <!-- 20 -->
      <g transform="translate(1077.223841 360.441947) scale(0.1 -0.1)">
       <use xlink:href="#DejaVuSans-32"/>
       <use xlink:href="#DejaVuSans-30" x="63.623047"/>
      </g>
     </g>
    </g>
    <g id="xtick_24">
     <g id="line2d_95">
      <path d="M 1130.023989 345.84351 
L 1130.023989 39.318365 
" clip-path="url(#p4d47ca9266)" style="fill: none; stroke-dasharray: 1.85,0.8; stroke-dashoffset: 0; stroke: #ffffff; stroke-width: 0.5"/>
     </g>
     <g id="line2d_96">
      <g>
       <use xlink:href="#m8e7e3ab85e" x="1130.023989" y="345.84351" style="stroke: #000000; stroke-width: 0.8"/>
      </g>
     </g>
     <g id="text_45">
      <!-- 25 -->
      <g transform="translate(1123.661489 360.441947) scale(0.1 -0.1)">
       <use xlink:href="#DejaVuSans-32"/>
       <use xlink:href="#DejaVuSans-35" x="63.623047"/>
      </g>
     </g>
    </g>
    <g id="xtick_25">
     <g id="line2d_97">
      <path d="M 1176.461636 345.84351 
L 1176.461636 39.318365 
" clip-path="url(#p4d47ca9266)" style="fill: none; stroke-dasharray: 1.85,0.8; stroke-dashoffset: 0; stroke: #ffffff; stroke-width: 0.5"/>
     </g>
     <g id="line2d_98">
      <g>
       <use xlink:href="#m8e7e3ab85e" x="1176.461636" y="345.84351" style="stroke: #000000; stroke-width: 0.8"/>
      </g>
     </g>
     <g id="text_46">
      <!-- 30 -->
      <g transform="translate(1170.099136 360.441947) scale(0.1 -0.1)">
       <use xlink:href="#DejaVuSans-33"/>
       <use xlink:href="#DejaVuSans-30" x="63.623047"/>
      </g>
     </g>
    </g>
    <g id="xtick_26">
     <g id="line2d_99">
      <path d="M 1222.899284 345.84351 
L 1222.899284 39.318365 
" clip-path="url(#p4d47ca9266)" style="fill: none; stroke-dasharray: 1.85,0.8; stroke-dashoffset: 0; stroke: #ffffff; stroke-width: 0.5"/>
     </g>
     <g id="line2d_100">
      <g>
       <use xlink:href="#m8e7e3ab85e" x="1222.899284" y="345.84351" style="stroke: #000000; stroke-width: 0.8"/>
      </g>
     </g>
     <g id="text_47">
      <!-- 35 -->
      <g transform="translate(1216.536784 360.441947) scale(0.1 -0.1)">
       <use xlink:href="#DejaVuSans-33"/>
       <use xlink:href="#DejaVuSans-35" x="63.623047"/>
      </g>
     </g>
    </g>
    <g id="xtick_27">
     <g id="line2d_101">
      <path d="M 1269.336931 345.84351 
L 1269.336931 39.318365 
" clip-path="url(#p4d47ca9266)" style="fill: none; stroke-dasharray: 1.85,0.8; stroke-dashoffset: 0; stroke: #ffffff; stroke-width: 0.5"/>
     </g>
     <g id="line2d_102">
      <g>
       <use xlink:href="#m8e7e3ab85e" x="1269.336931" y="345.84351" style="stroke: #000000; stroke-width: 0.8"/>
      </g>
     </g>
     <g id="text_48">
      <!-- 40 -->
      <g transform="translate(1262.974431 360.441947) scale(0.1 -0.1)">
       <use xlink:href="#DejaVuSans-34"/>
       <use xlink:href="#DejaVuSans-30" x="63.623047"/>
      </g>
     </g>
    </g>
    <g id="text_49">
     <!-- Distance [m] -->
     <g transform="translate(1060.650433 374.120072) scale(0.1 -0.1)">
      <use xlink:href="#DejaVuSans-44"/>
      <use xlink:href="#DejaVuSans-69" x="77.001953"/>
      <use xlink:href="#DejaVuSans-73" x="104.785156"/>
      <use xlink:href="#DejaVuSans-74" x="156.884766"/>
      <use xlink:href="#DejaVuSans-61" x="196.09375"/>
      <use xlink:href="#DejaVuSans-6e" x="257.373047"/>
      <use xlink:href="#DejaVuSans-63" x="320.751953"/>
      <use xlink:href="#DejaVuSans-65" x="375.732422"/>
      <use xlink:href="#DejaVuSans-20" x="437.255859"/>
      <use xlink:href="#DejaVuSans-5b" x="469.042969"/>
      <use xlink:href="#DejaVuSans-6d" x="508.056641"/>
      <use xlink:href="#DejaVuSans-5d" x="605.46875"/>
     </g>
    </g>
   </g>
   <g id="matplotlib.axis_6">
    <g id="ytick_13">
     <g id="line2d_103">
      <path d="M 888.548222 345.84351 
L 1297.19952 345.84351 
" clip-path="url(#p4d47ca9266)" style="fill: none; stroke-dasharray: 1.85,0.8; stroke-dashoffset: 0; stroke: #ffffff; stroke-width: 0.5"/>
     </g>
     <g id="line2d_104">
      <g>
       <use xlink:href="#m489fa2a628" x="888.548222" y="345.84351" style="stroke: #000000; stroke-width: 0.8"/>
      </g>
     </g>
    </g>
    <g id="ytick_14">
     <g id="line2d_105">
      <path d="M 888.548222 290.399099 
L 1297.19952 290.399099 
" clip-path="url(#p4d47ca9266)" style="fill: none; stroke-dasharray: 1.85,0.8; stroke-dashoffset: 0; stroke: #ffffff; stroke-width: 0.5"/>
     </g>
     <g id="line2d_106">
      <g>
       <use xlink:href="#m489fa2a628" x="888.548222" y="290.399099" style="stroke: #000000; stroke-width: 0.8"/>
      </g>
     </g>
    </g>
    <g id="ytick_15">
     <g id="line2d_107">
      <path d="M 888.548222 234.954689 
L 1297.19952 234.954689 
" clip-path="url(#p4d47ca9266)" style="fill: none; stroke-dasharray: 1.85,0.8; stroke-dashoffset: 0; stroke: #ffffff; stroke-width: 0.5"/>
     </g>
     <g id="line2d_108">
      <g>
       <use xlink:href="#m489fa2a628" x="888.548222" y="234.954689" style="stroke: #000000; stroke-width: 0.8"/>
      </g>
     </g>
    </g>
    <g id="ytick_16">
     <g id="line2d_109">
      <path d="M 888.548222 179.510278 
L 1297.19952 179.510278 
" clip-path="url(#p4d47ca9266)" style="fill: none; stroke-dasharray: 1.85,0.8; stroke-dashoffset: 0; stroke: #ffffff; stroke-width: 0.5"/>
     </g>
     <g id="line2d_110">
      <g>
       <use xlink:href="#m489fa2a628" x="888.548222" y="179.510278" style="stroke: #000000; stroke-width: 0.8"/>
      </g>
     </g>
    </g>
    <g id="ytick_17">
     <g id="line2d_111">
      <path d="M 888.548222 124.065867 
L 1297.19952 124.065867 
" clip-path="url(#p4d47ca9266)" style="fill: none; stroke-dasharray: 1.85,0.8; stroke-dashoffset: 0; stroke: #ffffff; stroke-width: 0.5"/>
     </g>
     <g id="line2d_112">
      <g>
       <use xlink:href="#m489fa2a628" x="888.548222" y="124.065867" style="stroke: #000000; stroke-width: 0.8"/>
      </g>
     </g>
    </g>
    <g id="ytick_18">
     <g id="line2d_113">
      <path d="M 888.548222 68.621457 
L 1297.19952 68.621457 
" clip-path="url(#p4d47ca9266)" style="fill: none; stroke-dasharray: 1.85,0.8; stroke-dashoffset: 0; stroke: #ffffff; stroke-width: 0.5"/>
     </g>
     <g id="line2d_114">
      <g>
       <use xlink:href="#m489fa2a628" x="888.548222" y="68.621457" style="stroke: #000000; stroke-width: 0.8"/>
      </g>
     </g>
    </g>
   </g>
   <g id="line2d_115">
    <path d="M 907.123281 192.728364 
L 925.69834 192.728526 
L 944.273399 218.972768 
L 962.848458 218.47132 
L 981.423517 216.056069 
L 999.998576 215.476906 
L 1018.573635 215.749808 
L 1037.148694 225.251848 
L 1055.723753 233.939455 
L 1074.298812 238.610809 
L 1092.873871 238.834758 
L 1111.44893 238.829606 
L 1130.023989 239.008045 
L 1148.599048 240.67639 
L 1167.174107 250.221446 
L 1185.749166 253.06378 
L 1204.324225 266.501727 
L 1222.899284 266.308041 
L 1241.474343 266.280088 
L 1260.049402 266.152704 
L 1278.624461 266.993796 
" clip-path="url(#p4d47ca9266)" style="fill: none; stroke: #003f5c; stroke-width: 1.5; stroke-linecap: square"/>
   </g>
   <g id="line2d_116">
    <path d="M 907.123281 64.729721 
L 925.69834 64.729721 
L 944.273399 68.594636 
L 962.848458 68.594913 
L 981.423517 80.672068 
L 999.998576 93.661077 
L 1018.573635 93.787065 
L 1037.148694 107.419792 
L 1055.723753 120.148858 
L 1074.298812 138.639653 
L 1092.873871 150.350226 
L 1111.44893 150.313044 
L 1130.023989 151.737272 
L 1148.599048 161.009345 
L 1167.174107 176.921232 
L 1185.749166 185.363648 
L 1204.324225 210.111019 
L 1222.899284 214.08167 
L 1241.474343 210.272223 
L 1260.049402 213.898426 
L 1278.624461 214.813998 
" clip-path="url(#p4d47ca9266)" style="fill: none; stroke: #7a5195; stroke-width: 1.5; stroke-linecap: square"/>
   </g>
   <g id="line2d_117">
    <path d="M 907.123281 56.944402 
L 925.69834 56.944402 
L 944.273399 58.398432 
L 962.848458 58.406517 
L 981.423517 70.979623 
L 999.998576 90.116816 
L 1018.573635 90.34989 
L 1037.148694 103.641001 
L 1055.723753 116.325643 
L 1074.298812 132.477339 
L 1092.873871 145.037092 
L 1111.44893 145.040211 
L 1130.023989 146.517019 
L 1148.599048 156.241299 
L 1167.174107 172.07248 
L 1185.749166 180.65606 
L 1204.324225 205.337855 
L 1222.899284 212.524052 
L 1241.474343 211.085038 
L 1260.049402 210.841175 
L 1278.624461 211.68758 
" clip-path="url(#p4d47ca9266)" style="fill: none; stroke: #ef5675; stroke-width: 1.5; stroke-linecap: square"/>
   </g>
   <g id="line2d_118">
    <path d="M 907.123281 64.716553 
L 925.69834 64.716553 
L 944.273399 68.632199 
L 962.848458 68.644397 
L 981.423517 82.433838 
L 999.998576 93.998946 
L 1018.573635 94.157489 
L 1037.148694 109.892058 
L 1055.723753 125.738903 
L 1074.298812 144.908854 
L 1092.873871 151.053573 
L 1111.44893 152.83223 
L 1130.023989 156.941977 
L 1148.599048 166.222401 
L 1167.174107 182.780112 
L 1185.749166 193.822906 
L 1204.324225 213.037236 
L 1222.899284 206.173495 
L 1241.474343 214.807299 
L 1260.049402 209.963467 
L 1278.624461 220.058023 
" clip-path="url(#p4d47ca9266)" style="fill: none; stroke: #ffa600; stroke-width: 1.5; stroke-linecap: square"/>
   </g>
   <g id="line2d_119"/>
   <g id="line2d_120"/>
   <g id="line2d_121"/>
   <g id="line2d_122"/>
   <g id="patch_15">
    <path d="M 888.548222 345.84351 
L 888.548222 39.318365 
" style="fill: none; stroke: #000000; stroke-width: 0.8; stroke-linejoin: miter; stroke-linecap: square"/>
   </g>
   <g id="patch_16">
    <path d="M 1297.19952 345.84351 
L 1297.19952 39.318365 
" style="fill: none; stroke: #000000; stroke-width: 0.8; stroke-linejoin: miter; stroke-linecap: square"/>
   </g>
   <g id="patch_17">
    <path d="M 888.548222 345.84351 
L 1297.19952 345.84351 
" style="fill: none; stroke: #000000; stroke-width: 0.8; stroke-linejoin: miter; stroke-linecap: square"/>
   </g>
   <g id="patch_18">
    <path d="M 888.548222 39.318365 
L 1297.19952 39.318365 
" style="fill: none; stroke: #000000; stroke-width: 0.8; stroke-linejoin: miter; stroke-linecap: square"/>
   </g>
   <g id="text_50">
    <!-- Flow 0 + Flow 1 -->
    <g transform="translate(1045.191683 31.318365) scale(0.12 -0.12)">
     <defs>
      <path id="DejaVuSans-2b" d="M 2944 4013 
L 2944 2272 
L 4684 2272 
L 4684 1741 
L 2944 1741 
L 2944 0 
L 2419 0 
L 2419 1741 
L 678 1741 
L 678 2272 
L 2419 2272 
L 2419 4013 
L 2944 4013 
z
" transform="scale(0.015625)"/>
     </defs>
     <use xlink:href="#DejaVuSans-46"/>
     <use xlink:href="#DejaVuSans-6c" x="57.519531"/>
     <use xlink:href="#DejaVuSans-6f" x="85.302734"/>
     <use xlink:href="#DejaVuSans-77" x="146.484375"/>
     <use xlink:href="#DejaVuSans-20" x="228.271484"/>
     <use xlink:href="#DejaVuSans-30" x="260.058594"/>
     <use xlink:href="#DejaVuSans-20" x="323.681641"/>
     <use xlink:href="#DejaVuSans-2b" x="355.46875"/>
     <use xlink:href="#DejaVuSans-20" x="439.257812"/>
     <use xlink:href="#DejaVuSans-46" x="471.044922"/>
     <use xlink:href="#DejaVuSans-6c" x="528.564453"/>
     <use xlink:href="#DejaVuSans-6f" x="556.347656"/>
     <use xlink:href="#DejaVuSans-77" x="617.529297"/>
     <use xlink:href="#DejaVuSans-20" x="699.316406"/>
     <use xlink:href="#DejaVuSans-31" x="731.103516"/>
    </g>
   </g>
   <g id="legend_3">
    <g id="patch_19">
     <path d="M 1243.865145 120.70899 
L 1290.19952 120.70899 
Q 1292.19952 120.70899 1292.19952 118.70899 
L 1292.19952 46.318365 
Q 1292.19952 44.318365 1290.19952 44.318365 
L 1243.865145 44.318365 
Q 1241.865145 44.318365 1241.865145 46.318365 
L 1241.865145 118.70899 
Q 1241.865145 120.70899 1243.865145 120.70899 
z
" style="fill: #ffffff; opacity: 0.8; stroke: #cccccc; stroke-linejoin: miter"/>
    </g>
    <g id="text_51">
     <!-- scenario -->
     <g transform="translate(1245.865145 55.916802) scale(0.1 -0.1)">
      <use xlink:href="#DejaVuSans-73"/>
      <use xlink:href="#DejaVuSans-63" x="52.099609"/>
      <use xlink:href="#DejaVuSans-65" x="107.080078"/>
      <use xlink:href="#DejaVuSans-6e" x="168.603516"/>
      <use xlink:href="#DejaVuSans-61" x="231.982422"/>
      <use xlink:href="#DejaVuSans-72" x="293.261719"/>
      <use xlink:href="#DejaVuSans-69" x="334.375"/>
      <use xlink:href="#DejaVuSans-6f" x="362.158203"/>
     </g>
    </g>
    <g id="line2d_123">
     <path d="M 1249.182333 67.094927 
L 1259.182333 67.094927 
L 1269.182333 67.094927 
" style="fill: none; stroke: #003f5c; stroke-width: 1.5; stroke-linecap: square"/>
    </g>
    <g id="text_52">
     <!-- A -->
     <g transform="translate(1277.182333 70.594927) scale(0.1 -0.1)">
      <use xlink:href="#DejaVuSans-41"/>
     </g>
    </g>
    <g id="line2d_124">
     <path d="M 1249.182333 81.773052 
L 1259.182333 81.773052 
L 1269.182333 81.773052 
" style="fill: none; stroke: #7a5195; stroke-width: 1.5; stroke-linecap: square"/>
    </g>
    <g id="text_53">
     <!-- C -->
     <g transform="translate(1277.182333 85.273052) scale(0.1 -0.1)">
      <use xlink:href="#DejaVuSans-43"/>
     </g>
    </g>
    <g id="line2d_125">
     <path d="M 1249.182333 96.451177 
L 1259.182333 96.451177 
L 1269.182333 96.451177 
" style="fill: none; stroke: #ef5675; stroke-width: 1.5; stroke-linecap: square"/>
    </g>
    <g id="text_54">
     <!-- D -->
     <g transform="translate(1277.182333 99.951177) scale(0.1 -0.1)">
      <use xlink:href="#DejaVuSans-44"/>
     </g>
    </g>
    <g id="line2d_126">
     <path d="M 1249.182333 111.129302 
L 1259.182333 111.129302 
L 1269.182333 111.129302 
" style="fill: none; stroke: #ffa600; stroke-width: 1.5; stroke-linecap: square"/>
    </g>
    <g id="text_55">
     <!-- E -->
     <g transform="translate(1277.182333 114.629302) scale(0.1 -0.1)">
      <use xlink:href="#DejaVuSans-45"/>
     </g>
    </g>
   </g>
  </g>
  <g id="legend_4">
   <g id="patch_20">
    <path d="M 628.37976 81.255 
L 676.01976 81.255 
Q 678.41976 81.255 678.41976 78.855 
L 678.41976 9.6 
Q 678.41976 7.2 676.01976 7.2 
L 628.37976 7.2 
Q 625.97976 7.2 625.97976 9.6 
L 625.97976 78.855 
Q 625.97976 81.255 628.37976 81.255 
z
" style="fill: #ffffff; opacity: 0.8; stroke: #cccccc; stroke-linejoin: miter"/>
   </g>
   <g id="line2d_127">
    <path d="M 630.77976 16.918125 
L 642.77976 16.918125 
L 654.77976 16.918125 
" style="fill: none; stroke: #003f5c; stroke-width: 1.5; stroke-linecap: square"/>
   </g>
   <g id="text_56">
    <!-- A -->
    <g transform="translate(664.37976 21.118125) scale(0.12 -0.12)">
     <use xlink:href="#DejaVuSans-41"/>
    </g>
   </g>
   <g id="line2d_128">
    <path d="M 630.77976 34.531875 
L 642.77976 34.531875 
L 654.77976 34.531875 
" style="fill: none; stroke: #7a5195; stroke-width: 1.5; stroke-linecap: square"/>
   </g>
   <g id="text_57">
    <!-- B -->
    <g transform="translate(664.37976 38.731875) scale(0.12 -0.12)">
     <defs>
      <path id="DejaVuSans-42" d="M 1259 2228 
L 1259 519 
L 2272 519 
Q 2781 519 3026 730 
Q 3272 941 3272 1375 
Q 3272 1813 3026 2020 
Q 2781 2228 2272 2228 
L 1259 2228 
z
M 1259 4147 
L 1259 2741 
L 2194 2741 
Q 2656 2741 2882 2914 
Q 3109 3088 3109 3444 
Q 3109 3797 2882 3972 
Q 2656 4147 2194 4147 
L 1259 4147 
z
M 628 4666 
L 2241 4666 
Q 2963 4666 3353 4366 
Q 3744 4066 3744 3513 
Q 3744 3084 3544 2831 
Q 3344 2578 2956 2516 
Q 3422 2416 3680 2098 
Q 3938 1781 3938 1306 
Q 3938 681 3513 340 
Q 3088 0 2303 0 
L 628 0 
L 628 4666 
z
" transform="scale(0.015625)"/>
     </defs>
     <use xlink:href="#DejaVuSans-42"/>
    </g>
   </g>
   <g id="line2d_129">
    <path d="M 630.77976 52.145625 
L 642.77976 52.145625 
L 654.77976 52.145625 
" style="fill: none; stroke: #ef5675; stroke-width: 1.5; stroke-linecap: square"/>
   </g>
   <g id="text_58">
    <!-- C -->
    <g transform="translate(664.37976 56.345625) scale(0.12 -0.12)">
     <use xlink:href="#DejaVuSans-43"/>
    </g>
   </g>
   <g id="line2d_130">
    <path d="M 630.77976 69.759375 
L 642.77976 69.759375 
L 654.77976 69.759375 
" style="fill: none; stroke: #ffa600; stroke-width: 1.5; stroke-linecap: square"/>
   </g>
   <g id="text_59">
    <!-- D -->
    <g transform="translate(664.37976 73.959375) scale(0.12 -0.12)">
     <use xlink:href="#DejaVuSans-44"/>
    </g>
   </g>
  </g>
 </g>
 <defs>
  <clipPath id="paa733905ec">
   <rect x="46.965625" y="39.318365" width="408.651298" height="306.525145"/>
  </clipPath>
  <clipPath id="p0572247478">
   <rect x="467.756923" y="39.318365" width="408.651298" height="306.525145"/>
  </clipPath>
  <clipPath id="p4d47ca9266">
   <rect x="888.548222" y="39.318365" width="408.651298" height="306.525145"/>
  </clipPath>
 </defs>
</svg>
