<?xml version="1.0" encoding="utf-8" standalone="no"?>
<!DOCTYPE svg PUBLIC "-//W3C//DTD SVG 1.1//EN"
  "http://www.w3.org/Graphics/SVG/1.1/DTD/svg11.dtd">
<svg xmlns:xlink="http://www.w3.org/1999/xlink" width="420.82625pt" height="310.86825pt" viewBox="0 0 420.82625 310.86825" xmlns="http://www.w3.org/2000/svg" version="1.1">
 <metadata>
  <rdf:RDF xmlns:dc="http://purl.org/dc/elements/1.1/" xmlns:cc="http://creativecommons.org/ns#" xmlns:rdf="http://www.w3.org/1999/02/22-rdf-syntax-ns#">
   <cc:Work>
    <dc:type rdf:resource="http://purl.org/dc/dcmitype/StillImage"/>
    <dc:date>2025-01-23T19:45:38.243662</dc:date>
    <dc:format>image/svg+xml</dc:format>
    <dc:creator>
     <cc:Agent>
      <dc:title>Matplotlib v3.9.2, https://matplotlib.org/</dc:title>
     </cc:Agent>
    </dc:creator>
   </cc:Work>
  </rdf:RDF>
 </metadata>
 <defs>
  <style type="text/css">*{stroke-linejoin: round; stroke-linecap: butt}</style>
 </defs>
 <g id="figure_1">
  <g id="patch_1">
   <path d="M 0 310.86825 
L 420.82625 310.86825 
L 420.82625 0 
L 0 0 
z
" style="fill: #ffffff"/>
  </g>
  <g id="axes_1">
   <g id="patch_2">
    <path d="M 56.50625 273.312 
L 413.62625 273.312 
L 413.62625 7.2 
L 56.50625 7.2 
z
" style="fill: #ffffff"/>
   </g>
   <g id="PolyCollection_1">
    <defs>
     <path id="m700c1cc19f" d="M 72.738977 -73.478577 
L 72.738977 -73.231103 
L 89.826059 -73.231103 
L 106.91314 -77.434519 
L 124.000221 -80.672236 
L 141.087303 -90.929449 
L 158.174384 -90.929449 
L 175.261465 -90.880963 
L 192.348547 -97.081382 
L 209.435628 -107.551983 
L 226.522709 -107.263005 
L 243.609791 -107.073424 
L 260.696872 -125.758561 
L 277.783953 -104.944393 
L 294.871035 -135.740906 
L 311.958116 -165.795095 
L 329.045197 -164.809855 
L 346.132279 -166.130619 
L 363.21936 -159.142299 
L 380.306441 -156.885265 
L 397.393523 -253.088731 
L 397.393523 -291.57225 
L 397.393523 -291.57225 
L 380.306441 -169.029611 
L 363.21936 -162.027715 
L 346.132279 -170.310132 
L 329.045197 -174.707348 
L 311.958116 -166.715363 
L 294.871035 -137.393802 
L 277.783953 -134.378928 
L 260.696872 -125.942809 
L 243.609791 -107.294036 
L 226.522709 -107.872477 
L 209.435628 -107.797808 
L 192.348547 -97.256417 
L 175.261465 -91.033209 
L 158.174384 -91.222791 
L 141.087303 -91.222791 
L 124.000221 -80.865017 
L 106.91314 -77.494303 
L 89.826059 -73.478577 
L 72.738977 -73.478577 
z
" style="stroke: #000000; stroke-opacity: 0.2"/>
    </defs>
    <g clip-path="url(#pccdcba6d2b)">
     <use xlink:href="#m700c1cc19f" x="0" y="310.86825" style="fill-opacity: 0.2; stroke: #000000; stroke-opacity: 0.2"/>
    </g>
   </g>
   <g id="PolyCollection_2">
    <path d="M 72.738977 254.380508 
L 72.738977 259.668368 
L 89.826059 261.216 
L 106.91314 252.421374 
L 124.000221 256.511385 
L 141.087303 254.696978 
L 158.174384 254.673123 
L 175.261465 244.860286 
L 192.348547 241.374126 
L 209.435628 250.391837 
L 226.522709 247.870643 
L 243.609791 248.466449 
L 243.609791 234.491409 
L 243.609791 234.491409 
L 226.522709 234.860147 
L 209.435628 234.763999 
L 192.348547 241.184788 
L 175.261465 244.795799 
L 158.174384 244.819073 
L 141.087303 244.82334 
L 124.000221 250.537684 
L 106.91314 252.25429 
L 89.826059 254.380508 
L 72.738977 254.380508 
z
" clip-path="url(#pccdcba6d2b)" style="fill: #8b0000; fill-opacity: 0.2; stroke: #8b0000; stroke-opacity: 0.2"/>
    <path d="M 311.958116 201.667251 
L 311.958116 225.742166 
L 329.045197 187.572304 
L 346.132279 187.517515 
L 363.21936 188.018862 
L 380.306441 187.147565 
L 397.393523 150.750893 
L 397.393523 141.550631 
L 397.393523 141.550631 
L 380.306441 186.548275 
L 363.21936 187.518969 
L 346.132279 187.14514 
L 329.045197 186.845496 
L 311.958116 201.667251 
z
" clip-path="url(#pccdcba6d2b)" style="fill: #8b0000; fill-opacity: 0.2; stroke: #8b0000; stroke-opacity: 0.2"/>
   </g>
   <g id="PolyCollection_3">
    <defs>
     <path id="m969b7ba699" d="M 72.738977 -50.960263 
L 72.738977 -50.940675 
L 89.826059 -50.940675 
L 106.91314 -50.940675 
L 124.000221 -50.940675 
L 141.087303 -52.311914 
L 158.174384 -53.410708 
L 175.261465 -53.414539 
L 192.348547 -55.143509 
L 209.435628 -57.290625 
L 226.522709 -57.258624 
L 243.609791 -57.258624 
L 260.696872 -57.223956 
L 277.783953 -57.2626 
L 294.871035 -51.479454 
L 311.958116 -59.986265 
L 329.045197 -58.628942 
L 346.132279 -58.628408 
L 363.21936 -58.567122 
L 380.306441 -58.571728 
L 397.393523 -58.290896 
L 397.393523 -64.297952 
L 397.393523 -64.297952 
L 380.306441 -64.028562 
L 363.21936 -64.188033 
L 346.132279 -64.254169 
L 329.045197 -64.218935 
L 311.958116 -60.082947 
L 294.871035 -58.519848 
L 277.783953 -57.410628 
L 260.696872 -57.303619 
L 243.609791 -57.292322 
L 226.522709 -57.292322 
L 209.435628 -57.312056 
L 192.348547 -55.164261 
L 175.261465 -53.543512 
L 158.174384 -53.515293 
L 141.087303 -52.392692 
L 124.000221 -51.000313 
L 106.91314 -50.960263 
L 89.826059 -50.960263 
L 72.738977 -50.960263 
z
" style="stroke: #556b2f; stroke-opacity: 0.2"/>
    </defs>
    <g clip-path="url(#pccdcba6d2b)">
     <use xlink:href="#m969b7ba699" x="0" y="310.86825" style="fill: #556b2f; fill-opacity: 0.2; stroke: #556b2f; stroke-opacity: 0.2"/>
    </g>
   </g>
   <g id="matplotlib.axis_1">
    <g id="xtick_1">
     <g id="line2d_1">
      <path d="M 64.195437 273.312 
L 64.195437 7.2 
" clip-path="url(#pccdcba6d2b)" style="fill: none; stroke-dasharray: 1.85,0.8; stroke-dashoffset: 0; stroke: #ffffff; stroke-width: 0.5"/>
     </g>
     <g id="line2d_2">
      <defs>
       <path id="m0bc7afed61" d="M 0 0 
L 0 3.5 
" style="stroke: #000000; stroke-width: 0.8"/>
      </defs>
      <g>
       <use xlink:href="#m0bc7afed61" x="64.195437" y="273.312" style="stroke: #000000; stroke-width: 0.8"/>
      </g>
     </g>
     <g id="text_1">
      <!-- 0 -->
      <g transform="translate(61.014187 287.910437) scale(0.1 -0.1)">
       <defs>
        <path id="DejaVuSans-30" d="M 2034 4250 
Q 1547 4250 1301 3770 
Q 1056 3291 1056 2328 
Q 1056 1369 1301 889 
Q 1547 409 2034 409 
Q 2525 409 2770 889 
Q 3016 1369 3016 2328 
Q 3016 3291 2770 3770 
Q 2525 4250 2034 4250 
z
M 2034 4750 
Q 2819 4750 3233 4129 
Q 3647 3509 3647 2328 
Q 3647 1150 3233 529 
Q 2819 -91 2034 -91 
Q 1250 -91 836 529 
Q 422 1150 422 2328 
Q 422 3509 836 4129 
Q 1250 4750 2034 4750 
z
" transform="scale(0.015625)"/>
       </defs>
       <use xlink:href="#DejaVuSans-30"/>
      </g>
     </g>
    </g>
    <g id="xtick_2">
     <g id="line2d_3">
      <path d="M 106.91314 273.312 
L 106.91314 7.2 
" clip-path="url(#pccdcba6d2b)" style="fill: none; stroke-dasharray: 1.85,0.8; stroke-dashoffset: 0; stroke: #ffffff; stroke-width: 0.5"/>
     </g>
     <g id="line2d_4">
      <g>
       <use xlink:href="#m0bc7afed61" x="106.91314" y="273.312" style="stroke: #000000; stroke-width: 0.8"/>
      </g>
     </g>
     <g id="text_2">
      <!-- 5 -->
      <g transform="translate(103.73189 287.910437) scale(0.1 -0.1)">
       <defs>
        <path id="DejaVuSans-35" d="M 691 4666 
L 3169 4666 
L 3169 4134 
L 1269 4134 
L 1269 2991 
Q 1406 3038 1543 3061 
Q 1681 3084 1819 3084 
Q 2600 3084 3056 2656 
Q 3513 2228 3513 1497 
Q 3513 744 3044 326 
Q 2575 -91 1722 -91 
Q 1428 -91 1123 -41 
Q 819 9 494 109 
L 494 744 
Q 775 591 1075 516 
Q 1375 441 1709 441 
Q 2250 441 2565 725 
Q 2881 1009 2881 1497 
Q 2881 1984 2565 2268 
Q 2250 2553 1709 2553 
Q 1456 2553 1204 2497 
Q 953 2441 691 2322 
L 691 4666 
z
" transform="scale(0.015625)"/>
       </defs>
       <use xlink:href="#DejaVuSans-35"/>
      </g>
     </g>
    </g>
    <g id="xtick_3">
     <g id="line2d_5">
      <path d="M 149.630843 273.312 
L 149.630843 7.2 
" clip-path="url(#pccdcba6d2b)" style="fill: none; stroke-dasharray: 1.85,0.8; stroke-dashoffset: 0; stroke: #ffffff; stroke-width: 0.5"/>
     </g>
     <g id="line2d_6">
      <g>
       <use xlink:href="#m0bc7afed61" x="149.630843" y="273.312" style="stroke: #000000; stroke-width: 0.8"/>
      </g>
     </g>
     <g id="text_3">
      <!-- 10 -->
      <g transform="translate(143.268343 287.910437) scale(0.1 -0.1)">
       <defs>
        <path id="DejaVuSans-31" d="M 794 531 
L 1825 531 
L 1825 4091 
L 703 3866 
L 703 4441 
L 1819 4666 
L 2450 4666 
L 2450 531 
L 3481 531 
L 3481 0 
L 794 0 
L 794 531 
z
" transform="scale(0.015625)"/>
       </defs>
       <use xlink:href="#DejaVuSans-31"/>
       <use xlink:href="#DejaVuSans-30" x="63.623047"/>
      </g>
     </g>
    </g>
    <g id="xtick_4">
     <g id="line2d_7">
      <path d="M 192.348547 273.312 
L 192.348547 7.2 
" clip-path="url(#pccdcba6d2b)" style="fill: none; stroke-dasharray: 1.85,0.8; stroke-dashoffset: 0; stroke: #ffffff; stroke-width: 0.5"/>
     </g>
     <g id="line2d_8">
      <g>
       <use xlink:href="#m0bc7afed61" x="192.348547" y="273.312" style="stroke: #000000; stroke-width: 0.8"/>
      </g>
     </g>
     <g id="text_4">
      <!-- 15 -->
      <g transform="translate(185.986047 287.910437) scale(0.1 -0.1)">
       <use xlink:href="#DejaVuSans-31"/>
       <use xlink:href="#DejaVuSans-35" x="63.623047"/>
      </g>
     </g>
    </g>
    <g id="xtick_5">
     <g id="line2d_9">
      <path d="M 235.06625 273.312 
L 235.06625 7.2 
" clip-path="url(#pccdcba6d2b)" style="fill: none; stroke-dasharray: 1.85,0.8; stroke-dashoffset: 0; stroke: #ffffff; stroke-width: 0.5"/>
     </g>
     <g id="line2d_10">
      <g>
       <use xlink:href="#m0bc7afed61" x="235.06625" y="273.312" style="stroke: #000000; stroke-width: 0.8"/>
      </g>
     </g>
     <g id="text_5">
      <!-- 20 -->
      <g transform="translate(228.70375 287.910437) scale(0.1 -0.1)">
       <defs>
        <path id="DejaVuSans-32" d="M 1228 531 
L 3431 531 
L 3431 0 
L 469 0 
L 469 531 
Q 828 903 1448 1529 
Q 2069 2156 2228 2338 
Q 2531 2678 2651 2914 
Q 2772 3150 2772 3378 
Q 2772 3750 2511 3984 
Q 2250 4219 1831 4219 
Q 1534 4219 1204 4116 
Q 875 4013 500 3803 
L 500 4441 
Q 881 4594 1212 4672 
Q 1544 4750 1819 4750 
Q 2544 4750 2975 4387 
Q 3406 4025 3406 3419 
Q 3406 3131 3298 2873 
Q 3191 2616 2906 2266 
Q 2828 2175 2409 1742 
Q 1991 1309 1228 531 
z
" transform="scale(0.015625)"/>
       </defs>
       <use xlink:href="#DejaVuSans-32"/>
       <use xlink:href="#DejaVuSans-30" x="63.623047"/>
      </g>
     </g>
    </g>
    <g id="xtick_6">
     <g id="line2d_11">
      <path d="M 277.783953 273.312 
L 277.783953 7.2 
" clip-path="url(#pccdcba6d2b)" style="fill: none; stroke-dasharray: 1.85,0.8; stroke-dashoffset: 0; stroke: #ffffff; stroke-width: 0.5"/>
     </g>
     <g id="line2d_12">
      <g>
       <use xlink:href="#m0bc7afed61" x="277.783953" y="273.312" style="stroke: #000000; stroke-width: 0.8"/>
      </g>
     </g>
     <g id="text_6">
      <!-- 25 -->
      <g transform="translate(271.421453 287.910437) scale(0.1 -0.1)">
       <use xlink:href="#DejaVuSans-32"/>
       <use xlink:href="#DejaVuSans-35" x="63.623047"/>
      </g>
     </g>
    </g>
    <g id="xtick_7">
     <g id="line2d_13">
      <path d="M 320.501657 273.312 
L 320.501657 7.2 
" clip-path="url(#pccdcba6d2b)" style="fill: none; stroke-dasharray: 1.85,0.8; stroke-dashoffset: 0; stroke: #ffffff; stroke-width: 0.5"/>
     </g>
     <g id="line2d_14">
      <g>
       <use xlink:href="#m0bc7afed61" x="320.501657" y="273.312" style="stroke: #000000; stroke-width: 0.8"/>
      </g>
     </g>
     <g id="text_7">
      <!-- 30 -->
      <g transform="translate(314.139157 287.910437) scale(0.1 -0.1)">
       <defs>
        <path id="DejaVuSans-33" d="M 2597 2516 
Q 3050 2419 3304 2112 
Q 3559 1806 3559 1356 
Q 3559 666 3084 287 
Q 2609 -91 1734 -91 
Q 1441 -91 1130 -33 
Q 819 25 488 141 
L 488 750 
Q 750 597 1062 519 
Q 1375 441 1716 441 
Q 2309 441 2620 675 
Q 2931 909 2931 1356 
Q 2931 1769 2642 2001 
Q 2353 2234 1838 2234 
L 1294 2234 
L 1294 2753 
L 1863 2753 
Q 2328 2753 2575 2939 
Q 2822 3125 2822 3475 
Q 2822 3834 2567 4026 
Q 2313 4219 1838 4219 
Q 1578 4219 1281 4162 
Q 984 4106 628 3988 
L 628 4550 
Q 988 4650 1302 4700 
Q 1616 4750 1894 4750 
Q 2613 4750 3031 4423 
Q 3450 4097 3450 3541 
Q 3450 3153 3228 2886 
Q 3006 2619 2597 2516 
z
" transform="scale(0.015625)"/>
       </defs>
       <use xlink:href="#DejaVuSans-33"/>
       <use xlink:href="#DejaVuSans-30" x="63.623047"/>
      </g>
     </g>
    </g>
    <g id="xtick_8">
     <g id="line2d_15">
      <path d="M 363.21936 273.312 
L 363.21936 7.2 
" clip-path="url(#pccdcba6d2b)" style="fill: none; stroke-dasharray: 1.85,0.8; stroke-dashoffset: 0; stroke: #ffffff; stroke-width: 0.5"/>
     </g>
     <g id="line2d_16">
      <g>
       <use xlink:href="#m0bc7afed61" x="363.21936" y="273.312" style="stroke: #000000; stroke-width: 0.8"/>
      </g>
     </g>
     <g id="text_8">
      <!-- 35 -->
      <g transform="translate(356.85686 287.910437) scale(0.1 -0.1)">
       <use xlink:href="#DejaVuSans-33"/>
       <use xlink:href="#DejaVuSans-35" x="63.623047"/>
      </g>
     </g>
    </g>
    <g id="xtick_9">
     <g id="line2d_17">
      <path d="M 405.937063 273.312 
L 405.937063 7.2 
" clip-path="url(#pccdcba6d2b)" style="fill: none; stroke-dasharray: 1.85,0.8; stroke-dashoffset: 0; stroke: #ffffff; stroke-width: 0.5"/>
     </g>
     <g id="line2d_18">
      <g>
       <use xlink:href="#m0bc7afed61" x="405.937063" y="273.312" style="stroke: #000000; stroke-width: 0.8"/>
      </g>
     </g>
     <g id="text_9">
      <!-- 40 -->
      <g transform="translate(399.574563 287.910437) scale(0.1 -0.1)">
       <defs>
        <path id="DejaVuSans-34" d="M 2419 4116 
L 825 1625 
L 2419 1625 
L 2419 4116 
z
M 2253 4666 
L 3047 4666 
L 3047 1625 
L 3713 1625 
L 3713 1100 
L 3047 1100 
L 3047 0 
L 2419 0 
L 2419 1100 
L 313 1100 
L 313 1709 
L 2253 4666 
z
" transform="scale(0.015625)"/>
       </defs>
       <use xlink:href="#DejaVuSans-34"/>
       <use xlink:href="#DejaVuSans-30" x="63.623047"/>
      </g>
     </g>
    </g>
    <g id="text_10">
     <!-- Distance beetwen AP and STAs [m] -->
     <g transform="translate(147.156875 301.588562) scale(0.1 -0.1)">
      <defs>
       <path id="DejaVuSans-44" d="M 1259 4147 
L 1259 519 
L 2022 519 
Q 2988 519 3436 956 
Q 3884 1394 3884 2338 
Q 3884 3275 3436 3711 
Q 2988 4147 2022 4147 
L 1259 4147 
z
M 628 4666 
L 1925 4666 
Q 3281 4666 3915 4102 
Q 4550 3538 4550 2338 
Q 4550 1131 3912 565 
Q 3275 0 1925 0 
L 628 0 
L 628 4666 
z
" transform="scale(0.015625)"/>
       <path id="DejaVuSans-69" d="M 603 3500 
L 1178 3500 
L 1178 0 
L 603 0 
L 603 3500 
z
M 603 4863 
L 1178 4863 
L 1178 4134 
L 603 4134 
L 603 4863 
z
" transform="scale(0.015625)"/>
       <path id="DejaVuSans-73" d="M 2834 3397 
L 2834 2853 
Q 2591 2978 2328 3040 
Q 2066 3103 1784 3103 
Q 1356 3103 1142 2972 
Q 928 2841 928 2578 
Q 928 2378 1081 2264 
Q 1234 2150 1697 2047 
L 1894 2003 
Q 2506 1872 2764 1633 
Q 3022 1394 3022 966 
Q 3022 478 2636 193 
Q 2250 -91 1575 -91 
Q 1294 -91 989 -36 
Q 684 19 347 128 
L 347 722 
Q 666 556 975 473 
Q 1284 391 1588 391 
Q 1994 391 2212 530 
Q 2431 669 2431 922 
Q 2431 1156 2273 1281 
Q 2116 1406 1581 1522 
L 1381 1569 
Q 847 1681 609 1914 
Q 372 2147 372 2553 
Q 372 3047 722 3315 
Q 1072 3584 1716 3584 
Q 2034 3584 2315 3537 
Q 2597 3491 2834 3397 
z
" transform="scale(0.015625)"/>
       <path id="DejaVuSans-74" d="M 1172 4494 
L 1172 3500 
L 2356 3500 
L 2356 3053 
L 1172 3053 
L 1172 1153 
Q 1172 725 1289 603 
Q 1406 481 1766 481 
L 2356 481 
L 2356 0 
L 1766 0 
Q 1100 0 847 248 
Q 594 497 594 1153 
L 594 3053 
L 172 3053 
L 172 3500 
L 594 3500 
L 594 4494 
L 1172 4494 
z
" transform="scale(0.015625)"/>
       <path id="DejaVuSans-61" d="M 2194 1759 
Q 1497 1759 1228 1600 
Q 959 1441 959 1056 
Q 959 750 1161 570 
Q 1363 391 1709 391 
Q 2188 391 2477 730 
Q 2766 1069 2766 1631 
L 2766 1759 
L 2194 1759 
z
M 3341 1997 
L 3341 0 
L 2766 0 
L 2766 531 
Q 2569 213 2275 61 
Q 1981 -91 1556 -91 
Q 1019 -91 701 211 
Q 384 513 384 1019 
Q 384 1609 779 1909 
Q 1175 2209 1959 2209 
L 2766 2209 
L 2766 2266 
Q 2766 2663 2505 2880 
Q 2244 3097 1772 3097 
Q 1472 3097 1187 3025 
Q 903 2953 641 2809 
L 641 3341 
Q 956 3463 1253 3523 
Q 1550 3584 1831 3584 
Q 2591 3584 2966 3190 
Q 3341 2797 3341 1997 
z
" transform="scale(0.015625)"/>
       <path id="DejaVuSans-6e" d="M 3513 2113 
L 3513 0 
L 2938 0 
L 2938 2094 
Q 2938 2591 2744 2837 
Q 2550 3084 2163 3084 
Q 1697 3084 1428 2787 
Q 1159 2491 1159 1978 
L 1159 0 
L 581 0 
L 581 3500 
L 1159 3500 
L 1159 2956 
Q 1366 3272 1645 3428 
Q 1925 3584 2291 3584 
Q 2894 3584 3203 3211 
Q 3513 2838 3513 2113 
z
" transform="scale(0.015625)"/>
       <path id="DejaVuSans-63" d="M 3122 3366 
L 3122 2828 
Q 2878 2963 2633 3030 
Q 2388 3097 2138 3097 
Q 1578 3097 1268 2742 
Q 959 2388 959 1747 
Q 959 1106 1268 751 
Q 1578 397 2138 397 
Q 2388 397 2633 464 
Q 2878 531 3122 666 
L 3122 134 
Q 2881 22 2623 -34 
Q 2366 -91 2075 -91 
Q 1284 -91 818 406 
Q 353 903 353 1747 
Q 353 2603 823 3093 
Q 1294 3584 2113 3584 
Q 2378 3584 2631 3529 
Q 2884 3475 3122 3366 
z
" transform="scale(0.015625)"/>
       <path id="DejaVuSans-65" d="M 3597 1894 
L 3597 1613 
L 953 1613 
Q 991 1019 1311 708 
Q 1631 397 2203 397 
Q 2534 397 2845 478 
Q 3156 559 3463 722 
L 3463 178 
Q 3153 47 2828 -22 
Q 2503 -91 2169 -91 
Q 1331 -91 842 396 
Q 353 884 353 1716 
Q 353 2575 817 3079 
Q 1281 3584 2069 3584 
Q 2775 3584 3186 3129 
Q 3597 2675 3597 1894 
z
M 3022 2063 
Q 3016 2534 2758 2815 
Q 2500 3097 2075 3097 
Q 1594 3097 1305 2825 
Q 1016 2553 972 2059 
L 3022 2063 
z
" transform="scale(0.015625)"/>
       <path id="DejaVuSans-20" transform="scale(0.015625)"/>
       <path id="DejaVuSans-62" d="M 3116 1747 
Q 3116 2381 2855 2742 
Q 2594 3103 2138 3103 
Q 1681 3103 1420 2742 
Q 1159 2381 1159 1747 
Q 1159 1113 1420 752 
Q 1681 391 2138 391 
Q 2594 391 2855 752 
Q 3116 1113 3116 1747 
z
M 1159 2969 
Q 1341 3281 1617 3432 
Q 1894 3584 2278 3584 
Q 2916 3584 3314 3078 
Q 3713 2572 3713 1747 
Q 3713 922 3314 415 
Q 2916 -91 2278 -91 
Q 1894 -91 1617 61 
Q 1341 213 1159 525 
L 1159 0 
L 581 0 
L 581 4863 
L 1159 4863 
L 1159 2969 
z
" transform="scale(0.015625)"/>
       <path id="DejaVuSans-77" d="M 269 3500 
L 844 3500 
L 1563 769 
L 2278 3500 
L 2956 3500 
L 3675 769 
L 4391 3500 
L 4966 3500 
L 4050 0 
L 3372 0 
L 2619 2869 
L 1863 0 
L 1184 0 
L 269 3500 
z
" transform="scale(0.015625)"/>
       <path id="DejaVuSans-41" d="M 2188 4044 
L 1331 1722 
L 3047 1722 
L 2188 4044 
z
M 1831 4666 
L 2547 4666 
L 4325 0 
L 3669 0 
L 3244 1197 
L 1141 1197 
L 716 0 
L 50 0 
L 1831 4666 
z
" transform="scale(0.015625)"/>
       <path id="DejaVuSans-50" d="M 1259 4147 
L 1259 2394 
L 2053 2394 
Q 2494 2394 2734 2622 
Q 2975 2850 2975 3272 
Q 2975 3691 2734 3919 
Q 2494 4147 2053 4147 
L 1259 4147 
z
M 628 4666 
L 2053 4666 
Q 2838 4666 3239 4311 
Q 3641 3956 3641 3272 
Q 3641 2581 3239 2228 
Q 2838 1875 2053 1875 
L 1259 1875 
L 1259 0 
L 628 0 
L 628 4666 
z
" transform="scale(0.015625)"/>
       <path id="DejaVuSans-64" d="M 2906 2969 
L 2906 4863 
L 3481 4863 
L 3481 0 
L 2906 0 
L 2906 525 
Q 2725 213 2448 61 
Q 2172 -91 1784 -91 
Q 1150 -91 751 415 
Q 353 922 353 1747 
Q 353 2572 751 3078 
Q 1150 3584 1784 3584 
Q 2172 3584 2448 3432 
Q 2725 3281 2906 2969 
z
M 947 1747 
Q 947 1113 1208 752 
Q 1469 391 1925 391 
Q 2381 391 2643 752 
Q 2906 1113 2906 1747 
Q 2906 2381 2643 2742 
Q 2381 3103 1925 3103 
Q 1469 3103 1208 2742 
Q 947 2381 947 1747 
z
" transform="scale(0.015625)"/>
       <path id="DejaVuSans-53" d="M 3425 4513 
L 3425 3897 
Q 3066 4069 2747 4153 
Q 2428 4238 2131 4238 
Q 1616 4238 1336 4038 
Q 1056 3838 1056 3469 
Q 1056 3159 1242 3001 
Q 1428 2844 1947 2747 
L 2328 2669 
Q 3034 2534 3370 2195 
Q 3706 1856 3706 1288 
Q 3706 609 3251 259 
Q 2797 -91 1919 -91 
Q 1588 -91 1214 -16 
Q 841 59 441 206 
L 441 856 
Q 825 641 1194 531 
Q 1563 422 1919 422 
Q 2459 422 2753 634 
Q 3047 847 3047 1241 
Q 3047 1584 2836 1778 
Q 2625 1972 2144 2069 
L 1759 2144 
Q 1053 2284 737 2584 
Q 422 2884 422 3419 
Q 422 4038 858 4394 
Q 1294 4750 2059 4750 
Q 2388 4750 2728 4690 
Q 3069 4631 3425 4513 
z
" transform="scale(0.015625)"/>
       <path id="DejaVuSans-54" d="M -19 4666 
L 3928 4666 
L 3928 4134 
L 2272 4134 
L 2272 0 
L 1638 0 
L 1638 4134 
L -19 4134 
L -19 4666 
z
" transform="scale(0.015625)"/>
       <path id="DejaVuSans-5b" d="M 550 4863 
L 1875 4863 
L 1875 4416 
L 1125 4416 
L 1125 -397 
L 1875 -397 
L 1875 -844 
L 550 -844 
L 550 4863 
z
" transform="scale(0.015625)"/>
       <path id="DejaVuSans-6d" d="M 3328 2828 
Q 3544 3216 3844 3400 
Q 4144 3584 4550 3584 
Q 5097 3584 5394 3201 
Q 5691 2819 5691 2113 
L 5691 0 
L 5113 0 
L 5113 2094 
Q 5113 2597 4934 2840 
Q 4756 3084 4391 3084 
Q 3944 3084 3684 2787 
Q 3425 2491 3425 1978 
L 3425 0 
L 2847 0 
L 2847 2094 
Q 2847 2600 2669 2842 
Q 2491 3084 2119 3084 
Q 1678 3084 1418 2786 
Q 1159 2488 1159 1978 
L 1159 0 
L 581 0 
L 581 3500 
L 1159 3500 
L 1159 2956 
Q 1356 3278 1631 3431 
Q 1906 3584 2284 3584 
Q 2666 3584 2933 3390 
Q 3200 3197 3328 2828 
z
" transform="scale(0.015625)"/>
       <path id="DejaVuSans-5d" d="M 1947 4863 
L 1947 -844 
L 622 -844 
L 622 -397 
L 1369 -397 
L 1369 4416 
L 622 4416 
L 622 4863 
L 1947 4863 
z
" transform="scale(0.015625)"/>
      </defs>
      <use xlink:href="#DejaVuSans-44"/>
      <use xlink:href="#DejaVuSans-69" x="77.001953"/>
      <use xlink:href="#DejaVuSans-73" x="104.785156"/>
      <use xlink:href="#DejaVuSans-74" x="156.884766"/>
      <use xlink:href="#DejaVuSans-61" x="196.09375"/>
      <use xlink:href="#DejaVuSans-6e" x="257.373047"/>
      <use xlink:href="#DejaVuSans-63" x="320.751953"/>
      <use xlink:href="#DejaVuSans-65" x="375.732422"/>
      <use xlink:href="#DejaVuSans-20" x="437.255859"/>
      <use xlink:href="#DejaVuSans-62" x="469.042969"/>
      <use xlink:href="#DejaVuSans-65" x="532.519531"/>
      <use xlink:href="#DejaVuSans-65" x="594.042969"/>
      <use xlink:href="#DejaVuSans-74" x="655.566406"/>
      <use xlink:href="#DejaVuSans-77" x="694.775391"/>
      <use xlink:href="#DejaVuSans-65" x="776.5625"/>
      <use xlink:href="#DejaVuSans-6e" x="838.085938"/>
      <use xlink:href="#DejaVuSans-20" x="901.464844"/>
      <use xlink:href="#DejaVuSans-41" x="933.251953"/>
      <use xlink:href="#DejaVuSans-50" x="1001.660156"/>
      <use xlink:href="#DejaVuSans-20" x="1061.962891"/>
      <use xlink:href="#DejaVuSans-61" x="1093.75"/>
      <use xlink:href="#DejaVuSans-6e" x="1155.029297"/>
      <use xlink:href="#DejaVuSans-64" x="1218.408203"/>
      <use xlink:href="#DejaVuSans-20" x="1281.884766"/>
      <use xlink:href="#DejaVuSans-53" x="1313.671875"/>
      <use xlink:href="#DejaVuSans-54" x="1377.148438"/>
      <use xlink:href="#DejaVuSans-41" x="1430.482422"/>
      <use xlink:href="#DejaVuSans-73" x="1498.890625"/>
      <use xlink:href="#DejaVuSans-20" x="1550.990234"/>
      <use xlink:href="#DejaVuSans-5b" x="1582.777344"/>
      <use xlink:href="#DejaVuSans-6d" x="1621.791016"/>
      <use xlink:href="#DejaVuSans-5d" x="1719.203125"/>
     </g>
    </g>
   </g>
   <g id="matplotlib.axis_2">
    <g id="ytick_1">
     <g id="line2d_19">
      <path d="M 56.50625 270.801339 
L 413.62625 270.801339 
" clip-path="url(#pccdcba6d2b)" style="fill: none; stroke-dasharray: 1.85,0.8; stroke-dashoffset: 0; stroke: #ffffff; stroke-width: 0.5"/>
     </g>
     <g id="line2d_20">
      <defs>
       <path id="m4ca3b7da69" d="M 0 0 
L -3.5 0 
" style="stroke: #000000; stroke-width: 0.8"/>
      </defs>
      <g>
       <use xlink:href="#m4ca3b7da69" x="56.50625" y="270.801339" style="stroke: #000000; stroke-width: 0.8"/>
      </g>
     </g>
     <g id="text_11">
      <!-- 0.000 -->
      <g transform="translate(20.878125 274.600558) scale(0.1 -0.1)">
       <defs>
        <path id="DejaVuSans-2e" d="M 684 794 
L 1344 794 
L 1344 0 
L 684 0 
L 684 794 
z
" transform="scale(0.015625)"/>
       </defs>
       <use xlink:href="#DejaVuSans-30"/>
       <use xlink:href="#DejaVuSans-2e" x="63.623047"/>
       <use xlink:href="#DejaVuSans-30" x="95.410156"/>
       <use xlink:href="#DejaVuSans-30" x="159.033203"/>
       <use xlink:href="#DejaVuSans-30" x="222.65625"/>
      </g>
     </g>
    </g>
    <g id="ytick_2">
     <g id="line2d_21">
      <path d="M 56.50625 222.315111 
L 413.62625 222.315111 
" clip-path="url(#pccdcba6d2b)" style="fill: none; stroke-dasharray: 1.85,0.8; stroke-dashoffset: 0; stroke: #ffffff; stroke-width: 0.5"/>
     </g>
     <g id="line2d_22">
      <g>
       <use xlink:href="#m4ca3b7da69" x="56.50625" y="222.315111" style="stroke: #000000; stroke-width: 0.8"/>
      </g>
     </g>
     <g id="text_12">
      <!-- 0.001 -->
      <g transform="translate(20.878125 226.11433) scale(0.1 -0.1)">
       <use xlink:href="#DejaVuSans-30"/>
       <use xlink:href="#DejaVuSans-2e" x="63.623047"/>
       <use xlink:href="#DejaVuSans-30" x="95.410156"/>
       <use xlink:href="#DejaVuSans-30" x="159.033203"/>
       <use xlink:href="#DejaVuSans-31" x="222.65625"/>
      </g>
     </g>
    </g>
    <g id="ytick_3">
     <g id="line2d_23">
      <path d="M 56.50625 173.828883 
L 413.62625 173.828883 
" clip-path="url(#pccdcba6d2b)" style="fill: none; stroke-dasharray: 1.85,0.8; stroke-dashoffset: 0; stroke: #ffffff; stroke-width: 0.5"/>
     </g>
     <g id="line2d_24">
      <g>
       <use xlink:href="#m4ca3b7da69" x="56.50625" y="173.828883" style="stroke: #000000; stroke-width: 0.8"/>
      </g>
     </g>
     <g id="text_13">
      <!-- 0.002 -->
      <g transform="translate(20.878125 177.628101) scale(0.1 -0.1)">
       <use xlink:href="#DejaVuSans-30"/>
       <use xlink:href="#DejaVuSans-2e" x="63.623047"/>
       <use xlink:href="#DejaVuSans-30" x="95.410156"/>
       <use xlink:href="#DejaVuSans-30" x="159.033203"/>
       <use xlink:href="#DejaVuSans-32" x="222.65625"/>
      </g>
     </g>
    </g>
    <g id="ytick_4">
     <g id="line2d_25">
      <path d="M 56.50625 125.342654 
L 413.62625 125.342654 
" clip-path="url(#pccdcba6d2b)" style="fill: none; stroke-dasharray: 1.85,0.8; stroke-dashoffset: 0; stroke: #ffffff; stroke-width: 0.5"/>
     </g>
     <g id="line2d_26">
      <g>
       <use xlink:href="#m4ca3b7da69" x="56.50625" y="125.342654" style="stroke: #000000; stroke-width: 0.8"/>
      </g>
     </g>
     <g id="text_14">
      <!-- 0.003 -->
      <g transform="translate(20.878125 129.141873) scale(0.1 -0.1)">
       <use xlink:href="#DejaVuSans-30"/>
       <use xlink:href="#DejaVuSans-2e" x="63.623047"/>
       <use xlink:href="#DejaVuSans-30" x="95.410156"/>
       <use xlink:href="#DejaVuSans-30" x="159.033203"/>
       <use xlink:href="#DejaVuSans-33" x="222.65625"/>
      </g>
     </g>
    </g>
    <g id="ytick_5">
     <g id="line2d_27">
      <path d="M 56.50625 76.856426 
L 413.62625 76.856426 
" clip-path="url(#pccdcba6d2b)" style="fill: none; stroke-dasharray: 1.85,0.8; stroke-dashoffset: 0; stroke: #ffffff; stroke-width: 0.5"/>
     </g>
     <g id="line2d_28">
      <g>
       <use xlink:href="#m4ca3b7da69" x="56.50625" y="76.856426" style="stroke: #000000; stroke-width: 0.8"/>
      </g>
     </g>
     <g id="text_15">
      <!-- 0.004 -->
      <g transform="translate(20.878125 80.655645) scale(0.1 -0.1)">
       <use xlink:href="#DejaVuSans-30"/>
       <use xlink:href="#DejaVuSans-2e" x="63.623047"/>
       <use xlink:href="#DejaVuSans-30" x="95.410156"/>
       <use xlink:href="#DejaVuSans-30" x="159.033203"/>
       <use xlink:href="#DejaVuSans-34" x="222.65625"/>
      </g>
     </g>
    </g>
    <g id="ytick_6">
     <g id="line2d_29">
      <path d="M 56.50625 28.370198 
L 413.62625 28.370198 
" clip-path="url(#pccdcba6d2b)" style="fill: none; stroke-dasharray: 1.85,0.8; stroke-dashoffset: 0; stroke: #ffffff; stroke-width: 0.5"/>
     </g>
     <g id="line2d_30">
      <g>
       <use xlink:href="#m4ca3b7da69" x="56.50625" y="28.370198" style="stroke: #000000; stroke-width: 0.8"/>
      </g>
     </g>
     <g id="text_16">
      <!-- 0.005 -->
      <g transform="translate(20.878125 32.169416) scale(0.1 -0.1)">
       <use xlink:href="#DejaVuSans-30"/>
       <use xlink:href="#DejaVuSans-2e" x="63.623047"/>
       <use xlink:href="#DejaVuSans-30" x="95.410156"/>
       <use xlink:href="#DejaVuSans-30" x="159.033203"/>
       <use xlink:href="#DejaVuSans-35" x="222.65625"/>
      </g>
     </g>
    </g>
    <g id="text_17">
     <!-- Average jitter [s] -->
     <g transform="translate(14.798437 182.303656) rotate(-90) scale(0.1 -0.1)">
      <defs>
       <path id="DejaVuSans-76" d="M 191 3500 
L 800 3500 
L 1894 563 
L 2988 3500 
L 3597 3500 
L 2284 0 
L 1503 0 
L 191 3500 
z
" transform="scale(0.015625)"/>
       <path id="DejaVuSans-72" d="M 2631 2963 
Q 2534 3019 2420 3045 
Q 2306 3072 2169 3072 
Q 1681 3072 1420 2755 
Q 1159 2438 1159 1844 
L 1159 0 
L 581 0 
L 581 3500 
L 1159 3500 
L 1159 2956 
Q 1341 3275 1631 3429 
Q 1922 3584 2338 3584 
Q 2397 3584 2469 3576 
Q 2541 3569 2628 3553 
L 2631 2963 
z
" transform="scale(0.015625)"/>
       <path id="DejaVuSans-67" d="M 2906 1791 
Q 2906 2416 2648 2759 
Q 2391 3103 1925 3103 
Q 1463 3103 1205 2759 
Q 947 2416 947 1791 
Q 947 1169 1205 825 
Q 1463 481 1925 481 
Q 2391 481 2648 825 
Q 2906 1169 2906 1791 
z
M 3481 434 
Q 3481 -459 3084 -895 
Q 2688 -1331 1869 -1331 
Q 1566 -1331 1297 -1286 
Q 1028 -1241 775 -1147 
L 775 -588 
Q 1028 -725 1275 -790 
Q 1522 -856 1778 -856 
Q 2344 -856 2625 -561 
Q 2906 -266 2906 331 
L 2906 616 
Q 2728 306 2450 153 
Q 2172 0 1784 0 
Q 1141 0 747 490 
Q 353 981 353 1791 
Q 353 2603 747 3093 
Q 1141 3584 1784 3584 
Q 2172 3584 2450 3431 
Q 2728 3278 2906 2969 
L 2906 3500 
L 3481 3500 
L 3481 434 
z
" transform="scale(0.015625)"/>
       <path id="DejaVuSans-6a" d="M 603 3500 
L 1178 3500 
L 1178 -63 
Q 1178 -731 923 -1031 
Q 669 -1331 103 -1331 
L -116 -1331 
L -116 -844 
L 38 -844 
Q 366 -844 484 -692 
Q 603 -541 603 -63 
L 603 3500 
z
M 603 4863 
L 1178 4863 
L 1178 4134 
L 603 4134 
L 603 4863 
z
" transform="scale(0.015625)"/>
      </defs>
      <use xlink:href="#DejaVuSans-41"/>
      <use xlink:href="#DejaVuSans-76" x="62.533203"/>
      <use xlink:href="#DejaVuSans-65" x="121.712891"/>
      <use xlink:href="#DejaVuSans-72" x="183.236328"/>
      <use xlink:href="#DejaVuSans-61" x="224.349609"/>
      <use xlink:href="#DejaVuSans-67" x="285.628906"/>
      <use xlink:href="#DejaVuSans-65" x="349.105469"/>
      <use xlink:href="#DejaVuSans-20" x="410.628906"/>
      <use xlink:href="#DejaVuSans-6a" x="442.416016"/>
      <use xlink:href="#DejaVuSans-69" x="470.199219"/>
      <use xlink:href="#DejaVuSans-74" x="497.982422"/>
      <use xlink:href="#DejaVuSans-74" x="537.191406"/>
      <use xlink:href="#DejaVuSans-65" x="576.400391"/>
      <use xlink:href="#DejaVuSans-72" x="637.923828"/>
      <use xlink:href="#DejaVuSans-20" x="679.037109"/>
      <use xlink:href="#DejaVuSans-5b" x="710.824219"/>
      <use xlink:href="#DejaVuSans-73" x="749.837891"/>
      <use xlink:href="#DejaVuSans-5d" x="801.9375"/>
     </g>
    </g>
   </g>
   <g id="line2d_31">
    <path d="M 72.738977 237.497184 
L 89.826059 237.497184 
L 106.91314 233.404623 
L 124.000221 230.068253 
L 141.087303 219.774271 
L 158.174384 219.774271 
L 175.261465 219.909548 
L 192.348547 213.680684 
L 209.435628 203.220426 
L 226.522709 203.218487 
L 243.609791 203.677005 
L 260.696872 185.044879 
L 277.783953 186.444191 
L 294.871035 174.350595 
L 311.958116 144.716943 
L 329.045197 140.354476 
L 346.132279 142.602135 
L 363.21936 150.217221 
L 380.306441 146.625199 
L 397.393523 35.612424 
" clip-path="url(#pccdcba6d2b)" style="fill: none; stroke: #000000; stroke-width: 1.5; stroke-linecap: square"/>
    <defs>
     <path id="m36b44facb8" d="M 0 4 
C 1.060812 4 2.078319 3.578535 2.828427 2.828427 
C 3.578535 2.078319 4 1.060812 4 0 
C 4 -1.060812 3.578535 -2.078319 2.828427 -2.828427 
C 2.078319 -3.578535 1.060812 -4 0 -4 
C -1.060812 -4 -2.078319 -3.578535 -2.828427 -2.828427 
C -3.578535 -2.078319 -4 -1.060812 -4 0 
C -4 1.060812 -3.578535 2.078319 -2.828427 2.828427 
C -2.078319 3.578535 -1.060812 4 0 4 
z
" style="stroke: #ffffff; stroke-width: 0.75"/>
    </defs>
    <g clip-path="url(#pccdcba6d2b)">
     <use xlink:href="#m36b44facb8" x="72.738977" y="237.497184" style="stroke: #ffffff; stroke-width: 0.75"/>
     <use xlink:href="#m36b44facb8" x="89.826059" y="237.497184" style="stroke: #ffffff; stroke-width: 0.75"/>
     <use xlink:href="#m36b44facb8" x="106.91314" y="233.404623" style="stroke: #ffffff; stroke-width: 0.75"/>
     <use xlink:href="#m36b44facb8" x="124.000221" y="230.068253" style="stroke: #ffffff; stroke-width: 0.75"/>
     <use xlink:href="#m36b44facb8" x="141.087303" y="219.774271" style="stroke: #ffffff; stroke-width: 0.75"/>
     <use xlink:href="#m36b44facb8" x="158.174384" y="219.774271" style="stroke: #ffffff; stroke-width: 0.75"/>
     <use xlink:href="#m36b44facb8" x="175.261465" y="219.909548" style="stroke: #ffffff; stroke-width: 0.75"/>
     <use xlink:href="#m36b44facb8" x="192.348547" y="213.680684" style="stroke: #ffffff; stroke-width: 0.75"/>
     <use xlink:href="#m36b44facb8" x="209.435628" y="203.220426" style="stroke: #ffffff; stroke-width: 0.75"/>
     <use xlink:href="#m36b44facb8" x="226.522709" y="203.218487" style="stroke: #ffffff; stroke-width: 0.75"/>
     <use xlink:href="#m36b44facb8" x="243.609791" y="203.677005" style="stroke: #ffffff; stroke-width: 0.75"/>
     <use xlink:href="#m36b44facb8" x="260.696872" y="185.044879" style="stroke: #ffffff; stroke-width: 0.75"/>
     <use xlink:href="#m36b44facb8" x="277.783953" y="186.444191" style="stroke: #ffffff; stroke-width: 0.75"/>
     <use xlink:href="#m36b44facb8" x="294.871035" y="174.350595" style="stroke: #ffffff; stroke-width: 0.75"/>
     <use xlink:href="#m36b44facb8" x="311.958116" y="144.716943" style="stroke: #ffffff; stroke-width: 0.75"/>
     <use xlink:href="#m36b44facb8" x="329.045197" y="140.354476" style="stroke: #ffffff; stroke-width: 0.75"/>
     <use xlink:href="#m36b44facb8" x="346.132279" y="142.602135" style="stroke: #ffffff; stroke-width: 0.75"/>
     <use xlink:href="#m36b44facb8" x="363.21936" y="150.217221" style="stroke: #ffffff; stroke-width: 0.75"/>
     <use xlink:href="#m36b44facb8" x="380.306441" y="146.625199" style="stroke: #ffffff; stroke-width: 0.75"/>
     <use xlink:href="#m36b44facb8" x="397.393523" y="35.612424" style="stroke: #ffffff; stroke-width: 0.75"/>
    </g>
   </g>
   <g id="line2d_32">
    <path d="M 72.738977 256.152502 
L 89.826059 258.421626 
L 106.91314 252.351457 
L 124.000221 253.50189 
L 141.087303 248.150804 
L 158.174384 248.15019 
L 175.261465 244.821303 
L 192.348547 241.281372 
L 209.435628 240.086946 
L 226.522709 241.30833 
L 243.609791 239.208683 
L 294.871035 236.471005 
L 311.958116 209.885521 
L 329.045197 187.22886 
L 346.132279 187.305145 
L 363.21936 187.753158 
L 380.306441 186.84792 
L 397.393523 146.744152 
" clip-path="url(#pccdcba6d2b)" style="fill: none; stroke: #8b0000; stroke-width: 1.5; stroke-linecap: square"/>
    <defs>
     <path id="m1b989a5193" d="M 0 4 
C 1.060812 4 2.078319 3.578535 2.828427 2.828427 
C 3.578535 2.078319 4 1.060812 4 0 
C 4 -1.060812 3.578535 -2.078319 2.828427 -2.828427 
C 2.078319 -3.578535 1.060812 -4 0 -4 
C -1.060812 -4 -2.078319 -3.578535 -2.828427 -2.828427 
C -3.578535 -2.078319 -4 -1.060812 -4 0 
C -4 1.060812 -3.578535 2.078319 -2.828427 2.828427 
C -2.078319 3.578535 -1.060812 4 0 4 
z
" style="stroke: #ffffff; stroke-width: 0.75"/>
    </defs>
    <g clip-path="url(#pccdcba6d2b)">
     <use xlink:href="#m1b989a5193" x="72.738977" y="256.152502" style="fill: #8b0000; stroke: #ffffff; stroke-width: 0.75"/>
     <use xlink:href="#m1b989a5193" x="89.826059" y="258.421626" style="fill: #8b0000; stroke: #ffffff; stroke-width: 0.75"/>
     <use xlink:href="#m1b989a5193" x="106.91314" y="252.351457" style="fill: #8b0000; stroke: #ffffff; stroke-width: 0.75"/>
     <use xlink:href="#m1b989a5193" x="124.000221" y="253.50189" style="fill: #8b0000; stroke: #ffffff; stroke-width: 0.75"/>
     <use xlink:href="#m1b989a5193" x="141.087303" y="248.150804" style="fill: #8b0000; stroke: #ffffff; stroke-width: 0.75"/>
     <use xlink:href="#m1b989a5193" x="158.174384" y="248.15019" style="fill: #8b0000; stroke: #ffffff; stroke-width: 0.75"/>
     <use xlink:href="#m1b989a5193" x="175.261465" y="244.821303" style="fill: #8b0000; stroke: #ffffff; stroke-width: 0.75"/>
     <use xlink:href="#m1b989a5193" x="192.348547" y="241.281372" style="fill: #8b0000; stroke: #ffffff; stroke-width: 0.75"/>
     <use xlink:href="#m1b989a5193" x="209.435628" y="240.086946" style="fill: #8b0000; stroke: #ffffff; stroke-width: 0.75"/>
     <use xlink:href="#m1b989a5193" x="226.522709" y="241.30833" style="fill: #8b0000; stroke: #ffffff; stroke-width: 0.75"/>
     <use xlink:href="#m1b989a5193" x="243.609791" y="239.208683" style="fill: #8b0000; stroke: #ffffff; stroke-width: 0.75"/>
     <use xlink:href="#m1b989a5193" x="294.871035" y="236.471005" style="fill: #8b0000; stroke: #ffffff; stroke-width: 0.75"/>
     <use xlink:href="#m1b989a5193" x="311.958116" y="209.885521" style="fill: #8b0000; stroke: #ffffff; stroke-width: 0.75"/>
     <use xlink:href="#m1b989a5193" x="329.045197" y="187.22886" style="fill: #8b0000; stroke: #ffffff; stroke-width: 0.75"/>
     <use xlink:href="#m1b989a5193" x="346.132279" y="187.305145" style="fill: #8b0000; stroke: #ffffff; stroke-width: 0.75"/>
     <use xlink:href="#m1b989a5193" x="363.21936" y="187.753158" style="fill: #8b0000; stroke: #ffffff; stroke-width: 0.75"/>
     <use xlink:href="#m1b989a5193" x="380.306441" y="186.84792" style="fill: #8b0000; stroke: #ffffff; stroke-width: 0.75"/>
     <use xlink:href="#m1b989a5193" x="397.393523" y="146.744152" style="fill: #8b0000; stroke: #ffffff; stroke-width: 0.75"/>
    </g>
   </g>
   <g id="line2d_33">
    <path d="M 72.738977 259.917781 
L 89.826059 259.917781 
L 106.91314 259.917781 
L 124.000221 259.897756 
L 141.087303 258.515608 
L 158.174384 257.409104 
L 175.261465 257.37985 
L 192.348547 255.712167 
L 209.435628 253.569916 
L 226.522709 253.597715 
L 243.609791 253.597715 
L 260.696872 253.603032 
L 277.783953 253.520347 
L 294.871035 256.961479 
L 311.958116 250.833644 
L 329.045197 248.52439 
L 346.132279 248.524568 
L 363.21936 248.601984 
L 380.306441 248.662899 
L 397.393523 248.573232 
" clip-path="url(#pccdcba6d2b)" style="fill: none; stroke: #556b2f; stroke-width: 1.5; stroke-linecap: square"/>
    <defs>
     <path id="mee23822755" d="M 0 4 
C 1.060812 4 2.078319 3.578535 2.828427 2.828427 
C 3.578535 2.078319 4 1.060812 4 0 
C 4 -1.060812 3.578535 -2.078319 2.828427 -2.828427 
C 2.078319 -3.578535 1.060812 -4 0 -4 
C -1.060812 -4 -2.078319 -3.578535 -2.828427 -2.828427 
C -3.578535 -2.078319 -4 -1.060812 -4 0 
C -4 1.060812 -3.578535 2.078319 -2.828427 2.828427 
C -2.078319 3.578535 -1.060812 4 0 4 
z
" style="stroke: #ffffff; stroke-width: 0.75"/>
    </defs>
    <g clip-path="url(#pccdcba6d2b)">
     <use xlink:href="#mee23822755" x="72.738977" y="259.917781" style="fill: #556b2f; stroke: #ffffff; stroke-width: 0.75"/>
     <use xlink:href="#mee23822755" x="89.826059" y="259.917781" style="fill: #556b2f; stroke: #ffffff; stroke-width: 0.75"/>
     <use xlink:href="#mee23822755" x="106.91314" y="259.917781" style="fill: #556b2f; stroke: #ffffff; stroke-width: 0.75"/>
     <use xlink:href="#mee23822755" x="124.000221" y="259.897756" style="fill: #556b2f; stroke: #ffffff; stroke-width: 0.75"/>
     <use xlink:href="#mee23822755" x="141.087303" y="258.515608" style="fill: #556b2f; stroke: #ffffff; stroke-width: 0.75"/>
     <use xlink:href="#mee23822755" x="158.174384" y="257.409104" style="fill: #556b2f; stroke: #ffffff; stroke-width: 0.75"/>
     <use xlink:href="#mee23822755" x="175.261465" y="257.37985" style="fill: #556b2f; stroke: #ffffff; stroke-width: 0.75"/>
     <use xlink:href="#mee23822755" x="192.348547" y="255.712167" style="fill: #556b2f; stroke: #ffffff; stroke-width: 0.75"/>
     <use xlink:href="#mee23822755" x="209.435628" y="253.569916" style="fill: #556b2f; stroke: #ffffff; stroke-width: 0.75"/>
     <use xlink:href="#mee23822755" x="226.522709" y="253.597715" style="fill: #556b2f; stroke: #ffffff; stroke-width: 0.75"/>
     <use xlink:href="#mee23822755" x="243.609791" y="253.597715" style="fill: #556b2f; stroke: #ffffff; stroke-width: 0.75"/>
     <use xlink:href="#mee23822755" x="260.696872" y="253.603032" style="fill: #556b2f; stroke: #ffffff; stroke-width: 0.75"/>
     <use xlink:href="#mee23822755" x="277.783953" y="253.520347" style="fill: #556b2f; stroke: #ffffff; stroke-width: 0.75"/>
     <use xlink:href="#mee23822755" x="294.871035" y="256.961479" style="fill: #556b2f; stroke: #ffffff; stroke-width: 0.75"/>
     <use xlink:href="#mee23822755" x="311.958116" y="250.833644" style="fill: #556b2f; stroke: #ffffff; stroke-width: 0.75"/>
     <use xlink:href="#mee23822755" x="329.045197" y="248.52439" style="fill: #556b2f; stroke: #ffffff; stroke-width: 0.75"/>
     <use xlink:href="#mee23822755" x="346.132279" y="248.524568" style="fill: #556b2f; stroke: #ffffff; stroke-width: 0.75"/>
     <use xlink:href="#mee23822755" x="363.21936" y="248.601984" style="fill: #556b2f; stroke: #ffffff; stroke-width: 0.75"/>
     <use xlink:href="#mee23822755" x="380.306441" y="248.662899" style="fill: #556b2f; stroke: #ffffff; stroke-width: 0.75"/>
     <use xlink:href="#mee23822755" x="397.393523" y="248.573232" style="fill: #556b2f; stroke: #ffffff; stroke-width: 0.75"/>
    </g>
   </g>
   <g id="line2d_34"/>
   <g id="line2d_35"/>
   <g id="line2d_36"/>
   <g id="line2d_37"/>
   <g id="line2d_38"/>
   <g id="line2d_39"/>
   <g id="patch_3">
    <path d="M 56.50625 273.312 
L 56.50625 7.2 
" style="fill: none; stroke: #000000; stroke-width: 0.8; stroke-linejoin: miter; stroke-linecap: square"/>
   </g>
   <g id="patch_4">
    <path d="M 413.62625 273.312 
L 413.62625 7.2 
" style="fill: none; stroke: #000000; stroke-width: 0.8; stroke-linejoin: miter; stroke-linecap: square"/>
   </g>
   <g id="patch_5">
    <path d="M 56.50625 273.312 
L 413.62625 273.312 
" style="fill: none; stroke: #000000; stroke-width: 0.8; stroke-linejoin: miter; stroke-linecap: square"/>
   </g>
   <g id="patch_6">
    <path d="M 56.50625 7.2 
L 413.62625 7.2 
" style="fill: none; stroke: #000000; stroke-width: 0.8; stroke-linejoin: miter; stroke-linecap: square"/>
   </g>
   <g id="legend_1">
    <g id="patch_7">
     <path d="M 63.50625 103.26875 
L 158.571875 103.26875 
Q 160.571875 103.26875 160.571875 101.26875 
L 160.571875 14.2 
Q 160.571875 12.2 158.571875 12.2 
L 63.50625 12.2 
Q 61.50625 12.2 61.50625 14.2 
L 61.50625 101.26875 
Q 61.50625 103.26875 63.50625 103.26875 
z
" style="fill: #ffffff; opacity: 0.8; stroke: #cccccc; stroke-linejoin: miter"/>
    </g>
    <g id="line2d_40">
     <path d="M 65.50625 20.298437 
L 75.50625 20.298437 
L 85.50625 20.298437 
" style="fill: none"/>
    </g>
    <g id="text_18">
     <!-- linksNumber -->
     <g transform="translate(93.50625 23.798437) scale(0.1 -0.1)">
      <defs>
       <path id="DejaVuSans-6c" d="M 603 4863 
L 1178 4863 
L 1178 0 
L 603 0 
L 603 4863 
z
" transform="scale(0.015625)"/>
       <path id="DejaVuSans-6b" d="M 581 4863 
L 1159 4863 
L 1159 1991 
L 2875 3500 
L 3609 3500 
L 1753 1863 
L 3688 0 
L 2938 0 
L 1159 1709 
L 1159 0 
L 581 0 
L 581 4863 
z
" transform="scale(0.015625)"/>
       <path id="DejaVuSans-4e" d="M 628 4666 
L 1478 4666 
L 3547 763 
L 3547 4666 
L 4159 4666 
L 4159 0 
L 3309 0 
L 1241 3903 
L 1241 0 
L 628 0 
L 628 4666 
z
" transform="scale(0.015625)"/>
       <path id="DejaVuSans-75" d="M 544 1381 
L 544 3500 
L 1119 3500 
L 1119 1403 
Q 1119 906 1312 657 
Q 1506 409 1894 409 
Q 2359 409 2629 706 
Q 2900 1003 2900 1516 
L 2900 3500 
L 3475 3500 
L 3475 0 
L 2900 0 
L 2900 538 
Q 2691 219 2414 64 
Q 2138 -91 1772 -91 
Q 1169 -91 856 284 
Q 544 659 544 1381 
z
M 1991 3584 
L 1991 3584 
z
" transform="scale(0.015625)"/>
      </defs>
      <use xlink:href="#DejaVuSans-6c"/>
      <use xlink:href="#DejaVuSans-69" x="27.783203"/>
      <use xlink:href="#DejaVuSans-6e" x="55.566406"/>
      <use xlink:href="#DejaVuSans-6b" x="118.945312"/>
      <use xlink:href="#DejaVuSans-73" x="176.855469"/>
      <use xlink:href="#DejaVuSans-4e" x="228.955078"/>
      <use xlink:href="#DejaVuSans-75" x="303.759766"/>
      <use xlink:href="#DejaVuSans-6d" x="367.138672"/>
      <use xlink:href="#DejaVuSans-62" x="464.550781"/>
      <use xlink:href="#DejaVuSans-65" x="528.027344"/>
      <use xlink:href="#DejaVuSans-72" x="589.550781"/>
     </g>
    </g>
    <g id="line2d_41">
     <path d="M 65.50625 34.976562 
L 75.50625 34.976562 
L 85.50625 34.976562 
" style="fill: none; stroke: #000000; stroke-width: 1.5; stroke-linecap: square"/>
    </g>
    <g id="text_19">
     <!-- 1 -->
     <g transform="translate(93.50625 38.476562) scale(0.1 -0.1)">
      <use xlink:href="#DejaVuSans-31"/>
     </g>
    </g>
    <g id="line2d_42">
     <path d="M 65.50625 49.654687 
L 75.50625 49.654687 
L 85.50625 49.654687 
" style="fill: none; stroke: #8b0000; stroke-width: 1.5; stroke-linecap: square"/>
    </g>
    <g id="text_20">
     <!-- 2 -->
     <g transform="translate(93.50625 53.154687) scale(0.1 -0.1)">
      <use xlink:href="#DejaVuSans-32"/>
     </g>
    </g>
    <g id="line2d_43">
     <path d="M 65.50625 64.332812 
L 75.50625 64.332812 
L 85.50625 64.332812 
" style="fill: none; stroke: #556b2f; stroke-width: 1.5; stroke-linecap: square"/>
    </g>
    <g id="text_21">
     <!-- 3 -->
     <g transform="translate(93.50625 67.832812) scale(0.1 -0.1)">
      <use xlink:href="#DejaVuSans-33"/>
     </g>
    </g>
    <g id="line2d_44">
     <path d="M 65.50625 79.010937 
L 75.50625 79.010937 
L 85.50625 79.010937 
" style="fill: none"/>
    </g>
    <g id="text_22">
     <!-- nStations -->
     <g transform="translate(93.50625 82.510937) scale(0.1 -0.1)">
      <defs>
       <path id="DejaVuSans-6f" d="M 1959 3097 
Q 1497 3097 1228 2736 
Q 959 2375 959 1747 
Q 959 1119 1226 758 
Q 1494 397 1959 397 
Q 2419 397 2687 759 
Q 2956 1122 2956 1747 
Q 2956 2369 2687 2733 
Q 2419 3097 1959 3097 
z
M 1959 3584 
Q 2709 3584 3137 3096 
Q 3566 2609 3566 1747 
Q 3566 888 3137 398 
Q 2709 -91 1959 -91 
Q 1206 -91 779 398 
Q 353 888 353 1747 
Q 353 2609 779 3096 
Q 1206 3584 1959 3584 
z
" transform="scale(0.015625)"/>
      </defs>
      <use xlink:href="#DejaVuSans-6e"/>
      <use xlink:href="#DejaVuSans-53" x="63.378906"/>
      <use xlink:href="#DejaVuSans-74" x="126.855469"/>
      <use xlink:href="#DejaVuSans-61" x="166.064453"/>
      <use xlink:href="#DejaVuSans-74" x="227.34375"/>
      <use xlink:href="#DejaVuSans-69" x="266.552734"/>
      <use xlink:href="#DejaVuSans-6f" x="294.335938"/>
      <use xlink:href="#DejaVuSans-6e" x="355.517578"/>
      <use xlink:href="#DejaVuSans-73" x="418.896484"/>
     </g>
    </g>
    <g id="line2d_45">
     <path d="M 65.50625 93.689062 
L 75.50625 93.689062 
L 85.50625 93.689062 
" style="fill: none; stroke: #333333; stroke-width: 1.5; stroke-linecap: square"/>
     <defs>
      <path id="m79c571dfe5" d="M 0 3 
C 0.795609 3 1.55874 2.683901 2.12132 2.12132 
C 2.683901 1.55874 3 0.795609 3 0 
C 3 -0.795609 2.683901 -1.55874 2.12132 -2.12132 
C 1.55874 -2.683901 0.795609 -3 0 -3 
C -0.795609 -3 -1.55874 -2.683901 -2.12132 -2.12132 
C -2.683901 -1.55874 -3 -0.795609 -3 0 
C -3 0.795609 -2.683901 1.55874 -2.12132 2.12132 
C -1.55874 2.683901 -0.795609 3 0 3 
z
" style="stroke: #ffffff; stroke-width: 0.75"/>
     </defs>
     <g>
      <use xlink:href="#m79c571dfe5" x="75.50625" y="93.689062" style="fill: #333333; stroke: #ffffff; stroke-width: 0.75"/>
     </g>
    </g>
    <g id="text_23">
     <!-- 4 -->
     <g transform="translate(93.50625 97.189062) scale(0.1 -0.1)">
      <use xlink:href="#DejaVuSans-34"/>
     </g>
    </g>
   </g>
  </g>
 </g>
 <defs>
  <clipPath id="pccdcba6d2b">
   <rect x="56.50625" y="7.2" width="357.12" height="266.112"/>
  </clipPath>
 </defs>
</svg>
