<?xml version="1.0" encoding="utf-8" standalone="no"?>
<!DOCTYPE svg PUBLIC "-//W3C//DTD SVG 1.1//EN"
  "http://www.w3.org/Graphics/SVG/1.1/DTD/svg11.dtd">
<svg xmlns:xlink="http://www.w3.org/1999/xlink" width="408.10125pt" height="313.87422pt" viewBox="0 0 408.10125 313.87422" xmlns="http://www.w3.org/2000/svg" version="1.1">
 <metadata>
  <rdf:RDF xmlns:dc="http://purl.org/dc/elements/1.1/" xmlns:cc="http://creativecommons.org/ns#" xmlns:rdf="http://www.w3.org/1999/02/22-rdf-syntax-ns#">
   <cc:Work>
    <dc:type rdf:resource="http://purl.org/dc/dcmitype/StillImage"/>
    <dc:date>2025-05-02T17:09:40.060437</dc:date>
    <dc:format>image/svg+xml</dc:format>
    <dc:creator>
     <cc:Agent>
      <dc:title>Matplotlib v3.9.2, https://matplotlib.org/</dc:title>
     </cc:Agent>
    </dc:creator>
   </cc:Work>
  </rdf:RDF>
 </metadata>
 <defs>
  <style type="text/css">*{stroke-linejoin: round; stroke-linecap: butt}</style>
 </defs>
 <g id="figure_1">
  <g id="patch_1">
   <path d="M 0 313.87422 
L 408.10125 313.87422 
L 408.10125 0 
L 0 0 
z
" style="fill: #ffffff"/>
  </g>
  <g id="axes_1">
   <g id="patch_2">
    <path d="M 43.78125 276.31797 
L 400.90125 276.31797 
L 400.90125 10.20597 
L 43.78125 10.20597 
z
" style="fill: #ffffff"/>
   </g>
   <g id="PolyCollection_1">
    <defs>
     <path id="m8b50fe1da9" d="M 60.013977 -172.852894 
L 60.013977 -171.942532 
L 76.246705 -187.819631 
L 92.479432 -188.146504 
L 108.712159 -188.329467 
L 124.944886 -199.005257 
L 141.177614 -207.529206 
L 157.410341 -207.916783 
L 173.643068 -219.719435 
L 189.875795 -233.215245 
L 206.108523 -233.618683 
L 222.34125 -233.72402 
L 238.573977 -234.352719 
L 254.806705 -234.455238 
L 271.039432 -235.838504 
L 287.272159 -248.16776 
L 303.504886 -271.912515 
L 319.737614 -272.127742 
L 335.970341 -271.417255 
L 352.203068 -271.604109 
L 368.435795 -271.621514 
L 384.668523 -286.085418 
L 384.668523 -287.069857 
L 384.668523 -287.069857 
L 368.435795 -272.621871 
L 352.203068 -272.638215 
L 335.970341 -272.932613 
L 319.737614 -272.758988 
L 303.504886 -272.709655 
L 287.272159 -248.986062 
L 271.039432 -236.684563 
L 254.806705 -235.196221 
L 238.573977 -235.13212 
L 222.34125 -235.235276 
L 206.108523 -235.020898 
L 189.875795 -234.307084 
L 173.643068 -220.235639 
L 157.410341 -208.426408 
L 141.177614 -208.283985 
L 124.944886 -199.7698 
L 108.712159 -188.873265 
L 92.479432 -188.739332 
L 76.246705 -188.565919 
L 60.013977 -172.852894 
z
" style="stroke: #003f5c; stroke-opacity: 0.2"/>
    </defs>
    <g clip-path="url(#p79d0d0bd20)">
     <use xlink:href="#m8b50fe1da9" x="0" y="313.87422" style="fill: #003f5c; fill-opacity: 0.2; stroke: #003f5c; stroke-opacity: 0.2"/>
    </g>
   </g>
   <g id="PolyCollection_2">
    <defs>
     <path id="mfa89c67556" d="M 60.013977 -172.238628 
L 60.013977 -171.491703 
L 76.246705 -187.06188 
L 92.479432 -187.249089 
L 108.712159 -187.466439 
L 124.944886 -198.166001 
L 141.177614 -206.634339 
L 157.410341 -206.714905 
L 173.643068 -218.442509 
L 189.875795 -232.567442 
L 206.108523 -233.110391 
L 222.34125 -233.334744 
L 238.573977 -233.409463 
L 254.806705 -233.409246 
L 271.039432 -235.250133 
L 287.272159 -246.781523 
L 303.504886 -270.885413 
L 319.737614 -270.430763 
L 335.970341 -270.179639 
L 352.203068 -270.292585 
L 368.435795 -270.348833 
L 384.668523 -285.175693 
L 384.668523 -286.316989 
L 384.668523 -286.316989 
L 368.435795 -271.677915 
L 352.203068 -271.225233 
L 335.970341 -271.437913 
L 319.737614 -271.454028 
L 303.504886 -271.766908 
L 287.272159 -247.698725 
L 271.039432 -236.039085 
L 254.806705 -233.977665 
L 238.573977 -234.101409 
L 222.34125 -234.006531 
L 206.108523 -234.18525 
L 189.875795 -233.308212 
L 173.643068 -219.156009 
L 157.410341 -207.542578 
L 141.177614 -207.43454 
L 124.944886 -198.790031 
L 108.712159 -188.182162 
L 92.479432 -188.104902 
L 76.246705 -187.858474 
L 60.013977 -172.238628 
z
" style="stroke: #003f5c; stroke-opacity: 0.2"/>
    </defs>
    <g clip-path="url(#p79d0d0bd20)">
     <use xlink:href="#mfa89c67556" x="0" y="313.87422" style="fill: #003f5c; fill-opacity: 0.2; stroke: #003f5c; stroke-opacity: 0.2"/>
    </g>
   </g>
   <g id="PolyCollection_3">
    <defs>
     <path id="mf456f1d328" d="M 60.013977 -42.803181 
L 60.013977 -42.769763 
L 76.246705 -43.152408 
L 92.479432 -43.313656 
L 108.712159 -126.122635 
L 124.944886 -143.154662 
L 141.177614 -152.179469 
L 157.410341 -152.23508 
L 173.643068 -152.259065 
L 189.875795 -158.633082 
L 206.108523 -176.017616 
L 222.34125 -176.034596 
L 238.573977 -176.204395 
L 254.806705 -188.30942 
L 271.039432 -189.133702 
L 287.272159 -201.454892 
L 303.504886 -236.046726 
L 319.737614 -235.98305 
L 335.970341 -235.934443 
L 352.203068 -235.917463 
L 368.435795 -235.965645 
L 384.668523 -236.391853 
L 384.668523 -265.513876 
L 384.668523 -265.513876 
L 368.435795 -257.19539 
L 352.203068 -258.160726 
L 335.970341 -235.953546 
L 319.737614 -236.005973 
L 303.504886 -236.085781 
L 287.272159 -201.5018 
L 271.039432 -189.192507 
L 254.806705 -188.358122 
L 238.573977 -176.293123 
L 222.34125 -176.081929 
L 206.108523 -176.116739 
L 189.875795 -158.688693 
L 173.643068 -152.351836 
L 157.410341 -152.324864 
L 141.177614 -152.222557 
L 124.944886 -143.205137 
L 108.712159 -126.20903 
L 92.479432 -43.366992 
L 76.246705 -43.186781 
L 60.013977 -42.803181 
z
" style="stroke: #bc5090; stroke-opacity: 0.2"/>
    </defs>
    <g clip-path="url(#p79d0d0bd20)">
     <use xlink:href="#mf456f1d328" x="0" y="313.87422" style="fill: #bc5090; fill-opacity: 0.2; stroke: #bc5090; stroke-opacity: 0.2"/>
    </g>
   </g>
   <g id="PolyCollection_4">
    <defs>
     <path id="m0905fbd90b" d="M 60.013977 -52.989438 
L 60.013977 -52.877707 
L 76.246705 -52.908548 
L 92.479432 -52.908534 
L 108.712159 -52.88315 
L 124.944886 -121.386681 
L 141.177614 -131.827802 
L 157.410341 -132.016921 
L 173.643068 -146.231235 
L 189.875795 -154.485195 
L 206.108523 -154.45081 
L 222.34125 -154.458876 
L 238.573977 -154.42258 
L 254.806705 -154.510454 
L 271.039432 -155.325062 
L 287.272159 -160.202496 
L 303.504886 -180.159136 
L 319.737614 -180.114987 
L 335.970341 -180.030934 
L 352.203068 -179.966604 
L 368.435795 -180.030934 
L 384.668523 -191.323324 
L 384.668523 -249.291014 
L 384.668523 -249.291014 
L 368.435795 -235.602052 
L 352.203068 -235.52373 
L 335.970341 -180.062772 
L 319.737614 -180.149584 
L 303.504886 -180.184818 
L 287.272159 -160.291452 
L 271.039432 -155.393673 
L 254.806705 -154.548659 
L 238.573977 -154.4935 
L 222.34125 -154.561819 
L 206.108523 -154.550994 
L 189.875795 -154.569248 
L 173.643068 -146.264808 
L 157.410341 -132.189316 
L 141.177614 -132.020805 
L 124.944886 -121.527151 
L 108.712159 -52.947794 
L 92.479432 -52.979452 
L 76.246705 -52.980708 
L 60.013977 -52.989438 
z
" style="stroke: #bc5090; stroke-opacity: 0.2"/>
    </defs>
    <g clip-path="url(#p79d0d0bd20)">
     <use xlink:href="#m0905fbd90b" x="0" y="313.87422" style="fill: #bc5090; fill-opacity: 0.2; stroke: #bc5090; stroke-opacity: 0.2"/>
    </g>
   </g>
   <g id="PolyCollection_5">
    <defs>
     <path id="m2a5b0a2508" d="M 60.013977 -42.784318 
L 60.013977 -42.711311 
L 76.246705 -43.041074 
L 92.479432 -55.299282 
L 108.712159 -126.098084 
L 124.944886 -144.965007 
L 141.177614 -152.067186 
L 157.410341 -152.079285 
L 173.643068 -153.625552 
L 189.875795 -162.038714 
L 206.108523 -175.815974 
L 222.34125 -176.104428 
L 238.573977 -178.664436 
L 254.806705 -190.923436 
L 271.039432 -191.843773 
L 287.272159 -208.44169 
L 303.504886 -235.854211 
L 319.737614 -235.787276 
L 335.970341 -235.785865 
L 352.203068 -236.158213 
L 368.435795 -254.388742 
L 384.668523 -257.610985 
L 384.668523 -291.223475 
L 384.668523 -291.223475 
L 368.435795 -291.241729 
L 352.203068 -258.661011 
L 335.970341 -235.920711 
L 319.737614 -236.029746 
L 303.504886 -236.092149 
L 287.272159 -235.917251 
L 271.039432 -202.081681 
L 254.806705 -201.013189 
L 238.573977 -188.242231 
L 222.34125 -176.166412 
L 206.108523 -176.094665 
L 189.875795 -175.717095 
L 173.643068 -158.51613 
L 157.410341 -152.327835 
L 141.177614 -152.155108 
L 124.944886 -152.084379 
L 108.712159 -126.18842 
L 92.479432 -103.20634 
L 76.246705 -43.184684 
L 60.013977 -42.784318 
z
" style="stroke: #ffa600; stroke-opacity: 0.2"/>
    </defs>
    <g clip-path="url(#p79d0d0bd20)">
     <use xlink:href="#m2a5b0a2508" x="0" y="313.87422" style="fill: #ffa600; fill-opacity: 0.2; stroke: #ffa600; stroke-opacity: 0.2"/>
    </g>
   </g>
   <g id="PolyCollection_6">
    <defs>
     <path id="mdc0d8b2216" d="M 60.013977 -54.813643 
L 60.013977 -54.16289 
L 76.246705 -54.042457 
L 92.479432 -54.143299 
L 108.712159 -54.037808 
L 124.944886 -121.952943 
L 141.177614 -132.654514 
L 157.410341 -132.896803 
L 173.643068 -146.478088 
L 189.875795 -154.670069 
L 206.108523 -154.637101 
L 222.34125 -154.609789 
L 238.573977 -154.634623 
L 254.806705 -154.65033 
L 271.039432 -155.517179 
L 287.272159 -160.327514 
L 303.504886 -180.548836 
L 319.737614 -180.493437 
L 335.970341 -180.420209 
L 352.203068 -180.356957 
L 368.435795 -180.43443 
L 384.668523 -191.624302 
L 384.668523 -248.903224 
L 384.668523 -248.903224 
L 368.435795 -236.146486 
L 352.203068 -234.569432 
L 335.970341 -180.449288 
L 319.737614 -180.526125 
L 303.504886 -180.563269 
L 287.272159 -160.348119 
L 271.039432 -155.60718 
L 254.806705 -154.732472 
L 238.573977 -154.692781 
L 222.34125 -154.693417 
L 206.108523 -154.760065 
L 189.875795 -154.703181 
L 173.643068 -146.5216 
L 157.410341 -133.205846 
L 141.177614 -133.0419 
L 124.944886 -122.164044 
L 108.712159 -54.217822 
L 92.479432 -54.446336 
L 76.246705 -54.22247 
L 60.013977 -54.813643 
z
" style="stroke: #ffa600; stroke-opacity: 0.2"/>
    </defs>
    <g clip-path="url(#p79d0d0bd20)">
     <use xlink:href="#mdc0d8b2216" x="0" y="313.87422" style="fill: #ffa600; fill-opacity: 0.2; stroke: #ffa600; stroke-opacity: 0.2"/>
    </g>
   </g>
   <g id="matplotlib.axis_1">
    <g id="xtick_1">
     <g id="line2d_1">
      <path d="M 51.897614 276.31797 
L 51.897614 10.20597 
" clip-path="url(#p79d0d0bd20)" style="fill: none; stroke-dasharray: 1.85,0.8; stroke-dashoffset: 0; stroke: #ffffff; stroke-width: 0.5"/>
     </g>
     <g id="line2d_2">
      <defs>
       <path id="m4f7426fbf1" d="M 0 0 
L 0 3.5 
" style="stroke: #000000; stroke-width: 0.8"/>
      </defs>
      <g>
       <use xlink:href="#m4f7426fbf1" x="51.897614" y="276.31797" style="stroke: #000000; stroke-width: 0.8"/>
      </g>
     </g>
     <g id="text_1">
      <!-- 0 -->
      <g transform="translate(48.716364 290.916407) scale(0.1 -0.1)">
       <defs>
        <path id="DejaVuSans-30" d="M 2034 4250 
Q 1547 4250 1301 3770 
Q 1056 3291 1056 2328 
Q 1056 1369 1301 889 
Q 1547 409 2034 409 
Q 2525 409 2770 889 
Q 3016 1369 3016 2328 
Q 3016 3291 2770 3770 
Q 2525 4250 2034 4250 
z
M 2034 4750 
Q 2819 4750 3233 4129 
Q 3647 3509 3647 2328 
Q 3647 1150 3233 529 
Q 2819 -91 2034 -91 
Q 1250 -91 836 529 
Q 422 1150 422 2328 
Q 422 3509 836 4129 
Q 1250 4750 2034 4750 
z
" transform="scale(0.015625)"/>
       </defs>
       <use xlink:href="#DejaVuSans-30"/>
      </g>
     </g>
    </g>
    <g id="xtick_2">
     <g id="line2d_3">
      <path d="M 92.479432 276.31797 
L 92.479432 10.20597 
" clip-path="url(#p79d0d0bd20)" style="fill: none; stroke-dasharray: 1.85,0.8; stroke-dashoffset: 0; stroke: #ffffff; stroke-width: 0.5"/>
     </g>
     <g id="line2d_4">
      <g>
       <use xlink:href="#m4f7426fbf1" x="92.479432" y="276.31797" style="stroke: #000000; stroke-width: 0.8"/>
      </g>
     </g>
     <g id="text_2">
      <!-- 5 -->
      <g transform="translate(89.298182 290.916407) scale(0.1 -0.1)">
       <defs>
        <path id="DejaVuSans-35" d="M 691 4666 
L 3169 4666 
L 3169 4134 
L 1269 4134 
L 1269 2991 
Q 1406 3038 1543 3061 
Q 1681 3084 1819 3084 
Q 2600 3084 3056 2656 
Q 3513 2228 3513 1497 
Q 3513 744 3044 326 
Q 2575 -91 1722 -91 
Q 1428 -91 1123 -41 
Q 819 9 494 109 
L 494 744 
Q 775 591 1075 516 
Q 1375 441 1709 441 
Q 2250 441 2565 725 
Q 2881 1009 2881 1497 
Q 2881 1984 2565 2268 
Q 2250 2553 1709 2553 
Q 1456 2553 1204 2497 
Q 953 2441 691 2322 
L 691 4666 
z
" transform="scale(0.015625)"/>
       </defs>
       <use xlink:href="#DejaVuSans-35"/>
      </g>
     </g>
    </g>
    <g id="xtick_3">
     <g id="line2d_5">
      <path d="M 133.06125 276.31797 
L 133.06125 10.20597 
" clip-path="url(#p79d0d0bd20)" style="fill: none; stroke-dasharray: 1.85,0.8; stroke-dashoffset: 0; stroke: #ffffff; stroke-width: 0.5"/>
     </g>
     <g id="line2d_6">
      <g>
       <use xlink:href="#m4f7426fbf1" x="133.06125" y="276.31797" style="stroke: #000000; stroke-width: 0.8"/>
      </g>
     </g>
     <g id="text_3">
      <!-- 10 -->
      <g transform="translate(126.69875 290.916407) scale(0.1 -0.1)">
       <defs>
        <path id="DejaVuSans-31" d="M 794 531 
L 1825 531 
L 1825 4091 
L 703 3866 
L 703 4441 
L 1819 4666 
L 2450 4666 
L 2450 531 
L 3481 531 
L 3481 0 
L 794 0 
L 794 531 
z
" transform="scale(0.015625)"/>
       </defs>
       <use xlink:href="#DejaVuSans-31"/>
       <use xlink:href="#DejaVuSans-30" x="63.623047"/>
      </g>
     </g>
    </g>
    <g id="xtick_4">
     <g id="line2d_7">
      <path d="M 173.643068 276.31797 
L 173.643068 10.20597 
" clip-path="url(#p79d0d0bd20)" style="fill: none; stroke-dasharray: 1.85,0.8; stroke-dashoffset: 0; stroke: #ffffff; stroke-width: 0.5"/>
     </g>
     <g id="line2d_8">
      <g>
       <use xlink:href="#m4f7426fbf1" x="173.643068" y="276.31797" style="stroke: #000000; stroke-width: 0.8"/>
      </g>
     </g>
     <g id="text_4">
      <!-- 15 -->
      <g transform="translate(167.280568 290.916407) scale(0.1 -0.1)">
       <use xlink:href="#DejaVuSans-31"/>
       <use xlink:href="#DejaVuSans-35" x="63.623047"/>
      </g>
     </g>
    </g>
    <g id="xtick_5">
     <g id="line2d_9">
      <path d="M 214.224886 276.31797 
L 214.224886 10.20597 
" clip-path="url(#p79d0d0bd20)" style="fill: none; stroke-dasharray: 1.85,0.8; stroke-dashoffset: 0; stroke: #ffffff; stroke-width: 0.5"/>
     </g>
     <g id="line2d_10">
      <g>
       <use xlink:href="#m4f7426fbf1" x="214.224886" y="276.31797" style="stroke: #000000; stroke-width: 0.8"/>
      </g>
     </g>
     <g id="text_5">
      <!-- 20 -->
      <g transform="translate(207.862386 290.916407) scale(0.1 -0.1)">
       <defs>
        <path id="DejaVuSans-32" d="M 1228 531 
L 3431 531 
L 3431 0 
L 469 0 
L 469 531 
Q 828 903 1448 1529 
Q 2069 2156 2228 2338 
Q 2531 2678 2651 2914 
Q 2772 3150 2772 3378 
Q 2772 3750 2511 3984 
Q 2250 4219 1831 4219 
Q 1534 4219 1204 4116 
Q 875 4013 500 3803 
L 500 4441 
Q 881 4594 1212 4672 
Q 1544 4750 1819 4750 
Q 2544 4750 2975 4387 
Q 3406 4025 3406 3419 
Q 3406 3131 3298 2873 
Q 3191 2616 2906 2266 
Q 2828 2175 2409 1742 
Q 1991 1309 1228 531 
z
" transform="scale(0.015625)"/>
       </defs>
       <use xlink:href="#DejaVuSans-32"/>
       <use xlink:href="#DejaVuSans-30" x="63.623047"/>
      </g>
     </g>
    </g>
    <g id="xtick_6">
     <g id="line2d_11">
      <path d="M 254.806705 276.31797 
L 254.806705 10.20597 
" clip-path="url(#p79d0d0bd20)" style="fill: none; stroke-dasharray: 1.85,0.8; stroke-dashoffset: 0; stroke: #ffffff; stroke-width: 0.5"/>
     </g>
     <g id="line2d_12">
      <g>
       <use xlink:href="#m4f7426fbf1" x="254.806705" y="276.31797" style="stroke: #000000; stroke-width: 0.8"/>
      </g>
     </g>
     <g id="text_6">
      <!-- 25 -->
      <g transform="translate(248.444205 290.916407) scale(0.1 -0.1)">
       <use xlink:href="#DejaVuSans-32"/>
       <use xlink:href="#DejaVuSans-35" x="63.623047"/>
      </g>
     </g>
    </g>
    <g id="xtick_7">
     <g id="line2d_13">
      <path d="M 295.388523 276.31797 
L 295.388523 10.20597 
" clip-path="url(#p79d0d0bd20)" style="fill: none; stroke-dasharray: 1.85,0.8; stroke-dashoffset: 0; stroke: #ffffff; stroke-width: 0.5"/>
     </g>
     <g id="line2d_14">
      <g>
       <use xlink:href="#m4f7426fbf1" x="295.388523" y="276.31797" style="stroke: #000000; stroke-width: 0.8"/>
      </g>
     </g>
     <g id="text_7">
      <!-- 30 -->
      <g transform="translate(289.026023 290.916407) scale(0.1 -0.1)">
       <defs>
        <path id="DejaVuSans-33" d="M 2597 2516 
Q 3050 2419 3304 2112 
Q 3559 1806 3559 1356 
Q 3559 666 3084 287 
Q 2609 -91 1734 -91 
Q 1441 -91 1130 -33 
Q 819 25 488 141 
L 488 750 
Q 750 597 1062 519 
Q 1375 441 1716 441 
Q 2309 441 2620 675 
Q 2931 909 2931 1356 
Q 2931 1769 2642 2001 
Q 2353 2234 1838 2234 
L 1294 2234 
L 1294 2753 
L 1863 2753 
Q 2328 2753 2575 2939 
Q 2822 3125 2822 3475 
Q 2822 3834 2567 4026 
Q 2313 4219 1838 4219 
Q 1578 4219 1281 4162 
Q 984 4106 628 3988 
L 628 4550 
Q 988 4650 1302 4700 
Q 1616 4750 1894 4750 
Q 2613 4750 3031 4423 
Q 3450 4097 3450 3541 
Q 3450 3153 3228 2886 
Q 3006 2619 2597 2516 
z
" transform="scale(0.015625)"/>
       </defs>
       <use xlink:href="#DejaVuSans-33"/>
       <use xlink:href="#DejaVuSans-30" x="63.623047"/>
      </g>
     </g>
    </g>
    <g id="xtick_8">
     <g id="line2d_15">
      <path d="M 335.970341 276.31797 
L 335.970341 10.20597 
" clip-path="url(#p79d0d0bd20)" style="fill: none; stroke-dasharray: 1.85,0.8; stroke-dashoffset: 0; stroke: #ffffff; stroke-width: 0.5"/>
     </g>
     <g id="line2d_16">
      <g>
       <use xlink:href="#m4f7426fbf1" x="335.970341" y="276.31797" style="stroke: #000000; stroke-width: 0.8"/>
      </g>
     </g>
     <g id="text_8">
      <!-- 35 -->
      <g transform="translate(329.607841 290.916407) scale(0.1 -0.1)">
       <use xlink:href="#DejaVuSans-33"/>
       <use xlink:href="#DejaVuSans-35" x="63.623047"/>
      </g>
     </g>
    </g>
    <g id="xtick_9">
     <g id="line2d_17">
      <path d="M 376.552159 276.31797 
L 376.552159 10.20597 
" clip-path="url(#p79d0d0bd20)" style="fill: none; stroke-dasharray: 1.85,0.8; stroke-dashoffset: 0; stroke: #ffffff; stroke-width: 0.5"/>
     </g>
     <g id="line2d_18">
      <g>
       <use xlink:href="#m4f7426fbf1" x="376.552159" y="276.31797" style="stroke: #000000; stroke-width: 0.8"/>
      </g>
     </g>
     <g id="text_9">
      <!-- 40 -->
      <g transform="translate(370.189659 290.916407) scale(0.1 -0.1)">
       <defs>
        <path id="DejaVuSans-34" d="M 2419 4116 
L 825 1625 
L 2419 1625 
L 2419 4116 
z
M 2253 4666 
L 3047 4666 
L 3047 1625 
L 3713 1625 
L 3713 1100 
L 3047 1100 
L 3047 0 
L 2419 0 
L 2419 1100 
L 313 1100 
L 313 1709 
L 2253 4666 
z
" transform="scale(0.015625)"/>
       </defs>
       <use xlink:href="#DejaVuSans-34"/>
       <use xlink:href="#DejaVuSans-30" x="63.623047"/>
      </g>
     </g>
    </g>
    <g id="text_10">
     <!-- Distance beetwen APs [m] -->
     <g transform="translate(156.365469 304.594532) scale(0.1 -0.1)">
      <defs>
       <path id="DejaVuSans-44" d="M 1259 4147 
L 1259 519 
L 2022 519 
Q 2988 519 3436 956 
Q 3884 1394 3884 2338 
Q 3884 3275 3436 3711 
Q 2988 4147 2022 4147 
L 1259 4147 
z
M 628 4666 
L 1925 4666 
Q 3281 4666 3915 4102 
Q 4550 3538 4550 2338 
Q 4550 1131 3912 565 
Q 3275 0 1925 0 
L 628 0 
L 628 4666 
z
" transform="scale(0.015625)"/>
       <path id="DejaVuSans-69" d="M 603 3500 
L 1178 3500 
L 1178 0 
L 603 0 
L 603 3500 
z
M 603 4863 
L 1178 4863 
L 1178 4134 
L 603 4134 
L 603 4863 
z
" transform="scale(0.015625)"/>
       <path id="DejaVuSans-73" d="M 2834 3397 
L 2834 2853 
Q 2591 2978 2328 3040 
Q 2066 3103 1784 3103 
Q 1356 3103 1142 2972 
Q 928 2841 928 2578 
Q 928 2378 1081 2264 
Q 1234 2150 1697 2047 
L 1894 2003 
Q 2506 1872 2764 1633 
Q 3022 1394 3022 966 
Q 3022 478 2636 193 
Q 2250 -91 1575 -91 
Q 1294 -91 989 -36 
Q 684 19 347 128 
L 347 722 
Q 666 556 975 473 
Q 1284 391 1588 391 
Q 1994 391 2212 530 
Q 2431 669 2431 922 
Q 2431 1156 2273 1281 
Q 2116 1406 1581 1522 
L 1381 1569 
Q 847 1681 609 1914 
Q 372 2147 372 2553 
Q 372 3047 722 3315 
Q 1072 3584 1716 3584 
Q 2034 3584 2315 3537 
Q 2597 3491 2834 3397 
z
" transform="scale(0.015625)"/>
       <path id="DejaVuSans-74" d="M 1172 4494 
L 1172 3500 
L 2356 3500 
L 2356 3053 
L 1172 3053 
L 1172 1153 
Q 1172 725 1289 603 
Q 1406 481 1766 481 
L 2356 481 
L 2356 0 
L 1766 0 
Q 1100 0 847 248 
Q 594 497 594 1153 
L 594 3053 
L 172 3053 
L 172 3500 
L 594 3500 
L 594 4494 
L 1172 4494 
z
" transform="scale(0.015625)"/>
       <path id="DejaVuSans-61" d="M 2194 1759 
Q 1497 1759 1228 1600 
Q 959 1441 959 1056 
Q 959 750 1161 570 
Q 1363 391 1709 391 
Q 2188 391 2477 730 
Q 2766 1069 2766 1631 
L 2766 1759 
L 2194 1759 
z
M 3341 1997 
L 3341 0 
L 2766 0 
L 2766 531 
Q 2569 213 2275 61 
Q 1981 -91 1556 -91 
Q 1019 -91 701 211 
Q 384 513 384 1019 
Q 384 1609 779 1909 
Q 1175 2209 1959 2209 
L 2766 2209 
L 2766 2266 
Q 2766 2663 2505 2880 
Q 2244 3097 1772 3097 
Q 1472 3097 1187 3025 
Q 903 2953 641 2809 
L 641 3341 
Q 956 3463 1253 3523 
Q 1550 3584 1831 3584 
Q 2591 3584 2966 3190 
Q 3341 2797 3341 1997 
z
" transform="scale(0.015625)"/>
       <path id="DejaVuSans-6e" d="M 3513 2113 
L 3513 0 
L 2938 0 
L 2938 2094 
Q 2938 2591 2744 2837 
Q 2550 3084 2163 3084 
Q 1697 3084 1428 2787 
Q 1159 2491 1159 1978 
L 1159 0 
L 581 0 
L 581 3500 
L 1159 3500 
L 1159 2956 
Q 1366 3272 1645 3428 
Q 1925 3584 2291 3584 
Q 2894 3584 3203 3211 
Q 3513 2838 3513 2113 
z
" transform="scale(0.015625)"/>
       <path id="DejaVuSans-63" d="M 3122 3366 
L 3122 2828 
Q 2878 2963 2633 3030 
Q 2388 3097 2138 3097 
Q 1578 3097 1268 2742 
Q 959 2388 959 1747 
Q 959 1106 1268 751 
Q 1578 397 2138 397 
Q 2388 397 2633 464 
Q 2878 531 3122 666 
L 3122 134 
Q 2881 22 2623 -34 
Q 2366 -91 2075 -91 
Q 1284 -91 818 406 
Q 353 903 353 1747 
Q 353 2603 823 3093 
Q 1294 3584 2113 3584 
Q 2378 3584 2631 3529 
Q 2884 3475 3122 3366 
z
" transform="scale(0.015625)"/>
       <path id="DejaVuSans-65" d="M 3597 1894 
L 3597 1613 
L 953 1613 
Q 991 1019 1311 708 
Q 1631 397 2203 397 
Q 2534 397 2845 478 
Q 3156 559 3463 722 
L 3463 178 
Q 3153 47 2828 -22 
Q 2503 -91 2169 -91 
Q 1331 -91 842 396 
Q 353 884 353 1716 
Q 353 2575 817 3079 
Q 1281 3584 2069 3584 
Q 2775 3584 3186 3129 
Q 3597 2675 3597 1894 
z
M 3022 2063 
Q 3016 2534 2758 2815 
Q 2500 3097 2075 3097 
Q 1594 3097 1305 2825 
Q 1016 2553 972 2059 
L 3022 2063 
z
" transform="scale(0.015625)"/>
       <path id="DejaVuSans-20" transform="scale(0.015625)"/>
       <path id="DejaVuSans-62" d="M 3116 1747 
Q 3116 2381 2855 2742 
Q 2594 3103 2138 3103 
Q 1681 3103 1420 2742 
Q 1159 2381 1159 1747 
Q 1159 1113 1420 752 
Q 1681 391 2138 391 
Q 2594 391 2855 752 
Q 3116 1113 3116 1747 
z
M 1159 2969 
Q 1341 3281 1617 3432 
Q 1894 3584 2278 3584 
Q 2916 3584 3314 3078 
Q 3713 2572 3713 1747 
Q 3713 922 3314 415 
Q 2916 -91 2278 -91 
Q 1894 -91 1617 61 
Q 1341 213 1159 525 
L 1159 0 
L 581 0 
L 581 4863 
L 1159 4863 
L 1159 2969 
z
" transform="scale(0.015625)"/>
       <path id="DejaVuSans-77" d="M 269 3500 
L 844 3500 
L 1563 769 
L 2278 3500 
L 2956 3500 
L 3675 769 
L 4391 3500 
L 4966 3500 
L 4050 0 
L 3372 0 
L 2619 2869 
L 1863 0 
L 1184 0 
L 269 3500 
z
" transform="scale(0.015625)"/>
       <path id="DejaVuSans-41" d="M 2188 4044 
L 1331 1722 
L 3047 1722 
L 2188 4044 
z
M 1831 4666 
L 2547 4666 
L 4325 0 
L 3669 0 
L 3244 1197 
L 1141 1197 
L 716 0 
L 50 0 
L 1831 4666 
z
" transform="scale(0.015625)"/>
       <path id="DejaVuSans-50" d="M 1259 4147 
L 1259 2394 
L 2053 2394 
Q 2494 2394 2734 2622 
Q 2975 2850 2975 3272 
Q 2975 3691 2734 3919 
Q 2494 4147 2053 4147 
L 1259 4147 
z
M 628 4666 
L 2053 4666 
Q 2838 4666 3239 4311 
Q 3641 3956 3641 3272 
Q 3641 2581 3239 2228 
Q 2838 1875 2053 1875 
L 1259 1875 
L 1259 0 
L 628 0 
L 628 4666 
z
" transform="scale(0.015625)"/>
       <path id="DejaVuSans-5b" d="M 550 4863 
L 1875 4863 
L 1875 4416 
L 1125 4416 
L 1125 -397 
L 1875 -397 
L 1875 -844 
L 550 -844 
L 550 4863 
z
" transform="scale(0.015625)"/>
       <path id="DejaVuSans-6d" d="M 3328 2828 
Q 3544 3216 3844 3400 
Q 4144 3584 4550 3584 
Q 5097 3584 5394 3201 
Q 5691 2819 5691 2113 
L 5691 0 
L 5113 0 
L 5113 2094 
Q 5113 2597 4934 2840 
Q 4756 3084 4391 3084 
Q 3944 3084 3684 2787 
Q 3425 2491 3425 1978 
L 3425 0 
L 2847 0 
L 2847 2094 
Q 2847 2600 2669 2842 
Q 2491 3084 2119 3084 
Q 1678 3084 1418 2786 
Q 1159 2488 1159 1978 
L 1159 0 
L 581 0 
L 581 3500 
L 1159 3500 
L 1159 2956 
Q 1356 3278 1631 3431 
Q 1906 3584 2284 3584 
Q 2666 3584 2933 3390 
Q 3200 3197 3328 2828 
z
" transform="scale(0.015625)"/>
       <path id="DejaVuSans-5d" d="M 1947 4863 
L 1947 -844 
L 622 -844 
L 622 -397 
L 1369 -397 
L 1369 4416 
L 622 4416 
L 622 4863 
L 1947 4863 
z
" transform="scale(0.015625)"/>
      </defs>
      <use xlink:href="#DejaVuSans-44"/>
      <use xlink:href="#DejaVuSans-69" x="77.001953"/>
      <use xlink:href="#DejaVuSans-73" x="104.785156"/>
      <use xlink:href="#DejaVuSans-74" x="156.884766"/>
      <use xlink:href="#DejaVuSans-61" x="196.09375"/>
      <use xlink:href="#DejaVuSans-6e" x="257.373047"/>
      <use xlink:href="#DejaVuSans-63" x="320.751953"/>
      <use xlink:href="#DejaVuSans-65" x="375.732422"/>
      <use xlink:href="#DejaVuSans-20" x="437.255859"/>
      <use xlink:href="#DejaVuSans-62" x="469.042969"/>
      <use xlink:href="#DejaVuSans-65" x="532.519531"/>
      <use xlink:href="#DejaVuSans-65" x="594.042969"/>
      <use xlink:href="#DejaVuSans-74" x="655.566406"/>
      <use xlink:href="#DejaVuSans-77" x="694.775391"/>
      <use xlink:href="#DejaVuSans-65" x="776.5625"/>
      <use xlink:href="#DejaVuSans-6e" x="838.085938"/>
      <use xlink:href="#DejaVuSans-20" x="901.464844"/>
      <use xlink:href="#DejaVuSans-41" x="933.251953"/>
      <use xlink:href="#DejaVuSans-50" x="1001.660156"/>
      <use xlink:href="#DejaVuSans-73" x="1060.212891"/>
      <use xlink:href="#DejaVuSans-20" x="1112.3125"/>
      <use xlink:href="#DejaVuSans-5b" x="1144.099609"/>
      <use xlink:href="#DejaVuSans-6d" x="1183.113281"/>
      <use xlink:href="#DejaVuSans-5d" x="1280.525391"/>
     </g>
    </g>
   </g>
   <g id="matplotlib.axis_2">
    <g id="ytick_1">
     <g id="line2d_19">
      <path d="M 43.78125 276.31797 
L 400.90125 276.31797 
" clip-path="url(#p79d0d0bd20)" style="fill: none; stroke-dasharray: 1.85,0.8; stroke-dashoffset: 0; stroke: #ffffff; stroke-width: 0.5"/>
     </g>
     <g id="line2d_20">
      <defs>
       <path id="m0f4a155bd4" d="M 0 0 
L -3.5 0 
" style="stroke: #000000; stroke-width: 0.8"/>
      </defs>
      <g>
       <use xlink:href="#m0f4a155bd4" x="43.78125" y="276.31797" style="stroke: #000000; stroke-width: 0.8"/>
      </g>
     </g>
     <g id="text_11">
      <!-- 0.0 -->
      <g transform="translate(20.878125 280.117189) scale(0.1 -0.1)">
       <defs>
        <path id="DejaVuSans-2e" d="M 684 794 
L 1344 794 
L 1344 0 
L 684 0 
L 684 794 
z
" transform="scale(0.015625)"/>
       </defs>
       <use xlink:href="#DejaVuSans-30"/>
       <use xlink:href="#DejaVuSans-2e" x="63.623047"/>
       <use xlink:href="#DejaVuSans-30" x="95.410156"/>
      </g>
     </g>
    </g>
    <g id="ytick_2">
     <g id="line2d_21">
      <path d="M 43.78125 223.25422 
L 400.90125 223.25422 
" clip-path="url(#p79d0d0bd20)" style="fill: none; stroke-dasharray: 1.85,0.8; stroke-dashoffset: 0; stroke: #ffffff; stroke-width: 0.5"/>
     </g>
     <g id="line2d_22">
      <g>
       <use xlink:href="#m0f4a155bd4" x="43.78125" y="223.25422" style="stroke: #000000; stroke-width: 0.8"/>
      </g>
     </g>
     <g id="text_12">
      <!-- 0.5 -->
      <g transform="translate(20.878125 227.053438) scale(0.1 -0.1)">
       <use xlink:href="#DejaVuSans-30"/>
       <use xlink:href="#DejaVuSans-2e" x="63.623047"/>
       <use xlink:href="#DejaVuSans-35" x="95.410156"/>
      </g>
     </g>
    </g>
    <g id="ytick_3">
     <g id="line2d_23">
      <path d="M 43.78125 170.190469 
L 400.90125 170.190469 
" clip-path="url(#p79d0d0bd20)" style="fill: none; stroke-dasharray: 1.85,0.8; stroke-dashoffset: 0; stroke: #ffffff; stroke-width: 0.5"/>
     </g>
     <g id="line2d_24">
      <g>
       <use xlink:href="#m0f4a155bd4" x="43.78125" y="170.190469" style="stroke: #000000; stroke-width: 0.8"/>
      </g>
     </g>
     <g id="text_13">
      <!-- 1.0 -->
      <g transform="translate(20.878125 173.989688) scale(0.1 -0.1)">
       <use xlink:href="#DejaVuSans-31"/>
       <use xlink:href="#DejaVuSans-2e" x="63.623047"/>
       <use xlink:href="#DejaVuSans-30" x="95.410156"/>
      </g>
     </g>
    </g>
    <g id="ytick_4">
     <g id="line2d_25">
      <path d="M 43.78125 117.126719 
L 400.90125 117.126719 
" clip-path="url(#p79d0d0bd20)" style="fill: none; stroke-dasharray: 1.85,0.8; stroke-dashoffset: 0; stroke: #ffffff; stroke-width: 0.5"/>
     </g>
     <g id="line2d_26">
      <g>
       <use xlink:href="#m0f4a155bd4" x="43.78125" y="117.126719" style="stroke: #000000; stroke-width: 0.8"/>
      </g>
     </g>
     <g id="text_14">
      <!-- 1.5 -->
      <g transform="translate(20.878125 120.925938) scale(0.1 -0.1)">
       <use xlink:href="#DejaVuSans-31"/>
       <use xlink:href="#DejaVuSans-2e" x="63.623047"/>
       <use xlink:href="#DejaVuSans-35" x="95.410156"/>
      </g>
     </g>
    </g>
    <g id="ytick_5">
     <g id="line2d_27">
      <path d="M 43.78125 64.062969 
L 400.90125 64.062969 
" clip-path="url(#p79d0d0bd20)" style="fill: none; stroke-dasharray: 1.85,0.8; stroke-dashoffset: 0; stroke: #ffffff; stroke-width: 0.5"/>
     </g>
     <g id="line2d_28">
      <g>
       <use xlink:href="#m0f4a155bd4" x="43.78125" y="64.062969" style="stroke: #000000; stroke-width: 0.8"/>
      </g>
     </g>
     <g id="text_15">
      <!-- 2.0 -->
      <g transform="translate(20.878125 67.862188) scale(0.1 -0.1)">
       <use xlink:href="#DejaVuSans-32"/>
       <use xlink:href="#DejaVuSans-2e" x="63.623047"/>
       <use xlink:href="#DejaVuSans-30" x="95.410156"/>
      </g>
     </g>
    </g>
    <g id="ytick_6">
     <g id="line2d_29">
      <path d="M 43.78125 10.999219 
L 400.90125 10.999219 
" clip-path="url(#p79d0d0bd20)" style="fill: none; stroke-dasharray: 1.85,0.8; stroke-dashoffset: 0; stroke: #ffffff; stroke-width: 0.5"/>
     </g>
     <g id="line2d_30">
      <g>
       <use xlink:href="#m0f4a155bd4" x="43.78125" y="10.999219" style="stroke: #000000; stroke-width: 0.8"/>
      </g>
     </g>
     <g id="text_16">
      <!-- 2.5 -->
      <g transform="translate(20.878125 14.798438) scale(0.1 -0.1)">
       <use xlink:href="#DejaVuSans-32"/>
       <use xlink:href="#DejaVuSans-2e" x="63.623047"/>
       <use xlink:href="#DejaVuSans-35" x="95.410156"/>
      </g>
     </g>
    </g>
    <g id="text_17">
     <!-- Latency [s] -->
     <g transform="translate(14.798438 171.121345) rotate(-90) scale(0.1 -0.1)">
      <defs>
       <path id="DejaVuSans-4c" d="M 628 4666 
L 1259 4666 
L 1259 531 
L 3531 531 
L 3531 0 
L 628 0 
L 628 4666 
z
" transform="scale(0.015625)"/>
       <path id="DejaVuSans-79" d="M 2059 -325 
Q 1816 -950 1584 -1140 
Q 1353 -1331 966 -1331 
L 506 -1331 
L 506 -850 
L 844 -850 
Q 1081 -850 1212 -737 
Q 1344 -625 1503 -206 
L 1606 56 
L 191 3500 
L 800 3500 
L 1894 763 
L 2988 3500 
L 3597 3500 
L 2059 -325 
z
" transform="scale(0.015625)"/>
      </defs>
      <use xlink:href="#DejaVuSans-4c"/>
      <use xlink:href="#DejaVuSans-61" x="55.712891"/>
      <use xlink:href="#DejaVuSans-74" x="116.992188"/>
      <use xlink:href="#DejaVuSans-65" x="156.201172"/>
      <use xlink:href="#DejaVuSans-6e" x="217.724609"/>
      <use xlink:href="#DejaVuSans-63" x="281.103516"/>
      <use xlink:href="#DejaVuSans-79" x="336.083984"/>
      <use xlink:href="#DejaVuSans-20" x="395.263672"/>
      <use xlink:href="#DejaVuSans-5b" x="427.050781"/>
      <use xlink:href="#DejaVuSans-73" x="466.064453"/>
      <use xlink:href="#DejaVuSans-5d" x="518.164062"/>
     </g>
    </g>
   </g>
   <g id="line2d_31">
    <path d="M 60.013977 141.452204 
L 76.246705 125.681445 
L 92.479432 125.452846 
L 108.712159 125.272854 
L 124.944886 114.480961 
L 141.177614 105.978662 
L 157.410341 105.749427 
L 173.643068 93.934252 
L 189.875795 79.995254 
L 206.108523 79.511737 
L 222.34125 79.45931 
L 238.573977 79.15812 
L 254.806705 79.071308 
L 271.039432 77.584462 
L 287.272159 65.297444 
L 303.504886 41.507904 
L 319.737614 41.430855 
L 335.970341 41.794236 
L 352.203068 41.753058 
L 368.435795 41.686835 
L 384.668523 27.225265 
" clip-path="url(#p79d0d0bd20)" style="fill: none; stroke: #003f5c; stroke-width: 1.5; stroke-linecap: square"/>
    <defs>
     <path id="m80a83119ab" d="M 0 4 
C 1.060812 4 2.078319 3.578535 2.828427 2.828427 
C 3.578535 2.078319 4 1.060812 4 0 
C 4 -1.060812 3.578535 -2.078319 2.828427 -2.828427 
C 2.078319 -3.578535 1.060812 -4 0 -4 
C -1.060812 -4 -2.078319 -3.578535 -2.828427 -2.828427 
C -3.578535 -2.078319 -4 -1.060812 -4 0 
C -4 1.060812 -3.578535 2.078319 -2.828427 2.828427 
C -2.078319 3.578535 -1.060812 4 0 4 
z
" style="stroke: #ffffff; stroke-width: 0.75"/>
    </defs>
    <g clip-path="url(#p79d0d0bd20)">
     <use xlink:href="#m80a83119ab" x="60.013977" y="141.452204" style="fill: #003f5c; stroke: #ffffff; stroke-width: 0.75"/>
     <use xlink:href="#m80a83119ab" x="76.246705" y="125.681445" style="fill: #003f5c; stroke: #ffffff; stroke-width: 0.75"/>
     <use xlink:href="#m80a83119ab" x="92.479432" y="125.452846" style="fill: #003f5c; stroke: #ffffff; stroke-width: 0.75"/>
     <use xlink:href="#m80a83119ab" x="108.712159" y="125.272854" style="fill: #003f5c; stroke: #ffffff; stroke-width: 0.75"/>
     <use xlink:href="#m80a83119ab" x="124.944886" y="114.480961" style="fill: #003f5c; stroke: #ffffff; stroke-width: 0.75"/>
     <use xlink:href="#m80a83119ab" x="141.177614" y="105.978662" style="fill: #003f5c; stroke: #ffffff; stroke-width: 0.75"/>
     <use xlink:href="#m80a83119ab" x="157.410341" y="105.749427" style="fill: #003f5c; stroke: #ffffff; stroke-width: 0.75"/>
     <use xlink:href="#m80a83119ab" x="173.643068" y="93.934252" style="fill: #003f5c; stroke: #ffffff; stroke-width: 0.75"/>
     <use xlink:href="#m80a83119ab" x="189.875795" y="79.995254" style="fill: #003f5c; stroke: #ffffff; stroke-width: 0.75"/>
     <use xlink:href="#m80a83119ab" x="206.108523" y="79.511737" style="fill: #003f5c; stroke: #ffffff; stroke-width: 0.75"/>
     <use xlink:href="#m80a83119ab" x="222.34125" y="79.45931" style="fill: #003f5c; stroke: #ffffff; stroke-width: 0.75"/>
     <use xlink:href="#m80a83119ab" x="238.573977" y="79.15812" style="fill: #003f5c; stroke: #ffffff; stroke-width: 0.75"/>
     <use xlink:href="#m80a83119ab" x="254.806705" y="79.071308" style="fill: #003f5c; stroke: #ffffff; stroke-width: 0.75"/>
     <use xlink:href="#m80a83119ab" x="271.039432" y="77.584462" style="fill: #003f5c; stroke: #ffffff; stroke-width: 0.75"/>
     <use xlink:href="#m80a83119ab" x="287.272159" y="65.297444" style="fill: #003f5c; stroke: #ffffff; stroke-width: 0.75"/>
     <use xlink:href="#m80a83119ab" x="303.504886" y="41.507904" style="fill: #003f5c; stroke: #ffffff; stroke-width: 0.75"/>
     <use xlink:href="#m80a83119ab" x="319.737614" y="41.430855" style="fill: #003f5c; stroke: #ffffff; stroke-width: 0.75"/>
     <use xlink:href="#m80a83119ab" x="335.970341" y="41.794236" style="fill: #003f5c; stroke: #ffffff; stroke-width: 0.75"/>
     <use xlink:href="#m80a83119ab" x="352.203068" y="41.753058" style="fill: #003f5c; stroke: #ffffff; stroke-width: 0.75"/>
     <use xlink:href="#m80a83119ab" x="368.435795" y="41.686835" style="fill: #003f5c; stroke: #ffffff; stroke-width: 0.75"/>
     <use xlink:href="#m80a83119ab" x="384.668523" y="27.225265" style="fill: #003f5c; stroke: #ffffff; stroke-width: 0.75"/>
    </g>
   </g>
   <g id="line2d_32">
    <path d="M 60.013977 141.992605 
L 76.246705 126.389527 
L 92.479432 126.223969 
L 108.712159 126.049919 
L 124.944886 115.396204 
L 141.177614 106.839781 
L 157.410341 106.750421 
L 173.643068 95.076821 
L 189.875795 80.93236 
L 206.108523 80.245927 
L 222.34125 80.195198 
L 238.573977 80.109235 
L 254.806705 80.180765 
L 271.039432 78.245211 
L 287.272159 66.600478 
L 303.504886 42.547953 
L 319.737614 42.86209 
L 335.970341 43.034017 
L 352.203068 43.108519 
L 368.435795 42.861454 
L 384.668523 28.160672 
" clip-path="url(#p79d0d0bd20)" style="fill: none; stroke-dasharray: 6,2.25; stroke-dashoffset: 0; stroke: #003f5c; stroke-width: 1.5"/>
    <defs>
     <path id="m262758ee43" d="M -2 4 
L 0 2 
L 2 4 
L 4 2 
L 2 0 
L 4 -2 
L 2 -4 
L 0 -2 
L -2 -4 
L -4 -2 
L -2 0 
L -4 2 
z
" style="stroke: #ffffff; stroke-width: 0.75; stroke-linejoin: miter"/>
    </defs>
    <g clip-path="url(#p79d0d0bd20)">
     <use xlink:href="#m262758ee43" x="60.013977" y="141.992605" style="fill: #003f5c; stroke: #ffffff; stroke-width: 0.75; stroke-linejoin: miter"/>
     <use xlink:href="#m262758ee43" x="76.246705" y="126.389527" style="fill: #003f5c; stroke: #ffffff; stroke-width: 0.75; stroke-linejoin: miter"/>
     <use xlink:href="#m262758ee43" x="92.479432" y="126.223969" style="fill: #003f5c; stroke: #ffffff; stroke-width: 0.75; stroke-linejoin: miter"/>
     <use xlink:href="#m262758ee43" x="108.712159" y="126.049919" style="fill: #003f5c; stroke: #ffffff; stroke-width: 0.75; stroke-linejoin: miter"/>
     <use xlink:href="#m262758ee43" x="124.944886" y="115.396204" style="fill: #003f5c; stroke: #ffffff; stroke-width: 0.75; stroke-linejoin: miter"/>
     <use xlink:href="#m262758ee43" x="141.177614" y="106.839781" style="fill: #003f5c; stroke: #ffffff; stroke-width: 0.75; stroke-linejoin: miter"/>
     <use xlink:href="#m262758ee43" x="157.410341" y="106.750421" style="fill: #003f5c; stroke: #ffffff; stroke-width: 0.75; stroke-linejoin: miter"/>
     <use xlink:href="#m262758ee43" x="173.643068" y="95.076821" style="fill: #003f5c; stroke: #ffffff; stroke-width: 0.75; stroke-linejoin: miter"/>
     <use xlink:href="#m262758ee43" x="189.875795" y="80.93236" style="fill: #003f5c; stroke: #ffffff; stroke-width: 0.75; stroke-linejoin: miter"/>
     <use xlink:href="#m262758ee43" x="206.108523" y="80.245927" style="fill: #003f5c; stroke: #ffffff; stroke-width: 0.75; stroke-linejoin: miter"/>
     <use xlink:href="#m262758ee43" x="222.34125" y="80.195198" style="fill: #003f5c; stroke: #ffffff; stroke-width: 0.75; stroke-linejoin: miter"/>
     <use xlink:href="#m262758ee43" x="238.573977" y="80.109235" style="fill: #003f5c; stroke: #ffffff; stroke-width: 0.75; stroke-linejoin: miter"/>
     <use xlink:href="#m262758ee43" x="254.806705" y="80.180765" style="fill: #003f5c; stroke: #ffffff; stroke-width: 0.75; stroke-linejoin: miter"/>
     <use xlink:href="#m262758ee43" x="271.039432" y="78.245211" style="fill: #003f5c; stroke: #ffffff; stroke-width: 0.75; stroke-linejoin: miter"/>
     <use xlink:href="#m262758ee43" x="287.272159" y="66.600478" style="fill: #003f5c; stroke: #ffffff; stroke-width: 0.75; stroke-linejoin: miter"/>
     <use xlink:href="#m262758ee43" x="303.504886" y="42.547953" style="fill: #003f5c; stroke: #ffffff; stroke-width: 0.75; stroke-linejoin: miter"/>
     <use xlink:href="#m262758ee43" x="319.737614" y="42.86209" style="fill: #003f5c; stroke: #ffffff; stroke-width: 0.75; stroke-linejoin: miter"/>
     <use xlink:href="#m262758ee43" x="335.970341" y="43.034017" style="fill: #003f5c; stroke: #ffffff; stroke-width: 0.75; stroke-linejoin: miter"/>
     <use xlink:href="#m262758ee43" x="352.203068" y="43.108519" style="fill: #003f5c; stroke: #ffffff; stroke-width: 0.75; stroke-linejoin: miter"/>
     <use xlink:href="#m262758ee43" x="368.435795" y="42.861454" style="fill: #003f5c; stroke: #ffffff; stroke-width: 0.75; stroke-linejoin: miter"/>
     <use xlink:href="#m262758ee43" x="384.668523" y="28.160672" style="fill: #003f5c; stroke: #ffffff; stroke-width: 0.75; stroke-linejoin: miter"/>
    </g>
   </g>
   <g id="line2d_33">
    <path d="M 60.013977 271.088909 
L 76.246705 270.701838 
L 92.479432 270.536897 
L 108.712159 187.708129 
L 124.944886 170.695212 
L 141.177614 161.673738 
L 157.410341 161.590958 
L 173.643068 161.578647 
L 189.875795 155.213332 
L 206.108523 137.808847 
L 222.34125 137.816488 
L 238.573977 137.623123 
L 254.806705 125.537536 
L 271.039432 124.712501 
L 287.272159 112.397466 
L 303.504886 77.808815 
L 319.737614 77.879708 
L 335.970341 77.930225 
L 352.203068 70.536747 
L 368.435795 70.823291 
L 384.668523 67.767668 
" clip-path="url(#p79d0d0bd20)" style="fill: none; stroke: #bc5090; stroke-width: 1.5; stroke-linecap: square"/>
    <defs>
     <path id="mf0c2090d50" d="M 0 4 
C 1.060812 4 2.078319 3.578535 2.828427 2.828427 
C 3.578535 2.078319 4 1.060812 4 0 
C 4 -1.060812 3.578535 -2.078319 2.828427 -2.828427 
C 2.078319 -3.578535 1.060812 -4 0 -4 
C -1.060812 -4 -2.078319 -3.578535 -2.828427 -2.828427 
C -3.578535 -2.078319 -4 -1.060812 -4 0 
C -4 1.060812 -3.578535 2.078319 -2.828427 2.828427 
C -2.078319 3.578535 -1.060812 4 0 4 
z
" style="stroke: #ffffff; stroke-width: 0.75"/>
    </defs>
    <g clip-path="url(#p79d0d0bd20)">
     <use xlink:href="#mf0c2090d50" x="60.013977" y="271.088909" style="fill: #bc5090; stroke: #ffffff; stroke-width: 0.75"/>
     <use xlink:href="#mf0c2090d50" x="76.246705" y="270.701838" style="fill: #bc5090; stroke: #ffffff; stroke-width: 0.75"/>
     <use xlink:href="#mf0c2090d50" x="92.479432" y="270.536897" style="fill: #bc5090; stroke: #ffffff; stroke-width: 0.75"/>
     <use xlink:href="#mf0c2090d50" x="108.712159" y="187.708129" style="fill: #bc5090; stroke: #ffffff; stroke-width: 0.75"/>
     <use xlink:href="#mf0c2090d50" x="124.944886" y="170.695212" style="fill: #bc5090; stroke: #ffffff; stroke-width: 0.75"/>
     <use xlink:href="#mf0c2090d50" x="141.177614" y="161.673738" style="fill: #bc5090; stroke: #ffffff; stroke-width: 0.75"/>
     <use xlink:href="#mf0c2090d50" x="157.410341" y="161.590958" style="fill: #bc5090; stroke: #ffffff; stroke-width: 0.75"/>
     <use xlink:href="#mf0c2090d50" x="173.643068" y="161.578647" style="fill: #bc5090; stroke: #ffffff; stroke-width: 0.75"/>
     <use xlink:href="#mf0c2090d50" x="189.875795" y="155.213332" style="fill: #bc5090; stroke: #ffffff; stroke-width: 0.75"/>
     <use xlink:href="#mf0c2090d50" x="206.108523" y="137.808847" style="fill: #bc5090; stroke: #ffffff; stroke-width: 0.75"/>
     <use xlink:href="#mf0c2090d50" x="222.34125" y="137.816488" style="fill: #bc5090; stroke: #ffffff; stroke-width: 0.75"/>
     <use xlink:href="#mf0c2090d50" x="238.573977" y="137.623123" style="fill: #bc5090; stroke: #ffffff; stroke-width: 0.75"/>
     <use xlink:href="#mf0c2090d50" x="254.806705" y="125.537536" style="fill: #bc5090; stroke: #ffffff; stroke-width: 0.75"/>
     <use xlink:href="#mf0c2090d50" x="271.039432" y="124.712501" style="fill: #bc5090; stroke: #ffffff; stroke-width: 0.75"/>
     <use xlink:href="#mf0c2090d50" x="287.272159" y="112.397466" style="fill: #bc5090; stroke: #ffffff; stroke-width: 0.75"/>
     <use xlink:href="#mf0c2090d50" x="303.504886" y="77.808815" style="fill: #bc5090; stroke: #ffffff; stroke-width: 0.75"/>
     <use xlink:href="#mf0c2090d50" x="319.737614" y="77.879708" style="fill: #bc5090; stroke: #ffffff; stroke-width: 0.75"/>
     <use xlink:href="#mf0c2090d50" x="335.970341" y="77.930225" style="fill: #bc5090; stroke: #ffffff; stroke-width: 0.75"/>
     <use xlink:href="#mf0c2090d50" x="352.203068" y="70.536747" style="fill: #bc5090; stroke: #ffffff; stroke-width: 0.75"/>
     <use xlink:href="#mf0c2090d50" x="368.435795" y="70.823291" style="fill: #bc5090; stroke: #ffffff; stroke-width: 0.75"/>
     <use xlink:href="#mf0c2090d50" x="384.668523" y="67.767668" style="fill: #bc5090; stroke: #ffffff; stroke-width: 0.75"/>
    </g>
   </g>
   <g id="line2d_34">
    <path d="M 60.013977 260.940647 
L 76.246705 260.93568 
L 92.479432 260.93568 
L 108.712159 260.957925 
L 124.944886 192.41915 
L 141.177614 181.938423 
L 157.410341 181.785642 
L 173.643068 167.626217 
L 189.875795 159.35379 
L 206.108523 159.381808 
L 222.34125 159.370559 
L 238.573977 159.411736 
L 254.806705 159.342116 
L 271.039432 158.514322 
L 287.272159 153.62524 
L 303.504886 133.698953 
L 319.737614 133.741616 
L 335.970341 133.826518 
L 352.203068 115.384955 
L 368.435795 115.30642 
L 384.668523 103.21871 
" clip-path="url(#p79d0d0bd20)" style="fill: none; stroke-dasharray: 6,2.25; stroke-dashoffset: 0; stroke: #bc5090; stroke-width: 1.5"/>
    <defs>
     <path id="m9da0b17a24" d="M -2 4 
L 0 2 
L 2 4 
L 4 2 
L 2 0 
L 4 -2 
L 2 -4 
L 0 -2 
L -2 -4 
L -4 -2 
L -2 0 
L -4 2 
z
" style="stroke: #ffffff; stroke-width: 0.75; stroke-linejoin: miter"/>
    </defs>
    <g clip-path="url(#p79d0d0bd20)">
     <use xlink:href="#m9da0b17a24" x="60.013977" y="260.940647" style="fill: #bc5090; stroke: #ffffff; stroke-width: 0.75; stroke-linejoin: miter"/>
     <use xlink:href="#m9da0b17a24" x="76.246705" y="260.93568" style="fill: #bc5090; stroke: #ffffff; stroke-width: 0.75; stroke-linejoin: miter"/>
     <use xlink:href="#m9da0b17a24" x="92.479432" y="260.93568" style="fill: #bc5090; stroke: #ffffff; stroke-width: 0.75; stroke-linejoin: miter"/>
     <use xlink:href="#m9da0b17a24" x="108.712159" y="260.957925" style="fill: #bc5090; stroke: #ffffff; stroke-width: 0.75; stroke-linejoin: miter"/>
     <use xlink:href="#m9da0b17a24" x="124.944886" y="192.41915" style="fill: #bc5090; stroke: #ffffff; stroke-width: 0.75; stroke-linejoin: miter"/>
     <use xlink:href="#m9da0b17a24" x="141.177614" y="181.938423" style="fill: #bc5090; stroke: #ffffff; stroke-width: 0.75; stroke-linejoin: miter"/>
     <use xlink:href="#m9da0b17a24" x="157.410341" y="181.785642" style="fill: #bc5090; stroke: #ffffff; stroke-width: 0.75; stroke-linejoin: miter"/>
     <use xlink:href="#m9da0b17a24" x="173.643068" y="167.626217" style="fill: #bc5090; stroke: #ffffff; stroke-width: 0.75; stroke-linejoin: miter"/>
     <use xlink:href="#m9da0b17a24" x="189.875795" y="159.35379" style="fill: #bc5090; stroke: #ffffff; stroke-width: 0.75; stroke-linejoin: miter"/>
     <use xlink:href="#m9da0b17a24" x="206.108523" y="159.381808" style="fill: #bc5090; stroke: #ffffff; stroke-width: 0.75; stroke-linejoin: miter"/>
     <use xlink:href="#m9da0b17a24" x="222.34125" y="159.370559" style="fill: #bc5090; stroke: #ffffff; stroke-width: 0.75; stroke-linejoin: miter"/>
     <use xlink:href="#m9da0b17a24" x="238.573977" y="159.411736" style="fill: #bc5090; stroke: #ffffff; stroke-width: 0.75; stroke-linejoin: miter"/>
     <use xlink:href="#m9da0b17a24" x="254.806705" y="159.342116" style="fill: #bc5090; stroke: #ffffff; stroke-width: 0.75; stroke-linejoin: miter"/>
     <use xlink:href="#m9da0b17a24" x="271.039432" y="158.514322" style="fill: #bc5090; stroke: #ffffff; stroke-width: 0.75; stroke-linejoin: miter"/>
     <use xlink:href="#m9da0b17a24" x="287.272159" y="153.62524" style="fill: #bc5090; stroke: #ffffff; stroke-width: 0.75; stroke-linejoin: miter"/>
     <use xlink:href="#m9da0b17a24" x="303.504886" y="133.698953" style="fill: #bc5090; stroke: #ffffff; stroke-width: 0.75; stroke-linejoin: miter"/>
     <use xlink:href="#m9da0b17a24" x="319.737614" y="133.741616" style="fill: #bc5090; stroke: #ffffff; stroke-width: 0.75; stroke-linejoin: miter"/>
     <use xlink:href="#m9da0b17a24" x="335.970341" y="133.826518" style="fill: #bc5090; stroke: #ffffff; stroke-width: 0.75; stroke-linejoin: miter"/>
     <use xlink:href="#m9da0b17a24" x="352.203068" y="115.384955" style="fill: #bc5090; stroke: #ffffff; stroke-width: 0.75; stroke-linejoin: miter"/>
     <use xlink:href="#m9da0b17a24" x="368.435795" y="115.30642" style="fill: #bc5090; stroke: #ffffff; stroke-width: 0.75; stroke-linejoin: miter"/>
     <use xlink:href="#m9da0b17a24" x="384.668523" y="103.21871" style="fill: #bc5090; stroke: #ffffff; stroke-width: 0.75; stroke-linejoin: miter"/>
    </g>
   </g>
   <g id="line2d_35">
    <path d="M 60.013977 271.126406 
L 76.246705 270.761953 
L 92.479432 234.610403 
L 108.712159 187.738142 
L 124.944886 165.349527 
L 141.177614 161.766068 
L 157.410341 161.669068 
L 173.643068 157.802631 
L 189.875795 144.992193 
L 206.108523 137.927922 
L 222.34125 137.736043 
L 238.573977 130.419825 
L 254.806705 117.900813 
L 271.039432 116.905762 
L 287.272159 91.695174 
L 303.504886 77.909636 
L 319.737614 77.968643 
L 335.970341 78.038263 
L 352.203068 70.14832 
L 368.435795 37.414354 
L 384.668523 34.375711 
" clip-path="url(#p79d0d0bd20)" style="fill: none; stroke: #ffa600; stroke-width: 1.5; stroke-linecap: square"/>
    <defs>
     <path id="me5c97af9f3" d="M 0 4 
C 1.060812 4 2.078319 3.578535 2.828427 2.828427 
C 3.578535 2.078319 4 1.060812 4 0 
C 4 -1.060812 3.578535 -2.078319 2.828427 -2.828427 
C 2.078319 -3.578535 1.060812 -4 0 -4 
C -1.060812 -4 -2.078319 -3.578535 -2.828427 -2.828427 
C -3.578535 -2.078319 -4 -1.060812 -4 0 
C -4 1.060812 -3.578535 2.078319 -2.828427 2.828427 
C -2.078319 3.578535 -1.060812 4 0 4 
z
" style="stroke: #ffffff; stroke-width: 0.75"/>
    </defs>
    <g clip-path="url(#p79d0d0bd20)">
     <use xlink:href="#me5c97af9f3" x="60.013977" y="271.126406" style="fill: #ffa600; stroke: #ffffff; stroke-width: 0.75"/>
     <use xlink:href="#me5c97af9f3" x="76.246705" y="270.761953" style="fill: #ffa600; stroke: #ffffff; stroke-width: 0.75"/>
     <use xlink:href="#me5c97af9f3" x="92.479432" y="234.610403" style="fill: #ffa600; stroke: #ffffff; stroke-width: 0.75"/>
     <use xlink:href="#me5c97af9f3" x="108.712159" y="187.738142" style="fill: #ffa600; stroke: #ffffff; stroke-width: 0.75"/>
     <use xlink:href="#me5c97af9f3" x="124.944886" y="165.349527" style="fill: #ffa600; stroke: #ffffff; stroke-width: 0.75"/>
     <use xlink:href="#me5c97af9f3" x="141.177614" y="161.766068" style="fill: #ffa600; stroke: #ffffff; stroke-width: 0.75"/>
     <use xlink:href="#me5c97af9f3" x="157.410341" y="161.669068" style="fill: #ffa600; stroke: #ffffff; stroke-width: 0.75"/>
     <use xlink:href="#me5c97af9f3" x="173.643068" y="157.802631" style="fill: #ffa600; stroke: #ffffff; stroke-width: 0.75"/>
     <use xlink:href="#me5c97af9f3" x="189.875795" y="144.992193" style="fill: #ffa600; stroke: #ffffff; stroke-width: 0.75"/>
     <use xlink:href="#me5c97af9f3" x="206.108523" y="137.927922" style="fill: #ffa600; stroke: #ffffff; stroke-width: 0.75"/>
     <use xlink:href="#me5c97af9f3" x="222.34125" y="137.736043" style="fill: #ffa600; stroke: #ffffff; stroke-width: 0.75"/>
     <use xlink:href="#me5c97af9f3" x="238.573977" y="130.419825" style="fill: #ffa600; stroke: #ffffff; stroke-width: 0.75"/>
     <use xlink:href="#me5c97af9f3" x="254.806705" y="117.900813" style="fill: #ffa600; stroke: #ffffff; stroke-width: 0.75"/>
     <use xlink:href="#me5c97af9f3" x="271.039432" y="116.905762" style="fill: #ffa600; stroke: #ffffff; stroke-width: 0.75"/>
     <use xlink:href="#me5c97af9f3" x="287.272159" y="91.695174" style="fill: #ffa600; stroke: #ffffff; stroke-width: 0.75"/>
     <use xlink:href="#me5c97af9f3" x="303.504886" y="77.909636" style="fill: #ffa600; stroke: #ffffff; stroke-width: 0.75"/>
     <use xlink:href="#me5c97af9f3" x="319.737614" y="77.968643" style="fill: #ffa600; stroke: #ffffff; stroke-width: 0.75"/>
     <use xlink:href="#me5c97af9f3" x="335.970341" y="78.038263" style="fill: #ffa600; stroke: #ffffff; stroke-width: 0.75"/>
     <use xlink:href="#me5c97af9f3" x="352.203068" y="70.14832" style="fill: #ffa600; stroke: #ffffff; stroke-width: 0.75"/>
     <use xlink:href="#me5c97af9f3" x="368.435795" y="37.414354" style="fill: #ffa600; stroke: #ffffff; stroke-width: 0.75"/>
     <use xlink:href="#me5c97af9f3" x="384.668523" y="34.375711" style="fill: #ffa600; stroke: #ffffff; stroke-width: 0.75"/>
    </g>
   </g>
   <g id="line2d_36">
    <path d="M 60.013977 259.426823 
L 76.246705 259.725402 
L 92.479432 259.609617 
L 108.712159 259.740154 
L 124.944886 191.824242 
L 141.177614 181.026618 
L 157.410341 180.785475 
L 173.643068 167.378515 
L 189.875795 159.187595 
L 206.108523 159.182076 
L 222.34125 159.214127 
L 238.573977 159.210943 
L 254.806705 159.175921 
L 271.039432 158.306949 
L 287.272159 153.536305 
L 303.504886 133.318804 
L 319.737614 133.3655 
L 335.970341 133.439365 
L 352.203068 115.435471 
L 368.435795 114.864081 
L 384.668523 103.139964 
" clip-path="url(#p79d0d0bd20)" style="fill: none; stroke-dasharray: 6,2.25; stroke-dashoffset: 0; stroke: #ffa600; stroke-width: 1.5"/>
    <defs>
     <path id="m8ee4d520ae" d="M -2 4 
L 0 2 
L 2 4 
L 4 2 
L 2 0 
L 4 -2 
L 2 -4 
L 0 -2 
L -2 -4 
L -4 -2 
L -2 0 
L -4 2 
z
" style="stroke: #ffffff; stroke-width: 0.75; stroke-linejoin: miter"/>
    </defs>
    <g clip-path="url(#p79d0d0bd20)">
     <use xlink:href="#m8ee4d520ae" x="60.013977" y="259.426823" style="fill: #ffa600; stroke: #ffffff; stroke-width: 0.75; stroke-linejoin: miter"/>
     <use xlink:href="#m8ee4d520ae" x="76.246705" y="259.725402" style="fill: #ffa600; stroke: #ffffff; stroke-width: 0.75; stroke-linejoin: miter"/>
     <use xlink:href="#m8ee4d520ae" x="92.479432" y="259.609617" style="fill: #ffa600; stroke: #ffffff; stroke-width: 0.75; stroke-linejoin: miter"/>
     <use xlink:href="#m8ee4d520ae" x="108.712159" y="259.740154" style="fill: #ffa600; stroke: #ffffff; stroke-width: 0.75; stroke-linejoin: miter"/>
     <use xlink:href="#m8ee4d520ae" x="124.944886" y="191.824242" style="fill: #ffa600; stroke: #ffffff; stroke-width: 0.75; stroke-linejoin: miter"/>
     <use xlink:href="#m8ee4d520ae" x="141.177614" y="181.026618" style="fill: #ffa600; stroke: #ffffff; stroke-width: 0.75; stroke-linejoin: miter"/>
     <use xlink:href="#m8ee4d520ae" x="157.410341" y="180.785475" style="fill: #ffa600; stroke: #ffffff; stroke-width: 0.75; stroke-linejoin: miter"/>
     <use xlink:href="#m8ee4d520ae" x="173.643068" y="167.378515" style="fill: #ffa600; stroke: #ffffff; stroke-width: 0.75; stroke-linejoin: miter"/>
     <use xlink:href="#m8ee4d520ae" x="189.875795" y="159.187595" style="fill: #ffa600; stroke: #ffffff; stroke-width: 0.75; stroke-linejoin: miter"/>
     <use xlink:href="#m8ee4d520ae" x="206.108523" y="159.182076" style="fill: #ffa600; stroke: #ffffff; stroke-width: 0.75; stroke-linejoin: miter"/>
     <use xlink:href="#m8ee4d520ae" x="222.34125" y="159.214127" style="fill: #ffa600; stroke: #ffffff; stroke-width: 0.75; stroke-linejoin: miter"/>
     <use xlink:href="#m8ee4d520ae" x="238.573977" y="159.210943" style="fill: #ffa600; stroke: #ffffff; stroke-width: 0.75; stroke-linejoin: miter"/>
     <use xlink:href="#m8ee4d520ae" x="254.806705" y="159.175921" style="fill: #ffa600; stroke: #ffffff; stroke-width: 0.75; stroke-linejoin: miter"/>
     <use xlink:href="#m8ee4d520ae" x="271.039432" y="158.306949" style="fill: #ffa600; stroke: #ffffff; stroke-width: 0.75; stroke-linejoin: miter"/>
     <use xlink:href="#m8ee4d520ae" x="287.272159" y="153.536305" style="fill: #ffa600; stroke: #ffffff; stroke-width: 0.75; stroke-linejoin: miter"/>
     <use xlink:href="#m8ee4d520ae" x="303.504886" y="133.318804" style="fill: #ffa600; stroke: #ffffff; stroke-width: 0.75; stroke-linejoin: miter"/>
     <use xlink:href="#m8ee4d520ae" x="319.737614" y="133.3655" style="fill: #ffa600; stroke: #ffffff; stroke-width: 0.75; stroke-linejoin: miter"/>
     <use xlink:href="#m8ee4d520ae" x="335.970341" y="133.439365" style="fill: #ffa600; stroke: #ffffff; stroke-width: 0.75; stroke-linejoin: miter"/>
     <use xlink:href="#m8ee4d520ae" x="352.203068" y="115.435471" style="fill: #ffa600; stroke: #ffffff; stroke-width: 0.75; stroke-linejoin: miter"/>
     <use xlink:href="#m8ee4d520ae" x="368.435795" y="114.864081" style="fill: #ffa600; stroke: #ffffff; stroke-width: 0.75; stroke-linejoin: miter"/>
     <use xlink:href="#m8ee4d520ae" x="384.668523" y="103.139964" style="fill: #ffa600; stroke: #ffffff; stroke-width: 0.75; stroke-linejoin: miter"/>
    </g>
   </g>
   <g id="line2d_37"/>
   <g id="line2d_38"/>
   <g id="line2d_39"/>
   <g id="line2d_40"/>
   <g id="line2d_41"/>
   <g id="line2d_42"/>
   <g id="line2d_43"/>
   <g id="patch_3">
    <path d="M 43.78125 276.31797 
L 43.78125 10.20597 
" style="fill: none; stroke: #000000; stroke-width: 0.8; stroke-linejoin: miter; stroke-linecap: square"/>
   </g>
   <g id="patch_4">
    <path d="M 400.90125 276.31797 
L 400.90125 10.20597 
" style="fill: none; stroke: #000000; stroke-width: 0.8; stroke-linejoin: miter; stroke-linecap: square"/>
   </g>
   <g id="patch_5">
    <path d="M 43.78125 276.31797 
L 400.90125 276.31797 
" style="fill: none; stroke: #000000; stroke-width: 0.8; stroke-linejoin: miter; stroke-linecap: square"/>
   </g>
   <g id="patch_6">
    <path d="M 43.78125 10.20597 
L 400.90125 10.20597 
" style="fill: none; stroke: #000000; stroke-width: 0.8; stroke-linejoin: miter; stroke-linecap: square"/>
   </g>
   <g id="legend_1">
    <g id="patch_7">
     <path d="M 52.18125 72.64722 
L 129.5025 72.64722 
Q 131.9025 72.64722 131.9025 70.24722 
L 131.9025 18.60597 
Q 131.9025 16.20597 129.5025 16.20597 
L 52.18125 16.20597 
Q 49.78125 16.20597 49.78125 18.60597 
L 49.78125 70.24722 
Q 49.78125 72.64722 52.18125 72.64722 
z
" style="fill: #ffffff; opacity: 0.8; stroke: #cccccc; stroke-linejoin: miter"/>
    </g>
    <g id="line2d_44">
     <path d="M 54.58125 25.924095 
L 66.58125 25.924095 
L 78.58125 25.924095 
" style="fill: none; stroke: #003f5c; stroke-width: 1.5; stroke-linecap: square"/>
    </g>
    <g id="text_18">
     <!-- 1 link -->
     <g transform="translate(88.18125 30.124095) scale(0.12 -0.12)">
      <defs>
       <path id="DejaVuSans-6c" d="M 603 4863 
L 1178 4863 
L 1178 0 
L 603 0 
L 603 4863 
z
" transform="scale(0.015625)"/>
       <path id="DejaVuSans-6b" d="M 581 4863 
L 1159 4863 
L 1159 1991 
L 2875 3500 
L 3609 3500 
L 1753 1863 
L 3688 0 
L 2938 0 
L 1159 1709 
L 1159 0 
L 581 0 
L 581 4863 
z
" transform="scale(0.015625)"/>
      </defs>
      <use xlink:href="#DejaVuSans-31"/>
      <use xlink:href="#DejaVuSans-20" x="63.623047"/>
      <use xlink:href="#DejaVuSans-6c" x="95.410156"/>
      <use xlink:href="#DejaVuSans-69" x="123.193359"/>
      <use xlink:href="#DejaVuSans-6e" x="150.976562"/>
      <use xlink:href="#DejaVuSans-6b" x="214.355469"/>
     </g>
    </g>
    <g id="line2d_45">
     <path d="M 54.58125 43.537845 
L 66.58125 43.537845 
L 78.58125 43.537845 
" style="fill: none; stroke: #bc5090; stroke-width: 1.5; stroke-linecap: square"/>
    </g>
    <g id="text_19">
     <!-- 2 links -->
     <g transform="translate(88.18125 47.737845) scale(0.12 -0.12)">
      <use xlink:href="#DejaVuSans-32"/>
      <use xlink:href="#DejaVuSans-20" x="63.623047"/>
      <use xlink:href="#DejaVuSans-6c" x="95.410156"/>
      <use xlink:href="#DejaVuSans-69" x="123.193359"/>
      <use xlink:href="#DejaVuSans-6e" x="150.976562"/>
      <use xlink:href="#DejaVuSans-6b" x="214.355469"/>
      <use xlink:href="#DejaVuSans-73" x="272.265625"/>
     </g>
    </g>
    <g id="line2d_46">
     <path d="M 54.58125 61.151595 
L 66.58125 61.151595 
L 78.58125 61.151595 
" style="fill: none; stroke: #ffa600; stroke-width: 1.5; stroke-linecap: square"/>
    </g>
    <g id="text_20">
     <!-- 3 links -->
     <g transform="translate(88.18125 65.351595) scale(0.12 -0.12)">
      <use xlink:href="#DejaVuSans-33"/>
      <use xlink:href="#DejaVuSans-20" x="63.623047"/>
      <use xlink:href="#DejaVuSans-6c" x="95.410156"/>
      <use xlink:href="#DejaVuSans-69" x="123.193359"/>
      <use xlink:href="#DejaVuSans-6e" x="150.976562"/>
      <use xlink:href="#DejaVuSans-6b" x="214.355469"/>
      <use xlink:href="#DejaVuSans-73" x="272.265625"/>
     </g>
    </g>
   </g>
  </g>
 </g>
 <defs>
  <clipPath id="p79d0d0bd20">
   <rect x="43.78125" y="10.20597" width="357.12" height="266.112"/>
  </clipPath>
 </defs>
</svg>
