<?xml version="1.0" encoding="utf-8" standalone="no"?>
<!DOCTYPE svg PUBLIC "-//W3C//DTD SVG 1.1//EN"
  "http://www.w3.org/Graphics/SVG/1.1/DTD/svg11.dtd">
<svg xmlns:xlink="http://www.w3.org/1999/xlink" width="408.10125pt" height="310.86825pt" viewBox="0 0 408.10125 310.86825" xmlns="http://www.w3.org/2000/svg" version="1.1">
 <metadata>
  <rdf:RDF xmlns:dc="http://purl.org/dc/elements/1.1/" xmlns:cc="http://creativecommons.org/ns#" xmlns:rdf="http://www.w3.org/1999/02/22-rdf-syntax-ns#">
   <cc:Work>
    <dc:type rdf:resource="http://purl.org/dc/dcmitype/StillImage"/>
    <dc:date>2025-03-23T11:52:01.802813</dc:date>
    <dc:format>image/svg+xml</dc:format>
    <dc:creator>
     <cc:Agent>
      <dc:title>Matplotlib v3.9.2, https://matplotlib.org/</dc:title>
     </cc:Agent>
    </dc:creator>
   </cc:Work>
  </rdf:RDF>
 </metadata>
 <defs>
  <style type="text/css">*{stroke-linejoin: round; stroke-linecap: butt}</style>
 </defs>
 <g id="figure_1">
  <g id="patch_1">
   <path d="M 0 310.86825 
L 408.10125 310.86825 
L 408.10125 0 
L 0 0 
z
" style="fill: #ffffff"/>
  </g>
  <g id="axes_1">
   <g id="patch_2">
    <path d="M 43.78125 273.312 
L 400.90125 273.312 
L 400.90125 7.2 
L 43.78125 7.2 
z
" style="fill: #ffffff"/>
   </g>
   <g id="PolyCollection_1">
    <defs>
     <path id="m8b1043b465" d="M 60.013977 -56.854365 
L 60.013977 -56.651899 
L 83.203588 -130.52515 
L 106.393198 -210.067916 
L 129.582808 -266.257085 
L 152.772419 -279.034953 
L 175.962029 -253.122607 
L 199.15164 -223.690818 
L 222.34125 -206.312672 
L 245.53086 -195.171388 
L 268.720471 -150.483119 
L 291.910081 -172.679347 
L 315.099692 -167.65556 
L 338.289302 -164.8139 
L 361.478912 -164.525579 
L 384.668523 -163.960959 
L 384.668523 -164.841901 
L 384.668523 -164.841901 
L 361.478912 -165.766595 
L 338.289302 -166.910241 
L 315.099692 -168.35084 
L 291.910081 -174.038693 
L 268.720471 -185.883459 
L 245.53086 -197.337082 
L 222.34125 -207.95532 
L 199.15164 -230.933519 
L 175.962029 -257.117327 
L 152.772419 -283.147801 
L 129.582808 -275.869518 
L 106.393198 -225.70447 
L 83.203588 -133.036883 
L 60.013977 -56.854365 
z
" style="stroke: #003f5c; stroke-opacity: 0.2"/>
    </defs>
    <g clip-path="url(#pf743b3005d)">
     <use xlink:href="#m8b1043b465" x="0" y="310.86825" style="fill: #003f5c; fill-opacity: 0.2; stroke: #003f5c; stroke-opacity: 0.2"/>
    </g>
   </g>
   <g id="PolyCollection_2">
    <defs>
     <path id="m88d30d0215" d="M 60.013977 -58.323605 
L 60.013977 -58.016873 
L 83.203588 -137.198337 
L 106.393198 -227.936365 
L 129.582808 -273.709969 
L 152.772419 -274.617861 
L 175.962029 -243.749025 
L 199.15164 -218.376216 
L 222.34125 -200.747891 
L 245.53086 -190.362658 
L 268.720471 -179.68426 
L 291.910081 -169.584014 
L 315.099692 -167.437131 
L 338.289302 -146.677412 
L 361.478912 -164.293046 
L 384.668523 -163.06902 
L 384.668523 -164.564993 
L 384.668523 -164.564993 
L 361.478912 -166.250165 
L 338.289302 -167.008616 
L 315.099692 -167.966473 
L 291.910081 -171.063836 
L 268.720471 -181.275627 
L 245.53086 -190.919155 
L 222.34125 -202.070139 
L 199.15164 -224.501752 
L 175.962029 -253.859982 
L 152.772419 -283.874428 
L 129.582808 -289.427475 
L 106.393198 -255.052564 
L 83.203588 -145.076092 
L 60.013977 -58.323605 
z
" style="stroke: #bc5090; stroke-opacity: 0.2"/>
    </defs>
    <g clip-path="url(#pf743b3005d)">
     <use xlink:href="#m88d30d0215" x="0" y="310.86825" style="fill: #bc5090; fill-opacity: 0.2; stroke: #bc5090; stroke-opacity: 0.2"/>
    </g>
   </g>
   <g id="PolyCollection_3">
    <defs>
     <path id="m7ff3602582" d="M 60.013977 -58.936524 
L 60.013977 -58.844255 
L 83.203588 -137.352402 
L 106.393198 -219.659245 
L 129.582808 -264.388879 
L 152.772419 -273.683042 
L 175.962029 -250.786298 
L 199.15164 -219.617937 
L 222.34125 -203.473594 
L 245.53086 -190.644315 
L 268.720471 -180.237223 
L 291.910081 -143.785412 
L 315.099692 -165.025268 
L 338.289302 -165.857272 
L 361.478912 -148.621969 
L 384.668523 -164.112638 
L 384.668523 -166.835517 
L 384.668523 -166.835517 
L 361.478912 -164.661725 
L 338.289302 -167.620968 
L 315.099692 -168.736741 
L 291.910081 -171.874752 
L 268.720471 -182.817672 
L 245.53086 -191.560713 
L 222.34125 -205.778473 
L 199.15164 -229.172779 
L 175.962029 -252.460787 
L 152.772419 -291.905567 
L 129.582808 -281.780306 
L 106.393198 -237.092085 
L 83.203588 -155.231416 
L 60.013977 -58.936524 
z
" style="stroke: #ffa600; stroke-opacity: 0.2"/>
    </defs>
    <g clip-path="url(#pf743b3005d)">
     <use xlink:href="#m7ff3602582" x="0" y="310.86825" style="fill: #ffa600; fill-opacity: 0.2; stroke: #ffa600; stroke-opacity: 0.2"/>
    </g>
   </g>
   <g id="matplotlib.axis_1">
    <g id="xtick_1">
     <g id="line2d_1">
      <path d="M 83.203588 273.312 
L 83.203588 7.2 
" clip-path="url(#pf743b3005d)" style="fill: none; stroke-dasharray: 1.85,0.8; stroke-dashoffset: 0; stroke: #ffffff; stroke-width: 0.5"/>
     </g>
     <g id="line2d_2">
      <defs>
       <path id="meb9e2fe96d" d="M 0 0 
L 0 3.5 
" style="stroke: #000000; stroke-width: 0.8"/>
      </defs>
      <g>
       <use xlink:href="#meb9e2fe96d" x="83.203588" y="273.312" style="stroke: #000000; stroke-width: 0.8"/>
      </g>
     </g>
     <g id="text_1">
      <!-- 2 -->
      <g transform="translate(80.022338 287.910437) scale(0.1 -0.1)">
       <defs>
        <path id="DejaVuSans-32" d="M 1228 531 
L 3431 531 
L 3431 0 
L 469 0 
L 469 531 
Q 828 903 1448 1529 
Q 2069 2156 2228 2338 
Q 2531 2678 2651 2914 
Q 2772 3150 2772 3378 
Q 2772 3750 2511 3984 
Q 2250 4219 1831 4219 
Q 1534 4219 1204 4116 
Q 875 4013 500 3803 
L 500 4441 
Q 881 4594 1212 4672 
Q 1544 4750 1819 4750 
Q 2544 4750 2975 4387 
Q 3406 4025 3406 3419 
Q 3406 3131 3298 2873 
Q 3191 2616 2906 2266 
Q 2828 2175 2409 1742 
Q 1991 1309 1228 531 
z
" transform="scale(0.015625)"/>
       </defs>
       <use xlink:href="#DejaVuSans-32"/>
      </g>
     </g>
    </g>
    <g id="xtick_2">
     <g id="line2d_3">
      <path d="M 129.582808 273.312 
L 129.582808 7.2 
" clip-path="url(#pf743b3005d)" style="fill: none; stroke-dasharray: 1.85,0.8; stroke-dashoffset: 0; stroke: #ffffff; stroke-width: 0.5"/>
     </g>
     <g id="line2d_4">
      <g>
       <use xlink:href="#meb9e2fe96d" x="129.582808" y="273.312" style="stroke: #000000; stroke-width: 0.8"/>
      </g>
     </g>
     <g id="text_2">
      <!-- 4 -->
      <g transform="translate(126.401558 287.910437) scale(0.1 -0.1)">
       <defs>
        <path id="DejaVuSans-34" d="M 2419 4116 
L 825 1625 
L 2419 1625 
L 2419 4116 
z
M 2253 4666 
L 3047 4666 
L 3047 1625 
L 3713 1625 
L 3713 1100 
L 3047 1100 
L 3047 0 
L 2419 0 
L 2419 1100 
L 313 1100 
L 313 1709 
L 2253 4666 
z
" transform="scale(0.015625)"/>
       </defs>
       <use xlink:href="#DejaVuSans-34"/>
      </g>
     </g>
    </g>
    <g id="xtick_3">
     <g id="line2d_5">
      <path d="M 175.962029 273.312 
L 175.962029 7.2 
" clip-path="url(#pf743b3005d)" style="fill: none; stroke-dasharray: 1.85,0.8; stroke-dashoffset: 0; stroke: #ffffff; stroke-width: 0.5"/>
     </g>
     <g id="line2d_6">
      <g>
       <use xlink:href="#meb9e2fe96d" x="175.962029" y="273.312" style="stroke: #000000; stroke-width: 0.8"/>
      </g>
     </g>
     <g id="text_3">
      <!-- 6 -->
      <g transform="translate(172.780779 287.910437) scale(0.1 -0.1)">
       <defs>
        <path id="DejaVuSans-36" d="M 2113 2584 
Q 1688 2584 1439 2293 
Q 1191 2003 1191 1497 
Q 1191 994 1439 701 
Q 1688 409 2113 409 
Q 2538 409 2786 701 
Q 3034 994 3034 1497 
Q 3034 2003 2786 2293 
Q 2538 2584 2113 2584 
z
M 3366 4563 
L 3366 3988 
Q 3128 4100 2886 4159 
Q 2644 4219 2406 4219 
Q 1781 4219 1451 3797 
Q 1122 3375 1075 2522 
Q 1259 2794 1537 2939 
Q 1816 3084 2150 3084 
Q 2853 3084 3261 2657 
Q 3669 2231 3669 1497 
Q 3669 778 3244 343 
Q 2819 -91 2113 -91 
Q 1303 -91 875 529 
Q 447 1150 447 2328 
Q 447 3434 972 4092 
Q 1497 4750 2381 4750 
Q 2619 4750 2861 4703 
Q 3103 4656 3366 4563 
z
" transform="scale(0.015625)"/>
       </defs>
       <use xlink:href="#DejaVuSans-36"/>
      </g>
     </g>
    </g>
    <g id="xtick_4">
     <g id="line2d_7">
      <path d="M 222.34125 273.312 
L 222.34125 7.2 
" clip-path="url(#pf743b3005d)" style="fill: none; stroke-dasharray: 1.85,0.8; stroke-dashoffset: 0; stroke: #ffffff; stroke-width: 0.5"/>
     </g>
     <g id="line2d_8">
      <g>
       <use xlink:href="#meb9e2fe96d" x="222.34125" y="273.312" style="stroke: #000000; stroke-width: 0.8"/>
      </g>
     </g>
     <g id="text_4">
      <!-- 8 -->
      <g transform="translate(219.16 287.910437) scale(0.1 -0.1)">
       <defs>
        <path id="DejaVuSans-38" d="M 2034 2216 
Q 1584 2216 1326 1975 
Q 1069 1734 1069 1313 
Q 1069 891 1326 650 
Q 1584 409 2034 409 
Q 2484 409 2743 651 
Q 3003 894 3003 1313 
Q 3003 1734 2745 1975 
Q 2488 2216 2034 2216 
z
M 1403 2484 
Q 997 2584 770 2862 
Q 544 3141 544 3541 
Q 544 4100 942 4425 
Q 1341 4750 2034 4750 
Q 2731 4750 3128 4425 
Q 3525 4100 3525 3541 
Q 3525 3141 3298 2862 
Q 3072 2584 2669 2484 
Q 3125 2378 3379 2068 
Q 3634 1759 3634 1313 
Q 3634 634 3220 271 
Q 2806 -91 2034 -91 
Q 1263 -91 848 271 
Q 434 634 434 1313 
Q 434 1759 690 2068 
Q 947 2378 1403 2484 
z
M 1172 3481 
Q 1172 3119 1398 2916 
Q 1625 2713 2034 2713 
Q 2441 2713 2670 2916 
Q 2900 3119 2900 3481 
Q 2900 3844 2670 4047 
Q 2441 4250 2034 4250 
Q 1625 4250 1398 4047 
Q 1172 3844 1172 3481 
z
" transform="scale(0.015625)"/>
       </defs>
       <use xlink:href="#DejaVuSans-38"/>
      </g>
     </g>
    </g>
    <g id="xtick_5">
     <g id="line2d_9">
      <path d="M 268.720471 273.312 
L 268.720471 7.2 
" clip-path="url(#pf743b3005d)" style="fill: none; stroke-dasharray: 1.85,0.8; stroke-dashoffset: 0; stroke: #ffffff; stroke-width: 0.5"/>
     </g>
     <g id="line2d_10">
      <g>
       <use xlink:href="#meb9e2fe96d" x="268.720471" y="273.312" style="stroke: #000000; stroke-width: 0.8"/>
      </g>
     </g>
     <g id="text_5">
      <!-- 10 -->
      <g transform="translate(262.357971 287.910437) scale(0.1 -0.1)">
       <defs>
        <path id="DejaVuSans-31" d="M 794 531 
L 1825 531 
L 1825 4091 
L 703 3866 
L 703 4441 
L 1819 4666 
L 2450 4666 
L 2450 531 
L 3481 531 
L 3481 0 
L 794 0 
L 794 531 
z
" transform="scale(0.015625)"/>
        <path id="DejaVuSans-30" d="M 2034 4250 
Q 1547 4250 1301 3770 
Q 1056 3291 1056 2328 
Q 1056 1369 1301 889 
Q 1547 409 2034 409 
Q 2525 409 2770 889 
Q 3016 1369 3016 2328 
Q 3016 3291 2770 3770 
Q 2525 4250 2034 4250 
z
M 2034 4750 
Q 2819 4750 3233 4129 
Q 3647 3509 3647 2328 
Q 3647 1150 3233 529 
Q 2819 -91 2034 -91 
Q 1250 -91 836 529 
Q 422 1150 422 2328 
Q 422 3509 836 4129 
Q 1250 4750 2034 4750 
z
" transform="scale(0.015625)"/>
       </defs>
       <use xlink:href="#DejaVuSans-31"/>
       <use xlink:href="#DejaVuSans-30" x="63.623047"/>
      </g>
     </g>
    </g>
    <g id="xtick_6">
     <g id="line2d_11">
      <path d="M 315.099692 273.312 
L 315.099692 7.2 
" clip-path="url(#pf743b3005d)" style="fill: none; stroke-dasharray: 1.85,0.8; stroke-dashoffset: 0; stroke: #ffffff; stroke-width: 0.5"/>
     </g>
     <g id="line2d_12">
      <g>
       <use xlink:href="#meb9e2fe96d" x="315.099692" y="273.312" style="stroke: #000000; stroke-width: 0.8"/>
      </g>
     </g>
     <g id="text_6">
      <!-- 12 -->
      <g transform="translate(308.737192 287.910437) scale(0.1 -0.1)">
       <use xlink:href="#DejaVuSans-31"/>
       <use xlink:href="#DejaVuSans-32" x="63.623047"/>
      </g>
     </g>
    </g>
    <g id="xtick_7">
     <g id="line2d_13">
      <path d="M 361.478912 273.312 
L 361.478912 7.2 
" clip-path="url(#pf743b3005d)" style="fill: none; stroke-dasharray: 1.85,0.8; stroke-dashoffset: 0; stroke: #ffffff; stroke-width: 0.5"/>
     </g>
     <g id="line2d_14">
      <g>
       <use xlink:href="#meb9e2fe96d" x="361.478912" y="273.312" style="stroke: #000000; stroke-width: 0.8"/>
      </g>
     </g>
     <g id="text_7">
      <!-- 14 -->
      <g transform="translate(355.116412 287.910437) scale(0.1 -0.1)">
       <use xlink:href="#DejaVuSans-31"/>
       <use xlink:href="#DejaVuSans-34" x="63.623047"/>
      </g>
     </g>
    </g>
    <g id="text_8">
     <!-- Number of stations -->
     <g transform="translate(174.446719 301.588562) scale(0.1 -0.1)">
      <defs>
       <path id="DejaVuSans-4e" d="M 628 4666 
L 1478 4666 
L 3547 763 
L 3547 4666 
L 4159 4666 
L 4159 0 
L 3309 0 
L 1241 3903 
L 1241 0 
L 628 0 
L 628 4666 
z
" transform="scale(0.015625)"/>
       <path id="DejaVuSans-75" d="M 544 1381 
L 544 3500 
L 1119 3500 
L 1119 1403 
Q 1119 906 1312 657 
Q 1506 409 1894 409 
Q 2359 409 2629 706 
Q 2900 1003 2900 1516 
L 2900 3500 
L 3475 3500 
L 3475 0 
L 2900 0 
L 2900 538 
Q 2691 219 2414 64 
Q 2138 -91 1772 -91 
Q 1169 -91 856 284 
Q 544 659 544 1381 
z
M 1991 3584 
L 1991 3584 
z
" transform="scale(0.015625)"/>
       <path id="DejaVuSans-6d" d="M 3328 2828 
Q 3544 3216 3844 3400 
Q 4144 3584 4550 3584 
Q 5097 3584 5394 3201 
Q 5691 2819 5691 2113 
L 5691 0 
L 5113 0 
L 5113 2094 
Q 5113 2597 4934 2840 
Q 4756 3084 4391 3084 
Q 3944 3084 3684 2787 
Q 3425 2491 3425 1978 
L 3425 0 
L 2847 0 
L 2847 2094 
Q 2847 2600 2669 2842 
Q 2491 3084 2119 3084 
Q 1678 3084 1418 2786 
Q 1159 2488 1159 1978 
L 1159 0 
L 581 0 
L 581 3500 
L 1159 3500 
L 1159 2956 
Q 1356 3278 1631 3431 
Q 1906 3584 2284 3584 
Q 2666 3584 2933 3390 
Q 3200 3197 3328 2828 
z
" transform="scale(0.015625)"/>
       <path id="DejaVuSans-62" d="M 3116 1747 
Q 3116 2381 2855 2742 
Q 2594 3103 2138 3103 
Q 1681 3103 1420 2742 
Q 1159 2381 1159 1747 
Q 1159 1113 1420 752 
Q 1681 391 2138 391 
Q 2594 391 2855 752 
Q 3116 1113 3116 1747 
z
M 1159 2969 
Q 1341 3281 1617 3432 
Q 1894 3584 2278 3584 
Q 2916 3584 3314 3078 
Q 3713 2572 3713 1747 
Q 3713 922 3314 415 
Q 2916 -91 2278 -91 
Q 1894 -91 1617 61 
Q 1341 213 1159 525 
L 1159 0 
L 581 0 
L 581 4863 
L 1159 4863 
L 1159 2969 
z
" transform="scale(0.015625)"/>
       <path id="DejaVuSans-65" d="M 3597 1894 
L 3597 1613 
L 953 1613 
Q 991 1019 1311 708 
Q 1631 397 2203 397 
Q 2534 397 2845 478 
Q 3156 559 3463 722 
L 3463 178 
Q 3153 47 2828 -22 
Q 2503 -91 2169 -91 
Q 1331 -91 842 396 
Q 353 884 353 1716 
Q 353 2575 817 3079 
Q 1281 3584 2069 3584 
Q 2775 3584 3186 3129 
Q 3597 2675 3597 1894 
z
M 3022 2063 
Q 3016 2534 2758 2815 
Q 2500 3097 2075 3097 
Q 1594 3097 1305 2825 
Q 1016 2553 972 2059 
L 3022 2063 
z
" transform="scale(0.015625)"/>
       <path id="DejaVuSans-72" d="M 2631 2963 
Q 2534 3019 2420 3045 
Q 2306 3072 2169 3072 
Q 1681 3072 1420 2755 
Q 1159 2438 1159 1844 
L 1159 0 
L 581 0 
L 581 3500 
L 1159 3500 
L 1159 2956 
Q 1341 3275 1631 3429 
Q 1922 3584 2338 3584 
Q 2397 3584 2469 3576 
Q 2541 3569 2628 3553 
L 2631 2963 
z
" transform="scale(0.015625)"/>
       <path id="DejaVuSans-20" transform="scale(0.015625)"/>
       <path id="DejaVuSans-6f" d="M 1959 3097 
Q 1497 3097 1228 2736 
Q 959 2375 959 1747 
Q 959 1119 1226 758 
Q 1494 397 1959 397 
Q 2419 397 2687 759 
Q 2956 1122 2956 1747 
Q 2956 2369 2687 2733 
Q 2419 3097 1959 3097 
z
M 1959 3584 
Q 2709 3584 3137 3096 
Q 3566 2609 3566 1747 
Q 3566 888 3137 398 
Q 2709 -91 1959 -91 
Q 1206 -91 779 398 
Q 353 888 353 1747 
Q 353 2609 779 3096 
Q 1206 3584 1959 3584 
z
" transform="scale(0.015625)"/>
       <path id="DejaVuSans-66" d="M 2375 4863 
L 2375 4384 
L 1825 4384 
Q 1516 4384 1395 4259 
Q 1275 4134 1275 3809 
L 1275 3500 
L 2222 3500 
L 2222 3053 
L 1275 3053 
L 1275 0 
L 697 0 
L 697 3053 
L 147 3053 
L 147 3500 
L 697 3500 
L 697 3744 
Q 697 4328 969 4595 
Q 1241 4863 1831 4863 
L 2375 4863 
z
" transform="scale(0.015625)"/>
       <path id="DejaVuSans-73" d="M 2834 3397 
L 2834 2853 
Q 2591 2978 2328 3040 
Q 2066 3103 1784 3103 
Q 1356 3103 1142 2972 
Q 928 2841 928 2578 
Q 928 2378 1081 2264 
Q 1234 2150 1697 2047 
L 1894 2003 
Q 2506 1872 2764 1633 
Q 3022 1394 3022 966 
Q 3022 478 2636 193 
Q 2250 -91 1575 -91 
Q 1294 -91 989 -36 
Q 684 19 347 128 
L 347 722 
Q 666 556 975 473 
Q 1284 391 1588 391 
Q 1994 391 2212 530 
Q 2431 669 2431 922 
Q 2431 1156 2273 1281 
Q 2116 1406 1581 1522 
L 1381 1569 
Q 847 1681 609 1914 
Q 372 2147 372 2553 
Q 372 3047 722 3315 
Q 1072 3584 1716 3584 
Q 2034 3584 2315 3537 
Q 2597 3491 2834 3397 
z
" transform="scale(0.015625)"/>
       <path id="DejaVuSans-74" d="M 1172 4494 
L 1172 3500 
L 2356 3500 
L 2356 3053 
L 1172 3053 
L 1172 1153 
Q 1172 725 1289 603 
Q 1406 481 1766 481 
L 2356 481 
L 2356 0 
L 1766 0 
Q 1100 0 847 248 
Q 594 497 594 1153 
L 594 3053 
L 172 3053 
L 172 3500 
L 594 3500 
L 594 4494 
L 1172 4494 
z
" transform="scale(0.015625)"/>
       <path id="DejaVuSans-61" d="M 2194 1759 
Q 1497 1759 1228 1600 
Q 959 1441 959 1056 
Q 959 750 1161 570 
Q 1363 391 1709 391 
Q 2188 391 2477 730 
Q 2766 1069 2766 1631 
L 2766 1759 
L 2194 1759 
z
M 3341 1997 
L 3341 0 
L 2766 0 
L 2766 531 
Q 2569 213 2275 61 
Q 1981 -91 1556 -91 
Q 1019 -91 701 211 
Q 384 513 384 1019 
Q 384 1609 779 1909 
Q 1175 2209 1959 2209 
L 2766 2209 
L 2766 2266 
Q 2766 2663 2505 2880 
Q 2244 3097 1772 3097 
Q 1472 3097 1187 3025 
Q 903 2953 641 2809 
L 641 3341 
Q 956 3463 1253 3523 
Q 1550 3584 1831 3584 
Q 2591 3584 2966 3190 
Q 3341 2797 3341 1997 
z
" transform="scale(0.015625)"/>
       <path id="DejaVuSans-69" d="M 603 3500 
L 1178 3500 
L 1178 0 
L 603 0 
L 603 3500 
z
M 603 4863 
L 1178 4863 
L 1178 4134 
L 603 4134 
L 603 4863 
z
" transform="scale(0.015625)"/>
       <path id="DejaVuSans-6e" d="M 3513 2113 
L 3513 0 
L 2938 0 
L 2938 2094 
Q 2938 2591 2744 2837 
Q 2550 3084 2163 3084 
Q 1697 3084 1428 2787 
Q 1159 2491 1159 1978 
L 1159 0 
L 581 0 
L 581 3500 
L 1159 3500 
L 1159 2956 
Q 1366 3272 1645 3428 
Q 1925 3584 2291 3584 
Q 2894 3584 3203 3211 
Q 3513 2838 3513 2113 
z
" transform="scale(0.015625)"/>
      </defs>
      <use xlink:href="#DejaVuSans-4e"/>
      <use xlink:href="#DejaVuSans-75" x="74.804688"/>
      <use xlink:href="#DejaVuSans-6d" x="138.183594"/>
      <use xlink:href="#DejaVuSans-62" x="235.595703"/>
      <use xlink:href="#DejaVuSans-65" x="299.072266"/>
      <use xlink:href="#DejaVuSans-72" x="360.595703"/>
      <use xlink:href="#DejaVuSans-20" x="401.708984"/>
      <use xlink:href="#DejaVuSans-6f" x="433.496094"/>
      <use xlink:href="#DejaVuSans-66" x="494.677734"/>
      <use xlink:href="#DejaVuSans-20" x="529.882812"/>
      <use xlink:href="#DejaVuSans-73" x="561.669922"/>
      <use xlink:href="#DejaVuSans-74" x="613.769531"/>
      <use xlink:href="#DejaVuSans-61" x="652.978516"/>
      <use xlink:href="#DejaVuSans-74" x="714.257812"/>
      <use xlink:href="#DejaVuSans-69" x="753.466797"/>
      <use xlink:href="#DejaVuSans-6f" x="781.25"/>
      <use xlink:href="#DejaVuSans-6e" x="842.431641"/>
      <use xlink:href="#DejaVuSans-73" x="905.810547"/>
     </g>
    </g>
   </g>
   <g id="matplotlib.axis_2">
    <g id="ytick_1">
     <g id="line2d_15">
      <path d="M 43.78125 273.312 
L 400.90125 273.312 
" clip-path="url(#pf743b3005d)" style="fill: none; stroke-dasharray: 1.85,0.8; stroke-dashoffset: 0; stroke: #ffffff; stroke-width: 0.5"/>
     </g>
     <g id="line2d_16">
      <defs>
       <path id="m9df7eb8e49" d="M 0 0 
L -3.5 0 
" style="stroke: #000000; stroke-width: 0.8"/>
      </defs>
      <g>
       <use xlink:href="#m9df7eb8e49" x="43.78125" y="273.312" style="stroke: #000000; stroke-width: 0.8"/>
      </g>
     </g>
     <g id="text_9">
      <!-- 0.0 -->
      <g transform="translate(20.878125 277.111219) scale(0.1 -0.1)">
       <defs>
        <path id="DejaVuSans-2e" d="M 684 794 
L 1344 794 
L 1344 0 
L 684 0 
L 684 794 
z
" transform="scale(0.015625)"/>
       </defs>
       <use xlink:href="#DejaVuSans-30"/>
       <use xlink:href="#DejaVuSans-2e" x="63.623047"/>
       <use xlink:href="#DejaVuSans-30" x="95.410156"/>
      </g>
     </g>
    </g>
    <g id="ytick_2">
     <g id="line2d_17">
      <path d="M 43.78125 239.226869 
L 400.90125 239.226869 
" clip-path="url(#pf743b3005d)" style="fill: none; stroke-dasharray: 1.85,0.8; stroke-dashoffset: 0; stroke: #ffffff; stroke-width: 0.5"/>
     </g>
     <g id="line2d_18">
      <g>
       <use xlink:href="#m9df7eb8e49" x="43.78125" y="239.226869" style="stroke: #000000; stroke-width: 0.8"/>
      </g>
     </g>
     <g id="text_10">
      <!-- 0.1 -->
      <g transform="translate(20.878125 243.026087) scale(0.1 -0.1)">
       <use xlink:href="#DejaVuSans-30"/>
       <use xlink:href="#DejaVuSans-2e" x="63.623047"/>
       <use xlink:href="#DejaVuSans-31" x="95.410156"/>
      </g>
     </g>
    </g>
    <g id="ytick_3">
     <g id="line2d_19">
      <path d="M 43.78125 205.141737 
L 400.90125 205.141737 
" clip-path="url(#pf743b3005d)" style="fill: none; stroke-dasharray: 1.85,0.8; stroke-dashoffset: 0; stroke: #ffffff; stroke-width: 0.5"/>
     </g>
     <g id="line2d_20">
      <g>
       <use xlink:href="#m9df7eb8e49" x="43.78125" y="205.141737" style="stroke: #000000; stroke-width: 0.8"/>
      </g>
     </g>
     <g id="text_11">
      <!-- 0.2 -->
      <g transform="translate(20.878125 208.940956) scale(0.1 -0.1)">
       <use xlink:href="#DejaVuSans-30"/>
       <use xlink:href="#DejaVuSans-2e" x="63.623047"/>
       <use xlink:href="#DejaVuSans-32" x="95.410156"/>
      </g>
     </g>
    </g>
    <g id="ytick_4">
     <g id="line2d_21">
      <path d="M 43.78125 171.056606 
L 400.90125 171.056606 
" clip-path="url(#pf743b3005d)" style="fill: none; stroke-dasharray: 1.85,0.8; stroke-dashoffset: 0; stroke: #ffffff; stroke-width: 0.5"/>
     </g>
     <g id="line2d_22">
      <g>
       <use xlink:href="#m9df7eb8e49" x="43.78125" y="171.056606" style="stroke: #000000; stroke-width: 0.8"/>
      </g>
     </g>
     <g id="text_12">
      <!-- 0.3 -->
      <g transform="translate(20.878125 174.855825) scale(0.1 -0.1)">
       <defs>
        <path id="DejaVuSans-33" d="M 2597 2516 
Q 3050 2419 3304 2112 
Q 3559 1806 3559 1356 
Q 3559 666 3084 287 
Q 2609 -91 1734 -91 
Q 1441 -91 1130 -33 
Q 819 25 488 141 
L 488 750 
Q 750 597 1062 519 
Q 1375 441 1716 441 
Q 2309 441 2620 675 
Q 2931 909 2931 1356 
Q 2931 1769 2642 2001 
Q 2353 2234 1838 2234 
L 1294 2234 
L 1294 2753 
L 1863 2753 
Q 2328 2753 2575 2939 
Q 2822 3125 2822 3475 
Q 2822 3834 2567 4026 
Q 2313 4219 1838 4219 
Q 1578 4219 1281 4162 
Q 984 4106 628 3988 
L 628 4550 
Q 988 4650 1302 4700 
Q 1616 4750 1894 4750 
Q 2613 4750 3031 4423 
Q 3450 4097 3450 3541 
Q 3450 3153 3228 2886 
Q 3006 2619 2597 2516 
z
" transform="scale(0.015625)"/>
       </defs>
       <use xlink:href="#DejaVuSans-30"/>
       <use xlink:href="#DejaVuSans-2e" x="63.623047"/>
       <use xlink:href="#DejaVuSans-33" x="95.410156"/>
      </g>
     </g>
    </g>
    <g id="ytick_5">
     <g id="line2d_23">
      <path d="M 43.78125 136.971475 
L 400.90125 136.971475 
" clip-path="url(#pf743b3005d)" style="fill: none; stroke-dasharray: 1.85,0.8; stroke-dashoffset: 0; stroke: #ffffff; stroke-width: 0.5"/>
     </g>
     <g id="line2d_24">
      <g>
       <use xlink:href="#m9df7eb8e49" x="43.78125" y="136.971475" style="stroke: #000000; stroke-width: 0.8"/>
      </g>
     </g>
     <g id="text_13">
      <!-- 0.4 -->
      <g transform="translate(20.878125 140.770694) scale(0.1 -0.1)">
       <use xlink:href="#DejaVuSans-30"/>
       <use xlink:href="#DejaVuSans-2e" x="63.623047"/>
       <use xlink:href="#DejaVuSans-34" x="95.410156"/>
      </g>
     </g>
    </g>
    <g id="ytick_6">
     <g id="line2d_25">
      <path d="M 43.78125 102.886344 
L 400.90125 102.886344 
" clip-path="url(#pf743b3005d)" style="fill: none; stroke-dasharray: 1.85,0.8; stroke-dashoffset: 0; stroke: #ffffff; stroke-width: 0.5"/>
     </g>
     <g id="line2d_26">
      <g>
       <use xlink:href="#m9df7eb8e49" x="43.78125" y="102.886344" style="stroke: #000000; stroke-width: 0.8"/>
      </g>
     </g>
     <g id="text_14">
      <!-- 0.5 -->
      <g transform="translate(20.878125 106.685562) scale(0.1 -0.1)">
       <defs>
        <path id="DejaVuSans-35" d="M 691 4666 
L 3169 4666 
L 3169 4134 
L 1269 4134 
L 1269 2991 
Q 1406 3038 1543 3061 
Q 1681 3084 1819 3084 
Q 2600 3084 3056 2656 
Q 3513 2228 3513 1497 
Q 3513 744 3044 326 
Q 2575 -91 1722 -91 
Q 1428 -91 1123 -41 
Q 819 9 494 109 
L 494 744 
Q 775 591 1075 516 
Q 1375 441 1709 441 
Q 2250 441 2565 725 
Q 2881 1009 2881 1497 
Q 2881 1984 2565 2268 
Q 2250 2553 1709 2553 
Q 1456 2553 1204 2497 
Q 953 2441 691 2322 
L 691 4666 
z
" transform="scale(0.015625)"/>
       </defs>
       <use xlink:href="#DejaVuSans-30"/>
       <use xlink:href="#DejaVuSans-2e" x="63.623047"/>
       <use xlink:href="#DejaVuSans-35" x="95.410156"/>
      </g>
     </g>
    </g>
    <g id="ytick_7">
     <g id="line2d_27">
      <path d="M 43.78125 68.801212 
L 400.90125 68.801212 
" clip-path="url(#pf743b3005d)" style="fill: none; stroke-dasharray: 1.85,0.8; stroke-dashoffset: 0; stroke: #ffffff; stroke-width: 0.5"/>
     </g>
     <g id="line2d_28">
      <g>
       <use xlink:href="#m9df7eb8e49" x="43.78125" y="68.801212" style="stroke: #000000; stroke-width: 0.8"/>
      </g>
     </g>
     <g id="text_15">
      <!-- 0.6 -->
      <g transform="translate(20.878125 72.600431) scale(0.1 -0.1)">
       <use xlink:href="#DejaVuSans-30"/>
       <use xlink:href="#DejaVuSans-2e" x="63.623047"/>
       <use xlink:href="#DejaVuSans-36" x="95.410156"/>
      </g>
     </g>
    </g>
    <g id="ytick_8">
     <g id="line2d_29">
      <path d="M 43.78125 34.716081 
L 400.90125 34.716081 
" clip-path="url(#pf743b3005d)" style="fill: none; stroke-dasharray: 1.85,0.8; stroke-dashoffset: 0; stroke: #ffffff; stroke-width: 0.5"/>
     </g>
     <g id="line2d_30">
      <g>
       <use xlink:href="#m9df7eb8e49" x="43.78125" y="34.716081" style="stroke: #000000; stroke-width: 0.8"/>
      </g>
     </g>
     <g id="text_16">
      <!-- 0.7 -->
      <g transform="translate(20.878125 38.5153) scale(0.1 -0.1)">
       <defs>
        <path id="DejaVuSans-37" d="M 525 4666 
L 3525 4666 
L 3525 4397 
L 1831 0 
L 1172 0 
L 2766 4134 
L 525 4134 
L 525 4666 
z
" transform="scale(0.015625)"/>
       </defs>
       <use xlink:href="#DejaVuSans-30"/>
       <use xlink:href="#DejaVuSans-2e" x="63.623047"/>
       <use xlink:href="#DejaVuSans-37" x="95.410156"/>
      </g>
     </g>
    </g>
    <g id="text_17">
     <!-- Latency [s] -->
     <g transform="translate(14.798438 168.115375) rotate(-90) scale(0.1 -0.1)">
      <defs>
       <path id="DejaVuSans-4c" d="M 628 4666 
L 1259 4666 
L 1259 531 
L 3531 531 
L 3531 0 
L 628 0 
L 628 4666 
z
" transform="scale(0.015625)"/>
       <path id="DejaVuSans-63" d="M 3122 3366 
L 3122 2828 
Q 2878 2963 2633 3030 
Q 2388 3097 2138 3097 
Q 1578 3097 1268 2742 
Q 959 2388 959 1747 
Q 959 1106 1268 751 
Q 1578 397 2138 397 
Q 2388 397 2633 464 
Q 2878 531 3122 666 
L 3122 134 
Q 2881 22 2623 -34 
Q 2366 -91 2075 -91 
Q 1284 -91 818 406 
Q 353 903 353 1747 
Q 353 2603 823 3093 
Q 1294 3584 2113 3584 
Q 2378 3584 2631 3529 
Q 2884 3475 3122 3366 
z
" transform="scale(0.015625)"/>
       <path id="DejaVuSans-79" d="M 2059 -325 
Q 1816 -950 1584 -1140 
Q 1353 -1331 966 -1331 
L 506 -1331 
L 506 -850 
L 844 -850 
Q 1081 -850 1212 -737 
Q 1344 -625 1503 -206 
L 1606 56 
L 191 3500 
L 800 3500 
L 1894 763 
L 2988 3500 
L 3597 3500 
L 2059 -325 
z
" transform="scale(0.015625)"/>
       <path id="DejaVuSans-5b" d="M 550 4863 
L 1875 4863 
L 1875 4416 
L 1125 4416 
L 1125 -397 
L 1875 -397 
L 1875 -844 
L 550 -844 
L 550 4863 
z
" transform="scale(0.015625)"/>
       <path id="DejaVuSans-5d" d="M 1947 4863 
L 1947 -844 
L 622 -844 
L 622 -397 
L 1369 -397 
L 1369 4416 
L 622 4416 
L 622 4863 
L 1947 4863 
z
" transform="scale(0.015625)"/>
      </defs>
      <use xlink:href="#DejaVuSans-4c"/>
      <use xlink:href="#DejaVuSans-61" x="55.712891"/>
      <use xlink:href="#DejaVuSans-74" x="116.992188"/>
      <use xlink:href="#DejaVuSans-65" x="156.201172"/>
      <use xlink:href="#DejaVuSans-6e" x="217.724609"/>
      <use xlink:href="#DejaVuSans-63" x="281.103516"/>
      <use xlink:href="#DejaVuSans-79" x="336.083984"/>
      <use xlink:href="#DejaVuSans-20" x="395.263672"/>
      <use xlink:href="#DejaVuSans-5b" x="427.050781"/>
      <use xlink:href="#DejaVuSans-73" x="466.064453"/>
      <use xlink:href="#DejaVuSans-5d" x="518.164062"/>
     </g>
    </g>
   </g>
   <g id="line2d_31">
    <path d="M 60.013977 254.138659 
L 83.203588 179.185228 
L 106.393198 90.576499 
L 129.582808 39.832657 
L 152.772419 30.015673 
L 175.962029 55.316642 
L 199.15164 84.677417 
L 222.34125 103.827803 
L 245.53086 114.65397 
L 268.720471 137.866789 
L 291.910081 137.526587 
L 315.099692 142.768087 
L 338.289302 144.908862 
L 361.478912 145.789307 
L 384.668523 146.498458 
" clip-path="url(#pf743b3005d)" style="fill: none; stroke: #003f5c; stroke-width: 1.5; stroke-linecap: square"/>
    <defs>
     <path id="m6728f8c645" d="M 0 4 
C 1.060812 4 2.078319 3.578535 2.828427 2.828427 
C 3.578535 2.078319 4 1.060812 4 0 
C 4 -1.060812 3.578535 -2.078319 2.828427 -2.828427 
C 2.078319 -3.578535 1.060812 -4 0 -4 
C -1.060812 -4 -2.078319 -3.578535 -2.828427 -2.828427 
C -3.578535 -2.078319 -4 -1.060812 -4 0 
C -4 1.060812 -3.578535 2.078319 -2.828427 2.828427 
C -2.078319 3.578535 -1.060812 4 0 4 
z
" style="stroke: #ffffff; stroke-width: 0.75"/>
    </defs>
    <g clip-path="url(#pf743b3005d)">
     <use xlink:href="#m6728f8c645" x="60.013977" y="254.138659" style="fill: #003f5c; stroke: #ffffff; stroke-width: 0.75"/>
     <use xlink:href="#m6728f8c645" x="83.203588" y="179.185228" style="fill: #003f5c; stroke: #ffffff; stroke-width: 0.75"/>
     <use xlink:href="#m6728f8c645" x="106.393198" y="90.576499" style="fill: #003f5c; stroke: #ffffff; stroke-width: 0.75"/>
     <use xlink:href="#m6728f8c645" x="129.582808" y="39.832657" style="fill: #003f5c; stroke: #ffffff; stroke-width: 0.75"/>
     <use xlink:href="#m6728f8c645" x="152.772419" y="30.015673" style="fill: #003f5c; stroke: #ffffff; stroke-width: 0.75"/>
     <use xlink:href="#m6728f8c645" x="175.962029" y="55.316642" style="fill: #003f5c; stroke: #ffffff; stroke-width: 0.75"/>
     <use xlink:href="#m6728f8c645" x="199.15164" y="84.677417" style="fill: #003f5c; stroke: #ffffff; stroke-width: 0.75"/>
     <use xlink:href="#m6728f8c645" x="222.34125" y="103.827803" style="fill: #003f5c; stroke: #ffffff; stroke-width: 0.75"/>
     <use xlink:href="#m6728f8c645" x="245.53086" y="114.65397" style="fill: #003f5c; stroke: #ffffff; stroke-width: 0.75"/>
     <use xlink:href="#m6728f8c645" x="268.720471" y="137.866789" style="fill: #003f5c; stroke: #ffffff; stroke-width: 0.75"/>
     <use xlink:href="#m6728f8c645" x="291.910081" y="137.526587" style="fill: #003f5c; stroke: #ffffff; stroke-width: 0.75"/>
     <use xlink:href="#m6728f8c645" x="315.099692" y="142.768087" style="fill: #003f5c; stroke: #ffffff; stroke-width: 0.75"/>
     <use xlink:href="#m6728f8c645" x="338.289302" y="144.908862" style="fill: #003f5c; stroke: #ffffff; stroke-width: 0.75"/>
     <use xlink:href="#m6728f8c645" x="361.478912" y="145.789307" style="fill: #003f5c; stroke: #ffffff; stroke-width: 0.75"/>
     <use xlink:href="#m6728f8c645" x="384.668523" y="146.498458" style="fill: #003f5c; stroke: #ffffff; stroke-width: 0.75"/>
    </g>
   </g>
   <g id="line2d_32">
    <path d="M 60.013977 252.699006 
L 83.203588 170.320935 
L 106.393198 70.680212 
L 129.582808 27.52267 
L 152.772419 33.08563 
L 175.962029 61.515856 
L 199.15164 88.924717 
L 222.34125 109.264453 
L 245.53086 120.213306 
L 268.720471 130.573412 
L 291.910081 140.641029 
L 315.099692 143.151999 
L 338.289302 150.697601 
L 361.478912 145.325489 
L 384.668523 146.860973 
" clip-path="url(#pf743b3005d)" style="fill: none; stroke: #bc5090; stroke-width: 1.5; stroke-linecap: square"/>
    <defs>
     <path id="m313de2a463" d="M 0 4 
C 1.060812 4 2.078319 3.578535 2.828427 2.828427 
C 3.578535 2.078319 4 1.060812 4 0 
C 4 -1.060812 3.578535 -2.078319 2.828427 -2.828427 
C 2.078319 -3.578535 1.060812 -4 0 -4 
C -1.060812 -4 -2.078319 -3.578535 -2.828427 -2.828427 
C -3.578535 -2.078319 -4 -1.060812 -4 0 
C -4 1.060812 -3.578535 2.078319 -2.828427 2.828427 
C -2.078319 3.578535 -1.060812 4 0 4 
z
" style="stroke: #ffffff; stroke-width: 0.75"/>
    </defs>
    <g clip-path="url(#pf743b3005d)">
     <use xlink:href="#m313de2a463" x="60.013977" y="252.699006" style="fill: #bc5090; stroke: #ffffff; stroke-width: 0.75"/>
     <use xlink:href="#m313de2a463" x="83.203588" y="170.320935" style="fill: #bc5090; stroke: #ffffff; stroke-width: 0.75"/>
     <use xlink:href="#m313de2a463" x="106.393198" y="70.680212" style="fill: #bc5090; stroke: #ffffff; stroke-width: 0.75"/>
     <use xlink:href="#m313de2a463" x="129.582808" y="27.52267" style="fill: #bc5090; stroke: #ffffff; stroke-width: 0.75"/>
     <use xlink:href="#m313de2a463" x="152.772419" y="33.08563" style="fill: #bc5090; stroke: #ffffff; stroke-width: 0.75"/>
     <use xlink:href="#m313de2a463" x="175.962029" y="61.515856" style="fill: #bc5090; stroke: #ffffff; stroke-width: 0.75"/>
     <use xlink:href="#m313de2a463" x="199.15164" y="88.924717" style="fill: #bc5090; stroke: #ffffff; stroke-width: 0.75"/>
     <use xlink:href="#m313de2a463" x="222.34125" y="109.264453" style="fill: #bc5090; stroke: #ffffff; stroke-width: 0.75"/>
     <use xlink:href="#m313de2a463" x="245.53086" y="120.213306" style="fill: #bc5090; stroke: #ffffff; stroke-width: 0.75"/>
     <use xlink:href="#m313de2a463" x="268.720471" y="130.573412" style="fill: #bc5090; stroke: #ffffff; stroke-width: 0.75"/>
     <use xlink:href="#m313de2a463" x="291.910081" y="140.641029" style="fill: #bc5090; stroke: #ffffff; stroke-width: 0.75"/>
     <use xlink:href="#m313de2a463" x="315.099692" y="143.151999" style="fill: #bc5090; stroke: #ffffff; stroke-width: 0.75"/>
     <use xlink:href="#m313de2a463" x="338.289302" y="150.697601" style="fill: #bc5090; stroke: #ffffff; stroke-width: 0.75"/>
     <use xlink:href="#m313de2a463" x="361.478912" y="145.325489" style="fill: #bc5090; stroke: #ffffff; stroke-width: 0.75"/>
     <use xlink:href="#m313de2a463" x="384.668523" y="146.860973" style="fill: #bc5090; stroke: #ffffff; stroke-width: 0.75"/>
    </g>
   </g>
   <g id="line2d_33">
    <path d="M 60.013977 251.986978 
L 83.203588 167.079894 
L 106.393198 79.952542 
L 129.582808 39.15371 
L 152.772419 28.825443 
L 175.962029 59.291518 
L 199.15164 86.493311 
L 222.34125 106.545212 
L 245.53086 119.882377 
L 268.720471 129.232503 
L 291.910081 148.76587 
L 315.099692 144.59862 
L 338.289302 144.228278 
L 361.478912 156.703909 
L 384.668523 145.520556 
" clip-path="url(#pf743b3005d)" style="fill: none; stroke: #ffa600; stroke-width: 1.5; stroke-linecap: square"/>
    <defs>
     <path id="mb097373f9b" d="M 0 4 
C 1.060812 4 2.078319 3.578535 2.828427 2.828427 
C 3.578535 2.078319 4 1.060812 4 0 
C 4 -1.060812 3.578535 -2.078319 2.828427 -2.828427 
C 2.078319 -3.578535 1.060812 -4 0 -4 
C -1.060812 -4 -2.078319 -3.578535 -2.828427 -2.828427 
C -3.578535 -2.078319 -4 -1.060812 -4 0 
C -4 1.060812 -3.578535 2.078319 -2.828427 2.828427 
C -2.078319 3.578535 -1.060812 4 0 4 
z
" style="stroke: #ffffff; stroke-width: 0.75"/>
    </defs>
    <g clip-path="url(#pf743b3005d)">
     <use xlink:href="#mb097373f9b" x="60.013977" y="251.986978" style="fill: #ffa600; stroke: #ffffff; stroke-width: 0.75"/>
     <use xlink:href="#mb097373f9b" x="83.203588" y="167.079894" style="fill: #ffa600; stroke: #ffffff; stroke-width: 0.75"/>
     <use xlink:href="#mb097373f9b" x="106.393198" y="79.952542" style="fill: #ffa600; stroke: #ffffff; stroke-width: 0.75"/>
     <use xlink:href="#mb097373f9b" x="129.582808" y="39.15371" style="fill: #ffa600; stroke: #ffffff; stroke-width: 0.75"/>
     <use xlink:href="#mb097373f9b" x="152.772419" y="28.825443" style="fill: #ffa600; stroke: #ffffff; stroke-width: 0.75"/>
     <use xlink:href="#mb097373f9b" x="175.962029" y="59.291518" style="fill: #ffa600; stroke: #ffffff; stroke-width: 0.75"/>
     <use xlink:href="#mb097373f9b" x="199.15164" y="86.493311" style="fill: #ffa600; stroke: #ffffff; stroke-width: 0.75"/>
     <use xlink:href="#mb097373f9b" x="222.34125" y="106.545212" style="fill: #ffa600; stroke: #ffffff; stroke-width: 0.75"/>
     <use xlink:href="#mb097373f9b" x="245.53086" y="119.882377" style="fill: #ffa600; stroke: #ffffff; stroke-width: 0.75"/>
     <use xlink:href="#mb097373f9b" x="268.720471" y="129.232503" style="fill: #ffa600; stroke: #ffffff; stroke-width: 0.75"/>
     <use xlink:href="#mb097373f9b" x="291.910081" y="148.76587" style="fill: #ffa600; stroke: #ffffff; stroke-width: 0.75"/>
     <use xlink:href="#mb097373f9b" x="315.099692" y="144.59862" style="fill: #ffa600; stroke: #ffffff; stroke-width: 0.75"/>
     <use xlink:href="#mb097373f9b" x="338.289302" y="144.228278" style="fill: #ffa600; stroke: #ffffff; stroke-width: 0.75"/>
     <use xlink:href="#mb097373f9b" x="361.478912" y="156.703909" style="fill: #ffa600; stroke: #ffffff; stroke-width: 0.75"/>
     <use xlink:href="#mb097373f9b" x="384.668523" y="145.520556" style="fill: #ffa600; stroke: #ffffff; stroke-width: 0.75"/>
    </g>
   </g>
   <g id="line2d_34"/>
   <g id="line2d_35"/>
   <g id="line2d_36"/>
   <g id="line2d_37"/>
   <g id="line2d_38"/>
   <g id="line2d_39"/>
   <g id="patch_3">
    <path d="M 43.78125 273.312 
L 43.78125 7.2 
" style="fill: none; stroke: #000000; stroke-width: 0.8; stroke-linejoin: miter; stroke-linecap: square"/>
   </g>
   <g id="patch_4">
    <path d="M 400.90125 273.312 
L 400.90125 7.2 
" style="fill: none; stroke: #000000; stroke-width: 0.8; stroke-linejoin: miter; stroke-linecap: square"/>
   </g>
   <g id="patch_5">
    <path d="M 43.78125 273.312 
L 400.90125 273.312 
" style="fill: none; stroke: #000000; stroke-width: 0.8; stroke-linejoin: miter; stroke-linecap: square"/>
   </g>
   <g id="patch_6">
    <path d="M 43.78125 7.2 
L 400.90125 7.2 
" style="fill: none; stroke: #000000; stroke-width: 0.8; stroke-linejoin: miter; stroke-linecap: square"/>
   </g>
   <g id="legend_1">
    <g id="patch_7">
     <path d="M 315.18 69.64125 
L 392.50125 69.64125 
Q 394.90125 69.64125 394.90125 67.24125 
L 394.90125 15.6 
Q 394.90125 13.2 392.50125 13.2 
L 315.18 13.2 
Q 312.78 13.2 312.78 15.6 
L 312.78 67.24125 
Q 312.78 69.64125 315.18 69.64125 
z
" style="fill: #ffffff; opacity: 0.8; stroke: #cccccc; stroke-linejoin: miter"/>
    </g>
    <g id="line2d_40">
     <path d="M 317.58 22.918125 
L 329.58 22.918125 
L 341.58 22.918125 
" style="fill: none; stroke: #003f5c; stroke-width: 1.5; stroke-linecap: square"/>
    </g>
    <g id="text_18">
     <!-- 1 link -->
     <g transform="translate(351.18 27.118125) scale(0.12 -0.12)">
      <defs>
       <path id="DejaVuSans-6c" d="M 603 4863 
L 1178 4863 
L 1178 0 
L 603 0 
L 603 4863 
z
" transform="scale(0.015625)"/>
       <path id="DejaVuSans-6b" d="M 581 4863 
L 1159 4863 
L 1159 1991 
L 2875 3500 
L 3609 3500 
L 1753 1863 
L 3688 0 
L 2938 0 
L 1159 1709 
L 1159 0 
L 581 0 
L 581 4863 
z
" transform="scale(0.015625)"/>
      </defs>
      <use xlink:href="#DejaVuSans-31"/>
      <use xlink:href="#DejaVuSans-20" x="63.623047"/>
      <use xlink:href="#DejaVuSans-6c" x="95.410156"/>
      <use xlink:href="#DejaVuSans-69" x="123.193359"/>
      <use xlink:href="#DejaVuSans-6e" x="150.976562"/>
      <use xlink:href="#DejaVuSans-6b" x="214.355469"/>
     </g>
    </g>
    <g id="line2d_41">
     <path d="M 317.58 40.531875 
L 329.58 40.531875 
L 341.58 40.531875 
" style="fill: none; stroke: #bc5090; stroke-width: 1.5; stroke-linecap: square"/>
    </g>
    <g id="text_19">
     <!-- 2 links -->
     <g transform="translate(351.18 44.731875) scale(0.12 -0.12)">
      <use xlink:href="#DejaVuSans-32"/>
      <use xlink:href="#DejaVuSans-20" x="63.623047"/>
      <use xlink:href="#DejaVuSans-6c" x="95.410156"/>
      <use xlink:href="#DejaVuSans-69" x="123.193359"/>
      <use xlink:href="#DejaVuSans-6e" x="150.976562"/>
      <use xlink:href="#DejaVuSans-6b" x="214.355469"/>
      <use xlink:href="#DejaVuSans-73" x="272.265625"/>
     </g>
    </g>
    <g id="line2d_42">
     <path d="M 317.58 58.145625 
L 329.58 58.145625 
L 341.58 58.145625 
" style="fill: none; stroke: #ffa600; stroke-width: 1.5; stroke-linecap: square"/>
    </g>
    <g id="text_20">
     <!-- 3 links -->
     <g transform="translate(351.18 62.345625) scale(0.12 -0.12)">
      <use xlink:href="#DejaVuSans-33"/>
      <use xlink:href="#DejaVuSans-20" x="63.623047"/>
      <use xlink:href="#DejaVuSans-6c" x="95.410156"/>
      <use xlink:href="#DejaVuSans-69" x="123.193359"/>
      <use xlink:href="#DejaVuSans-6e" x="150.976562"/>
      <use xlink:href="#DejaVuSans-6b" x="214.355469"/>
      <use xlink:href="#DejaVuSans-73" x="272.265625"/>
     </g>
    </g>
   </g>
  </g>
 </g>
 <defs>
  <clipPath id="pf743b3005d">
   <rect x="43.78125" y="7.2" width="357.12" height="266.112"/>
  </clipPath>
 </defs>
</svg>
