<?xml version="1.0" encoding="utf-8" standalone="no"?>
<!DOCTYPE svg PUBLIC "-//W3C//DTD SVG 1.1//EN"
  "http://www.w3.org/Graphics/SVG/1.1/DTD/svg11.dtd">
<svg xmlns:xlink="http://www.w3.org/1999/xlink" width="856.495625pt" height="351.99625pt" viewBox="0 0 856.495625 351.99625" xmlns="http://www.w3.org/2000/svg" version="1.1">
 <metadata>
  <rdf:RDF xmlns:dc="http://purl.org/dc/elements/1.1/" xmlns:cc="http://creativecommons.org/ns#" xmlns:rdf="http://www.w3.org/1999/02/22-rdf-syntax-ns#">
   <cc:Work>
    <dc:type rdf:resource="http://purl.org/dc/dcmitype/StillImage"/>
    <dc:date>2025-03-23T11:52:05.867534</dc:date>
    <dc:format>image/svg+xml</dc:format>
    <dc:creator>
     <cc:Agent>
      <dc:title>Matplotlib v3.9.2, https://matplotlib.org/</dc:title>
     </cc:Agent>
    </dc:creator>
   </cc:Work>
  </rdf:RDF>
 </metadata>
 <defs>
  <style type="text/css">*{stroke-linejoin: round; stroke-linecap: butt}</style>
 </defs>
 <g id="figure_1">
  <g id="patch_1">
   <path d="M 0 351.99625 
L 856.495625 351.99625 
L 856.495625 0 
L 0 0 
z
" style="fill: #ffffff"/>
  </g>
  <g id="axes_1">
   <g id="patch_2">
    <path d="M 46.965625 314.44 
L 425.845625 314.44 
L 425.845625 7.2 
L 46.965625 7.2 
z
" style="fill: #ffffff"/>
   </g>
   <g id="PolyCollection_1">
    <defs>
     <path id="m0cfbd31ce0" d="M 64.187443 -337.570806 
L 64.187443 -337.545547 
L 88.790041 -318.973119 
L 113.392638 -304.288824 
L 137.995235 -291.647338 
L 162.597833 -281.29299 
L 187.20043 -271.643383 
L 211.803028 -261.97219 
L 236.405625 -253.66065 
L 261.008222 -244.963512 
L 285.61082 -237.726651 
L 310.213417 -224.329147 
L 334.816015 -212.54768 
L 359.418612 -206.734768 
L 384.021209 -201.540286 
L 408.623807 -196.462353 
L 408.623807 -197.593935 
L 408.623807 -197.593935 
L 384.021209 -202.952564 
L 359.418612 -209.50829 
L 334.816015 -213.213269 
L 310.213417 -224.542911 
L 285.61082 -245.440871 
L 261.008222 -246.447786 
L 236.405625 -254.471941 
L 211.803028 -262.298727 
L 187.20043 -272.950909 
L 162.597833 -281.505859 
L 137.995235 -292.217745 
L 113.392638 -304.995173 
L 88.790041 -319.687275 
L 64.187443 -337.570806 
z
" style="stroke: #003f5c; stroke-opacity: 0.2"/>
    </defs>
    <g clip-path="url(#pb50d66b301)">
     <use xlink:href="#m0cfbd31ce0" x="0" y="351.99625" style="fill: #003f5c; fill-opacity: 0.2; stroke: #003f5c; stroke-opacity: 0.2"/>
    </g>
   </g>
   <g id="PolyCollection_2">
    <defs>
     <path id="m1148b475dc" d="M 64.187443 -336.63161 
L 64.187443 -336.594869 
L 88.790041 -318.058034 
L 113.392638 -303.393718 
L 137.995235 -290.60963 
L 162.597833 -279.627926 
L 187.20043 -269.902081 
L 211.803028 -259.974619 
L 236.405625 -251.307608 
L 261.008222 -240.609018 
L 285.61082 -230.451648 
L 310.213417 -218.597296 
L 334.816015 -212.195699 
L 359.418612 -205.813139 
L 384.021209 -199.920683 
L 408.623807 -195.516061 
L 408.623807 -196.494294 
L 408.623807 -196.494294 
L 384.021209 -201.624876 
L 359.418612 -216.010833 
L 334.816015 -213.073193 
L 310.213417 -221.483911 
L 285.61082 -231.707254 
L 261.008222 -241.549385 
L 236.405625 -251.96872 
L 211.803028 -260.776954 
L 187.20043 -271.353587 
L 162.597833 -281.08058 
L 137.995235 -291.383261 
L 113.392638 -303.647691 
L 88.790041 -318.277103 
L 64.187443 -336.63161 
z
" style="stroke: #bc5090; stroke-opacity: 0.2"/>
    </defs>
    <g clip-path="url(#pb50d66b301)">
     <use xlink:href="#m1148b475dc" x="0" y="351.99625" style="fill: #bc5090; fill-opacity: 0.2; stroke: #bc5090; stroke-opacity: 0.2"/>
    </g>
   </g>
   <g id="PolyCollection_3">
    <defs>
     <path id="m34c68623be" d="M 64.187443 -336.112642 
L 64.187443 -336.10116 
L 88.790041 -317.166142 
L 113.392638 -303.215982 
L 137.995235 -289.675716 
L 162.597833 -279.209307 
L 187.20043 -269.629508 
L 211.803028 -260.023531 
L 236.405625 -249.690997 
L 261.008222 -241.784276 
L 285.61082 -230.011374 
L 310.213417 -217.995498 
L 334.816015 -213.127777 
L 359.418612 -205.606401 
L 384.021209 -201.625772 
L 408.623807 -193.061935 
L 408.623807 -196.292608 
L 408.623807 -196.292608 
L 384.021209 -209.688413 
L 359.418612 -208.044958 
L 334.816015 -214.376104 
L 310.213417 -231.438998 
L 285.61082 -231.497531 
L 261.008222 -242.505275 
L 236.405625 -252.697343 
L 211.803028 -261.275486 
L 187.20043 -270.344583 
L 162.597833 -279.695668 
L 137.995235 -291.816348 
L 113.392638 -303.677543 
L 88.790041 -317.896603 
L 64.187443 -336.112642 
z
" style="stroke: #ffa600; stroke-opacity: 0.2"/>
    </defs>
    <g clip-path="url(#pb50d66b301)">
     <use xlink:href="#m34c68623be" x="0" y="351.99625" style="fill: #ffa600; fill-opacity: 0.2; stroke: #ffa600; stroke-opacity: 0.2"/>
    </g>
   </g>
   <g id="matplotlib.axis_1">
    <g id="xtick_1">
     <g id="line2d_1">
      <path d="M 88.790041 314.44 
L 88.790041 7.2 
" clip-path="url(#pb50d66b301)" style="fill: none; stroke-dasharray: 1.85,0.8; stroke-dashoffset: 0; stroke: #ffffff; stroke-width: 0.5"/>
     </g>
     <g id="line2d_2">
      <defs>
       <path id="mef3da7801e" d="M 0 0 
L 0 3.5 
" style="stroke: #000000; stroke-width: 0.8"/>
      </defs>
      <g>
       <use xlink:href="#mef3da7801e" x="88.790041" y="314.44" style="stroke: #000000; stroke-width: 0.8"/>
      </g>
     </g>
     <g id="text_1">
      <!-- 2 -->
      <g transform="translate(85.608791 329.038437) scale(0.1 -0.1)">
       <defs>
        <path id="DejaVuSans-32" d="M 1228 531 
L 3431 531 
L 3431 0 
L 469 0 
L 469 531 
Q 828 903 1448 1529 
Q 2069 2156 2228 2338 
Q 2531 2678 2651 2914 
Q 2772 3150 2772 3378 
Q 2772 3750 2511 3984 
Q 2250 4219 1831 4219 
Q 1534 4219 1204 4116 
Q 875 4013 500 3803 
L 500 4441 
Q 881 4594 1212 4672 
Q 1544 4750 1819 4750 
Q 2544 4750 2975 4387 
Q 3406 4025 3406 3419 
Q 3406 3131 3298 2873 
Q 3191 2616 2906 2266 
Q 2828 2175 2409 1742 
Q 1991 1309 1228 531 
z
" transform="scale(0.015625)"/>
       </defs>
       <use xlink:href="#DejaVuSans-32"/>
      </g>
     </g>
    </g>
    <g id="xtick_2">
     <g id="line2d_3">
      <path d="M 137.995235 314.44 
L 137.995235 7.2 
" clip-path="url(#pb50d66b301)" style="fill: none; stroke-dasharray: 1.85,0.8; stroke-dashoffset: 0; stroke: #ffffff; stroke-width: 0.5"/>
     </g>
     <g id="line2d_4">
      <g>
       <use xlink:href="#mef3da7801e" x="137.995235" y="314.44" style="stroke: #000000; stroke-width: 0.8"/>
      </g>
     </g>
     <g id="text_2">
      <!-- 4 -->
      <g transform="translate(134.813985 329.038437) scale(0.1 -0.1)">
       <defs>
        <path id="DejaVuSans-34" d="M 2419 4116 
L 825 1625 
L 2419 1625 
L 2419 4116 
z
M 2253 4666 
L 3047 4666 
L 3047 1625 
L 3713 1625 
L 3713 1100 
L 3047 1100 
L 3047 0 
L 2419 0 
L 2419 1100 
L 313 1100 
L 313 1709 
L 2253 4666 
z
" transform="scale(0.015625)"/>
       </defs>
       <use xlink:href="#DejaVuSans-34"/>
      </g>
     </g>
    </g>
    <g id="xtick_3">
     <g id="line2d_5">
      <path d="M 187.20043 314.44 
L 187.20043 7.2 
" clip-path="url(#pb50d66b301)" style="fill: none; stroke-dasharray: 1.85,0.8; stroke-dashoffset: 0; stroke: #ffffff; stroke-width: 0.5"/>
     </g>
     <g id="line2d_6">
      <g>
       <use xlink:href="#mef3da7801e" x="187.20043" y="314.44" style="stroke: #000000; stroke-width: 0.8"/>
      </g>
     </g>
     <g id="text_3">
      <!-- 6 -->
      <g transform="translate(184.01918 329.038437) scale(0.1 -0.1)">
       <defs>
        <path id="DejaVuSans-36" d="M 2113 2584 
Q 1688 2584 1439 2293 
Q 1191 2003 1191 1497 
Q 1191 994 1439 701 
Q 1688 409 2113 409 
Q 2538 409 2786 701 
Q 3034 994 3034 1497 
Q 3034 2003 2786 2293 
Q 2538 2584 2113 2584 
z
M 3366 4563 
L 3366 3988 
Q 3128 4100 2886 4159 
Q 2644 4219 2406 4219 
Q 1781 4219 1451 3797 
Q 1122 3375 1075 2522 
Q 1259 2794 1537 2939 
Q 1816 3084 2150 3084 
Q 2853 3084 3261 2657 
Q 3669 2231 3669 1497 
Q 3669 778 3244 343 
Q 2819 -91 2113 -91 
Q 1303 -91 875 529 
Q 447 1150 447 2328 
Q 447 3434 972 4092 
Q 1497 4750 2381 4750 
Q 2619 4750 2861 4703 
Q 3103 4656 3366 4563 
z
" transform="scale(0.015625)"/>
       </defs>
       <use xlink:href="#DejaVuSans-36"/>
      </g>
     </g>
    </g>
    <g id="xtick_4">
     <g id="line2d_7">
      <path d="M 236.405625 314.44 
L 236.405625 7.2 
" clip-path="url(#pb50d66b301)" style="fill: none; stroke-dasharray: 1.85,0.8; stroke-dashoffset: 0; stroke: #ffffff; stroke-width: 0.5"/>
     </g>
     <g id="line2d_8">
      <g>
       <use xlink:href="#mef3da7801e" x="236.405625" y="314.44" style="stroke: #000000; stroke-width: 0.8"/>
      </g>
     </g>
     <g id="text_4">
      <!-- 8 -->
      <g transform="translate(233.224375 329.038437) scale(0.1 -0.1)">
       <defs>
        <path id="DejaVuSans-38" d="M 2034 2216 
Q 1584 2216 1326 1975 
Q 1069 1734 1069 1313 
Q 1069 891 1326 650 
Q 1584 409 2034 409 
Q 2484 409 2743 651 
Q 3003 894 3003 1313 
Q 3003 1734 2745 1975 
Q 2488 2216 2034 2216 
z
M 1403 2484 
Q 997 2584 770 2862 
Q 544 3141 544 3541 
Q 544 4100 942 4425 
Q 1341 4750 2034 4750 
Q 2731 4750 3128 4425 
Q 3525 4100 3525 3541 
Q 3525 3141 3298 2862 
Q 3072 2584 2669 2484 
Q 3125 2378 3379 2068 
Q 3634 1759 3634 1313 
Q 3634 634 3220 271 
Q 2806 -91 2034 -91 
Q 1263 -91 848 271 
Q 434 634 434 1313 
Q 434 1759 690 2068 
Q 947 2378 1403 2484 
z
M 1172 3481 
Q 1172 3119 1398 2916 
Q 1625 2713 2034 2713 
Q 2441 2713 2670 2916 
Q 2900 3119 2900 3481 
Q 2900 3844 2670 4047 
Q 2441 4250 2034 4250 
Q 1625 4250 1398 4047 
Q 1172 3844 1172 3481 
z
" transform="scale(0.015625)"/>
       </defs>
       <use xlink:href="#DejaVuSans-38"/>
      </g>
     </g>
    </g>
    <g id="xtick_5">
     <g id="line2d_9">
      <path d="M 285.61082 314.44 
L 285.61082 7.2 
" clip-path="url(#pb50d66b301)" style="fill: none; stroke-dasharray: 1.85,0.8; stroke-dashoffset: 0; stroke: #ffffff; stroke-width: 0.5"/>
     </g>
     <g id="line2d_10">
      <g>
       <use xlink:href="#mef3da7801e" x="285.61082" y="314.44" style="stroke: #000000; stroke-width: 0.8"/>
      </g>
     </g>
     <g id="text_5">
      <!-- 10 -->
      <g transform="translate(279.24832 329.038437) scale(0.1 -0.1)">
       <defs>
        <path id="DejaVuSans-31" d="M 794 531 
L 1825 531 
L 1825 4091 
L 703 3866 
L 703 4441 
L 1819 4666 
L 2450 4666 
L 2450 531 
L 3481 531 
L 3481 0 
L 794 0 
L 794 531 
z
" transform="scale(0.015625)"/>
        <path id="DejaVuSans-30" d="M 2034 4250 
Q 1547 4250 1301 3770 
Q 1056 3291 1056 2328 
Q 1056 1369 1301 889 
Q 1547 409 2034 409 
Q 2525 409 2770 889 
Q 3016 1369 3016 2328 
Q 3016 3291 2770 3770 
Q 2525 4250 2034 4250 
z
M 2034 4750 
Q 2819 4750 3233 4129 
Q 3647 3509 3647 2328 
Q 3647 1150 3233 529 
Q 2819 -91 2034 -91 
Q 1250 -91 836 529 
Q 422 1150 422 2328 
Q 422 3509 836 4129 
Q 1250 4750 2034 4750 
z
" transform="scale(0.015625)"/>
       </defs>
       <use xlink:href="#DejaVuSans-31"/>
       <use xlink:href="#DejaVuSans-30" x="63.623047"/>
      </g>
     </g>
    </g>
    <g id="xtick_6">
     <g id="line2d_11">
      <path d="M 334.816015 314.44 
L 334.816015 7.2 
" clip-path="url(#pb50d66b301)" style="fill: none; stroke-dasharray: 1.85,0.8; stroke-dashoffset: 0; stroke: #ffffff; stroke-width: 0.5"/>
     </g>
     <g id="line2d_12">
      <g>
       <use xlink:href="#mef3da7801e" x="334.816015" y="314.44" style="stroke: #000000; stroke-width: 0.8"/>
      </g>
     </g>
     <g id="text_6">
      <!-- 12 -->
      <g transform="translate(328.453515 329.038437) scale(0.1 -0.1)">
       <use xlink:href="#DejaVuSans-31"/>
       <use xlink:href="#DejaVuSans-32" x="63.623047"/>
      </g>
     </g>
    </g>
    <g id="xtick_7">
     <g id="line2d_13">
      <path d="M 384.021209 314.44 
L 384.021209 7.2 
" clip-path="url(#pb50d66b301)" style="fill: none; stroke-dasharray: 1.85,0.8; stroke-dashoffset: 0; stroke: #ffffff; stroke-width: 0.5"/>
     </g>
     <g id="line2d_14">
      <g>
       <use xlink:href="#mef3da7801e" x="384.021209" y="314.44" style="stroke: #000000; stroke-width: 0.8"/>
      </g>
     </g>
     <g id="text_7">
      <!-- 14 -->
      <g transform="translate(377.658709 329.038437) scale(0.1 -0.1)">
       <use xlink:href="#DejaVuSans-31"/>
       <use xlink:href="#DejaVuSans-34" x="63.623047"/>
      </g>
     </g>
    </g>
    <g id="text_8">
     <!-- Number of stations -->
     <g transform="translate(188.511094 342.716562) scale(0.1 -0.1)">
      <defs>
       <path id="DejaVuSans-4e" d="M 628 4666 
L 1478 4666 
L 3547 763 
L 3547 4666 
L 4159 4666 
L 4159 0 
L 3309 0 
L 1241 3903 
L 1241 0 
L 628 0 
L 628 4666 
z
" transform="scale(0.015625)"/>
       <path id="DejaVuSans-75" d="M 544 1381 
L 544 3500 
L 1119 3500 
L 1119 1403 
Q 1119 906 1312 657 
Q 1506 409 1894 409 
Q 2359 409 2629 706 
Q 2900 1003 2900 1516 
L 2900 3500 
L 3475 3500 
L 3475 0 
L 2900 0 
L 2900 538 
Q 2691 219 2414 64 
Q 2138 -91 1772 -91 
Q 1169 -91 856 284 
Q 544 659 544 1381 
z
M 1991 3584 
L 1991 3584 
z
" transform="scale(0.015625)"/>
       <path id="DejaVuSans-6d" d="M 3328 2828 
Q 3544 3216 3844 3400 
Q 4144 3584 4550 3584 
Q 5097 3584 5394 3201 
Q 5691 2819 5691 2113 
L 5691 0 
L 5113 0 
L 5113 2094 
Q 5113 2597 4934 2840 
Q 4756 3084 4391 3084 
Q 3944 3084 3684 2787 
Q 3425 2491 3425 1978 
L 3425 0 
L 2847 0 
L 2847 2094 
Q 2847 2600 2669 2842 
Q 2491 3084 2119 3084 
Q 1678 3084 1418 2786 
Q 1159 2488 1159 1978 
L 1159 0 
L 581 0 
L 581 3500 
L 1159 3500 
L 1159 2956 
Q 1356 3278 1631 3431 
Q 1906 3584 2284 3584 
Q 2666 3584 2933 3390 
Q 3200 3197 3328 2828 
z
" transform="scale(0.015625)"/>
       <path id="DejaVuSans-62" d="M 3116 1747 
Q 3116 2381 2855 2742 
Q 2594 3103 2138 3103 
Q 1681 3103 1420 2742 
Q 1159 2381 1159 1747 
Q 1159 1113 1420 752 
Q 1681 391 2138 391 
Q 2594 391 2855 752 
Q 3116 1113 3116 1747 
z
M 1159 2969 
Q 1341 3281 1617 3432 
Q 1894 3584 2278 3584 
Q 2916 3584 3314 3078 
Q 3713 2572 3713 1747 
Q 3713 922 3314 415 
Q 2916 -91 2278 -91 
Q 1894 -91 1617 61 
Q 1341 213 1159 525 
L 1159 0 
L 581 0 
L 581 4863 
L 1159 4863 
L 1159 2969 
z
" transform="scale(0.015625)"/>
       <path id="DejaVuSans-65" d="M 3597 1894 
L 3597 1613 
L 953 1613 
Q 991 1019 1311 708 
Q 1631 397 2203 397 
Q 2534 397 2845 478 
Q 3156 559 3463 722 
L 3463 178 
Q 3153 47 2828 -22 
Q 2503 -91 2169 -91 
Q 1331 -91 842 396 
Q 353 884 353 1716 
Q 353 2575 817 3079 
Q 1281 3584 2069 3584 
Q 2775 3584 3186 3129 
Q 3597 2675 3597 1894 
z
M 3022 2063 
Q 3016 2534 2758 2815 
Q 2500 3097 2075 3097 
Q 1594 3097 1305 2825 
Q 1016 2553 972 2059 
L 3022 2063 
z
" transform="scale(0.015625)"/>
       <path id="DejaVuSans-72" d="M 2631 2963 
Q 2534 3019 2420 3045 
Q 2306 3072 2169 3072 
Q 1681 3072 1420 2755 
Q 1159 2438 1159 1844 
L 1159 0 
L 581 0 
L 581 3500 
L 1159 3500 
L 1159 2956 
Q 1341 3275 1631 3429 
Q 1922 3584 2338 3584 
Q 2397 3584 2469 3576 
Q 2541 3569 2628 3553 
L 2631 2963 
z
" transform="scale(0.015625)"/>
       <path id="DejaVuSans-20" transform="scale(0.015625)"/>
       <path id="DejaVuSans-6f" d="M 1959 3097 
Q 1497 3097 1228 2736 
Q 959 2375 959 1747 
Q 959 1119 1226 758 
Q 1494 397 1959 397 
Q 2419 397 2687 759 
Q 2956 1122 2956 1747 
Q 2956 2369 2687 2733 
Q 2419 3097 1959 3097 
z
M 1959 3584 
Q 2709 3584 3137 3096 
Q 3566 2609 3566 1747 
Q 3566 888 3137 398 
Q 2709 -91 1959 -91 
Q 1206 -91 779 398 
Q 353 888 353 1747 
Q 353 2609 779 3096 
Q 1206 3584 1959 3584 
z
" transform="scale(0.015625)"/>
       <path id="DejaVuSans-66" d="M 2375 4863 
L 2375 4384 
L 1825 4384 
Q 1516 4384 1395 4259 
Q 1275 4134 1275 3809 
L 1275 3500 
L 2222 3500 
L 2222 3053 
L 1275 3053 
L 1275 0 
L 697 0 
L 697 3053 
L 147 3053 
L 147 3500 
L 697 3500 
L 697 3744 
Q 697 4328 969 4595 
Q 1241 4863 1831 4863 
L 2375 4863 
z
" transform="scale(0.015625)"/>
       <path id="DejaVuSans-73" d="M 2834 3397 
L 2834 2853 
Q 2591 2978 2328 3040 
Q 2066 3103 1784 3103 
Q 1356 3103 1142 2972 
Q 928 2841 928 2578 
Q 928 2378 1081 2264 
Q 1234 2150 1697 2047 
L 1894 2003 
Q 2506 1872 2764 1633 
Q 3022 1394 3022 966 
Q 3022 478 2636 193 
Q 2250 -91 1575 -91 
Q 1294 -91 989 -36 
Q 684 19 347 128 
L 347 722 
Q 666 556 975 473 
Q 1284 391 1588 391 
Q 1994 391 2212 530 
Q 2431 669 2431 922 
Q 2431 1156 2273 1281 
Q 2116 1406 1581 1522 
L 1381 1569 
Q 847 1681 609 1914 
Q 372 2147 372 2553 
Q 372 3047 722 3315 
Q 1072 3584 1716 3584 
Q 2034 3584 2315 3537 
Q 2597 3491 2834 3397 
z
" transform="scale(0.015625)"/>
       <path id="DejaVuSans-74" d="M 1172 4494 
L 1172 3500 
L 2356 3500 
L 2356 3053 
L 1172 3053 
L 1172 1153 
Q 1172 725 1289 603 
Q 1406 481 1766 481 
L 2356 481 
L 2356 0 
L 1766 0 
Q 1100 0 847 248 
Q 594 497 594 1153 
L 594 3053 
L 172 3053 
L 172 3500 
L 594 3500 
L 594 4494 
L 1172 4494 
z
" transform="scale(0.015625)"/>
       <path id="DejaVuSans-61" d="M 2194 1759 
Q 1497 1759 1228 1600 
Q 959 1441 959 1056 
Q 959 750 1161 570 
Q 1363 391 1709 391 
Q 2188 391 2477 730 
Q 2766 1069 2766 1631 
L 2766 1759 
L 2194 1759 
z
M 3341 1997 
L 3341 0 
L 2766 0 
L 2766 531 
Q 2569 213 2275 61 
Q 1981 -91 1556 -91 
Q 1019 -91 701 211 
Q 384 513 384 1019 
Q 384 1609 779 1909 
Q 1175 2209 1959 2209 
L 2766 2209 
L 2766 2266 
Q 2766 2663 2505 2880 
Q 2244 3097 1772 3097 
Q 1472 3097 1187 3025 
Q 903 2953 641 2809 
L 641 3341 
Q 956 3463 1253 3523 
Q 1550 3584 1831 3584 
Q 2591 3584 2966 3190 
Q 3341 2797 3341 1997 
z
" transform="scale(0.015625)"/>
       <path id="DejaVuSans-69" d="M 603 3500 
L 1178 3500 
L 1178 0 
L 603 0 
L 603 3500 
z
M 603 4863 
L 1178 4863 
L 1178 4134 
L 603 4134 
L 603 4863 
z
" transform="scale(0.015625)"/>
       <path id="DejaVuSans-6e" d="M 3513 2113 
L 3513 0 
L 2938 0 
L 2938 2094 
Q 2938 2591 2744 2837 
Q 2550 3084 2163 3084 
Q 1697 3084 1428 2787 
Q 1159 2491 1159 1978 
L 1159 0 
L 581 0 
L 581 3500 
L 1159 3500 
L 1159 2956 
Q 1366 3272 1645 3428 
Q 1925 3584 2291 3584 
Q 2894 3584 3203 3211 
Q 3513 2838 3513 2113 
z
" transform="scale(0.015625)"/>
      </defs>
      <use xlink:href="#DejaVuSans-4e"/>
      <use xlink:href="#DejaVuSans-75" x="74.804688"/>
      <use xlink:href="#DejaVuSans-6d" x="138.183594"/>
      <use xlink:href="#DejaVuSans-62" x="235.595703"/>
      <use xlink:href="#DejaVuSans-65" x="299.072266"/>
      <use xlink:href="#DejaVuSans-72" x="360.595703"/>
      <use xlink:href="#DejaVuSans-20" x="401.708984"/>
      <use xlink:href="#DejaVuSans-6f" x="433.496094"/>
      <use xlink:href="#DejaVuSans-66" x="494.677734"/>
      <use xlink:href="#DejaVuSans-20" x="529.882812"/>
      <use xlink:href="#DejaVuSans-73" x="561.669922"/>
      <use xlink:href="#DejaVuSans-74" x="613.769531"/>
      <use xlink:href="#DejaVuSans-61" x="652.978516"/>
      <use xlink:href="#DejaVuSans-74" x="714.257812"/>
      <use xlink:href="#DejaVuSans-69" x="753.466797"/>
      <use xlink:href="#DejaVuSans-6f" x="781.25"/>
      <use xlink:href="#DejaVuSans-6e" x="842.431641"/>
      <use xlink:href="#DejaVuSans-73" x="905.810547"/>
     </g>
    </g>
   </g>
   <g id="matplotlib.axis_2">
    <g id="ytick_1">
     <g id="line2d_15">
      <path d="M 46.965625 314.44 
L 425.845625 314.44 
" clip-path="url(#pb50d66b301)" style="fill: none; stroke-dasharray: 1.85,0.8; stroke-dashoffset: 0; stroke: #ffffff; stroke-width: 0.5"/>
     </g>
     <g id="line2d_16">
      <defs>
       <path id="md21137f624" d="M 0 0 
L -3.5 0 
" style="stroke: #000000; stroke-width: 0.8"/>
      </defs>
      <g>
       <use xlink:href="#md21137f624" x="46.965625" y="314.44" style="stroke: #000000; stroke-width: 0.8"/>
      </g>
     </g>
     <g id="text_9">
      <!-- 0 -->
      <g transform="translate(33.603125 318.239219) scale(0.1 -0.1)">
       <use xlink:href="#DejaVuSans-30"/>
      </g>
     </g>
    </g>
    <g id="ytick_2">
     <g id="line2d_17">
      <path d="M 46.965625 268.513547 
L 425.845625 268.513547 
" clip-path="url(#pb50d66b301)" style="fill: none; stroke-dasharray: 1.85,0.8; stroke-dashoffset: 0; stroke: #ffffff; stroke-width: 0.5"/>
     </g>
     <g id="line2d_18">
      <g>
       <use xlink:href="#md21137f624" x="46.965625" y="268.513547" style="stroke: #000000; stroke-width: 0.8"/>
      </g>
     </g>
     <g id="text_10">
      <!-- 20 -->
      <g transform="translate(27.240625 272.312765) scale(0.1 -0.1)">
       <use xlink:href="#DejaVuSans-32"/>
       <use xlink:href="#DejaVuSans-30" x="63.623047"/>
      </g>
     </g>
    </g>
    <g id="ytick_3">
     <g id="line2d_19">
      <path d="M 46.965625 222.587093 
L 425.845625 222.587093 
" clip-path="url(#pb50d66b301)" style="fill: none; stroke-dasharray: 1.85,0.8; stroke-dashoffset: 0; stroke: #ffffff; stroke-width: 0.5"/>
     </g>
     <g id="line2d_20">
      <g>
       <use xlink:href="#md21137f624" x="46.965625" y="222.587093" style="stroke: #000000; stroke-width: 0.8"/>
      </g>
     </g>
     <g id="text_11">
      <!-- 40 -->
      <g transform="translate(27.240625 226.386312) scale(0.1 -0.1)">
       <use xlink:href="#DejaVuSans-34"/>
       <use xlink:href="#DejaVuSans-30" x="63.623047"/>
      </g>
     </g>
    </g>
    <g id="ytick_4">
     <g id="line2d_21">
      <path d="M 46.965625 176.66064 
L 425.845625 176.66064 
" clip-path="url(#pb50d66b301)" style="fill: none; stroke-dasharray: 1.85,0.8; stroke-dashoffset: 0; stroke: #ffffff; stroke-width: 0.5"/>
     </g>
     <g id="line2d_22">
      <g>
       <use xlink:href="#md21137f624" x="46.965625" y="176.66064" style="stroke: #000000; stroke-width: 0.8"/>
      </g>
     </g>
     <g id="text_12">
      <!-- 60 -->
      <g transform="translate(27.240625 180.459859) scale(0.1 -0.1)">
       <use xlink:href="#DejaVuSans-36"/>
       <use xlink:href="#DejaVuSans-30" x="63.623047"/>
      </g>
     </g>
    </g>
    <g id="ytick_5">
     <g id="line2d_23">
      <path d="M 46.965625 130.734187 
L 425.845625 130.734187 
" clip-path="url(#pb50d66b301)" style="fill: none; stroke-dasharray: 1.85,0.8; stroke-dashoffset: 0; stroke: #ffffff; stroke-width: 0.5"/>
     </g>
     <g id="line2d_24">
      <g>
       <use xlink:href="#md21137f624" x="46.965625" y="130.734187" style="stroke: #000000; stroke-width: 0.8"/>
      </g>
     </g>
     <g id="text_13">
      <!-- 80 -->
      <g transform="translate(27.240625 134.533405) scale(0.1 -0.1)">
       <use xlink:href="#DejaVuSans-38"/>
       <use xlink:href="#DejaVuSans-30" x="63.623047"/>
      </g>
     </g>
    </g>
    <g id="ytick_6">
     <g id="line2d_25">
      <path d="M 46.965625 84.807733 
L 425.845625 84.807733 
" clip-path="url(#pb50d66b301)" style="fill: none; stroke-dasharray: 1.85,0.8; stroke-dashoffset: 0; stroke: #ffffff; stroke-width: 0.5"/>
     </g>
     <g id="line2d_26">
      <g>
       <use xlink:href="#md21137f624" x="46.965625" y="84.807733" style="stroke: #000000; stroke-width: 0.8"/>
      </g>
     </g>
     <g id="text_14">
      <!-- 100 -->
      <g transform="translate(20.878125 88.606952) scale(0.1 -0.1)">
       <use xlink:href="#DejaVuSans-31"/>
       <use xlink:href="#DejaVuSans-30" x="63.623047"/>
       <use xlink:href="#DejaVuSans-30" x="127.246094"/>
      </g>
     </g>
    </g>
    <g id="ytick_7">
     <g id="line2d_27">
      <path d="M 46.965625 38.88128 
L 425.845625 38.88128 
" clip-path="url(#pb50d66b301)" style="fill: none; stroke-dasharray: 1.85,0.8; stroke-dashoffset: 0; stroke: #ffffff; stroke-width: 0.5"/>
     </g>
     <g id="line2d_28">
      <g>
       <use xlink:href="#md21137f624" x="46.965625" y="38.88128" style="stroke: #000000; stroke-width: 0.8"/>
      </g>
     </g>
     <g id="text_15">
      <!-- 120 -->
      <g transform="translate(20.878125 42.680499) scale(0.1 -0.1)">
       <use xlink:href="#DejaVuSans-31"/>
       <use xlink:href="#DejaVuSans-32" x="63.623047"/>
       <use xlink:href="#DejaVuSans-30" x="127.246094"/>
      </g>
     </g>
    </g>
    <g id="text_16">
     <!-- Total throughput [Mbps] -->
     <g transform="translate(14.798438 220.789531) rotate(-90) scale(0.1 -0.1)">
      <defs>
       <path id="DejaVuSans-54" d="M -19 4666 
L 3928 4666 
L 3928 4134 
L 2272 4134 
L 2272 0 
L 1638 0 
L 1638 4134 
L -19 4134 
L -19 4666 
z
" transform="scale(0.015625)"/>
       <path id="DejaVuSans-6c" d="M 603 4863 
L 1178 4863 
L 1178 0 
L 603 0 
L 603 4863 
z
" transform="scale(0.015625)"/>
       <path id="DejaVuSans-68" d="M 3513 2113 
L 3513 0 
L 2938 0 
L 2938 2094 
Q 2938 2591 2744 2837 
Q 2550 3084 2163 3084 
Q 1697 3084 1428 2787 
Q 1159 2491 1159 1978 
L 1159 0 
L 581 0 
L 581 4863 
L 1159 4863 
L 1159 2956 
Q 1366 3272 1645 3428 
Q 1925 3584 2291 3584 
Q 2894 3584 3203 3211 
Q 3513 2838 3513 2113 
z
" transform="scale(0.015625)"/>
       <path id="DejaVuSans-67" d="M 2906 1791 
Q 2906 2416 2648 2759 
Q 2391 3103 1925 3103 
Q 1463 3103 1205 2759 
Q 947 2416 947 1791 
Q 947 1169 1205 825 
Q 1463 481 1925 481 
Q 2391 481 2648 825 
Q 2906 1169 2906 1791 
z
M 3481 434 
Q 3481 -459 3084 -895 
Q 2688 -1331 1869 -1331 
Q 1566 -1331 1297 -1286 
Q 1028 -1241 775 -1147 
L 775 -588 
Q 1028 -725 1275 -790 
Q 1522 -856 1778 -856 
Q 2344 -856 2625 -561 
Q 2906 -266 2906 331 
L 2906 616 
Q 2728 306 2450 153 
Q 2172 0 1784 0 
Q 1141 0 747 490 
Q 353 981 353 1791 
Q 353 2603 747 3093 
Q 1141 3584 1784 3584 
Q 2172 3584 2450 3431 
Q 2728 3278 2906 2969 
L 2906 3500 
L 3481 3500 
L 3481 434 
z
" transform="scale(0.015625)"/>
       <path id="DejaVuSans-70" d="M 1159 525 
L 1159 -1331 
L 581 -1331 
L 581 3500 
L 1159 3500 
L 1159 2969 
Q 1341 3281 1617 3432 
Q 1894 3584 2278 3584 
Q 2916 3584 3314 3078 
Q 3713 2572 3713 1747 
Q 3713 922 3314 415 
Q 2916 -91 2278 -91 
Q 1894 -91 1617 61 
Q 1341 213 1159 525 
z
M 3116 1747 
Q 3116 2381 2855 2742 
Q 2594 3103 2138 3103 
Q 1681 3103 1420 2742 
Q 1159 2381 1159 1747 
Q 1159 1113 1420 752 
Q 1681 391 2138 391 
Q 2594 391 2855 752 
Q 3116 1113 3116 1747 
z
" transform="scale(0.015625)"/>
       <path id="DejaVuSans-5b" d="M 550 4863 
L 1875 4863 
L 1875 4416 
L 1125 4416 
L 1125 -397 
L 1875 -397 
L 1875 -844 
L 550 -844 
L 550 4863 
z
" transform="scale(0.015625)"/>
       <path id="DejaVuSans-4d" d="M 628 4666 
L 1569 4666 
L 2759 1491 
L 3956 4666 
L 4897 4666 
L 4897 0 
L 4281 0 
L 4281 4097 
L 3078 897 
L 2444 897 
L 1241 4097 
L 1241 0 
L 628 0 
L 628 4666 
z
" transform="scale(0.015625)"/>
       <path id="DejaVuSans-5d" d="M 1947 4863 
L 1947 -844 
L 622 -844 
L 622 -397 
L 1369 -397 
L 1369 4416 
L 622 4416 
L 622 4863 
L 1947 4863 
z
" transform="scale(0.015625)"/>
      </defs>
      <use xlink:href="#DejaVuSans-54"/>
      <use xlink:href="#DejaVuSans-6f" x="44.083984"/>
      <use xlink:href="#DejaVuSans-74" x="105.265625"/>
      <use xlink:href="#DejaVuSans-61" x="144.474609"/>
      <use xlink:href="#DejaVuSans-6c" x="205.753906"/>
      <use xlink:href="#DejaVuSans-20" x="233.537109"/>
      <use xlink:href="#DejaVuSans-74" x="265.324219"/>
      <use xlink:href="#DejaVuSans-68" x="304.533203"/>
      <use xlink:href="#DejaVuSans-72" x="367.912109"/>
      <use xlink:href="#DejaVuSans-6f" x="406.775391"/>
      <use xlink:href="#DejaVuSans-75" x="467.957031"/>
      <use xlink:href="#DejaVuSans-67" x="531.335938"/>
      <use xlink:href="#DejaVuSans-68" x="594.8125"/>
      <use xlink:href="#DejaVuSans-70" x="658.191406"/>
      <use xlink:href="#DejaVuSans-75" x="721.667969"/>
      <use xlink:href="#DejaVuSans-74" x="785.046875"/>
      <use xlink:href="#DejaVuSans-20" x="824.255859"/>
      <use xlink:href="#DejaVuSans-5b" x="856.042969"/>
      <use xlink:href="#DejaVuSans-4d" x="895.056641"/>
      <use xlink:href="#DejaVuSans-62" x="981.335938"/>
      <use xlink:href="#DejaVuSans-70" x="1044.8125"/>
      <use xlink:href="#DejaVuSans-73" x="1108.289062"/>
      <use xlink:href="#DejaVuSans-5d" x="1160.388672"/>
     </g>
    </g>
   </g>
   <g id="line2d_29">
    <path d="M 64.187443 14.439987 
L 88.790041 32.601526 
L 113.392638 47.343918 
L 137.995235 60.043195 
L 162.597833 70.616689 
L 187.20043 79.790192 
L 211.803028 89.813564 
L 236.405625 97.977909 
L 261.008222 106.392156 
L 285.61082 111.470359 
L 310.213417 127.549784 
L 334.816015 139.174275 
L 359.418612 143.929377 
L 384.021209 149.781678 
L 408.623807 154.967479 
" clip-path="url(#pb50d66b301)" style="fill: none; stroke: #003f5c; stroke-width: 1.5; stroke-linecap: square"/>
    <defs>
     <path id="m9e650c9cc2" d="M 0 4 
C 1.060812 4 2.078319 3.578535 2.828427 2.828427 
C 3.578535 2.078319 4 1.060812 4 0 
C 4 -1.060812 3.578535 -2.078319 2.828427 -2.828427 
C 2.078319 -3.578535 1.060812 -4 0 -4 
C -1.060812 -4 -2.078319 -3.578535 -2.828427 -2.828427 
C -3.578535 -2.078319 -4 -1.060812 -4 0 
C -4 1.060812 -3.578535 2.078319 -2.828427 2.828427 
C -2.078319 3.578535 -1.060812 4 0 4 
z
" style="stroke: #ffffff; stroke-width: 0.75"/>
    </defs>
    <g clip-path="url(#pb50d66b301)">
     <use xlink:href="#m9e650c9cc2" x="64.187443" y="14.439987" style="fill: #003f5c; stroke: #ffffff; stroke-width: 0.75"/>
     <use xlink:href="#m9e650c9cc2" x="88.790041" y="32.601526" style="fill: #003f5c; stroke: #ffffff; stroke-width: 0.75"/>
     <use xlink:href="#m9e650c9cc2" x="113.392638" y="47.343918" style="fill: #003f5c; stroke: #ffffff; stroke-width: 0.75"/>
     <use xlink:href="#m9e650c9cc2" x="137.995235" y="60.043195" style="fill: #003f5c; stroke: #ffffff; stroke-width: 0.75"/>
     <use xlink:href="#m9e650c9cc2" x="162.597833" y="70.616689" style="fill: #003f5c; stroke: #ffffff; stroke-width: 0.75"/>
     <use xlink:href="#m9e650c9cc2" x="187.20043" y="79.790192" style="fill: #003f5c; stroke: #ffffff; stroke-width: 0.75"/>
     <use xlink:href="#m9e650c9cc2" x="211.803028" y="89.813564" style="fill: #003f5c; stroke: #ffffff; stroke-width: 0.75"/>
     <use xlink:href="#m9e650c9cc2" x="236.405625" y="97.977909" style="fill: #003f5c; stroke: #ffffff; stroke-width: 0.75"/>
     <use xlink:href="#m9e650c9cc2" x="261.008222" y="106.392156" style="fill: #003f5c; stroke: #ffffff; stroke-width: 0.75"/>
     <use xlink:href="#m9e650c9cc2" x="285.61082" y="111.470359" style="fill: #003f5c; stroke: #ffffff; stroke-width: 0.75"/>
     <use xlink:href="#m9e650c9cc2" x="310.213417" y="127.549784" style="fill: #003f5c; stroke: #ffffff; stroke-width: 0.75"/>
     <use xlink:href="#m9e650c9cc2" x="334.816015" y="139.174275" style="fill: #003f5c; stroke: #ffffff; stroke-width: 0.75"/>
     <use xlink:href="#m9e650c9cc2" x="359.418612" y="143.929377" style="fill: #003f5c; stroke: #ffffff; stroke-width: 0.75"/>
     <use xlink:href="#m9e650c9cc2" x="384.021209" y="149.781678" style="fill: #003f5c; stroke: #ffffff; stroke-width: 0.75"/>
     <use xlink:href="#m9e650c9cc2" x="408.623807" y="154.967479" style="fill: #003f5c; stroke: #ffffff; stroke-width: 0.75"/>
    </g>
   </g>
   <g id="line2d_30">
    <path d="M 64.187443 15.38301 
L 88.790041 33.856237 
L 113.392638 48.488099 
L 137.995235 60.925518 
L 162.597833 71.561396 
L 187.20043 81.23366 
L 211.803028 91.509092 
L 236.405625 100.359196 
L 261.008222 110.913432 
L 285.61082 120.982837 
L 310.213417 132.348762 
L 334.816015 139.483704 
L 359.418612 142.023659 
L 384.021209 151.166812 
L 408.623807 156.08428 
" clip-path="url(#pb50d66b301)" style="fill: none; stroke: #bc5090; stroke-width: 1.5; stroke-linecap: square"/>
    <defs>
     <path id="m60627bace7" d="M 0 4 
C 1.060812 4 2.078319 3.578535 2.828427 2.828427 
C 3.578535 2.078319 4 1.060812 4 0 
C 4 -1.060812 3.578535 -2.078319 2.828427 -2.828427 
C 2.078319 -3.578535 1.060812 -4 0 -4 
C -1.060812 -4 -2.078319 -3.578535 -2.828427 -2.828427 
C -3.578535 -2.078319 -4 -1.060812 -4 0 
C -4 1.060812 -3.578535 2.078319 -2.828427 2.828427 
C -2.078319 3.578535 -1.060812 4 0 4 
z
" style="stroke: #ffffff; stroke-width: 0.75"/>
    </defs>
    <g clip-path="url(#pb50d66b301)">
     <use xlink:href="#m60627bace7" x="64.187443" y="15.38301" style="fill: #bc5090; stroke: #ffffff; stroke-width: 0.75"/>
     <use xlink:href="#m60627bace7" x="88.790041" y="33.856237" style="fill: #bc5090; stroke: #ffffff; stroke-width: 0.75"/>
     <use xlink:href="#m60627bace7" x="113.392638" y="48.488099" style="fill: #bc5090; stroke: #ffffff; stroke-width: 0.75"/>
     <use xlink:href="#m60627bace7" x="137.995235" y="60.925518" style="fill: #bc5090; stroke: #ffffff; stroke-width: 0.75"/>
     <use xlink:href="#m60627bace7" x="162.597833" y="71.561396" style="fill: #bc5090; stroke: #ffffff; stroke-width: 0.75"/>
     <use xlink:href="#m60627bace7" x="187.20043" y="81.23366" style="fill: #bc5090; stroke: #ffffff; stroke-width: 0.75"/>
     <use xlink:href="#m60627bace7" x="211.803028" y="91.509092" style="fill: #bc5090; stroke: #ffffff; stroke-width: 0.75"/>
     <use xlink:href="#m60627bace7" x="236.405625" y="100.359196" style="fill: #bc5090; stroke: #ffffff; stroke-width: 0.75"/>
     <use xlink:href="#m60627bace7" x="261.008222" y="110.913432" style="fill: #bc5090; stroke: #ffffff; stroke-width: 0.75"/>
     <use xlink:href="#m60627bace7" x="285.61082" y="120.982837" style="fill: #bc5090; stroke: #ffffff; stroke-width: 0.75"/>
     <use xlink:href="#m60627bace7" x="310.213417" y="132.348762" style="fill: #bc5090; stroke: #ffffff; stroke-width: 0.75"/>
     <use xlink:href="#m60627bace7" x="334.816015" y="139.483704" style="fill: #bc5090; stroke: #ffffff; stroke-width: 0.75"/>
     <use xlink:href="#m60627bace7" x="359.418612" y="142.023659" style="fill: #bc5090; stroke: #ffffff; stroke-width: 0.75"/>
     <use xlink:href="#m60627bace7" x="384.021209" y="151.166812" style="fill: #bc5090; stroke: #ffffff; stroke-width: 0.75"/>
     <use xlink:href="#m60627bace7" x="408.623807" y="156.08428" style="fill: #bc5090; stroke: #ffffff; stroke-width: 0.75"/>
    </g>
   </g>
   <g id="line2d_31">
    <path d="M 64.187443 15.888967 
L 88.790041 34.444478 
L 113.392638 48.587912 
L 137.995235 61.516668 
L 162.597833 72.4849 
L 187.20043 81.981955 
L 211.803028 91.487736 
L 236.405625 101.084681 
L 261.008222 109.923808 
L 285.61082 121.139079 
L 310.213417 129.15062 
L 334.816015 138.267227 
L 359.418612 145.232066 
L 384.021209 145.205145 
L 408.623807 156.912541 
" clip-path="url(#pb50d66b301)" style="fill: none; stroke: #ffa600; stroke-width: 1.5; stroke-linecap: square"/>
    <defs>
     <path id="mddfa03a4ea" d="M 0 4 
C 1.060812 4 2.078319 3.578535 2.828427 2.828427 
C 3.578535 2.078319 4 1.060812 4 0 
C 4 -1.060812 3.578535 -2.078319 2.828427 -2.828427 
C 2.078319 -3.578535 1.060812 -4 0 -4 
C -1.060812 -4 -2.078319 -3.578535 -2.828427 -2.828427 
C -3.578535 -2.078319 -4 -1.060812 -4 0 
C -4 1.060812 -3.578535 2.078319 -2.828427 2.828427 
C -2.078319 3.578535 -1.060812 4 0 4 
z
" style="stroke: #ffffff; stroke-width: 0.75"/>
    </defs>
    <g clip-path="url(#pb50d66b301)">
     <use xlink:href="#mddfa03a4ea" x="64.187443" y="15.888967" style="fill: #ffa600; stroke: #ffffff; stroke-width: 0.75"/>
     <use xlink:href="#mddfa03a4ea" x="88.790041" y="34.444478" style="fill: #ffa600; stroke: #ffffff; stroke-width: 0.75"/>
     <use xlink:href="#mddfa03a4ea" x="113.392638" y="48.587912" style="fill: #ffa600; stroke: #ffffff; stroke-width: 0.75"/>
     <use xlink:href="#mddfa03a4ea" x="137.995235" y="61.516668" style="fill: #ffa600; stroke: #ffffff; stroke-width: 0.75"/>
     <use xlink:href="#mddfa03a4ea" x="162.597833" y="72.4849" style="fill: #ffa600; stroke: #ffffff; stroke-width: 0.75"/>
     <use xlink:href="#mddfa03a4ea" x="187.20043" y="81.981955" style="fill: #ffa600; stroke: #ffffff; stroke-width: 0.75"/>
     <use xlink:href="#mddfa03a4ea" x="211.803028" y="91.487736" style="fill: #ffa600; stroke: #ffffff; stroke-width: 0.75"/>
     <use xlink:href="#mddfa03a4ea" x="236.405625" y="101.084681" style="fill: #ffa600; stroke: #ffffff; stroke-width: 0.75"/>
     <use xlink:href="#mddfa03a4ea" x="261.008222" y="109.923808" style="fill: #ffa600; stroke: #ffffff; stroke-width: 0.75"/>
     <use xlink:href="#mddfa03a4ea" x="285.61082" y="121.139079" style="fill: #ffa600; stroke: #ffffff; stroke-width: 0.75"/>
     <use xlink:href="#mddfa03a4ea" x="310.213417" y="129.15062" style="fill: #ffa600; stroke: #ffffff; stroke-width: 0.75"/>
     <use xlink:href="#mddfa03a4ea" x="334.816015" y="138.267227" style="fill: #ffa600; stroke: #ffffff; stroke-width: 0.75"/>
     <use xlink:href="#mddfa03a4ea" x="359.418612" y="145.232066" style="fill: #ffa600; stroke: #ffffff; stroke-width: 0.75"/>
     <use xlink:href="#mddfa03a4ea" x="384.021209" y="145.205145" style="fill: #ffa600; stroke: #ffffff; stroke-width: 0.75"/>
     <use xlink:href="#mddfa03a4ea" x="408.623807" y="156.912541" style="fill: #ffa600; stroke: #ffffff; stroke-width: 0.75"/>
    </g>
   </g>
   <g id="line2d_32"/>
   <g id="line2d_33"/>
   <g id="line2d_34"/>
   <g id="line2d_35"/>
   <g id="line2d_36"/>
   <g id="line2d_37"/>
   <g id="patch_3">
    <path d="M 46.965625 314.44 
L 46.965625 7.2 
" style="fill: none; stroke: #000000; stroke-width: 0.8; stroke-linejoin: miter; stroke-linecap: square"/>
   </g>
   <g id="patch_4">
    <path d="M 425.845625 314.44 
L 425.845625 7.2 
" style="fill: none; stroke: #000000; stroke-width: 0.8; stroke-linejoin: miter; stroke-linecap: square"/>
   </g>
   <g id="patch_5">
    <path d="M 46.965625 314.44 
L 425.845625 314.44 
" style="fill: none; stroke: #000000; stroke-width: 0.8; stroke-linejoin: miter; stroke-linecap: square"/>
   </g>
   <g id="patch_6">
    <path d="M 46.965625 7.2 
L 425.845625 7.2 
" style="fill: none; stroke: #000000; stroke-width: 0.8; stroke-linejoin: miter; stroke-linecap: square"/>
   </g>
   <g id="legend_1">
    <g id="patch_7">
     <path d="M 340.124375 69.64125 
L 417.445625 69.64125 
Q 419.845625 69.64125 419.845625 67.24125 
L 419.845625 15.6 
Q 419.845625 13.2 417.445625 13.2 
L 340.124375 13.2 
Q 337.724375 13.2 337.724375 15.6 
L 337.724375 67.24125 
Q 337.724375 69.64125 340.124375 69.64125 
z
" style="fill: #ffffff; opacity: 0.8; stroke: #cccccc; stroke-linejoin: miter"/>
    </g>
    <g id="line2d_38">
     <path d="M 342.524375 22.918125 
L 354.524375 22.918125 
L 366.524375 22.918125 
" style="fill: none; stroke: #003f5c; stroke-width: 1.5; stroke-linecap: square"/>
    </g>
    <g id="text_17">
     <!-- 1 link -->
     <g transform="translate(376.124375 27.118125) scale(0.12 -0.12)">
      <defs>
       <path id="DejaVuSans-6b" d="M 581 4863 
L 1159 4863 
L 1159 1991 
L 2875 3500 
L 3609 3500 
L 1753 1863 
L 3688 0 
L 2938 0 
L 1159 1709 
L 1159 0 
L 581 0 
L 581 4863 
z
" transform="scale(0.015625)"/>
      </defs>
      <use xlink:href="#DejaVuSans-31"/>
      <use xlink:href="#DejaVuSans-20" x="63.623047"/>
      <use xlink:href="#DejaVuSans-6c" x="95.410156"/>
      <use xlink:href="#DejaVuSans-69" x="123.193359"/>
      <use xlink:href="#DejaVuSans-6e" x="150.976562"/>
      <use xlink:href="#DejaVuSans-6b" x="214.355469"/>
     </g>
    </g>
    <g id="line2d_39">
     <path d="M 342.524375 40.531875 
L 354.524375 40.531875 
L 366.524375 40.531875 
" style="fill: none; stroke: #bc5090; stroke-width: 1.5; stroke-linecap: square"/>
    </g>
    <g id="text_18">
     <!-- 2 links -->
     <g transform="translate(376.124375 44.731875) scale(0.12 -0.12)">
      <use xlink:href="#DejaVuSans-32"/>
      <use xlink:href="#DejaVuSans-20" x="63.623047"/>
      <use xlink:href="#DejaVuSans-6c" x="95.410156"/>
      <use xlink:href="#DejaVuSans-69" x="123.193359"/>
      <use xlink:href="#DejaVuSans-6e" x="150.976562"/>
      <use xlink:href="#DejaVuSans-6b" x="214.355469"/>
      <use xlink:href="#DejaVuSans-73" x="272.265625"/>
     </g>
    </g>
    <g id="line2d_40">
     <path d="M 342.524375 58.145625 
L 354.524375 58.145625 
L 366.524375 58.145625 
" style="fill: none; stroke: #ffa600; stroke-width: 1.5; stroke-linecap: square"/>
    </g>
    <g id="text_19">
     <!-- 3 links -->
     <g transform="translate(376.124375 62.345625) scale(0.12 -0.12)">
      <defs>
       <path id="DejaVuSans-33" d="M 2597 2516 
Q 3050 2419 3304 2112 
Q 3559 1806 3559 1356 
Q 3559 666 3084 287 
Q 2609 -91 1734 -91 
Q 1441 -91 1130 -33 
Q 819 25 488 141 
L 488 750 
Q 750 597 1062 519 
Q 1375 441 1716 441 
Q 2309 441 2620 675 
Q 2931 909 2931 1356 
Q 2931 1769 2642 2001 
Q 2353 2234 1838 2234 
L 1294 2234 
L 1294 2753 
L 1863 2753 
Q 2328 2753 2575 2939 
Q 2822 3125 2822 3475 
Q 2822 3834 2567 4026 
Q 2313 4219 1838 4219 
Q 1578 4219 1281 4162 
Q 984 4106 628 3988 
L 628 4550 
Q 988 4650 1302 4700 
Q 1616 4750 1894 4750 
Q 2613 4750 3031 4423 
Q 3450 4097 3450 3541 
Q 3450 3153 3228 2886 
Q 3006 2619 2597 2516 
z
" transform="scale(0.015625)"/>
      </defs>
      <use xlink:href="#DejaVuSans-33"/>
      <use xlink:href="#DejaVuSans-20" x="63.623047"/>
      <use xlink:href="#DejaVuSans-6c" x="95.410156"/>
      <use xlink:href="#DejaVuSans-69" x="123.193359"/>
      <use xlink:href="#DejaVuSans-6e" x="150.976562"/>
      <use xlink:href="#DejaVuSans-6b" x="214.355469"/>
      <use xlink:href="#DejaVuSans-73" x="272.265625"/>
     </g>
    </g>
   </g>
  </g>
  <g id="axes_2">
   <g id="patch_8">
    <path d="M 470.415625 314.44 
L 849.295625 314.44 
L 849.295625 7.2 
L 470.415625 7.2 
z
" style="fill: #ffffff"/>
   </g>
   <g id="PolyCollection_4">
    <defs>
     <path id="m118a67646f" d="M 487.637443 -45.660975 
L 487.637443 -45.634715 
L 512.240041 -80.820967 
L 536.842638 -109.774573 
L 561.445235 -134.997868 
L 586.047833 -156.092805 
L 610.65043 -173.049622 
L 635.253028 -194.130102 
L 659.855625 -209.420207 
L 684.458222 -225.380502 
L 709.06082 -227.241368 
L 733.663417 -268.559143 
L 758.266015 -290.829917 
L 782.868612 -298.290636 
L 807.471209 -311.187812 
L 832.073807 -321.57431 
L 832.073807 -323.975148 
L 832.073807 -323.975148 
L 807.471209 -315.193043 
L 782.868612 -303.583021 
L 758.266015 -292.183715 
L 733.663417 -268.804337 
L 709.06082 -242.6479 
L 684.458222 -228.178056 
L 659.855625 -211.044525 
L 635.253028 -194.753134 
L 610.65043 -175.637885 
L 586.047833 -156.698866 
L 561.445235 -135.9007 
L 536.842638 -111.141979 
L 512.240041 -82.267152 
L 487.637443 -45.660975 
z
" style="stroke: #003f5c; stroke-opacity: 0.2"/>
    </defs>
    <g clip-path="url(#p6adc1863f6)">
     <use xlink:href="#m118a67646f" x="0" y="351.99625" style="fill: #003f5c; fill-opacity: 0.2; stroke: #003f5c; stroke-opacity: 0.2"/>
    </g>
   </g>
   <g id="PolyCollection_5">
    <defs>
     <path id="mcbfa0f605d" d="M 487.637443 -47.54382 
L 487.637443 -47.496864 
L 512.240041 -83.591849 
L 536.842638 -112.444584 
L 561.445235 -136.625776 
L 586.047833 -157.152994 
L 610.65043 -176.102161 
L 635.253028 -197.026505 
L 659.855625 -214.281498 
L 684.458222 -234.827264 
L 709.06082 -254.700517 
L 733.663417 -274.499906 
L 758.266015 -291.046602 
L 782.868612 -285.15262 
L 807.471209 -313.4884 
L 832.073807 -323.822416 
L 832.073807 -325.627121 
L 832.073807 -325.627121 
L 807.471209 -317.389379 
L 782.868612 -303.980264 
L 758.266015 -292.87016 
L 733.663417 -280.060399 
L 709.06082 -256.957396 
L 684.458222 -236.682441 
L 659.855625 -215.555516 
L 635.253028 -198.429032 
L 610.65043 -179.155696 
L 586.047833 -159.807892 
L 561.445235 -138.112517 
L 536.842638 -112.963593 
L 512.240041 -84.028959 
L 487.637443 -47.54382 
z
" style="stroke: #bc5090; stroke-opacity: 0.2"/>
    </defs>
    <g clip-path="url(#p6adc1863f6)">
     <use xlink:href="#mcbfa0f605d" x="0" y="351.99625" style="fill: #bc5090; fill-opacity: 0.2; stroke: #bc5090; stroke-opacity: 0.2"/>
    </g>
   </g>
   <g id="PolyCollection_6">
    <defs>
     <path id="mbb3b3255b4" d="M 487.637443 -48.555617 
L 487.637443 -48.503158 
L 512.240041 -84.345059 
L 536.842638 -112.3742 
L 561.445235 -135.667814 
L 586.047833 -159.931114 
L 610.65043 -178.116683 
L 635.253028 -195.975186 
L 659.855625 -213.333256 
L 684.458222 -233.699988 
L 709.06082 -254.900604 
L 733.663417 -254.733743 
L 758.266015 -288.740474 
L 782.868612 -301.031155 
L 807.471209 -297.651924 
L 832.073807 -324.063158 
L 832.073807 -330.550463 
L 832.073807 -330.550463 
L 807.471209 -313.71519 
L 782.868612 -305.515096 
L 758.266015 -290.900799 
L 733.663417 -281.157054 
L 709.06082 -257.594263 
L 684.458222 -234.444438 
L 659.855625 -218.782919 
L 635.253028 -198.365028 
L 610.65043 -179.535731 
L 586.047833 -160.696407 
L 561.445235 -139.986569 
L 536.842638 -113.460668 
L 512.240041 -85.780208 
L 487.637443 -48.555617 
z
" style="stroke: #ffa600; stroke-opacity: 0.2"/>
    </defs>
    <g clip-path="url(#p6adc1863f6)">
     <use xlink:href="#mbb3b3255b4" x="0" y="351.99625" style="fill: #ffa600; fill-opacity: 0.2; stroke: #ffa600; stroke-opacity: 0.2"/>
    </g>
   </g>
   <g id="matplotlib.axis_3">
    <g id="xtick_8">
     <g id="line2d_41">
      <path d="M 512.240041 314.44 
L 512.240041 7.2 
" clip-path="url(#p6adc1863f6)" style="fill: none; stroke-dasharray: 1.85,0.8; stroke-dashoffset: 0; stroke: #ffffff; stroke-width: 0.5"/>
     </g>
     <g id="line2d_42">
      <g>
       <use xlink:href="#mef3da7801e" x="512.240041" y="314.44" style="stroke: #000000; stroke-width: 0.8"/>
      </g>
     </g>
     <g id="text_20">
      <!-- 2 -->
      <g transform="translate(509.058791 329.038437) scale(0.1 -0.1)">
       <use xlink:href="#DejaVuSans-32"/>
      </g>
     </g>
    </g>
    <g id="xtick_9">
     <g id="line2d_43">
      <path d="M 561.445235 314.44 
L 561.445235 7.2 
" clip-path="url(#p6adc1863f6)" style="fill: none; stroke-dasharray: 1.85,0.8; stroke-dashoffset: 0; stroke: #ffffff; stroke-width: 0.5"/>
     </g>
     <g id="line2d_44">
      <g>
       <use xlink:href="#mef3da7801e" x="561.445235" y="314.44" style="stroke: #000000; stroke-width: 0.8"/>
      </g>
     </g>
     <g id="text_21">
      <!-- 4 -->
      <g transform="translate(558.263985 329.038437) scale(0.1 -0.1)">
       <use xlink:href="#DejaVuSans-34"/>
      </g>
     </g>
    </g>
    <g id="xtick_10">
     <g id="line2d_45">
      <path d="M 610.65043 314.44 
L 610.65043 7.2 
" clip-path="url(#p6adc1863f6)" style="fill: none; stroke-dasharray: 1.85,0.8; stroke-dashoffset: 0; stroke: #ffffff; stroke-width: 0.5"/>
     </g>
     <g id="line2d_46">
      <g>
       <use xlink:href="#mef3da7801e" x="610.65043" y="314.44" style="stroke: #000000; stroke-width: 0.8"/>
      </g>
     </g>
     <g id="text_22">
      <!-- 6 -->
      <g transform="translate(607.46918 329.038437) scale(0.1 -0.1)">
       <use xlink:href="#DejaVuSans-36"/>
      </g>
     </g>
    </g>
    <g id="xtick_11">
     <g id="line2d_47">
      <path d="M 659.855625 314.44 
L 659.855625 7.2 
" clip-path="url(#p6adc1863f6)" style="fill: none; stroke-dasharray: 1.85,0.8; stroke-dashoffset: 0; stroke: #ffffff; stroke-width: 0.5"/>
     </g>
     <g id="line2d_48">
      <g>
       <use xlink:href="#mef3da7801e" x="659.855625" y="314.44" style="stroke: #000000; stroke-width: 0.8"/>
      </g>
     </g>
     <g id="text_23">
      <!-- 8 -->
      <g transform="translate(656.674375 329.038437) scale(0.1 -0.1)">
       <use xlink:href="#DejaVuSans-38"/>
      </g>
     </g>
    </g>
    <g id="xtick_12">
     <g id="line2d_49">
      <path d="M 709.06082 314.44 
L 709.06082 7.2 
" clip-path="url(#p6adc1863f6)" style="fill: none; stroke-dasharray: 1.85,0.8; stroke-dashoffset: 0; stroke: #ffffff; stroke-width: 0.5"/>
     </g>
     <g id="line2d_50">
      <g>
       <use xlink:href="#mef3da7801e" x="709.06082" y="314.44" style="stroke: #000000; stroke-width: 0.8"/>
      </g>
     </g>
     <g id="text_24">
      <!-- 10 -->
      <g transform="translate(702.69832 329.038437) scale(0.1 -0.1)">
       <use xlink:href="#DejaVuSans-31"/>
       <use xlink:href="#DejaVuSans-30" x="63.623047"/>
      </g>
     </g>
    </g>
    <g id="xtick_13">
     <g id="line2d_51">
      <path d="M 758.266015 314.44 
L 758.266015 7.2 
" clip-path="url(#p6adc1863f6)" style="fill: none; stroke-dasharray: 1.85,0.8; stroke-dashoffset: 0; stroke: #ffffff; stroke-width: 0.5"/>
     </g>
     <g id="line2d_52">
      <g>
       <use xlink:href="#mef3da7801e" x="758.266015" y="314.44" style="stroke: #000000; stroke-width: 0.8"/>
      </g>
     </g>
     <g id="text_25">
      <!-- 12 -->
      <g transform="translate(751.903515 329.038437) scale(0.1 -0.1)">
       <use xlink:href="#DejaVuSans-31"/>
       <use xlink:href="#DejaVuSans-32" x="63.623047"/>
      </g>
     </g>
    </g>
    <g id="xtick_14">
     <g id="line2d_53">
      <path d="M 807.471209 314.44 
L 807.471209 7.2 
" clip-path="url(#p6adc1863f6)" style="fill: none; stroke-dasharray: 1.85,0.8; stroke-dashoffset: 0; stroke: #ffffff; stroke-width: 0.5"/>
     </g>
     <g id="line2d_54">
      <g>
       <use xlink:href="#mef3da7801e" x="807.471209" y="314.44" style="stroke: #000000; stroke-width: 0.8"/>
      </g>
     </g>
     <g id="text_26">
      <!-- 14 -->
      <g transform="translate(801.108709 329.038437) scale(0.1 -0.1)">
       <use xlink:href="#DejaVuSans-31"/>
       <use xlink:href="#DejaVuSans-34" x="63.623047"/>
      </g>
     </g>
    </g>
    <g id="text_27">
     <!-- Number of stations -->
     <g transform="translate(611.961094 342.716562) scale(0.1 -0.1)">
      <use xlink:href="#DejaVuSans-4e"/>
      <use xlink:href="#DejaVuSans-75" x="74.804688"/>
      <use xlink:href="#DejaVuSans-6d" x="138.183594"/>
      <use xlink:href="#DejaVuSans-62" x="235.595703"/>
      <use xlink:href="#DejaVuSans-65" x="299.072266"/>
      <use xlink:href="#DejaVuSans-72" x="360.595703"/>
      <use xlink:href="#DejaVuSans-20" x="401.708984"/>
      <use xlink:href="#DejaVuSans-6f" x="433.496094"/>
      <use xlink:href="#DejaVuSans-66" x="494.677734"/>
      <use xlink:href="#DejaVuSans-20" x="529.882812"/>
      <use xlink:href="#DejaVuSans-73" x="561.669922"/>
      <use xlink:href="#DejaVuSans-74" x="613.769531"/>
      <use xlink:href="#DejaVuSans-61" x="652.978516"/>
      <use xlink:href="#DejaVuSans-74" x="714.257812"/>
      <use xlink:href="#DejaVuSans-69" x="753.466797"/>
      <use xlink:href="#DejaVuSans-6f" x="781.25"/>
      <use xlink:href="#DejaVuSans-6e" x="842.431641"/>
      <use xlink:href="#DejaVuSans-73" x="905.810547"/>
     </g>
    </g>
   </g>
   <g id="matplotlib.axis_4">
    <g id="ytick_8">
     <g id="line2d_55">
      <path d="M 470.415625 314.44 
L 849.295625 314.44 
" clip-path="url(#p6adc1863f6)" style="fill: none; stroke-dasharray: 1.85,0.8; stroke-dashoffset: 0; stroke: #ffffff; stroke-width: 0.5"/>
     </g>
     <g id="line2d_56">
      <g>
       <use xlink:href="#md21137f624" x="470.415625" y="314.44" style="stroke: #000000; stroke-width: 0.8"/>
      </g>
     </g>
     <g id="text_28">
      <!-- 0 -->
      <g transform="translate(457.053125 318.239219) scale(0.1 -0.1)">
       <use xlink:href="#DejaVuSans-30"/>
      </g>
     </g>
    </g>
    <g id="ytick_9">
     <g id="line2d_57">
      <path d="M 470.415625 254.623444 
L 849.295625 254.623444 
" clip-path="url(#p6adc1863f6)" style="fill: none; stroke-dasharray: 1.85,0.8; stroke-dashoffset: 0; stroke: #ffffff; stroke-width: 0.5"/>
     </g>
     <g id="line2d_58">
      <g>
       <use xlink:href="#md21137f624" x="470.415625" y="254.623444" style="stroke: #000000; stroke-width: 0.8"/>
      </g>
     </g>
     <g id="text_29">
      <!-- 10 -->
      <g transform="translate(450.690625 258.422663) scale(0.1 -0.1)">
       <use xlink:href="#DejaVuSans-31"/>
       <use xlink:href="#DejaVuSans-30" x="63.623047"/>
      </g>
     </g>
    </g>
    <g id="ytick_10">
     <g id="line2d_59">
      <path d="M 470.415625 194.806888 
L 849.295625 194.806888 
" clip-path="url(#p6adc1863f6)" style="fill: none; stroke-dasharray: 1.85,0.8; stroke-dashoffset: 0; stroke: #ffffff; stroke-width: 0.5"/>
     </g>
     <g id="line2d_60">
      <g>
       <use xlink:href="#md21137f624" x="470.415625" y="194.806888" style="stroke: #000000; stroke-width: 0.8"/>
      </g>
     </g>
     <g id="text_30">
      <!-- 20 -->
      <g transform="translate(450.690625 198.606107) scale(0.1 -0.1)">
       <use xlink:href="#DejaVuSans-32"/>
       <use xlink:href="#DejaVuSans-30" x="63.623047"/>
      </g>
     </g>
    </g>
    <g id="ytick_11">
     <g id="line2d_61">
      <path d="M 470.415625 134.990332 
L 849.295625 134.990332 
" clip-path="url(#p6adc1863f6)" style="fill: none; stroke-dasharray: 1.85,0.8; stroke-dashoffset: 0; stroke: #ffffff; stroke-width: 0.5"/>
     </g>
     <g id="line2d_62">
      <g>
       <use xlink:href="#md21137f624" x="470.415625" y="134.990332" style="stroke: #000000; stroke-width: 0.8"/>
      </g>
     </g>
     <g id="text_31">
      <!-- 30 -->
      <g transform="translate(450.690625 138.789551) scale(0.1 -0.1)">
       <use xlink:href="#DejaVuSans-33"/>
       <use xlink:href="#DejaVuSans-30" x="63.623047"/>
      </g>
     </g>
    </g>
    <g id="ytick_12">
     <g id="line2d_63">
      <path d="M 470.415625 75.173776 
L 849.295625 75.173776 
" clip-path="url(#p6adc1863f6)" style="fill: none; stroke-dasharray: 1.85,0.8; stroke-dashoffset: 0; stroke: #ffffff; stroke-width: 0.5"/>
     </g>
     <g id="line2d_64">
      <g>
       <use xlink:href="#md21137f624" x="470.415625" y="75.173776" style="stroke: #000000; stroke-width: 0.8"/>
      </g>
     </g>
     <g id="text_32">
      <!-- 40 -->
      <g transform="translate(450.690625 78.972994) scale(0.1 -0.1)">
       <use xlink:href="#DejaVuSans-34"/>
       <use xlink:href="#DejaVuSans-30" x="63.623047"/>
      </g>
     </g>
    </g>
    <g id="ytick_13">
     <g id="line2d_65">
      <path d="M 470.415625 15.35722 
L 849.295625 15.35722 
" clip-path="url(#p6adc1863f6)" style="fill: none; stroke-dasharray: 1.85,0.8; stroke-dashoffset: 0; stroke: #ffffff; stroke-width: 0.5"/>
     </g>
     <g id="line2d_66">
      <g>
       <use xlink:href="#md21137f624" x="470.415625" y="15.35722" style="stroke: #000000; stroke-width: 0.8"/>
      </g>
     </g>
     <g id="text_33">
      <!-- 50 -->
      <g transform="translate(450.690625 19.156438) scale(0.1 -0.1)">
       <defs>
        <path id="DejaVuSans-35" d="M 691 4666 
L 3169 4666 
L 3169 4134 
L 1269 4134 
L 1269 2991 
Q 1406 3038 1543 3061 
Q 1681 3084 1819 3084 
Q 2600 3084 3056 2656 
Q 3513 2228 3513 1497 
Q 3513 744 3044 326 
Q 2575 -91 1722 -91 
Q 1428 -91 1123 -41 
Q 819 9 494 109 
L 494 744 
Q 775 591 1075 516 
Q 1375 441 1709 441 
Q 2250 441 2565 725 
Q 2881 1009 2881 1497 
Q 2881 1984 2565 2268 
Q 2250 2553 1709 2553 
Q 1456 2553 1204 2497 
Q 953 2441 691 2322 
L 691 4666 
z
" transform="scale(0.015625)"/>
       </defs>
       <use xlink:href="#DejaVuSans-35"/>
       <use xlink:href="#DejaVuSans-30" x="63.623047"/>
      </g>
     </g>
    </g>
    <g id="text_34">
     <!-- Loss [%] -->
     <g transform="translate(444.610937 182.028594) rotate(-90) scale(0.1 -0.1)">
      <defs>
       <path id="DejaVuSans-4c" d="M 628 4666 
L 1259 4666 
L 1259 531 
L 3531 531 
L 3531 0 
L 628 0 
L 628 4666 
z
" transform="scale(0.015625)"/>
       <path id="DejaVuSans-25" d="M 4653 2053 
Q 4381 2053 4226 1822 
Q 4072 1591 4072 1178 
Q 4072 772 4226 539 
Q 4381 306 4653 306 
Q 4919 306 5073 539 
Q 5228 772 5228 1178 
Q 5228 1588 5073 1820 
Q 4919 2053 4653 2053 
z
M 4653 2450 
Q 5147 2450 5437 2106 
Q 5728 1763 5728 1178 
Q 5728 594 5436 251 
Q 5144 -91 4653 -91 
Q 4153 -91 3862 251 
Q 3572 594 3572 1178 
Q 3572 1766 3864 2108 
Q 4156 2450 4653 2450 
z
M 1428 4353 
Q 1159 4353 1004 4120 
Q 850 3888 850 3481 
Q 850 3069 1003 2837 
Q 1156 2606 1428 2606 
Q 1700 2606 1854 2837 
Q 2009 3069 2009 3481 
Q 2009 3884 1853 4118 
Q 1697 4353 1428 4353 
z
M 4250 4750 
L 4750 4750 
L 1831 -91 
L 1331 -91 
L 4250 4750 
z
M 1428 4750 
Q 1922 4750 2215 4408 
Q 2509 4066 2509 3481 
Q 2509 2891 2217 2550 
Q 1925 2209 1428 2209 
Q 931 2209 642 2551 
Q 353 2894 353 3481 
Q 353 4063 643 4406 
Q 934 4750 1428 4750 
z
" transform="scale(0.015625)"/>
      </defs>
      <use xlink:href="#DejaVuSans-4c"/>
      <use xlink:href="#DejaVuSans-6f" x="53.962891"/>
      <use xlink:href="#DejaVuSans-73" x="115.144531"/>
      <use xlink:href="#DejaVuSans-73" x="167.244141"/>
      <use xlink:href="#DejaVuSans-20" x="219.34375"/>
      <use xlink:href="#DejaVuSans-5b" x="251.130859"/>
      <use xlink:href="#DejaVuSans-25" x="290.144531"/>
      <use xlink:href="#DejaVuSans-5d" x="385.164062"/>
     </g>
    </g>
   </g>
   <g id="line2d_67">
    <path d="M 487.637443 306.34694 
L 512.240041 270.58601 
L 536.842638 241.554723 
L 561.445235 216.46093 
L 586.047833 195.536849 
L 610.65043 177.504052 
L 635.253028 157.652632 
L 659.855625 141.674907 
L 684.458222 125.015766 
L 709.06082 115.004584 
L 733.663417 83.286333 
L 758.266015 60.347129 
L 782.868612 50.903898 
L 807.471209 39.303895 
L 832.073807 29.204633 
" clip-path="url(#p6adc1863f6)" style="fill: none; stroke: #003f5c; stroke-width: 1.5; stroke-linecap: square"/>
    <g clip-path="url(#p6adc1863f6)">
     <use xlink:href="#m9e650c9cc2" x="487.637443" y="306.34694" style="fill: #003f5c; stroke: #ffffff; stroke-width: 0.75"/>
     <use xlink:href="#m9e650c9cc2" x="512.240041" y="270.58601" style="fill: #003f5c; stroke: #ffffff; stroke-width: 0.75"/>
     <use xlink:href="#m9e650c9cc2" x="536.842638" y="241.554723" style="fill: #003f5c; stroke: #ffffff; stroke-width: 0.75"/>
     <use xlink:href="#m9e650c9cc2" x="561.445235" y="216.46093" style="fill: #003f5c; stroke: #ffffff; stroke-width: 0.75"/>
     <use xlink:href="#m9e650c9cc2" x="586.047833" y="195.536849" style="fill: #003f5c; stroke: #ffffff; stroke-width: 0.75"/>
     <use xlink:href="#m9e650c9cc2" x="610.65043" y="177.504052" style="fill: #003f5c; stroke: #ffffff; stroke-width: 0.75"/>
     <use xlink:href="#m9e650c9cc2" x="635.253028" y="157.652632" style="fill: #003f5c; stroke: #ffffff; stroke-width: 0.75"/>
     <use xlink:href="#m9e650c9cc2" x="659.855625" y="141.674907" style="fill: #003f5c; stroke: #ffffff; stroke-width: 0.75"/>
     <use xlink:href="#m9e650c9cc2" x="684.458222" y="125.015766" style="fill: #003f5c; stroke: #ffffff; stroke-width: 0.75"/>
     <use xlink:href="#m9e650c9cc2" x="709.06082" y="115.004584" style="fill: #003f5c; stroke: #ffffff; stroke-width: 0.75"/>
     <use xlink:href="#m9e650c9cc2" x="733.663417" y="83.286333" style="fill: #003f5c; stroke: #ffffff; stroke-width: 0.75"/>
     <use xlink:href="#m9e650c9cc2" x="758.266015" y="60.347129" style="fill: #003f5c; stroke: #ffffff; stroke-width: 0.75"/>
     <use xlink:href="#m9e650c9cc2" x="782.868612" y="50.903898" style="fill: #003f5c; stroke: #ffffff; stroke-width: 0.75"/>
     <use xlink:href="#m9e650c9cc2" x="807.471209" y="39.303895" style="fill: #003f5c; stroke: #ffffff; stroke-width: 0.75"/>
     <use xlink:href="#m9e650c9cc2" x="832.073807" y="29.204633" style="fill: #003f5c; stroke: #ffffff; stroke-width: 0.75"/>
    </g>
   </g>
   <g id="line2d_68">
    <path d="M 487.637443 304.468401 
L 512.240041 268.114061 
L 536.842638 239.283754 
L 561.445235 214.678895 
L 586.047833 193.747736 
L 610.65043 174.642062 
L 635.253028 154.473382 
L 659.855625 137.034239 
L 684.458222 116.265911 
L 709.06082 96.146517 
L 733.663417 73.983952 
L 758.266015 59.810043 
L 782.868612 54.808232 
L 807.471209 36.699397 
L 832.073807 26.973781 
" clip-path="url(#p6adc1863f6)" style="fill: none; stroke: #bc5090; stroke-width: 1.5; stroke-linecap: square"/>
    <g clip-path="url(#p6adc1863f6)">
     <use xlink:href="#m60627bace7" x="487.637443" y="304.468401" style="fill: #bc5090; stroke: #ffffff; stroke-width: 0.75"/>
     <use xlink:href="#m60627bace7" x="512.240041" y="268.114061" style="fill: #bc5090; stroke: #ffffff; stroke-width: 0.75"/>
     <use xlink:href="#m60627bace7" x="536.842638" y="239.283754" style="fill: #bc5090; stroke: #ffffff; stroke-width: 0.75"/>
     <use xlink:href="#m60627bace7" x="561.445235" y="214.678895" style="fill: #bc5090; stroke: #ffffff; stroke-width: 0.75"/>
     <use xlink:href="#m60627bace7" x="586.047833" y="193.747736" style="fill: #bc5090; stroke: #ffffff; stroke-width: 0.75"/>
     <use xlink:href="#m60627bace7" x="610.65043" y="174.642062" style="fill: #bc5090; stroke: #ffffff; stroke-width: 0.75"/>
     <use xlink:href="#m60627bace7" x="635.253028" y="154.473382" style="fill: #bc5090; stroke: #ffffff; stroke-width: 0.75"/>
     <use xlink:href="#m60627bace7" x="659.855625" y="137.034239" style="fill: #bc5090; stroke: #ffffff; stroke-width: 0.75"/>
     <use xlink:href="#m60627bace7" x="684.458222" y="116.265911" style="fill: #bc5090; stroke: #ffffff; stroke-width: 0.75"/>
     <use xlink:href="#m60627bace7" x="709.06082" y="96.146517" style="fill: #bc5090; stroke: #ffffff; stroke-width: 0.75"/>
     <use xlink:href="#m60627bace7" x="733.663417" y="73.983952" style="fill: #bc5090; stroke: #ffffff; stroke-width: 0.75"/>
     <use xlink:href="#m60627bace7" x="758.266015" y="59.810043" style="fill: #bc5090; stroke: #ffffff; stroke-width: 0.75"/>
     <use xlink:href="#m60627bace7" x="782.868612" y="54.808232" style="fill: #bc5090; stroke: #ffffff; stroke-width: 0.75"/>
     <use xlink:href="#m60627bace7" x="807.471209" y="36.699397" style="fill: #bc5090; stroke: #ffffff; stroke-width: 0.75"/>
     <use xlink:href="#m60627bace7" x="832.073807" y="26.973781" style="fill: #bc5090; stroke: #ffffff; stroke-width: 0.75"/>
    </g>
   </g>
   <g id="line2d_69">
    <path d="M 487.637443 303.470082 
L 512.240041 266.965593 
L 536.842638 239.110485 
L 561.445235 213.645016 
L 586.047833 191.795403 
L 610.65043 173.22883 
L 635.253028 154.515538 
L 659.855625 135.447804 
L 684.458222 117.909581 
L 709.06082 95.837784 
L 733.663417 80.374463 
L 758.266015 62.153423 
L 782.868612 48.64452 
L 807.471209 48.518906 
L 832.073807 25.450107 
" clip-path="url(#p6adc1863f6)" style="fill: none; stroke: #ffa600; stroke-width: 1.5; stroke-linecap: square"/>
    <g clip-path="url(#p6adc1863f6)">
     <use xlink:href="#mddfa03a4ea" x="487.637443" y="303.470082" style="fill: #ffa600; stroke: #ffffff; stroke-width: 0.75"/>
     <use xlink:href="#mddfa03a4ea" x="512.240041" y="266.965593" style="fill: #ffa600; stroke: #ffffff; stroke-width: 0.75"/>
     <use xlink:href="#mddfa03a4ea" x="536.842638" y="239.110485" style="fill: #ffa600; stroke: #ffffff; stroke-width: 0.75"/>
     <use xlink:href="#mddfa03a4ea" x="561.445235" y="213.645016" style="fill: #ffa600; stroke: #ffffff; stroke-width: 0.75"/>
     <use xlink:href="#mddfa03a4ea" x="586.047833" y="191.795403" style="fill: #ffa600; stroke: #ffffff; stroke-width: 0.75"/>
     <use xlink:href="#mddfa03a4ea" x="610.65043" y="173.22883" style="fill: #ffa600; stroke: #ffffff; stroke-width: 0.75"/>
     <use xlink:href="#mddfa03a4ea" x="635.253028" y="154.515538" style="fill: #ffa600; stroke: #ffffff; stroke-width: 0.75"/>
     <use xlink:href="#mddfa03a4ea" x="659.855625" y="135.447804" style="fill: #ffa600; stroke: #ffffff; stroke-width: 0.75"/>
     <use xlink:href="#mddfa03a4ea" x="684.458222" y="117.909581" style="fill: #ffa600; stroke: #ffffff; stroke-width: 0.75"/>
     <use xlink:href="#mddfa03a4ea" x="709.06082" y="95.837784" style="fill: #ffa600; stroke: #ffffff; stroke-width: 0.75"/>
     <use xlink:href="#mddfa03a4ea" x="733.663417" y="80.374463" style="fill: #ffa600; stroke: #ffffff; stroke-width: 0.75"/>
     <use xlink:href="#mddfa03a4ea" x="758.266015" y="62.153423" style="fill: #ffa600; stroke: #ffffff; stroke-width: 0.75"/>
     <use xlink:href="#mddfa03a4ea" x="782.868612" y="48.64452" style="fill: #ffa600; stroke: #ffffff; stroke-width: 0.75"/>
     <use xlink:href="#mddfa03a4ea" x="807.471209" y="48.518906" style="fill: #ffa600; stroke: #ffffff; stroke-width: 0.75"/>
     <use xlink:href="#mddfa03a4ea" x="832.073807" y="25.450107" style="fill: #ffa600; stroke: #ffffff; stroke-width: 0.75"/>
    </g>
   </g>
   <g id="line2d_70"/>
   <g id="line2d_71"/>
   <g id="line2d_72"/>
   <g id="line2d_73"/>
   <g id="line2d_74"/>
   <g id="line2d_75"/>
   <g id="patch_9">
    <path d="M 470.415625 314.44 
L 470.415625 7.2 
" style="fill: none; stroke: #000000; stroke-width: 0.8; stroke-linejoin: miter; stroke-linecap: square"/>
   </g>
   <g id="patch_10">
    <path d="M 849.295625 314.44 
L 849.295625 7.2 
" style="fill: none; stroke: #000000; stroke-width: 0.8; stroke-linejoin: miter; stroke-linecap: square"/>
   </g>
   <g id="patch_11">
    <path d="M 470.415625 314.44 
L 849.295625 314.44 
" style="fill: none; stroke: #000000; stroke-width: 0.8; stroke-linejoin: miter; stroke-linecap: square"/>
   </g>
   <g id="patch_12">
    <path d="M 470.415625 7.2 
L 849.295625 7.2 
" style="fill: none; stroke: #000000; stroke-width: 0.8; stroke-linejoin: miter; stroke-linecap: square"/>
   </g>
   <g id="legend_2">
    <g id="patch_13">
     <path d="M 478.815625 69.64125 
L 556.136875 69.64125 
Q 558.536875 69.64125 558.536875 67.24125 
L 558.536875 15.6 
Q 558.536875 13.2 556.136875 13.2 
L 478.815625 13.2 
Q 476.415625 13.2 476.415625 15.6 
L 476.415625 67.24125 
Q 476.415625 69.64125 478.815625 69.64125 
z
" style="fill: #ffffff; opacity: 0.8; stroke: #cccccc; stroke-linejoin: miter"/>
    </g>
    <g id="line2d_76">
     <path d="M 481.215625 22.918125 
L 493.215625 22.918125 
L 505.215625 22.918125 
" style="fill: none; stroke: #003f5c; stroke-width: 1.5; stroke-linecap: square"/>
    </g>
    <g id="text_35">
     <!-- 1 link -->
     <g transform="translate(514.815625 27.118125) scale(0.12 -0.12)">
      <use xlink:href="#DejaVuSans-31"/>
      <use xlink:href="#DejaVuSans-20" x="63.623047"/>
      <use xlink:href="#DejaVuSans-6c" x="95.410156"/>
      <use xlink:href="#DejaVuSans-69" x="123.193359"/>
      <use xlink:href="#DejaVuSans-6e" x="150.976562"/>
      <use xlink:href="#DejaVuSans-6b" x="214.355469"/>
     </g>
    </g>
    <g id="line2d_77">
     <path d="M 481.215625 40.531875 
L 493.215625 40.531875 
L 505.215625 40.531875 
" style="fill: none; stroke: #bc5090; stroke-width: 1.5; stroke-linecap: square"/>
    </g>
    <g id="text_36">
     <!-- 2 links -->
     <g transform="translate(514.815625 44.731875) scale(0.12 -0.12)">
      <use xlink:href="#DejaVuSans-32"/>
      <use xlink:href="#DejaVuSans-20" x="63.623047"/>
      <use xlink:href="#DejaVuSans-6c" x="95.410156"/>
      <use xlink:href="#DejaVuSans-69" x="123.193359"/>
      <use xlink:href="#DejaVuSans-6e" x="150.976562"/>
      <use xlink:href="#DejaVuSans-6b" x="214.355469"/>
      <use xlink:href="#DejaVuSans-73" x="272.265625"/>
     </g>
    </g>
    <g id="line2d_78">
     <path d="M 481.215625 58.145625 
L 493.215625 58.145625 
L 505.215625 58.145625 
" style="fill: none; stroke: #ffa600; stroke-width: 1.5; stroke-linecap: square"/>
    </g>
    <g id="text_37">
     <!-- 3 links -->
     <g transform="translate(514.815625 62.345625) scale(0.12 -0.12)">
      <use xlink:href="#DejaVuSans-33"/>
      <use xlink:href="#DejaVuSans-20" x="63.623047"/>
      <use xlink:href="#DejaVuSans-6c" x="95.410156"/>
      <use xlink:href="#DejaVuSans-69" x="123.193359"/>
      <use xlink:href="#DejaVuSans-6e" x="150.976562"/>
      <use xlink:href="#DejaVuSans-6b" x="214.355469"/>
      <use xlink:href="#DejaVuSans-73" x="272.265625"/>
     </g>
    </g>
   </g>
  </g>
 </g>
 <defs>
  <clipPath id="pb50d66b301">
   <rect x="46.965625" y="7.2" width="378.88" height="307.24"/>
  </clipPath>
  <clipPath id="p6adc1863f6">
   <rect x="470.415625" y="7.2" width="378.88" height="307.24"/>
  </clipPath>
 </defs>
</svg>
