<?xml version="1.0" encoding="utf-8" standalone="no"?>
<!DOCTYPE svg PUBLIC "-//W3C//DTD SVG 1.1//EN"
  "http://www.w3.org/Graphics/SVG/1.1/DTD/svg11.dtd">
<svg xmlns:xlink="http://www.w3.org/1999/xlink" width="1288.495625pt" height="567.99625pt" viewBox="0 0 1288.495625 567.99625" xmlns="http://www.w3.org/2000/svg" version="1.1">
 <metadata>
  <rdf:RDF xmlns:dc="http://purl.org/dc/elements/1.1/" xmlns:cc="http://creativecommons.org/ns#" xmlns:rdf="http://www.w3.org/1999/02/22-rdf-syntax-ns#">
   <cc:Work>
    <dc:type rdf:resource="http://purl.org/dc/dcmitype/StillImage"/>
    <dc:date>2025-06-14T16:36:48.136290</dc:date>
    <dc:format>image/svg+xml</dc:format>
    <dc:creator>
     <cc:Agent>
      <dc:title>Matplotlib v3.10.1, https://matplotlib.org/</dc:title>
     </cc:Agent>
    </dc:creator>
   </cc:Work>
  </rdf:RDF>
 </metadata>
 <defs>
  <style type="text/css">*{stroke-linejoin: round; stroke-linecap: butt}</style>
 </defs>
 <g id="figure_1">
  <g id="patch_1">
   <path d="M 0 567.99625 
L 1288.495625 567.99625 
L 1288.495625 0 
L 0 0 
z
" style="fill: #ffffff"/>
  </g>
  <g id="axes_1">
   <g id="patch_2">
    <path d="M 46.965625 530.44 
L 638.695625 530.44 
L 638.695625 7.2 
L 46.965625 7.2 
z
" style="fill: #ffffff"/>
   </g>
   <g id="patch_3">
    <path d="M 54.36225 530.44 
L 69.1555 530.44 
L 69.1555 490.413157 
L 54.36225 490.413157 
z
" clip-path="url(#pa9a2c767da)" style="fill: #0c3b50"/>
   </g>
   <g id="patch_4">
    <path d="M 128.3285 530.44 
L 143.12175 530.44 
L 143.12175 454.759632 
L 128.3285 454.759632 
z
" clip-path="url(#pa9a2c767da)" style="fill: #0c3b50"/>
   </g>
   <g id="patch_5">
    <path d="M 202.29475 530.44 
L 217.088 530.44 
L 217.088 491.044073 
L 202.29475 491.044073 
z
" clip-path="url(#pa9a2c767da)" style="fill: #0c3b50"/>
   </g>
   <g id="patch_6">
    <path d="M 276.261 530.44 
L 291.05425 530.44 
L 291.05425 490.944052 
L 276.261 490.944052 
z
" clip-path="url(#pa9a2c767da)" style="fill: #0c3b50"/>
   </g>
   <g id="patch_7">
    <path d="M 350.22725 530.44 
L 365.0205 530.44 
L 365.0205 492.005527 
L 350.22725 492.005527 
z
" clip-path="url(#pa9a2c767da)" style="fill: #0c3b50"/>
   </g>
   <g id="patch_8">
    <path d="M 424.1935 530.44 
L 438.98675 530.44 
L 438.98675 457.034757 
L 424.1935 457.034757 
z
" clip-path="url(#pa9a2c767da)" style="fill: #0c3b50"/>
   </g>
   <g id="patch_9">
    <path d="M 498.15975 530.44 
L 512.953 530.44 
L 512.953 457.232426 
L 498.15975 457.232426 
z
" clip-path="url(#pa9a2c767da)" style="fill: #0c3b50"/>
   </g>
   <g id="patch_10">
    <path d="M 572.126 530.44 
L 586.91925 530.44 
L 586.91925 458.61814 
L 572.126 458.61814 
z
" clip-path="url(#pa9a2c767da)" style="fill: #0c3b50"/>
   </g>
   <g id="patch_11">
    <path d="M 69.1555 530.44 
L 83.94875 530.44 
L 83.94875 490.2604 
L 69.1555 490.2604 
z
" clip-path="url(#pa9a2c767da)" style="fill: #785a8c"/>
   </g>
   <g id="patch_12">
    <path d="M 143.12175 530.44 
L 157.915 530.44 
L 157.915 454.578436 
L 143.12175 454.578436 
z
" clip-path="url(#pa9a2c767da)" style="fill: #785a8c"/>
   </g>
   <g id="patch_13">
    <path d="M 217.088 530.44 
L 231.88125 530.44 
L 231.88125 491.219964 
L 217.088 491.219964 
z
" clip-path="url(#pa9a2c767da)" style="fill: #785a8c"/>
   </g>
   <g id="patch_14">
    <path d="M 291.05425 530.44 
L 305.8475 530.44 
L 305.8475 491.068927 
L 291.05425 491.068927 
z
" clip-path="url(#pa9a2c767da)" style="fill: #785a8c"/>
   </g>
   <g id="patch_15">
    <path d="M 365.0205 530.44 
L 379.81375 530.44 
L 379.81375 492.255713 
L 365.0205 492.255713 
z
" clip-path="url(#pa9a2c767da)" style="fill: #785a8c"/>
   </g>
   <g id="patch_16">
    <path d="M 438.98675 530.44 
L 453.78 530.44 
L 453.78 457.790791 
L 438.98675 457.790791 
z
" clip-path="url(#pa9a2c767da)" style="fill: #785a8c"/>
   </g>
   <g id="patch_17">
    <path d="M 512.953 530.44 
L 527.74625 530.44 
L 527.74625 457.652302 
L 512.953 457.652302 
z
" clip-path="url(#pa9a2c767da)" style="fill: #785a8c"/>
   </g>
   <g id="patch_18">
    <path d="M 586.91925 530.44 
L 601.7125 530.44 
L 601.7125 459.43139 
L 586.91925 459.43139 
z
" clip-path="url(#pa9a2c767da)" style="fill: #785a8c"/>
   </g>
   <g id="patch_19">
    <path d="M 83.94875 530.44 
L 98.742 530.44 
L 98.742 453.015014 
L 83.94875 453.015014 
z
" clip-path="url(#pa9a2c767da)" style="fill: #dc6980"/>
   </g>
   <g id="patch_20">
    <path d="M 157.915 530.44 
L 172.70825 530.44 
L 172.70825 383.586396 
L 157.915 383.586396 
z
" clip-path="url(#pa9a2c767da)" style="fill: #dc6980"/>
   </g>
   <g id="patch_21">
    <path d="M 231.88125 530.44 
L 246.6745 530.44 
L 246.6745 383.597781 
L 231.88125 383.597781 
z
" clip-path="url(#pa9a2c767da)" style="fill: #dc6980"/>
   </g>
   <g id="patch_22">
    <path d="M 305.8475 530.44 
L 320.64075 530.44 
L 320.64075 254.088372 
L 305.8475 254.088372 
z
" clip-path="url(#pa9a2c767da)" style="fill: #dc6980"/>
   </g>
   <g id="patch_23">
    <path d="M 379.81375 530.44 
L 394.607 530.44 
L 394.607 254.065116 
L 379.81375 254.065116 
z
" clip-path="url(#pa9a2c767da)" style="fill: #dc6980"/>
   </g>
   <g id="patch_24">
    <path d="M 453.78 530.44 
L 468.57325 530.44 
L 468.57325 254.105571 
L 453.78 254.105571 
z
" clip-path="url(#pa9a2c767da)" style="fill: #dc6980"/>
   </g>
   <g id="patch_25">
    <path d="M 527.74625 530.44 
L 542.5395 530.44 
L 542.5395 62.760094 
L 527.74625 62.760094 
z
" clip-path="url(#pa9a2c767da)" style="fill: #dc6980"/>
   </g>
   <g id="patch_26">
    <path d="M 601.7125 530.44 
L 616.50575 530.44 
L 616.50575 62.81266 
L 601.7125 62.81266 
z
" clip-path="url(#pa9a2c767da)" style="fill: #dc6980"/>
   </g>
   <g id="patch_27">
    <path d="M 98.742 530.44 
L 113.53525 530.44 
L 113.53525 456.061676 
L 98.742 456.061676 
z
" clip-path="url(#pa9a2c767da)" style="fill: #df9c20"/>
   </g>
   <g id="patch_28">
    <path d="M 172.70825 530.44 
L 187.5015 530.44 
L 187.5015 394.18782 
L 172.70825 394.18782 
z
" clip-path="url(#pa9a2c767da)" style="fill: #df9c20"/>
   </g>
   <g id="patch_29">
    <path d="M 246.6745 530.44 
L 261.46775 530.44 
L 261.46775 294.567284 
L 246.6745 294.567284 
z
" clip-path="url(#pa9a2c767da)" style="fill: #df9c20"/>
   </g>
   <g id="patch_30">
    <path d="M 320.64075 530.44 
L 335.434 530.44 
L 335.434 294.476928 
L 320.64075 294.476928 
z
" clip-path="url(#pa9a2c767da)" style="fill: #df9c20"/>
   </g>
   <g id="patch_31">
    <path d="M 394.607 530.44 
L 409.40025 530.44 
L 409.40025 172.073166 
L 394.607 172.073166 
z
" clip-path="url(#pa9a2c767da)" style="fill: #df9c20"/>
   </g>
   <g id="patch_32">
    <path d="M 468.57325 530.44 
L 483.3665 530.44 
L 483.3665 169.686368 
L 468.57325 169.686368 
z
" clip-path="url(#pa9a2c767da)" style="fill: #df9c20"/>
   </g>
   <g id="patch_33">
    <path d="M 542.5395 530.44 
L 557.33275 530.44 
L 557.33275 169.738208 
L 542.5395 169.738208 
z
" clip-path="url(#pa9a2c767da)" style="fill: #df9c20"/>
   </g>
   <g id="patch_34">
    <path d="M 616.50575 530.44 
L 631.299 530.44 
L 631.299 40.714006 
L 616.50575 40.714006 
z
" clip-path="url(#pa9a2c767da)" style="fill: #df9c20"/>
   </g>
   <g id="patch_35">
    <path d="M 83.94875 530.44 
L 83.94875 530.44 
L 83.94875 530.44 
L 83.94875 530.44 
z
" clip-path="url(#pa9a2c767da)" style="fill: #0c3b50"/>
   </g>
   <g id="patch_36">
    <path d="M 83.94875 530.44 
L 83.94875 530.44 
L 83.94875 530.44 
L 83.94875 530.44 
z
" clip-path="url(#pa9a2c767da)" style="fill: #785a8c"/>
   </g>
   <g id="patch_37">
    <path d="M 83.94875 530.44 
L 83.94875 530.44 
L 83.94875 530.44 
L 83.94875 530.44 
z
" clip-path="url(#pa9a2c767da)" style="fill: #dc6980"/>
   </g>
   <g id="patch_38">
    <path d="M 83.94875 530.44 
L 83.94875 530.44 
L 83.94875 530.44 
L 83.94875 530.44 
z
" clip-path="url(#pa9a2c767da)" style="fill: #df9c20"/>
   </g>
   <g id="matplotlib.axis_1">
    <g id="xtick_1">
     <g id="line2d_1">
      <defs>
       <path id="m5fbb5e27f8" d="M 0 0 
L 0 3.5 
" style="stroke: #000000; stroke-width: 0.8"/>
      </defs>
      <g>
       <use xlink:href="#m5fbb5e27f8" x="83.94875" y="530.44" style="stroke: #000000; stroke-width: 0.8"/>
      </g>
     </g>
     <g id="text_1">
      <!-- 1 -->
      <g transform="translate(80.7675 545.038437) scale(0.1 -0.1)">
       <defs>
        <path id="DejaVuSans-31" d="M 794 531 
L 1825 531 
L 1825 4091 
L 703 3866 
L 703 4441 
L 1819 4666 
L 2450 4666 
L 2450 531 
L 3481 531 
L 3481 0 
L 794 0 
L 794 531 
z
" transform="scale(0.015625)"/>
       </defs>
       <use xlink:href="#DejaVuSans-31"/>
      </g>
     </g>
    </g>
    <g id="xtick_2">
     <g id="line2d_2">
      <g>
       <use xlink:href="#m5fbb5e27f8" x="157.915" y="530.44" style="stroke: #000000; stroke-width: 0.8"/>
      </g>
     </g>
     <g id="text_2">
      <!-- 2 -->
      <g transform="translate(154.73375 545.038437) scale(0.1 -0.1)">
       <defs>
        <path id="DejaVuSans-32" d="M 1228 531 
L 3431 531 
L 3431 0 
L 469 0 
L 469 531 
Q 828 903 1448 1529 
Q 2069 2156 2228 2338 
Q 2531 2678 2651 2914 
Q 2772 3150 2772 3378 
Q 2772 3750 2511 3984 
Q 2250 4219 1831 4219 
Q 1534 4219 1204 4116 
Q 875 4013 500 3803 
L 500 4441 
Q 881 4594 1212 4672 
Q 1544 4750 1819 4750 
Q 2544 4750 2975 4387 
Q 3406 4025 3406 3419 
Q 3406 3131 3298 2873 
Q 3191 2616 2906 2266 
Q 2828 2175 2409 1742 
Q 1991 1309 1228 531 
z
" transform="scale(0.015625)"/>
       </defs>
       <use xlink:href="#DejaVuSans-32"/>
      </g>
     </g>
    </g>
    <g id="xtick_3">
     <g id="line2d_3">
      <g>
       <use xlink:href="#m5fbb5e27f8" x="231.88125" y="530.44" style="stroke: #000000; stroke-width: 0.8"/>
      </g>
     </g>
     <g id="text_3">
      <!-- 3 -->
      <g transform="translate(228.7 545.038437) scale(0.1 -0.1)">
       <defs>
        <path id="DejaVuSans-33" d="M 2597 2516 
Q 3050 2419 3304 2112 
Q 3559 1806 3559 1356 
Q 3559 666 3084 287 
Q 2609 -91 1734 -91 
Q 1441 -91 1130 -33 
Q 819 25 488 141 
L 488 750 
Q 750 597 1062 519 
Q 1375 441 1716 441 
Q 2309 441 2620 675 
Q 2931 909 2931 1356 
Q 2931 1769 2642 2001 
Q 2353 2234 1838 2234 
L 1294 2234 
L 1294 2753 
L 1863 2753 
Q 2328 2753 2575 2939 
Q 2822 3125 2822 3475 
Q 2822 3834 2567 4026 
Q 2313 4219 1838 4219 
Q 1578 4219 1281 4162 
Q 984 4106 628 3988 
L 628 4550 
Q 988 4650 1302 4700 
Q 1616 4750 1894 4750 
Q 2613 4750 3031 4423 
Q 3450 4097 3450 3541 
Q 3450 3153 3228 2886 
Q 3006 2619 2597 2516 
z
" transform="scale(0.015625)"/>
       </defs>
       <use xlink:href="#DejaVuSans-33"/>
      </g>
     </g>
    </g>
    <g id="xtick_4">
     <g id="line2d_4">
      <g>
       <use xlink:href="#m5fbb5e27f8" x="305.8475" y="530.44" style="stroke: #000000; stroke-width: 0.8"/>
      </g>
     </g>
     <g id="text_4">
      <!-- 4 -->
      <g transform="translate(302.66625 545.038437) scale(0.1 -0.1)">
       <defs>
        <path id="DejaVuSans-34" d="M 2419 4116 
L 825 1625 
L 2419 1625 
L 2419 4116 
z
M 2253 4666 
L 3047 4666 
L 3047 1625 
L 3713 1625 
L 3713 1100 
L 3047 1100 
L 3047 0 
L 2419 0 
L 2419 1100 
L 313 1100 
L 313 1709 
L 2253 4666 
z
" transform="scale(0.015625)"/>
       </defs>
       <use xlink:href="#DejaVuSans-34"/>
      </g>
     </g>
    </g>
    <g id="xtick_5">
     <g id="line2d_5">
      <g>
       <use xlink:href="#m5fbb5e27f8" x="379.81375" y="530.44" style="stroke: #000000; stroke-width: 0.8"/>
      </g>
     </g>
     <g id="text_5">
      <!-- 5 -->
      <g transform="translate(376.6325 545.038437) scale(0.1 -0.1)">
       <defs>
        <path id="DejaVuSans-35" d="M 691 4666 
L 3169 4666 
L 3169 4134 
L 1269 4134 
L 1269 2991 
Q 1406 3038 1543 3061 
Q 1681 3084 1819 3084 
Q 2600 3084 3056 2656 
Q 3513 2228 3513 1497 
Q 3513 744 3044 326 
Q 2575 -91 1722 -91 
Q 1428 -91 1123 -41 
Q 819 9 494 109 
L 494 744 
Q 775 591 1075 516 
Q 1375 441 1709 441 
Q 2250 441 2565 725 
Q 2881 1009 2881 1497 
Q 2881 1984 2565 2268 
Q 2250 2553 1709 2553 
Q 1456 2553 1204 2497 
Q 953 2441 691 2322 
L 691 4666 
z
" transform="scale(0.015625)"/>
       </defs>
       <use xlink:href="#DejaVuSans-35"/>
      </g>
     </g>
    </g>
    <g id="xtick_6">
     <g id="line2d_6">
      <g>
       <use xlink:href="#m5fbb5e27f8" x="453.78" y="530.44" style="stroke: #000000; stroke-width: 0.8"/>
      </g>
     </g>
     <g id="text_6">
      <!-- 6 -->
      <g transform="translate(450.59875 545.038437) scale(0.1 -0.1)">
       <defs>
        <path id="DejaVuSans-36" d="M 2113 2584 
Q 1688 2584 1439 2293 
Q 1191 2003 1191 1497 
Q 1191 994 1439 701 
Q 1688 409 2113 409 
Q 2538 409 2786 701 
Q 3034 994 3034 1497 
Q 3034 2003 2786 2293 
Q 2538 2584 2113 2584 
z
M 3366 4563 
L 3366 3988 
Q 3128 4100 2886 4159 
Q 2644 4219 2406 4219 
Q 1781 4219 1451 3797 
Q 1122 3375 1075 2522 
Q 1259 2794 1537 2939 
Q 1816 3084 2150 3084 
Q 2853 3084 3261 2657 
Q 3669 2231 3669 1497 
Q 3669 778 3244 343 
Q 2819 -91 2113 -91 
Q 1303 -91 875 529 
Q 447 1150 447 2328 
Q 447 3434 972 4092 
Q 1497 4750 2381 4750 
Q 2619 4750 2861 4703 
Q 3103 4656 3366 4563 
z
" transform="scale(0.015625)"/>
       </defs>
       <use xlink:href="#DejaVuSans-36"/>
      </g>
     </g>
    </g>
    <g id="xtick_7">
     <g id="line2d_7">
      <g>
       <use xlink:href="#m5fbb5e27f8" x="527.74625" y="530.44" style="stroke: #000000; stroke-width: 0.8"/>
      </g>
     </g>
     <g id="text_7">
      <!-- 7 -->
      <g transform="translate(524.565 545.038437) scale(0.1 -0.1)">
       <defs>
        <path id="DejaVuSans-37" d="M 525 4666 
L 3525 4666 
L 3525 4397 
L 1831 0 
L 1172 0 
L 2766 4134 
L 525 4134 
L 525 4666 
z
" transform="scale(0.015625)"/>
       </defs>
       <use xlink:href="#DejaVuSans-37"/>
      </g>
     </g>
    </g>
    <g id="xtick_8">
     <g id="line2d_8">
      <g>
       <use xlink:href="#m5fbb5e27f8" x="601.7125" y="530.44" style="stroke: #000000; stroke-width: 0.8"/>
      </g>
     </g>
     <g id="text_8">
      <!-- 8 -->
      <g transform="translate(598.53125 545.038437) scale(0.1 -0.1)">
       <defs>
        <path id="DejaVuSans-38" d="M 2034 2216 
Q 1584 2216 1326 1975 
Q 1069 1734 1069 1313 
Q 1069 891 1326 650 
Q 1584 409 2034 409 
Q 2484 409 2743 651 
Q 3003 894 3003 1313 
Q 3003 1734 2745 1975 
Q 2488 2216 2034 2216 
z
M 1403 2484 
Q 997 2584 770 2862 
Q 544 3141 544 3541 
Q 544 4100 942 4425 
Q 1341 4750 2034 4750 
Q 2731 4750 3128 4425 
Q 3525 4100 3525 3541 
Q 3525 3141 3298 2862 
Q 3072 2584 2669 2484 
Q 3125 2378 3379 2068 
Q 3634 1759 3634 1313 
Q 3634 634 3220 271 
Q 2806 -91 2034 -91 
Q 1263 -91 848 271 
Q 434 634 434 1313 
Q 434 1759 690 2068 
Q 947 2378 1403 2484 
z
M 1172 3481 
Q 1172 3119 1398 2916 
Q 1625 2713 2034 2713 
Q 2441 2713 2670 2916 
Q 2900 3119 2900 3481 
Q 2900 3844 2670 4047 
Q 2441 4250 2034 4250 
Q 1625 4250 1398 4047 
Q 1172 3844 1172 3481 
z
" transform="scale(0.015625)"/>
       </defs>
       <use xlink:href="#DejaVuSans-38"/>
      </g>
     </g>
    </g>
    <g id="text_9">
     <!-- Channel widths configuration number -->
     <g transform="translate(248.469688 558.716562) scale(0.1 -0.1)">
      <defs>
       <path id="DejaVuSans-43" d="M 4122 4306 
L 4122 3641 
Q 3803 3938 3442 4084 
Q 3081 4231 2675 4231 
Q 1875 4231 1450 3742 
Q 1025 3253 1025 2328 
Q 1025 1406 1450 917 
Q 1875 428 2675 428 
Q 3081 428 3442 575 
Q 3803 722 4122 1019 
L 4122 359 
Q 3791 134 3420 21 
Q 3050 -91 2638 -91 
Q 1578 -91 968 557 
Q 359 1206 359 2328 
Q 359 3453 968 4101 
Q 1578 4750 2638 4750 
Q 3056 4750 3426 4639 
Q 3797 4528 4122 4306 
z
" transform="scale(0.015625)"/>
       <path id="DejaVuSans-68" d="M 3513 2113 
L 3513 0 
L 2938 0 
L 2938 2094 
Q 2938 2591 2744 2837 
Q 2550 3084 2163 3084 
Q 1697 3084 1428 2787 
Q 1159 2491 1159 1978 
L 1159 0 
L 581 0 
L 581 4863 
L 1159 4863 
L 1159 2956 
Q 1366 3272 1645 3428 
Q 1925 3584 2291 3584 
Q 2894 3584 3203 3211 
Q 3513 2838 3513 2113 
z
" transform="scale(0.015625)"/>
       <path id="DejaVuSans-61" d="M 2194 1759 
Q 1497 1759 1228 1600 
Q 959 1441 959 1056 
Q 959 750 1161 570 
Q 1363 391 1709 391 
Q 2188 391 2477 730 
Q 2766 1069 2766 1631 
L 2766 1759 
L 2194 1759 
z
M 3341 1997 
L 3341 0 
L 2766 0 
L 2766 531 
Q 2569 213 2275 61 
Q 1981 -91 1556 -91 
Q 1019 -91 701 211 
Q 384 513 384 1019 
Q 384 1609 779 1909 
Q 1175 2209 1959 2209 
L 2766 2209 
L 2766 2266 
Q 2766 2663 2505 2880 
Q 2244 3097 1772 3097 
Q 1472 3097 1187 3025 
Q 903 2953 641 2809 
L 641 3341 
Q 956 3463 1253 3523 
Q 1550 3584 1831 3584 
Q 2591 3584 2966 3190 
Q 3341 2797 3341 1997 
z
" transform="scale(0.015625)"/>
       <path id="DejaVuSans-6e" d="M 3513 2113 
L 3513 0 
L 2938 0 
L 2938 2094 
Q 2938 2591 2744 2837 
Q 2550 3084 2163 3084 
Q 1697 3084 1428 2787 
Q 1159 2491 1159 1978 
L 1159 0 
L 581 0 
L 581 3500 
L 1159 3500 
L 1159 2956 
Q 1366 3272 1645 3428 
Q 1925 3584 2291 3584 
Q 2894 3584 3203 3211 
Q 3513 2838 3513 2113 
z
" transform="scale(0.015625)"/>
       <path id="DejaVuSans-65" d="M 3597 1894 
L 3597 1613 
L 953 1613 
Q 991 1019 1311 708 
Q 1631 397 2203 397 
Q 2534 397 2845 478 
Q 3156 559 3463 722 
L 3463 178 
Q 3153 47 2828 -22 
Q 2503 -91 2169 -91 
Q 1331 -91 842 396 
Q 353 884 353 1716 
Q 353 2575 817 3079 
Q 1281 3584 2069 3584 
Q 2775 3584 3186 3129 
Q 3597 2675 3597 1894 
z
M 3022 2063 
Q 3016 2534 2758 2815 
Q 2500 3097 2075 3097 
Q 1594 3097 1305 2825 
Q 1016 2553 972 2059 
L 3022 2063 
z
" transform="scale(0.015625)"/>
       <path id="DejaVuSans-6c" d="M 603 4863 
L 1178 4863 
L 1178 0 
L 603 0 
L 603 4863 
z
" transform="scale(0.015625)"/>
       <path id="DejaVuSans-20" transform="scale(0.015625)"/>
       <path id="DejaVuSans-77" d="M 269 3500 
L 844 3500 
L 1563 769 
L 2278 3500 
L 2956 3500 
L 3675 769 
L 4391 3500 
L 4966 3500 
L 4050 0 
L 3372 0 
L 2619 2869 
L 1863 0 
L 1184 0 
L 269 3500 
z
" transform="scale(0.015625)"/>
       <path id="DejaVuSans-69" d="M 603 3500 
L 1178 3500 
L 1178 0 
L 603 0 
L 603 3500 
z
M 603 4863 
L 1178 4863 
L 1178 4134 
L 603 4134 
L 603 4863 
z
" transform="scale(0.015625)"/>
       <path id="DejaVuSans-64" d="M 2906 2969 
L 2906 4863 
L 3481 4863 
L 3481 0 
L 2906 0 
L 2906 525 
Q 2725 213 2448 61 
Q 2172 -91 1784 -91 
Q 1150 -91 751 415 
Q 353 922 353 1747 
Q 353 2572 751 3078 
Q 1150 3584 1784 3584 
Q 2172 3584 2448 3432 
Q 2725 3281 2906 2969 
z
M 947 1747 
Q 947 1113 1208 752 
Q 1469 391 1925 391 
Q 2381 391 2643 752 
Q 2906 1113 2906 1747 
Q 2906 2381 2643 2742 
Q 2381 3103 1925 3103 
Q 1469 3103 1208 2742 
Q 947 2381 947 1747 
z
" transform="scale(0.015625)"/>
       <path id="DejaVuSans-74" d="M 1172 4494 
L 1172 3500 
L 2356 3500 
L 2356 3053 
L 1172 3053 
L 1172 1153 
Q 1172 725 1289 603 
Q 1406 481 1766 481 
L 2356 481 
L 2356 0 
L 1766 0 
Q 1100 0 847 248 
Q 594 497 594 1153 
L 594 3053 
L 172 3053 
L 172 3500 
L 594 3500 
L 594 4494 
L 1172 4494 
z
" transform="scale(0.015625)"/>
       <path id="DejaVuSans-73" d="M 2834 3397 
L 2834 2853 
Q 2591 2978 2328 3040 
Q 2066 3103 1784 3103 
Q 1356 3103 1142 2972 
Q 928 2841 928 2578 
Q 928 2378 1081 2264 
Q 1234 2150 1697 2047 
L 1894 2003 
Q 2506 1872 2764 1633 
Q 3022 1394 3022 966 
Q 3022 478 2636 193 
Q 2250 -91 1575 -91 
Q 1294 -91 989 -36 
Q 684 19 347 128 
L 347 722 
Q 666 556 975 473 
Q 1284 391 1588 391 
Q 1994 391 2212 530 
Q 2431 669 2431 922 
Q 2431 1156 2273 1281 
Q 2116 1406 1581 1522 
L 1381 1569 
Q 847 1681 609 1914 
Q 372 2147 372 2553 
Q 372 3047 722 3315 
Q 1072 3584 1716 3584 
Q 2034 3584 2315 3537 
Q 2597 3491 2834 3397 
z
" transform="scale(0.015625)"/>
       <path id="DejaVuSans-63" d="M 3122 3366 
L 3122 2828 
Q 2878 2963 2633 3030 
Q 2388 3097 2138 3097 
Q 1578 3097 1268 2742 
Q 959 2388 959 1747 
Q 959 1106 1268 751 
Q 1578 397 2138 397 
Q 2388 397 2633 464 
Q 2878 531 3122 666 
L 3122 134 
Q 2881 22 2623 -34 
Q 2366 -91 2075 -91 
Q 1284 -91 818 406 
Q 353 903 353 1747 
Q 353 2603 823 3093 
Q 1294 3584 2113 3584 
Q 2378 3584 2631 3529 
Q 2884 3475 3122 3366 
z
" transform="scale(0.015625)"/>
       <path id="DejaVuSans-6f" d="M 1959 3097 
Q 1497 3097 1228 2736 
Q 959 2375 959 1747 
Q 959 1119 1226 758 
Q 1494 397 1959 397 
Q 2419 397 2687 759 
Q 2956 1122 2956 1747 
Q 2956 2369 2687 2733 
Q 2419 3097 1959 3097 
z
M 1959 3584 
Q 2709 3584 3137 3096 
Q 3566 2609 3566 1747 
Q 3566 888 3137 398 
Q 2709 -91 1959 -91 
Q 1206 -91 779 398 
Q 353 888 353 1747 
Q 353 2609 779 3096 
Q 1206 3584 1959 3584 
z
" transform="scale(0.015625)"/>
       <path id="DejaVuSans-66" d="M 2375 4863 
L 2375 4384 
L 1825 4384 
Q 1516 4384 1395 4259 
Q 1275 4134 1275 3809 
L 1275 3500 
L 2222 3500 
L 2222 3053 
L 1275 3053 
L 1275 0 
L 697 0 
L 697 3053 
L 147 3053 
L 147 3500 
L 697 3500 
L 697 3744 
Q 697 4328 969 4595 
Q 1241 4863 1831 4863 
L 2375 4863 
z
" transform="scale(0.015625)"/>
       <path id="DejaVuSans-67" d="M 2906 1791 
Q 2906 2416 2648 2759 
Q 2391 3103 1925 3103 
Q 1463 3103 1205 2759 
Q 947 2416 947 1791 
Q 947 1169 1205 825 
Q 1463 481 1925 481 
Q 2391 481 2648 825 
Q 2906 1169 2906 1791 
z
M 3481 434 
Q 3481 -459 3084 -895 
Q 2688 -1331 1869 -1331 
Q 1566 -1331 1297 -1286 
Q 1028 -1241 775 -1147 
L 775 -588 
Q 1028 -725 1275 -790 
Q 1522 -856 1778 -856 
Q 2344 -856 2625 -561 
Q 2906 -266 2906 331 
L 2906 616 
Q 2728 306 2450 153 
Q 2172 0 1784 0 
Q 1141 0 747 490 
Q 353 981 353 1791 
Q 353 2603 747 3093 
Q 1141 3584 1784 3584 
Q 2172 3584 2450 3431 
Q 2728 3278 2906 2969 
L 2906 3500 
L 3481 3500 
L 3481 434 
z
" transform="scale(0.015625)"/>
       <path id="DejaVuSans-75" d="M 544 1381 
L 544 3500 
L 1119 3500 
L 1119 1403 
Q 1119 906 1312 657 
Q 1506 409 1894 409 
Q 2359 409 2629 706 
Q 2900 1003 2900 1516 
L 2900 3500 
L 3475 3500 
L 3475 0 
L 2900 0 
L 2900 538 
Q 2691 219 2414 64 
Q 2138 -91 1772 -91 
Q 1169 -91 856 284 
Q 544 659 544 1381 
z
M 1991 3584 
L 1991 3584 
z
" transform="scale(0.015625)"/>
       <path id="DejaVuSans-72" d="M 2631 2963 
Q 2534 3019 2420 3045 
Q 2306 3072 2169 3072 
Q 1681 3072 1420 2755 
Q 1159 2438 1159 1844 
L 1159 0 
L 581 0 
L 581 3500 
L 1159 3500 
L 1159 2956 
Q 1341 3275 1631 3429 
Q 1922 3584 2338 3584 
Q 2397 3584 2469 3576 
Q 2541 3569 2628 3553 
L 2631 2963 
z
" transform="scale(0.015625)"/>
       <path id="DejaVuSans-6d" d="M 3328 2828 
Q 3544 3216 3844 3400 
Q 4144 3584 4550 3584 
Q 5097 3584 5394 3201 
Q 5691 2819 5691 2113 
L 5691 0 
L 5113 0 
L 5113 2094 
Q 5113 2597 4934 2840 
Q 4756 3084 4391 3084 
Q 3944 3084 3684 2787 
Q 3425 2491 3425 1978 
L 3425 0 
L 2847 0 
L 2847 2094 
Q 2847 2600 2669 2842 
Q 2491 3084 2119 3084 
Q 1678 3084 1418 2786 
Q 1159 2488 1159 1978 
L 1159 0 
L 581 0 
L 581 3500 
L 1159 3500 
L 1159 2956 
Q 1356 3278 1631 3431 
Q 1906 3584 2284 3584 
Q 2666 3584 2933 3390 
Q 3200 3197 3328 2828 
z
" transform="scale(0.015625)"/>
       <path id="DejaVuSans-62" d="M 3116 1747 
Q 3116 2381 2855 2742 
Q 2594 3103 2138 3103 
Q 1681 3103 1420 2742 
Q 1159 2381 1159 1747 
Q 1159 1113 1420 752 
Q 1681 391 2138 391 
Q 2594 391 2855 752 
Q 3116 1113 3116 1747 
z
M 1159 2969 
Q 1341 3281 1617 3432 
Q 1894 3584 2278 3584 
Q 2916 3584 3314 3078 
Q 3713 2572 3713 1747 
Q 3713 922 3314 415 
Q 2916 -91 2278 -91 
Q 1894 -91 1617 61 
Q 1341 213 1159 525 
L 1159 0 
L 581 0 
L 581 4863 
L 1159 4863 
L 1159 2969 
z
" transform="scale(0.015625)"/>
      </defs>
      <use xlink:href="#DejaVuSans-43"/>
      <use xlink:href="#DejaVuSans-68" transform="translate(69.824219 0)"/>
      <use xlink:href="#DejaVuSans-61" transform="translate(133.203125 0)"/>
      <use xlink:href="#DejaVuSans-6e" transform="translate(194.482422 0)"/>
      <use xlink:href="#DejaVuSans-6e" transform="translate(257.861328 0)"/>
      <use xlink:href="#DejaVuSans-65" transform="translate(321.240234 0)"/>
      <use xlink:href="#DejaVuSans-6c" transform="translate(382.763672 0)"/>
      <use xlink:href="#DejaVuSans-20" transform="translate(410.546875 0)"/>
      <use xlink:href="#DejaVuSans-77" transform="translate(442.333984 0)"/>
      <use xlink:href="#DejaVuSans-69" transform="translate(524.121094 0)"/>
      <use xlink:href="#DejaVuSans-64" transform="translate(551.904297 0)"/>
      <use xlink:href="#DejaVuSans-74" transform="translate(615.380859 0)"/>
      <use xlink:href="#DejaVuSans-68" transform="translate(654.589844 0)"/>
      <use xlink:href="#DejaVuSans-73" transform="translate(717.96875 0)"/>
      <use xlink:href="#DejaVuSans-20" transform="translate(770.068359 0)"/>
      <use xlink:href="#DejaVuSans-63" transform="translate(801.855469 0)"/>
      <use xlink:href="#DejaVuSans-6f" transform="translate(856.835938 0)"/>
      <use xlink:href="#DejaVuSans-6e" transform="translate(918.017578 0)"/>
      <use xlink:href="#DejaVuSans-66" transform="translate(981.396484 0)"/>
      <use xlink:href="#DejaVuSans-69" transform="translate(1016.601562 0)"/>
      <use xlink:href="#DejaVuSans-67" transform="translate(1044.384766 0)"/>
      <use xlink:href="#DejaVuSans-75" transform="translate(1107.861328 0)"/>
      <use xlink:href="#DejaVuSans-72" transform="translate(1171.240234 0)"/>
      <use xlink:href="#DejaVuSans-61" transform="translate(1212.353516 0)"/>
      <use xlink:href="#DejaVuSans-74" transform="translate(1273.632812 0)"/>
      <use xlink:href="#DejaVuSans-69" transform="translate(1312.841797 0)"/>
      <use xlink:href="#DejaVuSans-6f" transform="translate(1340.625 0)"/>
      <use xlink:href="#DejaVuSans-6e" transform="translate(1401.806641 0)"/>
      <use xlink:href="#DejaVuSans-20" transform="translate(1465.185547 0)"/>
      <use xlink:href="#DejaVuSans-6e" transform="translate(1496.972656 0)"/>
      <use xlink:href="#DejaVuSans-75" transform="translate(1560.351562 0)"/>
      <use xlink:href="#DejaVuSans-6d" transform="translate(1623.730469 0)"/>
      <use xlink:href="#DejaVuSans-62" transform="translate(1721.142578 0)"/>
      <use xlink:href="#DejaVuSans-65" transform="translate(1784.619141 0)"/>
      <use xlink:href="#DejaVuSans-72" transform="translate(1846.142578 0)"/>
     </g>
    </g>
   </g>
   <g id="matplotlib.axis_2">
    <g id="ytick_1">
     <g id="line2d_9">
      <defs>
       <path id="me9de98f4b3" d="M 0 0 
L -3.5 0 
" style="stroke: #000000; stroke-width: 0.8"/>
      </defs>
      <g>
       <use xlink:href="#me9de98f4b3" x="46.965625" y="530.44" style="stroke: #000000; stroke-width: 0.8"/>
      </g>
     </g>
     <g id="text_10">
      <!-- 0 -->
      <g transform="translate(33.603125 534.239219) scale(0.1 -0.1)">
       <defs>
        <path id="DejaVuSans-30" d="M 2034 4250 
Q 1547 4250 1301 3770 
Q 1056 3291 1056 2328 
Q 1056 1369 1301 889 
Q 1547 409 2034 409 
Q 2525 409 2770 889 
Q 3016 1369 3016 2328 
Q 3016 3291 2770 3770 
Q 2525 4250 2034 4250 
z
M 2034 4750 
Q 2819 4750 3233 4129 
Q 3647 3509 3647 2328 
Q 3647 1150 3233 529 
Q 2819 -91 2034 -91 
Q 1250 -91 836 529 
Q 422 1150 422 2328 
Q 422 3509 836 4129 
Q 1250 4750 2034 4750 
z
" transform="scale(0.015625)"/>
       </defs>
       <use xlink:href="#DejaVuSans-30"/>
      </g>
     </g>
    </g>
    <g id="ytick_2">
     <g id="line2d_10">
      <g>
       <use xlink:href="#me9de98f4b3" x="46.965625" y="457.767778" style="stroke: #000000; stroke-width: 0.8"/>
      </g>
     </g>
     <g id="text_11">
      <!-- 100 -->
      <g transform="translate(20.878125 461.566997) scale(0.1 -0.1)">
       <use xlink:href="#DejaVuSans-31"/>
       <use xlink:href="#DejaVuSans-30" transform="translate(63.623047 0)"/>
       <use xlink:href="#DejaVuSans-30" transform="translate(127.246094 0)"/>
      </g>
     </g>
    </g>
    <g id="ytick_3">
     <g id="line2d_11">
      <g>
       <use xlink:href="#me9de98f4b3" x="46.965625" y="385.095556" style="stroke: #000000; stroke-width: 0.8"/>
      </g>
     </g>
     <g id="text_12">
      <!-- 200 -->
      <g transform="translate(20.878125 388.894774) scale(0.1 -0.1)">
       <use xlink:href="#DejaVuSans-32"/>
       <use xlink:href="#DejaVuSans-30" transform="translate(63.623047 0)"/>
       <use xlink:href="#DejaVuSans-30" transform="translate(127.246094 0)"/>
      </g>
     </g>
    </g>
    <g id="ytick_4">
     <g id="line2d_12">
      <g>
       <use xlink:href="#me9de98f4b3" x="46.965625" y="312.423333" style="stroke: #000000; stroke-width: 0.8"/>
      </g>
     </g>
     <g id="text_13">
      <!-- 300 -->
      <g transform="translate(20.878125 316.222552) scale(0.1 -0.1)">
       <use xlink:href="#DejaVuSans-33"/>
       <use xlink:href="#DejaVuSans-30" transform="translate(63.623047 0)"/>
       <use xlink:href="#DejaVuSans-30" transform="translate(127.246094 0)"/>
      </g>
     </g>
    </g>
    <g id="ytick_5">
     <g id="line2d_13">
      <g>
       <use xlink:href="#me9de98f4b3" x="46.965625" y="239.751111" style="stroke: #000000; stroke-width: 0.8"/>
      </g>
     </g>
     <g id="text_14">
      <!-- 400 -->
      <g transform="translate(20.878125 243.55033) scale(0.1 -0.1)">
       <use xlink:href="#DejaVuSans-34"/>
       <use xlink:href="#DejaVuSans-30" transform="translate(63.623047 0)"/>
       <use xlink:href="#DejaVuSans-30" transform="translate(127.246094 0)"/>
      </g>
     </g>
    </g>
    <g id="ytick_6">
     <g id="line2d_14">
      <g>
       <use xlink:href="#me9de98f4b3" x="46.965625" y="167.078889" style="stroke: #000000; stroke-width: 0.8"/>
      </g>
     </g>
     <g id="text_15">
      <!-- 500 -->
      <g transform="translate(20.878125 170.878108) scale(0.1 -0.1)">
       <use xlink:href="#DejaVuSans-35"/>
       <use xlink:href="#DejaVuSans-30" transform="translate(63.623047 0)"/>
       <use xlink:href="#DejaVuSans-30" transform="translate(127.246094 0)"/>
      </g>
     </g>
    </g>
    <g id="ytick_7">
     <g id="line2d_15">
      <g>
       <use xlink:href="#me9de98f4b3" x="46.965625" y="94.406667" style="stroke: #000000; stroke-width: 0.8"/>
      </g>
     </g>
     <g id="text_16">
      <!-- 600 -->
      <g transform="translate(20.878125 98.205885) scale(0.1 -0.1)">
       <use xlink:href="#DejaVuSans-36"/>
       <use xlink:href="#DejaVuSans-30" transform="translate(63.623047 0)"/>
       <use xlink:href="#DejaVuSans-30" transform="translate(127.246094 0)"/>
      </g>
     </g>
    </g>
    <g id="ytick_8">
     <g id="line2d_16">
      <g>
       <use xlink:href="#me9de98f4b3" x="46.965625" y="21.734444" style="stroke: #000000; stroke-width: 0.8"/>
      </g>
     </g>
     <g id="text_17">
      <!-- 700 -->
      <g transform="translate(20.878125 25.533663) scale(0.1 -0.1)">
       <use xlink:href="#DejaVuSans-37"/>
       <use xlink:href="#DejaVuSans-30" transform="translate(63.623047 0)"/>
       <use xlink:href="#DejaVuSans-30" transform="translate(127.246094 0)"/>
      </g>
     </g>
    </g>
    <g id="text_18">
     <!-- Throughput per BSS without RTS/CTS [Mbps] -->
     <g transform="translate(14.798438 380.510625) rotate(-90) scale(0.1 -0.1)">
      <defs>
       <path id="DejaVuSans-54" d="M -19 4666 
L 3928 4666 
L 3928 4134 
L 2272 4134 
L 2272 0 
L 1638 0 
L 1638 4134 
L -19 4134 
L -19 4666 
z
" transform="scale(0.015625)"/>
       <path id="DejaVuSans-70" d="M 1159 525 
L 1159 -1331 
L 581 -1331 
L 581 3500 
L 1159 3500 
L 1159 2969 
Q 1341 3281 1617 3432 
Q 1894 3584 2278 3584 
Q 2916 3584 3314 3078 
Q 3713 2572 3713 1747 
Q 3713 922 3314 415 
Q 2916 -91 2278 -91 
Q 1894 -91 1617 61 
Q 1341 213 1159 525 
z
M 3116 1747 
Q 3116 2381 2855 2742 
Q 2594 3103 2138 3103 
Q 1681 3103 1420 2742 
Q 1159 2381 1159 1747 
Q 1159 1113 1420 752 
Q 1681 391 2138 391 
Q 2594 391 2855 752 
Q 3116 1113 3116 1747 
z
" transform="scale(0.015625)"/>
       <path id="DejaVuSans-42" d="M 1259 2228 
L 1259 519 
L 2272 519 
Q 2781 519 3026 730 
Q 3272 941 3272 1375 
Q 3272 1813 3026 2020 
Q 2781 2228 2272 2228 
L 1259 2228 
z
M 1259 4147 
L 1259 2741 
L 2194 2741 
Q 2656 2741 2882 2914 
Q 3109 3088 3109 3444 
Q 3109 3797 2882 3972 
Q 2656 4147 2194 4147 
L 1259 4147 
z
M 628 4666 
L 2241 4666 
Q 2963 4666 3353 4366 
Q 3744 4066 3744 3513 
Q 3744 3084 3544 2831 
Q 3344 2578 2956 2516 
Q 3422 2416 3680 2098 
Q 3938 1781 3938 1306 
Q 3938 681 3513 340 
Q 3088 0 2303 0 
L 628 0 
L 628 4666 
z
" transform="scale(0.015625)"/>
       <path id="DejaVuSans-53" d="M 3425 4513 
L 3425 3897 
Q 3066 4069 2747 4153 
Q 2428 4238 2131 4238 
Q 1616 4238 1336 4038 
Q 1056 3838 1056 3469 
Q 1056 3159 1242 3001 
Q 1428 2844 1947 2747 
L 2328 2669 
Q 3034 2534 3370 2195 
Q 3706 1856 3706 1288 
Q 3706 609 3251 259 
Q 2797 -91 1919 -91 
Q 1588 -91 1214 -16 
Q 841 59 441 206 
L 441 856 
Q 825 641 1194 531 
Q 1563 422 1919 422 
Q 2459 422 2753 634 
Q 3047 847 3047 1241 
Q 3047 1584 2836 1778 
Q 2625 1972 2144 2069 
L 1759 2144 
Q 1053 2284 737 2584 
Q 422 2884 422 3419 
Q 422 4038 858 4394 
Q 1294 4750 2059 4750 
Q 2388 4750 2728 4690 
Q 3069 4631 3425 4513 
z
" transform="scale(0.015625)"/>
       <path id="DejaVuSans-52" d="M 2841 2188 
Q 3044 2119 3236 1894 
Q 3428 1669 3622 1275 
L 4263 0 
L 3584 0 
L 2988 1197 
Q 2756 1666 2539 1819 
Q 2322 1972 1947 1972 
L 1259 1972 
L 1259 0 
L 628 0 
L 628 4666 
L 2053 4666 
Q 2853 4666 3247 4331 
Q 3641 3997 3641 3322 
Q 3641 2881 3436 2590 
Q 3231 2300 2841 2188 
z
M 1259 4147 
L 1259 2491 
L 2053 2491 
Q 2509 2491 2742 2702 
Q 2975 2913 2975 3322 
Q 2975 3731 2742 3939 
Q 2509 4147 2053 4147 
L 1259 4147 
z
" transform="scale(0.015625)"/>
       <path id="DejaVuSans-2f" d="M 1625 4666 
L 2156 4666 
L 531 -594 
L 0 -594 
L 1625 4666 
z
" transform="scale(0.015625)"/>
       <path id="DejaVuSans-5b" d="M 550 4863 
L 1875 4863 
L 1875 4416 
L 1125 4416 
L 1125 -397 
L 1875 -397 
L 1875 -844 
L 550 -844 
L 550 4863 
z
" transform="scale(0.015625)"/>
       <path id="DejaVuSans-4d" d="M 628 4666 
L 1569 4666 
L 2759 1491 
L 3956 4666 
L 4897 4666 
L 4897 0 
L 4281 0 
L 4281 4097 
L 3078 897 
L 2444 897 
L 1241 4097 
L 1241 0 
L 628 0 
L 628 4666 
z
" transform="scale(0.015625)"/>
       <path id="DejaVuSans-5d" d="M 1947 4863 
L 1947 -844 
L 622 -844 
L 622 -397 
L 1369 -397 
L 1369 4416 
L 622 4416 
L 622 4863 
L 1947 4863 
z
" transform="scale(0.015625)"/>
      </defs>
      <use xlink:href="#DejaVuSans-54"/>
      <use xlink:href="#DejaVuSans-68" transform="translate(61.083984 0)"/>
      <use xlink:href="#DejaVuSans-72" transform="translate(124.462891 0)"/>
      <use xlink:href="#DejaVuSans-6f" transform="translate(163.326172 0)"/>
      <use xlink:href="#DejaVuSans-75" transform="translate(224.507812 0)"/>
      <use xlink:href="#DejaVuSans-67" transform="translate(287.886719 0)"/>
      <use xlink:href="#DejaVuSans-68" transform="translate(351.363281 0)"/>
      <use xlink:href="#DejaVuSans-70" transform="translate(414.742188 0)"/>
      <use xlink:href="#DejaVuSans-75" transform="translate(478.21875 0)"/>
      <use xlink:href="#DejaVuSans-74" transform="translate(541.597656 0)"/>
      <use xlink:href="#DejaVuSans-20" transform="translate(580.806641 0)"/>
      <use xlink:href="#DejaVuSans-70" transform="translate(612.59375 0)"/>
      <use xlink:href="#DejaVuSans-65" transform="translate(676.070312 0)"/>
      <use xlink:href="#DejaVuSans-72" transform="translate(737.59375 0)"/>
      <use xlink:href="#DejaVuSans-20" transform="translate(778.707031 0)"/>
      <use xlink:href="#DejaVuSans-42" transform="translate(810.494141 0)"/>
      <use xlink:href="#DejaVuSans-53" transform="translate(877.347656 0)"/>
      <use xlink:href="#DejaVuSans-53" transform="translate(940.824219 0)"/>
      <use xlink:href="#DejaVuSans-20" transform="translate(1004.300781 0)"/>
      <use xlink:href="#DejaVuSans-77" transform="translate(1036.087891 0)"/>
      <use xlink:href="#DejaVuSans-69" transform="translate(1117.875 0)"/>
      <use xlink:href="#DejaVuSans-74" transform="translate(1145.658203 0)"/>
      <use xlink:href="#DejaVuSans-68" transform="translate(1184.867188 0)"/>
      <use xlink:href="#DejaVuSans-6f" transform="translate(1248.246094 0)"/>
      <use xlink:href="#DejaVuSans-75" transform="translate(1309.427734 0)"/>
      <use xlink:href="#DejaVuSans-74" transform="translate(1372.806641 0)"/>
      <use xlink:href="#DejaVuSans-20" transform="translate(1412.015625 0)"/>
      <use xlink:href="#DejaVuSans-52" transform="translate(1443.802734 0)"/>
      <use xlink:href="#DejaVuSans-54" transform="translate(1506.035156 0)"/>
      <use xlink:href="#DejaVuSans-53" transform="translate(1567.119141 0)"/>
      <use xlink:href="#DejaVuSans-2f" transform="translate(1630.595703 0)"/>
      <use xlink:href="#DejaVuSans-43" transform="translate(1664.287109 0)"/>
      <use xlink:href="#DejaVuSans-54" transform="translate(1734.111328 0)"/>
      <use xlink:href="#DejaVuSans-53" transform="translate(1795.195312 0)"/>
      <use xlink:href="#DejaVuSans-20" transform="translate(1858.671875 0)"/>
      <use xlink:href="#DejaVuSans-5b" transform="translate(1890.458984 0)"/>
      <use xlink:href="#DejaVuSans-4d" transform="translate(1929.472656 0)"/>
      <use xlink:href="#DejaVuSans-62" transform="translate(2015.751953 0)"/>
      <use xlink:href="#DejaVuSans-70" transform="translate(2079.228516 0)"/>
      <use xlink:href="#DejaVuSans-73" transform="translate(2142.705078 0)"/>
      <use xlink:href="#DejaVuSans-5d" transform="translate(2194.804688 0)"/>
     </g>
    </g>
   </g>
   <g id="line2d_17">
    <path d="M 61.758875 490.456833 
L 61.758875 490.375877 
" clip-path="url(#pa9a2c767da)" style="fill: none; stroke: #424242; stroke-width: 2.25; stroke-linecap: square"/>
   </g>
   <g id="line2d_18">
    <path d="M 135.725125 454.857255 
L 135.725125 454.635605 
" clip-path="url(#pa9a2c767da)" style="fill: none; stroke: #424242; stroke-width: 2.25; stroke-linecap: square"/>
   </g>
   <g id="line2d_19">
    <path d="M 209.691375 491.16001 
L 209.691375 490.889742 
" clip-path="url(#pa9a2c767da)" style="fill: none; stroke: #424242; stroke-width: 2.25; stroke-linecap: square"/>
   </g>
   <g id="line2d_20">
    <path d="M 283.657625 491.026584 
L 283.657625 490.838581 
" clip-path="url(#pa9a2c767da)" style="fill: none; stroke: #424242; stroke-width: 2.25; stroke-linecap: square"/>
   </g>
   <g id="line2d_21">
    <path d="M 357.623875 492.186069 
L 357.623875 491.866747 
" clip-path="url(#pa9a2c767da)" style="fill: none; stroke: #424242; stroke-width: 2.25; stroke-linecap: square"/>
   </g>
   <g id="line2d_22">
    <path d="M 431.590125 457.05123 
L 431.590125 457.01126 
" clip-path="url(#pa9a2c767da)" style="fill: none; stroke: #424242; stroke-width: 2.25; stroke-linecap: square"/>
   </g>
   <g id="line2d_23">
    <path d="M 505.556375 457.386975 
L 505.556375 456.995999 
" clip-path="url(#pa9a2c767da)" style="fill: none; stroke: #424242; stroke-width: 2.25; stroke-linecap: square"/>
   </g>
   <g id="line2d_24">
    <path d="M 579.522625 458.810842 
L 579.522625 458.430403 
" clip-path="url(#pa9a2c767da)" style="fill: none; stroke: #424242; stroke-width: 2.25; stroke-linecap: square"/>
   </g>
   <g id="line2d_25">
    <path d="M 76.552125 490.389103 
L 76.552125 490.183077 
" clip-path="url(#pa9a2c767da)" style="fill: none; stroke: #424242; stroke-width: 2.25; stroke-linecap: square"/>
   </g>
   <g id="line2d_26">
    <path d="M 150.518375 454.764962 
L 150.518375 454.469912 
" clip-path="url(#pa9a2c767da)" style="fill: none; stroke: #424242; stroke-width: 2.25; stroke-linecap: square"/>
   </g>
   <g id="line2d_27">
    <path d="M 224.484625 491.249469 
L 224.484625 491.199616 
" clip-path="url(#pa9a2c767da)" style="fill: none; stroke: #424242; stroke-width: 2.25; stroke-linecap: square"/>
   </g>
   <g id="line2d_28">
    <path d="M 298.450875 491.098747 
L 298.450875 491.019607 
" clip-path="url(#pa9a2c767da)" style="fill: none; stroke: #424242; stroke-width: 2.25; stroke-linecap: square"/>
   </g>
   <g id="line2d_29">
    <path d="M 372.417125 492.414623 
L 372.417125 492.156927 
" clip-path="url(#pa9a2c767da)" style="fill: none; stroke: #424242; stroke-width: 2.25; stroke-linecap: square"/>
   </g>
   <g id="line2d_30">
    <path d="M 446.383375 458.068641 
L 446.383375 457.609352 
" clip-path="url(#pa9a2c767da)" style="fill: none; stroke: #424242; stroke-width: 2.25; stroke-linecap: square"/>
   </g>
   <g id="line2d_31">
    <path d="M 520.349625 457.880638 
L 520.349625 457.506158 
" clip-path="url(#pa9a2c767da)" style="fill: none; stroke: #424242; stroke-width: 2.25; stroke-linecap: square"/>
   </g>
   <g id="line2d_32">
    <path d="M 594.315875 459.534981 
L 594.315875 459.272383 
" clip-path="url(#pa9a2c767da)" style="fill: none; stroke: #424242; stroke-width: 2.25; stroke-linecap: square"/>
   </g>
   <g id="line2d_33">
    <path d="M 91.345375 453.016468 
L 91.345375 453.012834 
" clip-path="url(#pa9a2c767da)" style="fill: none; stroke: #424242; stroke-width: 2.25; stroke-linecap: square"/>
   </g>
   <g id="line2d_34">
    <path d="M 165.311625 383.610862 
L 165.311625 383.570166 
" clip-path="url(#pa9a2c767da)" style="fill: none; stroke: #424242; stroke-width: 2.25; stroke-linecap: square"/>
   </g>
   <g id="line2d_35">
    <path d="M 239.277875 383.616676 
L 239.277875 383.58252 
" clip-path="url(#pa9a2c767da)" style="fill: none; stroke: #424242; stroke-width: 2.25; stroke-linecap: square"/>
   </g>
   <g id="line2d_36">
    <path d="M 313.244125 254.107509 
L 313.244125 254.062452 
" clip-path="url(#pa9a2c767da)" style="fill: none; stroke: #424242; stroke-width: 2.25; stroke-linecap: square"/>
   </g>
   <g id="line2d_37">
    <path d="M 387.210375 254.082073 
L 387.210375 254.044284 
" clip-path="url(#pa9a2c767da)" style="fill: none; stroke: #424242; stroke-width: 2.25; stroke-linecap: square"/>
   </g>
   <g id="line2d_38">
    <path d="M 461.176625 254.115503 
L 461.176625 254.088614 
" clip-path="url(#pa9a2c767da)" style="fill: none; stroke: #424242; stroke-width: 2.25; stroke-linecap: square"/>
   </g>
   <g id="line2d_39">
    <path d="M 535.142875 62.839307 
L 535.142875 62.717217 
" clip-path="url(#pa9a2c767da)" style="fill: none; stroke: #424242; stroke-width: 2.25; stroke-linecap: square"/>
   </g>
   <g id="line2d_40">
    <path d="M 609.109125 62.873463 
L 609.109125 62.769541 
" clip-path="url(#pa9a2c767da)" style="fill: none; stroke: #424242; stroke-width: 2.25; stroke-linecap: square"/>
   </g>
   <g id="line2d_41">
    <path d="M 106.138625 456.070155 
L 106.138625 456.05344 
" clip-path="url(#pa9a2c767da)" style="fill: none; stroke: #424242; stroke-width: 2.25; stroke-linecap: square"/>
   </g>
   <g id="line2d_42">
    <path d="M 180.104875 394.203565 
L 180.104875 394.165049 
" clip-path="url(#pa9a2c767da)" style="fill: none; stroke: #424242; stroke-width: 2.25; stroke-linecap: square"/>
   </g>
   <g id="line2d_43">
    <path d="M 254.071125 294.614279 
L 254.071125 294.50309 
" clip-path="url(#pa9a2c767da)" style="fill: none; stroke: #424242; stroke-width: 2.25; stroke-linecap: square"/>
   </g>
   <g id="line2d_44">
    <path d="M 328.037375 294.609191 
L 328.037375 294.27926 
" clip-path="url(#pa9a2c767da)" style="fill: none; stroke: #424242; stroke-width: 2.25; stroke-linecap: square"/>
   </g>
   <g id="line2d_45">
    <path d="M 402.003625 172.446459 
L 402.003625 171.828019 
" clip-path="url(#pa9a2c767da)" style="fill: none; stroke: #424242; stroke-width: 2.25; stroke-linecap: square"/>
   </g>
   <g id="line2d_46">
    <path d="M 475.969875 169.893484 
L 475.969875 169.351349 
" clip-path="url(#pa9a2c767da)" style="fill: none; stroke: #424242; stroke-width: 2.25; stroke-linecap: square"/>
   </g>
   <g id="line2d_47">
    <path d="M 549.936125 169.755407 
L 549.936125 169.716891 
" clip-path="url(#pa9a2c767da)" style="fill: none; stroke: #424242; stroke-width: 2.25; stroke-linecap: square"/>
   </g>
   <g id="line2d_48">
    <path d="M 623.902375 40.813083 
L 623.902375 40.566724 
" clip-path="url(#pa9a2c767da)" style="fill: none; stroke: #424242; stroke-width: 2.25; stroke-linecap: square"/>
   </g>
   <g id="patch_39">
    <path d="M 46.965625 530.44 
L 46.965625 7.2 
" style="fill: none; stroke: #000000; stroke-width: 0.8; stroke-linejoin: miter; stroke-linecap: square"/>
   </g>
   <g id="patch_40">
    <path d="M 638.695625 530.44 
L 638.695625 7.2 
" style="fill: none; stroke: #000000; stroke-width: 0.8; stroke-linejoin: miter; stroke-linecap: square"/>
   </g>
   <g id="patch_41">
    <path d="M 46.965625 530.44 
L 638.695625 530.44 
" style="fill: none; stroke: #000000; stroke-width: 0.8; stroke-linejoin: miter; stroke-linecap: square"/>
   </g>
   <g id="patch_42">
    <path d="M 46.965625 7.2 
L 638.695625 7.2 
" style="fill: none; stroke: #000000; stroke-width: 0.8; stroke-linejoin: miter; stroke-linecap: square"/>
   </g>
   <g id="legend_1">
    <g id="patch_43">
     <path d="M 53.965625 73.9125 
L 114.889063 73.9125 
Q 116.889063 73.9125 116.889063 71.9125 
L 116.889063 14.2 
Q 116.889063 12.2 114.889063 12.2 
L 53.965625 12.2 
Q 51.965625 12.2 51.965625 14.2 
L 51.965625 71.9125 
Q 51.965625 73.9125 53.965625 73.9125 
z
" style="fill: #ffffff; opacity: 0.8; stroke: #cccccc; stroke-linejoin: miter"/>
    </g>
    <g id="patch_44">
     <path d="M 55.965625 23.798437 
L 75.965625 23.798437 
L 75.965625 16.798437 
L 55.965625 16.798437 
z
" style="fill: #0c3b50"/>
    </g>
    <g id="text_19">
     <!-- BSS 1 -->
     <g transform="translate(83.965625 23.798437) scale(0.1 -0.1)">
      <use xlink:href="#DejaVuSans-42"/>
      <use xlink:href="#DejaVuSans-53" transform="translate(66.853516 0)"/>
      <use xlink:href="#DejaVuSans-53" transform="translate(130.330078 0)"/>
      <use xlink:href="#DejaVuSans-20" transform="translate(193.806641 0)"/>
      <use xlink:href="#DejaVuSans-31" transform="translate(225.59375 0)"/>
     </g>
    </g>
    <g id="patch_45">
     <path d="M 55.965625 38.476562 
L 75.965625 38.476562 
L 75.965625 31.476562 
L 55.965625 31.476562 
z
" style="fill: #785a8c"/>
    </g>
    <g id="text_20">
     <!-- BSS 2 -->
     <g transform="translate(83.965625 38.476562) scale(0.1 -0.1)">
      <use xlink:href="#DejaVuSans-42"/>
      <use xlink:href="#DejaVuSans-53" transform="translate(66.853516 0)"/>
      <use xlink:href="#DejaVuSans-53" transform="translate(130.330078 0)"/>
      <use xlink:href="#DejaVuSans-20" transform="translate(193.806641 0)"/>
      <use xlink:href="#DejaVuSans-32" transform="translate(225.59375 0)"/>
     </g>
    </g>
    <g id="patch_46">
     <path d="M 55.965625 53.154688 
L 75.965625 53.154688 
L 75.965625 46.154688 
L 55.965625 46.154688 
z
" style="fill: #dc6980"/>
    </g>
    <g id="text_21">
     <!-- BSS 3 -->
     <g transform="translate(83.965625 53.154688) scale(0.1 -0.1)">
      <use xlink:href="#DejaVuSans-42"/>
      <use xlink:href="#DejaVuSans-53" transform="translate(66.853516 0)"/>
      <use xlink:href="#DejaVuSans-53" transform="translate(130.330078 0)"/>
      <use xlink:href="#DejaVuSans-20" transform="translate(193.806641 0)"/>
      <use xlink:href="#DejaVuSans-33" transform="translate(225.59375 0)"/>
     </g>
    </g>
    <g id="patch_47">
     <path d="M 55.965625 67.832812 
L 75.965625 67.832812 
L 75.965625 60.832812 
L 55.965625 60.832812 
z
" style="fill: #df9c20"/>
    </g>
    <g id="text_22">
     <!-- BSS 4 -->
     <g transform="translate(83.965625 67.832812) scale(0.1 -0.1)">
      <use xlink:href="#DejaVuSans-42"/>
      <use xlink:href="#DejaVuSans-53" transform="translate(66.853516 0)"/>
      <use xlink:href="#DejaVuSans-53" transform="translate(130.330078 0)"/>
      <use xlink:href="#DejaVuSans-20" transform="translate(193.806641 0)"/>
      <use xlink:href="#DejaVuSans-34" transform="translate(225.59375 0)"/>
     </g>
    </g>
   </g>
  </g>
  <g id="axes_2">
   <g id="patch_48">
    <path d="M 689.565625 530.44 
L 1281.295625 530.44 
L 1281.295625 7.2 
L 689.565625 7.2 
z
" style="fill: #ffffff"/>
   </g>
   <g id="patch_49">
    <path d="M 696.96225 530.44 
L 711.7555 530.44 
L 711.7555 491.255622 
L 696.96225 491.255622 
z
" clip-path="url(#peeb284723d)" style="fill: #0c3b50"/>
   </g>
   <g id="patch_50">
    <path d="M 770.9285 530.44 
L 785.72175 530.44 
L 785.72175 457.184704 
L 770.9285 457.184704 
z
" clip-path="url(#peeb284723d)" style="fill: #0c3b50"/>
   </g>
   <g id="patch_51">
    <path d="M 844.89475 530.44 
L 859.688 530.44 
L 859.688 491.781793 
L 844.89475 491.781793 
z
" clip-path="url(#peeb284723d)" style="fill: #0c3b50"/>
   </g>
   <g id="patch_52">
    <path d="M 918.861 530.44 
L 933.65425 530.44 
L 933.65425 491.746644 
L 918.861 491.746644 
z
" clip-path="url(#peeb284723d)" style="fill: #0c3b50"/>
   </g>
   <g id="patch_53">
    <path d="M 992.82725 530.44 
L 1007.6205 530.44 
L 1007.6205 493.079671 
L 992.82725 493.079671 
z
" clip-path="url(#peeb284723d)" style="fill: #0c3b50"/>
   </g>
   <g id="patch_54">
    <path d="M 1066.7935 530.44 
L 1081.58675 530.44 
L 1081.58675 458.814161 
L 1066.7935 458.814161 
z
" clip-path="url(#peeb284723d)" style="fill: #0c3b50"/>
   </g>
   <g id="patch_55">
    <path d="M 1140.75975 530.44 
L 1155.553 530.44 
L 1155.553 459.0182 
L 1140.75975 459.0182 
z
" clip-path="url(#peeb284723d)" style="fill: #0c3b50"/>
   </g>
   <g id="patch_56">
    <path d="M 1214.726 530.44 
L 1229.51925 530.44 
L 1229.51925 460.369056 
L 1214.726 460.369056 
z
" clip-path="url(#peeb284723d)" style="fill: #0c3b50"/>
   </g>
   <g id="patch_57">
    <path d="M 711.7555 530.44 
L 726.54875 530.44 
L 726.54875 491.152767 
L 711.7555 491.152767 
z
" clip-path="url(#peeb284723d)" style="fill: #785a8c"/>
   </g>
   <g id="patch_58">
    <path d="M 785.72175 530.44 
L 800.515 530.44 
L 800.515 457.3269 
L 785.72175 457.3269 
z
" clip-path="url(#peeb284723d)" style="fill: #785a8c"/>
   </g>
   <g id="patch_59">
    <path d="M 859.688 530.44 
L 874.48125 530.44 
L 874.48125 491.788867 
L 859.688 491.788867 
z
" clip-path="url(#peeb284723d)" style="fill: #785a8c"/>
   </g>
   <g id="patch_60">
    <path d="M 933.65425 530.44 
L 948.4475 530.44 
L 948.4475 491.786687 
L 933.65425 491.786687 
z
" clip-path="url(#peeb284723d)" style="fill: #785a8c"/>
   </g>
   <g id="patch_61">
    <path d="M 1007.6205 530.44 
L 1022.41375 530.44 
L 1022.41375 493.253866 
L 1007.6205 493.253866 
z
" clip-path="url(#peeb284723d)" style="fill: #785a8c"/>
   </g>
   <g id="patch_62">
    <path d="M 1081.58675 530.44 
L 1096.38 530.44 
L 1096.38 459.370225 
L 1081.58675 459.370225 
z
" clip-path="url(#peeb284723d)" style="fill: #785a8c"/>
   </g>
   <g id="patch_63">
    <path d="M 1155.553 530.44 
L 1170.34625 530.44 
L 1170.34625 459.409564 
L 1155.553 459.409564 
z
" clip-path="url(#peeb284723d)" style="fill: #785a8c"/>
   </g>
   <g id="patch_64">
    <path d="M 1229.51925 530.44 
L 1244.3125 530.44 
L 1244.3125 460.933186 
L 1229.51925 460.933186 
z
" clip-path="url(#peeb284723d)" style="fill: #785a8c"/>
   </g>
   <g id="patch_65">
    <path d="M 726.54875 530.44 
L 741.342 530.44 
L 741.342 454.433092 
L 726.54875 454.433092 
z
" clip-path="url(#peeb284723d)" style="fill: #dc6980"/>
   </g>
   <g id="patch_66">
    <path d="M 800.515 530.44 
L 815.30825 530.44 
L 815.30825 388.614587 
L 800.515 388.614587 
z
" clip-path="url(#peeb284723d)" style="fill: #dc6980"/>
   </g>
   <g id="patch_67">
    <path d="M 874.48125 530.44 
L 889.2745 530.44 
L 889.2745 388.615798 
L 874.48125 388.615798 
z
" clip-path="url(#peeb284723d)" style="fill: #dc6980"/>
   </g>
   <g id="patch_68">
    <path d="M 948.4475 530.44 
L 963.24075 530.44 
L 963.24075 271.773399 
L 948.4475 271.773399 
z
" clip-path="url(#peeb284723d)" style="fill: #dc6980"/>
   </g>
   <g id="patch_69">
    <path d="M 1022.41375 530.44 
L 1037.207 530.44 
L 1037.207 271.793263 
L 1022.41375 271.793263 
z
" clip-path="url(#peeb284723d)" style="fill: #dc6980"/>
   </g>
   <g id="patch_70">
    <path d="M 1096.38 530.44 
L 1111.17325 530.44 
L 1111.17325 271.792536 
L 1096.38 271.792536 
z
" clip-path="url(#peeb284723d)" style="fill: #dc6980"/>
   </g>
   <g id="patch_71">
    <path d="M 1170.34625 530.44 
L 1185.1395 530.44 
L 1185.1395 111.571846 
L 1170.34625 111.571846 
z
" clip-path="url(#peeb284723d)" style="fill: #dc6980"/>
   </g>
   <g id="patch_72">
    <path d="M 1244.3125 530.44 
L 1259.10575 530.44 
L 1259.10575 111.554404 
L 1244.3125 111.554404 
z
" clip-path="url(#peeb284723d)" style="fill: #dc6980"/>
   </g>
   <g id="patch_73">
    <path d="M 741.342 530.44 
L 756.13525 530.44 
L 756.13525 456.054893 
L 741.342 456.054893 
z
" clip-path="url(#peeb284723d)" style="fill: #df9c20"/>
   </g>
   <g id="patch_74">
    <path d="M 815.30825 530.44 
L 830.1015 530.44 
L 830.1015 394.128955 
L 815.30825 394.128955 
z
" clip-path="url(#peeb284723d)" style="fill: #df9c20"/>
   </g>
   <g id="patch_75">
    <path d="M 889.2745 530.44 
L 904.06775 530.44 
L 904.06775 294.089343 
L 889.2745 294.089343 
z
" clip-path="url(#peeb284723d)" style="fill: #df9c20"/>
   </g>
   <g id="patch_76">
    <path d="M 963.24075 530.44 
L 978.034 530.44 
L 978.034 294.093945 
L 963.24075 294.093945 
z
" clip-path="url(#peeb284723d)" style="fill: #df9c20"/>
   </g>
   <g id="patch_77">
    <path d="M 1037.207 530.44 
L 1052.00025 530.44 
L 1052.00025 173.261115 
L 1037.207 173.261115 
z
" clip-path="url(#peeb284723d)" style="fill: #df9c20"/>
   </g>
   <g id="patch_78">
    <path d="M 1111.17325 530.44 
L 1125.9665 530.44 
L 1125.9665 165.991712 
L 1111.17325 165.991712 
z
" clip-path="url(#peeb284723d)" style="fill: #df9c20"/>
   </g>
   <g id="patch_79">
    <path d="M 1185.1395 530.44 
L 1199.93275 530.44 
L 1199.93275 166.16879 
L 1185.1395 166.16879 
z
" clip-path="url(#peeb284723d)" style="fill: #df9c20"/>
   </g>
   <g id="patch_80">
    <path d="M 1259.10575 530.44 
L 1273.899 530.44 
L 1273.899 35.184862 
L 1259.10575 35.184862 
z
" clip-path="url(#peeb284723d)" style="fill: #df9c20"/>
   </g>
   <g id="patch_81">
    <path d="M 726.54875 530.44 
L 726.54875 530.44 
L 726.54875 530.44 
L 726.54875 530.44 
z
" clip-path="url(#peeb284723d)" style="fill: #0c3b50"/>
   </g>
   <g id="patch_82">
    <path d="M 726.54875 530.44 
L 726.54875 530.44 
L 726.54875 530.44 
L 726.54875 530.44 
z
" clip-path="url(#peeb284723d)" style="fill: #785a8c"/>
   </g>
   <g id="patch_83">
    <path d="M 726.54875 530.44 
L 726.54875 530.44 
L 726.54875 530.44 
L 726.54875 530.44 
z
" clip-path="url(#peeb284723d)" style="fill: #dc6980"/>
   </g>
   <g id="patch_84">
    <path d="M 726.54875 530.44 
L 726.54875 530.44 
L 726.54875 530.44 
L 726.54875 530.44 
z
" clip-path="url(#peeb284723d)" style="fill: #df9c20"/>
   </g>
   <g id="matplotlib.axis_3">
    <g id="xtick_9">
     <g id="line2d_49">
      <g>
       <use xlink:href="#m5fbb5e27f8" x="726.54875" y="530.44" style="stroke: #000000; stroke-width: 0.8"/>
      </g>
     </g>
     <g id="text_23">
      <!-- 1 -->
      <g transform="translate(723.3675 545.038437) scale(0.1 -0.1)">
       <use xlink:href="#DejaVuSans-31"/>
      </g>
     </g>
    </g>
    <g id="xtick_10">
     <g id="line2d_50">
      <g>
       <use xlink:href="#m5fbb5e27f8" x="800.515" y="530.44" style="stroke: #000000; stroke-width: 0.8"/>
      </g>
     </g>
     <g id="text_24">
      <!-- 2 -->
      <g transform="translate(797.33375 545.038437) scale(0.1 -0.1)">
       <use xlink:href="#DejaVuSans-32"/>
      </g>
     </g>
    </g>
    <g id="xtick_11">
     <g id="line2d_51">
      <g>
       <use xlink:href="#m5fbb5e27f8" x="874.48125" y="530.44" style="stroke: #000000; stroke-width: 0.8"/>
      </g>
     </g>
     <g id="text_25">
      <!-- 3 -->
      <g transform="translate(871.3 545.038437) scale(0.1 -0.1)">
       <use xlink:href="#DejaVuSans-33"/>
      </g>
     </g>
    </g>
    <g id="xtick_12">
     <g id="line2d_52">
      <g>
       <use xlink:href="#m5fbb5e27f8" x="948.4475" y="530.44" style="stroke: #000000; stroke-width: 0.8"/>
      </g>
     </g>
     <g id="text_26">
      <!-- 4 -->
      <g transform="translate(945.26625 545.038437) scale(0.1 -0.1)">
       <use xlink:href="#DejaVuSans-34"/>
      </g>
     </g>
    </g>
    <g id="xtick_13">
     <g id="line2d_53">
      <g>
       <use xlink:href="#m5fbb5e27f8" x="1022.41375" y="530.44" style="stroke: #000000; stroke-width: 0.8"/>
      </g>
     </g>
     <g id="text_27">
      <!-- 5 -->
      <g transform="translate(1019.2325 545.038437) scale(0.1 -0.1)">
       <use xlink:href="#DejaVuSans-35"/>
      </g>
     </g>
    </g>
    <g id="xtick_14">
     <g id="line2d_54">
      <g>
       <use xlink:href="#m5fbb5e27f8" x="1096.38" y="530.44" style="stroke: #000000; stroke-width: 0.8"/>
      </g>
     </g>
     <g id="text_28">
      <!-- 6 -->
      <g transform="translate(1093.19875 545.038437) scale(0.1 -0.1)">
       <use xlink:href="#DejaVuSans-36"/>
      </g>
     </g>
    </g>
    <g id="xtick_15">
     <g id="line2d_55">
      <g>
       <use xlink:href="#m5fbb5e27f8" x="1170.34625" y="530.44" style="stroke: #000000; stroke-width: 0.8"/>
      </g>
     </g>
     <g id="text_29">
      <!-- 7 -->
      <g transform="translate(1167.165 545.038437) scale(0.1 -0.1)">
       <use xlink:href="#DejaVuSans-37"/>
      </g>
     </g>
    </g>
    <g id="xtick_16">
     <g id="line2d_56">
      <g>
       <use xlink:href="#m5fbb5e27f8" x="1244.3125" y="530.44" style="stroke: #000000; stroke-width: 0.8"/>
      </g>
     </g>
     <g id="text_30">
      <!-- 8 -->
      <g transform="translate(1241.13125 545.038437) scale(0.1 -0.1)">
       <use xlink:href="#DejaVuSans-38"/>
      </g>
     </g>
    </g>
    <g id="text_31">
     <!-- Channel widths configuration number -->
     <g transform="translate(891.069688 558.716562) scale(0.1 -0.1)">
      <use xlink:href="#DejaVuSans-43"/>
      <use xlink:href="#DejaVuSans-68" transform="translate(69.824219 0)"/>
      <use xlink:href="#DejaVuSans-61" transform="translate(133.203125 0)"/>
      <use xlink:href="#DejaVuSans-6e" transform="translate(194.482422 0)"/>
      <use xlink:href="#DejaVuSans-6e" transform="translate(257.861328 0)"/>
      <use xlink:href="#DejaVuSans-65" transform="translate(321.240234 0)"/>
      <use xlink:href="#DejaVuSans-6c" transform="translate(382.763672 0)"/>
      <use xlink:href="#DejaVuSans-20" transform="translate(410.546875 0)"/>
      <use xlink:href="#DejaVuSans-77" transform="translate(442.333984 0)"/>
      <use xlink:href="#DejaVuSans-69" transform="translate(524.121094 0)"/>
      <use xlink:href="#DejaVuSans-64" transform="translate(551.904297 0)"/>
      <use xlink:href="#DejaVuSans-74" transform="translate(615.380859 0)"/>
      <use xlink:href="#DejaVuSans-68" transform="translate(654.589844 0)"/>
      <use xlink:href="#DejaVuSans-73" transform="translate(717.96875 0)"/>
      <use xlink:href="#DejaVuSans-20" transform="translate(770.068359 0)"/>
      <use xlink:href="#DejaVuSans-63" transform="translate(801.855469 0)"/>
      <use xlink:href="#DejaVuSans-6f" transform="translate(856.835938 0)"/>
      <use xlink:href="#DejaVuSans-6e" transform="translate(918.017578 0)"/>
      <use xlink:href="#DejaVuSans-66" transform="translate(981.396484 0)"/>
      <use xlink:href="#DejaVuSans-69" transform="translate(1016.601562 0)"/>
      <use xlink:href="#DejaVuSans-67" transform="translate(1044.384766 0)"/>
      <use xlink:href="#DejaVuSans-75" transform="translate(1107.861328 0)"/>
      <use xlink:href="#DejaVuSans-72" transform="translate(1171.240234 0)"/>
      <use xlink:href="#DejaVuSans-61" transform="translate(1212.353516 0)"/>
      <use xlink:href="#DejaVuSans-74" transform="translate(1273.632812 0)"/>
      <use xlink:href="#DejaVuSans-69" transform="translate(1312.841797 0)"/>
      <use xlink:href="#DejaVuSans-6f" transform="translate(1340.625 0)"/>
      <use xlink:href="#DejaVuSans-6e" transform="translate(1401.806641 0)"/>
      <use xlink:href="#DejaVuSans-20" transform="translate(1465.185547 0)"/>
      <use xlink:href="#DejaVuSans-6e" transform="translate(1496.972656 0)"/>
      <use xlink:href="#DejaVuSans-75" transform="translate(1560.351562 0)"/>
      <use xlink:href="#DejaVuSans-6d" transform="translate(1623.730469 0)"/>
      <use xlink:href="#DejaVuSans-62" transform="translate(1721.142578 0)"/>
      <use xlink:href="#DejaVuSans-65" transform="translate(1784.619141 0)"/>
      <use xlink:href="#DejaVuSans-72" transform="translate(1846.142578 0)"/>
     </g>
    </g>
   </g>
   <g id="matplotlib.axis_4">
    <g id="ytick_9">
     <g id="line2d_57">
      <g>
       <use xlink:href="#me9de98f4b3" x="689.565625" y="530.44" style="stroke: #000000; stroke-width: 0.8"/>
      </g>
     </g>
     <g id="text_32">
      <!-- 0 -->
      <g transform="translate(676.203125 534.239219) scale(0.1 -0.1)">
       <use xlink:href="#DejaVuSans-30"/>
      </g>
     </g>
    </g>
    <g id="ytick_10">
     <g id="line2d_58">
      <g>
       <use xlink:href="#me9de98f4b3" x="689.565625" y="457.767778" style="stroke: #000000; stroke-width: 0.8"/>
      </g>
     </g>
     <g id="text_33">
      <!-- 100 -->
      <g transform="translate(663.478125 461.566997) scale(0.1 -0.1)">
       <use xlink:href="#DejaVuSans-31"/>
       <use xlink:href="#DejaVuSans-30" transform="translate(63.623047 0)"/>
       <use xlink:href="#DejaVuSans-30" transform="translate(127.246094 0)"/>
      </g>
     </g>
    </g>
    <g id="ytick_11">
     <g id="line2d_59">
      <g>
       <use xlink:href="#me9de98f4b3" x="689.565625" y="385.095556" style="stroke: #000000; stroke-width: 0.8"/>
      </g>
     </g>
     <g id="text_34">
      <!-- 200 -->
      <g transform="translate(663.478125 388.894774) scale(0.1 -0.1)">
       <use xlink:href="#DejaVuSans-32"/>
       <use xlink:href="#DejaVuSans-30" transform="translate(63.623047 0)"/>
       <use xlink:href="#DejaVuSans-30" transform="translate(127.246094 0)"/>
      </g>
     </g>
    </g>
    <g id="ytick_12">
     <g id="line2d_60">
      <g>
       <use xlink:href="#me9de98f4b3" x="689.565625" y="312.423333" style="stroke: #000000; stroke-width: 0.8"/>
      </g>
     </g>
     <g id="text_35">
      <!-- 300 -->
      <g transform="translate(663.478125 316.222552) scale(0.1 -0.1)">
       <use xlink:href="#DejaVuSans-33"/>
       <use xlink:href="#DejaVuSans-30" transform="translate(63.623047 0)"/>
       <use xlink:href="#DejaVuSans-30" transform="translate(127.246094 0)"/>
      </g>
     </g>
    </g>
    <g id="ytick_13">
     <g id="line2d_61">
      <g>
       <use xlink:href="#me9de98f4b3" x="689.565625" y="239.751111" style="stroke: #000000; stroke-width: 0.8"/>
      </g>
     </g>
     <g id="text_36">
      <!-- 400 -->
      <g transform="translate(663.478125 243.55033) scale(0.1 -0.1)">
       <use xlink:href="#DejaVuSans-34"/>
       <use xlink:href="#DejaVuSans-30" transform="translate(63.623047 0)"/>
       <use xlink:href="#DejaVuSans-30" transform="translate(127.246094 0)"/>
      </g>
     </g>
    </g>
    <g id="ytick_14">
     <g id="line2d_62">
      <g>
       <use xlink:href="#me9de98f4b3" x="689.565625" y="167.078889" style="stroke: #000000; stroke-width: 0.8"/>
      </g>
     </g>
     <g id="text_37">
      <!-- 500 -->
      <g transform="translate(663.478125 170.878108) scale(0.1 -0.1)">
       <use xlink:href="#DejaVuSans-35"/>
       <use xlink:href="#DejaVuSans-30" transform="translate(63.623047 0)"/>
       <use xlink:href="#DejaVuSans-30" transform="translate(127.246094 0)"/>
      </g>
     </g>
    </g>
    <g id="ytick_15">
     <g id="line2d_63">
      <g>
       <use xlink:href="#me9de98f4b3" x="689.565625" y="94.406667" style="stroke: #000000; stroke-width: 0.8"/>
      </g>
     </g>
     <g id="text_38">
      <!-- 600 -->
      <g transform="translate(663.478125 98.205885) scale(0.1 -0.1)">
       <use xlink:href="#DejaVuSans-36"/>
       <use xlink:href="#DejaVuSans-30" transform="translate(63.623047 0)"/>
       <use xlink:href="#DejaVuSans-30" transform="translate(127.246094 0)"/>
      </g>
     </g>
    </g>
    <g id="ytick_16">
     <g id="line2d_64">
      <g>
       <use xlink:href="#me9de98f4b3" x="689.565625" y="21.734444" style="stroke: #000000; stroke-width: 0.8"/>
      </g>
     </g>
     <g id="text_39">
      <!-- 700 -->
      <g transform="translate(663.478125 25.533663) scale(0.1 -0.1)">
       <use xlink:href="#DejaVuSans-37"/>
       <use xlink:href="#DejaVuSans-30" transform="translate(63.623047 0)"/>
       <use xlink:href="#DejaVuSans-30" transform="translate(127.246094 0)"/>
      </g>
     </g>
    </g>
    <g id="text_40">
     <!-- Throughput per BSS with RTS/CTS [Mbps] -->
     <g transform="translate(657.398438 372.322344) rotate(-90) scale(0.1 -0.1)">
      <use xlink:href="#DejaVuSans-54"/>
      <use xlink:href="#DejaVuSans-68" transform="translate(61.083984 0)"/>
      <use xlink:href="#DejaVuSans-72" transform="translate(124.462891 0)"/>
      <use xlink:href="#DejaVuSans-6f" transform="translate(163.326172 0)"/>
      <use xlink:href="#DejaVuSans-75" transform="translate(224.507812 0)"/>
      <use xlink:href="#DejaVuSans-67" transform="translate(287.886719 0)"/>
      <use xlink:href="#DejaVuSans-68" transform="translate(351.363281 0)"/>
      <use xlink:href="#DejaVuSans-70" transform="translate(414.742188 0)"/>
      <use xlink:href="#DejaVuSans-75" transform="translate(478.21875 0)"/>
      <use xlink:href="#DejaVuSans-74" transform="translate(541.597656 0)"/>
      <use xlink:href="#DejaVuSans-20" transform="translate(580.806641 0)"/>
      <use xlink:href="#DejaVuSans-70" transform="translate(612.59375 0)"/>
      <use xlink:href="#DejaVuSans-65" transform="translate(676.070312 0)"/>
      <use xlink:href="#DejaVuSans-72" transform="translate(737.59375 0)"/>
      <use xlink:href="#DejaVuSans-20" transform="translate(778.707031 0)"/>
      <use xlink:href="#DejaVuSans-42" transform="translate(810.494141 0)"/>
      <use xlink:href="#DejaVuSans-53" transform="translate(877.347656 0)"/>
      <use xlink:href="#DejaVuSans-53" transform="translate(940.824219 0)"/>
      <use xlink:href="#DejaVuSans-20" transform="translate(1004.300781 0)"/>
      <use xlink:href="#DejaVuSans-77" transform="translate(1036.087891 0)"/>
      <use xlink:href="#DejaVuSans-69" transform="translate(1117.875 0)"/>
      <use xlink:href="#DejaVuSans-74" transform="translate(1145.658203 0)"/>
      <use xlink:href="#DejaVuSans-68" transform="translate(1184.867188 0)"/>
      <use xlink:href="#DejaVuSans-20" transform="translate(1248.246094 0)"/>
      <use xlink:href="#DejaVuSans-52" transform="translate(1280.033203 0)"/>
      <use xlink:href="#DejaVuSans-54" transform="translate(1342.265625 0)"/>
      <use xlink:href="#DejaVuSans-53" transform="translate(1403.349609 0)"/>
      <use xlink:href="#DejaVuSans-2f" transform="translate(1466.826172 0)"/>
      <use xlink:href="#DejaVuSans-43" transform="translate(1500.517578 0)"/>
      <use xlink:href="#DejaVuSans-54" transform="translate(1570.341797 0)"/>
      <use xlink:href="#DejaVuSans-53" transform="translate(1631.425781 0)"/>
      <use xlink:href="#DejaVuSans-20" transform="translate(1694.902344 0)"/>
      <use xlink:href="#DejaVuSans-5b" transform="translate(1726.689453 0)"/>
      <use xlink:href="#DejaVuSans-4d" transform="translate(1765.703125 0)"/>
      <use xlink:href="#DejaVuSans-62" transform="translate(1851.982422 0)"/>
      <use xlink:href="#DejaVuSans-70" transform="translate(1915.458984 0)"/>
      <use xlink:href="#DejaVuSans-73" transform="translate(1978.935547 0)"/>
      <use xlink:href="#DejaVuSans-5d" transform="translate(2031.035156 0)"/>
     </g>
    </g>
   </g>
   <g id="line2d_65">
    <path d="M 704.358875 491.508764 
L 704.358875 491.104706 
" clip-path="url(#peeb284723d)" style="fill: none; stroke: #424242; stroke-width: 2.25; stroke-linecap: square"/>
   </g>
   <g id="line2d_66">
    <path d="M 778.325125 457.275787 
L 778.325125 457.047596 
" clip-path="url(#peeb284723d)" style="fill: none; stroke: #424242; stroke-width: 2.25; stroke-linecap: square"/>
   </g>
   <g id="line2d_67">
    <path d="M 852.291375 491.797636 
L 852.291375 491.772564 
" clip-path="url(#peeb284723d)" style="fill: none; stroke: #424242; stroke-width: 2.25; stroke-linecap: square"/>
   </g>
   <g id="line2d_68">
    <path d="M 926.257625 491.905336 
L 926.257625 491.600622 
" clip-path="url(#peeb284723d)" style="fill: none; stroke: #424242; stroke-width: 2.25; stroke-linecap: square"/>
   </g>
   <g id="line2d_69">
    <path d="M 1000.223875 493.169106 
L 1000.223875 492.929942 
" clip-path="url(#peeb284723d)" style="fill: none; stroke: #424242; stroke-width: 2.25; stroke-linecap: square"/>
   </g>
   <g id="line2d_70">
    <path d="M 1074.190125 458.905825 
L 1074.190125 458.650237 
" clip-path="url(#peeb284723d)" style="fill: none; stroke: #424242; stroke-width: 2.25; stroke-linecap: square"/>
   </g>
   <g id="line2d_71">
    <path d="M 1148.156375 459.044483 
L 1148.156375 458.981695 
" clip-path="url(#peeb284723d)" style="fill: none; stroke: #424242; stroke-width: 2.25; stroke-linecap: square"/>
   </g>
   <g id="line2d_72">
    <path d="M 1222.122625 460.621398 
L 1222.122625 460.146122 
" clip-path="url(#peeb284723d)" style="fill: none; stroke: #424242; stroke-width: 2.25; stroke-linecap: square"/>
   </g>
   <g id="line2d_73">
    <path d="M 719.152125 491.251431 
L 719.152125 491.0175 
" clip-path="url(#peeb284723d)" style="fill: none; stroke: #424242; stroke-width: 2.25; stroke-linecap: square"/>
   </g>
   <g id="line2d_74">
    <path d="M 793.118375 457.503251 
L 793.118375 456.998179 
" clip-path="url(#peeb284723d)" style="fill: none; stroke: #424242; stroke-width: 2.25; stroke-linecap: square"/>
   </g>
   <g id="line2d_75">
    <path d="M 867.084625 491.915583 
L 867.084625 491.683104 
" clip-path="url(#peeb284723d)" style="fill: none; stroke: #424242; stroke-width: 2.25; stroke-linecap: square"/>
   </g>
   <g id="line2d_76">
    <path d="M 941.050875 491.835862 
L 941.050875 491.757157 
" clip-path="url(#peeb284723d)" style="fill: none; stroke: #424242; stroke-width: 2.25; stroke-linecap: square"/>
   </g>
   <g id="line2d_77">
    <path d="M 1015.017125 493.392573 
L 1015.017125 493.005448 
" clip-path="url(#peeb284723d)" style="fill: none; stroke: #424242; stroke-width: 2.25; stroke-linecap: square"/>
   </g>
   <g id="line2d_78">
    <path d="M 1088.983375 459.600499 
L 1088.983375 459.13358 
" clip-path="url(#peeb284723d)" style="fill: none; stroke: #424242; stroke-width: 2.25; stroke-linecap: square"/>
   </g>
   <g id="line2d_79">
    <path d="M 1162.949625 459.560965 
L 1162.949625 459.197676 
" clip-path="url(#peeb284723d)" style="fill: none; stroke: #424242; stroke-width: 2.25; stroke-linecap: square"/>
   </g>
   <g id="line2d_80">
    <path d="M 1236.915875 461.178431 
L 1236.915875 460.649086 
" clip-path="url(#peeb284723d)" style="fill: none; stroke: #424242; stroke-width: 2.25; stroke-linecap: square"/>
   </g>
   <g id="line2d_81">
    <path d="M 733.945375 454.437937 
L 733.945375 454.427036 
" clip-path="url(#peeb284723d)" style="fill: none; stroke: #424242; stroke-width: 2.25; stroke-linecap: square"/>
   </g>
   <g id="line2d_82">
    <path d="M 807.911625 388.617251 
L 807.911625 388.611438 
" clip-path="url(#peeb284723d)" style="fill: none; stroke: #424242; stroke-width: 2.25; stroke-linecap: square"/>
   </g>
   <g id="line2d_83">
    <path d="M 881.877875 388.631059 
L 881.877875 388.604897 
" clip-path="url(#peeb284723d)" style="fill: none; stroke: #424242; stroke-width: 2.25; stroke-linecap: square"/>
   </g>
   <g id="line2d_84">
    <path d="M 955.844125 271.817002 
L 955.844125 271.740697 
" clip-path="url(#peeb284723d)" style="fill: none; stroke: #424242; stroke-width: 2.25; stroke-linecap: square"/>
   </g>
   <g id="line2d_85">
    <path d="M 1029.810375 271.819183 
L 1029.810375 271.758865 
" clip-path="url(#peeb284723d)" style="fill: none; stroke: #424242; stroke-width: 2.25; stroke-linecap: square"/>
   </g>
   <g id="line2d_86">
    <path d="M 1103.776625 271.803195 
L 1103.776625 271.785027 
" clip-path="url(#peeb284723d)" style="fill: none; stroke: #424242; stroke-width: 2.25; stroke-linecap: square"/>
   </g>
   <g id="line2d_87">
    <path d="M 1177.742875 111.641611 
L 1177.742875 111.530422 
" clip-path="url(#peeb284723d)" style="fill: none; stroke: #424242; stroke-width: 2.25; stroke-linecap: square"/>
   </g>
   <g id="line2d_88">
    <path d="M 1251.709125 111.561671 
L 1251.709125 111.547864 
" clip-path="url(#peeb284723d)" style="fill: none; stroke: #424242; stroke-width: 2.25; stroke-linecap: square"/>
   </g>
   <g id="line2d_89">
    <path d="M 748.738625 456.0578 
L 748.738625 456.052713 
" clip-path="url(#peeb284723d)" style="fill: none; stroke: #424242; stroke-width: 2.25; stroke-linecap: square"/>
   </g>
   <g id="line2d_90">
    <path d="M 822.704875 394.150514 
L 822.704875 394.114905 
" clip-path="url(#peeb284723d)" style="fill: none; stroke: #424242; stroke-width: 2.25; stroke-linecap: square"/>
   </g>
   <g id="line2d_91">
    <path d="M 896.671125 294.181152 
L 896.671125 293.968949 
" clip-path="url(#peeb284723d)" style="fill: none; stroke: #424242; stroke-width: 2.25; stroke-linecap: square"/>
   </g>
   <g id="line2d_92">
    <path d="M 970.637375 294.230569 
L 970.637375 293.945694 
" clip-path="url(#peeb284723d)" style="fill: none; stroke: #424242; stroke-width: 2.25; stroke-linecap: square"/>
   </g>
   <g id="line2d_93">
    <path d="M 1044.603625 173.631743 
L 1044.603625 173.005309 
" clip-path="url(#peeb284723d)" style="fill: none; stroke: #424242; stroke-width: 2.25; stroke-linecap: square"/>
   </g>
   <g id="line2d_94">
    <path d="M 1118.569875 166.089093 
L 1118.569875 165.927761 
" clip-path="url(#peeb284723d)" style="fill: none; stroke: #424242; stroke-width: 2.25; stroke-linecap: square"/>
   </g>
   <g id="line2d_95">
    <path d="M 1192.536125 166.302023 
L 1192.536125 166.092 
" clip-path="url(#peeb284723d)" style="fill: none; stroke: #424242; stroke-width: 2.25; stroke-linecap: square"/>
   </g>
   <g id="line2d_96">
    <path d="M 1266.502375 35.285634 
L 1266.502375 35.042182 
" clip-path="url(#peeb284723d)" style="fill: none; stroke: #424242; stroke-width: 2.25; stroke-linecap: square"/>
   </g>
   <g id="patch_85">
    <path d="M 689.565625 530.44 
L 689.565625 7.2 
" style="fill: none; stroke: #000000; stroke-width: 0.8; stroke-linejoin: miter; stroke-linecap: square"/>
   </g>
   <g id="patch_86">
    <path d="M 1281.295625 530.44 
L 1281.295625 7.2 
" style="fill: none; stroke: #000000; stroke-width: 0.8; stroke-linejoin: miter; stroke-linecap: square"/>
   </g>
   <g id="patch_87">
    <path d="M 689.565625 530.44 
L 1281.295625 530.44 
" style="fill: none; stroke: #000000; stroke-width: 0.8; stroke-linejoin: miter; stroke-linecap: square"/>
   </g>
   <g id="patch_88">
    <path d="M 689.565625 7.2 
L 1281.295625 7.2 
" style="fill: none; stroke: #000000; stroke-width: 0.8; stroke-linejoin: miter; stroke-linecap: square"/>
   </g>
   <g id="legend_2">
    <g id="patch_89">
     <path d="M 696.565625 73.9125 
L 757.489063 73.9125 
Q 759.489063 73.9125 759.489063 71.9125 
L 759.489063 14.2 
Q 759.489063 12.2 757.489063 12.2 
L 696.565625 12.2 
Q 694.565625 12.2 694.565625 14.2 
L 694.565625 71.9125 
Q 694.565625 73.9125 696.565625 73.9125 
z
" style="fill: #ffffff; opacity: 0.8; stroke: #cccccc; stroke-linejoin: miter"/>
    </g>
    <g id="patch_90">
     <path d="M 698.565625 23.798437 
L 718.565625 23.798437 
L 718.565625 16.798437 
L 698.565625 16.798437 
z
" style="fill: #0c3b50"/>
    </g>
    <g id="text_41">
     <!-- BSS 1 -->
     <g transform="translate(726.565625 23.798437) scale(0.1 -0.1)">
      <use xlink:href="#DejaVuSans-42"/>
      <use xlink:href="#DejaVuSans-53" transform="translate(66.853516 0)"/>
      <use xlink:href="#DejaVuSans-53" transform="translate(130.330078 0)"/>
      <use xlink:href="#DejaVuSans-20" transform="translate(193.806641 0)"/>
      <use xlink:href="#DejaVuSans-31" transform="translate(225.59375 0)"/>
     </g>
    </g>
    <g id="patch_91">
     <path d="M 698.565625 38.476562 
L 718.565625 38.476562 
L 718.565625 31.476562 
L 698.565625 31.476562 
z
" style="fill: #785a8c"/>
    </g>
    <g id="text_42">
     <!-- BSS 2 -->
     <g transform="translate(726.565625 38.476562) scale(0.1 -0.1)">
      <use xlink:href="#DejaVuSans-42"/>
      <use xlink:href="#DejaVuSans-53" transform="translate(66.853516 0)"/>
      <use xlink:href="#DejaVuSans-53" transform="translate(130.330078 0)"/>
      <use xlink:href="#DejaVuSans-20" transform="translate(193.806641 0)"/>
      <use xlink:href="#DejaVuSans-32" transform="translate(225.59375 0)"/>
     </g>
    </g>
    <g id="patch_92">
     <path d="M 698.565625 53.154688 
L 718.565625 53.154688 
L 718.565625 46.154688 
L 698.565625 46.154688 
z
" style="fill: #dc6980"/>
    </g>
    <g id="text_43">
     <!-- BSS 3 -->
     <g transform="translate(726.565625 53.154688) scale(0.1 -0.1)">
      <use xlink:href="#DejaVuSans-42"/>
      <use xlink:href="#DejaVuSans-53" transform="translate(66.853516 0)"/>
      <use xlink:href="#DejaVuSans-53" transform="translate(130.330078 0)"/>
      <use xlink:href="#DejaVuSans-20" transform="translate(193.806641 0)"/>
      <use xlink:href="#DejaVuSans-33" transform="translate(225.59375 0)"/>
     </g>
    </g>
    <g id="patch_93">
     <path d="M 698.565625 67.832812 
L 718.565625 67.832812 
L 718.565625 60.832812 
L 698.565625 60.832812 
z
" style="fill: #df9c20"/>
    </g>
    <g id="text_44">
     <!-- BSS 4 -->
     <g transform="translate(726.565625 67.832812) scale(0.1 -0.1)">
      <use xlink:href="#DejaVuSans-42"/>
      <use xlink:href="#DejaVuSans-53" transform="translate(66.853516 0)"/>
      <use xlink:href="#DejaVuSans-53" transform="translate(130.330078 0)"/>
      <use xlink:href="#DejaVuSans-20" transform="translate(193.806641 0)"/>
      <use xlink:href="#DejaVuSans-34" transform="translate(225.59375 0)"/>
     </g>
    </g>
   </g>
  </g>
 </g>
 <defs>
  <clipPath id="pa9a2c767da">
   <rect x="46.965625" y="7.2" width="591.73" height="523.24"/>
  </clipPath>
  <clipPath id="peeb284723d">
   <rect x="689.565625" y="7.2" width="591.73" height="523.24"/>
  </clipPath>
 </defs>
</svg>
