<?xml version="1.0" encoding="utf-8" standalone="no"?>
<!DOCTYPE svg PUBLIC "-//W3C//DTD SVG 1.1//EN"
  "http://www.w3.org/Graphics/SVG/1.1/DTD/svg11.dtd">
<svg xmlns:xlink="http://www.w3.org/1999/xlink" width="1288.433125pt" height="567.99625pt" viewBox="0 0 1288.433125 567.99625" xmlns="http://www.w3.org/2000/svg" version="1.1">
 <metadata>
  <rdf:RDF xmlns:dc="http://purl.org/dc/elements/1.1/" xmlns:cc="http://creativecommons.org/ns#" xmlns:rdf="http://www.w3.org/1999/02/22-rdf-syntax-ns#">
   <cc:Work>
    <dc:type rdf:resource="http://purl.org/dc/dcmitype/StillImage"/>
    <dc:date>2025-06-10T18:14:16.451319</dc:date>
    <dc:format>image/svg+xml</dc:format>
    <dc:creator>
     <cc:Agent>
      <dc:title>Matplotlib v3.9.2, https://matplotlib.org/</dc:title>
     </cc:Agent>
    </dc:creator>
   </cc:Work>
  </rdf:RDF>
 </metadata>
 <defs>
  <style type="text/css">*{stroke-linejoin: round; stroke-linecap: butt}</style>
 </defs>
 <g id="figure_1">
  <g id="patch_1">
   <path d="M 0 567.99625 
L 1288.433125 567.99625 
L 1288.433125 0 
L 0 0 
z
" style="fill: #ffffff"/>
  </g>
  <g id="axes_1">
   <g id="patch_2">
    <path d="M 40.603125 530.44 
L 645.673125 530.44 
L 645.673125 7.2 
L 40.603125 7.2 
z
" style="fill: #ffffff"/>
   </g>
   <g id="patch_3">
    <path d="M 48.1665 530.44 
L 63.29325 530.44 
L 63.29325 245.108235 
L 48.1665 245.108235 
z
" clip-path="url(#p229d4c44ae)" style="fill: #0c3b50"/>
   </g>
   <g id="patch_4">
    <path d="M 123.80025 530.44 
L 138.927 530.44 
L 138.927 240.899593 
L 123.80025 240.899593 
z
" clip-path="url(#p229d4c44ae)" style="fill: #0c3b50"/>
   </g>
   <g id="patch_5">
    <path d="M 199.434 530.44 
L 214.56075 530.44 
L 214.56075 241.232934 
L 199.434 241.232934 
z
" clip-path="url(#p229d4c44ae)" style="fill: #0c3b50"/>
   </g>
   <g id="patch_6">
    <path d="M 275.06775 530.44 
L 290.1945 530.44 
L 290.1945 241.489984 
L 275.06775 241.489984 
z
" clip-path="url(#p229d4c44ae)" style="fill: #0c3b50"/>
   </g>
   <g id="patch_7">
    <path d="M 350.7015 530.44 
L 365.82825 530.44 
L 365.82825 231.641578 
L 350.7015 231.641578 
z
" clip-path="url(#p229d4c44ae)" style="fill: #0c3b50"/>
   </g>
   <g id="patch_8">
    <path d="M 426.33525 530.44 
L 441.462 530.44 
L 441.462 234.551552 
L 426.33525 234.551552 
z
" clip-path="url(#p229d4c44ae)" style="fill: #0c3b50"/>
   </g>
   <g id="patch_9">
    <path d="M 501.969 530.44 
L 517.09575 530.44 
L 517.09575 233.756634 
L 501.969 233.756634 
z
" clip-path="url(#p229d4c44ae)" style="fill: #0c3b50"/>
   </g>
   <g id="patch_10">
    <path d="M 577.60275 530.44 
L 592.7295 530.44 
L 592.7295 228.485864 
L 577.60275 228.485864 
z
" clip-path="url(#p229d4c44ae)" style="fill: #0c3b50"/>
   </g>
   <g id="patch_11">
    <path d="M 63.29325 530.44 
L 78.42 530.44 
L 78.42 245.879385 
L 63.29325 245.879385 
z
" clip-path="url(#p229d4c44ae)" style="fill: #785a8c"/>
   </g>
   <g id="patch_12">
    <path d="M 138.927 530.44 
L 154.05375 530.44 
L 154.05375 240.332588 
L 138.927 240.332588 
z
" clip-path="url(#p229d4c44ae)" style="fill: #785a8c"/>
   </g>
   <g id="patch_13">
    <path d="M 214.56075 530.44 
L 229.6875 530.44 
L 229.6875 106.025238 
L 214.56075 106.025238 
z
" clip-path="url(#p229d4c44ae)" style="fill: #785a8c"/>
   </g>
   <g id="patch_14">
    <path d="M 290.1945 530.44 
L 305.32125 530.44 
L 305.32125 35.441355 
L 290.1945 35.441355 
z
" clip-path="url(#p229d4c44ae)" style="fill: #785a8c"/>
   </g>
   <g id="patch_15">
    <path d="M 365.82825 530.44 
L 380.955 530.44 
L 380.955 32.402185 
L 365.82825 32.402185 
z
" clip-path="url(#p229d4c44ae)" style="fill: #785a8c"/>
   </g>
   <g id="patch_16">
    <path d="M 441.462 530.44 
L 456.58875 530.44 
L 456.58875 102.583721 
L 441.462 102.583721 
z
" clip-path="url(#p229d4c44ae)" style="fill: #785a8c"/>
   </g>
   <g id="patch_17">
    <path d="M 517.09575 530.44 
L 532.2225 530.44 
L 532.2225 42.380937 
L 517.09575 42.380937 
z
" clip-path="url(#p229d4c44ae)" style="fill: #785a8c"/>
   </g>
   <g id="patch_18">
    <path d="M 592.7295 530.44 
L 607.85625 530.44 
L 607.85625 40.514305 
L 592.7295 40.514305 
z
" clip-path="url(#p229d4c44ae)" style="fill: #785a8c"/>
   </g>
   <g id="patch_19">
    <path d="M 78.42 530.44 
L 93.54675 530.44 
L 93.54675 517.449087 
L 78.42 517.449087 
z
" clip-path="url(#p229d4c44ae)" style="fill: #dc6980"/>
   </g>
   <g id="patch_20">
    <path d="M 154.05375 530.44 
L 169.1805 530.44 
L 169.1805 508.189998 
L 154.05375 508.189998 
z
" clip-path="url(#p229d4c44ae)" style="fill: #dc6980"/>
   </g>
   <g id="patch_21">
    <path d="M 229.6875 530.44 
L 244.81425 530.44 
L 244.81425 508.185129 
L 229.6875 508.185129 
z
" clip-path="url(#p229d4c44ae)" style="fill: #dc6980"/>
   </g>
   <g id="patch_22">
    <path d="M 305.32125 530.44 
L 320.448 530.44 
L 320.448 491.179292 
L 305.32125 491.179292 
z
" clip-path="url(#p229d4c44ae)" style="fill: #dc6980"/>
   </g>
   <g id="patch_23">
    <path d="M 380.955 530.44 
L 396.08175 530.44 
L 396.08175 491.137696 
L 380.955 491.137696 
z
" clip-path="url(#p229d4c44ae)" style="fill: #dc6980"/>
   </g>
   <g id="patch_24">
    <path d="M 456.58875 530.44 
L 471.7155 530.44 
L 471.7155 491.139306 
L 456.58875 491.139306 
z
" clip-path="url(#p229d4c44ae)" style="fill: #dc6980"/>
   </g>
   <g id="patch_25">
    <path d="M 532.2225 530.44 
L 547.34925 530.44 
L 547.34925 468.435374 
L 532.2225 468.435374 
z
" clip-path="url(#p229d4c44ae)" style="fill: #dc6980"/>
   </g>
   <g id="patch_26">
    <path d="M 607.85625 530.44 
L 622.983 530.44 
L 622.983 468.456843 
L 607.85625 468.456843 
z
" clip-path="url(#p229d4c44ae)" style="fill: #dc6980"/>
   </g>
   <g id="patch_27">
    <path d="M 93.54675 530.44 
L 108.6735 530.44 
L 108.6735 505.441327 
L 93.54675 505.441327 
z
" clip-path="url(#p229d4c44ae)" style="fill: #df9c20"/>
   </g>
   <g id="patch_28">
    <path d="M 169.1805 530.44 
L 184.30725 530.44 
L 184.30725 486.685211 
L 169.1805 486.685211 
z
" clip-path="url(#p229d4c44ae)" style="fill: #df9c20"/>
   </g>
   <g id="patch_29">
    <path d="M 244.81425 530.44 
L 259.941 530.44 
L 259.941 444.950287 
L 244.81425 444.950287 
z
" clip-path="url(#p229d4c44ae)" style="fill: #df9c20"/>
   </g>
   <g id="patch_30">
    <path d="M 320.448 530.44 
L 335.57475 530.44 
L 335.57475 444.940511 
L 320.448 444.940511 
z
" clip-path="url(#p229d4c44ae)" style="fill: #df9c20"/>
   </g>
   <g id="patch_31">
    <path d="M 396.08175 530.44 
L 411.2085 530.44 
L 411.2085 392.863649 
L 396.08175 392.863649 
z
" clip-path="url(#p229d4c44ae)" style="fill: #df9c20"/>
   </g>
   <g id="patch_32">
    <path d="M 471.7155 530.44 
L 486.84225 530.44 
L 486.84225 401.76743 
L 471.7155 401.76743 
z
" clip-path="url(#p229d4c44ae)" style="fill: #df9c20"/>
   </g>
   <g id="patch_33">
    <path d="M 547.34925 530.44 
L 562.476 530.44 
L 562.476 401.550442 
L 547.34925 401.550442 
z
" clip-path="url(#p229d4c44ae)" style="fill: #df9c20"/>
   </g>
   <g id="patch_34">
    <path d="M 622.983 530.44 
L 638.10975 530.44 
L 638.10975 352.003442 
L 622.983 352.003442 
z
" clip-path="url(#p229d4c44ae)" style="fill: #df9c20"/>
   </g>
   <g id="patch_35">
    <path d="M 78.42 530.44 
L 78.42 530.44 
L 78.42 530.44 
L 78.42 530.44 
z
" clip-path="url(#p229d4c44ae)" style="fill: #0c3b50"/>
   </g>
   <g id="patch_36">
    <path d="M 78.42 530.44 
L 78.42 530.44 
L 78.42 530.44 
L 78.42 530.44 
z
" clip-path="url(#p229d4c44ae)" style="fill: #785a8c"/>
   </g>
   <g id="patch_37">
    <path d="M 78.42 530.44 
L 78.42 530.44 
L 78.42 530.44 
L 78.42 530.44 
z
" clip-path="url(#p229d4c44ae)" style="fill: #dc6980"/>
   </g>
   <g id="patch_38">
    <path d="M 78.42 530.44 
L 78.42 530.44 
L 78.42 530.44 
L 78.42 530.44 
z
" clip-path="url(#p229d4c44ae)" style="fill: #df9c20"/>
   </g>
   <g id="matplotlib.axis_1">
    <g id="xtick_1">
     <g id="line2d_1">
      <defs>
       <path id="m7f273af6a3" d="M 0 0 
L 0 3.5 
" style="stroke: #000000; stroke-width: 0.8"/>
      </defs>
      <g>
       <use xlink:href="#m7f273af6a3" x="78.42" y="530.44" style="stroke: #000000; stroke-width: 0.8"/>
      </g>
     </g>
     <g id="text_1">
      <!-- 1 -->
      <g transform="translate(75.23875 545.038437) scale(0.1 -0.1)">
       <defs>
        <path id="DejaVuSans-31" d="M 794 531 
L 1825 531 
L 1825 4091 
L 703 3866 
L 703 4441 
L 1819 4666 
L 2450 4666 
L 2450 531 
L 3481 531 
L 3481 0 
L 794 0 
L 794 531 
z
" transform="scale(0.015625)"/>
       </defs>
       <use xlink:href="#DejaVuSans-31"/>
      </g>
     </g>
    </g>
    <g id="xtick_2">
     <g id="line2d_2">
      <g>
       <use xlink:href="#m7f273af6a3" x="154.05375" y="530.44" style="stroke: #000000; stroke-width: 0.8"/>
      </g>
     </g>
     <g id="text_2">
      <!-- 2 -->
      <g transform="translate(150.8725 545.038437) scale(0.1 -0.1)">
       <defs>
        <path id="DejaVuSans-32" d="M 1228 531 
L 3431 531 
L 3431 0 
L 469 0 
L 469 531 
Q 828 903 1448 1529 
Q 2069 2156 2228 2338 
Q 2531 2678 2651 2914 
Q 2772 3150 2772 3378 
Q 2772 3750 2511 3984 
Q 2250 4219 1831 4219 
Q 1534 4219 1204 4116 
Q 875 4013 500 3803 
L 500 4441 
Q 881 4594 1212 4672 
Q 1544 4750 1819 4750 
Q 2544 4750 2975 4387 
Q 3406 4025 3406 3419 
Q 3406 3131 3298 2873 
Q 3191 2616 2906 2266 
Q 2828 2175 2409 1742 
Q 1991 1309 1228 531 
z
" transform="scale(0.015625)"/>
       </defs>
       <use xlink:href="#DejaVuSans-32"/>
      </g>
     </g>
    </g>
    <g id="xtick_3">
     <g id="line2d_3">
      <g>
       <use xlink:href="#m7f273af6a3" x="229.6875" y="530.44" style="stroke: #000000; stroke-width: 0.8"/>
      </g>
     </g>
     <g id="text_3">
      <!-- 3 -->
      <g transform="translate(226.50625 545.038437) scale(0.1 -0.1)">
       <defs>
        <path id="DejaVuSans-33" d="M 2597 2516 
Q 3050 2419 3304 2112 
Q 3559 1806 3559 1356 
Q 3559 666 3084 287 
Q 2609 -91 1734 -91 
Q 1441 -91 1130 -33 
Q 819 25 488 141 
L 488 750 
Q 750 597 1062 519 
Q 1375 441 1716 441 
Q 2309 441 2620 675 
Q 2931 909 2931 1356 
Q 2931 1769 2642 2001 
Q 2353 2234 1838 2234 
L 1294 2234 
L 1294 2753 
L 1863 2753 
Q 2328 2753 2575 2939 
Q 2822 3125 2822 3475 
Q 2822 3834 2567 4026 
Q 2313 4219 1838 4219 
Q 1578 4219 1281 4162 
Q 984 4106 628 3988 
L 628 4550 
Q 988 4650 1302 4700 
Q 1616 4750 1894 4750 
Q 2613 4750 3031 4423 
Q 3450 4097 3450 3541 
Q 3450 3153 3228 2886 
Q 3006 2619 2597 2516 
z
" transform="scale(0.015625)"/>
       </defs>
       <use xlink:href="#DejaVuSans-33"/>
      </g>
     </g>
    </g>
    <g id="xtick_4">
     <g id="line2d_4">
      <g>
       <use xlink:href="#m7f273af6a3" x="305.32125" y="530.44" style="stroke: #000000; stroke-width: 0.8"/>
      </g>
     </g>
     <g id="text_4">
      <!-- 4 -->
      <g transform="translate(302.14 545.038437) scale(0.1 -0.1)">
       <defs>
        <path id="DejaVuSans-34" d="M 2419 4116 
L 825 1625 
L 2419 1625 
L 2419 4116 
z
M 2253 4666 
L 3047 4666 
L 3047 1625 
L 3713 1625 
L 3713 1100 
L 3047 1100 
L 3047 0 
L 2419 0 
L 2419 1100 
L 313 1100 
L 313 1709 
L 2253 4666 
z
" transform="scale(0.015625)"/>
       </defs>
       <use xlink:href="#DejaVuSans-34"/>
      </g>
     </g>
    </g>
    <g id="xtick_5">
     <g id="line2d_5">
      <g>
       <use xlink:href="#m7f273af6a3" x="380.955" y="530.44" style="stroke: #000000; stroke-width: 0.8"/>
      </g>
     </g>
     <g id="text_5">
      <!-- 5 -->
      <g transform="translate(377.77375 545.038437) scale(0.1 -0.1)">
       <defs>
        <path id="DejaVuSans-35" d="M 691 4666 
L 3169 4666 
L 3169 4134 
L 1269 4134 
L 1269 2991 
Q 1406 3038 1543 3061 
Q 1681 3084 1819 3084 
Q 2600 3084 3056 2656 
Q 3513 2228 3513 1497 
Q 3513 744 3044 326 
Q 2575 -91 1722 -91 
Q 1428 -91 1123 -41 
Q 819 9 494 109 
L 494 744 
Q 775 591 1075 516 
Q 1375 441 1709 441 
Q 2250 441 2565 725 
Q 2881 1009 2881 1497 
Q 2881 1984 2565 2268 
Q 2250 2553 1709 2553 
Q 1456 2553 1204 2497 
Q 953 2441 691 2322 
L 691 4666 
z
" transform="scale(0.015625)"/>
       </defs>
       <use xlink:href="#DejaVuSans-35"/>
      </g>
     </g>
    </g>
    <g id="xtick_6">
     <g id="line2d_6">
      <g>
       <use xlink:href="#m7f273af6a3" x="456.58875" y="530.44" style="stroke: #000000; stroke-width: 0.8"/>
      </g>
     </g>
     <g id="text_6">
      <!-- 6 -->
      <g transform="translate(453.4075 545.038437) scale(0.1 -0.1)">
       <defs>
        <path id="DejaVuSans-36" d="M 2113 2584 
Q 1688 2584 1439 2293 
Q 1191 2003 1191 1497 
Q 1191 994 1439 701 
Q 1688 409 2113 409 
Q 2538 409 2786 701 
Q 3034 994 3034 1497 
Q 3034 2003 2786 2293 
Q 2538 2584 2113 2584 
z
M 3366 4563 
L 3366 3988 
Q 3128 4100 2886 4159 
Q 2644 4219 2406 4219 
Q 1781 4219 1451 3797 
Q 1122 3375 1075 2522 
Q 1259 2794 1537 2939 
Q 1816 3084 2150 3084 
Q 2853 3084 3261 2657 
Q 3669 2231 3669 1497 
Q 3669 778 3244 343 
Q 2819 -91 2113 -91 
Q 1303 -91 875 529 
Q 447 1150 447 2328 
Q 447 3434 972 4092 
Q 1497 4750 2381 4750 
Q 2619 4750 2861 4703 
Q 3103 4656 3366 4563 
z
" transform="scale(0.015625)"/>
       </defs>
       <use xlink:href="#DejaVuSans-36"/>
      </g>
     </g>
    </g>
    <g id="xtick_7">
     <g id="line2d_7">
      <g>
       <use xlink:href="#m7f273af6a3" x="532.2225" y="530.44" style="stroke: #000000; stroke-width: 0.8"/>
      </g>
     </g>
     <g id="text_7">
      <!-- 7 -->
      <g transform="translate(529.04125 545.038437) scale(0.1 -0.1)">
       <defs>
        <path id="DejaVuSans-37" d="M 525 4666 
L 3525 4666 
L 3525 4397 
L 1831 0 
L 1172 0 
L 2766 4134 
L 525 4134 
L 525 4666 
z
" transform="scale(0.015625)"/>
       </defs>
       <use xlink:href="#DejaVuSans-37"/>
      </g>
     </g>
    </g>
    <g id="xtick_8">
     <g id="line2d_8">
      <g>
       <use xlink:href="#m7f273af6a3" x="607.85625" y="530.44" style="stroke: #000000; stroke-width: 0.8"/>
      </g>
     </g>
     <g id="text_8">
      <!-- 8 -->
      <g transform="translate(604.675 545.038437) scale(0.1 -0.1)">
       <defs>
        <path id="DejaVuSans-38" d="M 2034 2216 
Q 1584 2216 1326 1975 
Q 1069 1734 1069 1313 
Q 1069 891 1326 650 
Q 1584 409 2034 409 
Q 2484 409 2743 651 
Q 3003 894 3003 1313 
Q 3003 1734 2745 1975 
Q 2488 2216 2034 2216 
z
M 1403 2484 
Q 997 2584 770 2862 
Q 544 3141 544 3541 
Q 544 4100 942 4425 
Q 1341 4750 2034 4750 
Q 2731 4750 3128 4425 
Q 3525 4100 3525 3541 
Q 3525 3141 3298 2862 
Q 3072 2584 2669 2484 
Q 3125 2378 3379 2068 
Q 3634 1759 3634 1313 
Q 3634 634 3220 271 
Q 2806 -91 2034 -91 
Q 1263 -91 848 271 
Q 434 634 434 1313 
Q 434 1759 690 2068 
Q 947 2378 1403 2484 
z
M 1172 3481 
Q 1172 3119 1398 2916 
Q 1625 2713 2034 2713 
Q 2441 2713 2670 2916 
Q 2900 3119 2900 3481 
Q 2900 3844 2670 4047 
Q 2441 4250 2034 4250 
Q 1625 4250 1398 4047 
Q 1172 3844 1172 3481 
z
" transform="scale(0.015625)"/>
       </defs>
       <use xlink:href="#DejaVuSans-38"/>
      </g>
     </g>
    </g>
    <g id="text_9">
     <!-- Distance beetwen AP and STAs [m] -->
     <g transform="translate(255.22875 558.716562) scale(0.1 -0.1)">
      <defs>
       <path id="DejaVuSans-44" d="M 1259 4147 
L 1259 519 
L 2022 519 
Q 2988 519 3436 956 
Q 3884 1394 3884 2338 
Q 3884 3275 3436 3711 
Q 2988 4147 2022 4147 
L 1259 4147 
z
M 628 4666 
L 1925 4666 
Q 3281 4666 3915 4102 
Q 4550 3538 4550 2338 
Q 4550 1131 3912 565 
Q 3275 0 1925 0 
L 628 0 
L 628 4666 
z
" transform="scale(0.015625)"/>
       <path id="DejaVuSans-69" d="M 603 3500 
L 1178 3500 
L 1178 0 
L 603 0 
L 603 3500 
z
M 603 4863 
L 1178 4863 
L 1178 4134 
L 603 4134 
L 603 4863 
z
" transform="scale(0.015625)"/>
       <path id="DejaVuSans-73" d="M 2834 3397 
L 2834 2853 
Q 2591 2978 2328 3040 
Q 2066 3103 1784 3103 
Q 1356 3103 1142 2972 
Q 928 2841 928 2578 
Q 928 2378 1081 2264 
Q 1234 2150 1697 2047 
L 1894 2003 
Q 2506 1872 2764 1633 
Q 3022 1394 3022 966 
Q 3022 478 2636 193 
Q 2250 -91 1575 -91 
Q 1294 -91 989 -36 
Q 684 19 347 128 
L 347 722 
Q 666 556 975 473 
Q 1284 391 1588 391 
Q 1994 391 2212 530 
Q 2431 669 2431 922 
Q 2431 1156 2273 1281 
Q 2116 1406 1581 1522 
L 1381 1569 
Q 847 1681 609 1914 
Q 372 2147 372 2553 
Q 372 3047 722 3315 
Q 1072 3584 1716 3584 
Q 2034 3584 2315 3537 
Q 2597 3491 2834 3397 
z
" transform="scale(0.015625)"/>
       <path id="DejaVuSans-74" d="M 1172 4494 
L 1172 3500 
L 2356 3500 
L 2356 3053 
L 1172 3053 
L 1172 1153 
Q 1172 725 1289 603 
Q 1406 481 1766 481 
L 2356 481 
L 2356 0 
L 1766 0 
Q 1100 0 847 248 
Q 594 497 594 1153 
L 594 3053 
L 172 3053 
L 172 3500 
L 594 3500 
L 594 4494 
L 1172 4494 
z
" transform="scale(0.015625)"/>
       <path id="DejaVuSans-61" d="M 2194 1759 
Q 1497 1759 1228 1600 
Q 959 1441 959 1056 
Q 959 750 1161 570 
Q 1363 391 1709 391 
Q 2188 391 2477 730 
Q 2766 1069 2766 1631 
L 2766 1759 
L 2194 1759 
z
M 3341 1997 
L 3341 0 
L 2766 0 
L 2766 531 
Q 2569 213 2275 61 
Q 1981 -91 1556 -91 
Q 1019 -91 701 211 
Q 384 513 384 1019 
Q 384 1609 779 1909 
Q 1175 2209 1959 2209 
L 2766 2209 
L 2766 2266 
Q 2766 2663 2505 2880 
Q 2244 3097 1772 3097 
Q 1472 3097 1187 3025 
Q 903 2953 641 2809 
L 641 3341 
Q 956 3463 1253 3523 
Q 1550 3584 1831 3584 
Q 2591 3584 2966 3190 
Q 3341 2797 3341 1997 
z
" transform="scale(0.015625)"/>
       <path id="DejaVuSans-6e" d="M 3513 2113 
L 3513 0 
L 2938 0 
L 2938 2094 
Q 2938 2591 2744 2837 
Q 2550 3084 2163 3084 
Q 1697 3084 1428 2787 
Q 1159 2491 1159 1978 
L 1159 0 
L 581 0 
L 581 3500 
L 1159 3500 
L 1159 2956 
Q 1366 3272 1645 3428 
Q 1925 3584 2291 3584 
Q 2894 3584 3203 3211 
Q 3513 2838 3513 2113 
z
" transform="scale(0.015625)"/>
       <path id="DejaVuSans-63" d="M 3122 3366 
L 3122 2828 
Q 2878 2963 2633 3030 
Q 2388 3097 2138 3097 
Q 1578 3097 1268 2742 
Q 959 2388 959 1747 
Q 959 1106 1268 751 
Q 1578 397 2138 397 
Q 2388 397 2633 464 
Q 2878 531 3122 666 
L 3122 134 
Q 2881 22 2623 -34 
Q 2366 -91 2075 -91 
Q 1284 -91 818 406 
Q 353 903 353 1747 
Q 353 2603 823 3093 
Q 1294 3584 2113 3584 
Q 2378 3584 2631 3529 
Q 2884 3475 3122 3366 
z
" transform="scale(0.015625)"/>
       <path id="DejaVuSans-65" d="M 3597 1894 
L 3597 1613 
L 953 1613 
Q 991 1019 1311 708 
Q 1631 397 2203 397 
Q 2534 397 2845 478 
Q 3156 559 3463 722 
L 3463 178 
Q 3153 47 2828 -22 
Q 2503 -91 2169 -91 
Q 1331 -91 842 396 
Q 353 884 353 1716 
Q 353 2575 817 3079 
Q 1281 3584 2069 3584 
Q 2775 3584 3186 3129 
Q 3597 2675 3597 1894 
z
M 3022 2063 
Q 3016 2534 2758 2815 
Q 2500 3097 2075 3097 
Q 1594 3097 1305 2825 
Q 1016 2553 972 2059 
L 3022 2063 
z
" transform="scale(0.015625)"/>
       <path id="DejaVuSans-20" transform="scale(0.015625)"/>
       <path id="DejaVuSans-62" d="M 3116 1747 
Q 3116 2381 2855 2742 
Q 2594 3103 2138 3103 
Q 1681 3103 1420 2742 
Q 1159 2381 1159 1747 
Q 1159 1113 1420 752 
Q 1681 391 2138 391 
Q 2594 391 2855 752 
Q 3116 1113 3116 1747 
z
M 1159 2969 
Q 1341 3281 1617 3432 
Q 1894 3584 2278 3584 
Q 2916 3584 3314 3078 
Q 3713 2572 3713 1747 
Q 3713 922 3314 415 
Q 2916 -91 2278 -91 
Q 1894 -91 1617 61 
Q 1341 213 1159 525 
L 1159 0 
L 581 0 
L 581 4863 
L 1159 4863 
L 1159 2969 
z
" transform="scale(0.015625)"/>
       <path id="DejaVuSans-77" d="M 269 3500 
L 844 3500 
L 1563 769 
L 2278 3500 
L 2956 3500 
L 3675 769 
L 4391 3500 
L 4966 3500 
L 4050 0 
L 3372 0 
L 2619 2869 
L 1863 0 
L 1184 0 
L 269 3500 
z
" transform="scale(0.015625)"/>
       <path id="DejaVuSans-41" d="M 2188 4044 
L 1331 1722 
L 3047 1722 
L 2188 4044 
z
M 1831 4666 
L 2547 4666 
L 4325 0 
L 3669 0 
L 3244 1197 
L 1141 1197 
L 716 0 
L 50 0 
L 1831 4666 
z
" transform="scale(0.015625)"/>
       <path id="DejaVuSans-50" d="M 1259 4147 
L 1259 2394 
L 2053 2394 
Q 2494 2394 2734 2622 
Q 2975 2850 2975 3272 
Q 2975 3691 2734 3919 
Q 2494 4147 2053 4147 
L 1259 4147 
z
M 628 4666 
L 2053 4666 
Q 2838 4666 3239 4311 
Q 3641 3956 3641 3272 
Q 3641 2581 3239 2228 
Q 2838 1875 2053 1875 
L 1259 1875 
L 1259 0 
L 628 0 
L 628 4666 
z
" transform="scale(0.015625)"/>
       <path id="DejaVuSans-64" d="M 2906 2969 
L 2906 4863 
L 3481 4863 
L 3481 0 
L 2906 0 
L 2906 525 
Q 2725 213 2448 61 
Q 2172 -91 1784 -91 
Q 1150 -91 751 415 
Q 353 922 353 1747 
Q 353 2572 751 3078 
Q 1150 3584 1784 3584 
Q 2172 3584 2448 3432 
Q 2725 3281 2906 2969 
z
M 947 1747 
Q 947 1113 1208 752 
Q 1469 391 1925 391 
Q 2381 391 2643 752 
Q 2906 1113 2906 1747 
Q 2906 2381 2643 2742 
Q 2381 3103 1925 3103 
Q 1469 3103 1208 2742 
Q 947 2381 947 1747 
z
" transform="scale(0.015625)"/>
       <path id="DejaVuSans-53" d="M 3425 4513 
L 3425 3897 
Q 3066 4069 2747 4153 
Q 2428 4238 2131 4238 
Q 1616 4238 1336 4038 
Q 1056 3838 1056 3469 
Q 1056 3159 1242 3001 
Q 1428 2844 1947 2747 
L 2328 2669 
Q 3034 2534 3370 2195 
Q 3706 1856 3706 1288 
Q 3706 609 3251 259 
Q 2797 -91 1919 -91 
Q 1588 -91 1214 -16 
Q 841 59 441 206 
L 441 856 
Q 825 641 1194 531 
Q 1563 422 1919 422 
Q 2459 422 2753 634 
Q 3047 847 3047 1241 
Q 3047 1584 2836 1778 
Q 2625 1972 2144 2069 
L 1759 2144 
Q 1053 2284 737 2584 
Q 422 2884 422 3419 
Q 422 4038 858 4394 
Q 1294 4750 2059 4750 
Q 2388 4750 2728 4690 
Q 3069 4631 3425 4513 
z
" transform="scale(0.015625)"/>
       <path id="DejaVuSans-54" d="M -19 4666 
L 3928 4666 
L 3928 4134 
L 2272 4134 
L 2272 0 
L 1638 0 
L 1638 4134 
L -19 4134 
L -19 4666 
z
" transform="scale(0.015625)"/>
       <path id="DejaVuSans-5b" d="M 550 4863 
L 1875 4863 
L 1875 4416 
L 1125 4416 
L 1125 -397 
L 1875 -397 
L 1875 -844 
L 550 -844 
L 550 4863 
z
" transform="scale(0.015625)"/>
       <path id="DejaVuSans-6d" d="M 3328 2828 
Q 3544 3216 3844 3400 
Q 4144 3584 4550 3584 
Q 5097 3584 5394 3201 
Q 5691 2819 5691 2113 
L 5691 0 
L 5113 0 
L 5113 2094 
Q 5113 2597 4934 2840 
Q 4756 3084 4391 3084 
Q 3944 3084 3684 2787 
Q 3425 2491 3425 1978 
L 3425 0 
L 2847 0 
L 2847 2094 
Q 2847 2600 2669 2842 
Q 2491 3084 2119 3084 
Q 1678 3084 1418 2786 
Q 1159 2488 1159 1978 
L 1159 0 
L 581 0 
L 581 3500 
L 1159 3500 
L 1159 2956 
Q 1356 3278 1631 3431 
Q 1906 3584 2284 3584 
Q 2666 3584 2933 3390 
Q 3200 3197 3328 2828 
z
" transform="scale(0.015625)"/>
       <path id="DejaVuSans-5d" d="M 1947 4863 
L 1947 -844 
L 622 -844 
L 622 -397 
L 1369 -397 
L 1369 4416 
L 622 4416 
L 622 4863 
L 1947 4863 
z
" transform="scale(0.015625)"/>
      </defs>
      <use xlink:href="#DejaVuSans-44"/>
      <use xlink:href="#DejaVuSans-69" x="77.001953"/>
      <use xlink:href="#DejaVuSans-73" x="104.785156"/>
      <use xlink:href="#DejaVuSans-74" x="156.884766"/>
      <use xlink:href="#DejaVuSans-61" x="196.09375"/>
      <use xlink:href="#DejaVuSans-6e" x="257.373047"/>
      <use xlink:href="#DejaVuSans-63" x="320.751953"/>
      <use xlink:href="#DejaVuSans-65" x="375.732422"/>
      <use xlink:href="#DejaVuSans-20" x="437.255859"/>
      <use xlink:href="#DejaVuSans-62" x="469.042969"/>
      <use xlink:href="#DejaVuSans-65" x="532.519531"/>
      <use xlink:href="#DejaVuSans-65" x="594.042969"/>
      <use xlink:href="#DejaVuSans-74" x="655.566406"/>
      <use xlink:href="#DejaVuSans-77" x="694.775391"/>
      <use xlink:href="#DejaVuSans-65" x="776.5625"/>
      <use xlink:href="#DejaVuSans-6e" x="838.085938"/>
      <use xlink:href="#DejaVuSans-20" x="901.464844"/>
      <use xlink:href="#DejaVuSans-41" x="933.251953"/>
      <use xlink:href="#DejaVuSans-50" x="1001.660156"/>
      <use xlink:href="#DejaVuSans-20" x="1061.962891"/>
      <use xlink:href="#DejaVuSans-61" x="1093.75"/>
      <use xlink:href="#DejaVuSans-6e" x="1155.029297"/>
      <use xlink:href="#DejaVuSans-64" x="1218.408203"/>
      <use xlink:href="#DejaVuSans-20" x="1281.884766"/>
      <use xlink:href="#DejaVuSans-53" x="1313.671875"/>
      <use xlink:href="#DejaVuSans-54" x="1377.148438"/>
      <use xlink:href="#DejaVuSans-41" x="1430.482422"/>
      <use xlink:href="#DejaVuSans-73" x="1498.890625"/>
      <use xlink:href="#DejaVuSans-20" x="1550.990234"/>
      <use xlink:href="#DejaVuSans-5b" x="1582.777344"/>
      <use xlink:href="#DejaVuSans-6d" x="1621.791016"/>
      <use xlink:href="#DejaVuSans-5d" x="1719.203125"/>
     </g>
    </g>
   </g>
   <g id="matplotlib.axis_2">
    <g id="ytick_1">
     <g id="line2d_9">
      <defs>
       <path id="mcfabd952bf" d="M 0 0 
L -3.5 0 
" style="stroke: #000000; stroke-width: 0.8"/>
      </defs>
      <g>
       <use xlink:href="#mcfabd952bf" x="40.603125" y="530.44" style="stroke: #000000; stroke-width: 0.8"/>
      </g>
     </g>
     <g id="text_10">
      <!-- 0 -->
      <g transform="translate(27.240625 534.239219) scale(0.1 -0.1)">
       <defs>
        <path id="DejaVuSans-30" d="M 2034 4250 
Q 1547 4250 1301 3770 
Q 1056 3291 1056 2328 
Q 1056 1369 1301 889 
Q 1547 409 2034 409 
Q 2525 409 2770 889 
Q 3016 1369 3016 2328 
Q 3016 3291 2770 3770 
Q 2525 4250 2034 4250 
z
M 2034 4750 
Q 2819 4750 3233 4129 
Q 3647 3509 3647 2328 
Q 3647 1150 3233 529 
Q 2819 -91 2034 -91 
Q 1250 -91 836 529 
Q 422 1150 422 2328 
Q 422 3509 836 4129 
Q 1250 4750 2034 4750 
z
" transform="scale(0.015625)"/>
       </defs>
       <use xlink:href="#DejaVuSans-30"/>
      </g>
     </g>
    </g>
    <g id="ytick_2">
     <g id="line2d_10">
      <g>
       <use xlink:href="#mcfabd952bf" x="40.603125" y="415.428839" style="stroke: #000000; stroke-width: 0.8"/>
      </g>
     </g>
     <g id="text_11">
      <!-- 20 -->
      <g transform="translate(20.878125 419.228058) scale(0.1 -0.1)">
       <use xlink:href="#DejaVuSans-32"/>
       <use xlink:href="#DejaVuSans-30" x="63.623047"/>
      </g>
     </g>
    </g>
    <g id="ytick_3">
     <g id="line2d_11">
      <g>
       <use xlink:href="#mcfabd952bf" x="40.603125" y="300.417678" style="stroke: #000000; stroke-width: 0.8"/>
      </g>
     </g>
     <g id="text_12">
      <!-- 40 -->
      <g transform="translate(20.878125 304.216896) scale(0.1 -0.1)">
       <use xlink:href="#DejaVuSans-34"/>
       <use xlink:href="#DejaVuSans-30" x="63.623047"/>
      </g>
     </g>
    </g>
    <g id="ytick_4">
     <g id="line2d_12">
      <g>
       <use xlink:href="#mcfabd952bf" x="40.603125" y="185.406516" style="stroke: #000000; stroke-width: 0.8"/>
      </g>
     </g>
     <g id="text_13">
      <!-- 60 -->
      <g transform="translate(20.878125 189.205735) scale(0.1 -0.1)">
       <use xlink:href="#DejaVuSans-36"/>
       <use xlink:href="#DejaVuSans-30" x="63.623047"/>
      </g>
     </g>
    </g>
    <g id="ytick_5">
     <g id="line2d_13">
      <g>
       <use xlink:href="#mcfabd952bf" x="40.603125" y="70.395355" style="stroke: #000000; stroke-width: 0.8"/>
      </g>
     </g>
     <g id="text_14">
      <!-- 80 -->
      <g transform="translate(20.878125 74.194574) scale(0.1 -0.1)">
       <use xlink:href="#DejaVuSans-38"/>
       <use xlink:href="#DejaVuSans-30" x="63.623047"/>
      </g>
     </g>
    </g>
    <g id="text_15">
     <!-- Throughput [Mbps] -->
     <g transform="translate(14.798438 316.617656) rotate(-90) scale(0.1 -0.1)">
      <defs>
       <path id="DejaVuSans-68" d="M 3513 2113 
L 3513 0 
L 2938 0 
L 2938 2094 
Q 2938 2591 2744 2837 
Q 2550 3084 2163 3084 
Q 1697 3084 1428 2787 
Q 1159 2491 1159 1978 
L 1159 0 
L 581 0 
L 581 4863 
L 1159 4863 
L 1159 2956 
Q 1366 3272 1645 3428 
Q 1925 3584 2291 3584 
Q 2894 3584 3203 3211 
Q 3513 2838 3513 2113 
z
" transform="scale(0.015625)"/>
       <path id="DejaVuSans-72" d="M 2631 2963 
Q 2534 3019 2420 3045 
Q 2306 3072 2169 3072 
Q 1681 3072 1420 2755 
Q 1159 2438 1159 1844 
L 1159 0 
L 581 0 
L 581 3500 
L 1159 3500 
L 1159 2956 
Q 1341 3275 1631 3429 
Q 1922 3584 2338 3584 
Q 2397 3584 2469 3576 
Q 2541 3569 2628 3553 
L 2631 2963 
z
" transform="scale(0.015625)"/>
       <path id="DejaVuSans-6f" d="M 1959 3097 
Q 1497 3097 1228 2736 
Q 959 2375 959 1747 
Q 959 1119 1226 758 
Q 1494 397 1959 397 
Q 2419 397 2687 759 
Q 2956 1122 2956 1747 
Q 2956 2369 2687 2733 
Q 2419 3097 1959 3097 
z
M 1959 3584 
Q 2709 3584 3137 3096 
Q 3566 2609 3566 1747 
Q 3566 888 3137 398 
Q 2709 -91 1959 -91 
Q 1206 -91 779 398 
Q 353 888 353 1747 
Q 353 2609 779 3096 
Q 1206 3584 1959 3584 
z
" transform="scale(0.015625)"/>
       <path id="DejaVuSans-75" d="M 544 1381 
L 544 3500 
L 1119 3500 
L 1119 1403 
Q 1119 906 1312 657 
Q 1506 409 1894 409 
Q 2359 409 2629 706 
Q 2900 1003 2900 1516 
L 2900 3500 
L 3475 3500 
L 3475 0 
L 2900 0 
L 2900 538 
Q 2691 219 2414 64 
Q 2138 -91 1772 -91 
Q 1169 -91 856 284 
Q 544 659 544 1381 
z
M 1991 3584 
L 1991 3584 
z
" transform="scale(0.015625)"/>
       <path id="DejaVuSans-67" d="M 2906 1791 
Q 2906 2416 2648 2759 
Q 2391 3103 1925 3103 
Q 1463 3103 1205 2759 
Q 947 2416 947 1791 
Q 947 1169 1205 825 
Q 1463 481 1925 481 
Q 2391 481 2648 825 
Q 2906 1169 2906 1791 
z
M 3481 434 
Q 3481 -459 3084 -895 
Q 2688 -1331 1869 -1331 
Q 1566 -1331 1297 -1286 
Q 1028 -1241 775 -1147 
L 775 -588 
Q 1028 -725 1275 -790 
Q 1522 -856 1778 -856 
Q 2344 -856 2625 -561 
Q 2906 -266 2906 331 
L 2906 616 
Q 2728 306 2450 153 
Q 2172 0 1784 0 
Q 1141 0 747 490 
Q 353 981 353 1791 
Q 353 2603 747 3093 
Q 1141 3584 1784 3584 
Q 2172 3584 2450 3431 
Q 2728 3278 2906 2969 
L 2906 3500 
L 3481 3500 
L 3481 434 
z
" transform="scale(0.015625)"/>
       <path id="DejaVuSans-70" d="M 1159 525 
L 1159 -1331 
L 581 -1331 
L 581 3500 
L 1159 3500 
L 1159 2969 
Q 1341 3281 1617 3432 
Q 1894 3584 2278 3584 
Q 2916 3584 3314 3078 
Q 3713 2572 3713 1747 
Q 3713 922 3314 415 
Q 2916 -91 2278 -91 
Q 1894 -91 1617 61 
Q 1341 213 1159 525 
z
M 3116 1747 
Q 3116 2381 2855 2742 
Q 2594 3103 2138 3103 
Q 1681 3103 1420 2742 
Q 1159 2381 1159 1747 
Q 1159 1113 1420 752 
Q 1681 391 2138 391 
Q 2594 391 2855 752 
Q 3116 1113 3116 1747 
z
" transform="scale(0.015625)"/>
       <path id="DejaVuSans-4d" d="M 628 4666 
L 1569 4666 
L 2759 1491 
L 3956 4666 
L 4897 4666 
L 4897 0 
L 4281 0 
L 4281 4097 
L 3078 897 
L 2444 897 
L 1241 4097 
L 1241 0 
L 628 0 
L 628 4666 
z
" transform="scale(0.015625)"/>
      </defs>
      <use xlink:href="#DejaVuSans-54"/>
      <use xlink:href="#DejaVuSans-68" x="61.083984"/>
      <use xlink:href="#DejaVuSans-72" x="124.462891"/>
      <use xlink:href="#DejaVuSans-6f" x="163.326172"/>
      <use xlink:href="#DejaVuSans-75" x="224.507812"/>
      <use xlink:href="#DejaVuSans-67" x="287.886719"/>
      <use xlink:href="#DejaVuSans-68" x="351.363281"/>
      <use xlink:href="#DejaVuSans-70" x="414.742188"/>
      <use xlink:href="#DejaVuSans-75" x="478.21875"/>
      <use xlink:href="#DejaVuSans-74" x="541.597656"/>
      <use xlink:href="#DejaVuSans-20" x="580.806641"/>
      <use xlink:href="#DejaVuSans-5b" x="612.59375"/>
      <use xlink:href="#DejaVuSans-4d" x="651.607422"/>
      <use xlink:href="#DejaVuSans-62" x="737.886719"/>
      <use xlink:href="#DejaVuSans-70" x="801.363281"/>
      <use xlink:href="#DejaVuSans-73" x="864.839844"/>
      <use xlink:href="#DejaVuSans-5d" x="916.939453"/>
     </g>
    </g>
   </g>
   <g id="line2d_14">
    <path d="M 55.729875 246.233044 
L 55.729875 244.094987 
" clip-path="url(#p229d4c44ae)" style="fill: none; stroke: #424242; stroke-width: 2.25; stroke-linecap: square"/>
   </g>
   <g id="line2d_15">
    <path d="M 131.363625 241.441104 
L 131.363625 240.545167 
" clip-path="url(#p229d4c44ae)" style="fill: none; stroke: #424242; stroke-width: 2.25; stroke-linecap: square"/>
   </g>
   <g id="line2d_16">
    <path d="M 206.997375 241.287564 
L 206.997375 241.129999 
" clip-path="url(#p229d4c44ae)" style="fill: none; stroke: #424242; stroke-width: 2.25; stroke-linecap: square"/>
   </g>
   <g id="line2d_17">
    <path d="M 282.631125 242.565913 
L 282.631125 240.337572 
" clip-path="url(#p229d4c44ae)" style="fill: none; stroke: #424242; stroke-width: 2.25; stroke-linecap: square"/>
   </g>
   <g id="line2d_18">
    <path d="M 358.264875 232.756036 
L 358.264875 230.975664 
" clip-path="url(#p229d4c44ae)" style="fill: none; stroke: #424242; stroke-width: 2.25; stroke-linecap: square"/>
   </g>
   <g id="line2d_19">
    <path d="M 433.898625 235.189098 
L 433.898625 234.202877 
" clip-path="url(#p229d4c44ae)" style="fill: none; stroke: #424242; stroke-width: 2.25; stroke-linecap: square"/>
   </g>
   <g id="line2d_20">
    <path d="M 509.532375 233.908448 
L 509.532375 233.649098 
" clip-path="url(#p229d4c44ae)" style="fill: none; stroke: #424242; stroke-width: 2.25; stroke-linecap: square"/>
   </g>
   <g id="line2d_21">
    <path d="M 585.166125 229.341355 
L 585.166125 227.500026 
" clip-path="url(#p229d4c44ae)" style="fill: none; stroke: #424242; stroke-width: 2.25; stroke-linecap: square"/>
   </g>
   <g id="line2d_22">
    <path d="M 70.856625 246.890908 
L 70.856625 245.119736 
" clip-path="url(#p229d4c44ae)" style="fill: none; stroke: #424242; stroke-width: 2.25; stroke-linecap: square"/>
   </g>
   <g id="line2d_23">
    <path d="M 146.490375 241.638348 
L 146.490375 239.652106 
" clip-path="url(#p229d4c44ae)" style="fill: none; stroke: #424242; stroke-width: 2.25; stroke-linecap: square"/>
   </g>
   <g id="line2d_24">
    <path d="M 222.124125 106.447329 
L 222.124125 105.530115 
" clip-path="url(#p229d4c44ae)" style="fill: none; stroke: #424242; stroke-width: 2.25; stroke-linecap: square"/>
   </g>
   <g id="line2d_25">
    <path d="M 297.757875 35.500969 
L 297.757875 35.334203 
" clip-path="url(#p229d4c44ae)" style="fill: none; stroke: #424242; stroke-width: 2.25; stroke-linecap: square"/>
   </g>
   <g id="line2d_26">
    <path d="M 373.391625 32.917243 
L 373.391625 32.11619 
" clip-path="url(#p229d4c44ae)" style="fill: none; stroke: #424242; stroke-width: 2.25; stroke-linecap: square"/>
   </g>
   <g id="line2d_27">
    <path d="M 449.025375 103.068301 
L 449.025375 102.104507 
" clip-path="url(#p229d4c44ae)" style="fill: none; stroke: #424242; stroke-width: 2.25; stroke-linecap: square"/>
   </g>
   <g id="line2d_28">
    <path d="M 524.659125 42.640862 
L 524.659125 42.196344 
" clip-path="url(#p229d4c44ae)" style="fill: none; stroke: #424242; stroke-width: 2.25; stroke-linecap: square"/>
   </g>
   <g id="line2d_29">
    <path d="M 600.292875 40.862789 
L 600.292875 40.210101 
" clip-path="url(#p229d4c44ae)" style="fill: none; stroke: #424242; stroke-width: 2.25; stroke-linecap: square"/>
   </g>
   <g id="line2d_30">
    <path d="M 85.983375 517.516771 
L 85.983375 517.390949 
" clip-path="url(#p229d4c44ae)" style="fill: none; stroke: #424242; stroke-width: 2.25; stroke-linecap: square"/>
   </g>
   <g id="line2d_31">
    <path d="M 161.617125 508.223006 
L 161.617125 508.168261 
" clip-path="url(#p229d4c44ae)" style="fill: none; stroke: #424242; stroke-width: 2.25; stroke-linecap: square"/>
   </g>
   <g id="line2d_32">
    <path d="M 237.250875 508.207595 
L 237.250875 508.146237 
" clip-path="url(#p229d4c44ae)" style="fill: none; stroke: #424242; stroke-width: 2.25; stroke-linecap: square"/>
   </g>
   <g id="line2d_33">
    <path d="M 312.884625 491.22844 
L 312.884625 491.108943 
" clip-path="url(#p229d4c44ae)" style="fill: none; stroke: #424242; stroke-width: 2.25; stroke-linecap: square"/>
   </g>
   <g id="line2d_34">
    <path d="M 388.518375 491.229187 
L 388.518375 491.063801 
" clip-path="url(#p229d4c44ae)" style="fill: none; stroke: #424242; stroke-width: 2.25; stroke-linecap: square"/>
   </g>
   <g id="line2d_35">
    <path d="M 464.152125 491.15374 
L 464.152125 491.129894 
" clip-path="url(#p229d4c44ae)" style="fill: none; stroke: #424242; stroke-width: 2.25; stroke-linecap: square"/>
   </g>
   <g id="line2d_36">
    <path d="M 539.785875 468.489813 
L 539.785875 468.331098 
" clip-path="url(#p229d4c44ae)" style="fill: none; stroke: #424242; stroke-width: 2.25; stroke-linecap: square"/>
   </g>
   <g id="line2d_37">
    <path d="M 615.419625 468.467961 
L 615.419625 468.445534 
" clip-path="url(#p229d4c44ae)" style="fill: none; stroke: #424242; stroke-width: 2.25; stroke-linecap: square"/>
   </g>
   <g id="line2d_38">
    <path d="M 101.110125 505.452445 
L 101.110125 505.422197 
" clip-path="url(#p229d4c44ae)" style="fill: none; stroke: #424242; stroke-width: 2.25; stroke-linecap: square"/>
   </g>
   <g id="line2d_39">
    <path d="M 176.743875 486.737484 
L 176.743875 486.62138 
" clip-path="url(#p229d4c44ae)" style="fill: none; stroke: #424242; stroke-width: 2.25; stroke-linecap: square"/>
   </g>
   <g id="line2d_40">
    <path d="M 252.377625 445.213279 
L 252.377625 444.750359 
" clip-path="url(#p229d4c44ae)" style="fill: none; stroke: #424242; stroke-width: 2.25; stroke-linecap: square"/>
   </g>
   <g id="line2d_41">
    <path d="M 328.011375 445.239732 
L 328.011375 444.6526 
" clip-path="url(#p229d4c44ae)" style="fill: none; stroke: #424242; stroke-width: 2.25; stroke-linecap: square"/>
   </g>
   <g id="line2d_42">
    <path d="M 403.645125 393.180505 
L 403.645125 392.405905 
" clip-path="url(#p229d4c44ae)" style="fill: none; stroke: #424242; stroke-width: 2.25; stroke-linecap: square"/>
   </g>
   <g id="line2d_43">
    <path d="M 479.278875 401.84142 
L 479.278875 401.651652 
" clip-path="url(#p229d4c44ae)" style="fill: none; stroke: #424242; stroke-width: 2.25; stroke-linecap: square"/>
   </g>
   <g id="line2d_44">
    <path d="M 554.912625 401.645326 
L 554.912625 401.383101 
" clip-path="url(#p229d4c44ae)" style="fill: none; stroke: #424242; stroke-width: 2.25; stroke-linecap: square"/>
   </g>
   <g id="line2d_45">
    <path d="M 630.546375 352.127846 
L 630.546375 351.919101 
" clip-path="url(#p229d4c44ae)" style="fill: none; stroke: #424242; stroke-width: 2.25; stroke-linecap: square"/>
   </g>
   <g id="patch_39">
    <path d="M 40.603125 530.44 
L 40.603125 7.2 
" style="fill: none; stroke: #000000; stroke-width: 0.8; stroke-linejoin: miter; stroke-linecap: square"/>
   </g>
   <g id="patch_40">
    <path d="M 645.673125 530.44 
L 645.673125 7.2 
" style="fill: none; stroke: #000000; stroke-width: 0.8; stroke-linejoin: miter; stroke-linecap: square"/>
   </g>
   <g id="patch_41">
    <path d="M 40.603125 530.44 
L 645.673125 530.44 
" style="fill: none; stroke: #000000; stroke-width: 0.8; stroke-linejoin: miter; stroke-linecap: square"/>
   </g>
   <g id="patch_42">
    <path d="M 40.603125 7.2 
L 645.673125 7.2 
" style="fill: none; stroke: #000000; stroke-width: 0.8; stroke-linejoin: miter; stroke-linecap: square"/>
   </g>
   <g id="legend_1">
    <g id="patch_43">
     <path d="M 47.603125 88.590625 
L 209.326563 88.590625 
Q 211.326563 88.590625 211.326563 86.590625 
L 211.326563 14.2 
Q 211.326563 12.2 209.326563 12.2 
L 47.603125 12.2 
Q 45.603125 12.2 45.603125 14.2 
L 45.603125 86.590625 
Q 45.603125 88.590625 47.603125 88.590625 
z
" style="fill: #ffffff; opacity: 0.8; stroke: #cccccc; stroke-linejoin: miter"/>
    </g>
    <g id="text_16">
     <!-- Firts BSS devices configuration: -->
     <g transform="translate(49.603125 23.798437) scale(0.1 -0.1)">
      <defs>
       <path id="DejaVuSans-46" d="M 628 4666 
L 3309 4666 
L 3309 4134 
L 1259 4134 
L 1259 2759 
L 3109 2759 
L 3109 2228 
L 1259 2228 
L 1259 0 
L 628 0 
L 628 4666 
z
" transform="scale(0.015625)"/>
       <path id="DejaVuSans-42" d="M 1259 2228 
L 1259 519 
L 2272 519 
Q 2781 519 3026 730 
Q 3272 941 3272 1375 
Q 3272 1813 3026 2020 
Q 2781 2228 2272 2228 
L 1259 2228 
z
M 1259 4147 
L 1259 2741 
L 2194 2741 
Q 2656 2741 2882 2914 
Q 3109 3088 3109 3444 
Q 3109 3797 2882 3972 
Q 2656 4147 2194 4147 
L 1259 4147 
z
M 628 4666 
L 2241 4666 
Q 2963 4666 3353 4366 
Q 3744 4066 3744 3513 
Q 3744 3084 3544 2831 
Q 3344 2578 2956 2516 
Q 3422 2416 3680 2098 
Q 3938 1781 3938 1306 
Q 3938 681 3513 340 
Q 3088 0 2303 0 
L 628 0 
L 628 4666 
z
" transform="scale(0.015625)"/>
       <path id="DejaVuSans-76" d="M 191 3500 
L 800 3500 
L 1894 563 
L 2988 3500 
L 3597 3500 
L 2284 0 
L 1503 0 
L 191 3500 
z
" transform="scale(0.015625)"/>
       <path id="DejaVuSans-66" d="M 2375 4863 
L 2375 4384 
L 1825 4384 
Q 1516 4384 1395 4259 
Q 1275 4134 1275 3809 
L 1275 3500 
L 2222 3500 
L 2222 3053 
L 1275 3053 
L 1275 0 
L 697 0 
L 697 3053 
L 147 3053 
L 147 3500 
L 697 3500 
L 697 3744 
Q 697 4328 969 4595 
Q 1241 4863 1831 4863 
L 2375 4863 
z
" transform="scale(0.015625)"/>
       <path id="DejaVuSans-3a" d="M 750 794 
L 1409 794 
L 1409 0 
L 750 0 
L 750 794 
z
M 750 3309 
L 1409 3309 
L 1409 2516 
L 750 2516 
L 750 3309 
z
" transform="scale(0.015625)"/>
      </defs>
      <use xlink:href="#DejaVuSans-46"/>
      <use xlink:href="#DejaVuSans-69" x="50.269531"/>
      <use xlink:href="#DejaVuSans-72" x="78.052734"/>
      <use xlink:href="#DejaVuSans-74" x="119.166016"/>
      <use xlink:href="#DejaVuSans-73" x="158.375"/>
      <use xlink:href="#DejaVuSans-20" x="210.474609"/>
      <use xlink:href="#DejaVuSans-42" x="242.261719"/>
      <use xlink:href="#DejaVuSans-53" x="309.115234"/>
      <use xlink:href="#DejaVuSans-53" x="372.591797"/>
      <use xlink:href="#DejaVuSans-20" x="436.068359"/>
      <use xlink:href="#DejaVuSans-64" x="467.855469"/>
      <use xlink:href="#DejaVuSans-65" x="531.332031"/>
      <use xlink:href="#DejaVuSans-76" x="592.855469"/>
      <use xlink:href="#DejaVuSans-69" x="652.035156"/>
      <use xlink:href="#DejaVuSans-63" x="679.818359"/>
      <use xlink:href="#DejaVuSans-65" x="734.798828"/>
      <use xlink:href="#DejaVuSans-73" x="796.322266"/>
      <use xlink:href="#DejaVuSans-20" x="848.421875"/>
      <use xlink:href="#DejaVuSans-63" x="880.208984"/>
      <use xlink:href="#DejaVuSans-6f" x="935.189453"/>
      <use xlink:href="#DejaVuSans-6e" x="996.371094"/>
      <use xlink:href="#DejaVuSans-66" x="1059.75"/>
      <use xlink:href="#DejaVuSans-69" x="1094.955078"/>
      <use xlink:href="#DejaVuSans-67" x="1122.738281"/>
      <use xlink:href="#DejaVuSans-75" x="1186.214844"/>
      <use xlink:href="#DejaVuSans-72" x="1249.59375"/>
      <use xlink:href="#DejaVuSans-61" x="1290.707031"/>
      <use xlink:href="#DejaVuSans-74" x="1351.986328"/>
      <use xlink:href="#DejaVuSans-69" x="1391.195312"/>
      <use xlink:href="#DejaVuSans-6f" x="1418.978516"/>
      <use xlink:href="#DejaVuSans-6e" x="1480.160156"/>
      <use xlink:href="#DejaVuSans-3a" x="1543.539062"/>
     </g>
    </g>
    <g id="patch_44">
     <path d="M 110.614844 38.476562 
L 130.614844 38.476562 
L 130.614844 31.476562 
L 110.614844 31.476562 
z
" style="fill: #0c3b50"/>
    </g>
    <g id="text_17">
     <!-- A -->
     <g transform="translate(138.614844 38.476562) scale(0.1 -0.1)">
      <use xlink:href="#DejaVuSans-41"/>
     </g>
    </g>
    <g id="patch_45">
     <path d="M 110.614844 53.154688 
L 130.614844 53.154688 
L 130.614844 46.154688 
L 110.614844 46.154688 
z
" style="fill: #785a8c"/>
    </g>
    <g id="text_18">
     <!-- B -->
     <g transform="translate(138.614844 53.154688) scale(0.1 -0.1)">
      <use xlink:href="#DejaVuSans-42"/>
     </g>
    </g>
    <g id="patch_46">
     <path d="M 110.614844 67.832812 
L 130.614844 67.832812 
L 130.614844 60.832812 
L 110.614844 60.832812 
z
" style="fill: #dc6980"/>
    </g>
    <g id="text_19">
     <!-- C -->
     <g transform="translate(138.614844 67.832812) scale(0.1 -0.1)">
      <defs>
       <path id="DejaVuSans-43" d="M 4122 4306 
L 4122 3641 
Q 3803 3938 3442 4084 
Q 3081 4231 2675 4231 
Q 1875 4231 1450 3742 
Q 1025 3253 1025 2328 
Q 1025 1406 1450 917 
Q 1875 428 2675 428 
Q 3081 428 3442 575 
Q 3803 722 4122 1019 
L 4122 359 
Q 3791 134 3420 21 
Q 3050 -91 2638 -91 
Q 1578 -91 968 557 
Q 359 1206 359 2328 
Q 359 3453 968 4101 
Q 1578 4750 2638 4750 
Q 3056 4750 3426 4639 
Q 3797 4528 4122 4306 
z
" transform="scale(0.015625)"/>
      </defs>
      <use xlink:href="#DejaVuSans-43"/>
     </g>
    </g>
    <g id="patch_47">
     <path d="M 110.614844 82.510938 
L 130.614844 82.510938 
L 130.614844 75.510938 
L 110.614844 75.510938 
z
" style="fill: #df9c20"/>
    </g>
    <g id="text_20">
     <!-- D -->
     <g transform="translate(138.614844 82.510938) scale(0.1 -0.1)">
      <use xlink:href="#DejaVuSans-44"/>
     </g>
    </g>
   </g>
  </g>
  <g id="axes_2">
   <g id="patch_48">
    <path d="M 676.163125 530.44 
L 1281.233125 530.44 
L 1281.233125 7.2 
L 676.163125 7.2 
z
" style="fill: #ffffff"/>
   </g>
   <g id="patch_49">
    <path d="M 683.7265 530.44 
L 698.85325 530.44 
L 698.85325 251.361009 
L 683.7265 251.361009 
z
" clip-path="url(#p6dcfe4e4ce)" style="fill: #0c3b50"/>
   </g>
   <g id="patch_50">
    <path d="M 759.36025 530.44 
L 774.487 530.44 
L 774.487 250.352552 
L 759.36025 250.352552 
z
" clip-path="url(#p6dcfe4e4ce)" style="fill: #0c3b50"/>
   </g>
   <g id="patch_51">
    <path d="M 834.994 530.44 
L 850.12075 530.44 
L 850.12075 246.674687 
L 834.994 246.674687 
z
" clip-path="url(#p6dcfe4e4ce)" style="fill: #0c3b50"/>
   </g>
   <g id="patch_52">
    <path d="M 910.62775 530.44 
L 925.7545 530.44 
L 925.7545 247.431844 
L 910.62775 247.431844 
z
" clip-path="url(#p6dcfe4e4ce)" style="fill: #0c3b50"/>
   </g>
   <g id="patch_53">
    <path d="M 986.2615 530.44 
L 1001.38825 530.44 
L 1001.38825 239.580607 
L 986.2615 239.580607 
z
" clip-path="url(#p6dcfe4e4ce)" style="fill: #0c3b50"/>
   </g>
   <g id="patch_54">
    <path d="M 1061.89525 530.44 
L 1077.022 530.44 
L 1077.022 241.484233 
L 1061.89525 241.484233 
z
" clip-path="url(#p6dcfe4e4ce)" style="fill: #0c3b50"/>
   </g>
   <g id="patch_55">
    <path d="M 1137.529 530.44 
L 1152.65575 530.44 
L 1152.65575 240.713659 
L 1137.529 240.713659 
z
" clip-path="url(#p6dcfe4e4ce)" style="fill: #0c3b50"/>
   </g>
   <g id="patch_56">
    <path d="M 1213.16275 530.44 
L 1228.2895 530.44 
L 1228.2895 235.314651 
L 1213.16275 235.314651 
z
" clip-path="url(#p6dcfe4e4ce)" style="fill: #0c3b50"/>
   </g>
   <g id="patch_57">
    <path d="M 698.85325 530.44 
L 713.98 530.44 
L 713.98 252.464157 
L 698.85325 252.464157 
z
" clip-path="url(#p6dcfe4e4ce)" style="fill: #785a8c"/>
   </g>
   <g id="patch_58">
    <path d="M 774.487 530.44 
L 789.61375 530.44 
L 789.61375 251.06428 
L 774.487 251.06428 
z
" clip-path="url(#p6dcfe4e4ce)" style="fill: #785a8c"/>
   </g>
   <g id="patch_59">
    <path d="M 850.12075 530.44 
L 865.2475 530.44 
L 865.2475 108.246295 
L 850.12075 108.246295 
z
" clip-path="url(#p6dcfe4e4ce)" style="fill: #785a8c"/>
   </g>
   <g id="patch_60">
    <path d="M 925.7545 530.44 
L 940.88125 530.44 
L 940.88125 36.927874 
L 925.7545 36.927874 
z
" clip-path="url(#p6dcfe4e4ce)" style="fill: #785a8c"/>
   </g>
   <g id="patch_61">
    <path d="M 1001.38825 530.44 
L 1016.515 530.44 
L 1016.515 34.470852 
L 1001.38825 34.470852 
z
" clip-path="url(#p6dcfe4e4ce)" style="fill: #785a8c"/>
   </g>
   <g id="patch_62">
    <path d="M 1077.022 530.44 
L 1092.14875 530.44 
L 1092.14875 105.857322 
L 1077.022 105.857322 
z
" clip-path="url(#p6dcfe4e4ce)" style="fill: #785a8c"/>
   </g>
   <g id="patch_63">
    <path d="M 1152.65575 530.44 
L 1167.7825 530.44 
L 1167.7825 44.531262 
L 1152.65575 44.531262 
z
" clip-path="url(#p6dcfe4e4ce)" style="fill: #785a8c"/>
   </g>
   <g id="patch_64">
    <path d="M 1228.2895 530.44 
L 1243.41625 530.44 
L 1243.41625 42.352184 
L 1228.2895 42.352184 
z
" clip-path="url(#p6dcfe4e4ce)" style="fill: #785a8c"/>
   </g>
   <g id="patch_65">
    <path d="M 713.98 530.44 
L 729.10675 530.44 
L 729.10675 527.937018 
L 713.98 527.937018 
z
" clip-path="url(#p6dcfe4e4ce)" style="fill: #dc6980"/>
   </g>
   <g id="patch_66">
    <path d="M 789.61375 530.44 
L 804.7405 530.44 
L 804.7405 527.78948 
L 789.61375 527.78948 
z
" clip-path="url(#p6dcfe4e4ce)" style="fill: #dc6980"/>
   </g>
   <g id="patch_67">
    <path d="M 865.2475 530.44 
L 880.37425 530.44 
L 880.37425 527.746092 
L 865.2475 527.746092 
z
" clip-path="url(#p6dcfe4e4ce)" style="fill: #dc6980"/>
   </g>
   <g id="patch_68">
    <path d="M 940.88125 530.44 
L 956.008 530.44 
L 956.008 527.812928 
L 940.88125 527.812928 
z
" clip-path="url(#p6dcfe4e4ce)" style="fill: #dc6980"/>
   </g>
   <g id="patch_69">
    <path d="M 1016.515 530.44 
L 1031.64175 530.44 
L 1031.64175 527.861289 
L 1016.515 527.861289 
z
" clip-path="url(#p6dcfe4e4ce)" style="fill: #dc6980"/>
   </g>
   <g id="patch_70">
    <path d="M 1092.14875 530.44 
L 1107.2755 530.44 
L 1107.2755 527.77827 
L 1092.14875 527.77827 
z
" clip-path="url(#p6dcfe4e4ce)" style="fill: #dc6980"/>
   </g>
   <g id="patch_71">
    <path d="M 1167.7825 530.44 
L 1182.90925 530.44 
L 1182.90925 528.224586 
L 1167.7825 528.224586 
z
" clip-path="url(#p6dcfe4e4ce)" style="fill: #dc6980"/>
   </g>
   <g id="patch_72">
    <path d="M 1243.41625 530.44 
L 1258.543 530.44 
L 1258.543 528.159871 
L 1243.41625 528.159871 
z
" clip-path="url(#p6dcfe4e4ce)" style="fill: #dc6980"/>
   </g>
   <g id="patch_73">
    <path d="M 729.10675 530.44 
L 744.2335 530.44 
L 744.2335 505.400249 
L 729.10675 505.400249 
z
" clip-path="url(#p6dcfe4e4ce)" style="fill: #df9c20"/>
   </g>
   <g id="patch_74">
    <path d="M 804.7405 530.44 
L 819.86725 530.44 
L 819.86725 486.461208 
L 804.7405 486.461208 
z
" clip-path="url(#p6dcfe4e4ce)" style="fill: #df9c20"/>
   </g>
   <g id="patch_75">
    <path d="M 880.37425 530.44 
L 895.501 530.44 
L 895.501 443.954865 
L 880.37425 443.954865 
z
" clip-path="url(#p6dcfe4e4ce)" style="fill: #df9c20"/>
   </g>
   <g id="patch_76">
    <path d="M 956.008 530.44 
L 971.13475 530.44 
L 971.13475 444.147126 
L 956.008 444.147126 
z
" clip-path="url(#p6dcfe4e4ce)" style="fill: #df9c20"/>
   </g>
   <g id="patch_77">
    <path d="M 1031.64175 530.44 
L 1046.7685 530.44 
L 1046.7685 394.326208 
L 1031.64175 394.326208 
z
" clip-path="url(#p6dcfe4e4ce)" style="fill: #df9c20"/>
   </g>
   <g id="patch_78">
    <path d="M 1107.2755 530.44 
L 1122.40225 530.44 
L 1122.40225 397.2496 
L 1107.2755 397.2496 
z
" clip-path="url(#p6dcfe4e4ce)" style="fill: #df9c20"/>
   </g>
   <g id="patch_79">
    <path d="M 1182.90925 530.44 
L 1198.036 530.44 
L 1198.036 397.18596 
L 1182.90925 397.18596 
z
" clip-path="url(#p6dcfe4e4ce)" style="fill: #df9c20"/>
   </g>
   <g id="patch_80">
    <path d="M 1258.543 530.44 
L 1273.66975 530.44 
L 1273.66975 347.570145 
L 1258.543 347.570145 
z
" clip-path="url(#p6dcfe4e4ce)" style="fill: #df9c20"/>
   </g>
   <g id="patch_81">
    <path d="M 713.98 530.44 
L 713.98 530.44 
L 713.98 530.44 
L 713.98 530.44 
z
" clip-path="url(#p6dcfe4e4ce)" style="fill: #0c3b50"/>
   </g>
   <g id="patch_82">
    <path d="M 713.98 530.44 
L 713.98 530.44 
L 713.98 530.44 
L 713.98 530.44 
z
" clip-path="url(#p6dcfe4e4ce)" style="fill: #785a8c"/>
   </g>
   <g id="patch_83">
    <path d="M 713.98 530.44 
L 713.98 530.44 
L 713.98 530.44 
L 713.98 530.44 
z
" clip-path="url(#p6dcfe4e4ce)" style="fill: #dc6980"/>
   </g>
   <g id="patch_84">
    <path d="M 713.98 530.44 
L 713.98 530.44 
L 713.98 530.44 
L 713.98 530.44 
z
" clip-path="url(#p6dcfe4e4ce)" style="fill: #df9c20"/>
   </g>
   <g id="matplotlib.axis_3">
    <g id="xtick_9">
     <g id="line2d_46">
      <g>
       <use xlink:href="#m7f273af6a3" x="713.98" y="530.44" style="stroke: #000000; stroke-width: 0.8"/>
      </g>
     </g>
     <g id="text_21">
      <!-- 1 -->
      <g transform="translate(710.79875 545.038437) scale(0.1 -0.1)">
       <use xlink:href="#DejaVuSans-31"/>
      </g>
     </g>
    </g>
    <g id="xtick_10">
     <g id="line2d_47">
      <g>
       <use xlink:href="#m7f273af6a3" x="789.61375" y="530.44" style="stroke: #000000; stroke-width: 0.8"/>
      </g>
     </g>
     <g id="text_22">
      <!-- 2 -->
      <g transform="translate(786.4325 545.038437) scale(0.1 -0.1)">
       <use xlink:href="#DejaVuSans-32"/>
      </g>
     </g>
    </g>
    <g id="xtick_11">
     <g id="line2d_48">
      <g>
       <use xlink:href="#m7f273af6a3" x="865.2475" y="530.44" style="stroke: #000000; stroke-width: 0.8"/>
      </g>
     </g>
     <g id="text_23">
      <!-- 3 -->
      <g transform="translate(862.06625 545.038437) scale(0.1 -0.1)">
       <use xlink:href="#DejaVuSans-33"/>
      </g>
     </g>
    </g>
    <g id="xtick_12">
     <g id="line2d_49">
      <g>
       <use xlink:href="#m7f273af6a3" x="940.88125" y="530.44" style="stroke: #000000; stroke-width: 0.8"/>
      </g>
     </g>
     <g id="text_24">
      <!-- 4 -->
      <g transform="translate(937.7 545.038437) scale(0.1 -0.1)">
       <use xlink:href="#DejaVuSans-34"/>
      </g>
     </g>
    </g>
    <g id="xtick_13">
     <g id="line2d_50">
      <g>
       <use xlink:href="#m7f273af6a3" x="1016.515" y="530.44" style="stroke: #000000; stroke-width: 0.8"/>
      </g>
     </g>
     <g id="text_25">
      <!-- 5 -->
      <g transform="translate(1013.33375 545.038437) scale(0.1 -0.1)">
       <use xlink:href="#DejaVuSans-35"/>
      </g>
     </g>
    </g>
    <g id="xtick_14">
     <g id="line2d_51">
      <g>
       <use xlink:href="#m7f273af6a3" x="1092.14875" y="530.44" style="stroke: #000000; stroke-width: 0.8"/>
      </g>
     </g>
     <g id="text_26">
      <!-- 6 -->
      <g transform="translate(1088.9675 545.038437) scale(0.1 -0.1)">
       <use xlink:href="#DejaVuSans-36"/>
      </g>
     </g>
    </g>
    <g id="xtick_15">
     <g id="line2d_52">
      <g>
       <use xlink:href="#m7f273af6a3" x="1167.7825" y="530.44" style="stroke: #000000; stroke-width: 0.8"/>
      </g>
     </g>
     <g id="text_27">
      <!-- 7 -->
      <g transform="translate(1164.60125 545.038437) scale(0.1 -0.1)">
       <use xlink:href="#DejaVuSans-37"/>
      </g>
     </g>
    </g>
    <g id="xtick_16">
     <g id="line2d_53">
      <g>
       <use xlink:href="#m7f273af6a3" x="1243.41625" y="530.44" style="stroke: #000000; stroke-width: 0.8"/>
      </g>
     </g>
     <g id="text_28">
      <!-- 8 -->
      <g transform="translate(1240.235 545.038437) scale(0.1 -0.1)">
       <use xlink:href="#DejaVuSans-38"/>
      </g>
     </g>
    </g>
    <g id="text_29">
     <!-- Distance beetwen AP and STAs [m] -->
     <g transform="translate(890.78875 558.716562) scale(0.1 -0.1)">
      <use xlink:href="#DejaVuSans-44"/>
      <use xlink:href="#DejaVuSans-69" x="77.001953"/>
      <use xlink:href="#DejaVuSans-73" x="104.785156"/>
      <use xlink:href="#DejaVuSans-74" x="156.884766"/>
      <use xlink:href="#DejaVuSans-61" x="196.09375"/>
      <use xlink:href="#DejaVuSans-6e" x="257.373047"/>
      <use xlink:href="#DejaVuSans-63" x="320.751953"/>
      <use xlink:href="#DejaVuSans-65" x="375.732422"/>
      <use xlink:href="#DejaVuSans-20" x="437.255859"/>
      <use xlink:href="#DejaVuSans-62" x="469.042969"/>
      <use xlink:href="#DejaVuSans-65" x="532.519531"/>
      <use xlink:href="#DejaVuSans-65" x="594.042969"/>
      <use xlink:href="#DejaVuSans-74" x="655.566406"/>
      <use xlink:href="#DejaVuSans-77" x="694.775391"/>
      <use xlink:href="#DejaVuSans-65" x="776.5625"/>
      <use xlink:href="#DejaVuSans-6e" x="838.085938"/>
      <use xlink:href="#DejaVuSans-20" x="901.464844"/>
      <use xlink:href="#DejaVuSans-41" x="933.251953"/>
      <use xlink:href="#DejaVuSans-50" x="1001.660156"/>
      <use xlink:href="#DejaVuSans-20" x="1061.962891"/>
      <use xlink:href="#DejaVuSans-61" x="1093.75"/>
      <use xlink:href="#DejaVuSans-6e" x="1155.029297"/>
      <use xlink:href="#DejaVuSans-64" x="1218.408203"/>
      <use xlink:href="#DejaVuSans-20" x="1281.884766"/>
      <use xlink:href="#DejaVuSans-53" x="1313.671875"/>
      <use xlink:href="#DejaVuSans-54" x="1377.148438"/>
      <use xlink:href="#DejaVuSans-41" x="1430.482422"/>
      <use xlink:href="#DejaVuSans-73" x="1498.890625"/>
      <use xlink:href="#DejaVuSans-20" x="1550.990234"/>
      <use xlink:href="#DejaVuSans-5b" x="1582.777344"/>
      <use xlink:href="#DejaVuSans-6d" x="1621.791016"/>
      <use xlink:href="#DejaVuSans-5d" x="1719.203125"/>
     </g>
    </g>
   </g>
   <g id="matplotlib.axis_4">
    <g id="ytick_6">
     <g id="line2d_54">
      <g>
       <use xlink:href="#mcfabd952bf" x="676.163125" y="530.44" style="stroke: #000000; stroke-width: 0.8"/>
      </g>
     </g>
     <g id="text_30">
      <!-- 0 -->
      <g transform="translate(662.800625 534.239219) scale(0.1 -0.1)">
       <use xlink:href="#DejaVuSans-30"/>
      </g>
     </g>
    </g>
    <g id="ytick_7">
     <g id="line2d_55">
      <g>
       <use xlink:href="#mcfabd952bf" x="676.163125" y="415.428839" style="stroke: #000000; stroke-width: 0.8"/>
      </g>
     </g>
     <g id="text_31">
      <!-- 20 -->
      <g transform="translate(656.438125 419.228058) scale(0.1 -0.1)">
       <use xlink:href="#DejaVuSans-32"/>
       <use xlink:href="#DejaVuSans-30" x="63.623047"/>
      </g>
     </g>
    </g>
    <g id="ytick_8">
     <g id="line2d_56">
      <g>
       <use xlink:href="#mcfabd952bf" x="676.163125" y="300.417678" style="stroke: #000000; stroke-width: 0.8"/>
      </g>
     </g>
     <g id="text_32">
      <!-- 40 -->
      <g transform="translate(656.438125 304.216896) scale(0.1 -0.1)">
       <use xlink:href="#DejaVuSans-34"/>
       <use xlink:href="#DejaVuSans-30" x="63.623047"/>
      </g>
     </g>
    </g>
    <g id="ytick_9">
     <g id="line2d_57">
      <g>
       <use xlink:href="#mcfabd952bf" x="676.163125" y="185.406516" style="stroke: #000000; stroke-width: 0.8"/>
      </g>
     </g>
     <g id="text_33">
      <!-- 60 -->
      <g transform="translate(656.438125 189.205735) scale(0.1 -0.1)">
       <use xlink:href="#DejaVuSans-36"/>
       <use xlink:href="#DejaVuSans-30" x="63.623047"/>
      </g>
     </g>
    </g>
    <g id="ytick_10">
     <g id="line2d_58">
      <g>
       <use xlink:href="#mcfabd952bf" x="676.163125" y="70.395355" style="stroke: #000000; stroke-width: 0.8"/>
      </g>
     </g>
     <g id="text_34">
      <!-- 80 -->
      <g transform="translate(656.438125 74.194574) scale(0.1 -0.1)">
       <use xlink:href="#DejaVuSans-38"/>
       <use xlink:href="#DejaVuSans-30" x="63.623047"/>
      </g>
     </g>
    </g>
   </g>
   <g id="line2d_59">
    <path d="M 691.289875 251.638569 
L 691.289875 251.03361 
" clip-path="url(#p6dcfe4e4ce)" style="fill: none; stroke: #424242; stroke-width: 2.25; stroke-linecap: square"/>
   </g>
   <g id="line2d_60">
    <path d="M 766.923625 250.835791 
L 766.923625 249.974932 
" clip-path="url(#p6dcfe4e4ce)" style="fill: none; stroke: #424242; stroke-width: 2.25; stroke-linecap: square"/>
   </g>
   <g id="line2d_61">
    <path d="M 842.557375 247.845501 
L 842.557375 245.804628 
" clip-path="url(#p6dcfe4e4ce)" style="fill: none; stroke: #424242; stroke-width: 2.25; stroke-linecap: square"/>
   </g>
   <g id="line2d_62">
    <path d="M 918.191125 248.20261 
L 918.191125 246.820751 
" clip-path="url(#p6dcfe4e4ce)" style="fill: none; stroke: #424242; stroke-width: 2.25; stroke-linecap: square"/>
   </g>
   <g id="line2d_63">
    <path d="M 993.824875 240.615324 
L 993.824875 238.227117 
" clip-path="url(#p6dcfe4e4ce)" style="fill: none; stroke: #424242; stroke-width: 2.25; stroke-linecap: square"/>
   </g>
   <g id="line2d_64">
    <path d="M 1069.458625 241.572792 
L 1069.458625 241.415227 
" clip-path="url(#p6dcfe4e4ce)" style="fill: none; stroke: #424242; stroke-width: 2.25; stroke-linecap: square"/>
   </g>
   <g id="line2d_65">
    <path d="M 1145.092375 241.635473 
L 1145.092375 240.101224 
" clip-path="url(#p6dcfe4e4ce)" style="fill: none; stroke: #424242; stroke-width: 2.25; stroke-linecap: square"/>
   </g>
   <g id="line2d_66">
    <path d="M 1220.726125 236.045931 
L 1220.726125 234.819528 
" clip-path="url(#p6dcfe4e4ce)" style="fill: none; stroke: #424242; stroke-width: 2.25; stroke-linecap: square"/>
   </g>
   <g id="line2d_67">
    <path d="M 706.416625 253.018703 
L 706.416625 251.551735 
" clip-path="url(#p6dcfe4e4ce)" style="fill: none; stroke: #424242; stroke-width: 2.25; stroke-linecap: square"/>
   </g>
   <g id="line2d_68">
    <path d="M 782.050375 251.478703 
L 782.050375 250.344118 
" clip-path="url(#p6dcfe4e4ce)" style="fill: none; stroke: #424242; stroke-width: 2.25; stroke-linecap: square"/>
   </g>
   <g id="line2d_69">
    <path d="M 857.684125 108.332362 
L 857.684125 108.124767 
" clip-path="url(#p6dcfe4e4ce)" style="fill: none; stroke: #424242; stroke-width: 2.25; stroke-linecap: square"/>
   </g>
   <g id="line2d_70">
    <path d="M 933.317875 37.033493 
L 933.317875 36.873052 
" clip-path="url(#p6dcfe4e4ce)" style="fill: none; stroke: #424242; stroke-width: 2.25; stroke-linecap: square"/>
   </g>
   <g id="line2d_71">
    <path d="M 1008.951625 34.677489 
L 1008.951625 34.142687 
" clip-path="url(#p6dcfe4e4ce)" style="fill: none; stroke: #424242; stroke-width: 2.25; stroke-linecap: square"/>
   </g>
   <g id="line2d_72">
    <path d="M 1084.585375 106.228233 
L 1084.585375 105.286291 
" clip-path="url(#p6dcfe4e4ce)" style="fill: none; stroke: #424242; stroke-width: 2.25; stroke-linecap: square"/>
   </g>
   <g id="line2d_73">
    <path d="M 1160.219125 44.715663 
L 1160.219125 44.248143 
" clip-path="url(#p6dcfe4e4ce)" style="fill: none; stroke: #424242; stroke-width: 2.25; stroke-linecap: square"/>
   </g>
   <g id="line2d_74">
    <path d="M 1235.852875 42.546553 
L 1235.852875 42.174492 
" clip-path="url(#p6dcfe4e4ce)" style="fill: none; stroke: #424242; stroke-width: 2.25; stroke-linecap: square"/>
   </g>
   <g id="line2d_75">
    <path d="M 721.543375 527.951112 
L 721.543375 527.925011 
" clip-path="url(#p6dcfe4e4ce)" style="fill: none; stroke: #424242; stroke-width: 2.25; stroke-linecap: square"/>
   </g>
   <g id="line2d_76">
    <path d="M 797.177125 527.834978 
L 797.177125 527.715271 
" clip-path="url(#p6dcfe4e4ce)" style="fill: none; stroke: #424242; stroke-width: 2.25; stroke-linecap: square"/>
   </g>
   <g id="line2d_77">
    <path d="M 872.810875 527.804985 
L 872.810875 527.692153 
" clip-path="url(#p6dcfe4e4ce)" style="fill: none; stroke: #424242; stroke-width: 2.25; stroke-linecap: square"/>
   </g>
   <g id="line2d_78">
    <path d="M 948.444625 527.864601 
L 948.444625 527.753311 
" clip-path="url(#p6dcfe4e4ce)" style="fill: none; stroke: #424242; stroke-width: 2.25; stroke-linecap: square"/>
   </g>
   <g id="line2d_79">
    <path d="M 1024.078375 527.885372 
L 1024.078375 527.846613 
" clip-path="url(#p6dcfe4e4ce)" style="fill: none; stroke: #424242; stroke-width: 2.25; stroke-linecap: square"/>
   </g>
   <g id="line2d_80">
    <path d="M 1099.712125 527.812248 
L 1099.712125 527.743805 
" clip-path="url(#p6dcfe4e4ce)" style="fill: none; stroke: #424242; stroke-width: 2.25; stroke-linecap: square"/>
   </g>
   <g id="line2d_81">
    <path d="M 1175.345875 528.298699 
L 1175.345875 528.107148 
" clip-path="url(#p6dcfe4e4ce)" style="fill: none; stroke: #424242; stroke-width: 2.25; stroke-linecap: square"/>
   </g>
   <g id="line2d_82">
    <path d="M 1250.979625 528.235138 
L 1250.979625 528.064168 
" clip-path="url(#p6dcfe4e4ce)" style="fill: none; stroke: #424242; stroke-width: 2.25; stroke-linecap: square"/>
   </g>
   <g id="line2d_83">
    <path d="M 736.670125 505.478553 
L 736.670125 505.329786 
" clip-path="url(#p6dcfe4e4ce)" style="fill: none; stroke: #424242; stroke-width: 2.25; stroke-linecap: square"/>
   </g>
   <g id="line2d_84">
    <path d="M 812.303875 486.54047 
L 812.303875 486.395441 
" clip-path="url(#p6dcfe4e4ce)" style="fill: none; stroke: #424242; stroke-width: 2.25; stroke-linecap: square"/>
   </g>
   <g id="line2d_85">
    <path d="M 887.937625 444.072369 
L 887.937625 443.854422 
" clip-path="url(#p6dcfe4e4ce)" style="fill: none; stroke: #424242; stroke-width: 2.25; stroke-linecap: square"/>
   </g>
   <g id="line2d_86">
    <path d="M 963.571375 444.547365 
L 963.571375 443.869374 
" clip-path="url(#p6dcfe4e4ce)" style="fill: none; stroke: #424242; stroke-width: 2.25; stroke-linecap: square"/>
   </g>
   <g id="line2d_87">
    <path d="M 1039.205125 394.62332 
L 1039.205125 393.880923 
" clip-path="url(#p6dcfe4e4ce)" style="fill: none; stroke: #424242; stroke-width: 2.25; stroke-linecap: square"/>
   </g>
   <g id="line2d_88">
    <path d="M 1114.838875 397.655589 
L 1114.838875 396.988524 
" clip-path="url(#p6dcfe4e4ce)" style="fill: none; stroke: #424242; stroke-width: 2.25; stroke-linecap: square"/>
   </g>
   <g id="line2d_89">
    <path d="M 1190.472625 397.204745 
L 1190.472625 397.175992 
" clip-path="url(#p6dcfe4e4ce)" style="fill: none; stroke: #424242; stroke-width: 2.25; stroke-linecap: square"/>
   </g>
   <g id="line2d_90">
    <path d="M 1266.106375 347.702216 
L 1266.106375 347.477945 
" clip-path="url(#p6dcfe4e4ce)" style="fill: none; stroke: #424242; stroke-width: 2.25; stroke-linecap: square"/>
   </g>
   <g id="patch_85">
    <path d="M 676.163125 530.44 
L 676.163125 7.2 
" style="fill: none; stroke: #000000; stroke-width: 0.8; stroke-linejoin: miter; stroke-linecap: square"/>
   </g>
   <g id="patch_86">
    <path d="M 1281.233125 530.44 
L 1281.233125 7.2 
" style="fill: none; stroke: #000000; stroke-width: 0.8; stroke-linejoin: miter; stroke-linecap: square"/>
   </g>
   <g id="patch_87">
    <path d="M 676.163125 530.44 
L 1281.233125 530.44 
" style="fill: none; stroke: #000000; stroke-width: 0.8; stroke-linejoin: miter; stroke-linecap: square"/>
   </g>
   <g id="patch_88">
    <path d="M 676.163125 7.2 
L 1281.233125 7.2 
" style="fill: none; stroke: #000000; stroke-width: 0.8; stroke-linejoin: miter; stroke-linecap: square"/>
   </g>
   <g id="legend_2">
    <g id="patch_89">
     <path d="M 683.163125 88.590625 
L 844.886563 88.590625 
Q 846.886563 88.590625 846.886563 86.590625 
L 846.886563 14.2 
Q 846.886563 12.2 844.886563 12.2 
L 683.163125 12.2 
Q 681.163125 12.2 681.163125 14.2 
L 681.163125 86.590625 
Q 681.163125 88.590625 683.163125 88.590625 
z
" style="fill: #ffffff; opacity: 0.8; stroke: #cccccc; stroke-linejoin: miter"/>
    </g>
    <g id="text_35">
     <!-- Firts BSS devices configuration: -->
     <g transform="translate(685.163125 23.798437) scale(0.1 -0.1)">
      <use xlink:href="#DejaVuSans-46"/>
      <use xlink:href="#DejaVuSans-69" x="50.269531"/>
      <use xlink:href="#DejaVuSans-72" x="78.052734"/>
      <use xlink:href="#DejaVuSans-74" x="119.166016"/>
      <use xlink:href="#DejaVuSans-73" x="158.375"/>
      <use xlink:href="#DejaVuSans-20" x="210.474609"/>
      <use xlink:href="#DejaVuSans-42" x="242.261719"/>
      <use xlink:href="#DejaVuSans-53" x="309.115234"/>
      <use xlink:href="#DejaVuSans-53" x="372.591797"/>
      <use xlink:href="#DejaVuSans-20" x="436.068359"/>
      <use xlink:href="#DejaVuSans-64" x="467.855469"/>
      <use xlink:href="#DejaVuSans-65" x="531.332031"/>
      <use xlink:href="#DejaVuSans-76" x="592.855469"/>
      <use xlink:href="#DejaVuSans-69" x="652.035156"/>
      <use xlink:href="#DejaVuSans-63" x="679.818359"/>
      <use xlink:href="#DejaVuSans-65" x="734.798828"/>
      <use xlink:href="#DejaVuSans-73" x="796.322266"/>
      <use xlink:href="#DejaVuSans-20" x="848.421875"/>
      <use xlink:href="#DejaVuSans-63" x="880.208984"/>
      <use xlink:href="#DejaVuSans-6f" x="935.189453"/>
      <use xlink:href="#DejaVuSans-6e" x="996.371094"/>
      <use xlink:href="#DejaVuSans-66" x="1059.75"/>
      <use xlink:href="#DejaVuSans-69" x="1094.955078"/>
      <use xlink:href="#DejaVuSans-67" x="1122.738281"/>
      <use xlink:href="#DejaVuSans-75" x="1186.214844"/>
      <use xlink:href="#DejaVuSans-72" x="1249.59375"/>
      <use xlink:href="#DejaVuSans-61" x="1290.707031"/>
      <use xlink:href="#DejaVuSans-74" x="1351.986328"/>
      <use xlink:href="#DejaVuSans-69" x="1391.195312"/>
      <use xlink:href="#DejaVuSans-6f" x="1418.978516"/>
      <use xlink:href="#DejaVuSans-6e" x="1480.160156"/>
      <use xlink:href="#DejaVuSans-3a" x="1543.539062"/>
     </g>
    </g>
    <g id="patch_90">
     <path d="M 746.174844 38.476562 
L 766.174844 38.476562 
L 766.174844 31.476562 
L 746.174844 31.476562 
z
" style="fill: #0c3b50"/>
    </g>
    <g id="text_36">
     <!-- A -->
     <g transform="translate(774.174844 38.476562) scale(0.1 -0.1)">
      <use xlink:href="#DejaVuSans-41"/>
     </g>
    </g>
    <g id="patch_91">
     <path d="M 746.174844 53.154688 
L 766.174844 53.154688 
L 766.174844 46.154688 
L 746.174844 46.154688 
z
" style="fill: #785a8c"/>
    </g>
    <g id="text_37">
     <!-- B -->
     <g transform="translate(774.174844 53.154688) scale(0.1 -0.1)">
      <use xlink:href="#DejaVuSans-42"/>
     </g>
    </g>
    <g id="patch_92">
     <path d="M 746.174844 67.832812 
L 766.174844 67.832812 
L 766.174844 60.832812 
L 746.174844 60.832812 
z
" style="fill: #dc6980"/>
    </g>
    <g id="text_38">
     <!-- C -->
     <g transform="translate(774.174844 67.832812) scale(0.1 -0.1)">
      <use xlink:href="#DejaVuSans-43"/>
     </g>
    </g>
    <g id="patch_93">
     <path d="M 746.174844 82.510938 
L 766.174844 82.510938 
L 766.174844 75.510938 
L 746.174844 75.510938 
z
" style="fill: #df9c20"/>
    </g>
    <g id="text_39">
     <!-- D -->
     <g transform="translate(774.174844 82.510938) scale(0.1 -0.1)">
      <use xlink:href="#DejaVuSans-44"/>
     </g>
    </g>
   </g>
  </g>
 </g>
 <defs>
  <clipPath id="p229d4c44ae">
   <rect x="40.603125" y="7.2" width="605.07" height="523.24"/>
  </clipPath>
  <clipPath id="p6dcfe4e4ce">
   <rect x="676.163125" y="7.2" width="605.07" height="523.24"/>
  </clipPath>
 </defs>
</svg>
