<?xml version="1.0" encoding="utf-8" standalone="no"?>
<!DOCTYPE svg PUBLIC "-//W3C//DTD SVG 1.1//EN"
  "http://www.w3.org/Graphics/SVG/1.1/DTD/svg11.dtd">
<svg xmlns:xlink="http://www.w3.org/1999/xlink" width="1288.495625pt" height="567.99625pt" viewBox="0 0 1288.495625 567.99625" xmlns="http://www.w3.org/2000/svg" version="1.1">
 <metadata>
  <rdf:RDF xmlns:dc="http://purl.org/dc/elements/1.1/" xmlns:cc="http://creativecommons.org/ns#" xmlns:rdf="http://www.w3.org/1999/02/22-rdf-syntax-ns#">
   <cc:Work>
    <dc:type rdf:resource="http://purl.org/dc/dcmitype/StillImage"/>
    <dc:date>2025-06-10T18:15:25.162390</dc:date>
    <dc:format>image/svg+xml</dc:format>
    <dc:creator>
     <cc:Agent>
      <dc:title>Matplotlib v3.9.2, https://matplotlib.org/</dc:title>
     </cc:Agent>
    </dc:creator>
   </cc:Work>
  </rdf:RDF>
 </metadata>
 <defs>
  <style type="text/css">*{stroke-linejoin: round; stroke-linecap: butt}</style>
 </defs>
 <g id="figure_1">
  <g id="patch_1">
   <path d="M 0 567.99625 
L 1288.495625 567.99625 
L 1288.495625 0 
L 0 0 
z
" style="fill: #ffffff"/>
  </g>
  <g id="axes_1">
   <g id="patch_2">
    <path d="M 46.965625 530.44 
L 638.695625 530.44 
L 638.695625 7.2 
L 46.965625 7.2 
z
" style="fill: #ffffff"/>
   </g>
   <g id="patch_3">
    <path d="M 54.36225 530.44 
L 69.1555 530.44 
L 69.1555 491.024186 
L 54.36225 491.024186 
z
" clip-path="url(#p7ff794b85a)" style="fill: #0c3b50"/>
   </g>
   <g id="patch_4">
    <path d="M 128.3285 530.44 
L 143.12175 530.44 
L 143.12175 456.752033 
L 128.3285 456.752033 
z
" clip-path="url(#p7ff794b85a)" style="fill: #0c3b50"/>
   </g>
   <g id="patch_5">
    <path d="M 202.29475 530.44 
L 217.088 530.44 
L 217.088 491.553465 
L 202.29475 491.553465 
z
" clip-path="url(#p7ff794b85a)" style="fill: #0c3b50"/>
   </g>
   <g id="patch_6">
    <path d="M 276.261 530.44 
L 291.05425 530.44 
L 291.05425 491.518108 
L 276.261 491.518108 
z
" clip-path="url(#p7ff794b85a)" style="fill: #0c3b50"/>
   </g>
   <g id="patch_7">
    <path d="M 350.22725 530.44 
L 365.0205 530.44 
L 365.0205 492.859008 
L 350.22725 492.859008 
z
" clip-path="url(#p7ff794b85a)" style="fill: #0c3b50"/>
   </g>
   <g id="patch_8">
    <path d="M 424.1935 530.44 
L 438.98675 530.44 
L 438.98675 458.391114 
L 424.1935 458.391114 
z
" clip-path="url(#p7ff794b85a)" style="fill: #0c3b50"/>
   </g>
   <g id="patch_9">
    <path d="M 498.15975 530.44 
L 512.953 530.44 
L 512.953 458.596358 
L 498.15975 458.596358 
z
" clip-path="url(#p7ff794b85a)" style="fill: #0c3b50"/>
   </g>
   <g id="patch_10">
    <path d="M 572.126 530.44 
L 586.91925 530.44 
L 586.91925 459.955192 
L 572.126 459.955192 
z
" clip-path="url(#p7ff794b85a)" style="fill: #0c3b50"/>
   </g>
   <g id="patch_11">
    <path d="M 69.1555 530.44 
L 83.94875 530.44 
L 83.94875 490.920723 
L 69.1555 490.920723 
z
" clip-path="url(#p7ff794b85a)" style="fill: #785a8c"/>
   </g>
   <g id="patch_12">
    <path d="M 143.12175 530.44 
L 157.915 530.44 
L 157.915 456.895068 
L 143.12175 456.895068 
z
" clip-path="url(#p7ff794b85a)" style="fill: #785a8c"/>
   </g>
   <g id="patch_13">
    <path d="M 217.088 530.44 
L 231.88125 530.44 
L 231.88125 491.56058 
L 217.088 491.56058 
z
" clip-path="url(#p7ff794b85a)" style="fill: #785a8c"/>
   </g>
   <g id="patch_14">
    <path d="M 291.05425 530.44 
L 305.8475 530.44 
L 305.8475 491.558387 
L 291.05425 491.558387 
z
" clip-path="url(#p7ff794b85a)" style="fill: #785a8c"/>
   </g>
   <g id="patch_15">
    <path d="M 365.0205 530.44 
L 379.81375 530.44 
L 379.81375 493.034232 
L 365.0205 493.034232 
z
" clip-path="url(#p7ff794b85a)" style="fill: #785a8c"/>
   </g>
   <g id="patch_16">
    <path d="M 438.98675 530.44 
L 453.78 530.44 
L 453.78 458.950462 
L 438.98675 458.950462 
z
" clip-path="url(#p7ff794b85a)" style="fill: #785a8c"/>
   </g>
   <g id="patch_17">
    <path d="M 512.953 530.44 
L 527.74625 530.44 
L 527.74625 458.990034 
L 512.953 458.990034 
z
" clip-path="url(#p7ff794b85a)" style="fill: #785a8c"/>
   </g>
   <g id="patch_18">
    <path d="M 586.91925 530.44 
L 601.7125 530.44 
L 601.7125 460.522655 
L 586.91925 460.522655 
z
" clip-path="url(#p7ff794b85a)" style="fill: #785a8c"/>
   </g>
   <g id="patch_19">
    <path d="M 83.94875 530.44 
L 98.742 530.44 
L 98.742 453.984169 
L 83.94875 453.984169 
z
" clip-path="url(#p7ff794b85a)" style="fill: #dc6980"/>
   </g>
   <g id="patch_20">
    <path d="M 157.915 530.44 
L 172.70825 530.44 
L 172.70825 387.776917 
L 157.915 387.776917 
z
" clip-path="url(#p7ff794b85a)" style="fill: #dc6980"/>
   </g>
   <g id="patch_21">
    <path d="M 231.88125 530.44 
L 246.6745 530.44 
L 246.6745 387.778135 
L 231.88125 387.778135 
z
" clip-path="url(#p7ff794b85a)" style="fill: #dc6980"/>
   </g>
   <g id="patch_22">
    <path d="M 305.8475 530.44 
L 320.64075 530.44 
L 320.64075 270.245624 
L 305.8475 270.245624 
z
" clip-path="url(#p7ff794b85a)" style="fill: #dc6980"/>
   </g>
   <g id="patch_23">
    <path d="M 379.81375 530.44 
L 394.607 530.44 
L 394.607 270.265606 
L 379.81375 270.265606 
z
" clip-path="url(#p7ff794b85a)" style="fill: #dc6980"/>
   </g>
   <g id="patch_24">
    <path d="M 453.78 530.44 
L 468.57325 530.44 
L 468.57325 270.264875 
L 453.78 270.264875 
z
" clip-path="url(#p7ff794b85a)" style="fill: #dc6980"/>
   </g>
   <g id="patch_25">
    <path d="M 527.74625 530.44 
L 542.5395 530.44 
L 542.5395 109.097865 
L 527.74625 109.097865 
z
" clip-path="url(#p7ff794b85a)" style="fill: #dc6980"/>
   </g>
   <g id="patch_26">
    <path d="M 601.7125 530.44 
L 616.50575 530.44 
L 616.50575 109.080321 
L 601.7125 109.080321 
z
" clip-path="url(#p7ff794b85a)" style="fill: #dc6980"/>
   </g>
   <g id="patch_27">
    <path d="M 98.742 530.44 
L 113.53525 530.44 
L 113.53525 455.615549 
L 98.742 455.615549 
z
" clip-path="url(#p7ff794b85a)" style="fill: #df9c20"/>
   </g>
   <g id="patch_28">
    <path d="M 172.70825 530.44 
L 187.5015 530.44 
L 187.5015 393.323855 
L 172.70825 393.323855 
z
" clip-path="url(#p7ff794b85a)" style="fill: #df9c20"/>
   </g>
   <g id="patch_29">
    <path d="M 246.6745 530.44 
L 261.46775 530.44 
L 261.46775 292.693374 
L 246.6745 292.693374 
z
" clip-path="url(#p7ff794b85a)" style="fill: #df9c20"/>
   </g>
   <g id="patch_30">
    <path d="M 320.64075 530.44 
L 335.434 530.44 
L 335.434 292.698004 
L 320.64075 292.698004 
z
" clip-path="url(#p7ff794b85a)" style="fill: #df9c20"/>
   </g>
   <g id="patch_31">
    <path d="M 394.607 530.44 
L 409.40025 530.44 
L 409.40025 171.151492 
L 394.607 171.151492 
z
" clip-path="url(#p7ff794b85a)" style="fill: #df9c20"/>
   </g>
   <g id="patch_32">
    <path d="M 468.57325 530.44 
L 483.3665 530.44 
L 483.3665 163.839154 
L 468.57325 163.839154 
z
" clip-path="url(#p7ff794b85a)" style="fill: #df9c20"/>
   </g>
   <g id="patch_33">
    <path d="M 542.5395 530.44 
L 557.33275 530.44 
L 557.33275 164.017278 
L 542.5395 164.017278 
z
" clip-path="url(#p7ff794b85a)" style="fill: #df9c20"/>
   </g>
   <g id="patch_34">
    <path d="M 616.50575 530.44 
L 631.299 530.44 
L 631.299 32.259713 
L 616.50575 32.259713 
z
" clip-path="url(#p7ff794b85a)" style="fill: #df9c20"/>
   </g>
   <g id="patch_35">
    <path d="M 83.94875 530.44 
L 83.94875 530.44 
L 83.94875 530.44 
L 83.94875 530.44 
z
" clip-path="url(#p7ff794b85a)" style="fill: #0c3b50"/>
   </g>
   <g id="patch_36">
    <path d="M 83.94875 530.44 
L 83.94875 530.44 
L 83.94875 530.44 
L 83.94875 530.44 
z
" clip-path="url(#p7ff794b85a)" style="fill: #785a8c"/>
   </g>
   <g id="patch_37">
    <path d="M 83.94875 530.44 
L 83.94875 530.44 
L 83.94875 530.44 
L 83.94875 530.44 
z
" clip-path="url(#p7ff794b85a)" style="fill: #dc6980"/>
   </g>
   <g id="patch_38">
    <path d="M 83.94875 530.44 
L 83.94875 530.44 
L 83.94875 530.44 
L 83.94875 530.44 
z
" clip-path="url(#p7ff794b85a)" style="fill: #df9c20"/>
   </g>
   <g id="matplotlib.axis_1">
    <g id="xtick_1">
     <g id="line2d_1">
      <defs>
       <path id="m2ef32041eb" d="M 0 0 
L 0 3.5 
" style="stroke: #000000; stroke-width: 0.8"/>
      </defs>
      <g>
       <use xlink:href="#m2ef32041eb" x="83.94875" y="530.44" style="stroke: #000000; stroke-width: 0.8"/>
      </g>
     </g>
     <g id="text_1">
      <!-- 1 -->
      <g transform="translate(80.7675 545.038437) scale(0.1 -0.1)">
       <defs>
        <path id="DejaVuSans-31" d="M 794 531 
L 1825 531 
L 1825 4091 
L 703 3866 
L 703 4441 
L 1819 4666 
L 2450 4666 
L 2450 531 
L 3481 531 
L 3481 0 
L 794 0 
L 794 531 
z
" transform="scale(0.015625)"/>
       </defs>
       <use xlink:href="#DejaVuSans-31"/>
      </g>
     </g>
    </g>
    <g id="xtick_2">
     <g id="line2d_2">
      <g>
       <use xlink:href="#m2ef32041eb" x="157.915" y="530.44" style="stroke: #000000; stroke-width: 0.8"/>
      </g>
     </g>
     <g id="text_2">
      <!-- 2 -->
      <g transform="translate(154.73375 545.038437) scale(0.1 -0.1)">
       <defs>
        <path id="DejaVuSans-32" d="M 1228 531 
L 3431 531 
L 3431 0 
L 469 0 
L 469 531 
Q 828 903 1448 1529 
Q 2069 2156 2228 2338 
Q 2531 2678 2651 2914 
Q 2772 3150 2772 3378 
Q 2772 3750 2511 3984 
Q 2250 4219 1831 4219 
Q 1534 4219 1204 4116 
Q 875 4013 500 3803 
L 500 4441 
Q 881 4594 1212 4672 
Q 1544 4750 1819 4750 
Q 2544 4750 2975 4387 
Q 3406 4025 3406 3419 
Q 3406 3131 3298 2873 
Q 3191 2616 2906 2266 
Q 2828 2175 2409 1742 
Q 1991 1309 1228 531 
z
" transform="scale(0.015625)"/>
       </defs>
       <use xlink:href="#DejaVuSans-32"/>
      </g>
     </g>
    </g>
    <g id="xtick_3">
     <g id="line2d_3">
      <g>
       <use xlink:href="#m2ef32041eb" x="231.88125" y="530.44" style="stroke: #000000; stroke-width: 0.8"/>
      </g>
     </g>
     <g id="text_3">
      <!-- 3 -->
      <g transform="translate(228.7 545.038437) scale(0.1 -0.1)">
       <defs>
        <path id="DejaVuSans-33" d="M 2597 2516 
Q 3050 2419 3304 2112 
Q 3559 1806 3559 1356 
Q 3559 666 3084 287 
Q 2609 -91 1734 -91 
Q 1441 -91 1130 -33 
Q 819 25 488 141 
L 488 750 
Q 750 597 1062 519 
Q 1375 441 1716 441 
Q 2309 441 2620 675 
Q 2931 909 2931 1356 
Q 2931 1769 2642 2001 
Q 2353 2234 1838 2234 
L 1294 2234 
L 1294 2753 
L 1863 2753 
Q 2328 2753 2575 2939 
Q 2822 3125 2822 3475 
Q 2822 3834 2567 4026 
Q 2313 4219 1838 4219 
Q 1578 4219 1281 4162 
Q 984 4106 628 3988 
L 628 4550 
Q 988 4650 1302 4700 
Q 1616 4750 1894 4750 
Q 2613 4750 3031 4423 
Q 3450 4097 3450 3541 
Q 3450 3153 3228 2886 
Q 3006 2619 2597 2516 
z
" transform="scale(0.015625)"/>
       </defs>
       <use xlink:href="#DejaVuSans-33"/>
      </g>
     </g>
    </g>
    <g id="xtick_4">
     <g id="line2d_4">
      <g>
       <use xlink:href="#m2ef32041eb" x="305.8475" y="530.44" style="stroke: #000000; stroke-width: 0.8"/>
      </g>
     </g>
     <g id="text_4">
      <!-- 4 -->
      <g transform="translate(302.66625 545.038437) scale(0.1 -0.1)">
       <defs>
        <path id="DejaVuSans-34" d="M 2419 4116 
L 825 1625 
L 2419 1625 
L 2419 4116 
z
M 2253 4666 
L 3047 4666 
L 3047 1625 
L 3713 1625 
L 3713 1100 
L 3047 1100 
L 3047 0 
L 2419 0 
L 2419 1100 
L 313 1100 
L 313 1709 
L 2253 4666 
z
" transform="scale(0.015625)"/>
       </defs>
       <use xlink:href="#DejaVuSans-34"/>
      </g>
     </g>
    </g>
    <g id="xtick_5">
     <g id="line2d_5">
      <g>
       <use xlink:href="#m2ef32041eb" x="379.81375" y="530.44" style="stroke: #000000; stroke-width: 0.8"/>
      </g>
     </g>
     <g id="text_5">
      <!-- 5 -->
      <g transform="translate(376.6325 545.038437) scale(0.1 -0.1)">
       <defs>
        <path id="DejaVuSans-35" d="M 691 4666 
L 3169 4666 
L 3169 4134 
L 1269 4134 
L 1269 2991 
Q 1406 3038 1543 3061 
Q 1681 3084 1819 3084 
Q 2600 3084 3056 2656 
Q 3513 2228 3513 1497 
Q 3513 744 3044 326 
Q 2575 -91 1722 -91 
Q 1428 -91 1123 -41 
Q 819 9 494 109 
L 494 744 
Q 775 591 1075 516 
Q 1375 441 1709 441 
Q 2250 441 2565 725 
Q 2881 1009 2881 1497 
Q 2881 1984 2565 2268 
Q 2250 2553 1709 2553 
Q 1456 2553 1204 2497 
Q 953 2441 691 2322 
L 691 4666 
z
" transform="scale(0.015625)"/>
       </defs>
       <use xlink:href="#DejaVuSans-35"/>
      </g>
     </g>
    </g>
    <g id="xtick_6">
     <g id="line2d_6">
      <g>
       <use xlink:href="#m2ef32041eb" x="453.78" y="530.44" style="stroke: #000000; stroke-width: 0.8"/>
      </g>
     </g>
     <g id="text_6">
      <!-- 6 -->
      <g transform="translate(450.59875 545.038437) scale(0.1 -0.1)">
       <defs>
        <path id="DejaVuSans-36" d="M 2113 2584 
Q 1688 2584 1439 2293 
Q 1191 2003 1191 1497 
Q 1191 994 1439 701 
Q 1688 409 2113 409 
Q 2538 409 2786 701 
Q 3034 994 3034 1497 
Q 3034 2003 2786 2293 
Q 2538 2584 2113 2584 
z
M 3366 4563 
L 3366 3988 
Q 3128 4100 2886 4159 
Q 2644 4219 2406 4219 
Q 1781 4219 1451 3797 
Q 1122 3375 1075 2522 
Q 1259 2794 1537 2939 
Q 1816 3084 2150 3084 
Q 2853 3084 3261 2657 
Q 3669 2231 3669 1497 
Q 3669 778 3244 343 
Q 2819 -91 2113 -91 
Q 1303 -91 875 529 
Q 447 1150 447 2328 
Q 447 3434 972 4092 
Q 1497 4750 2381 4750 
Q 2619 4750 2861 4703 
Q 3103 4656 3366 4563 
z
" transform="scale(0.015625)"/>
       </defs>
       <use xlink:href="#DejaVuSans-36"/>
      </g>
     </g>
    </g>
    <g id="xtick_7">
     <g id="line2d_7">
      <g>
       <use xlink:href="#m2ef32041eb" x="527.74625" y="530.44" style="stroke: #000000; stroke-width: 0.8"/>
      </g>
     </g>
     <g id="text_7">
      <!-- 7 -->
      <g transform="translate(524.565 545.038437) scale(0.1 -0.1)">
       <defs>
        <path id="DejaVuSans-37" d="M 525 4666 
L 3525 4666 
L 3525 4397 
L 1831 0 
L 1172 0 
L 2766 4134 
L 525 4134 
L 525 4666 
z
" transform="scale(0.015625)"/>
       </defs>
       <use xlink:href="#DejaVuSans-37"/>
      </g>
     </g>
    </g>
    <g id="xtick_8">
     <g id="line2d_8">
      <g>
       <use xlink:href="#m2ef32041eb" x="601.7125" y="530.44" style="stroke: #000000; stroke-width: 0.8"/>
      </g>
     </g>
     <g id="text_8">
      <!-- 8 -->
      <g transform="translate(598.53125 545.038437) scale(0.1 -0.1)">
       <defs>
        <path id="DejaVuSans-38" d="M 2034 2216 
Q 1584 2216 1326 1975 
Q 1069 1734 1069 1313 
Q 1069 891 1326 650 
Q 1584 409 2034 409 
Q 2484 409 2743 651 
Q 3003 894 3003 1313 
Q 3003 1734 2745 1975 
Q 2488 2216 2034 2216 
z
M 1403 2484 
Q 997 2584 770 2862 
Q 544 3141 544 3541 
Q 544 4100 942 4425 
Q 1341 4750 2034 4750 
Q 2731 4750 3128 4425 
Q 3525 4100 3525 3541 
Q 3525 3141 3298 2862 
Q 3072 2584 2669 2484 
Q 3125 2378 3379 2068 
Q 3634 1759 3634 1313 
Q 3634 634 3220 271 
Q 2806 -91 2034 -91 
Q 1263 -91 848 271 
Q 434 634 434 1313 
Q 434 1759 690 2068 
Q 947 2378 1403 2484 
z
M 1172 3481 
Q 1172 3119 1398 2916 
Q 1625 2713 2034 2713 
Q 2441 2713 2670 2916 
Q 2900 3119 2900 3481 
Q 2900 3844 2670 4047 
Q 2441 4250 2034 4250 
Q 1625 4250 1398 4047 
Q 1172 3844 1172 3481 
z
" transform="scale(0.015625)"/>
       </defs>
       <use xlink:href="#DejaVuSans-38"/>
      </g>
     </g>
    </g>
    <g id="text_9">
     <!-- Distance beetwen AP and STAs [m] -->
     <g transform="translate(254.92125 558.716562) scale(0.1 -0.1)">
      <defs>
       <path id="DejaVuSans-44" d="M 1259 4147 
L 1259 519 
L 2022 519 
Q 2988 519 3436 956 
Q 3884 1394 3884 2338 
Q 3884 3275 3436 3711 
Q 2988 4147 2022 4147 
L 1259 4147 
z
M 628 4666 
L 1925 4666 
Q 3281 4666 3915 4102 
Q 4550 3538 4550 2338 
Q 4550 1131 3912 565 
Q 3275 0 1925 0 
L 628 0 
L 628 4666 
z
" transform="scale(0.015625)"/>
       <path id="DejaVuSans-69" d="M 603 3500 
L 1178 3500 
L 1178 0 
L 603 0 
L 603 3500 
z
M 603 4863 
L 1178 4863 
L 1178 4134 
L 603 4134 
L 603 4863 
z
" transform="scale(0.015625)"/>
       <path id="DejaVuSans-73" d="M 2834 3397 
L 2834 2853 
Q 2591 2978 2328 3040 
Q 2066 3103 1784 3103 
Q 1356 3103 1142 2972 
Q 928 2841 928 2578 
Q 928 2378 1081 2264 
Q 1234 2150 1697 2047 
L 1894 2003 
Q 2506 1872 2764 1633 
Q 3022 1394 3022 966 
Q 3022 478 2636 193 
Q 2250 -91 1575 -91 
Q 1294 -91 989 -36 
Q 684 19 347 128 
L 347 722 
Q 666 556 975 473 
Q 1284 391 1588 391 
Q 1994 391 2212 530 
Q 2431 669 2431 922 
Q 2431 1156 2273 1281 
Q 2116 1406 1581 1522 
L 1381 1569 
Q 847 1681 609 1914 
Q 372 2147 372 2553 
Q 372 3047 722 3315 
Q 1072 3584 1716 3584 
Q 2034 3584 2315 3537 
Q 2597 3491 2834 3397 
z
" transform="scale(0.015625)"/>
       <path id="DejaVuSans-74" d="M 1172 4494 
L 1172 3500 
L 2356 3500 
L 2356 3053 
L 1172 3053 
L 1172 1153 
Q 1172 725 1289 603 
Q 1406 481 1766 481 
L 2356 481 
L 2356 0 
L 1766 0 
Q 1100 0 847 248 
Q 594 497 594 1153 
L 594 3053 
L 172 3053 
L 172 3500 
L 594 3500 
L 594 4494 
L 1172 4494 
z
" transform="scale(0.015625)"/>
       <path id="DejaVuSans-61" d="M 2194 1759 
Q 1497 1759 1228 1600 
Q 959 1441 959 1056 
Q 959 750 1161 570 
Q 1363 391 1709 391 
Q 2188 391 2477 730 
Q 2766 1069 2766 1631 
L 2766 1759 
L 2194 1759 
z
M 3341 1997 
L 3341 0 
L 2766 0 
L 2766 531 
Q 2569 213 2275 61 
Q 1981 -91 1556 -91 
Q 1019 -91 701 211 
Q 384 513 384 1019 
Q 384 1609 779 1909 
Q 1175 2209 1959 2209 
L 2766 2209 
L 2766 2266 
Q 2766 2663 2505 2880 
Q 2244 3097 1772 3097 
Q 1472 3097 1187 3025 
Q 903 2953 641 2809 
L 641 3341 
Q 956 3463 1253 3523 
Q 1550 3584 1831 3584 
Q 2591 3584 2966 3190 
Q 3341 2797 3341 1997 
z
" transform="scale(0.015625)"/>
       <path id="DejaVuSans-6e" d="M 3513 2113 
L 3513 0 
L 2938 0 
L 2938 2094 
Q 2938 2591 2744 2837 
Q 2550 3084 2163 3084 
Q 1697 3084 1428 2787 
Q 1159 2491 1159 1978 
L 1159 0 
L 581 0 
L 581 3500 
L 1159 3500 
L 1159 2956 
Q 1366 3272 1645 3428 
Q 1925 3584 2291 3584 
Q 2894 3584 3203 3211 
Q 3513 2838 3513 2113 
z
" transform="scale(0.015625)"/>
       <path id="DejaVuSans-63" d="M 3122 3366 
L 3122 2828 
Q 2878 2963 2633 3030 
Q 2388 3097 2138 3097 
Q 1578 3097 1268 2742 
Q 959 2388 959 1747 
Q 959 1106 1268 751 
Q 1578 397 2138 397 
Q 2388 397 2633 464 
Q 2878 531 3122 666 
L 3122 134 
Q 2881 22 2623 -34 
Q 2366 -91 2075 -91 
Q 1284 -91 818 406 
Q 353 903 353 1747 
Q 353 2603 823 3093 
Q 1294 3584 2113 3584 
Q 2378 3584 2631 3529 
Q 2884 3475 3122 3366 
z
" transform="scale(0.015625)"/>
       <path id="DejaVuSans-65" d="M 3597 1894 
L 3597 1613 
L 953 1613 
Q 991 1019 1311 708 
Q 1631 397 2203 397 
Q 2534 397 2845 478 
Q 3156 559 3463 722 
L 3463 178 
Q 3153 47 2828 -22 
Q 2503 -91 2169 -91 
Q 1331 -91 842 396 
Q 353 884 353 1716 
Q 353 2575 817 3079 
Q 1281 3584 2069 3584 
Q 2775 3584 3186 3129 
Q 3597 2675 3597 1894 
z
M 3022 2063 
Q 3016 2534 2758 2815 
Q 2500 3097 2075 3097 
Q 1594 3097 1305 2825 
Q 1016 2553 972 2059 
L 3022 2063 
z
" transform="scale(0.015625)"/>
       <path id="DejaVuSans-20" transform="scale(0.015625)"/>
       <path id="DejaVuSans-62" d="M 3116 1747 
Q 3116 2381 2855 2742 
Q 2594 3103 2138 3103 
Q 1681 3103 1420 2742 
Q 1159 2381 1159 1747 
Q 1159 1113 1420 752 
Q 1681 391 2138 391 
Q 2594 391 2855 752 
Q 3116 1113 3116 1747 
z
M 1159 2969 
Q 1341 3281 1617 3432 
Q 1894 3584 2278 3584 
Q 2916 3584 3314 3078 
Q 3713 2572 3713 1747 
Q 3713 922 3314 415 
Q 2916 -91 2278 -91 
Q 1894 -91 1617 61 
Q 1341 213 1159 525 
L 1159 0 
L 581 0 
L 581 4863 
L 1159 4863 
L 1159 2969 
z
" transform="scale(0.015625)"/>
       <path id="DejaVuSans-77" d="M 269 3500 
L 844 3500 
L 1563 769 
L 2278 3500 
L 2956 3500 
L 3675 769 
L 4391 3500 
L 4966 3500 
L 4050 0 
L 3372 0 
L 2619 2869 
L 1863 0 
L 1184 0 
L 269 3500 
z
" transform="scale(0.015625)"/>
       <path id="DejaVuSans-41" d="M 2188 4044 
L 1331 1722 
L 3047 1722 
L 2188 4044 
z
M 1831 4666 
L 2547 4666 
L 4325 0 
L 3669 0 
L 3244 1197 
L 1141 1197 
L 716 0 
L 50 0 
L 1831 4666 
z
" transform="scale(0.015625)"/>
       <path id="DejaVuSans-50" d="M 1259 4147 
L 1259 2394 
L 2053 2394 
Q 2494 2394 2734 2622 
Q 2975 2850 2975 3272 
Q 2975 3691 2734 3919 
Q 2494 4147 2053 4147 
L 1259 4147 
z
M 628 4666 
L 2053 4666 
Q 2838 4666 3239 4311 
Q 3641 3956 3641 3272 
Q 3641 2581 3239 2228 
Q 2838 1875 2053 1875 
L 1259 1875 
L 1259 0 
L 628 0 
L 628 4666 
z
" transform="scale(0.015625)"/>
       <path id="DejaVuSans-64" d="M 2906 2969 
L 2906 4863 
L 3481 4863 
L 3481 0 
L 2906 0 
L 2906 525 
Q 2725 213 2448 61 
Q 2172 -91 1784 -91 
Q 1150 -91 751 415 
Q 353 922 353 1747 
Q 353 2572 751 3078 
Q 1150 3584 1784 3584 
Q 2172 3584 2448 3432 
Q 2725 3281 2906 2969 
z
M 947 1747 
Q 947 1113 1208 752 
Q 1469 391 1925 391 
Q 2381 391 2643 752 
Q 2906 1113 2906 1747 
Q 2906 2381 2643 2742 
Q 2381 3103 1925 3103 
Q 1469 3103 1208 2742 
Q 947 2381 947 1747 
z
" transform="scale(0.015625)"/>
       <path id="DejaVuSans-53" d="M 3425 4513 
L 3425 3897 
Q 3066 4069 2747 4153 
Q 2428 4238 2131 4238 
Q 1616 4238 1336 4038 
Q 1056 3838 1056 3469 
Q 1056 3159 1242 3001 
Q 1428 2844 1947 2747 
L 2328 2669 
Q 3034 2534 3370 2195 
Q 3706 1856 3706 1288 
Q 3706 609 3251 259 
Q 2797 -91 1919 -91 
Q 1588 -91 1214 -16 
Q 841 59 441 206 
L 441 856 
Q 825 641 1194 531 
Q 1563 422 1919 422 
Q 2459 422 2753 634 
Q 3047 847 3047 1241 
Q 3047 1584 2836 1778 
Q 2625 1972 2144 2069 
L 1759 2144 
Q 1053 2284 737 2584 
Q 422 2884 422 3419 
Q 422 4038 858 4394 
Q 1294 4750 2059 4750 
Q 2388 4750 2728 4690 
Q 3069 4631 3425 4513 
z
" transform="scale(0.015625)"/>
       <path id="DejaVuSans-54" d="M -19 4666 
L 3928 4666 
L 3928 4134 
L 2272 4134 
L 2272 0 
L 1638 0 
L 1638 4134 
L -19 4134 
L -19 4666 
z
" transform="scale(0.015625)"/>
       <path id="DejaVuSans-5b" d="M 550 4863 
L 1875 4863 
L 1875 4416 
L 1125 4416 
L 1125 -397 
L 1875 -397 
L 1875 -844 
L 550 -844 
L 550 4863 
z
" transform="scale(0.015625)"/>
       <path id="DejaVuSans-6d" d="M 3328 2828 
Q 3544 3216 3844 3400 
Q 4144 3584 4550 3584 
Q 5097 3584 5394 3201 
Q 5691 2819 5691 2113 
L 5691 0 
L 5113 0 
L 5113 2094 
Q 5113 2597 4934 2840 
Q 4756 3084 4391 3084 
Q 3944 3084 3684 2787 
Q 3425 2491 3425 1978 
L 3425 0 
L 2847 0 
L 2847 2094 
Q 2847 2600 2669 2842 
Q 2491 3084 2119 3084 
Q 1678 3084 1418 2786 
Q 1159 2488 1159 1978 
L 1159 0 
L 581 0 
L 581 3500 
L 1159 3500 
L 1159 2956 
Q 1356 3278 1631 3431 
Q 1906 3584 2284 3584 
Q 2666 3584 2933 3390 
Q 3200 3197 3328 2828 
z
" transform="scale(0.015625)"/>
       <path id="DejaVuSans-5d" d="M 1947 4863 
L 1947 -844 
L 622 -844 
L 622 -397 
L 1369 -397 
L 1369 4416 
L 622 4416 
L 622 4863 
L 1947 4863 
z
" transform="scale(0.015625)"/>
      </defs>
      <use xlink:href="#DejaVuSans-44"/>
      <use xlink:href="#DejaVuSans-69" x="77.001953"/>
      <use xlink:href="#DejaVuSans-73" x="104.785156"/>
      <use xlink:href="#DejaVuSans-74" x="156.884766"/>
      <use xlink:href="#DejaVuSans-61" x="196.09375"/>
      <use xlink:href="#DejaVuSans-6e" x="257.373047"/>
      <use xlink:href="#DejaVuSans-63" x="320.751953"/>
      <use xlink:href="#DejaVuSans-65" x="375.732422"/>
      <use xlink:href="#DejaVuSans-20" x="437.255859"/>
      <use xlink:href="#DejaVuSans-62" x="469.042969"/>
      <use xlink:href="#DejaVuSans-65" x="532.519531"/>
      <use xlink:href="#DejaVuSans-65" x="594.042969"/>
      <use xlink:href="#DejaVuSans-74" x="655.566406"/>
      <use xlink:href="#DejaVuSans-77" x="694.775391"/>
      <use xlink:href="#DejaVuSans-65" x="776.5625"/>
      <use xlink:href="#DejaVuSans-6e" x="838.085938"/>
      <use xlink:href="#DejaVuSans-20" x="901.464844"/>
      <use xlink:href="#DejaVuSans-41" x="933.251953"/>
      <use xlink:href="#DejaVuSans-50" x="1001.660156"/>
      <use xlink:href="#DejaVuSans-20" x="1061.962891"/>
      <use xlink:href="#DejaVuSans-61" x="1093.75"/>
      <use xlink:href="#DejaVuSans-6e" x="1155.029297"/>
      <use xlink:href="#DejaVuSans-64" x="1218.408203"/>
      <use xlink:href="#DejaVuSans-20" x="1281.884766"/>
      <use xlink:href="#DejaVuSans-53" x="1313.671875"/>
      <use xlink:href="#DejaVuSans-54" x="1377.148438"/>
      <use xlink:href="#DejaVuSans-41" x="1430.482422"/>
      <use xlink:href="#DejaVuSans-73" x="1498.890625"/>
      <use xlink:href="#DejaVuSans-20" x="1550.990234"/>
      <use xlink:href="#DejaVuSans-5b" x="1582.777344"/>
      <use xlink:href="#DejaVuSans-6d" x="1621.791016"/>
      <use xlink:href="#DejaVuSans-5d" x="1719.203125"/>
     </g>
    </g>
   </g>
   <g id="matplotlib.axis_2">
    <g id="ytick_1">
     <g id="line2d_9">
      <defs>
       <path id="mfa8716e62c" d="M 0 0 
L -3.5 0 
" style="stroke: #000000; stroke-width: 0.8"/>
      </defs>
      <g>
       <use xlink:href="#mfa8716e62c" x="46.965625" y="530.44" style="stroke: #000000; stroke-width: 0.8"/>
      </g>
     </g>
     <g id="text_10">
      <!-- 0 -->
      <g transform="translate(33.603125 534.239219) scale(0.1 -0.1)">
       <defs>
        <path id="DejaVuSans-30" d="M 2034 4250 
Q 1547 4250 1301 3770 
Q 1056 3291 1056 2328 
Q 1056 1369 1301 889 
Q 1547 409 2034 409 
Q 2525 409 2770 889 
Q 3016 1369 3016 2328 
Q 3016 3291 2770 3770 
Q 2525 4250 2034 4250 
z
M 2034 4750 
Q 2819 4750 3233 4129 
Q 3647 3509 3647 2328 
Q 3647 1150 3233 529 
Q 2819 -91 2034 -91 
Q 1250 -91 836 529 
Q 422 1150 422 2328 
Q 422 3509 836 4129 
Q 1250 4750 2034 4750 
z
" transform="scale(0.015625)"/>
       </defs>
       <use xlink:href="#DejaVuSans-30"/>
      </g>
     </g>
    </g>
    <g id="ytick_2">
     <g id="line2d_10">
      <g>
       <use xlink:href="#mfa8716e62c" x="46.965625" y="457.33855" style="stroke: #000000; stroke-width: 0.8"/>
      </g>
     </g>
     <g id="text_11">
      <!-- 100 -->
      <g transform="translate(20.878125 461.137769) scale(0.1 -0.1)">
       <use xlink:href="#DejaVuSans-31"/>
       <use xlink:href="#DejaVuSans-30" x="63.623047"/>
       <use xlink:href="#DejaVuSans-30" x="127.246094"/>
      </g>
     </g>
    </g>
    <g id="ytick_3">
     <g id="line2d_11">
      <g>
       <use xlink:href="#mfa8716e62c" x="46.965625" y="384.237101" style="stroke: #000000; stroke-width: 0.8"/>
      </g>
     </g>
     <g id="text_12">
      <!-- 200 -->
      <g transform="translate(20.878125 388.03632) scale(0.1 -0.1)">
       <use xlink:href="#DejaVuSans-32"/>
       <use xlink:href="#DejaVuSans-30" x="63.623047"/>
       <use xlink:href="#DejaVuSans-30" x="127.246094"/>
      </g>
     </g>
    </g>
    <g id="ytick_4">
     <g id="line2d_12">
      <g>
       <use xlink:href="#mfa8716e62c" x="46.965625" y="311.135651" style="stroke: #000000; stroke-width: 0.8"/>
      </g>
     </g>
     <g id="text_13">
      <!-- 300 -->
      <g transform="translate(20.878125 314.93487) scale(0.1 -0.1)">
       <use xlink:href="#DejaVuSans-33"/>
       <use xlink:href="#DejaVuSans-30" x="63.623047"/>
       <use xlink:href="#DejaVuSans-30" x="127.246094"/>
      </g>
     </g>
    </g>
    <g id="ytick_5">
     <g id="line2d_13">
      <g>
       <use xlink:href="#mfa8716e62c" x="46.965625" y="238.034202" style="stroke: #000000; stroke-width: 0.8"/>
      </g>
     </g>
     <g id="text_14">
      <!-- 400 -->
      <g transform="translate(20.878125 241.83342) scale(0.1 -0.1)">
       <use xlink:href="#DejaVuSans-34"/>
       <use xlink:href="#DejaVuSans-30" x="63.623047"/>
       <use xlink:href="#DejaVuSans-30" x="127.246094"/>
      </g>
     </g>
    </g>
    <g id="ytick_6">
     <g id="line2d_14">
      <g>
       <use xlink:href="#mfa8716e62c" x="46.965625" y="164.932752" style="stroke: #000000; stroke-width: 0.8"/>
      </g>
     </g>
     <g id="text_15">
      <!-- 500 -->
      <g transform="translate(20.878125 168.731971) scale(0.1 -0.1)">
       <use xlink:href="#DejaVuSans-35"/>
       <use xlink:href="#DejaVuSans-30" x="63.623047"/>
       <use xlink:href="#DejaVuSans-30" x="127.246094"/>
      </g>
     </g>
    </g>
    <g id="ytick_7">
     <g id="line2d_15">
      <g>
       <use xlink:href="#mfa8716e62c" x="46.965625" y="91.831303" style="stroke: #000000; stroke-width: 0.8"/>
      </g>
     </g>
     <g id="text_16">
      <!-- 600 -->
      <g transform="translate(20.878125 95.630521) scale(0.1 -0.1)">
       <use xlink:href="#DejaVuSans-36"/>
       <use xlink:href="#DejaVuSans-30" x="63.623047"/>
       <use xlink:href="#DejaVuSans-30" x="127.246094"/>
      </g>
     </g>
    </g>
    <g id="ytick_8">
     <g id="line2d_16">
      <g>
       <use xlink:href="#mfa8716e62c" x="46.965625" y="18.729853" style="stroke: #000000; stroke-width: 0.8"/>
      </g>
     </g>
     <g id="text_17">
      <!-- 700 -->
      <g transform="translate(20.878125 22.529072) scale(0.1 -0.1)">
       <use xlink:href="#DejaVuSans-37"/>
       <use xlink:href="#DejaVuSans-30" x="63.623047"/>
       <use xlink:href="#DejaVuSans-30" x="127.246094"/>
      </g>
     </g>
    </g>
    <g id="text_18">
     <!-- Throughput [Mbps] -->
     <g transform="translate(14.798438 316.617656) rotate(-90) scale(0.1 -0.1)">
      <defs>
       <path id="DejaVuSans-68" d="M 3513 2113 
L 3513 0 
L 2938 0 
L 2938 2094 
Q 2938 2591 2744 2837 
Q 2550 3084 2163 3084 
Q 1697 3084 1428 2787 
Q 1159 2491 1159 1978 
L 1159 0 
L 581 0 
L 581 4863 
L 1159 4863 
L 1159 2956 
Q 1366 3272 1645 3428 
Q 1925 3584 2291 3584 
Q 2894 3584 3203 3211 
Q 3513 2838 3513 2113 
z
" transform="scale(0.015625)"/>
       <path id="DejaVuSans-72" d="M 2631 2963 
Q 2534 3019 2420 3045 
Q 2306 3072 2169 3072 
Q 1681 3072 1420 2755 
Q 1159 2438 1159 1844 
L 1159 0 
L 581 0 
L 581 3500 
L 1159 3500 
L 1159 2956 
Q 1341 3275 1631 3429 
Q 1922 3584 2338 3584 
Q 2397 3584 2469 3576 
Q 2541 3569 2628 3553 
L 2631 2963 
z
" transform="scale(0.015625)"/>
       <path id="DejaVuSans-6f" d="M 1959 3097 
Q 1497 3097 1228 2736 
Q 959 2375 959 1747 
Q 959 1119 1226 758 
Q 1494 397 1959 397 
Q 2419 397 2687 759 
Q 2956 1122 2956 1747 
Q 2956 2369 2687 2733 
Q 2419 3097 1959 3097 
z
M 1959 3584 
Q 2709 3584 3137 3096 
Q 3566 2609 3566 1747 
Q 3566 888 3137 398 
Q 2709 -91 1959 -91 
Q 1206 -91 779 398 
Q 353 888 353 1747 
Q 353 2609 779 3096 
Q 1206 3584 1959 3584 
z
" transform="scale(0.015625)"/>
       <path id="DejaVuSans-75" d="M 544 1381 
L 544 3500 
L 1119 3500 
L 1119 1403 
Q 1119 906 1312 657 
Q 1506 409 1894 409 
Q 2359 409 2629 706 
Q 2900 1003 2900 1516 
L 2900 3500 
L 3475 3500 
L 3475 0 
L 2900 0 
L 2900 538 
Q 2691 219 2414 64 
Q 2138 -91 1772 -91 
Q 1169 -91 856 284 
Q 544 659 544 1381 
z
M 1991 3584 
L 1991 3584 
z
" transform="scale(0.015625)"/>
       <path id="DejaVuSans-67" d="M 2906 1791 
Q 2906 2416 2648 2759 
Q 2391 3103 1925 3103 
Q 1463 3103 1205 2759 
Q 947 2416 947 1791 
Q 947 1169 1205 825 
Q 1463 481 1925 481 
Q 2391 481 2648 825 
Q 2906 1169 2906 1791 
z
M 3481 434 
Q 3481 -459 3084 -895 
Q 2688 -1331 1869 -1331 
Q 1566 -1331 1297 -1286 
Q 1028 -1241 775 -1147 
L 775 -588 
Q 1028 -725 1275 -790 
Q 1522 -856 1778 -856 
Q 2344 -856 2625 -561 
Q 2906 -266 2906 331 
L 2906 616 
Q 2728 306 2450 153 
Q 2172 0 1784 0 
Q 1141 0 747 490 
Q 353 981 353 1791 
Q 353 2603 747 3093 
Q 1141 3584 1784 3584 
Q 2172 3584 2450 3431 
Q 2728 3278 2906 2969 
L 2906 3500 
L 3481 3500 
L 3481 434 
z
" transform="scale(0.015625)"/>
       <path id="DejaVuSans-70" d="M 1159 525 
L 1159 -1331 
L 581 -1331 
L 581 3500 
L 1159 3500 
L 1159 2969 
Q 1341 3281 1617 3432 
Q 1894 3584 2278 3584 
Q 2916 3584 3314 3078 
Q 3713 2572 3713 1747 
Q 3713 922 3314 415 
Q 2916 -91 2278 -91 
Q 1894 -91 1617 61 
Q 1341 213 1159 525 
z
M 3116 1747 
Q 3116 2381 2855 2742 
Q 2594 3103 2138 3103 
Q 1681 3103 1420 2742 
Q 1159 2381 1159 1747 
Q 1159 1113 1420 752 
Q 1681 391 2138 391 
Q 2594 391 2855 752 
Q 3116 1113 3116 1747 
z
" transform="scale(0.015625)"/>
       <path id="DejaVuSans-4d" d="M 628 4666 
L 1569 4666 
L 2759 1491 
L 3956 4666 
L 4897 4666 
L 4897 0 
L 4281 0 
L 4281 4097 
L 3078 897 
L 2444 897 
L 1241 4097 
L 1241 0 
L 628 0 
L 628 4666 
z
" transform="scale(0.015625)"/>
      </defs>
      <use xlink:href="#DejaVuSans-54"/>
      <use xlink:href="#DejaVuSans-68" x="61.083984"/>
      <use xlink:href="#DejaVuSans-72" x="124.462891"/>
      <use xlink:href="#DejaVuSans-6f" x="163.326172"/>
      <use xlink:href="#DejaVuSans-75" x="224.507812"/>
      <use xlink:href="#DejaVuSans-67" x="287.886719"/>
      <use xlink:href="#DejaVuSans-68" x="351.363281"/>
      <use xlink:href="#DejaVuSans-70" x="414.742188"/>
      <use xlink:href="#DejaVuSans-75" x="478.21875"/>
      <use xlink:href="#DejaVuSans-74" x="541.597656"/>
      <use xlink:href="#DejaVuSans-20" x="580.806641"/>
      <use xlink:href="#DejaVuSans-5b" x="612.59375"/>
      <use xlink:href="#DejaVuSans-4d" x="651.607422"/>
      <use xlink:href="#DejaVuSans-62" x="737.886719"/>
      <use xlink:href="#DejaVuSans-70" x="801.363281"/>
      <use xlink:href="#DejaVuSans-73" x="864.839844"/>
      <use xlink:href="#DejaVuSans-5d" x="916.939453"/>
     </g>
    </g>
   </g>
   <g id="line2d_17">
    <path d="M 61.758875 491.278822 
L 61.758875 490.872378 
" clip-path="url(#p7ff794b85a)" style="fill: none; stroke: #424242; stroke-width: 2.25; stroke-linecap: square"/>
   </g>
   <g id="line2d_18">
    <path d="M 135.725125 456.843654 
L 135.725125 456.614115 
" clip-path="url(#p7ff794b85a)" style="fill: none; stroke: #424242; stroke-width: 2.25; stroke-linecap: square"/>
   </g>
   <g id="line2d_19">
    <path d="M 209.691375 491.569401 
L 209.691375 491.544181 
" clip-path="url(#p7ff794b85a)" style="fill: none; stroke: #424242; stroke-width: 2.25; stroke-linecap: square"/>
   </g>
   <g id="line2d_20">
    <path d="M 283.657625 491.677737 
L 283.657625 491.371223 
" clip-path="url(#p7ff794b85a)" style="fill: none; stroke: #424242; stroke-width: 2.25; stroke-linecap: square"/>
   </g>
   <g id="line2d_21">
    <path d="M 357.623875 492.948971 
L 357.623875 492.708394 
" clip-path="url(#p7ff794b85a)" style="fill: none; stroke: #424242; stroke-width: 2.25; stroke-linecap: square"/>
   </g>
   <g id="line2d_22">
    <path d="M 431.590125 458.483319 
L 431.590125 458.226221 
" clip-path="url(#p7ff794b85a)" style="fill: none; stroke: #424242; stroke-width: 2.25; stroke-linecap: square"/>
   </g>
   <g id="line2d_23">
    <path d="M 505.556375 458.622797 
L 505.556375 458.559637 
" clip-path="url(#p7ff794b85a)" style="fill: none; stroke: #424242; stroke-width: 2.25; stroke-linecap: square"/>
   </g>
   <g id="line2d_24">
    <path d="M 579.522625 460.209025 
L 579.522625 459.730942 
" clip-path="url(#p7ff794b85a)" style="fill: none; stroke: #424242; stroke-width: 2.25; stroke-linecap: square"/>
   </g>
   <g id="line2d_25">
    <path d="M 76.552125 491.01997 
L 76.552125 490.784657 
" clip-path="url(#p7ff794b85a)" style="fill: none; stroke: #424242; stroke-width: 2.25; stroke-linecap: square"/>
   </g>
   <g id="line2d_26">
    <path d="M 150.518375 457.072461 
L 150.518375 456.564406 
" clip-path="url(#p7ff794b85a)" style="fill: none; stroke: #424242; stroke-width: 2.25; stroke-linecap: square"/>
   </g>
   <g id="line2d_27">
    <path d="M 224.484625 491.688044 
L 224.484625 491.454193 
" clip-path="url(#p7ff794b85a)" style="fill: none; stroke: #424242; stroke-width: 2.25; stroke-linecap: square"/>
   </g>
   <g id="line2d_28">
    <path d="M 298.450875 491.607852 
L 298.450875 491.528683 
" clip-path="url(#p7ff794b85a)" style="fill: none; stroke: #424242; stroke-width: 2.25; stroke-linecap: square"/>
   </g>
   <g id="line2d_29">
    <path d="M 372.417125 493.173758 
L 372.417125 492.784347 
" clip-path="url(#p7ff794b85a)" style="fill: none; stroke: #424242; stroke-width: 2.25; stroke-linecap: square"/>
   </g>
   <g id="line2d_30">
    <path d="M 446.383375 459.182096 
L 446.383375 458.712419 
" clip-path="url(#p7ff794b85a)" style="fill: none; stroke: #424242; stroke-width: 2.25; stroke-linecap: square"/>
   </g>
   <g id="line2d_31">
    <path d="M 520.349625 459.142329 
L 520.349625 458.776895 
" clip-path="url(#p7ff794b85a)" style="fill: none; stroke: #424242; stroke-width: 2.25; stroke-linecap: square"/>
   </g>
   <g id="line2d_32">
    <path d="M 594.315875 460.769348 
L 594.315875 460.236877 
" clip-path="url(#p7ff794b85a)" style="fill: none; stroke: #424242; stroke-width: 2.25; stroke-linecap: square"/>
   </g>
   <g id="line2d_33">
    <path d="M 91.345375 453.989042 
L 91.345375 453.978077 
" clip-path="url(#p7ff794b85a)" style="fill: none; stroke: #424242; stroke-width: 2.25; stroke-linecap: square"/>
   </g>
   <g id="line2d_34">
    <path d="M 165.311625 387.779597 
L 165.311625 387.773749 
" clip-path="url(#p7ff794b85a)" style="fill: none; stroke: #424242; stroke-width: 2.25; stroke-linecap: square"/>
   </g>
   <g id="line2d_35">
    <path d="M 239.277875 387.793486 
L 239.277875 387.76717 
" clip-path="url(#p7ff794b85a)" style="fill: none; stroke: #424242; stroke-width: 2.25; stroke-linecap: square"/>
   </g>
   <g id="line2d_36">
    <path d="M 313.244125 270.289485 
L 313.244125 270.212729 
" clip-path="url(#p7ff794b85a)" style="fill: none; stroke: #424242; stroke-width: 2.25; stroke-linecap: square"/>
   </g>
   <g id="line2d_37">
    <path d="M 387.210375 270.291678 
L 387.210375 270.231004 
" clip-path="url(#p7ff794b85a)" style="fill: none; stroke: #424242; stroke-width: 2.25; stroke-linecap: square"/>
   </g>
   <g id="line2d_38">
    <path d="M 461.176625 270.275596 
L 461.176625 270.257321 
" clip-path="url(#p7ff794b85a)" style="fill: none; stroke: #424242; stroke-width: 2.25; stroke-linecap: square"/>
   </g>
   <g id="line2d_39">
    <path d="M 535.142875 109.168042 
L 535.142875 109.056197 
" clip-path="url(#p7ff794b85a)" style="fill: none; stroke: #424242; stroke-width: 2.25; stroke-linecap: square"/>
   </g>
   <g id="line2d_40">
    <path d="M 609.109125 109.087631 
L 609.109125 109.073742 
" clip-path="url(#p7ff794b85a)" style="fill: none; stroke: #424242; stroke-width: 2.25; stroke-linecap: square"/>
   </g>
   <g id="line2d_41">
    <path d="M 106.138625 455.618473 
L 106.138625 455.613356 
" clip-path="url(#p7ff794b85a)" style="fill: none; stroke: #424242; stroke-width: 2.25; stroke-linecap: square"/>
   </g>
   <g id="line2d_42">
    <path d="M 180.104875 393.345541 
L 180.104875 393.309722 
" clip-path="url(#p7ff794b85a)" style="fill: none; stroke: #424242; stroke-width: 2.25; stroke-linecap: square"/>
   </g>
   <g id="line2d_43">
    <path d="M 254.071125 292.785725 
L 254.071125 292.572269 
" clip-path="url(#p7ff794b85a)" style="fill: none; stroke: #424242; stroke-width: 2.25; stroke-linecap: square"/>
   </g>
   <g id="line2d_44">
    <path d="M 328.037375 292.835434 
L 328.037375 292.548877 
" clip-path="url(#p7ff794b85a)" style="fill: none; stroke: #424242; stroke-width: 2.25; stroke-linecap: square"/>
   </g>
   <g id="line2d_45">
    <path d="M 402.003625 171.52431 
L 402.003625 170.894175 
" clip-path="url(#p7ff794b85a)" style="fill: none; stroke: #424242; stroke-width: 2.25; stroke-linecap: square"/>
   </g>
   <g id="line2d_46">
    <path d="M 475.969875 163.93711 
L 475.969875 163.774825 
" clip-path="url(#p7ff794b85a)" style="fill: none; stroke: #424242; stroke-width: 2.25; stroke-linecap: square"/>
   </g>
   <g id="line2d_47">
    <path d="M 549.936125 164.151298 
L 549.936125 163.940034 
" clip-path="url(#p7ff794b85a)" style="fill: none; stroke: #424242; stroke-width: 2.25; stroke-linecap: square"/>
   </g>
   <g id="line2d_48">
    <path d="M 623.902375 32.36108 
L 623.902375 32.11619 
" clip-path="url(#p7ff794b85a)" style="fill: none; stroke: #424242; stroke-width: 2.25; stroke-linecap: square"/>
   </g>
   <g id="patch_39">
    <path d="M 46.965625 530.44 
L 46.965625 7.2 
" style="fill: none; stroke: #000000; stroke-width: 0.8; stroke-linejoin: miter; stroke-linecap: square"/>
   </g>
   <g id="patch_40">
    <path d="M 638.695625 530.44 
L 638.695625 7.2 
" style="fill: none; stroke: #000000; stroke-width: 0.8; stroke-linejoin: miter; stroke-linecap: square"/>
   </g>
   <g id="patch_41">
    <path d="M 46.965625 530.44 
L 638.695625 530.44 
" style="fill: none; stroke: #000000; stroke-width: 0.8; stroke-linejoin: miter; stroke-linecap: square"/>
   </g>
   <g id="patch_42">
    <path d="M 46.965625 7.2 
L 638.695625 7.2 
" style="fill: none; stroke: #000000; stroke-width: 0.8; stroke-linejoin: miter; stroke-linecap: square"/>
   </g>
   <g id="legend_1">
    <g id="patch_43">
     <path d="M 53.965625 88.590625 
L 215.689063 88.590625 
Q 217.689063 88.590625 217.689063 86.590625 
L 217.689063 14.2 
Q 217.689063 12.2 215.689063 12.2 
L 53.965625 12.2 
Q 51.965625 12.2 51.965625 14.2 
L 51.965625 86.590625 
Q 51.965625 88.590625 53.965625 88.590625 
z
" style="fill: #ffffff; opacity: 0.8; stroke: #cccccc; stroke-linejoin: miter"/>
    </g>
    <g id="text_19">
     <!-- Firts BSS devices configuration: -->
     <g transform="translate(55.965625 23.798437) scale(0.1 -0.1)">
      <defs>
       <path id="DejaVuSans-46" d="M 628 4666 
L 3309 4666 
L 3309 4134 
L 1259 4134 
L 1259 2759 
L 3109 2759 
L 3109 2228 
L 1259 2228 
L 1259 0 
L 628 0 
L 628 4666 
z
" transform="scale(0.015625)"/>
       <path id="DejaVuSans-42" d="M 1259 2228 
L 1259 519 
L 2272 519 
Q 2781 519 3026 730 
Q 3272 941 3272 1375 
Q 3272 1813 3026 2020 
Q 2781 2228 2272 2228 
L 1259 2228 
z
M 1259 4147 
L 1259 2741 
L 2194 2741 
Q 2656 2741 2882 2914 
Q 3109 3088 3109 3444 
Q 3109 3797 2882 3972 
Q 2656 4147 2194 4147 
L 1259 4147 
z
M 628 4666 
L 2241 4666 
Q 2963 4666 3353 4366 
Q 3744 4066 3744 3513 
Q 3744 3084 3544 2831 
Q 3344 2578 2956 2516 
Q 3422 2416 3680 2098 
Q 3938 1781 3938 1306 
Q 3938 681 3513 340 
Q 3088 0 2303 0 
L 628 0 
L 628 4666 
z
" transform="scale(0.015625)"/>
       <path id="DejaVuSans-76" d="M 191 3500 
L 800 3500 
L 1894 563 
L 2988 3500 
L 3597 3500 
L 2284 0 
L 1503 0 
L 191 3500 
z
" transform="scale(0.015625)"/>
       <path id="DejaVuSans-66" d="M 2375 4863 
L 2375 4384 
L 1825 4384 
Q 1516 4384 1395 4259 
Q 1275 4134 1275 3809 
L 1275 3500 
L 2222 3500 
L 2222 3053 
L 1275 3053 
L 1275 0 
L 697 0 
L 697 3053 
L 147 3053 
L 147 3500 
L 697 3500 
L 697 3744 
Q 697 4328 969 4595 
Q 1241 4863 1831 4863 
L 2375 4863 
z
" transform="scale(0.015625)"/>
       <path id="DejaVuSans-3a" d="M 750 794 
L 1409 794 
L 1409 0 
L 750 0 
L 750 794 
z
M 750 3309 
L 1409 3309 
L 1409 2516 
L 750 2516 
L 750 3309 
z
" transform="scale(0.015625)"/>
      </defs>
      <use xlink:href="#DejaVuSans-46"/>
      <use xlink:href="#DejaVuSans-69" x="50.269531"/>
      <use xlink:href="#DejaVuSans-72" x="78.052734"/>
      <use xlink:href="#DejaVuSans-74" x="119.166016"/>
      <use xlink:href="#DejaVuSans-73" x="158.375"/>
      <use xlink:href="#DejaVuSans-20" x="210.474609"/>
      <use xlink:href="#DejaVuSans-42" x="242.261719"/>
      <use xlink:href="#DejaVuSans-53" x="309.115234"/>
      <use xlink:href="#DejaVuSans-53" x="372.591797"/>
      <use xlink:href="#DejaVuSans-20" x="436.068359"/>
      <use xlink:href="#DejaVuSans-64" x="467.855469"/>
      <use xlink:href="#DejaVuSans-65" x="531.332031"/>
      <use xlink:href="#DejaVuSans-76" x="592.855469"/>
      <use xlink:href="#DejaVuSans-69" x="652.035156"/>
      <use xlink:href="#DejaVuSans-63" x="679.818359"/>
      <use xlink:href="#DejaVuSans-65" x="734.798828"/>
      <use xlink:href="#DejaVuSans-73" x="796.322266"/>
      <use xlink:href="#DejaVuSans-20" x="848.421875"/>
      <use xlink:href="#DejaVuSans-63" x="880.208984"/>
      <use xlink:href="#DejaVuSans-6f" x="935.189453"/>
      <use xlink:href="#DejaVuSans-6e" x="996.371094"/>
      <use xlink:href="#DejaVuSans-66" x="1059.75"/>
      <use xlink:href="#DejaVuSans-69" x="1094.955078"/>
      <use xlink:href="#DejaVuSans-67" x="1122.738281"/>
      <use xlink:href="#DejaVuSans-75" x="1186.214844"/>
      <use xlink:href="#DejaVuSans-72" x="1249.59375"/>
      <use xlink:href="#DejaVuSans-61" x="1290.707031"/>
      <use xlink:href="#DejaVuSans-74" x="1351.986328"/>
      <use xlink:href="#DejaVuSans-69" x="1391.195312"/>
      <use xlink:href="#DejaVuSans-6f" x="1418.978516"/>
      <use xlink:href="#DejaVuSans-6e" x="1480.160156"/>
      <use xlink:href="#DejaVuSans-3a" x="1543.539062"/>
     </g>
    </g>
    <g id="patch_44">
     <path d="M 116.977344 38.476562 
L 136.977344 38.476562 
L 136.977344 31.476562 
L 116.977344 31.476562 
z
" style="fill: #0c3b50"/>
    </g>
    <g id="text_20">
     <!-- A -->
     <g transform="translate(144.977344 38.476562) scale(0.1 -0.1)">
      <use xlink:href="#DejaVuSans-41"/>
     </g>
    </g>
    <g id="patch_45">
     <path d="M 116.977344 53.154688 
L 136.977344 53.154688 
L 136.977344 46.154688 
L 116.977344 46.154688 
z
" style="fill: #785a8c"/>
    </g>
    <g id="text_21">
     <!-- B -->
     <g transform="translate(144.977344 53.154688) scale(0.1 -0.1)">
      <use xlink:href="#DejaVuSans-42"/>
     </g>
    </g>
    <g id="patch_46">
     <path d="M 116.977344 67.832812 
L 136.977344 67.832812 
L 136.977344 60.832812 
L 116.977344 60.832812 
z
" style="fill: #dc6980"/>
    </g>
    <g id="text_22">
     <!-- C -->
     <g transform="translate(144.977344 67.832812) scale(0.1 -0.1)">
      <defs>
       <path id="DejaVuSans-43" d="M 4122 4306 
L 4122 3641 
Q 3803 3938 3442 4084 
Q 3081 4231 2675 4231 
Q 1875 4231 1450 3742 
Q 1025 3253 1025 2328 
Q 1025 1406 1450 917 
Q 1875 428 2675 428 
Q 3081 428 3442 575 
Q 3803 722 4122 1019 
L 4122 359 
Q 3791 134 3420 21 
Q 3050 -91 2638 -91 
Q 1578 -91 968 557 
Q 359 1206 359 2328 
Q 359 3453 968 4101 
Q 1578 4750 2638 4750 
Q 3056 4750 3426 4639 
Q 3797 4528 4122 4306 
z
" transform="scale(0.015625)"/>
      </defs>
      <use xlink:href="#DejaVuSans-43"/>
     </g>
    </g>
    <g id="patch_47">
     <path d="M 116.977344 82.510938 
L 136.977344 82.510938 
L 136.977344 75.510938 
L 116.977344 75.510938 
z
" style="fill: #df9c20"/>
    </g>
    <g id="text_23">
     <!-- D -->
     <g transform="translate(144.977344 82.510938) scale(0.1 -0.1)">
      <use xlink:href="#DejaVuSans-44"/>
     </g>
    </g>
   </g>
  </g>
  <g id="axes_2">
   <g id="patch_48">
    <path d="M 689.565625 530.44 
L 1281.295625 530.44 
L 1281.295625 7.2 
L 689.565625 7.2 
z
" style="fill: #ffffff"/>
   </g>
   <g id="patch_49">
    <path d="M 696.96225 530.44 
L 711.7555 530.44 
L 711.7555 489.722676 
L 696.96225 489.722676 
z
" clip-path="url(#pd73dc30f3d)" style="fill: #0c3b50"/>
   </g>
   <g id="patch_50">
    <path d="M 770.9285 530.44 
L 785.72175 530.44 
L 785.72175 453.454112 
L 770.9285 453.454112 
z
" clip-path="url(#pd73dc30f3d)" style="fill: #0c3b50"/>
   </g>
   <g id="patch_51">
    <path d="M 844.89475 530.44 
L 859.688 530.44 
L 859.688 490.364476 
L 844.89475 490.364476 
z
" clip-path="url(#pd73dc30f3d)" style="fill: #0c3b50"/>
   </g>
   <g id="patch_52">
    <path d="M 918.861 530.44 
L 933.65425 530.44 
L 933.65425 490.262729 
L 918.861 490.262729 
z
" clip-path="url(#pd73dc30f3d)" style="fill: #0c3b50"/>
   </g>
   <g id="patch_53">
    <path d="M 992.82725 530.44 
L 1007.6205 530.44 
L 1007.6205 491.342515 
L 992.82725 491.342515 
z
" clip-path="url(#pd73dc30f3d)" style="fill: #0c3b50"/>
   </g>
   <g id="patch_54">
    <path d="M 1066.7935 530.44 
L 1081.58675 530.44 
L 1081.58675 455.768484 
L 1066.7935 455.768484 
z
" clip-path="url(#pd73dc30f3d)" style="fill: #0c3b50"/>
   </g>
   <g id="patch_55">
    <path d="M 1140.75975 530.44 
L 1155.553 530.44 
L 1155.553 455.969562 
L 1140.75975 455.969562 
z
" clip-path="url(#pd73dc30f3d)" style="fill: #0c3b50"/>
   </g>
   <g id="patch_56">
    <path d="M 1214.726 530.44 
L 1229.51925 530.44 
L 1229.51925 457.37918 
L 1214.726 457.37918 
z
" clip-path="url(#pd73dc30f3d)" style="fill: #0c3b50"/>
   </g>
   <g id="patch_57">
    <path d="M 711.7555 530.44 
L 726.54875 530.44 
L 726.54875 489.567284 
L 711.7555 489.567284 
z
" clip-path="url(#pd73dc30f3d)" style="fill: #785a8c"/>
   </g>
   <g id="patch_58">
    <path d="M 785.72175 530.44 
L 800.515 530.44 
L 800.515 453.26979 
L 785.72175 453.26979 
z
" clip-path="url(#pd73dc30f3d)" style="fill: #785a8c"/>
   </g>
   <g id="patch_59">
    <path d="M 859.688 530.44 
L 874.48125 530.44 
L 874.48125 490.543401 
L 859.688 490.543401 
z
" clip-path="url(#pd73dc30f3d)" style="fill: #785a8c"/>
   </g>
   <g id="patch_60">
    <path d="M 933.65425 530.44 
L 948.4475 530.44 
L 948.4475 490.389759 
L 933.65425 490.389759 
z
" clip-path="url(#pd73dc30f3d)" style="fill: #785a8c"/>
   </g>
   <g id="patch_61">
    <path d="M 1007.6205 530.44 
L 1022.41375 530.44 
L 1022.41375 491.597017 
L 1007.6205 491.597017 
z
" clip-path="url(#pd73dc30f3d)" style="fill: #785a8c"/>
   </g>
   <g id="patch_62">
    <path d="M 1081.58675 530.44 
L 1096.38 530.44 
L 1096.38 456.537559 
L 1081.58675 456.537559 
z
" clip-path="url(#pd73dc30f3d)" style="fill: #785a8c"/>
   </g>
   <g id="patch_63">
    <path d="M 1155.553 530.44 
L 1170.34625 530.44 
L 1170.34625 456.396681 
L 1155.553 456.396681 
z
" clip-path="url(#pd73dc30f3d)" style="fill: #785a8c"/>
   </g>
   <g id="patch_64">
    <path d="M 1229.51925 530.44 
L 1244.3125 530.44 
L 1244.3125 458.20646 
L 1229.51925 458.20646 
z
" clip-path="url(#pd73dc30f3d)" style="fill: #785a8c"/>
   </g>
   <g id="patch_65">
    <path d="M 726.54875 530.44 
L 741.342 530.44 
L 741.342 451.679399 
L 726.54875 451.679399 
z
" clip-path="url(#pd73dc30f3d)" style="fill: #dc6980"/>
   </g>
   <g id="patch_66">
    <path d="M 800.515 530.44 
L 815.30825 530.44 
L 815.30825 381.053105 
L 800.515 381.053105 
z
" clip-path="url(#pd73dc30f3d)" style="fill: #dc6980"/>
   </g>
   <g id="patch_67">
    <path d="M 874.48125 530.44 
L 889.2745 530.44 
L 889.2745 381.064687 
L 874.48125 381.064687 
z
" clip-path="url(#pd73dc30f3d)" style="fill: #dc6980"/>
   </g>
   <g id="patch_68">
    <path d="M 948.4475 530.44 
L 963.24075 530.44 
L 963.24075 249.321182 
L 948.4475 249.321182 
z
" clip-path="url(#pd73dc30f3d)" style="fill: #dc6980"/>
   </g>
   <g id="patch_69">
    <path d="M 1022.41375 530.44 
L 1037.207 530.44 
L 1037.207 249.297526 
L 1022.41375 249.297526 
z
" clip-path="url(#pd73dc30f3d)" style="fill: #dc6980"/>
   </g>
   <g id="patch_70">
    <path d="M 1096.38 530.44 
L 1111.17325 530.44 
L 1111.17325 249.338678 
L 1096.38 249.338678 
z
" clip-path="url(#pd73dc30f3d)" style="fill: #dc6980"/>
   </g>
   <g id="patch_71">
    <path d="M 1170.34625 530.44 
L 1185.1395 530.44 
L 1185.1395 54.692406 
L 1170.34625 54.692406 
z
" clip-path="url(#pd73dc30f3d)" style="fill: #dc6980"/>
   </g>
   <g id="patch_72">
    <path d="M 1244.3125 530.44 
L 1259.10575 530.44 
L 1259.10575 54.745879 
L 1244.3125 54.745879 
z
" clip-path="url(#pd73dc30f3d)" style="fill: #dc6980"/>
   </g>
   <g id="patch_73">
    <path d="M 741.342 530.44 
L 756.13525 530.44 
L 756.13525 454.778617 
L 741.342 454.778617 
z
" clip-path="url(#pd73dc30f3d)" style="fill: #df9c20"/>
   </g>
   <g id="patch_74">
    <path d="M 815.30825 530.44 
L 830.1015 530.44 
L 830.1015 391.837408 
L 815.30825 391.837408 
z
" clip-path="url(#pd73dc30f3d)" style="fill: #df9c20"/>
   </g>
   <g id="patch_75">
    <path d="M 889.2745 530.44 
L 904.06775 530.44 
L 904.06775 290.498374 
L 889.2745 290.498374 
z
" clip-path="url(#pd73dc30f3d)" style="fill: #df9c20"/>
   </g>
   <g id="patch_76">
    <path d="M 963.24075 530.44 
L 978.034 530.44 
L 978.034 290.406459 
L 963.24075 290.406459 
z
" clip-path="url(#pd73dc30f3d)" style="fill: #df9c20"/>
   </g>
   <g id="patch_77">
    <path d="M 1037.207 530.44 
L 1052.00025 530.44 
L 1052.00025 165.891178 
L 1037.207 165.891178 
z
" clip-path="url(#pd73dc30f3d)" style="fill: #df9c20"/>
   </g>
   <g id="patch_78">
    <path d="M 1111.17325 530.44 
L 1125.9665 530.44 
L 1125.9665 163.463206 
L 1111.17325 163.463206 
z
" clip-path="url(#pd73dc30f3d)" style="fill: #df9c20"/>
   </g>
   <g id="patch_79">
    <path d="M 1185.1395 530.44 
L 1199.93275 530.44 
L 1199.93275 163.51594 
L 1185.1395 163.51594 
z
" clip-path="url(#pd73dc30f3d)" style="fill: #df9c20"/>
   </g>
   <g id="patch_80">
    <path d="M 1259.10575 530.44 
L 1273.899 530.44 
L 1273.899 32.266014 
L 1259.10575 32.266014 
z
" clip-path="url(#pd73dc30f3d)" style="fill: #df9c20"/>
   </g>
   <g id="patch_81">
    <path d="M 726.54875 530.44 
L 726.54875 530.44 
L 726.54875 530.44 
L 726.54875 530.44 
z
" clip-path="url(#pd73dc30f3d)" style="fill: #0c3b50"/>
   </g>
   <g id="patch_82">
    <path d="M 726.54875 530.44 
L 726.54875 530.44 
L 726.54875 530.44 
L 726.54875 530.44 
z
" clip-path="url(#pd73dc30f3d)" style="fill: #785a8c"/>
   </g>
   <g id="patch_83">
    <path d="M 726.54875 530.44 
L 726.54875 530.44 
L 726.54875 530.44 
L 726.54875 530.44 
z
" clip-path="url(#pd73dc30f3d)" style="fill: #dc6980"/>
   </g>
   <g id="patch_84">
    <path d="M 726.54875 530.44 
L 726.54875 530.44 
L 726.54875 530.44 
L 726.54875 530.44 
z
" clip-path="url(#pd73dc30f3d)" style="fill: #df9c20"/>
   </g>
   <g id="matplotlib.axis_3">
    <g id="xtick_9">
     <g id="line2d_49">
      <g>
       <use xlink:href="#m2ef32041eb" x="726.54875" y="530.44" style="stroke: #000000; stroke-width: 0.8"/>
      </g>
     </g>
     <g id="text_24">
      <!-- 1 -->
      <g transform="translate(723.3675 545.038437) scale(0.1 -0.1)">
       <use xlink:href="#DejaVuSans-31"/>
      </g>
     </g>
    </g>
    <g id="xtick_10">
     <g id="line2d_50">
      <g>
       <use xlink:href="#m2ef32041eb" x="800.515" y="530.44" style="stroke: #000000; stroke-width: 0.8"/>
      </g>
     </g>
     <g id="text_25">
      <!-- 2 -->
      <g transform="translate(797.33375 545.038437) scale(0.1 -0.1)">
       <use xlink:href="#DejaVuSans-32"/>
      </g>
     </g>
    </g>
    <g id="xtick_11">
     <g id="line2d_51">
      <g>
       <use xlink:href="#m2ef32041eb" x="874.48125" y="530.44" style="stroke: #000000; stroke-width: 0.8"/>
      </g>
     </g>
     <g id="text_26">
      <!-- 3 -->
      <g transform="translate(871.3 545.038437) scale(0.1 -0.1)">
       <use xlink:href="#DejaVuSans-33"/>
      </g>
     </g>
    </g>
    <g id="xtick_12">
     <g id="line2d_52">
      <g>
       <use xlink:href="#m2ef32041eb" x="948.4475" y="530.44" style="stroke: #000000; stroke-width: 0.8"/>
      </g>
     </g>
     <g id="text_27">
      <!-- 4 -->
      <g transform="translate(945.26625 545.038437) scale(0.1 -0.1)">
       <use xlink:href="#DejaVuSans-34"/>
      </g>
     </g>
    </g>
    <g id="xtick_13">
     <g id="line2d_53">
      <g>
       <use xlink:href="#m2ef32041eb" x="1022.41375" y="530.44" style="stroke: #000000; stroke-width: 0.8"/>
      </g>
     </g>
     <g id="text_28">
      <!-- 5 -->
      <g transform="translate(1019.2325 545.038437) scale(0.1 -0.1)">
       <use xlink:href="#DejaVuSans-35"/>
      </g>
     </g>
    </g>
    <g id="xtick_14">
     <g id="line2d_54">
      <g>
       <use xlink:href="#m2ef32041eb" x="1096.38" y="530.44" style="stroke: #000000; stroke-width: 0.8"/>
      </g>
     </g>
     <g id="text_29">
      <!-- 6 -->
      <g transform="translate(1093.19875 545.038437) scale(0.1 -0.1)">
       <use xlink:href="#DejaVuSans-36"/>
      </g>
     </g>
    </g>
    <g id="xtick_15">
     <g id="line2d_55">
      <g>
       <use xlink:href="#m2ef32041eb" x="1170.34625" y="530.44" style="stroke: #000000; stroke-width: 0.8"/>
      </g>
     </g>
     <g id="text_30">
      <!-- 7 -->
      <g transform="translate(1167.165 545.038437) scale(0.1 -0.1)">
       <use xlink:href="#DejaVuSans-37"/>
      </g>
     </g>
    </g>
    <g id="xtick_16">
     <g id="line2d_56">
      <g>
       <use xlink:href="#m2ef32041eb" x="1244.3125" y="530.44" style="stroke: #000000; stroke-width: 0.8"/>
      </g>
     </g>
     <g id="text_31">
      <!-- 8 -->
      <g transform="translate(1241.13125 545.038437) scale(0.1 -0.1)">
       <use xlink:href="#DejaVuSans-38"/>
      </g>
     </g>
    </g>
    <g id="text_32">
     <!-- Distance beetwen AP and STAs [m] -->
     <g transform="translate(897.52125 558.716562) scale(0.1 -0.1)">
      <use xlink:href="#DejaVuSans-44"/>
      <use xlink:href="#DejaVuSans-69" x="77.001953"/>
      <use xlink:href="#DejaVuSans-73" x="104.785156"/>
      <use xlink:href="#DejaVuSans-74" x="156.884766"/>
      <use xlink:href="#DejaVuSans-61" x="196.09375"/>
      <use xlink:href="#DejaVuSans-6e" x="257.373047"/>
      <use xlink:href="#DejaVuSans-63" x="320.751953"/>
      <use xlink:href="#DejaVuSans-65" x="375.732422"/>
      <use xlink:href="#DejaVuSans-20" x="437.255859"/>
      <use xlink:href="#DejaVuSans-62" x="469.042969"/>
      <use xlink:href="#DejaVuSans-65" x="532.519531"/>
      <use xlink:href="#DejaVuSans-65" x="594.042969"/>
      <use xlink:href="#DejaVuSans-74" x="655.566406"/>
      <use xlink:href="#DejaVuSans-77" x="694.775391"/>
      <use xlink:href="#DejaVuSans-65" x="776.5625"/>
      <use xlink:href="#DejaVuSans-6e" x="838.085938"/>
      <use xlink:href="#DejaVuSans-20" x="901.464844"/>
      <use xlink:href="#DejaVuSans-41" x="933.251953"/>
      <use xlink:href="#DejaVuSans-50" x="1001.660156"/>
      <use xlink:href="#DejaVuSans-20" x="1061.962891"/>
      <use xlink:href="#DejaVuSans-61" x="1093.75"/>
      <use xlink:href="#DejaVuSans-6e" x="1155.029297"/>
      <use xlink:href="#DejaVuSans-64" x="1218.408203"/>
      <use xlink:href="#DejaVuSans-20" x="1281.884766"/>
      <use xlink:href="#DejaVuSans-53" x="1313.671875"/>
      <use xlink:href="#DejaVuSans-54" x="1377.148438"/>
      <use xlink:href="#DejaVuSans-41" x="1430.482422"/>
      <use xlink:href="#DejaVuSans-73" x="1498.890625"/>
      <use xlink:href="#DejaVuSans-20" x="1550.990234"/>
      <use xlink:href="#DejaVuSans-5b" x="1582.777344"/>
      <use xlink:href="#DejaVuSans-6d" x="1621.791016"/>
      <use xlink:href="#DejaVuSans-5d" x="1719.203125"/>
     </g>
    </g>
   </g>
   <g id="matplotlib.axis_4">
    <g id="ytick_9">
     <g id="line2d_57">
      <g>
       <use xlink:href="#mfa8716e62c" x="689.565625" y="530.44" style="stroke: #000000; stroke-width: 0.8"/>
      </g>
     </g>
     <g id="text_33">
      <!-- 0 -->
      <g transform="translate(676.203125 534.239219) scale(0.1 -0.1)">
       <use xlink:href="#DejaVuSans-30"/>
      </g>
     </g>
    </g>
    <g id="ytick_10">
     <g id="line2d_58">
      <g>
       <use xlink:href="#mfa8716e62c" x="689.565625" y="456.514149" style="stroke: #000000; stroke-width: 0.8"/>
      </g>
     </g>
     <g id="text_34">
      <!-- 100 -->
      <g transform="translate(663.478125 460.313368) scale(0.1 -0.1)">
       <use xlink:href="#DejaVuSans-31"/>
       <use xlink:href="#DejaVuSans-30" x="63.623047"/>
       <use xlink:href="#DejaVuSans-30" x="127.246094"/>
      </g>
     </g>
    </g>
    <g id="ytick_11">
     <g id="line2d_59">
      <g>
       <use xlink:href="#mfa8716e62c" x="689.565625" y="382.588299" style="stroke: #000000; stroke-width: 0.8"/>
      </g>
     </g>
     <g id="text_35">
      <!-- 200 -->
      <g transform="translate(663.478125 386.387517) scale(0.1 -0.1)">
       <use xlink:href="#DejaVuSans-32"/>
       <use xlink:href="#DejaVuSans-30" x="63.623047"/>
       <use xlink:href="#DejaVuSans-30" x="127.246094"/>
      </g>
     </g>
    </g>
    <g id="ytick_12">
     <g id="line2d_60">
      <g>
       <use xlink:href="#mfa8716e62c" x="689.565625" y="308.662448" style="stroke: #000000; stroke-width: 0.8"/>
      </g>
     </g>
     <g id="text_36">
      <!-- 300 -->
      <g transform="translate(663.478125 312.461667) scale(0.1 -0.1)">
       <use xlink:href="#DejaVuSans-33"/>
       <use xlink:href="#DejaVuSans-30" x="63.623047"/>
       <use xlink:href="#DejaVuSans-30" x="127.246094"/>
      </g>
     </g>
    </g>
    <g id="ytick_13">
     <g id="line2d_61">
      <g>
       <use xlink:href="#mfa8716e62c" x="689.565625" y="234.736597" style="stroke: #000000; stroke-width: 0.8"/>
      </g>
     </g>
     <g id="text_37">
      <!-- 400 -->
      <g transform="translate(663.478125 238.535816) scale(0.1 -0.1)">
       <use xlink:href="#DejaVuSans-34"/>
       <use xlink:href="#DejaVuSans-30" x="63.623047"/>
       <use xlink:href="#DejaVuSans-30" x="127.246094"/>
      </g>
     </g>
    </g>
    <g id="ytick_14">
     <g id="line2d_62">
      <g>
       <use xlink:href="#mfa8716e62c" x="689.565625" y="160.810747" style="stroke: #000000; stroke-width: 0.8"/>
      </g>
     </g>
     <g id="text_38">
      <!-- 500 -->
      <g transform="translate(663.478125 164.609966) scale(0.1 -0.1)">
       <use xlink:href="#DejaVuSans-35"/>
       <use xlink:href="#DejaVuSans-30" x="63.623047"/>
       <use xlink:href="#DejaVuSans-30" x="127.246094"/>
      </g>
     </g>
    </g>
    <g id="ytick_15">
     <g id="line2d_63">
      <g>
       <use xlink:href="#mfa8716e62c" x="689.565625" y="86.884896" style="stroke: #000000; stroke-width: 0.8"/>
      </g>
     </g>
     <g id="text_39">
      <!-- 600 -->
      <g transform="translate(663.478125 90.684115) scale(0.1 -0.1)">
       <use xlink:href="#DejaVuSans-36"/>
       <use xlink:href="#DejaVuSans-30" x="63.623047"/>
       <use xlink:href="#DejaVuSans-30" x="127.246094"/>
      </g>
     </g>
    </g>
    <g id="ytick_16">
     <g id="line2d_64">
      <g>
       <use xlink:href="#mfa8716e62c" x="689.565625" y="12.959046" style="stroke: #000000; stroke-width: 0.8"/>
      </g>
     </g>
     <g id="text_40">
      <!-- 700 -->
      <g transform="translate(663.478125 16.758264) scale(0.1 -0.1)">
       <use xlink:href="#DejaVuSans-37"/>
       <use xlink:href="#DejaVuSans-30" x="63.623047"/>
       <use xlink:href="#DejaVuSans-30" x="127.246094"/>
      </g>
     </g>
    </g>
    <g id="text_41">
     <!-- Throughput [Mbps] -->
     <g transform="translate(657.398438 316.617656) rotate(-90) scale(0.1 -0.1)">
      <use xlink:href="#DejaVuSans-54"/>
      <use xlink:href="#DejaVuSans-68" x="61.083984"/>
      <use xlink:href="#DejaVuSans-72" x="124.462891"/>
      <use xlink:href="#DejaVuSans-6f" x="163.326172"/>
      <use xlink:href="#DejaVuSans-75" x="224.507812"/>
      <use xlink:href="#DejaVuSans-67" x="287.886719"/>
      <use xlink:href="#DejaVuSans-68" x="351.363281"/>
      <use xlink:href="#DejaVuSans-70" x="414.742188"/>
      <use xlink:href="#DejaVuSans-75" x="478.21875"/>
      <use xlink:href="#DejaVuSans-74" x="541.597656"/>
      <use xlink:href="#DejaVuSans-20" x="580.806641"/>
      <use xlink:href="#DejaVuSans-5b" x="612.59375"/>
      <use xlink:href="#DejaVuSans-4d" x="651.607422"/>
      <use xlink:href="#DejaVuSans-62" x="737.886719"/>
      <use xlink:href="#DejaVuSans-70" x="801.363281"/>
      <use xlink:href="#DejaVuSans-73" x="864.839844"/>
      <use xlink:href="#DejaVuSans-5d" x="916.939453"/>
     </g>
    </g>
   </g>
   <g id="line2d_65">
    <path d="M 704.358875 489.767106 
L 704.358875 489.684752 
" clip-path="url(#pd73dc30f3d)" style="fill: none; stroke: #424242; stroke-width: 2.25; stroke-linecap: square"/>
   </g>
   <g id="line2d_66">
    <path d="M 778.325125 453.553419 
L 778.325125 453.327945 
" clip-path="url(#pd73dc30f3d)" style="fill: none; stroke: #424242; stroke-width: 2.25; stroke-linecap: square"/>
   </g>
   <g id="line2d_67">
    <path d="M 852.291375 490.482412 
L 852.291375 490.207482 
" clip-path="url(#pd73dc30f3d)" style="fill: none; stroke: #424242; stroke-width: 2.25; stroke-linecap: square"/>
   </g>
   <g id="line2d_68">
    <path d="M 926.257625 490.346685 
L 926.257625 490.155438 
" clip-path="url(#pd73dc30f3d)" style="fill: none; stroke: #424242; stroke-width: 2.25; stroke-linecap: square"/>
   </g>
   <g id="line2d_69">
    <path d="M 1000.223875 491.526171 
L 1000.223875 491.201341 
" clip-path="url(#pd73dc30f3d)" style="fill: none; stroke: #424242; stroke-width: 2.25; stroke-linecap: square"/>
   </g>
   <g id="line2d_70">
    <path d="M 1074.190125 455.78524 
L 1074.190125 455.744581 
" clip-path="url(#pd73dc30f3d)" style="fill: none; stroke: #424242; stroke-width: 2.25; stroke-linecap: square"/>
   </g>
   <g id="line2d_71">
    <path d="M 1148.156375 456.126778 
L 1148.156375 455.729057 
" clip-path="url(#pd73dc30f3d)" style="fill: none; stroke: #424242; stroke-width: 2.25; stroke-linecap: square"/>
   </g>
   <g id="line2d_72">
    <path d="M 1222.122625 457.575207 
L 1222.122625 457.188205 
" clip-path="url(#pd73dc30f3d)" style="fill: none; stroke: #424242; stroke-width: 2.25; stroke-linecap: square"/>
   </g>
   <g id="line2d_73">
    <path d="M 719.152125 489.698207 
L 719.152125 489.488627 
" clip-path="url(#pd73dc30f3d)" style="fill: none; stroke: #424242; stroke-width: 2.25; stroke-linecap: square"/>
   </g>
   <g id="line2d_74">
    <path d="M 793.118375 453.459533 
L 793.118375 453.159394 
" clip-path="url(#pd73dc30f3d)" style="fill: none; stroke: #424242; stroke-width: 2.25; stroke-linecap: square"/>
   </g>
   <g id="line2d_75">
    <path d="M 867.084625 490.573415 
L 867.084625 490.522702 
" clip-path="url(#pd73dc30f3d)" style="fill: none; stroke: #424242; stroke-width: 2.25; stroke-linecap: square"/>
   </g>
   <g id="line2d_76">
    <path d="M 941.050875 490.420093 
L 941.050875 490.339588 
" clip-path="url(#pd73dc30f3d)" style="fill: none; stroke: #424242; stroke-width: 2.25; stroke-linecap: square"/>
   </g>
   <g id="line2d_77">
    <path d="M 1015.017125 491.758668 
L 1015.017125 491.509309 
" clip-path="url(#pd73dc30f3d)" style="fill: none; stroke: #424242; stroke-width: 2.25; stroke-linecap: square"/>
   </g>
   <g id="line2d_78">
    <path d="M 1088.983375 456.820202 
L 1088.983375 456.352991 
" clip-path="url(#pd73dc30f3d)" style="fill: none; stroke: #424242; stroke-width: 2.25; stroke-linecap: square"/>
   </g>
   <g id="line2d_79">
    <path d="M 1162.949625 456.628956 
L 1162.949625 456.248016 
" clip-path="url(#pd73dc30f3d)" style="fill: none; stroke: #424242; stroke-width: 2.25; stroke-linecap: square"/>
   </g>
   <g id="line2d_80">
    <path d="M 1236.915875 458.357343 
L 1236.915875 458.04471 
" clip-path="url(#pd73dc30f3d)" style="fill: none; stroke: #424242; stroke-width: 2.25; stroke-linecap: square"/>
   </g>
   <g id="line2d_81">
    <path d="M 733.945375 451.680877 
L 733.945375 451.677181 
" clip-path="url(#pd73dc30f3d)" style="fill: none; stroke: #424242; stroke-width: 2.25; stroke-linecap: square"/>
   </g>
   <g id="line2d_82">
    <path d="M 807.911625 381.077994 
L 807.911625 381.036595 
" clip-path="url(#pd73dc30f3d)" style="fill: none; stroke: #424242; stroke-width: 2.25; stroke-linecap: square"/>
   </g>
   <g id="line2d_83">
    <path d="M 881.877875 381.083908 
L 881.877875 381.049163 
" clip-path="url(#pd73dc30f3d)" style="fill: none; stroke: #424242; stroke-width: 2.25; stroke-linecap: square"/>
   </g>
   <g id="line2d_84">
    <path d="M 955.844125 249.340649 
L 955.844125 249.294815 
" clip-path="url(#pd73dc30f3d)" style="fill: none; stroke: #424242; stroke-width: 2.25; stroke-linecap: square"/>
   </g>
   <g id="line2d_85">
    <path d="M 1029.810375 249.314775 
L 1029.810375 249.276334 
" clip-path="url(#pd73dc30f3d)" style="fill: none; stroke: #424242; stroke-width: 2.25; stroke-linecap: square"/>
   </g>
   <g id="line2d_86">
    <path d="M 1103.776625 249.348781 
L 1103.776625 249.321429 
" clip-path="url(#pd73dc30f3d)" style="fill: none; stroke: #424242; stroke-width: 2.25; stroke-linecap: square"/>
   </g>
   <g id="line2d_87">
    <path d="M 1177.742875 54.772985 
L 1177.742875 54.64879 
" clip-path="url(#pd73dc30f3d)" style="fill: none; stroke: #424242; stroke-width: 2.25; stroke-linecap: square"/>
   </g>
   <g id="line2d_88">
    <path d="M 1251.709125 54.80773 
L 1251.709125 54.702016 
" clip-path="url(#pd73dc30f3d)" style="fill: none; stroke: #424242; stroke-width: 2.25; stroke-linecap: square"/>
   </g>
   <g id="line2d_89">
    <path d="M 748.738625 454.787241 
L 748.738625 454.770239 
" clip-path="url(#pd73dc30f3d)" style="fill: none; stroke: #424242; stroke-width: 2.25; stroke-linecap: square"/>
   </g>
   <g id="line2d_90">
    <path d="M 822.704875 391.853426 
L 822.704875 391.814245 
" clip-path="url(#pd73dc30f3d)" style="fill: none; stroke: #424242; stroke-width: 2.25; stroke-linecap: square"/>
   </g>
   <g id="line2d_91">
    <path d="M 896.671125 290.546179 
L 896.671125 290.433073 
" clip-path="url(#pd73dc30f3d)" style="fill: none; stroke: #424242; stroke-width: 2.25; stroke-linecap: square"/>
   </g>
   <g id="line2d_92">
    <path d="M 970.637375 290.541004 
L 970.637375 290.205381 
" clip-path="url(#pd73dc30f3d)" style="fill: none; stroke: #424242; stroke-width: 2.25; stroke-linecap: square"/>
   </g>
   <g id="line2d_93">
    <path d="M 1044.603625 166.27091 
L 1044.603625 165.641801 
" clip-path="url(#pd73dc30f3d)" style="fill: none; stroke: #424242; stroke-width: 2.25; stroke-linecap: square"/>
   </g>
   <g id="line2d_94">
    <path d="M 1118.569875 163.673895 
L 1118.569875 163.122408 
" clip-path="url(#pd73dc30f3d)" style="fill: none; stroke: #424242; stroke-width: 2.25; stroke-linecap: square"/>
   </g>
   <g id="line2d_95">
    <path d="M 1192.536125 163.533436 
L 1192.536125 163.494255 
" clip-path="url(#pd73dc30f3d)" style="fill: none; stroke: #424242; stroke-width: 2.25; stroke-linecap: square"/>
   </g>
   <g id="line2d_96">
    <path d="M 1266.502375 32.366799 
L 1266.502375 32.11619 
" clip-path="url(#pd73dc30f3d)" style="fill: none; stroke: #424242; stroke-width: 2.25; stroke-linecap: square"/>
   </g>
   <g id="patch_85">
    <path d="M 689.565625 530.44 
L 689.565625 7.2 
" style="fill: none; stroke: #000000; stroke-width: 0.8; stroke-linejoin: miter; stroke-linecap: square"/>
   </g>
   <g id="patch_86">
    <path d="M 1281.295625 530.44 
L 1281.295625 7.2 
" style="fill: none; stroke: #000000; stroke-width: 0.8; stroke-linejoin: miter; stroke-linecap: square"/>
   </g>
   <g id="patch_87">
    <path d="M 689.565625 530.44 
L 1281.295625 530.44 
" style="fill: none; stroke: #000000; stroke-width: 0.8; stroke-linejoin: miter; stroke-linecap: square"/>
   </g>
   <g id="patch_88">
    <path d="M 689.565625 7.2 
L 1281.295625 7.2 
" style="fill: none; stroke: #000000; stroke-width: 0.8; stroke-linejoin: miter; stroke-linecap: square"/>
   </g>
   <g id="legend_2">
    <g id="patch_89">
     <path d="M 696.565625 88.590625 
L 858.289063 88.590625 
Q 860.289063 88.590625 860.289063 86.590625 
L 860.289063 14.2 
Q 860.289063 12.2 858.289063 12.2 
L 696.565625 12.2 
Q 694.565625 12.2 694.565625 14.2 
L 694.565625 86.590625 
Q 694.565625 88.590625 696.565625 88.590625 
z
" style="fill: #ffffff; opacity: 0.8; stroke: #cccccc; stroke-linejoin: miter"/>
    </g>
    <g id="text_42">
     <!-- Firts BSS devices configuration: -->
     <g transform="translate(698.565625 23.798437) scale(0.1 -0.1)">
      <use xlink:href="#DejaVuSans-46"/>
      <use xlink:href="#DejaVuSans-69" x="50.269531"/>
      <use xlink:href="#DejaVuSans-72" x="78.052734"/>
      <use xlink:href="#DejaVuSans-74" x="119.166016"/>
      <use xlink:href="#DejaVuSans-73" x="158.375"/>
      <use xlink:href="#DejaVuSans-20" x="210.474609"/>
      <use xlink:href="#DejaVuSans-42" x="242.261719"/>
      <use xlink:href="#DejaVuSans-53" x="309.115234"/>
      <use xlink:href="#DejaVuSans-53" x="372.591797"/>
      <use xlink:href="#DejaVuSans-20" x="436.068359"/>
      <use xlink:href="#DejaVuSans-64" x="467.855469"/>
      <use xlink:href="#DejaVuSans-65" x="531.332031"/>
      <use xlink:href="#DejaVuSans-76" x="592.855469"/>
      <use xlink:href="#DejaVuSans-69" x="652.035156"/>
      <use xlink:href="#DejaVuSans-63" x="679.818359"/>
      <use xlink:href="#DejaVuSans-65" x="734.798828"/>
      <use xlink:href="#DejaVuSans-73" x="796.322266"/>
      <use xlink:href="#DejaVuSans-20" x="848.421875"/>
      <use xlink:href="#DejaVuSans-63" x="880.208984"/>
      <use xlink:href="#DejaVuSans-6f" x="935.189453"/>
      <use xlink:href="#DejaVuSans-6e" x="996.371094"/>
      <use xlink:href="#DejaVuSans-66" x="1059.75"/>
      <use xlink:href="#DejaVuSans-69" x="1094.955078"/>
      <use xlink:href="#DejaVuSans-67" x="1122.738281"/>
      <use xlink:href="#DejaVuSans-75" x="1186.214844"/>
      <use xlink:href="#DejaVuSans-72" x="1249.59375"/>
      <use xlink:href="#DejaVuSans-61" x="1290.707031"/>
      <use xlink:href="#DejaVuSans-74" x="1351.986328"/>
      <use xlink:href="#DejaVuSans-69" x="1391.195312"/>
      <use xlink:href="#DejaVuSans-6f" x="1418.978516"/>
      <use xlink:href="#DejaVuSans-6e" x="1480.160156"/>
      <use xlink:href="#DejaVuSans-3a" x="1543.539062"/>
     </g>
    </g>
    <g id="patch_90">
     <path d="M 759.577344 38.476562 
L 779.577344 38.476562 
L 779.577344 31.476562 
L 759.577344 31.476562 
z
" style="fill: #0c3b50"/>
    </g>
    <g id="text_43">
     <!-- A -->
     <g transform="translate(787.577344 38.476562) scale(0.1 -0.1)">
      <use xlink:href="#DejaVuSans-41"/>
     </g>
    </g>
    <g id="patch_91">
     <path d="M 759.577344 53.154688 
L 779.577344 53.154688 
L 779.577344 46.154688 
L 759.577344 46.154688 
z
" style="fill: #785a8c"/>
    </g>
    <g id="text_44">
     <!-- B -->
     <g transform="translate(787.577344 53.154688) scale(0.1 -0.1)">
      <use xlink:href="#DejaVuSans-42"/>
     </g>
    </g>
    <g id="patch_92">
     <path d="M 759.577344 67.832812 
L 779.577344 67.832812 
L 779.577344 60.832812 
L 759.577344 60.832812 
z
" style="fill: #dc6980"/>
    </g>
    <g id="text_45">
     <!-- C -->
     <g transform="translate(787.577344 67.832812) scale(0.1 -0.1)">
      <use xlink:href="#DejaVuSans-43"/>
     </g>
    </g>
    <g id="patch_93">
     <path d="M 759.577344 82.510938 
L 779.577344 82.510938 
L 779.577344 75.510938 
L 759.577344 75.510938 
z
" style="fill: #df9c20"/>
    </g>
    <g id="text_46">
     <!-- D -->
     <g transform="translate(787.577344 82.510938) scale(0.1 -0.1)">
      <use xlink:href="#DejaVuSans-44"/>
     </g>
    </g>
   </g>
  </g>
 </g>
 <defs>
  <clipPath id="p7ff794b85a">
   <rect x="46.965625" y="7.2" width="591.73" height="523.24"/>
  </clipPath>
  <clipPath id="pd73dc30f3d">
   <rect x="689.565625" y="7.2" width="591.73" height="523.24"/>
  </clipPath>
 </defs>
</svg>
