<?xml version="1.0" encoding="utf-8" standalone="no"?>
<!DOCTYPE svg PUBLIC "-//W3C//DTD SVG 1.1//EN"
  "http://www.w3.org/Graphics/SVG/1.1/DTD/svg11.dtd">
<svg xmlns:xlink="http://www.w3.org/1999/xlink" width="1288.37125pt" height="567.99625pt" viewBox="0 0 1288.37125 567.99625" xmlns="http://www.w3.org/2000/svg" version="1.1">
 <metadata>
  <rdf:RDF xmlns:dc="http://purl.org/dc/elements/1.1/" xmlns:cc="http://creativecommons.org/ns#" xmlns:rdf="http://www.w3.org/1999/02/22-rdf-syntax-ns#">
   <cc:Work>
    <dc:type rdf:resource="http://purl.org/dc/dcmitype/StillImage"/>
    <dc:date>2025-06-14T16:38:53.326216</dc:date>
    <dc:format>image/svg+xml</dc:format>
    <dc:creator>
     <cc:Agent>
      <dc:title>Matplotlib v3.10.1, https://matplotlib.org/</dc:title>
     </cc:Agent>
    </dc:creator>
   </cc:Work>
  </rdf:RDF>
 </metadata>
 <defs>
  <style type="text/css">*{stroke-linejoin: round; stroke-linecap: butt}</style>
 </defs>
 <g id="figure_1">
  <g id="patch_1">
   <path d="M 0 567.99625 
L 1288.37125 567.99625 
L 1288.37125 0 
L 0 0 
z
" style="fill: #ffffff"/>
  </g>
  <g id="axes_1">
   <g id="patch_2">
    <path d="M 43.78125 530.44 
L 645.61125 530.44 
L 645.61125 7.2 
L 43.78125 7.2 
z
" style="fill: #ffffff"/>
   </g>
   <g id="patch_3">
    <path d="M 51.304125 530.44 
L 66.349875 530.44 
L 66.349875 87.217759 
L 51.304125 87.217759 
z
" clip-path="url(#p78fb699968)" style="fill: #0c3b50"/>
   </g>
   <g id="patch_4">
    <path d="M 126.532875 530.44 
L 141.578625 530.44 
L 141.578625 248.066455 
L 126.532875 248.066455 
z
" clip-path="url(#p78fb699968)" style="fill: #0c3b50"/>
   </g>
   <g id="patch_5">
    <path d="M 201.761625 530.44 
L 216.807375 530.44 
L 216.807375 82.736363 
L 201.761625 82.736363 
z
" clip-path="url(#p78fb699968)" style="fill: #0c3b50"/>
   </g>
   <g id="patch_6">
    <path d="M 276.990375 530.44 
L 292.036125 530.44 
L 292.036125 83.32629 
L 276.990375 83.32629 
z
" clip-path="url(#p78fb699968)" style="fill: #0c3b50"/>
   </g>
   <g id="patch_7">
    <path d="M 352.219125 530.44 
L 367.264875 530.44 
L 367.264875 82.103345 
L 352.219125 82.103345 
z
" clip-path="url(#p78fb699968)" style="fill: #0c3b50"/>
   </g>
   <g id="patch_8">
    <path d="M 427.447875 530.44 
L 442.493625 530.44 
L 442.493625 241.006921 
L 427.447875 241.006921 
z
" clip-path="url(#p78fb699968)" style="fill: #0c3b50"/>
   </g>
   <g id="patch_9">
    <path d="M 502.676625 530.44 
L 517.722375 530.44 
L 517.722375 240.443258 
L 502.676625 240.443258 
z
" clip-path="url(#p78fb699968)" style="fill: #0c3b50"/>
   </g>
   <g id="patch_10">
    <path d="M 577.905375 530.44 
L 592.951125 530.44 
L 592.951125 236.044965 
L 577.905375 236.044965 
z
" clip-path="url(#p78fb699968)" style="fill: #0c3b50"/>
   </g>
   <g id="patch_11">
    <path d="M 66.349875 530.44 
L 81.395625 530.44 
L 81.395625 84.605663 
L 66.349875 84.605663 
z
" clip-path="url(#p78fb699968)" style="fill: #785a8c"/>
   </g>
   <g id="patch_12">
    <path d="M 141.578625 530.44 
L 156.624375 530.44 
L 156.624375 248.62704 
L 141.578625 248.62704 
z
" clip-path="url(#p78fb699968)" style="fill: #785a8c"/>
   </g>
   <g id="patch_13">
    <path d="M 216.807375 530.44 
L 231.853125 530.44 
L 231.853125 69.949813 
L 216.807375 69.949813 
z
" clip-path="url(#p78fb699968)" style="fill: #785a8c"/>
   </g>
   <g id="patch_14">
    <path d="M 292.036125 530.44 
L 307.081875 530.44 
L 307.081875 69.553793 
L 292.036125 69.553793 
z
" clip-path="url(#p78fb699968)" style="fill: #785a8c"/>
   </g>
   <g id="patch_15">
    <path d="M 367.264875 530.44 
L 382.310625 530.44 
L 382.310625 59.562987 
L 367.264875 59.562987 
z
" clip-path="url(#p78fb699968)" style="fill: #785a8c"/>
   </g>
   <g id="patch_16">
    <path d="M 442.493625 530.44 
L 457.539375 530.44 
L 457.539375 237.252828 
L 442.493625 237.252828 
z
" clip-path="url(#p78fb699968)" style="fill: #785a8c"/>
   </g>
   <g id="patch_17">
    <path d="M 517.722375 530.44 
L 532.768125 530.44 
L 532.768125 237.284736 
L 517.722375 237.284736 
z
" clip-path="url(#p78fb699968)" style="fill: #785a8c"/>
   </g>
   <g id="patch_18">
    <path d="M 592.951125 530.44 
L 607.996875 530.44 
L 607.996875 231.535149 
L 592.951125 231.535149 
z
" clip-path="url(#p78fb699968)" style="fill: #785a8c"/>
   </g>
   <g id="patch_19">
    <path d="M 81.395625 530.44 
L 96.441375 530.44 
L 96.441375 512.797394 
L 81.395625 512.797394 
z
" clip-path="url(#p78fb699968)" style="fill: #dc6980"/>
   </g>
   <g id="patch_20">
    <path d="M 156.624375 530.44 
L 171.670125 530.44 
L 171.670125 519.883766 
L 156.624375 519.883766 
z
" clip-path="url(#p78fb699968)" style="fill: #dc6980"/>
   </g>
   <g id="patch_21">
    <path d="M 231.853125 530.44 
L 246.898875 530.44 
L 246.898875 519.865617 
L 231.853125 519.865617 
z
" clip-path="url(#p78fb699968)" style="fill: #dc6980"/>
   </g>
   <g id="patch_22">
    <path d="M 307.081875 530.44 
L 322.127625 530.44 
L 322.127625 523.463733 
L 307.081875 523.463733 
z
" clip-path="url(#p78fb699968)" style="fill: #dc6980"/>
   </g>
   <g id="patch_23">
    <path d="M 382.310625 530.44 
L 397.356375 530.44 
L 397.356375 523.516714 
L 382.310625 523.516714 
z
" clip-path="url(#p78fb699968)" style="fill: #dc6980"/>
   </g>
   <g id="patch_24">
    <path d="M 457.539375 530.44 
L 472.585125 530.44 
L 472.585125 523.404402 
L 457.539375 523.404402 
z
" clip-path="url(#p78fb699968)" style="fill: #dc6980"/>
   </g>
   <g id="patch_25">
    <path d="M 532.768125 530.44 
L 547.813875 530.44 
L 547.813875 524.888526 
L 532.768125 524.888526 
z
" clip-path="url(#p78fb699968)" style="fill: #dc6980"/>
   </g>
   <g id="patch_26">
    <path d="M 607.996875 530.44 
L 623.042625 530.44 
L 623.042625 524.872973 
L 607.996875 524.872973 
z
" clip-path="url(#p78fb699968)" style="fill: #dc6980"/>
   </g>
   <g id="patch_27">
    <path d="M 96.441375 530.44 
L 111.487125 530.44 
L 111.487125 489.440042 
L 96.441375 489.440042 
z
" clip-path="url(#p78fb699968)" style="fill: #df9c20"/>
   </g>
   <g id="patch_28">
    <path d="M 171.670125 530.44 
L 186.715875 530.44 
L 186.715875 382.750893 
L 171.670125 382.750893 
z
" clip-path="url(#p78fb699968)" style="fill: #df9c20"/>
   </g>
   <g id="patch_29">
    <path d="M 246.898875 530.44 
L 261.944625 530.44 
L 261.944625 430.608783 
L 246.898875 430.608783 
z
" clip-path="url(#p78fb699968)" style="fill: #df9c20"/>
   </g>
   <g id="patch_30">
    <path d="M 322.127625 530.44 
L 337.173375 530.44 
L 337.173375 430.484539 
L 322.127625 430.484539 
z
" clip-path="url(#p78fb699968)" style="fill: #df9c20"/>
   </g>
   <g id="patch_31">
    <path d="M 397.356375 530.44 
L 412.402125 530.44 
L 412.402125 457.723798 
L 397.356375 457.723798 
z
" clip-path="url(#p78fb699968)" style="fill: #df9c20"/>
   </g>
   <g id="patch_32">
    <path d="M 472.585125 530.44 
L 487.630875 530.44 
L 487.630875 458.187943 
L 472.585125 458.187943 
z
" clip-path="url(#p78fb699968)" style="fill: #df9c20"/>
   </g>
   <g id="patch_33">
    <path d="M 547.813875 530.44 
L 562.859625 530.44 
L 562.859625 458.181992 
L 547.813875 458.181992 
z
" clip-path="url(#p78fb699968)" style="fill: #df9c20"/>
   </g>
   <g id="patch_34">
    <path d="M 623.042625 530.44 
L 638.088375 530.44 
L 638.088375 476.204019 
L 623.042625 476.204019 
z
" clip-path="url(#p78fb699968)" style="fill: #df9c20"/>
   </g>
   <g id="patch_35">
    <path d="M 81.395625 530.44 
L 81.395625 530.44 
L 81.395625 530.44 
L 81.395625 530.44 
z
" clip-path="url(#p78fb699968)" style="fill: #0c3b50"/>
   </g>
   <g id="patch_36">
    <path d="M 81.395625 530.44 
L 81.395625 530.44 
L 81.395625 530.44 
L 81.395625 530.44 
z
" clip-path="url(#p78fb699968)" style="fill: #785a8c"/>
   </g>
   <g id="patch_37">
    <path d="M 81.395625 530.44 
L 81.395625 530.44 
L 81.395625 530.44 
L 81.395625 530.44 
z
" clip-path="url(#p78fb699968)" style="fill: #dc6980"/>
   </g>
   <g id="patch_38">
    <path d="M 81.395625 530.44 
L 81.395625 530.44 
L 81.395625 530.44 
L 81.395625 530.44 
z
" clip-path="url(#p78fb699968)" style="fill: #df9c20"/>
   </g>
   <g id="matplotlib.axis_1">
    <g id="xtick_1">
     <g id="line2d_1">
      <defs>
       <path id="m784ae43535" d="M 0 0 
L 0 3.5 
" style="stroke: #000000; stroke-width: 0.8"/>
      </defs>
      <g>
       <use xlink:href="#m784ae43535" x="81.395625" y="530.44" style="stroke: #000000; stroke-width: 0.8"/>
      </g>
     </g>
     <g id="text_1">
      <!-- 1 -->
      <g transform="translate(78.214375 545.038437) scale(0.1 -0.1)">
       <defs>
        <path id="DejaVuSans-31" d="M 794 531 
L 1825 531 
L 1825 4091 
L 703 3866 
L 703 4441 
L 1819 4666 
L 2450 4666 
L 2450 531 
L 3481 531 
L 3481 0 
L 794 0 
L 794 531 
z
" transform="scale(0.015625)"/>
       </defs>
       <use xlink:href="#DejaVuSans-31"/>
      </g>
     </g>
    </g>
    <g id="xtick_2">
     <g id="line2d_2">
      <g>
       <use xlink:href="#m784ae43535" x="156.624375" y="530.44" style="stroke: #000000; stroke-width: 0.8"/>
      </g>
     </g>
     <g id="text_2">
      <!-- 2 -->
      <g transform="translate(153.443125 545.038437) scale(0.1 -0.1)">
       <defs>
        <path id="DejaVuSans-32" d="M 1228 531 
L 3431 531 
L 3431 0 
L 469 0 
L 469 531 
Q 828 903 1448 1529 
Q 2069 2156 2228 2338 
Q 2531 2678 2651 2914 
Q 2772 3150 2772 3378 
Q 2772 3750 2511 3984 
Q 2250 4219 1831 4219 
Q 1534 4219 1204 4116 
Q 875 4013 500 3803 
L 500 4441 
Q 881 4594 1212 4672 
Q 1544 4750 1819 4750 
Q 2544 4750 2975 4387 
Q 3406 4025 3406 3419 
Q 3406 3131 3298 2873 
Q 3191 2616 2906 2266 
Q 2828 2175 2409 1742 
Q 1991 1309 1228 531 
z
" transform="scale(0.015625)"/>
       </defs>
       <use xlink:href="#DejaVuSans-32"/>
      </g>
     </g>
    </g>
    <g id="xtick_3">
     <g id="line2d_3">
      <g>
       <use xlink:href="#m784ae43535" x="231.853125" y="530.44" style="stroke: #000000; stroke-width: 0.8"/>
      </g>
     </g>
     <g id="text_3">
      <!-- 3 -->
      <g transform="translate(228.671875 545.038437) scale(0.1 -0.1)">
       <defs>
        <path id="DejaVuSans-33" d="M 2597 2516 
Q 3050 2419 3304 2112 
Q 3559 1806 3559 1356 
Q 3559 666 3084 287 
Q 2609 -91 1734 -91 
Q 1441 -91 1130 -33 
Q 819 25 488 141 
L 488 750 
Q 750 597 1062 519 
Q 1375 441 1716 441 
Q 2309 441 2620 675 
Q 2931 909 2931 1356 
Q 2931 1769 2642 2001 
Q 2353 2234 1838 2234 
L 1294 2234 
L 1294 2753 
L 1863 2753 
Q 2328 2753 2575 2939 
Q 2822 3125 2822 3475 
Q 2822 3834 2567 4026 
Q 2313 4219 1838 4219 
Q 1578 4219 1281 4162 
Q 984 4106 628 3988 
L 628 4550 
Q 988 4650 1302 4700 
Q 1616 4750 1894 4750 
Q 2613 4750 3031 4423 
Q 3450 4097 3450 3541 
Q 3450 3153 3228 2886 
Q 3006 2619 2597 2516 
z
" transform="scale(0.015625)"/>
       </defs>
       <use xlink:href="#DejaVuSans-33"/>
      </g>
     </g>
    </g>
    <g id="xtick_4">
     <g id="line2d_4">
      <g>
       <use xlink:href="#m784ae43535" x="307.081875" y="530.44" style="stroke: #000000; stroke-width: 0.8"/>
      </g>
     </g>
     <g id="text_4">
      <!-- 4 -->
      <g transform="translate(303.900625 545.038437) scale(0.1 -0.1)">
       <defs>
        <path id="DejaVuSans-34" d="M 2419 4116 
L 825 1625 
L 2419 1625 
L 2419 4116 
z
M 2253 4666 
L 3047 4666 
L 3047 1625 
L 3713 1625 
L 3713 1100 
L 3047 1100 
L 3047 0 
L 2419 0 
L 2419 1100 
L 313 1100 
L 313 1709 
L 2253 4666 
z
" transform="scale(0.015625)"/>
       </defs>
       <use xlink:href="#DejaVuSans-34"/>
      </g>
     </g>
    </g>
    <g id="xtick_5">
     <g id="line2d_5">
      <g>
       <use xlink:href="#m784ae43535" x="382.310625" y="530.44" style="stroke: #000000; stroke-width: 0.8"/>
      </g>
     </g>
     <g id="text_5">
      <!-- 5 -->
      <g transform="translate(379.129375 545.038437) scale(0.1 -0.1)">
       <defs>
        <path id="DejaVuSans-35" d="M 691 4666 
L 3169 4666 
L 3169 4134 
L 1269 4134 
L 1269 2991 
Q 1406 3038 1543 3061 
Q 1681 3084 1819 3084 
Q 2600 3084 3056 2656 
Q 3513 2228 3513 1497 
Q 3513 744 3044 326 
Q 2575 -91 1722 -91 
Q 1428 -91 1123 -41 
Q 819 9 494 109 
L 494 744 
Q 775 591 1075 516 
Q 1375 441 1709 441 
Q 2250 441 2565 725 
Q 2881 1009 2881 1497 
Q 2881 1984 2565 2268 
Q 2250 2553 1709 2553 
Q 1456 2553 1204 2497 
Q 953 2441 691 2322 
L 691 4666 
z
" transform="scale(0.015625)"/>
       </defs>
       <use xlink:href="#DejaVuSans-35"/>
      </g>
     </g>
    </g>
    <g id="xtick_6">
     <g id="line2d_6">
      <g>
       <use xlink:href="#m784ae43535" x="457.539375" y="530.44" style="stroke: #000000; stroke-width: 0.8"/>
      </g>
     </g>
     <g id="text_6">
      <!-- 6 -->
      <g transform="translate(454.358125 545.038437) scale(0.1 -0.1)">
       <defs>
        <path id="DejaVuSans-36" d="M 2113 2584 
Q 1688 2584 1439 2293 
Q 1191 2003 1191 1497 
Q 1191 994 1439 701 
Q 1688 409 2113 409 
Q 2538 409 2786 701 
Q 3034 994 3034 1497 
Q 3034 2003 2786 2293 
Q 2538 2584 2113 2584 
z
M 3366 4563 
L 3366 3988 
Q 3128 4100 2886 4159 
Q 2644 4219 2406 4219 
Q 1781 4219 1451 3797 
Q 1122 3375 1075 2522 
Q 1259 2794 1537 2939 
Q 1816 3084 2150 3084 
Q 2853 3084 3261 2657 
Q 3669 2231 3669 1497 
Q 3669 778 3244 343 
Q 2819 -91 2113 -91 
Q 1303 -91 875 529 
Q 447 1150 447 2328 
Q 447 3434 972 4092 
Q 1497 4750 2381 4750 
Q 2619 4750 2861 4703 
Q 3103 4656 3366 4563 
z
" transform="scale(0.015625)"/>
       </defs>
       <use xlink:href="#DejaVuSans-36"/>
      </g>
     </g>
    </g>
    <g id="xtick_7">
     <g id="line2d_7">
      <g>
       <use xlink:href="#m784ae43535" x="532.768125" y="530.44" style="stroke: #000000; stroke-width: 0.8"/>
      </g>
     </g>
     <g id="text_7">
      <!-- 7 -->
      <g transform="translate(529.586875 545.038437) scale(0.1 -0.1)">
       <defs>
        <path id="DejaVuSans-37" d="M 525 4666 
L 3525 4666 
L 3525 4397 
L 1831 0 
L 1172 0 
L 2766 4134 
L 525 4134 
L 525 4666 
z
" transform="scale(0.015625)"/>
       </defs>
       <use xlink:href="#DejaVuSans-37"/>
      </g>
     </g>
    </g>
    <g id="xtick_8">
     <g id="line2d_8">
      <g>
       <use xlink:href="#m784ae43535" x="607.996875" y="530.44" style="stroke: #000000; stroke-width: 0.8"/>
      </g>
     </g>
     <g id="text_8">
      <!-- 8 -->
      <g transform="translate(604.815625 545.038437) scale(0.1 -0.1)">
       <defs>
        <path id="DejaVuSans-38" d="M 2034 2216 
Q 1584 2216 1326 1975 
Q 1069 1734 1069 1313 
Q 1069 891 1326 650 
Q 1584 409 2034 409 
Q 2484 409 2743 651 
Q 3003 894 3003 1313 
Q 3003 1734 2745 1975 
Q 2488 2216 2034 2216 
z
M 1403 2484 
Q 997 2584 770 2862 
Q 544 3141 544 3541 
Q 544 4100 942 4425 
Q 1341 4750 2034 4750 
Q 2731 4750 3128 4425 
Q 3525 4100 3525 3541 
Q 3525 3141 3298 2862 
Q 3072 2584 2669 2484 
Q 3125 2378 3379 2068 
Q 3634 1759 3634 1313 
Q 3634 634 3220 271 
Q 2806 -91 2034 -91 
Q 1263 -91 848 271 
Q 434 634 434 1313 
Q 434 1759 690 2068 
Q 947 2378 1403 2484 
z
M 1172 3481 
Q 1172 3119 1398 2916 
Q 1625 2713 2034 2713 
Q 2441 2713 2670 2916 
Q 2900 3119 2900 3481 
Q 2900 3844 2670 4047 
Q 2441 4250 2034 4250 
Q 1625 4250 1398 4047 
Q 1172 3844 1172 3481 
z
" transform="scale(0.015625)"/>
       </defs>
       <use xlink:href="#DejaVuSans-38"/>
      </g>
     </g>
    </g>
    <g id="text_9">
     <!-- Channel widths configuration number -->
     <g transform="translate(250.335313 558.716562) scale(0.1 -0.1)">
      <defs>
       <path id="DejaVuSans-43" d="M 4122 4306 
L 4122 3641 
Q 3803 3938 3442 4084 
Q 3081 4231 2675 4231 
Q 1875 4231 1450 3742 
Q 1025 3253 1025 2328 
Q 1025 1406 1450 917 
Q 1875 428 2675 428 
Q 3081 428 3442 575 
Q 3803 722 4122 1019 
L 4122 359 
Q 3791 134 3420 21 
Q 3050 -91 2638 -91 
Q 1578 -91 968 557 
Q 359 1206 359 2328 
Q 359 3453 968 4101 
Q 1578 4750 2638 4750 
Q 3056 4750 3426 4639 
Q 3797 4528 4122 4306 
z
" transform="scale(0.015625)"/>
       <path id="DejaVuSans-68" d="M 3513 2113 
L 3513 0 
L 2938 0 
L 2938 2094 
Q 2938 2591 2744 2837 
Q 2550 3084 2163 3084 
Q 1697 3084 1428 2787 
Q 1159 2491 1159 1978 
L 1159 0 
L 581 0 
L 581 4863 
L 1159 4863 
L 1159 2956 
Q 1366 3272 1645 3428 
Q 1925 3584 2291 3584 
Q 2894 3584 3203 3211 
Q 3513 2838 3513 2113 
z
" transform="scale(0.015625)"/>
       <path id="DejaVuSans-61" d="M 2194 1759 
Q 1497 1759 1228 1600 
Q 959 1441 959 1056 
Q 959 750 1161 570 
Q 1363 391 1709 391 
Q 2188 391 2477 730 
Q 2766 1069 2766 1631 
L 2766 1759 
L 2194 1759 
z
M 3341 1997 
L 3341 0 
L 2766 0 
L 2766 531 
Q 2569 213 2275 61 
Q 1981 -91 1556 -91 
Q 1019 -91 701 211 
Q 384 513 384 1019 
Q 384 1609 779 1909 
Q 1175 2209 1959 2209 
L 2766 2209 
L 2766 2266 
Q 2766 2663 2505 2880 
Q 2244 3097 1772 3097 
Q 1472 3097 1187 3025 
Q 903 2953 641 2809 
L 641 3341 
Q 956 3463 1253 3523 
Q 1550 3584 1831 3584 
Q 2591 3584 2966 3190 
Q 3341 2797 3341 1997 
z
" transform="scale(0.015625)"/>
       <path id="DejaVuSans-6e" d="M 3513 2113 
L 3513 0 
L 2938 0 
L 2938 2094 
Q 2938 2591 2744 2837 
Q 2550 3084 2163 3084 
Q 1697 3084 1428 2787 
Q 1159 2491 1159 1978 
L 1159 0 
L 581 0 
L 581 3500 
L 1159 3500 
L 1159 2956 
Q 1366 3272 1645 3428 
Q 1925 3584 2291 3584 
Q 2894 3584 3203 3211 
Q 3513 2838 3513 2113 
z
" transform="scale(0.015625)"/>
       <path id="DejaVuSans-65" d="M 3597 1894 
L 3597 1613 
L 953 1613 
Q 991 1019 1311 708 
Q 1631 397 2203 397 
Q 2534 397 2845 478 
Q 3156 559 3463 722 
L 3463 178 
Q 3153 47 2828 -22 
Q 2503 -91 2169 -91 
Q 1331 -91 842 396 
Q 353 884 353 1716 
Q 353 2575 817 3079 
Q 1281 3584 2069 3584 
Q 2775 3584 3186 3129 
Q 3597 2675 3597 1894 
z
M 3022 2063 
Q 3016 2534 2758 2815 
Q 2500 3097 2075 3097 
Q 1594 3097 1305 2825 
Q 1016 2553 972 2059 
L 3022 2063 
z
" transform="scale(0.015625)"/>
       <path id="DejaVuSans-6c" d="M 603 4863 
L 1178 4863 
L 1178 0 
L 603 0 
L 603 4863 
z
" transform="scale(0.015625)"/>
       <path id="DejaVuSans-20" transform="scale(0.015625)"/>
       <path id="DejaVuSans-77" d="M 269 3500 
L 844 3500 
L 1563 769 
L 2278 3500 
L 2956 3500 
L 3675 769 
L 4391 3500 
L 4966 3500 
L 4050 0 
L 3372 0 
L 2619 2869 
L 1863 0 
L 1184 0 
L 269 3500 
z
" transform="scale(0.015625)"/>
       <path id="DejaVuSans-69" d="M 603 3500 
L 1178 3500 
L 1178 0 
L 603 0 
L 603 3500 
z
M 603 4863 
L 1178 4863 
L 1178 4134 
L 603 4134 
L 603 4863 
z
" transform="scale(0.015625)"/>
       <path id="DejaVuSans-64" d="M 2906 2969 
L 2906 4863 
L 3481 4863 
L 3481 0 
L 2906 0 
L 2906 525 
Q 2725 213 2448 61 
Q 2172 -91 1784 -91 
Q 1150 -91 751 415 
Q 353 922 353 1747 
Q 353 2572 751 3078 
Q 1150 3584 1784 3584 
Q 2172 3584 2448 3432 
Q 2725 3281 2906 2969 
z
M 947 1747 
Q 947 1113 1208 752 
Q 1469 391 1925 391 
Q 2381 391 2643 752 
Q 2906 1113 2906 1747 
Q 2906 2381 2643 2742 
Q 2381 3103 1925 3103 
Q 1469 3103 1208 2742 
Q 947 2381 947 1747 
z
" transform="scale(0.015625)"/>
       <path id="DejaVuSans-74" d="M 1172 4494 
L 1172 3500 
L 2356 3500 
L 2356 3053 
L 1172 3053 
L 1172 1153 
Q 1172 725 1289 603 
Q 1406 481 1766 481 
L 2356 481 
L 2356 0 
L 1766 0 
Q 1100 0 847 248 
Q 594 497 594 1153 
L 594 3053 
L 172 3053 
L 172 3500 
L 594 3500 
L 594 4494 
L 1172 4494 
z
" transform="scale(0.015625)"/>
       <path id="DejaVuSans-73" d="M 2834 3397 
L 2834 2853 
Q 2591 2978 2328 3040 
Q 2066 3103 1784 3103 
Q 1356 3103 1142 2972 
Q 928 2841 928 2578 
Q 928 2378 1081 2264 
Q 1234 2150 1697 2047 
L 1894 2003 
Q 2506 1872 2764 1633 
Q 3022 1394 3022 966 
Q 3022 478 2636 193 
Q 2250 -91 1575 -91 
Q 1294 -91 989 -36 
Q 684 19 347 128 
L 347 722 
Q 666 556 975 473 
Q 1284 391 1588 391 
Q 1994 391 2212 530 
Q 2431 669 2431 922 
Q 2431 1156 2273 1281 
Q 2116 1406 1581 1522 
L 1381 1569 
Q 847 1681 609 1914 
Q 372 2147 372 2553 
Q 372 3047 722 3315 
Q 1072 3584 1716 3584 
Q 2034 3584 2315 3537 
Q 2597 3491 2834 3397 
z
" transform="scale(0.015625)"/>
       <path id="DejaVuSans-63" d="M 3122 3366 
L 3122 2828 
Q 2878 2963 2633 3030 
Q 2388 3097 2138 3097 
Q 1578 3097 1268 2742 
Q 959 2388 959 1747 
Q 959 1106 1268 751 
Q 1578 397 2138 397 
Q 2388 397 2633 464 
Q 2878 531 3122 666 
L 3122 134 
Q 2881 22 2623 -34 
Q 2366 -91 2075 -91 
Q 1284 -91 818 406 
Q 353 903 353 1747 
Q 353 2603 823 3093 
Q 1294 3584 2113 3584 
Q 2378 3584 2631 3529 
Q 2884 3475 3122 3366 
z
" transform="scale(0.015625)"/>
       <path id="DejaVuSans-6f" d="M 1959 3097 
Q 1497 3097 1228 2736 
Q 959 2375 959 1747 
Q 959 1119 1226 758 
Q 1494 397 1959 397 
Q 2419 397 2687 759 
Q 2956 1122 2956 1747 
Q 2956 2369 2687 2733 
Q 2419 3097 1959 3097 
z
M 1959 3584 
Q 2709 3584 3137 3096 
Q 3566 2609 3566 1747 
Q 3566 888 3137 398 
Q 2709 -91 1959 -91 
Q 1206 -91 779 398 
Q 353 888 353 1747 
Q 353 2609 779 3096 
Q 1206 3584 1959 3584 
z
" transform="scale(0.015625)"/>
       <path id="DejaVuSans-66" d="M 2375 4863 
L 2375 4384 
L 1825 4384 
Q 1516 4384 1395 4259 
Q 1275 4134 1275 3809 
L 1275 3500 
L 2222 3500 
L 2222 3053 
L 1275 3053 
L 1275 0 
L 697 0 
L 697 3053 
L 147 3053 
L 147 3500 
L 697 3500 
L 697 3744 
Q 697 4328 969 4595 
Q 1241 4863 1831 4863 
L 2375 4863 
z
" transform="scale(0.015625)"/>
       <path id="DejaVuSans-67" d="M 2906 1791 
Q 2906 2416 2648 2759 
Q 2391 3103 1925 3103 
Q 1463 3103 1205 2759 
Q 947 2416 947 1791 
Q 947 1169 1205 825 
Q 1463 481 1925 481 
Q 2391 481 2648 825 
Q 2906 1169 2906 1791 
z
M 3481 434 
Q 3481 -459 3084 -895 
Q 2688 -1331 1869 -1331 
Q 1566 -1331 1297 -1286 
Q 1028 -1241 775 -1147 
L 775 -588 
Q 1028 -725 1275 -790 
Q 1522 -856 1778 -856 
Q 2344 -856 2625 -561 
Q 2906 -266 2906 331 
L 2906 616 
Q 2728 306 2450 153 
Q 2172 0 1784 0 
Q 1141 0 747 490 
Q 353 981 353 1791 
Q 353 2603 747 3093 
Q 1141 3584 1784 3584 
Q 2172 3584 2450 3431 
Q 2728 3278 2906 2969 
L 2906 3500 
L 3481 3500 
L 3481 434 
z
" transform="scale(0.015625)"/>
       <path id="DejaVuSans-75" d="M 544 1381 
L 544 3500 
L 1119 3500 
L 1119 1403 
Q 1119 906 1312 657 
Q 1506 409 1894 409 
Q 2359 409 2629 706 
Q 2900 1003 2900 1516 
L 2900 3500 
L 3475 3500 
L 3475 0 
L 2900 0 
L 2900 538 
Q 2691 219 2414 64 
Q 2138 -91 1772 -91 
Q 1169 -91 856 284 
Q 544 659 544 1381 
z
M 1991 3584 
L 1991 3584 
z
" transform="scale(0.015625)"/>
       <path id="DejaVuSans-72" d="M 2631 2963 
Q 2534 3019 2420 3045 
Q 2306 3072 2169 3072 
Q 1681 3072 1420 2755 
Q 1159 2438 1159 1844 
L 1159 0 
L 581 0 
L 581 3500 
L 1159 3500 
L 1159 2956 
Q 1341 3275 1631 3429 
Q 1922 3584 2338 3584 
Q 2397 3584 2469 3576 
Q 2541 3569 2628 3553 
L 2631 2963 
z
" transform="scale(0.015625)"/>
       <path id="DejaVuSans-6d" d="M 3328 2828 
Q 3544 3216 3844 3400 
Q 4144 3584 4550 3584 
Q 5097 3584 5394 3201 
Q 5691 2819 5691 2113 
L 5691 0 
L 5113 0 
L 5113 2094 
Q 5113 2597 4934 2840 
Q 4756 3084 4391 3084 
Q 3944 3084 3684 2787 
Q 3425 2491 3425 1978 
L 3425 0 
L 2847 0 
L 2847 2094 
Q 2847 2600 2669 2842 
Q 2491 3084 2119 3084 
Q 1678 3084 1418 2786 
Q 1159 2488 1159 1978 
L 1159 0 
L 581 0 
L 581 3500 
L 1159 3500 
L 1159 2956 
Q 1356 3278 1631 3431 
Q 1906 3584 2284 3584 
Q 2666 3584 2933 3390 
Q 3200 3197 3328 2828 
z
" transform="scale(0.015625)"/>
       <path id="DejaVuSans-62" d="M 3116 1747 
Q 3116 2381 2855 2742 
Q 2594 3103 2138 3103 
Q 1681 3103 1420 2742 
Q 1159 2381 1159 1747 
Q 1159 1113 1420 752 
Q 1681 391 2138 391 
Q 2594 391 2855 752 
Q 3116 1113 3116 1747 
z
M 1159 2969 
Q 1341 3281 1617 3432 
Q 1894 3584 2278 3584 
Q 2916 3584 3314 3078 
Q 3713 2572 3713 1747 
Q 3713 922 3314 415 
Q 2916 -91 2278 -91 
Q 1894 -91 1617 61 
Q 1341 213 1159 525 
L 1159 0 
L 581 0 
L 581 4863 
L 1159 4863 
L 1159 2969 
z
" transform="scale(0.015625)"/>
      </defs>
      <use xlink:href="#DejaVuSans-43"/>
      <use xlink:href="#DejaVuSans-68" transform="translate(69.824219 0)"/>
      <use xlink:href="#DejaVuSans-61" transform="translate(133.203125 0)"/>
      <use xlink:href="#DejaVuSans-6e" transform="translate(194.482422 0)"/>
      <use xlink:href="#DejaVuSans-6e" transform="translate(257.861328 0)"/>
      <use xlink:href="#DejaVuSans-65" transform="translate(321.240234 0)"/>
      <use xlink:href="#DejaVuSans-6c" transform="translate(382.763672 0)"/>
      <use xlink:href="#DejaVuSans-20" transform="translate(410.546875 0)"/>
      <use xlink:href="#DejaVuSans-77" transform="translate(442.333984 0)"/>
      <use xlink:href="#DejaVuSans-69" transform="translate(524.121094 0)"/>
      <use xlink:href="#DejaVuSans-64" transform="translate(551.904297 0)"/>
      <use xlink:href="#DejaVuSans-74" transform="translate(615.380859 0)"/>
      <use xlink:href="#DejaVuSans-68" transform="translate(654.589844 0)"/>
      <use xlink:href="#DejaVuSans-73" transform="translate(717.96875 0)"/>
      <use xlink:href="#DejaVuSans-20" transform="translate(770.068359 0)"/>
      <use xlink:href="#DejaVuSans-63" transform="translate(801.855469 0)"/>
      <use xlink:href="#DejaVuSans-6f" transform="translate(856.835938 0)"/>
      <use xlink:href="#DejaVuSans-6e" transform="translate(918.017578 0)"/>
      <use xlink:href="#DejaVuSans-66" transform="translate(981.396484 0)"/>
      <use xlink:href="#DejaVuSans-69" transform="translate(1016.601562 0)"/>
      <use xlink:href="#DejaVuSans-67" transform="translate(1044.384766 0)"/>
      <use xlink:href="#DejaVuSans-75" transform="translate(1107.861328 0)"/>
      <use xlink:href="#DejaVuSans-72" transform="translate(1171.240234 0)"/>
      <use xlink:href="#DejaVuSans-61" transform="translate(1212.353516 0)"/>
      <use xlink:href="#DejaVuSans-74" transform="translate(1273.632812 0)"/>
      <use xlink:href="#DejaVuSans-69" transform="translate(1312.841797 0)"/>
      <use xlink:href="#DejaVuSans-6f" transform="translate(1340.625 0)"/>
      <use xlink:href="#DejaVuSans-6e" transform="translate(1401.806641 0)"/>
      <use xlink:href="#DejaVuSans-20" transform="translate(1465.185547 0)"/>
      <use xlink:href="#DejaVuSans-6e" transform="translate(1496.972656 0)"/>
      <use xlink:href="#DejaVuSans-75" transform="translate(1560.351562 0)"/>
      <use xlink:href="#DejaVuSans-6d" transform="translate(1623.730469 0)"/>
      <use xlink:href="#DejaVuSans-62" transform="translate(1721.142578 0)"/>
      <use xlink:href="#DejaVuSans-65" transform="translate(1784.619141 0)"/>
      <use xlink:href="#DejaVuSans-72" transform="translate(1846.142578 0)"/>
     </g>
    </g>
   </g>
   <g id="matplotlib.axis_2">
    <g id="ytick_1">
     <g id="line2d_9">
      <defs>
       <path id="m173f7d0ac5" d="M 0 0 
L -3.5 0 
" style="stroke: #000000; stroke-width: 0.8"/>
      </defs>
      <g>
       <use xlink:href="#m173f7d0ac5" x="43.78125" y="530.44" style="stroke: #000000; stroke-width: 0.8"/>
      </g>
     </g>
     <g id="text_10">
      <!-- 0.0 -->
      <g transform="translate(20.878125 534.239219) scale(0.1 -0.1)">
       <defs>
        <path id="DejaVuSans-30" d="M 2034 4250 
Q 1547 4250 1301 3770 
Q 1056 3291 1056 2328 
Q 1056 1369 1301 889 
Q 1547 409 2034 409 
Q 2525 409 2770 889 
Q 3016 1369 3016 2328 
Q 3016 3291 2770 3770 
Q 2525 4250 2034 4250 
z
M 2034 4750 
Q 2819 4750 3233 4129 
Q 3647 3509 3647 2328 
Q 3647 1150 3233 529 
Q 2819 -91 2034 -91 
Q 1250 -91 836 529 
Q 422 1150 422 2328 
Q 422 3509 836 4129 
Q 1250 4750 2034 4750 
z
" transform="scale(0.015625)"/>
        <path id="DejaVuSans-2e" d="M 684 794 
L 1344 794 
L 1344 0 
L 684 0 
L 684 794 
z
" transform="scale(0.015625)"/>
       </defs>
       <use xlink:href="#DejaVuSans-30"/>
       <use xlink:href="#DejaVuSans-2e" transform="translate(63.623047 0)"/>
       <use xlink:href="#DejaVuSans-30" transform="translate(95.410156 0)"/>
      </g>
     </g>
    </g>
    <g id="ytick_2">
     <g id="line2d_10">
      <g>
       <use xlink:href="#m173f7d0ac5" x="43.78125" y="468.882353" style="stroke: #000000; stroke-width: 0.8"/>
      </g>
     </g>
     <g id="text_11">
      <!-- 0.2 -->
      <g transform="translate(20.878125 472.681572) scale(0.1 -0.1)">
       <use xlink:href="#DejaVuSans-30"/>
       <use xlink:href="#DejaVuSans-2e" transform="translate(63.623047 0)"/>
       <use xlink:href="#DejaVuSans-32" transform="translate(95.410156 0)"/>
      </g>
     </g>
    </g>
    <g id="ytick_3">
     <g id="line2d_11">
      <g>
       <use xlink:href="#m173f7d0ac5" x="43.78125" y="407.324706" style="stroke: #000000; stroke-width: 0.8"/>
      </g>
     </g>
     <g id="text_12">
      <!-- 0.4 -->
      <g transform="translate(20.878125 411.123925) scale(0.1 -0.1)">
       <use xlink:href="#DejaVuSans-30"/>
       <use xlink:href="#DejaVuSans-2e" transform="translate(63.623047 0)"/>
       <use xlink:href="#DejaVuSans-34" transform="translate(95.410156 0)"/>
      </g>
     </g>
    </g>
    <g id="ytick_4">
     <g id="line2d_12">
      <g>
       <use xlink:href="#m173f7d0ac5" x="43.78125" y="345.767059" style="stroke: #000000; stroke-width: 0.8"/>
      </g>
     </g>
     <g id="text_13">
      <!-- 0.6 -->
      <g transform="translate(20.878125 349.566278) scale(0.1 -0.1)">
       <use xlink:href="#DejaVuSans-30"/>
       <use xlink:href="#DejaVuSans-2e" transform="translate(63.623047 0)"/>
       <use xlink:href="#DejaVuSans-36" transform="translate(95.410156 0)"/>
      </g>
     </g>
    </g>
    <g id="ytick_5">
     <g id="line2d_13">
      <g>
       <use xlink:href="#m173f7d0ac5" x="43.78125" y="284.209412" style="stroke: #000000; stroke-width: 0.8"/>
      </g>
     </g>
     <g id="text_14">
      <!-- 0.8 -->
      <g transform="translate(20.878125 288.008631) scale(0.1 -0.1)">
       <use xlink:href="#DejaVuSans-30"/>
       <use xlink:href="#DejaVuSans-2e" transform="translate(63.623047 0)"/>
       <use xlink:href="#DejaVuSans-38" transform="translate(95.410156 0)"/>
      </g>
     </g>
    </g>
    <g id="ytick_6">
     <g id="line2d_14">
      <g>
       <use xlink:href="#m173f7d0ac5" x="43.78125" y="222.651765" style="stroke: #000000; stroke-width: 0.8"/>
      </g>
     </g>
     <g id="text_15">
      <!-- 1.0 -->
      <g transform="translate(20.878125 226.450983) scale(0.1 -0.1)">
       <use xlink:href="#DejaVuSans-31"/>
       <use xlink:href="#DejaVuSans-2e" transform="translate(63.623047 0)"/>
       <use xlink:href="#DejaVuSans-30" transform="translate(95.410156 0)"/>
      </g>
     </g>
    </g>
    <g id="ytick_7">
     <g id="line2d_15">
      <g>
       <use xlink:href="#m173f7d0ac5" x="43.78125" y="161.094118" style="stroke: #000000; stroke-width: 0.8"/>
      </g>
     </g>
     <g id="text_16">
      <!-- 1.2 -->
      <g transform="translate(20.878125 164.893336) scale(0.1 -0.1)">
       <use xlink:href="#DejaVuSans-31"/>
       <use xlink:href="#DejaVuSans-2e" transform="translate(63.623047 0)"/>
       <use xlink:href="#DejaVuSans-32" transform="translate(95.410156 0)"/>
      </g>
     </g>
    </g>
    <g id="ytick_8">
     <g id="line2d_16">
      <g>
       <use xlink:href="#m173f7d0ac5" x="43.78125" y="99.536471" style="stroke: #000000; stroke-width: 0.8"/>
      </g>
     </g>
     <g id="text_17">
      <!-- 1.4 -->
      <g transform="translate(20.878125 103.335689) scale(0.1 -0.1)">
       <use xlink:href="#DejaVuSans-31"/>
       <use xlink:href="#DejaVuSans-2e" transform="translate(63.623047 0)"/>
       <use xlink:href="#DejaVuSans-34" transform="translate(95.410156 0)"/>
      </g>
     </g>
    </g>
    <g id="ytick_9">
     <g id="line2d_17">
      <g>
       <use xlink:href="#m173f7d0ac5" x="43.78125" y="37.978824" style="stroke: #000000; stroke-width: 0.8"/>
      </g>
     </g>
     <g id="text_18">
      <!-- 1.6 -->
      <g transform="translate(20.878125 41.778042) scale(0.1 -0.1)">
       <use xlink:href="#DejaVuSans-31"/>
       <use xlink:href="#DejaVuSans-2e" transform="translate(63.623047 0)"/>
       <use xlink:href="#DejaVuSans-36" transform="translate(95.410156 0)"/>
      </g>
     </g>
    </g>
    <g id="text_19">
     <!-- Latency per BSS without RTS/CTS [s] -->
     <g transform="translate(14.798438 360.572344) rotate(-90) scale(0.1 -0.1)">
      <defs>
       <path id="DejaVuSans-4c" d="M 628 4666 
L 1259 4666 
L 1259 531 
L 3531 531 
L 3531 0 
L 628 0 
L 628 4666 
z
" transform="scale(0.015625)"/>
       <path id="DejaVuSans-79" d="M 2059 -325 
Q 1816 -950 1584 -1140 
Q 1353 -1331 966 -1331 
L 506 -1331 
L 506 -850 
L 844 -850 
Q 1081 -850 1212 -737 
Q 1344 -625 1503 -206 
L 1606 56 
L 191 3500 
L 800 3500 
L 1894 763 
L 2988 3500 
L 3597 3500 
L 2059 -325 
z
" transform="scale(0.015625)"/>
       <path id="DejaVuSans-70" d="M 1159 525 
L 1159 -1331 
L 581 -1331 
L 581 3500 
L 1159 3500 
L 1159 2969 
Q 1341 3281 1617 3432 
Q 1894 3584 2278 3584 
Q 2916 3584 3314 3078 
Q 3713 2572 3713 1747 
Q 3713 922 3314 415 
Q 2916 -91 2278 -91 
Q 1894 -91 1617 61 
Q 1341 213 1159 525 
z
M 3116 1747 
Q 3116 2381 2855 2742 
Q 2594 3103 2138 3103 
Q 1681 3103 1420 2742 
Q 1159 2381 1159 1747 
Q 1159 1113 1420 752 
Q 1681 391 2138 391 
Q 2594 391 2855 752 
Q 3116 1113 3116 1747 
z
" transform="scale(0.015625)"/>
       <path id="DejaVuSans-42" d="M 1259 2228 
L 1259 519 
L 2272 519 
Q 2781 519 3026 730 
Q 3272 941 3272 1375 
Q 3272 1813 3026 2020 
Q 2781 2228 2272 2228 
L 1259 2228 
z
M 1259 4147 
L 1259 2741 
L 2194 2741 
Q 2656 2741 2882 2914 
Q 3109 3088 3109 3444 
Q 3109 3797 2882 3972 
Q 2656 4147 2194 4147 
L 1259 4147 
z
M 628 4666 
L 2241 4666 
Q 2963 4666 3353 4366 
Q 3744 4066 3744 3513 
Q 3744 3084 3544 2831 
Q 3344 2578 2956 2516 
Q 3422 2416 3680 2098 
Q 3938 1781 3938 1306 
Q 3938 681 3513 340 
Q 3088 0 2303 0 
L 628 0 
L 628 4666 
z
" transform="scale(0.015625)"/>
       <path id="DejaVuSans-53" d="M 3425 4513 
L 3425 3897 
Q 3066 4069 2747 4153 
Q 2428 4238 2131 4238 
Q 1616 4238 1336 4038 
Q 1056 3838 1056 3469 
Q 1056 3159 1242 3001 
Q 1428 2844 1947 2747 
L 2328 2669 
Q 3034 2534 3370 2195 
Q 3706 1856 3706 1288 
Q 3706 609 3251 259 
Q 2797 -91 1919 -91 
Q 1588 -91 1214 -16 
Q 841 59 441 206 
L 441 856 
Q 825 641 1194 531 
Q 1563 422 1919 422 
Q 2459 422 2753 634 
Q 3047 847 3047 1241 
Q 3047 1584 2836 1778 
Q 2625 1972 2144 2069 
L 1759 2144 
Q 1053 2284 737 2584 
Q 422 2884 422 3419 
Q 422 4038 858 4394 
Q 1294 4750 2059 4750 
Q 2388 4750 2728 4690 
Q 3069 4631 3425 4513 
z
" transform="scale(0.015625)"/>
       <path id="DejaVuSans-52" d="M 2841 2188 
Q 3044 2119 3236 1894 
Q 3428 1669 3622 1275 
L 4263 0 
L 3584 0 
L 2988 1197 
Q 2756 1666 2539 1819 
Q 2322 1972 1947 1972 
L 1259 1972 
L 1259 0 
L 628 0 
L 628 4666 
L 2053 4666 
Q 2853 4666 3247 4331 
Q 3641 3997 3641 3322 
Q 3641 2881 3436 2590 
Q 3231 2300 2841 2188 
z
M 1259 4147 
L 1259 2491 
L 2053 2491 
Q 2509 2491 2742 2702 
Q 2975 2913 2975 3322 
Q 2975 3731 2742 3939 
Q 2509 4147 2053 4147 
L 1259 4147 
z
" transform="scale(0.015625)"/>
       <path id="DejaVuSans-54" d="M -19 4666 
L 3928 4666 
L 3928 4134 
L 2272 4134 
L 2272 0 
L 1638 0 
L 1638 4134 
L -19 4134 
L -19 4666 
z
" transform="scale(0.015625)"/>
       <path id="DejaVuSans-2f" d="M 1625 4666 
L 2156 4666 
L 531 -594 
L 0 -594 
L 1625 4666 
z
" transform="scale(0.015625)"/>
       <path id="DejaVuSans-5b" d="M 550 4863 
L 1875 4863 
L 1875 4416 
L 1125 4416 
L 1125 -397 
L 1875 -397 
L 1875 -844 
L 550 -844 
L 550 4863 
z
" transform="scale(0.015625)"/>
       <path id="DejaVuSans-5d" d="M 1947 4863 
L 1947 -844 
L 622 -844 
L 622 -397 
L 1369 -397 
L 1369 4416 
L 622 4416 
L 622 4863 
L 1947 4863 
z
" transform="scale(0.015625)"/>
      </defs>
      <use xlink:href="#DejaVuSans-4c"/>
      <use xlink:href="#DejaVuSans-61" transform="translate(55.712891 0)"/>
      <use xlink:href="#DejaVuSans-74" transform="translate(116.992188 0)"/>
      <use xlink:href="#DejaVuSans-65" transform="translate(156.201172 0)"/>
      <use xlink:href="#DejaVuSans-6e" transform="translate(217.724609 0)"/>
      <use xlink:href="#DejaVuSans-63" transform="translate(281.103516 0)"/>
      <use xlink:href="#DejaVuSans-79" transform="translate(336.083984 0)"/>
      <use xlink:href="#DejaVuSans-20" transform="translate(395.263672 0)"/>
      <use xlink:href="#DejaVuSans-70" transform="translate(427.050781 0)"/>
      <use xlink:href="#DejaVuSans-65" transform="translate(490.527344 0)"/>
      <use xlink:href="#DejaVuSans-72" transform="translate(552.050781 0)"/>
      <use xlink:href="#DejaVuSans-20" transform="translate(593.164062 0)"/>
      <use xlink:href="#DejaVuSans-42" transform="translate(624.951172 0)"/>
      <use xlink:href="#DejaVuSans-53" transform="translate(691.804688 0)"/>
      <use xlink:href="#DejaVuSans-53" transform="translate(755.28125 0)"/>
      <use xlink:href="#DejaVuSans-20" transform="translate(818.757812 0)"/>
      <use xlink:href="#DejaVuSans-77" transform="translate(850.544922 0)"/>
      <use xlink:href="#DejaVuSans-69" transform="translate(932.332031 0)"/>
      <use xlink:href="#DejaVuSans-74" transform="translate(960.115234 0)"/>
      <use xlink:href="#DejaVuSans-68" transform="translate(999.324219 0)"/>
      <use xlink:href="#DejaVuSans-6f" transform="translate(1062.703125 0)"/>
      <use xlink:href="#DejaVuSans-75" transform="translate(1123.884766 0)"/>
      <use xlink:href="#DejaVuSans-74" transform="translate(1187.263672 0)"/>
      <use xlink:href="#DejaVuSans-20" transform="translate(1226.472656 0)"/>
      <use xlink:href="#DejaVuSans-52" transform="translate(1258.259766 0)"/>
      <use xlink:href="#DejaVuSans-54" transform="translate(1320.492188 0)"/>
      <use xlink:href="#DejaVuSans-53" transform="translate(1381.576172 0)"/>
      <use xlink:href="#DejaVuSans-2f" transform="translate(1445.052734 0)"/>
      <use xlink:href="#DejaVuSans-43" transform="translate(1478.744141 0)"/>
      <use xlink:href="#DejaVuSans-54" transform="translate(1548.568359 0)"/>
      <use xlink:href="#DejaVuSans-53" transform="translate(1609.652344 0)"/>
      <use xlink:href="#DejaVuSans-20" transform="translate(1673.128906 0)"/>
      <use xlink:href="#DejaVuSans-5b" transform="translate(1704.916016 0)"/>
      <use xlink:href="#DejaVuSans-73" transform="translate(1743.929688 0)"/>
      <use xlink:href="#DejaVuSans-5d" transform="translate(1796.029297 0)"/>
     </g>
    </g>
   </g>
   <g id="line2d_18">
    <path d="M 58.827 88.529963 
L 58.827 86.26772 
" clip-path="url(#p78fb699968)" style="fill: none; stroke: #424242; stroke-width: 2.25; stroke-linecap: square"/>
   </g>
   <g id="line2d_19">
    <path d="M 134.05575 248.312685 
L 134.05575 247.79437 
" clip-path="url(#p78fb699968)" style="fill: none; stroke: #424242; stroke-width: 2.25; stroke-linecap: square"/>
   </g>
   <g id="line2d_20">
    <path d="M 209.2845 83.69461 
L 209.2845 81.629351 
" clip-path="url(#p78fb699968)" style="fill: none; stroke: #424242; stroke-width: 2.25; stroke-linecap: square"/>
   </g>
   <g id="line2d_21">
    <path d="M 284.51325 84.011632 
L 284.51325 82.211071 
" clip-path="url(#p78fb699968)" style="fill: none; stroke: #424242; stroke-width: 2.25; stroke-linecap: square"/>
   </g>
   <g id="line2d_22">
    <path d="M 359.742 82.543482 
L 359.742 81.303096 
" clip-path="url(#p78fb699968)" style="fill: none; stroke: #424242; stroke-width: 2.25; stroke-linecap: square"/>
   </g>
   <g id="line2d_23">
    <path d="M 434.97075 241.078739 
L 434.97075 240.912533 
" clip-path="url(#p78fb699968)" style="fill: none; stroke: #424242; stroke-width: 2.25; stroke-linecap: square"/>
   </g>
   <g id="line2d_24">
    <path d="M 510.1995 241.09936 
L 510.1995 240.04734 
" clip-path="url(#p78fb699968)" style="fill: none; stroke: #424242; stroke-width: 2.25; stroke-linecap: square"/>
   </g>
   <g id="line2d_25">
    <path d="M 585.42825 236.657668 
L 585.42825 235.491151 
" clip-path="url(#p78fb699968)" style="fill: none; stroke: #424242; stroke-width: 2.25; stroke-linecap: square"/>
   </g>
   <g id="line2d_26">
    <path d="M 73.87275 87.486561 
L 73.87275 81.435444 
" clip-path="url(#p78fb699968)" style="fill: none; stroke: #424242; stroke-width: 2.25; stroke-linecap: square"/>
   </g>
   <g id="line2d_27">
    <path d="M 149.1015 248.895739 
L 149.1015 248.095387 
" clip-path="url(#p78fb699968)" style="fill: none; stroke: #424242; stroke-width: 2.25; stroke-linecap: square"/>
   </g>
   <g id="line2d_28">
    <path d="M 224.33025 70.210408 
L 224.33025 69.527118 
" clip-path="url(#p78fb699968)" style="fill: none; stroke: #424242; stroke-width: 2.25; stroke-linecap: square"/>
   </g>
   <g id="line2d_29">
    <path d="M 299.559 69.801049 
L 299.559 69.410158 
" clip-path="url(#p78fb699968)" style="fill: none; stroke: #424242; stroke-width: 2.25; stroke-linecap: square"/>
   </g>
   <g id="line2d_30">
    <path d="M 374.78775 60.404274 
L 374.78775 58.268224 
" clip-path="url(#p78fb699968)" style="fill: none; stroke: #424242; stroke-width: 2.25; stroke-linecap: square"/>
   </g>
   <g id="line2d_31">
    <path d="M 450.0165 237.710473 
L 450.0165 236.42221 
" clip-path="url(#p78fb699968)" style="fill: none; stroke: #424242; stroke-width: 2.25; stroke-linecap: square"/>
   </g>
   <g id="line2d_32">
    <path d="M 525.24525 237.745084 
L 525.24525 236.58503 
" clip-path="url(#p78fb699968)" style="fill: none; stroke: #424242; stroke-width: 2.25; stroke-linecap: square"/>
   </g>
   <g id="line2d_33">
    <path d="M 600.474 232.047001 
L 600.474 231.098705 
" clip-path="url(#p78fb699968)" style="fill: none; stroke: #424242; stroke-width: 2.25; stroke-linecap: square"/>
   </g>
   <g id="line2d_34">
    <path d="M 88.9185 512.828573 
L 88.9185 512.764768 
" clip-path="url(#p78fb699968)" style="fill: none; stroke: #424242; stroke-width: 2.25; stroke-linecap: square"/>
   </g>
   <g id="line2d_35">
    <path d="M 164.14725 519.934757 
L 164.14725 519.806686 
" clip-path="url(#p78fb699968)" style="fill: none; stroke: #424242; stroke-width: 2.25; stroke-linecap: square"/>
   </g>
   <g id="line2d_36">
    <path d="M 239.376 519.924076 
L 239.376 519.810656 
" clip-path="url(#p78fb699968)" style="fill: none; stroke: #424242; stroke-width: 2.25; stroke-linecap: square"/>
   </g>
   <g id="line2d_37">
    <path d="M 314.60475 523.547329 
L 314.60475 523.399652 
" clip-path="url(#p78fb699968)" style="fill: none; stroke: #424242; stroke-width: 2.25; stroke-linecap: square"/>
   </g>
   <g id="line2d_38">
    <path d="M 389.8335 523.53274 
L 389.8335 523.506177 
" clip-path="url(#p78fb699968)" style="fill: none; stroke: #424242; stroke-width: 2.25; stroke-linecap: square"/>
   </g>
   <g id="line2d_39">
    <path d="M 465.06225 523.460963 
L 465.06225 523.339787 
" clip-path="url(#p78fb699968)" style="fill: none; stroke: #424242; stroke-width: 2.25; stroke-linecap: square"/>
   </g>
   <g id="line2d_40">
    <path d="M 540.291 524.941763 
L 540.291 524.795225 
" clip-path="url(#p78fb699968)" style="fill: none; stroke: #424242; stroke-width: 2.25; stroke-linecap: square"/>
   </g>
   <g id="line2d_41">
    <path d="M 615.51975 525.100151 
L 615.51975 524.758229 
" clip-path="url(#p78fb699968)" style="fill: none; stroke: #424242; stroke-width: 2.25; stroke-linecap: square"/>
   </g>
   <g id="line2d_42">
    <path d="M 103.96425 489.610659 
L 103.96425 489.30718 
" clip-path="url(#p78fb699968)" style="fill: none; stroke: #424242; stroke-width: 2.25; stroke-linecap: square"/>
   </g>
   <g id="line2d_43">
    <path d="M 179.193 383.056527 
L 179.193 382.444952 
" clip-path="url(#p78fb699968)" style="fill: none; stroke: #424242; stroke-width: 2.25; stroke-linecap: square"/>
   </g>
   <g id="line2d_44">
    <path d="M 254.42175 431.005009 
L 254.42175 430.361732 
" clip-path="url(#p78fb699968)" style="fill: none; stroke: #424242; stroke-width: 2.25; stroke-linecap: square"/>
   </g>
   <g id="line2d_45">
    <path d="M 329.6505 431.028401 
L 329.6505 429.646432 
" clip-path="url(#p78fb699968)" style="fill: none; stroke: #424242; stroke-width: 2.25; stroke-linecap: square"/>
   </g>
   <g id="line2d_46">
    <path d="M 404.87925 457.764734 
L 404.87925 457.654238 
" clip-path="url(#p78fb699968)" style="fill: none; stroke: #424242; stroke-width: 2.25; stroke-linecap: square"/>
   </g>
   <g id="line2d_47">
    <path d="M 480.108 458.257503 
L 480.108 458.151932 
" clip-path="url(#p78fb699968)" style="fill: none; stroke: #424242; stroke-width: 2.25; stroke-linecap: square"/>
   </g>
   <g id="line2d_48">
    <path d="M 555.33675 458.189482 
L 555.33675 458.169783 
" clip-path="url(#p78fb699968)" style="fill: none; stroke: #424242; stroke-width: 2.25; stroke-linecap: square"/>
   </g>
   <g id="line2d_49">
    <path d="M 630.5655 476.222487 
L 630.5655 476.193555 
" clip-path="url(#p78fb699968)" style="fill: none; stroke: #424242; stroke-width: 2.25; stroke-linecap: square"/>
   </g>
   <g id="patch_39">
    <path d="M 43.78125 530.44 
L 43.78125 7.2 
" style="fill: none; stroke: #000000; stroke-width: 0.8; stroke-linejoin: miter; stroke-linecap: square"/>
   </g>
   <g id="patch_40">
    <path d="M 645.61125 530.44 
L 645.61125 7.2 
" style="fill: none; stroke: #000000; stroke-width: 0.8; stroke-linejoin: miter; stroke-linecap: square"/>
   </g>
   <g id="patch_41">
    <path d="M 43.78125 530.44 
L 645.61125 530.44 
" style="fill: none; stroke: #000000; stroke-width: 0.8; stroke-linejoin: miter; stroke-linecap: square"/>
   </g>
   <g id="patch_42">
    <path d="M 43.78125 7.2 
L 645.61125 7.2 
" style="fill: none; stroke: #000000; stroke-width: 0.8; stroke-linejoin: miter; stroke-linecap: square"/>
   </g>
   <g id="legend_1">
    <g id="patch_43">
     <path d="M 476.887813 88.590625 
L 638.61125 88.590625 
Q 640.61125 88.590625 640.61125 86.590625 
L 640.61125 14.2 
Q 640.61125 12.2 638.61125 12.2 
L 476.887813 12.2 
Q 474.887813 12.2 474.887813 14.2 
L 474.887813 86.590625 
Q 474.887813 88.590625 476.887813 88.590625 
z
" style="fill: #ffffff; opacity: 0.8; stroke: #cccccc; stroke-linejoin: miter"/>
    </g>
    <g id="text_20">
     <!-- Firts BSS devices configuration: -->
     <g transform="translate(478.887813 23.798437) scale(0.1 -0.1)">
      <defs>
       <path id="DejaVuSans-46" d="M 628 4666 
L 3309 4666 
L 3309 4134 
L 1259 4134 
L 1259 2759 
L 3109 2759 
L 3109 2228 
L 1259 2228 
L 1259 0 
L 628 0 
L 628 4666 
z
" transform="scale(0.015625)"/>
       <path id="DejaVuSans-76" d="M 191 3500 
L 800 3500 
L 1894 563 
L 2988 3500 
L 3597 3500 
L 2284 0 
L 1503 0 
L 191 3500 
z
" transform="scale(0.015625)"/>
       <path id="DejaVuSans-3a" d="M 750 794 
L 1409 794 
L 1409 0 
L 750 0 
L 750 794 
z
M 750 3309 
L 1409 3309 
L 1409 2516 
L 750 2516 
L 750 3309 
z
" transform="scale(0.015625)"/>
      </defs>
      <use xlink:href="#DejaVuSans-46"/>
      <use xlink:href="#DejaVuSans-69" transform="translate(50.269531 0)"/>
      <use xlink:href="#DejaVuSans-72" transform="translate(78.052734 0)"/>
      <use xlink:href="#DejaVuSans-74" transform="translate(119.166016 0)"/>
      <use xlink:href="#DejaVuSans-73" transform="translate(158.375 0)"/>
      <use xlink:href="#DejaVuSans-20" transform="translate(210.474609 0)"/>
      <use xlink:href="#DejaVuSans-42" transform="translate(242.261719 0)"/>
      <use xlink:href="#DejaVuSans-53" transform="translate(309.115234 0)"/>
      <use xlink:href="#DejaVuSans-53" transform="translate(372.591797 0)"/>
      <use xlink:href="#DejaVuSans-20" transform="translate(436.068359 0)"/>
      <use xlink:href="#DejaVuSans-64" transform="translate(467.855469 0)"/>
      <use xlink:href="#DejaVuSans-65" transform="translate(531.332031 0)"/>
      <use xlink:href="#DejaVuSans-76" transform="translate(592.855469 0)"/>
      <use xlink:href="#DejaVuSans-69" transform="translate(652.035156 0)"/>
      <use xlink:href="#DejaVuSans-63" transform="translate(679.818359 0)"/>
      <use xlink:href="#DejaVuSans-65" transform="translate(734.798828 0)"/>
      <use xlink:href="#DejaVuSans-73" transform="translate(796.322266 0)"/>
      <use xlink:href="#DejaVuSans-20" transform="translate(848.421875 0)"/>
      <use xlink:href="#DejaVuSans-63" transform="translate(880.208984 0)"/>
      <use xlink:href="#DejaVuSans-6f" transform="translate(935.189453 0)"/>
      <use xlink:href="#DejaVuSans-6e" transform="translate(996.371094 0)"/>
      <use xlink:href="#DejaVuSans-66" transform="translate(1059.75 0)"/>
      <use xlink:href="#DejaVuSans-69" transform="translate(1094.955078 0)"/>
      <use xlink:href="#DejaVuSans-67" transform="translate(1122.738281 0)"/>
      <use xlink:href="#DejaVuSans-75" transform="translate(1186.214844 0)"/>
      <use xlink:href="#DejaVuSans-72" transform="translate(1249.59375 0)"/>
      <use xlink:href="#DejaVuSans-61" transform="translate(1290.707031 0)"/>
      <use xlink:href="#DejaVuSans-74" transform="translate(1351.986328 0)"/>
      <use xlink:href="#DejaVuSans-69" transform="translate(1391.195312 0)"/>
      <use xlink:href="#DejaVuSans-6f" transform="translate(1418.978516 0)"/>
      <use xlink:href="#DejaVuSans-6e" transform="translate(1480.160156 0)"/>
      <use xlink:href="#DejaVuSans-3a" transform="translate(1543.539062 0)"/>
     </g>
    </g>
    <g id="patch_44">
     <path d="M 539.899531 38.476562 
L 559.899531 38.476562 
L 559.899531 31.476562 
L 539.899531 31.476562 
z
" style="fill: #0c3b50"/>
    </g>
    <g id="text_21">
     <!-- A -->
     <g transform="translate(567.899531 38.476562) scale(0.1 -0.1)">
      <defs>
       <path id="DejaVuSans-41" d="M 2188 4044 
L 1331 1722 
L 3047 1722 
L 2188 4044 
z
M 1831 4666 
L 2547 4666 
L 4325 0 
L 3669 0 
L 3244 1197 
L 1141 1197 
L 716 0 
L 50 0 
L 1831 4666 
z
" transform="scale(0.015625)"/>
      </defs>
      <use xlink:href="#DejaVuSans-41"/>
     </g>
    </g>
    <g id="patch_45">
     <path d="M 539.899531 53.154688 
L 559.899531 53.154688 
L 559.899531 46.154688 
L 539.899531 46.154688 
z
" style="fill: #785a8c"/>
    </g>
    <g id="text_22">
     <!-- B -->
     <g transform="translate(567.899531 53.154688) scale(0.1 -0.1)">
      <use xlink:href="#DejaVuSans-42"/>
     </g>
    </g>
    <g id="patch_46">
     <path d="M 539.899531 67.832812 
L 559.899531 67.832812 
L 559.899531 60.832812 
L 539.899531 60.832812 
z
" style="fill: #dc6980"/>
    </g>
    <g id="text_23">
     <!-- C -->
     <g transform="translate(567.899531 67.832812) scale(0.1 -0.1)">
      <use xlink:href="#DejaVuSans-43"/>
     </g>
    </g>
    <g id="patch_47">
     <path d="M 539.899531 82.510938 
L 559.899531 82.510938 
L 559.899531 75.510938 
L 539.899531 75.510938 
z
" style="fill: #df9c20"/>
    </g>
    <g id="text_24">
     <!-- D -->
     <g transform="translate(567.899531 82.510938) scale(0.1 -0.1)">
      <defs>
       <path id="DejaVuSans-44" d="M 1259 4147 
L 1259 519 
L 2022 519 
Q 2988 519 3436 956 
Q 3884 1394 3884 2338 
Q 3884 3275 3436 3711 
Q 2988 4147 2022 4147 
L 1259 4147 
z
M 628 4666 
L 1925 4666 
Q 3281 4666 3915 4102 
Q 4550 3538 4550 2338 
Q 4550 1131 3912 565 
Q 3275 0 1925 0 
L 628 0 
L 628 4666 
z
" transform="scale(0.015625)"/>
      </defs>
      <use xlink:href="#DejaVuSans-44"/>
     </g>
    </g>
   </g>
  </g>
  <g id="axes_2">
   <g id="patch_48">
    <path d="M 679.34125 530.44 
L 1281.17125 530.44 
L 1281.17125 7.2 
L 679.34125 7.2 
z
" style="fill: #ffffff"/>
   </g>
   <g id="patch_49">
    <path d="M 686.864125 530.44 
L 701.909875 530.44 
L 701.909875 82.237746 
L 686.864125 82.237746 
z
" clip-path="url(#p07c073f378)" style="fill: #0c3b50"/>
   </g>
   <g id="patch_50">
    <path d="M 762.092875 530.44 
L 777.138625 530.44 
L 777.138625 240.590894 
L 762.092875 240.590894 
z
" clip-path="url(#p07c073f378)" style="fill: #0c3b50"/>
   </g>
   <g id="patch_51">
    <path d="M 837.321625 530.44 
L 852.367375 530.44 
L 852.367375 80.406406 
L 837.321625 80.406406 
z
" clip-path="url(#p07c073f378)" style="fill: #0c3b50"/>
   </g>
   <g id="patch_52">
    <path d="M 912.550375 530.44 
L 927.596125 530.44 
L 927.596125 79.14037 
L 912.550375 79.14037 
z
" clip-path="url(#p07c073f378)" style="fill: #0c3b50"/>
   </g>
   <g id="patch_53">
    <path d="M 987.779125 530.44 
L 1002.824875 530.44 
L 1002.824875 75.555663 
L 987.779125 75.555663 
z
" clip-path="url(#p07c073f378)" style="fill: #0c3b50"/>
   </g>
   <g id="patch_54">
    <path d="M 1063.007875 530.44 
L 1078.053625 530.44 
L 1078.053625 235.463347 
L 1063.007875 235.463347 
z
" clip-path="url(#p07c073f378)" style="fill: #0c3b50"/>
   </g>
   <g id="patch_55">
    <path d="M 1138.236625 530.44 
L 1153.282375 530.44 
L 1153.282375 234.639603 
L 1138.236625 234.639603 
z
" clip-path="url(#p07c073f378)" style="fill: #0c3b50"/>
   </g>
   <g id="patch_56">
    <path d="M 1213.465375 530.44 
L 1228.511125 530.44 
L 1228.511125 230.21997 
L 1213.465375 230.21997 
z
" clip-path="url(#p07c073f378)" style="fill: #0c3b50"/>
   </g>
   <g id="patch_57">
    <path d="M 701.909875 530.44 
L 716.955625 530.44 
L 716.955625 81.668338 
L 701.909875 81.668338 
z
" clip-path="url(#p07c073f378)" style="fill: #785a8c"/>
   </g>
   <g id="patch_58">
    <path d="M 777.138625 530.44 
L 792.184375 530.44 
L 792.184375 240.256739 
L 777.138625 240.256739 
z
" clip-path="url(#p07c073f378)" style="fill: #785a8c"/>
   </g>
   <g id="patch_59">
    <path d="M 852.367375 530.44 
L 867.413125 530.44 
L 867.413125 65.108305 
L 852.367375 65.108305 
z
" clip-path="url(#p07c073f378)" style="fill: #785a8c"/>
   </g>
   <g id="patch_60">
    <path d="M 927.596125 530.44 
L 942.641875 530.44 
L 942.641875 63.529351 
L 927.596125 63.529351 
z
" clip-path="url(#p07c073f378)" style="fill: #785a8c"/>
   </g>
   <g id="patch_61">
    <path d="M 1002.824875 530.44 
L 1017.870625 530.44 
L 1017.870625 51.013655 
L 1002.824875 51.013655 
z
" clip-path="url(#p07c073f378)" style="fill: #785a8c"/>
   </g>
   <g id="patch_62">
    <path d="M 1078.053625 530.44 
L 1093.099375 530.44 
L 1093.099375 232.116048 
L 1078.053625 232.116048 
z
" clip-path="url(#p07c073f378)" style="fill: #785a8c"/>
   </g>
   <g id="patch_63">
    <path d="M 1153.282375 530.44 
L 1168.328125 530.44 
L 1168.328125 231.571673 
L 1153.282375 231.571673 
z
" clip-path="url(#p07c073f378)" style="fill: #785a8c"/>
   </g>
   <g id="patch_64">
    <path d="M 1228.511125 530.44 
L 1243.556875 530.44 
L 1243.556875 226.460131 
L 1228.511125 226.460131 
z
" clip-path="url(#p07c073f378)" style="fill: #785a8c"/>
   </g>
   <g id="patch_65">
    <path d="M 716.955625 530.44 
L 732.001375 530.44 
L 732.001375 507.429454 
L 716.955625 507.429454 
z
" clip-path="url(#p07c073f378)" style="fill: #dc6980"/>
   </g>
   <g id="patch_66">
    <path d="M 792.184375 530.44 
L 807.230125 530.44 
L 807.230125 480.591336 
L 792.184375 480.591336 
z
" clip-path="url(#p07c073f378)" style="fill: #dc6980"/>
   </g>
   <g id="patch_67">
    <path d="M 867.413125 530.44 
L 882.458875 530.44 
L 882.458875 480.974122 
L 867.413125 480.974122 
z
" clip-path="url(#p07c073f378)" style="fill: #dc6980"/>
   </g>
   <g id="patch_68">
    <path d="M 942.641875 530.44 
L 957.687625 530.44 
L 957.687625 440.237117 
L 942.641875 440.237117 
z
" clip-path="url(#p07c073f378)" style="fill: #dc6980"/>
   </g>
   <g id="patch_69">
    <path d="M 1017.870625 530.44 
L 1032.916375 530.44 
L 1032.916375 440.058292 
L 1017.870625 440.058292 
z
" clip-path="url(#p07c073f378)" style="fill: #dc6980"/>
   </g>
   <g id="patch_70">
    <path d="M 1093.099375 530.44 
L 1108.145125 530.44 
L 1108.145125 440.184178 
L 1093.099375 440.184178 
z
" clip-path="url(#p07c073f378)" style="fill: #dc6980"/>
   </g>
   <g id="patch_71">
    <path d="M 1168.328125 530.44 
L 1183.373875 530.44 
L 1183.373875 467.980636 
L 1168.328125 467.980636 
z
" clip-path="url(#p07c073f378)" style="fill: #dc6980"/>
   </g>
   <g id="patch_72">
    <path d="M 1243.556875 530.44 
L 1258.602625 530.44 
L 1258.602625 467.981559 
L 1243.556875 467.981559 
z
" clip-path="url(#p07c073f378)" style="fill: #dc6980"/>
   </g>
   <g id="patch_73">
    <path d="M 732.001375 530.44 
L 747.047125 530.44 
L 747.047125 489.605632 
L 732.001375 489.605632 
z
" clip-path="url(#p07c073f378)" style="fill: #df9c20"/>
   </g>
   <g id="patch_74">
    <path d="M 807.230125 530.44 
L 822.275875 530.44 
L 822.275875 383.223759 
L 807.230125 383.223759 
z
" clip-path="url(#p07c073f378)" style="fill: #df9c20"/>
   </g>
   <g id="patch_75">
    <path d="M 882.458875 530.44 
L 897.504625 530.44 
L 897.504625 430.600883 
L 882.458875 430.600883 
z
" clip-path="url(#p07c073f378)" style="fill: #df9c20"/>
   </g>
   <g id="patch_76">
    <path d="M 957.687625 530.44 
L 972.733375 530.44 
L 972.733375 430.590008 
L 957.687625 430.590008 
z
" clip-path="url(#p07c073f378)" style="fill: #df9c20"/>
   </g>
   <g id="patch_77">
    <path d="M 1032.916375 530.44 
L 1047.962125 530.44 
L 1047.962125 457.512656 
L 1032.916375 457.512656 
z
" clip-path="url(#p07c073f378)" style="fill: #df9c20"/>
   </g>
   <g id="patch_78">
    <path d="M 1108.145125 530.44 
L 1123.190875 530.44 
L 1123.190875 458.885391 
L 1108.145125 458.885391 
z
" clip-path="url(#p07c073f378)" style="fill: #df9c20"/>
   </g>
   <g id="patch_79">
    <path d="M 1183.373875 530.44 
L 1198.419625 530.44 
L 1198.419625 458.854202 
L 1183.373875 458.854202 
z
" clip-path="url(#p07c073f378)" style="fill: #df9c20"/>
   </g>
   <g id="patch_80">
    <path d="M 1258.602625 530.44 
L 1273.648375 530.44 
L 1273.648375 476.786047 
L 1258.602625 476.786047 
z
" clip-path="url(#p07c073f378)" style="fill: #df9c20"/>
   </g>
   <g id="patch_81">
    <path d="M 716.955625 530.44 
L 716.955625 530.44 
L 716.955625 530.44 
L 716.955625 530.44 
z
" clip-path="url(#p07c073f378)" style="fill: #0c3b50"/>
   </g>
   <g id="patch_82">
    <path d="M 716.955625 530.44 
L 716.955625 530.44 
L 716.955625 530.44 
L 716.955625 530.44 
z
" clip-path="url(#p07c073f378)" style="fill: #785a8c"/>
   </g>
   <g id="patch_83">
    <path d="M 716.955625 530.44 
L 716.955625 530.44 
L 716.955625 530.44 
L 716.955625 530.44 
z
" clip-path="url(#p07c073f378)" style="fill: #dc6980"/>
   </g>
   <g id="patch_84">
    <path d="M 716.955625 530.44 
L 716.955625 530.44 
L 716.955625 530.44 
L 716.955625 530.44 
z
" clip-path="url(#p07c073f378)" style="fill: #df9c20"/>
   </g>
   <g id="matplotlib.axis_3">
    <g id="xtick_9">
     <g id="line2d_50">
      <g>
       <use xlink:href="#m784ae43535" x="716.955625" y="530.44" style="stroke: #000000; stroke-width: 0.8"/>
      </g>
     </g>
     <g id="text_25">
      <!-- 1 -->
      <g transform="translate(713.774375 545.038437) scale(0.1 -0.1)">
       <use xlink:href="#DejaVuSans-31"/>
      </g>
     </g>
    </g>
    <g id="xtick_10">
     <g id="line2d_51">
      <g>
       <use xlink:href="#m784ae43535" x="792.184375" y="530.44" style="stroke: #000000; stroke-width: 0.8"/>
      </g>
     </g>
     <g id="text_26">
      <!-- 2 -->
      <g transform="translate(789.003125 545.038437) scale(0.1 -0.1)">
       <use xlink:href="#DejaVuSans-32"/>
      </g>
     </g>
    </g>
    <g id="xtick_11">
     <g id="line2d_52">
      <g>
       <use xlink:href="#m784ae43535" x="867.413125" y="530.44" style="stroke: #000000; stroke-width: 0.8"/>
      </g>
     </g>
     <g id="text_27">
      <!-- 3 -->
      <g transform="translate(864.231875 545.038437) scale(0.1 -0.1)">
       <use xlink:href="#DejaVuSans-33"/>
      </g>
     </g>
    </g>
    <g id="xtick_12">
     <g id="line2d_53">
      <g>
       <use xlink:href="#m784ae43535" x="942.641875" y="530.44" style="stroke: #000000; stroke-width: 0.8"/>
      </g>
     </g>
     <g id="text_28">
      <!-- 4 -->
      <g transform="translate(939.460625 545.038437) scale(0.1 -0.1)">
       <use xlink:href="#DejaVuSans-34"/>
      </g>
     </g>
    </g>
    <g id="xtick_13">
     <g id="line2d_54">
      <g>
       <use xlink:href="#m784ae43535" x="1017.870625" y="530.44" style="stroke: #000000; stroke-width: 0.8"/>
      </g>
     </g>
     <g id="text_29">
      <!-- 5 -->
      <g transform="translate(1014.689375 545.038437) scale(0.1 -0.1)">
       <use xlink:href="#DejaVuSans-35"/>
      </g>
     </g>
    </g>
    <g id="xtick_14">
     <g id="line2d_55">
      <g>
       <use xlink:href="#m784ae43535" x="1093.099375" y="530.44" style="stroke: #000000; stroke-width: 0.8"/>
      </g>
     </g>
     <g id="text_30">
      <!-- 6 -->
      <g transform="translate(1089.918125 545.038437) scale(0.1 -0.1)">
       <use xlink:href="#DejaVuSans-36"/>
      </g>
     </g>
    </g>
    <g id="xtick_15">
     <g id="line2d_56">
      <g>
       <use xlink:href="#m784ae43535" x="1168.328125" y="530.44" style="stroke: #000000; stroke-width: 0.8"/>
      </g>
     </g>
     <g id="text_31">
      <!-- 7 -->
      <g transform="translate(1165.146875 545.038437) scale(0.1 -0.1)">
       <use xlink:href="#DejaVuSans-37"/>
      </g>
     </g>
    </g>
    <g id="xtick_16">
     <g id="line2d_57">
      <g>
       <use xlink:href="#m784ae43535" x="1243.556875" y="530.44" style="stroke: #000000; stroke-width: 0.8"/>
      </g>
     </g>
     <g id="text_32">
      <!-- 8 -->
      <g transform="translate(1240.375625 545.038437) scale(0.1 -0.1)">
       <use xlink:href="#DejaVuSans-38"/>
      </g>
     </g>
    </g>
    <g id="text_33">
     <!-- Channel widths configuration number -->
     <g transform="translate(885.895313 558.716562) scale(0.1 -0.1)">
      <use xlink:href="#DejaVuSans-43"/>
      <use xlink:href="#DejaVuSans-68" transform="translate(69.824219 0)"/>
      <use xlink:href="#DejaVuSans-61" transform="translate(133.203125 0)"/>
      <use xlink:href="#DejaVuSans-6e" transform="translate(194.482422 0)"/>
      <use xlink:href="#DejaVuSans-6e" transform="translate(257.861328 0)"/>
      <use xlink:href="#DejaVuSans-65" transform="translate(321.240234 0)"/>
      <use xlink:href="#DejaVuSans-6c" transform="translate(382.763672 0)"/>
      <use xlink:href="#DejaVuSans-20" transform="translate(410.546875 0)"/>
      <use xlink:href="#DejaVuSans-77" transform="translate(442.333984 0)"/>
      <use xlink:href="#DejaVuSans-69" transform="translate(524.121094 0)"/>
      <use xlink:href="#DejaVuSans-64" transform="translate(551.904297 0)"/>
      <use xlink:href="#DejaVuSans-74" transform="translate(615.380859 0)"/>
      <use xlink:href="#DejaVuSans-68" transform="translate(654.589844 0)"/>
      <use xlink:href="#DejaVuSans-73" transform="translate(717.96875 0)"/>
      <use xlink:href="#DejaVuSans-20" transform="translate(770.068359 0)"/>
      <use xlink:href="#DejaVuSans-63" transform="translate(801.855469 0)"/>
      <use xlink:href="#DejaVuSans-6f" transform="translate(856.835938 0)"/>
      <use xlink:href="#DejaVuSans-6e" transform="translate(918.017578 0)"/>
      <use xlink:href="#DejaVuSans-66" transform="translate(981.396484 0)"/>
      <use xlink:href="#DejaVuSans-69" transform="translate(1016.601562 0)"/>
      <use xlink:href="#DejaVuSans-67" transform="translate(1044.384766 0)"/>
      <use xlink:href="#DejaVuSans-75" transform="translate(1107.861328 0)"/>
      <use xlink:href="#DejaVuSans-72" transform="translate(1171.240234 0)"/>
      <use xlink:href="#DejaVuSans-61" transform="translate(1212.353516 0)"/>
      <use xlink:href="#DejaVuSans-74" transform="translate(1273.632812 0)"/>
      <use xlink:href="#DejaVuSans-69" transform="translate(1312.841797 0)"/>
      <use xlink:href="#DejaVuSans-6f" transform="translate(1340.625 0)"/>
      <use xlink:href="#DejaVuSans-6e" transform="translate(1401.806641 0)"/>
      <use xlink:href="#DejaVuSans-20" transform="translate(1465.185547 0)"/>
      <use xlink:href="#DejaVuSans-6e" transform="translate(1496.972656 0)"/>
      <use xlink:href="#DejaVuSans-75" transform="translate(1560.351562 0)"/>
      <use xlink:href="#DejaVuSans-6d" transform="translate(1623.730469 0)"/>
      <use xlink:href="#DejaVuSans-62" transform="translate(1721.142578 0)"/>
      <use xlink:href="#DejaVuSans-65" transform="translate(1784.619141 0)"/>
      <use xlink:href="#DejaVuSans-72" transform="translate(1846.142578 0)"/>
     </g>
    </g>
   </g>
   <g id="matplotlib.axis_4">
    <g id="ytick_10">
     <g id="line2d_58">
      <g>
       <use xlink:href="#m173f7d0ac5" x="679.34125" y="530.44" style="stroke: #000000; stroke-width: 0.8"/>
      </g>
     </g>
     <g id="text_34">
      <!-- 0.0 -->
      <g transform="translate(656.438125 534.239219) scale(0.1 -0.1)">
       <use xlink:href="#DejaVuSans-30"/>
       <use xlink:href="#DejaVuSans-2e" transform="translate(63.623047 0)"/>
       <use xlink:href="#DejaVuSans-30" transform="translate(95.410156 0)"/>
      </g>
     </g>
    </g>
    <g id="ytick_11">
     <g id="line2d_59">
      <g>
       <use xlink:href="#m173f7d0ac5" x="679.34125" y="468.882353" style="stroke: #000000; stroke-width: 0.8"/>
      </g>
     </g>
     <g id="text_35">
      <!-- 0.2 -->
      <g transform="translate(656.438125 472.681572) scale(0.1 -0.1)">
       <use xlink:href="#DejaVuSans-30"/>
       <use xlink:href="#DejaVuSans-2e" transform="translate(63.623047 0)"/>
       <use xlink:href="#DejaVuSans-32" transform="translate(95.410156 0)"/>
      </g>
     </g>
    </g>
    <g id="ytick_12">
     <g id="line2d_60">
      <g>
       <use xlink:href="#m173f7d0ac5" x="679.34125" y="407.324706" style="stroke: #000000; stroke-width: 0.8"/>
      </g>
     </g>
     <g id="text_36">
      <!-- 0.4 -->
      <g transform="translate(656.438125 411.123925) scale(0.1 -0.1)">
       <use xlink:href="#DejaVuSans-30"/>
       <use xlink:href="#DejaVuSans-2e" transform="translate(63.623047 0)"/>
       <use xlink:href="#DejaVuSans-34" transform="translate(95.410156 0)"/>
      </g>
     </g>
    </g>
    <g id="ytick_13">
     <g id="line2d_61">
      <g>
       <use xlink:href="#m173f7d0ac5" x="679.34125" y="345.767059" style="stroke: #000000; stroke-width: 0.8"/>
      </g>
     </g>
     <g id="text_37">
      <!-- 0.6 -->
      <g transform="translate(656.438125 349.566278) scale(0.1 -0.1)">
       <use xlink:href="#DejaVuSans-30"/>
       <use xlink:href="#DejaVuSans-2e" transform="translate(63.623047 0)"/>
       <use xlink:href="#DejaVuSans-36" transform="translate(95.410156 0)"/>
      </g>
     </g>
    </g>
    <g id="ytick_14">
     <g id="line2d_62">
      <g>
       <use xlink:href="#m173f7d0ac5" x="679.34125" y="284.209412" style="stroke: #000000; stroke-width: 0.8"/>
      </g>
     </g>
     <g id="text_38">
      <!-- 0.8 -->
      <g transform="translate(656.438125 288.008631) scale(0.1 -0.1)">
       <use xlink:href="#DejaVuSans-30"/>
       <use xlink:href="#DejaVuSans-2e" transform="translate(63.623047 0)"/>
       <use xlink:href="#DejaVuSans-38" transform="translate(95.410156 0)"/>
      </g>
     </g>
    </g>
    <g id="ytick_15">
     <g id="line2d_63">
      <g>
       <use xlink:href="#m173f7d0ac5" x="679.34125" y="222.651765" style="stroke: #000000; stroke-width: 0.8"/>
      </g>
     </g>
     <g id="text_39">
      <!-- 1.0 -->
      <g transform="translate(656.438125 226.450983) scale(0.1 -0.1)">
       <use xlink:href="#DejaVuSans-31"/>
       <use xlink:href="#DejaVuSans-2e" transform="translate(63.623047 0)"/>
       <use xlink:href="#DejaVuSans-30" transform="translate(95.410156 0)"/>
      </g>
     </g>
    </g>
    <g id="ytick_16">
     <g id="line2d_64">
      <g>
       <use xlink:href="#m173f7d0ac5" x="679.34125" y="161.094118" style="stroke: #000000; stroke-width: 0.8"/>
      </g>
     </g>
     <g id="text_40">
      <!-- 1.2 -->
      <g transform="translate(656.438125 164.893336) scale(0.1 -0.1)">
       <use xlink:href="#DejaVuSans-31"/>
       <use xlink:href="#DejaVuSans-2e" transform="translate(63.623047 0)"/>
       <use xlink:href="#DejaVuSans-32" transform="translate(95.410156 0)"/>
      </g>
     </g>
    </g>
    <g id="ytick_17">
     <g id="line2d_65">
      <g>
       <use xlink:href="#m173f7d0ac5" x="679.34125" y="99.536471" style="stroke: #000000; stroke-width: 0.8"/>
      </g>
     </g>
     <g id="text_41">
      <!-- 1.4 -->
      <g transform="translate(656.438125 103.335689) scale(0.1 -0.1)">
       <use xlink:href="#DejaVuSans-31"/>
       <use xlink:href="#DejaVuSans-2e" transform="translate(63.623047 0)"/>
       <use xlink:href="#DejaVuSans-34" transform="translate(95.410156 0)"/>
      </g>
     </g>
    </g>
    <g id="ytick_18">
     <g id="line2d_66">
      <g>
       <use xlink:href="#m173f7d0ac5" x="679.34125" y="37.978824" style="stroke: #000000; stroke-width: 0.8"/>
      </g>
     </g>
     <g id="text_42">
      <!-- 1.6 -->
      <g transform="translate(656.438125 41.778042) scale(0.1 -0.1)">
       <use xlink:href="#DejaVuSans-31"/>
       <use xlink:href="#DejaVuSans-2e" transform="translate(63.623047 0)"/>
       <use xlink:href="#DejaVuSans-36" transform="translate(95.410156 0)"/>
      </g>
     </g>
    </g>
   </g>
   <g id="line2d_67">
    <path d="M 694.387 83.525327 
L 694.387 81.434419 
" clip-path="url(#p07c073f378)" style="fill: none; stroke: #424242; stroke-width: 2.25; stroke-linecap: square"/>
   </g>
   <g id="line2d_68">
    <path d="M 769.61575 240.974398 
L 769.61575 240.299419 
" clip-path="url(#p07c073f378)" style="fill: none; stroke: #424242; stroke-width: 2.25; stroke-linecap: square"/>
   </g>
   <g id="line2d_69">
    <path d="M 844.8445 81.90636 
L 844.8445 78.859257 
" clip-path="url(#p07c073f378)" style="fill: none; stroke: #424242; stroke-width: 2.25; stroke-linecap: square"/>
   </g>
   <g id="line2d_70">
    <path d="M 920.07325 80.542859 
L 920.07325 78.265226 
" clip-path="url(#p07c073f378)" style="fill: none; stroke: #424242; stroke-width: 2.25; stroke-linecap: square"/>
   </g>
   <g id="line2d_71">
    <path d="M 995.302 78.074397 
L 995.302 73.731505 
" clip-path="url(#p07c073f378)" style="fill: none; stroke: #424242; stroke-width: 2.25; stroke-linecap: square"/>
   </g>
   <g id="line2d_72">
    <path d="M 1070.53075 236.11196 
L 1070.53075 235.035932 
" clip-path="url(#p07c073f378)" style="fill: none; stroke: #424242; stroke-width: 2.25; stroke-linecap: square"/>
   </g>
   <g id="line2d_73">
    <path d="M 1145.7595 234.790933 
L 1145.7595 234.423126 
" clip-path="url(#p07c073f378)" style="fill: none; stroke: #424242; stroke-width: 2.25; stroke-linecap: square"/>
   </g>
   <g id="line2d_74">
    <path d="M 1220.98825 231.009754 
L 1220.98825 229.313533 
" clip-path="url(#p07c073f378)" style="fill: none; stroke: #424242; stroke-width: 2.25; stroke-linecap: square"/>
   </g>
   <g id="line2d_75">
    <path d="M 709.43275 84.408679 
L 709.43275 77.923581 
" clip-path="url(#p07c073f378)" style="fill: none; stroke: #424242; stroke-width: 2.25; stroke-linecap: square"/>
   </g>
   <g id="line2d_76">
    <path d="M 784.6615 241.40838 
L 784.6615 239.542567 
" clip-path="url(#p07c073f378)" style="fill: none; stroke: #424242; stroke-width: 2.25; stroke-linecap: square"/>
   </g>
   <g id="line2d_77">
    <path d="M 859.89025 66.033721 
L 859.89025 64.03002 
" clip-path="url(#p07c073f378)" style="fill: none; stroke: #424242; stroke-width: 2.25; stroke-linecap: square"/>
   </g>
   <g id="line2d_78">
    <path d="M 935.119 63.814568 
L 935.119 62.974306 
" clip-path="url(#p07c073f378)" style="fill: none; stroke: #424242; stroke-width: 2.25; stroke-linecap: square"/>
   </g>
   <g id="line2d_79">
    <path d="M 1010.34775 53.020435 
L 1010.34775 49.637842 
" clip-path="url(#p07c073f378)" style="fill: none; stroke: #424242; stroke-width: 2.25; stroke-linecap: square"/>
   </g>
   <g id="line2d_80">
    <path d="M 1085.5765 232.963286 
L 1085.5765 231.272298 
" clip-path="url(#p07c073f378)" style="fill: none; stroke: #424242; stroke-width: 2.25; stroke-linecap: square"/>
   </g>
   <g id="line2d_81">
    <path d="M 1160.80525 232.307389 
L 1160.80525 230.98113 
" clip-path="url(#p07c073f378)" style="fill: none; stroke: #424242; stroke-width: 2.25; stroke-linecap: square"/>
   </g>
   <g id="line2d_82">
    <path d="M 1236.034 227.445874 
L 1236.034 225.589296 
" clip-path="url(#p07c073f378)" style="fill: none; stroke: #424242; stroke-width: 2.25; stroke-linecap: square"/>
   </g>
   <g id="line2d_83">
    <path d="M 724.4785 507.474288 
L 724.4785 507.403282 
" clip-path="url(#p07c073f378)" style="fill: none; stroke: #424242; stroke-width: 2.25; stroke-linecap: square"/>
   </g>
   <g id="line2d_84">
    <path d="M 799.70725 480.884555 
L 799.70725 480.229274 
" clip-path="url(#p07c073f378)" style="fill: none; stroke: #424242; stroke-width: 2.25; stroke-linecap: square"/>
   </g>
   <g id="line2d_85">
    <path d="M 874.936 481.181263 
L 874.936 480.641402 
" clip-path="url(#p07c073f378)" style="fill: none; stroke: #424242; stroke-width: 2.25; stroke-linecap: square"/>
   </g>
   <g id="line2d_86">
    <path d="M 950.16475 440.432563 
L 950.16475 439.945642 
" clip-path="url(#p07c073f378)" style="fill: none; stroke: #424242; stroke-width: 2.25; stroke-linecap: square"/>
   </g>
   <g id="line2d_87">
    <path d="M 1025.3935 440.509202 
L 1025.3935 439.645548 
" clip-path="url(#p07c073f378)" style="fill: none; stroke: #424242; stroke-width: 2.25; stroke-linecap: square"/>
   </g>
   <g id="line2d_88">
    <path d="M 1100.62225 440.485503 
L 1100.62225 439.949028 
" clip-path="url(#p07c073f378)" style="fill: none; stroke: #424242; stroke-width: 2.25; stroke-linecap: square"/>
   </g>
   <g id="line2d_89">
    <path d="M 1175.851 467.986689 
L 1175.851 467.971608 
" clip-path="url(#p07c073f378)" style="fill: none; stroke: #424242; stroke-width: 2.25; stroke-linecap: square"/>
   </g>
   <g id="line2d_90">
    <path d="M 1251.07975 467.986997 
L 1251.07975 467.971915 
" clip-path="url(#p07c073f378)" style="fill: none; stroke: #424242; stroke-width: 2.25; stroke-linecap: square"/>
   </g>
   <g id="line2d_91">
    <path d="M 739.52425 489.846733 
L 739.52425 489.430911 
" clip-path="url(#p07c073f378)" style="fill: none; stroke: #424242; stroke-width: 2.25; stroke-linecap: square"/>
   </g>
   <g id="line2d_92">
    <path d="M 814.753 383.588693 
L 814.753 382.88632 
" clip-path="url(#p07c073f378)" style="fill: none; stroke: #424242; stroke-width: 2.25; stroke-linecap: square"/>
   </g>
   <g id="line2d_93">
    <path d="M 889.98175 430.920983 
L 889.98175 430.427291 
" clip-path="url(#p07c073f378)" style="fill: none; stroke: #424242; stroke-width: 2.25; stroke-linecap: square"/>
   </g>
   <g id="line2d_94">
    <path d="M 965.2105 430.891435 
L 965.2105 430.356807 
" clip-path="url(#p07c073f378)" style="fill: none; stroke: #424242; stroke-width: 2.25; stroke-linecap: square"/>
   </g>
   <g id="line2d_95">
    <path d="M 1040.43925 457.559132 
L 1040.43925 457.441556 
" clip-path="url(#p07c073f378)" style="fill: none; stroke: #424242; stroke-width: 2.25; stroke-linecap: square"/>
   </g>
   <g id="line2d_96">
    <path d="M 1115.668 458.902319 
L 1115.668 458.855843 
" clip-path="url(#p07c073f378)" style="fill: none; stroke: #424242; stroke-width: 2.25; stroke-linecap: square"/>
   </g>
   <g id="line2d_97">
    <path d="M 1190.89675 458.867847 
L 1190.89675 458.829374 
" clip-path="url(#p07c073f378)" style="fill: none; stroke: #424242; stroke-width: 2.25; stroke-linecap: square"/>
   </g>
   <g id="line2d_98">
    <path d="M 1266.1255 476.80513 
L 1266.1255 476.775274 
" clip-path="url(#p07c073f378)" style="fill: none; stroke: #424242; stroke-width: 2.25; stroke-linecap: square"/>
   </g>
   <g id="patch_85">
    <path d="M 679.34125 530.44 
L 679.34125 7.2 
" style="fill: none; stroke: #000000; stroke-width: 0.8; stroke-linejoin: miter; stroke-linecap: square"/>
   </g>
   <g id="patch_86">
    <path d="M 1281.17125 530.44 
L 1281.17125 7.2 
" style="fill: none; stroke: #000000; stroke-width: 0.8; stroke-linejoin: miter; stroke-linecap: square"/>
   </g>
   <g id="patch_87">
    <path d="M 679.34125 530.44 
L 1281.17125 530.44 
" style="fill: none; stroke: #000000; stroke-width: 0.8; stroke-linejoin: miter; stroke-linecap: square"/>
   </g>
   <g id="patch_88">
    <path d="M 679.34125 7.2 
L 1281.17125 7.2 
" style="fill: none; stroke: #000000; stroke-width: 0.8; stroke-linejoin: miter; stroke-linecap: square"/>
   </g>
   <g id="legend_2">
    <g id="patch_89">
     <path d="M 1112.447813 88.590625 
L 1274.17125 88.590625 
Q 1276.17125 88.590625 1276.17125 86.590625 
L 1276.17125 14.2 
Q 1276.17125 12.2 1274.17125 12.2 
L 1112.447813 12.2 
Q 1110.447813 12.2 1110.447813 14.2 
L 1110.447813 86.590625 
Q 1110.447813 88.590625 1112.447813 88.590625 
z
" style="fill: #ffffff; opacity: 0.8; stroke: #cccccc; stroke-linejoin: miter"/>
    </g>
    <g id="text_43">
     <!-- Firts BSS devices configuration: -->
     <g transform="translate(1114.447813 23.798437) scale(0.1 -0.1)">
      <use xlink:href="#DejaVuSans-46"/>
      <use xlink:href="#DejaVuSans-69" transform="translate(50.269531 0)"/>
      <use xlink:href="#DejaVuSans-72" transform="translate(78.052734 0)"/>
      <use xlink:href="#DejaVuSans-74" transform="translate(119.166016 0)"/>
      <use xlink:href="#DejaVuSans-73" transform="translate(158.375 0)"/>
      <use xlink:href="#DejaVuSans-20" transform="translate(210.474609 0)"/>
      <use xlink:href="#DejaVuSans-42" transform="translate(242.261719 0)"/>
      <use xlink:href="#DejaVuSans-53" transform="translate(309.115234 0)"/>
      <use xlink:href="#DejaVuSans-53" transform="translate(372.591797 0)"/>
      <use xlink:href="#DejaVuSans-20" transform="translate(436.068359 0)"/>
      <use xlink:href="#DejaVuSans-64" transform="translate(467.855469 0)"/>
      <use xlink:href="#DejaVuSans-65" transform="translate(531.332031 0)"/>
      <use xlink:href="#DejaVuSans-76" transform="translate(592.855469 0)"/>
      <use xlink:href="#DejaVuSans-69" transform="translate(652.035156 0)"/>
      <use xlink:href="#DejaVuSans-63" transform="translate(679.818359 0)"/>
      <use xlink:href="#DejaVuSans-65" transform="translate(734.798828 0)"/>
      <use xlink:href="#DejaVuSans-73" transform="translate(796.322266 0)"/>
      <use xlink:href="#DejaVuSans-20" transform="translate(848.421875 0)"/>
      <use xlink:href="#DejaVuSans-63" transform="translate(880.208984 0)"/>
      <use xlink:href="#DejaVuSans-6f" transform="translate(935.189453 0)"/>
      <use xlink:href="#DejaVuSans-6e" transform="translate(996.371094 0)"/>
      <use xlink:href="#DejaVuSans-66" transform="translate(1059.75 0)"/>
      <use xlink:href="#DejaVuSans-69" transform="translate(1094.955078 0)"/>
      <use xlink:href="#DejaVuSans-67" transform="translate(1122.738281 0)"/>
      <use xlink:href="#DejaVuSans-75" transform="translate(1186.214844 0)"/>
      <use xlink:href="#DejaVuSans-72" transform="translate(1249.59375 0)"/>
      <use xlink:href="#DejaVuSans-61" transform="translate(1290.707031 0)"/>
      <use xlink:href="#DejaVuSans-74" transform="translate(1351.986328 0)"/>
      <use xlink:href="#DejaVuSans-69" transform="translate(1391.195312 0)"/>
      <use xlink:href="#DejaVuSans-6f" transform="translate(1418.978516 0)"/>
      <use xlink:href="#DejaVuSans-6e" transform="translate(1480.160156 0)"/>
      <use xlink:href="#DejaVuSans-3a" transform="translate(1543.539062 0)"/>
     </g>
    </g>
    <g id="patch_90">
     <path d="M 1175.459531 38.476562 
L 1195.459531 38.476562 
L 1195.459531 31.476562 
L 1175.459531 31.476562 
z
" style="fill: #0c3b50"/>
    </g>
    <g id="text_44">
     <!-- A -->
     <g transform="translate(1203.459531 38.476562) scale(0.1 -0.1)">
      <use xlink:href="#DejaVuSans-41"/>
     </g>
    </g>
    <g id="patch_91">
     <path d="M 1175.459531 53.154688 
L 1195.459531 53.154688 
L 1195.459531 46.154688 
L 1175.459531 46.154688 
z
" style="fill: #785a8c"/>
    </g>
    <g id="text_45">
     <!-- B -->
     <g transform="translate(1203.459531 53.154688) scale(0.1 -0.1)">
      <use xlink:href="#DejaVuSans-42"/>
     </g>
    </g>
    <g id="patch_92">
     <path d="M 1175.459531 67.832812 
L 1195.459531 67.832812 
L 1195.459531 60.832812 
L 1175.459531 60.832812 
z
" style="fill: #dc6980"/>
    </g>
    <g id="text_46">
     <!-- C -->
     <g transform="translate(1203.459531 67.832812) scale(0.1 -0.1)">
      <use xlink:href="#DejaVuSans-43"/>
     </g>
    </g>
    <g id="patch_93">
     <path d="M 1175.459531 82.510938 
L 1195.459531 82.510938 
L 1195.459531 75.510938 
L 1175.459531 75.510938 
z
" style="fill: #df9c20"/>
    </g>
    <g id="text_47">
     <!-- D -->
     <g transform="translate(1203.459531 82.510938) scale(0.1 -0.1)">
      <use xlink:href="#DejaVuSans-44"/>
     </g>
    </g>
   </g>
  </g>
 </g>
 <defs>
  <clipPath id="p78fb699968">
   <rect x="43.78125" y="7.2" width="601.83" height="523.24"/>
  </clipPath>
  <clipPath id="p07c073f378">
   <rect x="679.34125" y="7.2" width="601.83" height="523.24"/>
  </clipPath>
 </defs>
</svg>
