<?xml version="1.0" encoding="utf-8" standalone="no"?>
<!DOCTYPE svg PUBLIC "-//W3C//DTD SVG 1.1//EN"
  "http://www.w3.org/Graphics/SVG/1.1/DTD/svg11.dtd">
<svg xmlns:xlink="http://www.w3.org/1999/xlink" width="1288.71125pt" height="567.99625pt" viewBox="0 0 1288.71125 567.99625" xmlns="http://www.w3.org/2000/svg" version="1.1">
 <metadata>
  <rdf:RDF xmlns:dc="http://purl.org/dc/elements/1.1/" xmlns:cc="http://creativecommons.org/ns#" xmlns:rdf="http://www.w3.org/1999/02/22-rdf-syntax-ns#">
   <cc:Work>
    <dc:type rdf:resource="http://purl.org/dc/dcmitype/StillImage"/>
    <dc:date>2025-06-14T16:41:16.737586</dc:date>
    <dc:format>image/svg+xml</dc:format>
    <dc:creator>
     <cc:Agent>
      <dc:title>Matplotlib v3.10.1, https://matplotlib.org/</dc:title>
     </cc:Agent>
    </dc:creator>
   </cc:Work>
  </rdf:RDF>
 </metadata>
 <defs>
  <style type="text/css">*{stroke-linejoin: round; stroke-linecap: butt}</style>
 </defs>
 <g id="figure_1">
  <g id="patch_1">
   <path d="M 0 567.99625 
L 1288.71125 567.99625 
L 1288.71125 0 
L 0 0 
z
" style="fill: #ffffff"/>
  </g>
  <g id="axes_1">
   <g id="patch_2">
    <path d="M 69.23125 530.44 
L 645.95125 530.44 
L 645.95125 7.2 
L 69.23125 7.2 
z
" style="fill: #ffffff"/>
   </g>
   <g id="patch_3">
    <path d="M 76.44025 530.44 
L 90.85825 530.44 
L 90.85825 265.977893 
L 76.44025 265.977893 
z
" clip-path="url(#p9595a4e676)" style="fill: #0c3b50"/>
   </g>
   <g id="patch_4">
    <path d="M 148.53025 530.44 
L 162.94825 530.44 
L 162.94825 382.500119 
L 148.53025 382.500119 
z
" clip-path="url(#p9595a4e676)" style="fill: #0c3b50"/>
   </g>
   <g id="patch_5">
    <path d="M 220.62025 530.44 
L 235.03825 530.44 
L 235.03825 257.737694 
L 220.62025 257.737694 
z
" clip-path="url(#p9595a4e676)" style="fill: #0c3b50"/>
   </g>
   <g id="patch_6">
    <path d="M 292.71025 530.44 
L 307.12825 530.44 
L 307.12825 259.061159 
L 292.71025 259.061159 
z
" clip-path="url(#p9595a4e676)" style="fill: #0c3b50"/>
   </g>
   <g id="patch_7">
    <path d="M 364.80025 530.44 
L 379.21825 530.44 
L 379.21825 244.61226 
L 364.80025 244.61226 
z
" clip-path="url(#p9595a4e676)" style="fill: #0c3b50"/>
   </g>
   <g id="patch_8">
    <path d="M 436.89025 530.44 
L 451.30825 530.44 
L 451.30825 373.941823 
L 436.89025 373.941823 
z
" clip-path="url(#p9595a4e676)" style="fill: #0c3b50"/>
   </g>
   <g id="patch_9">
    <path d="M 508.98025 530.44 
L 523.39825 530.44 
L 523.39825 373.184786 
L 508.98025 373.184786 
z
" clip-path="url(#p9595a4e676)" style="fill: #0c3b50"/>
   </g>
   <g id="patch_10">
    <path d="M 581.07025 530.44 
L 595.48825 530.44 
L 595.48825 367.607712 
L 581.07025 367.607712 
z
" clip-path="url(#p9595a4e676)" style="fill: #0c3b50"/>
   </g>
   <g id="patch_11">
    <path d="M 90.85825 530.44 
L 105.27625 530.44 
L 105.27625 268.014377 
L 90.85825 268.014377 
z
" clip-path="url(#p9595a4e676)" style="fill: #785a8c"/>
   </g>
   <g id="patch_12">
    <path d="M 162.94825 530.44 
L 177.36625 530.44 
L 177.36625 383.108905 
L 162.94825 383.108905 
z
" clip-path="url(#p9595a4e676)" style="fill: #785a8c"/>
   </g>
   <g id="patch_13">
    <path d="M 235.03825 530.44 
L 249.45625 530.44 
L 249.45625 144.133984 
L 235.03825 144.133984 
z
" clip-path="url(#p9595a4e676)" style="fill: #785a8c"/>
   </g>
   <g id="patch_14">
    <path d="M 307.12825 530.44 
L 321.54625 530.44 
L 321.54625 82.734262 
L 307.12825 82.734262 
z
" clip-path="url(#p9595a4e676)" style="fill: #785a8c"/>
   </g>
   <g id="patch_15">
    <path d="M 379.21825 530.44 
L 393.63625 530.44 
L 393.63625 66.132604 
L 379.21825 66.132604 
z
" clip-path="url(#p9595a4e676)" style="fill: #785a8c"/>
   </g>
   <g id="patch_16">
    <path d="M 451.30825 530.44 
L 465.72625 530.44 
L 465.72625 320.71295 
L 451.30825 320.71295 
z
" clip-path="url(#p9595a4e676)" style="fill: #785a8c"/>
   </g>
   <g id="patch_17">
    <path d="M 523.39825 530.44 
L 537.81625 530.44 
L 537.81625 291.862493 
L 523.39825 291.862493 
z
" clip-path="url(#p9595a4e676)" style="fill: #785a8c"/>
   </g>
   <g id="patch_18">
    <path d="M 595.48825 530.44 
L 609.90625 530.44 
L 609.90625 284.542116 
L 595.48825 284.542116 
z
" clip-path="url(#p9595a4e676)" style="fill: #785a8c"/>
   </g>
   <g id="patch_19">
    <path d="M 105.27625 530.44 
L 119.69425 530.44 
L 119.69425 515.668104 
L 105.27625 515.668104 
z
" clip-path="url(#p9595a4e676)" style="fill: #dc6980"/>
   </g>
   <g id="patch_20">
    <path d="M 177.36625 530.44 
L 191.78425 530.44 
L 191.78425 515.976068 
L 177.36625 515.976068 
z
" clip-path="url(#p9595a4e676)" style="fill: #dc6980"/>
   </g>
   <g id="patch_21">
    <path d="M 249.45625 530.44 
L 263.87425 530.44 
L 263.87425 515.964648 
L 249.45625 515.964648 
z
" clip-path="url(#p9595a4e676)" style="fill: #dc6980"/>
   </g>
   <g id="patch_22">
    <path d="M 321.54625 530.44 
L 335.96425 530.44 
L 335.96425 516.164435 
L 321.54625 516.164435 
z
" clip-path="url(#p9595a4e676)" style="fill: #dc6980"/>
   </g>
   <g id="patch_23">
    <path d="M 393.63625 530.44 
L 408.05425 530.44 
L 408.05425 516.170747 
L 393.63625 516.170747 
z
" clip-path="url(#p9595a4e676)" style="fill: #dc6980"/>
   </g>
   <g id="patch_24">
    <path d="M 465.72625 530.44 
L 480.14425 530.44 
L 480.14425 516.159368 
L 465.72625 516.159368 
z
" clip-path="url(#p9595a4e676)" style="fill: #dc6980"/>
   </g>
   <g id="patch_25">
    <path d="M 537.81625 530.44 
L 552.23425 530.44 
L 552.23425 516.697558 
L 537.81625 516.697558 
z
" clip-path="url(#p9595a4e676)" style="fill: #dc6980"/>
   </g>
   <g id="patch_26">
    <path d="M 609.90625 530.44 
L 624.32425 530.44 
L 624.32425 516.69216 
L 609.90625 516.69216 
z
" clip-path="url(#p9595a4e676)" style="fill: #dc6980"/>
   </g>
   <g id="patch_27">
    <path d="M 119.69425 530.44 
L 134.11225 530.44 
L 134.11225 504.586795 
L 119.69425 504.586795 
z
" clip-path="url(#p9595a4e676)" style="fill: #df9c20"/>
   </g>
   <g id="patch_28">
    <path d="M 191.78425 530.44 
L 206.20225 530.44 
L 206.20225 505.117593 
L 191.78425 505.117593 
z
" clip-path="url(#p9595a4e676)" style="fill: #df9c20"/>
   </g>
   <g id="patch_29">
    <path d="M 263.87425 530.44 
L 278.29225 530.44 
L 278.29225 503.446547 
L 263.87425 503.446547 
z
" clip-path="url(#p9595a4e676)" style="fill: #df9c20"/>
   </g>
   <g id="patch_30">
    <path d="M 335.96425 530.44 
L 350.38225 530.44 
L 350.38225 503.442103 
L 335.96425 503.442103 
z
" clip-path="url(#p9595a4e676)" style="fill: #df9c20"/>
   </g>
   <g id="patch_31">
    <path d="M 408.05425 530.44 
L 422.47225 530.44 
L 422.47225 503.412536 
L 408.05425 503.412536 
z
" clip-path="url(#p9595a4e676)" style="fill: #df9c20"/>
   </g>
   <g id="patch_32">
    <path d="M 480.14425 530.44 
L 494.56225 530.44 
L 494.56225 503.96227 
L 480.14425 503.96227 
z
" clip-path="url(#p9595a4e676)" style="fill: #df9c20"/>
   </g>
   <g id="patch_33">
    <path d="M 552.23425 530.44 
L 566.65225 530.44 
L 566.65225 503.968582 
L 552.23425 503.968582 
z
" clip-path="url(#p9595a4e676)" style="fill: #df9c20"/>
   </g>
   <g id="patch_34">
    <path d="M 624.32425 530.44 
L 638.74225 530.44 
L 638.74225 503.910777 
L 624.32425 503.910777 
z
" clip-path="url(#p9595a4e676)" style="fill: #df9c20"/>
   </g>
   <g id="patch_35">
    <path d="M 105.27625 530.44 
L 105.27625 530.44 
L 105.27625 530.44 
L 105.27625 530.44 
z
" clip-path="url(#p9595a4e676)" style="fill: #0c3b50"/>
   </g>
   <g id="patch_36">
    <path d="M 105.27625 530.44 
L 105.27625 530.44 
L 105.27625 530.44 
L 105.27625 530.44 
z
" clip-path="url(#p9595a4e676)" style="fill: #785a8c"/>
   </g>
   <g id="patch_37">
    <path d="M 105.27625 530.44 
L 105.27625 530.44 
L 105.27625 530.44 
L 105.27625 530.44 
z
" clip-path="url(#p9595a4e676)" style="fill: #dc6980"/>
   </g>
   <g id="patch_38">
    <path d="M 105.27625 530.44 
L 105.27625 530.44 
L 105.27625 530.44 
L 105.27625 530.44 
z
" clip-path="url(#p9595a4e676)" style="fill: #df9c20"/>
   </g>
   <g id="matplotlib.axis_1">
    <g id="xtick_1">
     <g id="line2d_1">
      <defs>
       <path id="m5391ef49d5" d="M 0 0 
L 0 3.5 
" style="stroke: #000000; stroke-width: 0.8"/>
      </defs>
      <g>
       <use xlink:href="#m5391ef49d5" x="105.27625" y="530.44" style="stroke: #000000; stroke-width: 0.8"/>
      </g>
     </g>
     <g id="text_1">
      <!-- 1 -->
      <g transform="translate(102.095 545.038437) scale(0.1 -0.1)">
       <defs>
        <path id="DejaVuSans-31" d="M 794 531 
L 1825 531 
L 1825 4091 
L 703 3866 
L 703 4441 
L 1819 4666 
L 2450 4666 
L 2450 531 
L 3481 531 
L 3481 0 
L 794 0 
L 794 531 
z
" transform="scale(0.015625)"/>
       </defs>
       <use xlink:href="#DejaVuSans-31"/>
      </g>
     </g>
    </g>
    <g id="xtick_2">
     <g id="line2d_2">
      <g>
       <use xlink:href="#m5391ef49d5" x="177.36625" y="530.44" style="stroke: #000000; stroke-width: 0.8"/>
      </g>
     </g>
     <g id="text_2">
      <!-- 2 -->
      <g transform="translate(174.185 545.038437) scale(0.1 -0.1)">
       <defs>
        <path id="DejaVuSans-32" d="M 1228 531 
L 3431 531 
L 3431 0 
L 469 0 
L 469 531 
Q 828 903 1448 1529 
Q 2069 2156 2228 2338 
Q 2531 2678 2651 2914 
Q 2772 3150 2772 3378 
Q 2772 3750 2511 3984 
Q 2250 4219 1831 4219 
Q 1534 4219 1204 4116 
Q 875 4013 500 3803 
L 500 4441 
Q 881 4594 1212 4672 
Q 1544 4750 1819 4750 
Q 2544 4750 2975 4387 
Q 3406 4025 3406 3419 
Q 3406 3131 3298 2873 
Q 3191 2616 2906 2266 
Q 2828 2175 2409 1742 
Q 1991 1309 1228 531 
z
" transform="scale(0.015625)"/>
       </defs>
       <use xlink:href="#DejaVuSans-32"/>
      </g>
     </g>
    </g>
    <g id="xtick_3">
     <g id="line2d_3">
      <g>
       <use xlink:href="#m5391ef49d5" x="249.45625" y="530.44" style="stroke: #000000; stroke-width: 0.8"/>
      </g>
     </g>
     <g id="text_3">
      <!-- 3 -->
      <g transform="translate(246.275 545.038437) scale(0.1 -0.1)">
       <defs>
        <path id="DejaVuSans-33" d="M 2597 2516 
Q 3050 2419 3304 2112 
Q 3559 1806 3559 1356 
Q 3559 666 3084 287 
Q 2609 -91 1734 -91 
Q 1441 -91 1130 -33 
Q 819 25 488 141 
L 488 750 
Q 750 597 1062 519 
Q 1375 441 1716 441 
Q 2309 441 2620 675 
Q 2931 909 2931 1356 
Q 2931 1769 2642 2001 
Q 2353 2234 1838 2234 
L 1294 2234 
L 1294 2753 
L 1863 2753 
Q 2328 2753 2575 2939 
Q 2822 3125 2822 3475 
Q 2822 3834 2567 4026 
Q 2313 4219 1838 4219 
Q 1578 4219 1281 4162 
Q 984 4106 628 3988 
L 628 4550 
Q 988 4650 1302 4700 
Q 1616 4750 1894 4750 
Q 2613 4750 3031 4423 
Q 3450 4097 3450 3541 
Q 3450 3153 3228 2886 
Q 3006 2619 2597 2516 
z
" transform="scale(0.015625)"/>
       </defs>
       <use xlink:href="#DejaVuSans-33"/>
      </g>
     </g>
    </g>
    <g id="xtick_4">
     <g id="line2d_4">
      <g>
       <use xlink:href="#m5391ef49d5" x="321.54625" y="530.44" style="stroke: #000000; stroke-width: 0.8"/>
      </g>
     </g>
     <g id="text_4">
      <!-- 4 -->
      <g transform="translate(318.365 545.038437) scale(0.1 -0.1)">
       <defs>
        <path id="DejaVuSans-34" d="M 2419 4116 
L 825 1625 
L 2419 1625 
L 2419 4116 
z
M 2253 4666 
L 3047 4666 
L 3047 1625 
L 3713 1625 
L 3713 1100 
L 3047 1100 
L 3047 0 
L 2419 0 
L 2419 1100 
L 313 1100 
L 313 1709 
L 2253 4666 
z
" transform="scale(0.015625)"/>
       </defs>
       <use xlink:href="#DejaVuSans-34"/>
      </g>
     </g>
    </g>
    <g id="xtick_5">
     <g id="line2d_5">
      <g>
       <use xlink:href="#m5391ef49d5" x="393.63625" y="530.44" style="stroke: #000000; stroke-width: 0.8"/>
      </g>
     </g>
     <g id="text_5">
      <!-- 5 -->
      <g transform="translate(390.455 545.038437) scale(0.1 -0.1)">
       <defs>
        <path id="DejaVuSans-35" d="M 691 4666 
L 3169 4666 
L 3169 4134 
L 1269 4134 
L 1269 2991 
Q 1406 3038 1543 3061 
Q 1681 3084 1819 3084 
Q 2600 3084 3056 2656 
Q 3513 2228 3513 1497 
Q 3513 744 3044 326 
Q 2575 -91 1722 -91 
Q 1428 -91 1123 -41 
Q 819 9 494 109 
L 494 744 
Q 775 591 1075 516 
Q 1375 441 1709 441 
Q 2250 441 2565 725 
Q 2881 1009 2881 1497 
Q 2881 1984 2565 2268 
Q 2250 2553 1709 2553 
Q 1456 2553 1204 2497 
Q 953 2441 691 2322 
L 691 4666 
z
" transform="scale(0.015625)"/>
       </defs>
       <use xlink:href="#DejaVuSans-35"/>
      </g>
     </g>
    </g>
    <g id="xtick_6">
     <g id="line2d_6">
      <g>
       <use xlink:href="#m5391ef49d5" x="465.72625" y="530.44" style="stroke: #000000; stroke-width: 0.8"/>
      </g>
     </g>
     <g id="text_6">
      <!-- 6 -->
      <g transform="translate(462.545 545.038437) scale(0.1 -0.1)">
       <defs>
        <path id="DejaVuSans-36" d="M 2113 2584 
Q 1688 2584 1439 2293 
Q 1191 2003 1191 1497 
Q 1191 994 1439 701 
Q 1688 409 2113 409 
Q 2538 409 2786 701 
Q 3034 994 3034 1497 
Q 3034 2003 2786 2293 
Q 2538 2584 2113 2584 
z
M 3366 4563 
L 3366 3988 
Q 3128 4100 2886 4159 
Q 2644 4219 2406 4219 
Q 1781 4219 1451 3797 
Q 1122 3375 1075 2522 
Q 1259 2794 1537 2939 
Q 1816 3084 2150 3084 
Q 2853 3084 3261 2657 
Q 3669 2231 3669 1497 
Q 3669 778 3244 343 
Q 2819 -91 2113 -91 
Q 1303 -91 875 529 
Q 447 1150 447 2328 
Q 447 3434 972 4092 
Q 1497 4750 2381 4750 
Q 2619 4750 2861 4703 
Q 3103 4656 3366 4563 
z
" transform="scale(0.015625)"/>
       </defs>
       <use xlink:href="#DejaVuSans-36"/>
      </g>
     </g>
    </g>
    <g id="xtick_7">
     <g id="line2d_7">
      <g>
       <use xlink:href="#m5391ef49d5" x="537.81625" y="530.44" style="stroke: #000000; stroke-width: 0.8"/>
      </g>
     </g>
     <g id="text_7">
      <!-- 7 -->
      <g transform="translate(534.635 545.038437) scale(0.1 -0.1)">
       <defs>
        <path id="DejaVuSans-37" d="M 525 4666 
L 3525 4666 
L 3525 4397 
L 1831 0 
L 1172 0 
L 2766 4134 
L 525 4134 
L 525 4666 
z
" transform="scale(0.015625)"/>
       </defs>
       <use xlink:href="#DejaVuSans-37"/>
      </g>
     </g>
    </g>
    <g id="xtick_8">
     <g id="line2d_8">
      <g>
       <use xlink:href="#m5391ef49d5" x="609.90625" y="530.44" style="stroke: #000000; stroke-width: 0.8"/>
      </g>
     </g>
     <g id="text_8">
      <!-- 8 -->
      <g transform="translate(606.725 545.038437) scale(0.1 -0.1)">
       <defs>
        <path id="DejaVuSans-38" d="M 2034 2216 
Q 1584 2216 1326 1975 
Q 1069 1734 1069 1313 
Q 1069 891 1326 650 
Q 1584 409 2034 409 
Q 2484 409 2743 651 
Q 3003 894 3003 1313 
Q 3003 1734 2745 1975 
Q 2488 2216 2034 2216 
z
M 1403 2484 
Q 997 2584 770 2862 
Q 544 3141 544 3541 
Q 544 4100 942 4425 
Q 1341 4750 2034 4750 
Q 2731 4750 3128 4425 
Q 3525 4100 3525 3541 
Q 3525 3141 3298 2862 
Q 3072 2584 2669 2484 
Q 3125 2378 3379 2068 
Q 3634 1759 3634 1313 
Q 3634 634 3220 271 
Q 2806 -91 2034 -91 
Q 1263 -91 848 271 
Q 434 634 434 1313 
Q 434 1759 690 2068 
Q 947 2378 1403 2484 
z
M 1172 3481 
Q 1172 3119 1398 2916 
Q 1625 2713 2034 2713 
Q 2441 2713 2670 2916 
Q 2900 3119 2900 3481 
Q 2900 3844 2670 4047 
Q 2441 4250 2034 4250 
Q 1625 4250 1398 4047 
Q 1172 3844 1172 3481 
z
" transform="scale(0.015625)"/>
       </defs>
       <use xlink:href="#DejaVuSans-38"/>
      </g>
     </g>
    </g>
    <g id="text_9">
     <!-- Channel widths configuration number -->
     <g transform="translate(263.230313 558.716562) scale(0.1 -0.1)">
      <defs>
       <path id="DejaVuSans-43" d="M 4122 4306 
L 4122 3641 
Q 3803 3938 3442 4084 
Q 3081 4231 2675 4231 
Q 1875 4231 1450 3742 
Q 1025 3253 1025 2328 
Q 1025 1406 1450 917 
Q 1875 428 2675 428 
Q 3081 428 3442 575 
Q 3803 722 4122 1019 
L 4122 359 
Q 3791 134 3420 21 
Q 3050 -91 2638 -91 
Q 1578 -91 968 557 
Q 359 1206 359 2328 
Q 359 3453 968 4101 
Q 1578 4750 2638 4750 
Q 3056 4750 3426 4639 
Q 3797 4528 4122 4306 
z
" transform="scale(0.015625)"/>
       <path id="DejaVuSans-68" d="M 3513 2113 
L 3513 0 
L 2938 0 
L 2938 2094 
Q 2938 2591 2744 2837 
Q 2550 3084 2163 3084 
Q 1697 3084 1428 2787 
Q 1159 2491 1159 1978 
L 1159 0 
L 581 0 
L 581 4863 
L 1159 4863 
L 1159 2956 
Q 1366 3272 1645 3428 
Q 1925 3584 2291 3584 
Q 2894 3584 3203 3211 
Q 3513 2838 3513 2113 
z
" transform="scale(0.015625)"/>
       <path id="DejaVuSans-61" d="M 2194 1759 
Q 1497 1759 1228 1600 
Q 959 1441 959 1056 
Q 959 750 1161 570 
Q 1363 391 1709 391 
Q 2188 391 2477 730 
Q 2766 1069 2766 1631 
L 2766 1759 
L 2194 1759 
z
M 3341 1997 
L 3341 0 
L 2766 0 
L 2766 531 
Q 2569 213 2275 61 
Q 1981 -91 1556 -91 
Q 1019 -91 701 211 
Q 384 513 384 1019 
Q 384 1609 779 1909 
Q 1175 2209 1959 2209 
L 2766 2209 
L 2766 2266 
Q 2766 2663 2505 2880 
Q 2244 3097 1772 3097 
Q 1472 3097 1187 3025 
Q 903 2953 641 2809 
L 641 3341 
Q 956 3463 1253 3523 
Q 1550 3584 1831 3584 
Q 2591 3584 2966 3190 
Q 3341 2797 3341 1997 
z
" transform="scale(0.015625)"/>
       <path id="DejaVuSans-6e" d="M 3513 2113 
L 3513 0 
L 2938 0 
L 2938 2094 
Q 2938 2591 2744 2837 
Q 2550 3084 2163 3084 
Q 1697 3084 1428 2787 
Q 1159 2491 1159 1978 
L 1159 0 
L 581 0 
L 581 3500 
L 1159 3500 
L 1159 2956 
Q 1366 3272 1645 3428 
Q 1925 3584 2291 3584 
Q 2894 3584 3203 3211 
Q 3513 2838 3513 2113 
z
" transform="scale(0.015625)"/>
       <path id="DejaVuSans-65" d="M 3597 1894 
L 3597 1613 
L 953 1613 
Q 991 1019 1311 708 
Q 1631 397 2203 397 
Q 2534 397 2845 478 
Q 3156 559 3463 722 
L 3463 178 
Q 3153 47 2828 -22 
Q 2503 -91 2169 -91 
Q 1331 -91 842 396 
Q 353 884 353 1716 
Q 353 2575 817 3079 
Q 1281 3584 2069 3584 
Q 2775 3584 3186 3129 
Q 3597 2675 3597 1894 
z
M 3022 2063 
Q 3016 2534 2758 2815 
Q 2500 3097 2075 3097 
Q 1594 3097 1305 2825 
Q 1016 2553 972 2059 
L 3022 2063 
z
" transform="scale(0.015625)"/>
       <path id="DejaVuSans-6c" d="M 603 4863 
L 1178 4863 
L 1178 0 
L 603 0 
L 603 4863 
z
" transform="scale(0.015625)"/>
       <path id="DejaVuSans-20" transform="scale(0.015625)"/>
       <path id="DejaVuSans-77" d="M 269 3500 
L 844 3500 
L 1563 769 
L 2278 3500 
L 2956 3500 
L 3675 769 
L 4391 3500 
L 4966 3500 
L 4050 0 
L 3372 0 
L 2619 2869 
L 1863 0 
L 1184 0 
L 269 3500 
z
" transform="scale(0.015625)"/>
       <path id="DejaVuSans-69" d="M 603 3500 
L 1178 3500 
L 1178 0 
L 603 0 
L 603 3500 
z
M 603 4863 
L 1178 4863 
L 1178 4134 
L 603 4134 
L 603 4863 
z
" transform="scale(0.015625)"/>
       <path id="DejaVuSans-64" d="M 2906 2969 
L 2906 4863 
L 3481 4863 
L 3481 0 
L 2906 0 
L 2906 525 
Q 2725 213 2448 61 
Q 2172 -91 1784 -91 
Q 1150 -91 751 415 
Q 353 922 353 1747 
Q 353 2572 751 3078 
Q 1150 3584 1784 3584 
Q 2172 3584 2448 3432 
Q 2725 3281 2906 2969 
z
M 947 1747 
Q 947 1113 1208 752 
Q 1469 391 1925 391 
Q 2381 391 2643 752 
Q 2906 1113 2906 1747 
Q 2906 2381 2643 2742 
Q 2381 3103 1925 3103 
Q 1469 3103 1208 2742 
Q 947 2381 947 1747 
z
" transform="scale(0.015625)"/>
       <path id="DejaVuSans-74" d="M 1172 4494 
L 1172 3500 
L 2356 3500 
L 2356 3053 
L 1172 3053 
L 1172 1153 
Q 1172 725 1289 603 
Q 1406 481 1766 481 
L 2356 481 
L 2356 0 
L 1766 0 
Q 1100 0 847 248 
Q 594 497 594 1153 
L 594 3053 
L 172 3053 
L 172 3500 
L 594 3500 
L 594 4494 
L 1172 4494 
z
" transform="scale(0.015625)"/>
       <path id="DejaVuSans-73" d="M 2834 3397 
L 2834 2853 
Q 2591 2978 2328 3040 
Q 2066 3103 1784 3103 
Q 1356 3103 1142 2972 
Q 928 2841 928 2578 
Q 928 2378 1081 2264 
Q 1234 2150 1697 2047 
L 1894 2003 
Q 2506 1872 2764 1633 
Q 3022 1394 3022 966 
Q 3022 478 2636 193 
Q 2250 -91 1575 -91 
Q 1294 -91 989 -36 
Q 684 19 347 128 
L 347 722 
Q 666 556 975 473 
Q 1284 391 1588 391 
Q 1994 391 2212 530 
Q 2431 669 2431 922 
Q 2431 1156 2273 1281 
Q 2116 1406 1581 1522 
L 1381 1569 
Q 847 1681 609 1914 
Q 372 2147 372 2553 
Q 372 3047 722 3315 
Q 1072 3584 1716 3584 
Q 2034 3584 2315 3537 
Q 2597 3491 2834 3397 
z
" transform="scale(0.015625)"/>
       <path id="DejaVuSans-63" d="M 3122 3366 
L 3122 2828 
Q 2878 2963 2633 3030 
Q 2388 3097 2138 3097 
Q 1578 3097 1268 2742 
Q 959 2388 959 1747 
Q 959 1106 1268 751 
Q 1578 397 2138 397 
Q 2388 397 2633 464 
Q 2878 531 3122 666 
L 3122 134 
Q 2881 22 2623 -34 
Q 2366 -91 2075 -91 
Q 1284 -91 818 406 
Q 353 903 353 1747 
Q 353 2603 823 3093 
Q 1294 3584 2113 3584 
Q 2378 3584 2631 3529 
Q 2884 3475 3122 3366 
z
" transform="scale(0.015625)"/>
       <path id="DejaVuSans-6f" d="M 1959 3097 
Q 1497 3097 1228 2736 
Q 959 2375 959 1747 
Q 959 1119 1226 758 
Q 1494 397 1959 397 
Q 2419 397 2687 759 
Q 2956 1122 2956 1747 
Q 2956 2369 2687 2733 
Q 2419 3097 1959 3097 
z
M 1959 3584 
Q 2709 3584 3137 3096 
Q 3566 2609 3566 1747 
Q 3566 888 3137 398 
Q 2709 -91 1959 -91 
Q 1206 -91 779 398 
Q 353 888 353 1747 
Q 353 2609 779 3096 
Q 1206 3584 1959 3584 
z
" transform="scale(0.015625)"/>
       <path id="DejaVuSans-66" d="M 2375 4863 
L 2375 4384 
L 1825 4384 
Q 1516 4384 1395 4259 
Q 1275 4134 1275 3809 
L 1275 3500 
L 2222 3500 
L 2222 3053 
L 1275 3053 
L 1275 0 
L 697 0 
L 697 3053 
L 147 3053 
L 147 3500 
L 697 3500 
L 697 3744 
Q 697 4328 969 4595 
Q 1241 4863 1831 4863 
L 2375 4863 
z
" transform="scale(0.015625)"/>
       <path id="DejaVuSans-67" d="M 2906 1791 
Q 2906 2416 2648 2759 
Q 2391 3103 1925 3103 
Q 1463 3103 1205 2759 
Q 947 2416 947 1791 
Q 947 1169 1205 825 
Q 1463 481 1925 481 
Q 2391 481 2648 825 
Q 2906 1169 2906 1791 
z
M 3481 434 
Q 3481 -459 3084 -895 
Q 2688 -1331 1869 -1331 
Q 1566 -1331 1297 -1286 
Q 1028 -1241 775 -1147 
L 775 -588 
Q 1028 -725 1275 -790 
Q 1522 -856 1778 -856 
Q 2344 -856 2625 -561 
Q 2906 -266 2906 331 
L 2906 616 
Q 2728 306 2450 153 
Q 2172 0 1784 0 
Q 1141 0 747 490 
Q 353 981 353 1791 
Q 353 2603 747 3093 
Q 1141 3584 1784 3584 
Q 2172 3584 2450 3431 
Q 2728 3278 2906 2969 
L 2906 3500 
L 3481 3500 
L 3481 434 
z
" transform="scale(0.015625)"/>
       <path id="DejaVuSans-75" d="M 544 1381 
L 544 3500 
L 1119 3500 
L 1119 1403 
Q 1119 906 1312 657 
Q 1506 409 1894 409 
Q 2359 409 2629 706 
Q 2900 1003 2900 1516 
L 2900 3500 
L 3475 3500 
L 3475 0 
L 2900 0 
L 2900 538 
Q 2691 219 2414 64 
Q 2138 -91 1772 -91 
Q 1169 -91 856 284 
Q 544 659 544 1381 
z
M 1991 3584 
L 1991 3584 
z
" transform="scale(0.015625)"/>
       <path id="DejaVuSans-72" d="M 2631 2963 
Q 2534 3019 2420 3045 
Q 2306 3072 2169 3072 
Q 1681 3072 1420 2755 
Q 1159 2438 1159 1844 
L 1159 0 
L 581 0 
L 581 3500 
L 1159 3500 
L 1159 2956 
Q 1341 3275 1631 3429 
Q 1922 3584 2338 3584 
Q 2397 3584 2469 3576 
Q 2541 3569 2628 3553 
L 2631 2963 
z
" transform="scale(0.015625)"/>
       <path id="DejaVuSans-6d" d="M 3328 2828 
Q 3544 3216 3844 3400 
Q 4144 3584 4550 3584 
Q 5097 3584 5394 3201 
Q 5691 2819 5691 2113 
L 5691 0 
L 5113 0 
L 5113 2094 
Q 5113 2597 4934 2840 
Q 4756 3084 4391 3084 
Q 3944 3084 3684 2787 
Q 3425 2491 3425 1978 
L 3425 0 
L 2847 0 
L 2847 2094 
Q 2847 2600 2669 2842 
Q 2491 3084 2119 3084 
Q 1678 3084 1418 2786 
Q 1159 2488 1159 1978 
L 1159 0 
L 581 0 
L 581 3500 
L 1159 3500 
L 1159 2956 
Q 1356 3278 1631 3431 
Q 1906 3584 2284 3584 
Q 2666 3584 2933 3390 
Q 3200 3197 3328 2828 
z
" transform="scale(0.015625)"/>
       <path id="DejaVuSans-62" d="M 3116 1747 
Q 3116 2381 2855 2742 
Q 2594 3103 2138 3103 
Q 1681 3103 1420 2742 
Q 1159 2381 1159 1747 
Q 1159 1113 1420 752 
Q 1681 391 2138 391 
Q 2594 391 2855 752 
Q 3116 1113 3116 1747 
z
M 1159 2969 
Q 1341 3281 1617 3432 
Q 1894 3584 2278 3584 
Q 2916 3584 3314 3078 
Q 3713 2572 3713 1747 
Q 3713 922 3314 415 
Q 2916 -91 2278 -91 
Q 1894 -91 1617 61 
Q 1341 213 1159 525 
L 1159 0 
L 581 0 
L 581 4863 
L 1159 4863 
L 1159 2969 
z
" transform="scale(0.015625)"/>
      </defs>
      <use xlink:href="#DejaVuSans-43"/>
      <use xlink:href="#DejaVuSans-68" transform="translate(69.824219 0)"/>
      <use xlink:href="#DejaVuSans-61" transform="translate(133.203125 0)"/>
      <use xlink:href="#DejaVuSans-6e" transform="translate(194.482422 0)"/>
      <use xlink:href="#DejaVuSans-6e" transform="translate(257.861328 0)"/>
      <use xlink:href="#DejaVuSans-65" transform="translate(321.240234 0)"/>
      <use xlink:href="#DejaVuSans-6c" transform="translate(382.763672 0)"/>
      <use xlink:href="#DejaVuSans-20" transform="translate(410.546875 0)"/>
      <use xlink:href="#DejaVuSans-77" transform="translate(442.333984 0)"/>
      <use xlink:href="#DejaVuSans-69" transform="translate(524.121094 0)"/>
      <use xlink:href="#DejaVuSans-64" transform="translate(551.904297 0)"/>
      <use xlink:href="#DejaVuSans-74" transform="translate(615.380859 0)"/>
      <use xlink:href="#DejaVuSans-68" transform="translate(654.589844 0)"/>
      <use xlink:href="#DejaVuSans-73" transform="translate(717.96875 0)"/>
      <use xlink:href="#DejaVuSans-20" transform="translate(770.068359 0)"/>
      <use xlink:href="#DejaVuSans-63" transform="translate(801.855469 0)"/>
      <use xlink:href="#DejaVuSans-6f" transform="translate(856.835938 0)"/>
      <use xlink:href="#DejaVuSans-6e" transform="translate(918.017578 0)"/>
      <use xlink:href="#DejaVuSans-66" transform="translate(981.396484 0)"/>
      <use xlink:href="#DejaVuSans-69" transform="translate(1016.601562 0)"/>
      <use xlink:href="#DejaVuSans-67" transform="translate(1044.384766 0)"/>
      <use xlink:href="#DejaVuSans-75" transform="translate(1107.861328 0)"/>
      <use xlink:href="#DejaVuSans-72" transform="translate(1171.240234 0)"/>
      <use xlink:href="#DejaVuSans-61" transform="translate(1212.353516 0)"/>
      <use xlink:href="#DejaVuSans-74" transform="translate(1273.632812 0)"/>
      <use xlink:href="#DejaVuSans-69" transform="translate(1312.841797 0)"/>
      <use xlink:href="#DejaVuSans-6f" transform="translate(1340.625 0)"/>
      <use xlink:href="#DejaVuSans-6e" transform="translate(1401.806641 0)"/>
      <use xlink:href="#DejaVuSans-20" transform="translate(1465.185547 0)"/>
      <use xlink:href="#DejaVuSans-6e" transform="translate(1496.972656 0)"/>
      <use xlink:href="#DejaVuSans-75" transform="translate(1560.351562 0)"/>
      <use xlink:href="#DejaVuSans-6d" transform="translate(1623.730469 0)"/>
      <use xlink:href="#DejaVuSans-62" transform="translate(1721.142578 0)"/>
      <use xlink:href="#DejaVuSans-65" transform="translate(1784.619141 0)"/>
      <use xlink:href="#DejaVuSans-72" transform="translate(1846.142578 0)"/>
     </g>
    </g>
   </g>
   <g id="matplotlib.axis_2">
    <g id="ytick_1">
     <g id="line2d_9">
      <defs>
       <path id="mc88ededf18" d="M 0 0 
L -3.5 0 
" style="stroke: #000000; stroke-width: 0.8"/>
      </defs>
      <g>
       <use xlink:href="#mc88ededf18" x="69.23125" y="530.44" style="stroke: #000000; stroke-width: 0.8"/>
      </g>
     </g>
     <g id="text_10">
      <!-- 0.00000 -->
      <g transform="translate(20.878125 534.239219) scale(0.1 -0.1)">
       <defs>
        <path id="DejaVuSans-30" d="M 2034 4250 
Q 1547 4250 1301 3770 
Q 1056 3291 1056 2328 
Q 1056 1369 1301 889 
Q 1547 409 2034 409 
Q 2525 409 2770 889 
Q 3016 1369 3016 2328 
Q 3016 3291 2770 3770 
Q 2525 4250 2034 4250 
z
M 2034 4750 
Q 2819 4750 3233 4129 
Q 3647 3509 3647 2328 
Q 3647 1150 3233 529 
Q 2819 -91 2034 -91 
Q 1250 -91 836 529 
Q 422 1150 422 2328 
Q 422 3509 836 4129 
Q 1250 4750 2034 4750 
z
" transform="scale(0.015625)"/>
        <path id="DejaVuSans-2e" d="M 684 794 
L 1344 794 
L 1344 0 
L 684 0 
L 684 794 
z
" transform="scale(0.015625)"/>
       </defs>
       <use xlink:href="#DejaVuSans-30"/>
       <use xlink:href="#DejaVuSans-2e" transform="translate(63.623047 0)"/>
       <use xlink:href="#DejaVuSans-30" transform="translate(95.410156 0)"/>
       <use xlink:href="#DejaVuSans-30" transform="translate(159.033203 0)"/>
       <use xlink:href="#DejaVuSans-30" transform="translate(222.65625 0)"/>
       <use xlink:href="#DejaVuSans-30" transform="translate(286.279297 0)"/>
       <use xlink:href="#DejaVuSans-30" transform="translate(349.902344 0)"/>
      </g>
     </g>
    </g>
    <g id="ytick_2">
     <g id="line2d_10">
      <g>
       <use xlink:href="#mc88ededf18" x="69.23125" y="468.149524" style="stroke: #000000; stroke-width: 0.8"/>
      </g>
     </g>
     <g id="text_11">
      <!-- 0.00005 -->
      <g transform="translate(20.878125 471.948743) scale(0.1 -0.1)">
       <use xlink:href="#DejaVuSans-30"/>
       <use xlink:href="#DejaVuSans-2e" transform="translate(63.623047 0)"/>
       <use xlink:href="#DejaVuSans-30" transform="translate(95.410156 0)"/>
       <use xlink:href="#DejaVuSans-30" transform="translate(159.033203 0)"/>
       <use xlink:href="#DejaVuSans-30" transform="translate(222.65625 0)"/>
       <use xlink:href="#DejaVuSans-30" transform="translate(286.279297 0)"/>
       <use xlink:href="#DejaVuSans-35" transform="translate(349.902344 0)"/>
      </g>
     </g>
    </g>
    <g id="ytick_3">
     <g id="line2d_11">
      <g>
       <use xlink:href="#mc88ededf18" x="69.23125" y="405.859048" style="stroke: #000000; stroke-width: 0.8"/>
      </g>
     </g>
     <g id="text_12">
      <!-- 0.00010 -->
      <g transform="translate(20.878125 409.658266) scale(0.1 -0.1)">
       <use xlink:href="#DejaVuSans-30"/>
       <use xlink:href="#DejaVuSans-2e" transform="translate(63.623047 0)"/>
       <use xlink:href="#DejaVuSans-30" transform="translate(95.410156 0)"/>
       <use xlink:href="#DejaVuSans-30" transform="translate(159.033203 0)"/>
       <use xlink:href="#DejaVuSans-30" transform="translate(222.65625 0)"/>
       <use xlink:href="#DejaVuSans-31" transform="translate(286.279297 0)"/>
       <use xlink:href="#DejaVuSans-30" transform="translate(349.902344 0)"/>
      </g>
     </g>
    </g>
    <g id="ytick_4">
     <g id="line2d_12">
      <g>
       <use xlink:href="#mc88ededf18" x="69.23125" y="343.568571" style="stroke: #000000; stroke-width: 0.8"/>
      </g>
     </g>
     <g id="text_13">
      <!-- 0.00015 -->
      <g transform="translate(20.878125 347.36779) scale(0.1 -0.1)">
       <use xlink:href="#DejaVuSans-30"/>
       <use xlink:href="#DejaVuSans-2e" transform="translate(63.623047 0)"/>
       <use xlink:href="#DejaVuSans-30" transform="translate(95.410156 0)"/>
       <use xlink:href="#DejaVuSans-30" transform="translate(159.033203 0)"/>
       <use xlink:href="#DejaVuSans-30" transform="translate(222.65625 0)"/>
       <use xlink:href="#DejaVuSans-31" transform="translate(286.279297 0)"/>
       <use xlink:href="#DejaVuSans-35" transform="translate(349.902344 0)"/>
      </g>
     </g>
    </g>
    <g id="ytick_5">
     <g id="line2d_13">
      <g>
       <use xlink:href="#mc88ededf18" x="69.23125" y="281.278095" style="stroke: #000000; stroke-width: 0.8"/>
      </g>
     </g>
     <g id="text_14">
      <!-- 0.00020 -->
      <g transform="translate(20.878125 285.077314) scale(0.1 -0.1)">
       <use xlink:href="#DejaVuSans-30"/>
       <use xlink:href="#DejaVuSans-2e" transform="translate(63.623047 0)"/>
       <use xlink:href="#DejaVuSans-30" transform="translate(95.410156 0)"/>
       <use xlink:href="#DejaVuSans-30" transform="translate(159.033203 0)"/>
       <use xlink:href="#DejaVuSans-30" transform="translate(222.65625 0)"/>
       <use xlink:href="#DejaVuSans-32" transform="translate(286.279297 0)"/>
       <use xlink:href="#DejaVuSans-30" transform="translate(349.902344 0)"/>
      </g>
     </g>
    </g>
    <g id="ytick_6">
     <g id="line2d_14">
      <g>
       <use xlink:href="#mc88ededf18" x="69.23125" y="218.987619" style="stroke: #000000; stroke-width: 0.8"/>
      </g>
     </g>
     <g id="text_15">
      <!-- 0.00025 -->
      <g transform="translate(20.878125 222.786838) scale(0.1 -0.1)">
       <use xlink:href="#DejaVuSans-30"/>
       <use xlink:href="#DejaVuSans-2e" transform="translate(63.623047 0)"/>
       <use xlink:href="#DejaVuSans-30" transform="translate(95.410156 0)"/>
       <use xlink:href="#DejaVuSans-30" transform="translate(159.033203 0)"/>
       <use xlink:href="#DejaVuSans-30" transform="translate(222.65625 0)"/>
       <use xlink:href="#DejaVuSans-32" transform="translate(286.279297 0)"/>
       <use xlink:href="#DejaVuSans-35" transform="translate(349.902344 0)"/>
      </g>
     </g>
    </g>
    <g id="ytick_7">
     <g id="line2d_15">
      <g>
       <use xlink:href="#mc88ededf18" x="69.23125" y="156.697143" style="stroke: #000000; stroke-width: 0.8"/>
      </g>
     </g>
     <g id="text_16">
      <!-- 0.00030 -->
      <g transform="translate(20.878125 160.496362) scale(0.1 -0.1)">
       <use xlink:href="#DejaVuSans-30"/>
       <use xlink:href="#DejaVuSans-2e" transform="translate(63.623047 0)"/>
       <use xlink:href="#DejaVuSans-30" transform="translate(95.410156 0)"/>
       <use xlink:href="#DejaVuSans-30" transform="translate(159.033203 0)"/>
       <use xlink:href="#DejaVuSans-30" transform="translate(222.65625 0)"/>
       <use xlink:href="#DejaVuSans-33" transform="translate(286.279297 0)"/>
       <use xlink:href="#DejaVuSans-30" transform="translate(349.902344 0)"/>
      </g>
     </g>
    </g>
    <g id="ytick_8">
     <g id="line2d_16">
      <g>
       <use xlink:href="#mc88ededf18" x="69.23125" y="94.406667" style="stroke: #000000; stroke-width: 0.8"/>
      </g>
     </g>
     <g id="text_17">
      <!-- 0.00035 -->
      <g transform="translate(20.878125 98.205885) scale(0.1 -0.1)">
       <use xlink:href="#DejaVuSans-30"/>
       <use xlink:href="#DejaVuSans-2e" transform="translate(63.623047 0)"/>
       <use xlink:href="#DejaVuSans-30" transform="translate(95.410156 0)"/>
       <use xlink:href="#DejaVuSans-30" transform="translate(159.033203 0)"/>
       <use xlink:href="#DejaVuSans-30" transform="translate(222.65625 0)"/>
       <use xlink:href="#DejaVuSans-33" transform="translate(286.279297 0)"/>
       <use xlink:href="#DejaVuSans-35" transform="translate(349.902344 0)"/>
      </g>
     </g>
    </g>
    <g id="ytick_9">
     <g id="line2d_17">
      <g>
       <use xlink:href="#mc88ededf18" x="69.23125" y="32.11619" style="stroke: #000000; stroke-width: 0.8"/>
      </g>
     </g>
     <g id="text_18">
      <!-- 0.00040 -->
      <g transform="translate(20.878125 35.915409) scale(0.1 -0.1)">
       <use xlink:href="#DejaVuSans-30"/>
       <use xlink:href="#DejaVuSans-2e" transform="translate(63.623047 0)"/>
       <use xlink:href="#DejaVuSans-30" transform="translate(95.410156 0)"/>
       <use xlink:href="#DejaVuSans-30" transform="translate(159.033203 0)"/>
       <use xlink:href="#DejaVuSans-30" transform="translate(222.65625 0)"/>
       <use xlink:href="#DejaVuSans-34" transform="translate(286.279297 0)"/>
       <use xlink:href="#DejaVuSans-30" transform="translate(349.902344 0)"/>
      </g>
     </g>
    </g>
    <g id="text_19">
     <!-- Jitter per BSS without RTS/CTS [s] -->
     <g transform="translate(14.798438 352.724687) rotate(-90) scale(0.1 -0.1)">
      <defs>
       <path id="DejaVuSans-4a" d="M 628 4666 
L 1259 4666 
L 1259 325 
Q 1259 -519 939 -900 
Q 619 -1281 -91 -1281 
L -331 -1281 
L -331 -750 
L -134 -750 
Q 284 -750 456 -515 
Q 628 -281 628 325 
L 628 4666 
z
" transform="scale(0.015625)"/>
       <path id="DejaVuSans-70" d="M 1159 525 
L 1159 -1331 
L 581 -1331 
L 581 3500 
L 1159 3500 
L 1159 2969 
Q 1341 3281 1617 3432 
Q 1894 3584 2278 3584 
Q 2916 3584 3314 3078 
Q 3713 2572 3713 1747 
Q 3713 922 3314 415 
Q 2916 -91 2278 -91 
Q 1894 -91 1617 61 
Q 1341 213 1159 525 
z
M 3116 1747 
Q 3116 2381 2855 2742 
Q 2594 3103 2138 3103 
Q 1681 3103 1420 2742 
Q 1159 2381 1159 1747 
Q 1159 1113 1420 752 
Q 1681 391 2138 391 
Q 2594 391 2855 752 
Q 3116 1113 3116 1747 
z
" transform="scale(0.015625)"/>
       <path id="DejaVuSans-42" d="M 1259 2228 
L 1259 519 
L 2272 519 
Q 2781 519 3026 730 
Q 3272 941 3272 1375 
Q 3272 1813 3026 2020 
Q 2781 2228 2272 2228 
L 1259 2228 
z
M 1259 4147 
L 1259 2741 
L 2194 2741 
Q 2656 2741 2882 2914 
Q 3109 3088 3109 3444 
Q 3109 3797 2882 3972 
Q 2656 4147 2194 4147 
L 1259 4147 
z
M 628 4666 
L 2241 4666 
Q 2963 4666 3353 4366 
Q 3744 4066 3744 3513 
Q 3744 3084 3544 2831 
Q 3344 2578 2956 2516 
Q 3422 2416 3680 2098 
Q 3938 1781 3938 1306 
Q 3938 681 3513 340 
Q 3088 0 2303 0 
L 628 0 
L 628 4666 
z
" transform="scale(0.015625)"/>
       <path id="DejaVuSans-53" d="M 3425 4513 
L 3425 3897 
Q 3066 4069 2747 4153 
Q 2428 4238 2131 4238 
Q 1616 4238 1336 4038 
Q 1056 3838 1056 3469 
Q 1056 3159 1242 3001 
Q 1428 2844 1947 2747 
L 2328 2669 
Q 3034 2534 3370 2195 
Q 3706 1856 3706 1288 
Q 3706 609 3251 259 
Q 2797 -91 1919 -91 
Q 1588 -91 1214 -16 
Q 841 59 441 206 
L 441 856 
Q 825 641 1194 531 
Q 1563 422 1919 422 
Q 2459 422 2753 634 
Q 3047 847 3047 1241 
Q 3047 1584 2836 1778 
Q 2625 1972 2144 2069 
L 1759 2144 
Q 1053 2284 737 2584 
Q 422 2884 422 3419 
Q 422 4038 858 4394 
Q 1294 4750 2059 4750 
Q 2388 4750 2728 4690 
Q 3069 4631 3425 4513 
z
" transform="scale(0.015625)"/>
       <path id="DejaVuSans-52" d="M 2841 2188 
Q 3044 2119 3236 1894 
Q 3428 1669 3622 1275 
L 4263 0 
L 3584 0 
L 2988 1197 
Q 2756 1666 2539 1819 
Q 2322 1972 1947 1972 
L 1259 1972 
L 1259 0 
L 628 0 
L 628 4666 
L 2053 4666 
Q 2853 4666 3247 4331 
Q 3641 3997 3641 3322 
Q 3641 2881 3436 2590 
Q 3231 2300 2841 2188 
z
M 1259 4147 
L 1259 2491 
L 2053 2491 
Q 2509 2491 2742 2702 
Q 2975 2913 2975 3322 
Q 2975 3731 2742 3939 
Q 2509 4147 2053 4147 
L 1259 4147 
z
" transform="scale(0.015625)"/>
       <path id="DejaVuSans-54" d="M -19 4666 
L 3928 4666 
L 3928 4134 
L 2272 4134 
L 2272 0 
L 1638 0 
L 1638 4134 
L -19 4134 
L -19 4666 
z
" transform="scale(0.015625)"/>
       <path id="DejaVuSans-2f" d="M 1625 4666 
L 2156 4666 
L 531 -594 
L 0 -594 
L 1625 4666 
z
" transform="scale(0.015625)"/>
       <path id="DejaVuSans-5b" d="M 550 4863 
L 1875 4863 
L 1875 4416 
L 1125 4416 
L 1125 -397 
L 1875 -397 
L 1875 -844 
L 550 -844 
L 550 4863 
z
" transform="scale(0.015625)"/>
       <path id="DejaVuSans-5d" d="M 1947 4863 
L 1947 -844 
L 622 -844 
L 622 -397 
L 1369 -397 
L 1369 4416 
L 622 4416 
L 622 4863 
L 1947 4863 
z
" transform="scale(0.015625)"/>
      </defs>
      <use xlink:href="#DejaVuSans-4a"/>
      <use xlink:href="#DejaVuSans-69" transform="translate(29.492188 0)"/>
      <use xlink:href="#DejaVuSans-74" transform="translate(57.275391 0)"/>
      <use xlink:href="#DejaVuSans-74" transform="translate(96.484375 0)"/>
      <use xlink:href="#DejaVuSans-65" transform="translate(135.693359 0)"/>
      <use xlink:href="#DejaVuSans-72" transform="translate(197.216797 0)"/>
      <use xlink:href="#DejaVuSans-20" transform="translate(238.330078 0)"/>
      <use xlink:href="#DejaVuSans-70" transform="translate(270.117188 0)"/>
      <use xlink:href="#DejaVuSans-65" transform="translate(333.59375 0)"/>
      <use xlink:href="#DejaVuSans-72" transform="translate(395.117188 0)"/>
      <use xlink:href="#DejaVuSans-20" transform="translate(436.230469 0)"/>
      <use xlink:href="#DejaVuSans-42" transform="translate(468.017578 0)"/>
      <use xlink:href="#DejaVuSans-53" transform="translate(534.871094 0)"/>
      <use xlink:href="#DejaVuSans-53" transform="translate(598.347656 0)"/>
      <use xlink:href="#DejaVuSans-20" transform="translate(661.824219 0)"/>
      <use xlink:href="#DejaVuSans-77" transform="translate(693.611328 0)"/>
      <use xlink:href="#DejaVuSans-69" transform="translate(775.398438 0)"/>
      <use xlink:href="#DejaVuSans-74" transform="translate(803.181641 0)"/>
      <use xlink:href="#DejaVuSans-68" transform="translate(842.390625 0)"/>
      <use xlink:href="#DejaVuSans-6f" transform="translate(905.769531 0)"/>
      <use xlink:href="#DejaVuSans-75" transform="translate(966.951172 0)"/>
      <use xlink:href="#DejaVuSans-74" transform="translate(1030.330078 0)"/>
      <use xlink:href="#DejaVuSans-20" transform="translate(1069.539062 0)"/>
      <use xlink:href="#DejaVuSans-52" transform="translate(1101.326172 0)"/>
      <use xlink:href="#DejaVuSans-54" transform="translate(1163.558594 0)"/>
      <use xlink:href="#DejaVuSans-53" transform="translate(1224.642578 0)"/>
      <use xlink:href="#DejaVuSans-2f" transform="translate(1288.119141 0)"/>
      <use xlink:href="#DejaVuSans-43" transform="translate(1321.810547 0)"/>
      <use xlink:href="#DejaVuSans-54" transform="translate(1391.634766 0)"/>
      <use xlink:href="#DejaVuSans-53" transform="translate(1452.71875 0)"/>
      <use xlink:href="#DejaVuSans-20" transform="translate(1516.195312 0)"/>
      <use xlink:href="#DejaVuSans-5b" transform="translate(1547.982422 0)"/>
      <use xlink:href="#DejaVuSans-73" transform="translate(1586.996094 0)"/>
      <use xlink:href="#DejaVuSans-5d" transform="translate(1639.095703 0)"/>
     </g>
    </g>
   </g>
   <g id="line2d_18">
    <path d="M 83.64925 266.690912 
L 83.64925 265.49618 
" clip-path="url(#p9595a4e676)" style="fill: none; stroke: #424242; stroke-width: 2.25; stroke-linecap: square"/>
   </g>
   <g id="line2d_19">
    <path d="M 155.73925 382.941136 
L 155.73925 382.221058 
" clip-path="url(#p9595a4e676)" style="fill: none; stroke: #424242; stroke-width: 2.25; stroke-linecap: square"/>
   </g>
   <g id="line2d_20">
    <path d="M 227.82925 259.93987 
L 227.82925 256.120218 
" clip-path="url(#p9595a4e676)" style="fill: none; stroke: #424242; stroke-width: 2.25; stroke-linecap: square"/>
   </g>
   <g id="line2d_21">
    <path d="M 299.91925 260.276238 
L 299.91925 257.992669 
" clip-path="url(#p9595a4e676)" style="fill: none; stroke: #424242; stroke-width: 2.25; stroke-linecap: square"/>
   </g>
   <g id="line2d_22">
    <path d="M 372.00925 246.534959 
L 372.00925 242.169643 
" clip-path="url(#p9595a4e676)" style="fill: none; stroke: #424242; stroke-width: 2.25; stroke-linecap: square"/>
   </g>
   <g id="line2d_23">
    <path d="M 444.09925 374.039827 
L 444.09925 373.823056 
" clip-path="url(#p9595a4e676)" style="fill: none; stroke: #424242; stroke-width: 2.25; stroke-linecap: square"/>
   </g>
   <g id="line2d_24">
    <path d="M 516.18925 374.054776 
L 516.18925 372.65947 
" clip-path="url(#p9595a4e676)" style="fill: none; stroke: #424242; stroke-width: 2.25; stroke-linecap: square"/>
   </g>
   <g id="line2d_25">
    <path d="M 588.27925 368.449879 
L 588.27925 366.716958 
" clip-path="url(#p9595a4e676)" style="fill: none; stroke: #424242; stroke-width: 2.25; stroke-linecap: square"/>
   </g>
   <g id="line2d_26">
    <path d="M 98.06725 269.207447 
L 98.06725 266.131543 
" clip-path="url(#p9595a4e676)" style="fill: none; stroke: #424242; stroke-width: 2.25; stroke-linecap: square"/>
   </g>
   <g id="line2d_27">
    <path d="M 170.15725 383.443197 
L 170.15725 382.541231 
" clip-path="url(#p9595a4e676)" style="fill: none; stroke: #424242; stroke-width: 2.25; stroke-linecap: square"/>
   </g>
   <g id="line2d_28">
    <path d="M 242.24725 144.389791 
L 242.24725 143.677188 
" clip-path="url(#p9595a4e676)" style="fill: none; stroke: #424242; stroke-width: 2.25; stroke-linecap: square"/>
   </g>
   <g id="line2d_29">
    <path d="M 314.33725 82.899124 
L 314.33725 82.416996 
" clip-path="url(#p9595a4e676)" style="fill: none; stroke: #424242; stroke-width: 2.25; stroke-linecap: square"/>
   </g>
   <g id="line2d_30">
    <path d="M 386.42725 67.312801 
L 386.42725 64.219456 
" clip-path="url(#p9595a4e676)" style="fill: none; stroke: #424242; stroke-width: 2.25; stroke-linecap: square"/>
   </g>
   <g id="line2d_31">
    <path d="M 458.51725 321.416832 
L 458.51725 319.364984 
" clip-path="url(#p9595a4e676)" style="fill: none; stroke: #424242; stroke-width: 2.25; stroke-linecap: square"/>
   </g>
   <g id="line2d_32">
    <path d="M 530.60725 292.470448 
L 530.60725 290.887024 
" clip-path="url(#p9595a4e676)" style="fill: none; stroke: #424242; stroke-width: 2.25; stroke-linecap: square"/>
   </g>
   <g id="line2d_33">
    <path d="M 602.69725 285.478965 
L 602.69725 283.483178 
" clip-path="url(#p9595a4e676)" style="fill: none; stroke: #424242; stroke-width: 2.25; stroke-linecap: square"/>
   </g>
   <g id="line2d_34">
    <path d="M 112.48525 515.672298 
L 112.48525 515.662581 
" clip-path="url(#p9595a4e676)" style="fill: none; stroke: #424242; stroke-width: 2.25; stroke-linecap: square"/>
   </g>
   <g id="line2d_35">
    <path d="M 184.57525 515.992098 
L 184.57525 515.955346 
" clip-path="url(#p9595a4e676)" style="fill: none; stroke: #424242; stroke-width: 2.25; stroke-linecap: square"/>
   </g>
   <g id="line2d_36">
    <path d="M 256.66525 515.978892 
L 256.66525 515.948993 
" clip-path="url(#p9595a4e676)" style="fill: none; stroke: #424242; stroke-width: 2.25; stroke-linecap: square"/>
   </g>
   <g id="line2d_37">
    <path d="M 328.75525 516.172366 
L 328.75525 516.157292 
" clip-path="url(#p9595a4e676)" style="fill: none; stroke: #424242; stroke-width: 2.25; stroke-linecap: square"/>
   </g>
   <g id="line2d_38">
    <path d="M 400.84525 516.175481 
L 400.84525 516.167259 
" clip-path="url(#p9595a4e676)" style="fill: none; stroke: #424242; stroke-width: 2.25; stroke-linecap: square"/>
   </g>
   <g id="line2d_39">
    <path d="M 472.93525 516.16377 
L 472.93525 516.155922 
" clip-path="url(#p9595a4e676)" style="fill: none; stroke: #424242; stroke-width: 2.25; stroke-linecap: square"/>
   </g>
   <g id="line2d_40">
    <path d="M 545.02525 516.702085 
L 545.02525 516.689004 
" clip-path="url(#p9595a4e676)" style="fill: none; stroke: #424242; stroke-width: 2.25; stroke-linecap: square"/>
   </g>
   <g id="line2d_41">
    <path d="M 617.11525 516.697849 
L 617.11525 516.685017 
" clip-path="url(#p9595a4e676)" style="fill: none; stroke: #424242; stroke-width: 2.25; stroke-linecap: square"/>
   </g>
   <g id="line2d_42">
    <path d="M 126.90325 504.620847 
L 126.90325 504.547967 
" clip-path="url(#p9595a4e676)" style="fill: none; stroke: #424242; stroke-width: 2.25; stroke-linecap: square"/>
   </g>
   <g id="line2d_43">
    <path d="M 198.99325 505.14172 
L 198.99325 505.098615 
" clip-path="url(#p9595a4e676)" style="fill: none; stroke: #424242; stroke-width: 2.25; stroke-linecap: square"/>
   </g>
   <g id="line2d_44">
    <path d="M 271.08325 503.478066 
L 271.08325 503.405061 
" clip-path="url(#p9595a4e676)" style="fill: none; stroke: #424242; stroke-width: 2.25; stroke-linecap: square"/>
   </g>
   <g id="line2d_45">
    <path d="M 343.17325 503.539235 
L 343.17325 503.334922 
" clip-path="url(#p9595a4e676)" style="fill: none; stroke: #424242; stroke-width: 2.25; stroke-linecap: square"/>
   </g>
   <g id="line2d_46">
    <path d="M 415.26325 503.437328 
L 415.26325 503.379771 
" clip-path="url(#p9595a4e676)" style="fill: none; stroke: #424242; stroke-width: 2.25; stroke-linecap: square"/>
   </g>
   <g id="line2d_47">
    <path d="M 487.35325 504.002552 
L 487.35325 503.932039 
" clip-path="url(#p9595a4e676)" style="fill: none; stroke: #424242; stroke-width: 2.25; stroke-linecap: square"/>
   </g>
   <g id="line2d_48">
    <path d="M 559.44325 503.983117 
L 559.44325 503.960069 
" clip-path="url(#p9595a4e676)" style="fill: none; stroke: #424242; stroke-width: 2.25; stroke-linecap: square"/>
   </g>
   <g id="line2d_49">
    <path d="M 631.53325 503.951598 
L 631.53325 503.87062 
" clip-path="url(#p9595a4e676)" style="fill: none; stroke: #424242; stroke-width: 2.25; stroke-linecap: square"/>
   </g>
   <g id="patch_39">
    <path d="M 69.23125 530.44 
L 69.23125 7.2 
" style="fill: none; stroke: #000000; stroke-width: 0.8; stroke-linejoin: miter; stroke-linecap: square"/>
   </g>
   <g id="patch_40">
    <path d="M 645.95125 530.44 
L 645.95125 7.2 
" style="fill: none; stroke: #000000; stroke-width: 0.8; stroke-linejoin: miter; stroke-linecap: square"/>
   </g>
   <g id="patch_41">
    <path d="M 69.23125 530.44 
L 645.95125 530.44 
" style="fill: none; stroke: #000000; stroke-width: 0.8; stroke-linejoin: miter; stroke-linecap: square"/>
   </g>
   <g id="patch_42">
    <path d="M 69.23125 7.2 
L 645.95125 7.2 
" style="fill: none; stroke: #000000; stroke-width: 0.8; stroke-linejoin: miter; stroke-linecap: square"/>
   </g>
   <g id="legend_1">
    <g id="patch_43">
     <path d="M 477.227813 88.590625 
L 638.95125 88.590625 
Q 640.95125 88.590625 640.95125 86.590625 
L 640.95125 14.2 
Q 640.95125 12.2 638.95125 12.2 
L 477.227813 12.2 
Q 475.227813 12.2 475.227813 14.2 
L 475.227813 86.590625 
Q 475.227813 88.590625 477.227813 88.590625 
z
" style="fill: #ffffff; opacity: 0.8; stroke: #cccccc; stroke-linejoin: miter"/>
    </g>
    <g id="text_20">
     <!-- Firts BSS devices configuration: -->
     <g transform="translate(479.227813 23.798437) scale(0.1 -0.1)">
      <defs>
       <path id="DejaVuSans-46" d="M 628 4666 
L 3309 4666 
L 3309 4134 
L 1259 4134 
L 1259 2759 
L 3109 2759 
L 3109 2228 
L 1259 2228 
L 1259 0 
L 628 0 
L 628 4666 
z
" transform="scale(0.015625)"/>
       <path id="DejaVuSans-76" d="M 191 3500 
L 800 3500 
L 1894 563 
L 2988 3500 
L 3597 3500 
L 2284 0 
L 1503 0 
L 191 3500 
z
" transform="scale(0.015625)"/>
       <path id="DejaVuSans-3a" d="M 750 794 
L 1409 794 
L 1409 0 
L 750 0 
L 750 794 
z
M 750 3309 
L 1409 3309 
L 1409 2516 
L 750 2516 
L 750 3309 
z
" transform="scale(0.015625)"/>
      </defs>
      <use xlink:href="#DejaVuSans-46"/>
      <use xlink:href="#DejaVuSans-69" transform="translate(50.269531 0)"/>
      <use xlink:href="#DejaVuSans-72" transform="translate(78.052734 0)"/>
      <use xlink:href="#DejaVuSans-74" transform="translate(119.166016 0)"/>
      <use xlink:href="#DejaVuSans-73" transform="translate(158.375 0)"/>
      <use xlink:href="#DejaVuSans-20" transform="translate(210.474609 0)"/>
      <use xlink:href="#DejaVuSans-42" transform="translate(242.261719 0)"/>
      <use xlink:href="#DejaVuSans-53" transform="translate(309.115234 0)"/>
      <use xlink:href="#DejaVuSans-53" transform="translate(372.591797 0)"/>
      <use xlink:href="#DejaVuSans-20" transform="translate(436.068359 0)"/>
      <use xlink:href="#DejaVuSans-64" transform="translate(467.855469 0)"/>
      <use xlink:href="#DejaVuSans-65" transform="translate(531.332031 0)"/>
      <use xlink:href="#DejaVuSans-76" transform="translate(592.855469 0)"/>
      <use xlink:href="#DejaVuSans-69" transform="translate(652.035156 0)"/>
      <use xlink:href="#DejaVuSans-63" transform="translate(679.818359 0)"/>
      <use xlink:href="#DejaVuSans-65" transform="translate(734.798828 0)"/>
      <use xlink:href="#DejaVuSans-73" transform="translate(796.322266 0)"/>
      <use xlink:href="#DejaVuSans-20" transform="translate(848.421875 0)"/>
      <use xlink:href="#DejaVuSans-63" transform="translate(880.208984 0)"/>
      <use xlink:href="#DejaVuSans-6f" transform="translate(935.189453 0)"/>
      <use xlink:href="#DejaVuSans-6e" transform="translate(996.371094 0)"/>
      <use xlink:href="#DejaVuSans-66" transform="translate(1059.75 0)"/>
      <use xlink:href="#DejaVuSans-69" transform="translate(1094.955078 0)"/>
      <use xlink:href="#DejaVuSans-67" transform="translate(1122.738281 0)"/>
      <use xlink:href="#DejaVuSans-75" transform="translate(1186.214844 0)"/>
      <use xlink:href="#DejaVuSans-72" transform="translate(1249.59375 0)"/>
      <use xlink:href="#DejaVuSans-61" transform="translate(1290.707031 0)"/>
      <use xlink:href="#DejaVuSans-74" transform="translate(1351.986328 0)"/>
      <use xlink:href="#DejaVuSans-69" transform="translate(1391.195312 0)"/>
      <use xlink:href="#DejaVuSans-6f" transform="translate(1418.978516 0)"/>
      <use xlink:href="#DejaVuSans-6e" transform="translate(1480.160156 0)"/>
      <use xlink:href="#DejaVuSans-3a" transform="translate(1543.539062 0)"/>
     </g>
    </g>
    <g id="patch_44">
     <path d="M 540.239531 38.476562 
L 560.239531 38.476562 
L 560.239531 31.476562 
L 540.239531 31.476562 
z
" style="fill: #0c3b50"/>
    </g>
    <g id="text_21">
     <!-- A -->
     <g transform="translate(568.239531 38.476562) scale(0.1 -0.1)">
      <defs>
       <path id="DejaVuSans-41" d="M 2188 4044 
L 1331 1722 
L 3047 1722 
L 2188 4044 
z
M 1831 4666 
L 2547 4666 
L 4325 0 
L 3669 0 
L 3244 1197 
L 1141 1197 
L 716 0 
L 50 0 
L 1831 4666 
z
" transform="scale(0.015625)"/>
      </defs>
      <use xlink:href="#DejaVuSans-41"/>
     </g>
    </g>
    <g id="patch_45">
     <path d="M 540.239531 53.154688 
L 560.239531 53.154688 
L 560.239531 46.154688 
L 540.239531 46.154688 
z
" style="fill: #785a8c"/>
    </g>
    <g id="text_22">
     <!-- B -->
     <g transform="translate(568.239531 53.154688) scale(0.1 -0.1)">
      <use xlink:href="#DejaVuSans-42"/>
     </g>
    </g>
    <g id="patch_46">
     <path d="M 540.239531 67.832812 
L 560.239531 67.832812 
L 560.239531 60.832812 
L 540.239531 60.832812 
z
" style="fill: #dc6980"/>
    </g>
    <g id="text_23">
     <!-- C -->
     <g transform="translate(568.239531 67.832812) scale(0.1 -0.1)">
      <use xlink:href="#DejaVuSans-43"/>
     </g>
    </g>
    <g id="patch_47">
     <path d="M 540.239531 82.510938 
L 560.239531 82.510938 
L 560.239531 75.510938 
L 540.239531 75.510938 
z
" style="fill: #df9c20"/>
    </g>
    <g id="text_24">
     <!-- D -->
     <g transform="translate(568.239531 82.510938) scale(0.1 -0.1)">
      <defs>
       <path id="DejaVuSans-44" d="M 1259 4147 
L 1259 519 
L 2022 519 
Q 2988 519 3436 956 
Q 3884 1394 3884 2338 
Q 3884 3275 3436 3711 
Q 2988 4147 2022 4147 
L 1259 4147 
z
M 628 4666 
L 1925 4666 
Q 3281 4666 3915 4102 
Q 4550 3538 4550 2338 
Q 4550 1131 3912 565 
Q 3275 0 1925 0 
L 628 0 
L 628 4666 
z
" transform="scale(0.015625)"/>
      </defs>
      <use xlink:href="#DejaVuSans-44"/>
     </g>
    </g>
   </g>
  </g>
  <g id="axes_2">
   <g id="patch_48">
    <path d="M 704.79125 530.44 
L 1281.51125 530.44 
L 1281.51125 7.2 
L 704.79125 7.2 
z
" style="fill: #ffffff"/>
   </g>
   <g id="patch_49">
    <path d="M 712.00025 530.44 
L 726.41825 530.44 
L 726.41825 255.065848 
L 712.00025 255.065848 
z
" clip-path="url(#p1f9af90f93)" style="fill: #0c3b50"/>
   </g>
   <g id="patch_50">
    <path d="M 784.09025 530.44 
L 798.50825 530.44 
L 798.50825 373.387853 
L 784.09025 373.387853 
z
" clip-path="url(#p1f9af90f93)" style="fill: #0c3b50"/>
   </g>
   <g id="patch_51">
    <path d="M 856.18025 530.44 
L 870.59825 530.44 
L 870.59825 247.699791 
L 856.18025 247.699791 
z
" clip-path="url(#p1f9af90f93)" style="fill: #0c3b50"/>
   </g>
   <g id="patch_52">
    <path d="M 928.27025 530.44 
L 942.68825 530.44 
L 942.68825 248.23632 
L 928.27025 248.23632 
z
" clip-path="url(#p1f9af90f93)" style="fill: #0c3b50"/>
   </g>
   <g id="patch_53">
    <path d="M 1000.36025 530.44 
L 1014.77825 530.44 
L 1014.77825 229.172112 
L 1000.36025 229.172112 
z
" clip-path="url(#p1f9af90f93)" style="fill: #0c3b50"/>
   </g>
   <g id="patch_54">
    <path d="M 1072.45025 530.44 
L 1086.86825 530.44 
L 1086.86825 366.981485 
L 1072.45025 366.981485 
z
" clip-path="url(#p1f9af90f93)" style="fill: #0c3b50"/>
   </g>
   <g id="patch_55">
    <path d="M 1144.54025 530.44 
L 1158.95825 530.44 
L 1158.95825 366.056264 
L 1144.54025 366.056264 
z
" clip-path="url(#p1f9af90f93)" style="fill: #0c3b50"/>
   </g>
   <g id="patch_56">
    <path d="M 1216.63025 530.44 
L 1231.04825 530.44 
L 1231.04825 360.436002 
L 1216.63025 360.436002 
z
" clip-path="url(#p1f9af90f93)" style="fill: #0c3b50"/>
   </g>
   <g id="patch_57">
    <path d="M 726.41825 530.44 
L 740.83625 530.44 
L 740.83625 256.112743 
L 726.41825 256.112743 
z
" clip-path="url(#p1f9af90f93)" style="fill: #785a8c"/>
   </g>
   <g id="patch_58">
    <path d="M 798.50825 530.44 
L 812.92625 530.44 
L 812.92625 372.930641 
L 798.50825 372.930641 
z
" clip-path="url(#p1f9af90f93)" style="fill: #785a8c"/>
   </g>
   <g id="patch_59">
    <path d="M 870.59825 530.44 
L 885.01625 530.44 
L 885.01625 136.380896 
L 870.59825 136.380896 
z
" clip-path="url(#p1f9af90f93)" style="fill: #785a8c"/>
   </g>
   <g id="patch_60">
    <path d="M 942.68825 530.44 
L 957.10625 530.44 
L 957.10625 72.745361 
L 942.68825 72.745361 
z
" clip-path="url(#p1f9af90f93)" style="fill: #785a8c"/>
   </g>
   <g id="patch_61">
    <path d="M 1014.77825 530.44 
L 1029.19625 530.44 
L 1029.19625 51.479808 
L 1014.77825 51.479808 
z
" clip-path="url(#p1f9af90f93)" style="fill: #785a8c"/>
   </g>
   <g id="patch_62">
    <path d="M 1086.86825 530.44 
L 1101.28625 530.44 
L 1101.28625 314.362228 
L 1086.86825 314.362228 
z
" clip-path="url(#p1f9af90f93)" style="fill: #785a8c"/>
   </g>
   <g id="patch_63">
    <path d="M 1158.95825 530.44 
L 1173.37625 530.44 
L 1173.37625 284.843602 
L 1158.95825 284.843602 
z
" clip-path="url(#p1f9af90f93)" style="fill: #785a8c"/>
   </g>
   <g id="patch_64">
    <path d="M 1231.04825 530.44 
L 1245.46625 530.44 
L 1245.46625 278.419378 
L 1231.04825 278.419378 
z
" clip-path="url(#p1f9af90f93)" style="fill: #785a8c"/>
   </g>
   <g id="patch_65">
    <path d="M 740.83625 530.44 
L 755.25425 530.44 
L 755.25425 510.600982 
L 740.83625 510.600982 
z
" clip-path="url(#p1f9af90f93)" style="fill: #dc6980"/>
   </g>
   <g id="patch_66">
    <path d="M 812.92625 530.44 
L 827.34425 530.44 
L 827.34425 510.923231 
L 812.92625 510.923231 
z
" clip-path="url(#p1f9af90f93)" style="fill: #dc6980"/>
   </g>
   <g id="patch_67">
    <path d="M 885.01625 530.44 
L 899.43425 530.44 
L 899.43425 510.93054 
L 885.01625 510.93054 
z
" clip-path="url(#p1f9af90f93)" style="fill: #dc6980"/>
   </g>
   <g id="patch_68">
    <path d="M 957.10625 530.44 
L 971.52425 530.44 
L 971.52425 511.009856 
L 957.10625 511.009856 
z
" clip-path="url(#p1f9af90f93)" style="fill: #dc6980"/>
   </g>
   <g id="patch_69">
    <path d="M 1029.19625 530.44 
L 1043.61425 530.44 
L 1043.61425 511.01131 
L 1029.19625 511.01131 
z
" clip-path="url(#p1f9af90f93)" style="fill: #dc6980"/>
   </g>
   <g id="patch_70">
    <path d="M 1101.28625 530.44 
L 1115.70425 530.44 
L 1115.70425 511.007905 
L 1101.28625 511.007905 
z
" clip-path="url(#p1f9af90f93)" style="fill: #dc6980"/>
   </g>
   <g id="patch_71">
    <path d="M 1173.37625 530.44 
L 1187.79425 530.44 
L 1187.79425 511.527864 
L 1173.37625 511.527864 
z
" clip-path="url(#p1f9af90f93)" style="fill: #dc6980"/>
   </g>
   <g id="patch_72">
    <path d="M 1245.46625 530.44 
L 1259.88425 530.44 
L 1259.88425 511.532058 
L 1245.46625 511.532058 
z
" clip-path="url(#p1f9af90f93)" style="fill: #dc6980"/>
   </g>
   <g id="patch_73">
    <path d="M 755.25425 530.44 
L 769.67225 530.44 
L 769.67225 504.621345 
L 755.25425 504.621345 
z
" clip-path="url(#p1f9af90f93)" style="fill: #df9c20"/>
   </g>
   <g id="patch_74">
    <path d="M 827.34425 530.44 
L 841.76225 530.44 
L 841.76225 505.2146 
L 827.34425 505.2146 
z
" clip-path="url(#p1f9af90f93)" style="fill: #df9c20"/>
   </g>
   <g id="patch_75">
    <path d="M 899.43425 530.44 
L 913.85225 530.44 
L 913.85225 503.642097 
L 899.43425 503.642097 
z
" clip-path="url(#p1f9af90f93)" style="fill: #df9c20"/>
   </g>
   <g id="patch_76">
    <path d="M 971.52425 530.44 
L 985.94225 530.44 
L 985.94225 503.64571 
L 971.52425 503.64571 
z
" clip-path="url(#p1f9af90f93)" style="fill: #df9c20"/>
   </g>
   <g id="patch_77">
    <path d="M 1043.61425 530.44 
L 1058.03225 530.44 
L 1058.03225 503.259717 
L 1043.61425 503.259717 
z
" clip-path="url(#p1f9af90f93)" style="fill: #df9c20"/>
   </g>
   <g id="patch_78">
    <path d="M 1115.70425 530.44 
L 1130.12225 530.44 
L 1130.12225 504.461632 
L 1115.70425 504.461632 
z
" clip-path="url(#p1f9af90f93)" style="fill: #df9c20"/>
   </g>
   <g id="patch_79">
    <path d="M 1187.79425 530.44 
L 1202.21225 530.44 
L 1202.21225 504.446018 
L 1187.79425 504.446018 
z
" clip-path="url(#p1f9af90f93)" style="fill: #df9c20"/>
   </g>
   <g id="patch_80">
    <path d="M 1259.88425 530.44 
L 1274.30225 530.44 
L 1274.30225 504.309851 
L 1259.88425 504.309851 
z
" clip-path="url(#p1f9af90f93)" style="fill: #df9c20"/>
   </g>
   <g id="patch_81">
    <path d="M 740.83625 530.44 
L 740.83625 530.44 
L 740.83625 530.44 
L 740.83625 530.44 
z
" clip-path="url(#p1f9af90f93)" style="fill: #0c3b50"/>
   </g>
   <g id="patch_82">
    <path d="M 740.83625 530.44 
L 740.83625 530.44 
L 740.83625 530.44 
L 740.83625 530.44 
z
" clip-path="url(#p1f9af90f93)" style="fill: #785a8c"/>
   </g>
   <g id="patch_83">
    <path d="M 740.83625 530.44 
L 740.83625 530.44 
L 740.83625 530.44 
L 740.83625 530.44 
z
" clip-path="url(#p1f9af90f93)" style="fill: #dc6980"/>
   </g>
   <g id="patch_84">
    <path d="M 740.83625 530.44 
L 740.83625 530.44 
L 740.83625 530.44 
L 740.83625 530.44 
z
" clip-path="url(#p1f9af90f93)" style="fill: #df9c20"/>
   </g>
   <g id="matplotlib.axis_3">
    <g id="xtick_9">
     <g id="line2d_50">
      <g>
       <use xlink:href="#m5391ef49d5" x="740.83625" y="530.44" style="stroke: #000000; stroke-width: 0.8"/>
      </g>
     </g>
     <g id="text_25">
      <!-- 1 -->
      <g transform="translate(737.655 545.038437) scale(0.1 -0.1)">
       <use xlink:href="#DejaVuSans-31"/>
      </g>
     </g>
    </g>
    <g id="xtick_10">
     <g id="line2d_51">
      <g>
       <use xlink:href="#m5391ef49d5" x="812.92625" y="530.44" style="stroke: #000000; stroke-width: 0.8"/>
      </g>
     </g>
     <g id="text_26">
      <!-- 2 -->
      <g transform="translate(809.745 545.038437) scale(0.1 -0.1)">
       <use xlink:href="#DejaVuSans-32"/>
      </g>
     </g>
    </g>
    <g id="xtick_11">
     <g id="line2d_52">
      <g>
       <use xlink:href="#m5391ef49d5" x="885.01625" y="530.44" style="stroke: #000000; stroke-width: 0.8"/>
      </g>
     </g>
     <g id="text_27">
      <!-- 3 -->
      <g transform="translate(881.835 545.038437) scale(0.1 -0.1)">
       <use xlink:href="#DejaVuSans-33"/>
      </g>
     </g>
    </g>
    <g id="xtick_12">
     <g id="line2d_53">
      <g>
       <use xlink:href="#m5391ef49d5" x="957.10625" y="530.44" style="stroke: #000000; stroke-width: 0.8"/>
      </g>
     </g>
     <g id="text_28">
      <!-- 4 -->
      <g transform="translate(953.925 545.038437) scale(0.1 -0.1)">
       <use xlink:href="#DejaVuSans-34"/>
      </g>
     </g>
    </g>
    <g id="xtick_13">
     <g id="line2d_54">
      <g>
       <use xlink:href="#m5391ef49d5" x="1029.19625" y="530.44" style="stroke: #000000; stroke-width: 0.8"/>
      </g>
     </g>
     <g id="text_29">
      <!-- 5 -->
      <g transform="translate(1026.015 545.038437) scale(0.1 -0.1)">
       <use xlink:href="#DejaVuSans-35"/>
      </g>
     </g>
    </g>
    <g id="xtick_14">
     <g id="line2d_55">
      <g>
       <use xlink:href="#m5391ef49d5" x="1101.28625" y="530.44" style="stroke: #000000; stroke-width: 0.8"/>
      </g>
     </g>
     <g id="text_30">
      <!-- 6 -->
      <g transform="translate(1098.105 545.038437) scale(0.1 -0.1)">
       <use xlink:href="#DejaVuSans-36"/>
      </g>
     </g>
    </g>
    <g id="xtick_15">
     <g id="line2d_56">
      <g>
       <use xlink:href="#m5391ef49d5" x="1173.37625" y="530.44" style="stroke: #000000; stroke-width: 0.8"/>
      </g>
     </g>
     <g id="text_31">
      <!-- 7 -->
      <g transform="translate(1170.195 545.038437) scale(0.1 -0.1)">
       <use xlink:href="#DejaVuSans-37"/>
      </g>
     </g>
    </g>
    <g id="xtick_16">
     <g id="line2d_57">
      <g>
       <use xlink:href="#m5391ef49d5" x="1245.46625" y="530.44" style="stroke: #000000; stroke-width: 0.8"/>
      </g>
     </g>
     <g id="text_32">
      <!-- 8 -->
      <g transform="translate(1242.285 545.038437) scale(0.1 -0.1)">
       <use xlink:href="#DejaVuSans-38"/>
      </g>
     </g>
    </g>
    <g id="text_33">
     <!-- Channel widths configuration number -->
     <g transform="translate(898.790312 558.716562) scale(0.1 -0.1)">
      <use xlink:href="#DejaVuSans-43"/>
      <use xlink:href="#DejaVuSans-68" transform="translate(69.824219 0)"/>
      <use xlink:href="#DejaVuSans-61" transform="translate(133.203125 0)"/>
      <use xlink:href="#DejaVuSans-6e" transform="translate(194.482422 0)"/>
      <use xlink:href="#DejaVuSans-6e" transform="translate(257.861328 0)"/>
      <use xlink:href="#DejaVuSans-65" transform="translate(321.240234 0)"/>
      <use xlink:href="#DejaVuSans-6c" transform="translate(382.763672 0)"/>
      <use xlink:href="#DejaVuSans-20" transform="translate(410.546875 0)"/>
      <use xlink:href="#DejaVuSans-77" transform="translate(442.333984 0)"/>
      <use xlink:href="#DejaVuSans-69" transform="translate(524.121094 0)"/>
      <use xlink:href="#DejaVuSans-64" transform="translate(551.904297 0)"/>
      <use xlink:href="#DejaVuSans-74" transform="translate(615.380859 0)"/>
      <use xlink:href="#DejaVuSans-68" transform="translate(654.589844 0)"/>
      <use xlink:href="#DejaVuSans-73" transform="translate(717.96875 0)"/>
      <use xlink:href="#DejaVuSans-20" transform="translate(770.068359 0)"/>
      <use xlink:href="#DejaVuSans-63" transform="translate(801.855469 0)"/>
      <use xlink:href="#DejaVuSans-6f" transform="translate(856.835938 0)"/>
      <use xlink:href="#DejaVuSans-6e" transform="translate(918.017578 0)"/>
      <use xlink:href="#DejaVuSans-66" transform="translate(981.396484 0)"/>
      <use xlink:href="#DejaVuSans-69" transform="translate(1016.601562 0)"/>
      <use xlink:href="#DejaVuSans-67" transform="translate(1044.384766 0)"/>
      <use xlink:href="#DejaVuSans-75" transform="translate(1107.861328 0)"/>
      <use xlink:href="#DejaVuSans-72" transform="translate(1171.240234 0)"/>
      <use xlink:href="#DejaVuSans-61" transform="translate(1212.353516 0)"/>
      <use xlink:href="#DejaVuSans-74" transform="translate(1273.632812 0)"/>
      <use xlink:href="#DejaVuSans-69" transform="translate(1312.841797 0)"/>
      <use xlink:href="#DejaVuSans-6f" transform="translate(1340.625 0)"/>
      <use xlink:href="#DejaVuSans-6e" transform="translate(1401.806641 0)"/>
      <use xlink:href="#DejaVuSans-20" transform="translate(1465.185547 0)"/>
      <use xlink:href="#DejaVuSans-6e" transform="translate(1496.972656 0)"/>
      <use xlink:href="#DejaVuSans-75" transform="translate(1560.351562 0)"/>
      <use xlink:href="#DejaVuSans-6d" transform="translate(1623.730469 0)"/>
      <use xlink:href="#DejaVuSans-62" transform="translate(1721.142578 0)"/>
      <use xlink:href="#DejaVuSans-65" transform="translate(1784.619141 0)"/>
      <use xlink:href="#DejaVuSans-72" transform="translate(1846.142578 0)"/>
     </g>
    </g>
   </g>
   <g id="matplotlib.axis_4">
    <g id="ytick_10">
     <g id="line2d_58">
      <g>
       <use xlink:href="#mc88ededf18" x="704.79125" y="530.44" style="stroke: #000000; stroke-width: 0.8"/>
      </g>
     </g>
     <g id="text_34">
      <!-- 0.00000 -->
      <g transform="translate(656.438125 534.239219) scale(0.1 -0.1)">
       <use xlink:href="#DejaVuSans-30"/>
       <use xlink:href="#DejaVuSans-2e" transform="translate(63.623047 0)"/>
       <use xlink:href="#DejaVuSans-30" transform="translate(95.410156 0)"/>
       <use xlink:href="#DejaVuSans-30" transform="translate(159.033203 0)"/>
       <use xlink:href="#DejaVuSans-30" transform="translate(222.65625 0)"/>
       <use xlink:href="#DejaVuSans-30" transform="translate(286.279297 0)"/>
       <use xlink:href="#DejaVuSans-30" transform="translate(349.902344 0)"/>
      </g>
     </g>
    </g>
    <g id="ytick_11">
     <g id="line2d_59">
      <g>
       <use xlink:href="#mc88ededf18" x="704.79125" y="468.149524" style="stroke: #000000; stroke-width: 0.8"/>
      </g>
     </g>
     <g id="text_35">
      <!-- 0.00005 -->
      <g transform="translate(656.438125 471.948743) scale(0.1 -0.1)">
       <use xlink:href="#DejaVuSans-30"/>
       <use xlink:href="#DejaVuSans-2e" transform="translate(63.623047 0)"/>
       <use xlink:href="#DejaVuSans-30" transform="translate(95.410156 0)"/>
       <use xlink:href="#DejaVuSans-30" transform="translate(159.033203 0)"/>
       <use xlink:href="#DejaVuSans-30" transform="translate(222.65625 0)"/>
       <use xlink:href="#DejaVuSans-30" transform="translate(286.279297 0)"/>
       <use xlink:href="#DejaVuSans-35" transform="translate(349.902344 0)"/>
      </g>
     </g>
    </g>
    <g id="ytick_12">
     <g id="line2d_60">
      <g>
       <use xlink:href="#mc88ededf18" x="704.79125" y="405.859048" style="stroke: #000000; stroke-width: 0.8"/>
      </g>
     </g>
     <g id="text_36">
      <!-- 0.00010 -->
      <g transform="translate(656.438125 409.658266) scale(0.1 -0.1)">
       <use xlink:href="#DejaVuSans-30"/>
       <use xlink:href="#DejaVuSans-2e" transform="translate(63.623047 0)"/>
       <use xlink:href="#DejaVuSans-30" transform="translate(95.410156 0)"/>
       <use xlink:href="#DejaVuSans-30" transform="translate(159.033203 0)"/>
       <use xlink:href="#DejaVuSans-30" transform="translate(222.65625 0)"/>
       <use xlink:href="#DejaVuSans-31" transform="translate(286.279297 0)"/>
       <use xlink:href="#DejaVuSans-30" transform="translate(349.902344 0)"/>
      </g>
     </g>
    </g>
    <g id="ytick_13">
     <g id="line2d_61">
      <g>
       <use xlink:href="#mc88ededf18" x="704.79125" y="343.568571" style="stroke: #000000; stroke-width: 0.8"/>
      </g>
     </g>
     <g id="text_37">
      <!-- 0.00015 -->
      <g transform="translate(656.438125 347.36779) scale(0.1 -0.1)">
       <use xlink:href="#DejaVuSans-30"/>
       <use xlink:href="#DejaVuSans-2e" transform="translate(63.623047 0)"/>
       <use xlink:href="#DejaVuSans-30" transform="translate(95.410156 0)"/>
       <use xlink:href="#DejaVuSans-30" transform="translate(159.033203 0)"/>
       <use xlink:href="#DejaVuSans-30" transform="translate(222.65625 0)"/>
       <use xlink:href="#DejaVuSans-31" transform="translate(286.279297 0)"/>
       <use xlink:href="#DejaVuSans-35" transform="translate(349.902344 0)"/>
      </g>
     </g>
    </g>
    <g id="ytick_14">
     <g id="line2d_62">
      <g>
       <use xlink:href="#mc88ededf18" x="704.79125" y="281.278095" style="stroke: #000000; stroke-width: 0.8"/>
      </g>
     </g>
     <g id="text_38">
      <!-- 0.00020 -->
      <g transform="translate(656.438125 285.077314) scale(0.1 -0.1)">
       <use xlink:href="#DejaVuSans-30"/>
       <use xlink:href="#DejaVuSans-2e" transform="translate(63.623047 0)"/>
       <use xlink:href="#DejaVuSans-30" transform="translate(95.410156 0)"/>
       <use xlink:href="#DejaVuSans-30" transform="translate(159.033203 0)"/>
       <use xlink:href="#DejaVuSans-30" transform="translate(222.65625 0)"/>
       <use xlink:href="#DejaVuSans-32" transform="translate(286.279297 0)"/>
       <use xlink:href="#DejaVuSans-30" transform="translate(349.902344 0)"/>
      </g>
     </g>
    </g>
    <g id="ytick_15">
     <g id="line2d_63">
      <g>
       <use xlink:href="#mc88ededf18" x="704.79125" y="218.987619" style="stroke: #000000; stroke-width: 0.8"/>
      </g>
     </g>
     <g id="text_39">
      <!-- 0.00025 -->
      <g transform="translate(656.438125 222.786838) scale(0.1 -0.1)">
       <use xlink:href="#DejaVuSans-30"/>
       <use xlink:href="#DejaVuSans-2e" transform="translate(63.623047 0)"/>
       <use xlink:href="#DejaVuSans-30" transform="translate(95.410156 0)"/>
       <use xlink:href="#DejaVuSans-30" transform="translate(159.033203 0)"/>
       <use xlink:href="#DejaVuSans-30" transform="translate(222.65625 0)"/>
       <use xlink:href="#DejaVuSans-32" transform="translate(286.279297 0)"/>
       <use xlink:href="#DejaVuSans-35" transform="translate(349.902344 0)"/>
      </g>
     </g>
    </g>
    <g id="ytick_16">
     <g id="line2d_64">
      <g>
       <use xlink:href="#mc88ededf18" x="704.79125" y="156.697143" style="stroke: #000000; stroke-width: 0.8"/>
      </g>
     </g>
     <g id="text_40">
      <!-- 0.00030 -->
      <g transform="translate(656.438125 160.496362) scale(0.1 -0.1)">
       <use xlink:href="#DejaVuSans-30"/>
       <use xlink:href="#DejaVuSans-2e" transform="translate(63.623047 0)"/>
       <use xlink:href="#DejaVuSans-30" transform="translate(95.410156 0)"/>
       <use xlink:href="#DejaVuSans-30" transform="translate(159.033203 0)"/>
       <use xlink:href="#DejaVuSans-30" transform="translate(222.65625 0)"/>
       <use xlink:href="#DejaVuSans-33" transform="translate(286.279297 0)"/>
       <use xlink:href="#DejaVuSans-30" transform="translate(349.902344 0)"/>
      </g>
     </g>
    </g>
    <g id="ytick_17">
     <g id="line2d_65">
      <g>
       <use xlink:href="#mc88ededf18" x="704.79125" y="94.406667" style="stroke: #000000; stroke-width: 0.8"/>
      </g>
     </g>
     <g id="text_41">
      <!-- 0.00035 -->
      <g transform="translate(656.438125 98.205885) scale(0.1 -0.1)">
       <use xlink:href="#DejaVuSans-30"/>
       <use xlink:href="#DejaVuSans-2e" transform="translate(63.623047 0)"/>
       <use xlink:href="#DejaVuSans-30" transform="translate(95.410156 0)"/>
       <use xlink:href="#DejaVuSans-30" transform="translate(159.033203 0)"/>
       <use xlink:href="#DejaVuSans-30" transform="translate(222.65625 0)"/>
       <use xlink:href="#DejaVuSans-33" transform="translate(286.279297 0)"/>
       <use xlink:href="#DejaVuSans-35" transform="translate(349.902344 0)"/>
      </g>
     </g>
    </g>
    <g id="ytick_18">
     <g id="line2d_66">
      <g>
       <use xlink:href="#mc88ededf18" x="704.79125" y="32.11619" style="stroke: #000000; stroke-width: 0.8"/>
      </g>
     </g>
     <g id="text_42">
      <!-- 0.00040 -->
      <g transform="translate(656.438125 35.915409) scale(0.1 -0.1)">
       <use xlink:href="#DejaVuSans-30"/>
       <use xlink:href="#DejaVuSans-2e" transform="translate(63.623047 0)"/>
       <use xlink:href="#DejaVuSans-30" transform="translate(95.410156 0)"/>
       <use xlink:href="#DejaVuSans-30" transform="translate(159.033203 0)"/>
       <use xlink:href="#DejaVuSans-30" transform="translate(222.65625 0)"/>
       <use xlink:href="#DejaVuSans-34" transform="translate(286.279297 0)"/>
       <use xlink:href="#DejaVuSans-30" transform="translate(349.902344 0)"/>
      </g>
     </g>
    </g>
   </g>
   <g id="line2d_67">
    <path d="M 719.20925 256.932486 
L 719.20925 251.388633 
" clip-path="url(#p1f9af90f93)" style="fill: none; stroke: #424242; stroke-width: 2.25; stroke-linecap: square"/>
   </g>
   <g id="line2d_68">
    <path d="M 791.29925 373.862922 
L 791.29925 373.136615 
" clip-path="url(#p1f9af90f93)" style="fill: none; stroke: #424242; stroke-width: 2.25; stroke-linecap: square"/>
   </g>
   <g id="line2d_69">
    <path d="M 863.38925 247.862992 
L 863.38925 247.448138 
" clip-path="url(#p1f9af90f93)" style="fill: none; stroke: #424242; stroke-width: 2.25; stroke-linecap: square"/>
   </g>
   <g id="line2d_70">
    <path d="M 935.47925 250.365824 
L 935.47925 245.809898 
" clip-path="url(#p1f9af90f93)" style="fill: none; stroke: #424242; stroke-width: 2.25; stroke-linecap: square"/>
   </g>
   <g id="line2d_71">
    <path d="M 1007.56925 230.928703 
L 1007.56925 228.139336 
" clip-path="url(#p1f9af90f93)" style="fill: none; stroke: #424242; stroke-width: 2.25; stroke-linecap: square"/>
   </g>
   <g id="line2d_72">
    <path d="M 1079.65925 367.612695 
L 1079.65925 366.55002 
" clip-path="url(#p1f9af90f93)" style="fill: none; stroke: #424242; stroke-width: 2.25; stroke-linecap: square"/>
   </g>
   <g id="line2d_73">
    <path d="M 1151.74925 366.252271 
L 1151.74925 365.939573 
" clip-path="url(#p1f9af90f93)" style="fill: none; stroke: #424242; stroke-width: 2.25; stroke-linecap: square"/>
   </g>
   <g id="line2d_74">
    <path d="M 1223.83925 361.376173 
L 1223.83925 359.330554 
" clip-path="url(#p1f9af90f93)" style="fill: none; stroke: #424242; stroke-width: 2.25; stroke-linecap: square"/>
   </g>
   <g id="line2d_75">
    <path d="M 733.62725 258.04001 
L 733.62725 254.632721 
" clip-path="url(#p1f9af90f93)" style="fill: none; stroke: #424242; stroke-width: 2.25; stroke-linecap: square"/>
   </g>
   <g id="line2d_76">
    <path d="M 805.71725 374.236664 
L 805.71725 372.272023 
" clip-path="url(#p1f9af90f93)" style="fill: none; stroke: #424242; stroke-width: 2.25; stroke-linecap: square"/>
   </g>
   <g id="line2d_77">
    <path d="M 877.80725 137.561509 
L 877.80725 134.961504 
" clip-path="url(#p1f9af90f93)" style="fill: none; stroke: #424242; stroke-width: 2.25; stroke-linecap: square"/>
   </g>
   <g id="line2d_78">
    <path d="M 949.89725 73.154402 
L 949.89725 72.147788 
" clip-path="url(#p1f9af90f93)" style="fill: none; stroke: #424242; stroke-width: 2.25; stroke-linecap: square"/>
   </g>
   <g id="line2d_79">
    <path d="M 1021.98725 55.132521 
L 1021.98725 49.26725 
" clip-path="url(#p1f9af90f93)" style="fill: none; stroke: #424242; stroke-width: 2.25; stroke-linecap: square"/>
   </g>
   <g id="line2d_80">
    <path d="M 1094.07725 315.286204 
L 1094.07725 313.477288 
" clip-path="url(#p1f9af90f93)" style="fill: none; stroke: #424242; stroke-width: 2.25; stroke-linecap: square"/>
   </g>
   <g id="line2d_81">
    <path d="M 1166.16725 285.619741 
L 1166.16725 284.367703 
" clip-path="url(#p1f9af90f93)" style="fill: none; stroke: #424242; stroke-width: 2.25; stroke-linecap: square"/>
   </g>
   <g id="line2d_82">
    <path d="M 1238.25725 279.871576 
L 1238.25725 277.203052 
" clip-path="url(#p1f9af90f93)" style="fill: none; stroke: #424242; stroke-width: 2.25; stroke-linecap: square"/>
   </g>
   <g id="line2d_83">
    <path d="M 748.04525 510.626521 
L 748.04525 510.573574 
" clip-path="url(#p1f9af90f93)" style="fill: none; stroke: #424242; stroke-width: 2.25; stroke-linecap: square"/>
   </g>
   <g id="line2d_84">
    <path d="M 820.13525 510.926263 
L 820.13525 510.921404 
" clip-path="url(#p1f9af90f93)" style="fill: none; stroke: #424242; stroke-width: 2.25; stroke-linecap: square"/>
   </g>
   <g id="line2d_85">
    <path d="M 892.22525 510.941088 
L 892.22525 510.918165 
" clip-path="url(#p1f9af90f93)" style="fill: none; stroke: #424242; stroke-width: 2.25; stroke-linecap: square"/>
   </g>
   <g id="line2d_86">
    <path d="M 964.31525 511.021816 
L 964.31525 510.997897 
" clip-path="url(#p1f9af90f93)" style="fill: none; stroke: #424242; stroke-width: 2.25; stroke-linecap: square"/>
   </g>
   <g id="line2d_87">
    <path d="M 1036.40525 511.015712 
L 1036.40525 511.00724 
" clip-path="url(#p1f9af90f93)" style="fill: none; stroke: #424242; stroke-width: 2.25; stroke-linecap: square"/>
   </g>
   <g id="line2d_88">
    <path d="M 1108.49525 511.015462 
L 1108.49525 511.002755 
" clip-path="url(#p1f9af90f93)" style="fill: none; stroke: #424242; stroke-width: 2.25; stroke-linecap: square"/>
   </g>
   <g id="line2d_89">
    <path d="M 1180.58525 511.534965 
L 1180.58525 511.514534 
" clip-path="url(#p1f9af90f93)" style="fill: none; stroke: #424242; stroke-width: 2.25; stroke-linecap: square"/>
   </g>
   <g id="line2d_90">
    <path d="M 1252.67525 511.53945 
L 1252.67525 511.526992 
" clip-path="url(#p1f9af90f93)" style="fill: none; stroke: #424242; stroke-width: 2.25; stroke-linecap: square"/>
   </g>
   <g id="line2d_91">
    <path d="M 762.46325 504.63617 
L 762.46325 504.604402 
" clip-path="url(#p1f9af90f93)" style="fill: none; stroke: #424242; stroke-width: 2.25; stroke-linecap: square"/>
   </g>
   <g id="line2d_92">
    <path d="M 834.55325 505.228926 
L 834.55325 505.191428 
" clip-path="url(#p1f9af90f93)" style="fill: none; stroke: #424242; stroke-width: 2.25; stroke-linecap: square"/>
   </g>
   <g id="line2d_93">
    <path d="M 906.64325 503.699446 
L 906.64325 503.60626 
" clip-path="url(#p1f9af90f93)" style="fill: none; stroke: #424242; stroke-width: 2.25; stroke-linecap: square"/>
   </g>
   <g id="line2d_94">
    <path d="M 978.73325 503.682503 
L 978.73325 503.61361 
" clip-path="url(#p1f9af90f93)" style="fill: none; stroke: #424242; stroke-width: 2.25; stroke-linecap: square"/>
   </g>
   <g id="line2d_95">
    <path d="M 1050.82325 503.286834 
L 1050.82325 503.223173 
" clip-path="url(#p1f9af90f93)" style="fill: none; stroke: #424242; stroke-width: 2.25; stroke-linecap: square"/>
   </g>
   <g id="line2d_96">
    <path d="M 1122.91325 504.489289 
L 1122.91325 504.42812 
" clip-path="url(#p1f9af90f93)" style="fill: none; stroke: #424242; stroke-width: 2.25; stroke-linecap: square"/>
   </g>
   <g id="line2d_97">
    <path d="M 1195.00325 504.463003 
L 1195.00325 504.424133 
" clip-path="url(#p1f9af90f93)" style="fill: none; stroke: #424242; stroke-width: 2.25; stroke-linecap: square"/>
   </g>
   <g id="line2d_98">
    <path d="M 1267.09325 504.324469 
L 1267.09325 504.293448 
" clip-path="url(#p1f9af90f93)" style="fill: none; stroke: #424242; stroke-width: 2.25; stroke-linecap: square"/>
   </g>
   <g id="patch_85">
    <path d="M 704.79125 530.44 
L 704.79125 7.2 
" style="fill: none; stroke: #000000; stroke-width: 0.8; stroke-linejoin: miter; stroke-linecap: square"/>
   </g>
   <g id="patch_86">
    <path d="M 1281.51125 530.44 
L 1281.51125 7.2 
" style="fill: none; stroke: #000000; stroke-width: 0.8; stroke-linejoin: miter; stroke-linecap: square"/>
   </g>
   <g id="patch_87">
    <path d="M 704.79125 530.44 
L 1281.51125 530.44 
" style="fill: none; stroke: #000000; stroke-width: 0.8; stroke-linejoin: miter; stroke-linecap: square"/>
   </g>
   <g id="patch_88">
    <path d="M 704.79125 7.2 
L 1281.51125 7.2 
" style="fill: none; stroke: #000000; stroke-width: 0.8; stroke-linejoin: miter; stroke-linecap: square"/>
   </g>
   <g id="legend_2">
    <g id="patch_89">
     <path d="M 1112.787812 88.590625 
L 1274.51125 88.590625 
Q 1276.51125 88.590625 1276.51125 86.590625 
L 1276.51125 14.2 
Q 1276.51125 12.2 1274.51125 12.2 
L 1112.787812 12.2 
Q 1110.787812 12.2 1110.787812 14.2 
L 1110.787812 86.590625 
Q 1110.787812 88.590625 1112.787812 88.590625 
z
" style="fill: #ffffff; opacity: 0.8; stroke: #cccccc; stroke-linejoin: miter"/>
    </g>
    <g id="text_43">
     <!-- Firts BSS devices configuration: -->
     <g transform="translate(1114.787812 23.798437) scale(0.1 -0.1)">
      <use xlink:href="#DejaVuSans-46"/>
      <use xlink:href="#DejaVuSans-69" transform="translate(50.269531 0)"/>
      <use xlink:href="#DejaVuSans-72" transform="translate(78.052734 0)"/>
      <use xlink:href="#DejaVuSans-74" transform="translate(119.166016 0)"/>
      <use xlink:href="#DejaVuSans-73" transform="translate(158.375 0)"/>
      <use xlink:href="#DejaVuSans-20" transform="translate(210.474609 0)"/>
      <use xlink:href="#DejaVuSans-42" transform="translate(242.261719 0)"/>
      <use xlink:href="#DejaVuSans-53" transform="translate(309.115234 0)"/>
      <use xlink:href="#DejaVuSans-53" transform="translate(372.591797 0)"/>
      <use xlink:href="#DejaVuSans-20" transform="translate(436.068359 0)"/>
      <use xlink:href="#DejaVuSans-64" transform="translate(467.855469 0)"/>
      <use xlink:href="#DejaVuSans-65" transform="translate(531.332031 0)"/>
      <use xlink:href="#DejaVuSans-76" transform="translate(592.855469 0)"/>
      <use xlink:href="#DejaVuSans-69" transform="translate(652.035156 0)"/>
      <use xlink:href="#DejaVuSans-63" transform="translate(679.818359 0)"/>
      <use xlink:href="#DejaVuSans-65" transform="translate(734.798828 0)"/>
      <use xlink:href="#DejaVuSans-73" transform="translate(796.322266 0)"/>
      <use xlink:href="#DejaVuSans-20" transform="translate(848.421875 0)"/>
      <use xlink:href="#DejaVuSans-63" transform="translate(880.208984 0)"/>
      <use xlink:href="#DejaVuSans-6f" transform="translate(935.189453 0)"/>
      <use xlink:href="#DejaVuSans-6e" transform="translate(996.371094 0)"/>
      <use xlink:href="#DejaVuSans-66" transform="translate(1059.75 0)"/>
      <use xlink:href="#DejaVuSans-69" transform="translate(1094.955078 0)"/>
      <use xlink:href="#DejaVuSans-67" transform="translate(1122.738281 0)"/>
      <use xlink:href="#DejaVuSans-75" transform="translate(1186.214844 0)"/>
      <use xlink:href="#DejaVuSans-72" transform="translate(1249.59375 0)"/>
      <use xlink:href="#DejaVuSans-61" transform="translate(1290.707031 0)"/>
      <use xlink:href="#DejaVuSans-74" transform="translate(1351.986328 0)"/>
      <use xlink:href="#DejaVuSans-69" transform="translate(1391.195312 0)"/>
      <use xlink:href="#DejaVuSans-6f" transform="translate(1418.978516 0)"/>
      <use xlink:href="#DejaVuSans-6e" transform="translate(1480.160156 0)"/>
      <use xlink:href="#DejaVuSans-3a" transform="translate(1543.539062 0)"/>
     </g>
    </g>
    <g id="patch_90">
     <path d="M 1175.799531 38.476562 
L 1195.799531 38.476562 
L 1195.799531 31.476562 
L 1175.799531 31.476562 
z
" style="fill: #0c3b50"/>
    </g>
    <g id="text_44">
     <!-- A -->
     <g transform="translate(1203.799531 38.476562) scale(0.1 -0.1)">
      <use xlink:href="#DejaVuSans-41"/>
     </g>
    </g>
    <g id="patch_91">
     <path d="M 1175.799531 53.154688 
L 1195.799531 53.154688 
L 1195.799531 46.154688 
L 1175.799531 46.154688 
z
" style="fill: #785a8c"/>
    </g>
    <g id="text_45">
     <!-- B -->
     <g transform="translate(1203.799531 53.154688) scale(0.1 -0.1)">
      <use xlink:href="#DejaVuSans-42"/>
     </g>
    </g>
    <g id="patch_92">
     <path d="M 1175.799531 67.832812 
L 1195.799531 67.832812 
L 1195.799531 60.832812 
L 1175.799531 60.832812 
z
" style="fill: #dc6980"/>
    </g>
    <g id="text_46">
     <!-- C -->
     <g transform="translate(1203.799531 67.832812) scale(0.1 -0.1)">
      <use xlink:href="#DejaVuSans-43"/>
     </g>
    </g>
    <g id="patch_93">
     <path d="M 1175.799531 82.510938 
L 1195.799531 82.510938 
L 1195.799531 75.510938 
L 1175.799531 75.510938 
z
" style="fill: #df9c20"/>
    </g>
    <g id="text_47">
     <!-- D -->
     <g transform="translate(1203.799531 82.510938) scale(0.1 -0.1)">
      <use xlink:href="#DejaVuSans-44"/>
     </g>
    </g>
   </g>
  </g>
 </g>
 <defs>
  <clipPath id="p9595a4e676">
   <rect x="69.23125" y="7.2" width="576.72" height="523.24"/>
  </clipPath>
  <clipPath id="p1f9af90f93">
   <rect x="704.79125" y="7.2" width="576.72" height="523.24"/>
  </clipPath>
 </defs>
</svg>
