<?xml version="1.0" encoding="utf-8" standalone="no"?>
<!DOCTYPE svg PUBLIC "-//W3C//DTD SVG 1.1//EN"
  "http://www.w3.org/Graphics/SVG/1.1/DTD/svg11.dtd">
<svg xmlns:xlink="http://www.w3.org/1999/xlink" width="1288.37125pt" height="567.99625pt" viewBox="0 0 1288.37125 567.99625" xmlns="http://www.w3.org/2000/svg" version="1.1">
 <metadata>
  <rdf:RDF xmlns:dc="http://purl.org/dc/elements/1.1/" xmlns:cc="http://creativecommons.org/ns#" xmlns:rdf="http://www.w3.org/1999/02/22-rdf-syntax-ns#">
   <cc:Work>
    <dc:type rdf:resource="http://purl.org/dc/dcmitype/StillImage"/>
    <dc:date>2025-06-10T18:14:20.317172</dc:date>
    <dc:format>image/svg+xml</dc:format>
    <dc:creator>
     <cc:Agent>
      <dc:title>Matplotlib v3.9.2, https://matplotlib.org/</dc:title>
     </cc:Agent>
    </dc:creator>
   </cc:Work>
  </rdf:RDF>
 </metadata>
 <defs>
  <style type="text/css">*{stroke-linejoin: round; stroke-linecap: butt}</style>
 </defs>
 <g id="figure_1">
  <g id="patch_1">
   <path d="M 0 567.99625 
L 1288.37125 567.99625 
L 1288.37125 0 
L 0 0 
z
" style="fill: #ffffff"/>
  </g>
  <g id="axes_1">
   <g id="patch_2">
    <path d="M 43.78125 530.44 
L 645.61125 530.44 
L 645.61125 7.2 
L 43.78125 7.2 
z
" style="fill: #ffffff"/>
   </g>
   <g id="patch_3">
    <path d="M 51.304125 530.44 
L 66.349875 530.44 
L 66.349875 65.904118 
L 51.304125 65.904118 
z
" clip-path="url(#p957a09ec7c)" style="fill: #0c3b50"/>
   </g>
   <g id="patch_4">
    <path d="M 126.532875 530.44 
L 141.578625 530.44 
L 141.578625 230.028057 
L 126.532875 230.028057 
z
" clip-path="url(#p957a09ec7c)" style="fill: #0c3b50"/>
   </g>
   <g id="patch_5">
    <path d="M 201.761625 530.44 
L 216.807375 530.44 
L 216.807375 64.006039 
L 201.761625 64.006039 
z
" clip-path="url(#p957a09ec7c)" style="fill: #0c3b50"/>
   </g>
   <g id="patch_6">
    <path d="M 276.990375 530.44 
L 292.036125 530.44 
L 292.036125 62.693866 
L 276.990375 62.693866 
z
" clip-path="url(#p957a09ec7c)" style="fill: #0c3b50"/>
   </g>
   <g id="patch_7">
    <path d="M 352.219125 530.44 
L 367.264875 530.44 
L 367.264875 58.978523 
L 352.219125 58.978523 
z
" clip-path="url(#p957a09ec7c)" style="fill: #0c3b50"/>
   </g>
   <g id="patch_8">
    <path d="M 427.447875 530.44 
L 442.493625 530.44 
L 442.493625 224.713649 
L 427.447875 224.713649 
z
" clip-path="url(#p957a09ec7c)" style="fill: #0c3b50"/>
   </g>
   <g id="patch_9">
    <path d="M 502.676625 530.44 
L 517.722375 530.44 
L 517.722375 223.859886 
L 502.676625 223.859886 
z
" clip-path="url(#p957a09ec7c)" style="fill: #0c3b50"/>
   </g>
   <g id="patch_10">
    <path d="M 577.905375 530.44 
L 592.951125 530.44 
L 592.951125 219.279189 
L 577.905375 219.279189 
z
" clip-path="url(#p957a09ec7c)" style="fill: #0c3b50"/>
   </g>
   <g id="patch_11">
    <path d="M 66.349875 530.44 
L 81.395625 530.44 
L 81.395625 65.313959 
L 66.349875 65.313959 
z
" clip-path="url(#p957a09ec7c)" style="fill: #785a8c"/>
   </g>
   <g id="patch_12">
    <path d="M 141.578625 530.44 
L 156.624375 530.44 
L 156.624375 229.681724 
L 141.578625 229.681724 
z
" clip-path="url(#p957a09ec7c)" style="fill: #785a8c"/>
   </g>
   <g id="patch_13">
    <path d="M 216.807375 530.44 
L 231.853125 530.44 
L 231.853125 48.150436 
L 216.807375 48.150436 
z
" clip-path="url(#p957a09ec7c)" style="fill: #785a8c"/>
   </g>
   <g id="patch_14">
    <path d="M 292.036125 530.44 
L 307.081875 530.44 
L 307.081875 46.513941 
L 292.036125 46.513941 
z
" clip-path="url(#p957a09ec7c)" style="fill: #785a8c"/>
   </g>
   <g id="patch_15">
    <path d="M 367.264875 530.44 
L 382.310625 530.44 
L 382.310625 33.542142 
L 367.264875 33.542142 
z
" clip-path="url(#p957a09ec7c)" style="fill: #785a8c"/>
   </g>
   <g id="patch_16">
    <path d="M 442.493625 530.44 
L 457.539375 530.44 
L 457.539375 221.244365 
L 442.493625 221.244365 
z
" clip-path="url(#p957a09ec7c)" style="fill: #785a8c"/>
   </g>
   <g id="patch_17">
    <path d="M 517.722375 530.44 
L 532.768125 530.44 
L 532.768125 220.680152 
L 517.722375 220.680152 
z
" clip-path="url(#p957a09ec7c)" style="fill: #785a8c"/>
   </g>
   <g id="patch_18">
    <path d="M 592.951125 530.44 
L 607.996875 530.44 
L 607.996875 215.382333 
L 592.951125 215.382333 
z
" clip-path="url(#p957a09ec7c)" style="fill: #785a8c"/>
   </g>
   <g id="patch_19">
    <path d="M 81.395625 530.44 
L 96.441375 530.44 
L 96.441375 506.590891 
L 81.395625 506.590891 
z
" clip-path="url(#p957a09ec7c)" style="fill: #dc6980"/>
   </g>
   <g id="patch_20">
    <path d="M 156.624375 530.44 
L 171.670125 530.44 
L 171.670125 478.774724 
L 156.624375 478.774724 
z
" clip-path="url(#p957a09ec7c)" style="fill: #dc6980"/>
   </g>
   <g id="patch_21">
    <path d="M 231.853125 530.44 
L 246.898875 530.44 
L 246.898875 479.171459 
L 231.853125 479.171459 
z
" clip-path="url(#p957a09ec7c)" style="fill: #dc6980"/>
   </g>
   <g id="patch_22">
    <path d="M 307.081875 530.44 
L 322.127625 530.44 
L 322.127625 436.949895 
L 307.081875 436.949895 
z
" clip-path="url(#p957a09ec7c)" style="fill: #dc6980"/>
   </g>
   <g id="patch_23">
    <path d="M 382.310625 530.44 
L 397.356375 530.44 
L 397.356375 436.764554 
L 382.310625 436.764554 
z
" clip-path="url(#p957a09ec7c)" style="fill: #dc6980"/>
   </g>
   <g id="patch_24">
    <path d="M 457.539375 530.44 
L 472.585125 530.44 
L 472.585125 436.895027 
L 457.539375 436.895027 
z
" clip-path="url(#p957a09ec7c)" style="fill: #dc6980"/>
   </g>
   <g id="patch_25">
    <path d="M 532.768125 530.44 
L 547.813875 530.44 
L 547.813875 465.704458 
L 532.768125 465.704458 
z
" clip-path="url(#p957a09ec7c)" style="fill: #dc6980"/>
   </g>
   <g id="patch_26">
    <path d="M 607.996875 530.44 
L 623.042625 530.44 
L 623.042625 465.705415 
L 607.996875 465.705415 
z
" clip-path="url(#p957a09ec7c)" style="fill: #dc6980"/>
   </g>
   <g id="patch_27">
    <path d="M 96.441375 530.44 
L 111.487125 530.44 
L 111.487125 488.117524 
L 96.441375 488.117524 
z
" clip-path="url(#p957a09ec7c)" style="fill: #df9c20"/>
   </g>
   <g id="patch_28">
    <path d="M 171.670125 530.44 
L 186.715875 530.44 
L 186.715875 377.858825 
L 171.670125 377.858825 
z
" clip-path="url(#p957a09ec7c)" style="fill: #df9c20"/>
   </g>
   <g id="patch_29">
    <path d="M 246.898875 530.44 
L 261.944625 530.44 
L 261.944625 426.962492 
L 246.898875 426.962492 
z
" clip-path="url(#p957a09ec7c)" style="fill: #df9c20"/>
   </g>
   <g id="patch_30">
    <path d="M 322.127625 530.44 
L 337.173375 530.44 
L 337.173375 426.951221 
L 322.127625 426.951221 
z
" clip-path="url(#p957a09ec7c)" style="fill: #df9c20"/>
   </g>
   <g id="patch_31">
    <path d="M 397.356375 530.44 
L 412.402125 530.44 
L 412.402125 454.854998 
L 397.356375 454.854998 
z
" clip-path="url(#p957a09ec7c)" style="fill: #df9c20"/>
   </g>
   <g id="patch_32">
    <path d="M 472.585125 530.44 
L 487.630875 530.44 
L 487.630875 456.277759 
L 472.585125 456.277759 
z
" clip-path="url(#p957a09ec7c)" style="fill: #df9c20"/>
   </g>
   <g id="patch_33">
    <path d="M 547.813875 530.44 
L 562.859625 530.44 
L 562.859625 456.245434 
L 547.813875 456.245434 
z
" clip-path="url(#p957a09ec7c)" style="fill: #df9c20"/>
   </g>
   <g id="patch_34">
    <path d="M 623.042625 530.44 
L 638.088375 530.44 
L 638.088375 474.830761 
L 623.042625 474.830761 
z
" clip-path="url(#p957a09ec7c)" style="fill: #df9c20"/>
   </g>
   <g id="patch_35">
    <path d="M 81.395625 530.44 
L 81.395625 530.44 
L 81.395625 530.44 
L 81.395625 530.44 
z
" clip-path="url(#p957a09ec7c)" style="fill: #0c3b50"/>
   </g>
   <g id="patch_36">
    <path d="M 81.395625 530.44 
L 81.395625 530.44 
L 81.395625 530.44 
L 81.395625 530.44 
z
" clip-path="url(#p957a09ec7c)" style="fill: #785a8c"/>
   </g>
   <g id="patch_37">
    <path d="M 81.395625 530.44 
L 81.395625 530.44 
L 81.395625 530.44 
L 81.395625 530.44 
z
" clip-path="url(#p957a09ec7c)" style="fill: #dc6980"/>
   </g>
   <g id="patch_38">
    <path d="M 81.395625 530.44 
L 81.395625 530.44 
L 81.395625 530.44 
L 81.395625 530.44 
z
" clip-path="url(#p957a09ec7c)" style="fill: #df9c20"/>
   </g>
   <g id="matplotlib.axis_1">
    <g id="xtick_1">
     <g id="line2d_1">
      <defs>
       <path id="mcc49ee438a" d="M 0 0 
L 0 3.5 
" style="stroke: #000000; stroke-width: 0.8"/>
      </defs>
      <g>
       <use xlink:href="#mcc49ee438a" x="81.395625" y="530.44" style="stroke: #000000; stroke-width: 0.8"/>
      </g>
     </g>
     <g id="text_1">
      <!-- 1 -->
      <g transform="translate(78.214375 545.038437) scale(0.1 -0.1)">
       <defs>
        <path id="DejaVuSans-31" d="M 794 531 
L 1825 531 
L 1825 4091 
L 703 3866 
L 703 4441 
L 1819 4666 
L 2450 4666 
L 2450 531 
L 3481 531 
L 3481 0 
L 794 0 
L 794 531 
z
" transform="scale(0.015625)"/>
       </defs>
       <use xlink:href="#DejaVuSans-31"/>
      </g>
     </g>
    </g>
    <g id="xtick_2">
     <g id="line2d_2">
      <g>
       <use xlink:href="#mcc49ee438a" x="156.624375" y="530.44" style="stroke: #000000; stroke-width: 0.8"/>
      </g>
     </g>
     <g id="text_2">
      <!-- 2 -->
      <g transform="translate(153.443125 545.038437) scale(0.1 -0.1)">
       <defs>
        <path id="DejaVuSans-32" d="M 1228 531 
L 3431 531 
L 3431 0 
L 469 0 
L 469 531 
Q 828 903 1448 1529 
Q 2069 2156 2228 2338 
Q 2531 2678 2651 2914 
Q 2772 3150 2772 3378 
Q 2772 3750 2511 3984 
Q 2250 4219 1831 4219 
Q 1534 4219 1204 4116 
Q 875 4013 500 3803 
L 500 4441 
Q 881 4594 1212 4672 
Q 1544 4750 1819 4750 
Q 2544 4750 2975 4387 
Q 3406 4025 3406 3419 
Q 3406 3131 3298 2873 
Q 3191 2616 2906 2266 
Q 2828 2175 2409 1742 
Q 1991 1309 1228 531 
z
" transform="scale(0.015625)"/>
       </defs>
       <use xlink:href="#DejaVuSans-32"/>
      </g>
     </g>
    </g>
    <g id="xtick_3">
     <g id="line2d_3">
      <g>
       <use xlink:href="#mcc49ee438a" x="231.853125" y="530.44" style="stroke: #000000; stroke-width: 0.8"/>
      </g>
     </g>
     <g id="text_3">
      <!-- 3 -->
      <g transform="translate(228.671875 545.038437) scale(0.1 -0.1)">
       <defs>
        <path id="DejaVuSans-33" d="M 2597 2516 
Q 3050 2419 3304 2112 
Q 3559 1806 3559 1356 
Q 3559 666 3084 287 
Q 2609 -91 1734 -91 
Q 1441 -91 1130 -33 
Q 819 25 488 141 
L 488 750 
Q 750 597 1062 519 
Q 1375 441 1716 441 
Q 2309 441 2620 675 
Q 2931 909 2931 1356 
Q 2931 1769 2642 2001 
Q 2353 2234 1838 2234 
L 1294 2234 
L 1294 2753 
L 1863 2753 
Q 2328 2753 2575 2939 
Q 2822 3125 2822 3475 
Q 2822 3834 2567 4026 
Q 2313 4219 1838 4219 
Q 1578 4219 1281 4162 
Q 984 4106 628 3988 
L 628 4550 
Q 988 4650 1302 4700 
Q 1616 4750 1894 4750 
Q 2613 4750 3031 4423 
Q 3450 4097 3450 3541 
Q 3450 3153 3228 2886 
Q 3006 2619 2597 2516 
z
" transform="scale(0.015625)"/>
       </defs>
       <use xlink:href="#DejaVuSans-33"/>
      </g>
     </g>
    </g>
    <g id="xtick_4">
     <g id="line2d_4">
      <g>
       <use xlink:href="#mcc49ee438a" x="307.081875" y="530.44" style="stroke: #000000; stroke-width: 0.8"/>
      </g>
     </g>
     <g id="text_4">
      <!-- 4 -->
      <g transform="translate(303.900625 545.038437) scale(0.1 -0.1)">
       <defs>
        <path id="DejaVuSans-34" d="M 2419 4116 
L 825 1625 
L 2419 1625 
L 2419 4116 
z
M 2253 4666 
L 3047 4666 
L 3047 1625 
L 3713 1625 
L 3713 1100 
L 3047 1100 
L 3047 0 
L 2419 0 
L 2419 1100 
L 313 1100 
L 313 1709 
L 2253 4666 
z
" transform="scale(0.015625)"/>
       </defs>
       <use xlink:href="#DejaVuSans-34"/>
      </g>
     </g>
    </g>
    <g id="xtick_5">
     <g id="line2d_5">
      <g>
       <use xlink:href="#mcc49ee438a" x="382.310625" y="530.44" style="stroke: #000000; stroke-width: 0.8"/>
      </g>
     </g>
     <g id="text_5">
      <!-- 5 -->
      <g transform="translate(379.129375 545.038437) scale(0.1 -0.1)">
       <defs>
        <path id="DejaVuSans-35" d="M 691 4666 
L 3169 4666 
L 3169 4134 
L 1269 4134 
L 1269 2991 
Q 1406 3038 1543 3061 
Q 1681 3084 1819 3084 
Q 2600 3084 3056 2656 
Q 3513 2228 3513 1497 
Q 3513 744 3044 326 
Q 2575 -91 1722 -91 
Q 1428 -91 1123 -41 
Q 819 9 494 109 
L 494 744 
Q 775 591 1075 516 
Q 1375 441 1709 441 
Q 2250 441 2565 725 
Q 2881 1009 2881 1497 
Q 2881 1984 2565 2268 
Q 2250 2553 1709 2553 
Q 1456 2553 1204 2497 
Q 953 2441 691 2322 
L 691 4666 
z
" transform="scale(0.015625)"/>
       </defs>
       <use xlink:href="#DejaVuSans-35"/>
      </g>
     </g>
    </g>
    <g id="xtick_6">
     <g id="line2d_6">
      <g>
       <use xlink:href="#mcc49ee438a" x="457.539375" y="530.44" style="stroke: #000000; stroke-width: 0.8"/>
      </g>
     </g>
     <g id="text_6">
      <!-- 6 -->
      <g transform="translate(454.358125 545.038437) scale(0.1 -0.1)">
       <defs>
        <path id="DejaVuSans-36" d="M 2113 2584 
Q 1688 2584 1439 2293 
Q 1191 2003 1191 1497 
Q 1191 994 1439 701 
Q 1688 409 2113 409 
Q 2538 409 2786 701 
Q 3034 994 3034 1497 
Q 3034 2003 2786 2293 
Q 2538 2584 2113 2584 
z
M 3366 4563 
L 3366 3988 
Q 3128 4100 2886 4159 
Q 2644 4219 2406 4219 
Q 1781 4219 1451 3797 
Q 1122 3375 1075 2522 
Q 1259 2794 1537 2939 
Q 1816 3084 2150 3084 
Q 2853 3084 3261 2657 
Q 3669 2231 3669 1497 
Q 3669 778 3244 343 
Q 2819 -91 2113 -91 
Q 1303 -91 875 529 
Q 447 1150 447 2328 
Q 447 3434 972 4092 
Q 1497 4750 2381 4750 
Q 2619 4750 2861 4703 
Q 3103 4656 3366 4563 
z
" transform="scale(0.015625)"/>
       </defs>
       <use xlink:href="#DejaVuSans-36"/>
      </g>
     </g>
    </g>
    <g id="xtick_7">
     <g id="line2d_7">
      <g>
       <use xlink:href="#mcc49ee438a" x="532.768125" y="530.44" style="stroke: #000000; stroke-width: 0.8"/>
      </g>
     </g>
     <g id="text_7">
      <!-- 7 -->
      <g transform="translate(529.586875 545.038437) scale(0.1 -0.1)">
       <defs>
        <path id="DejaVuSans-37" d="M 525 4666 
L 3525 4666 
L 3525 4397 
L 1831 0 
L 1172 0 
L 2766 4134 
L 525 4134 
L 525 4666 
z
" transform="scale(0.015625)"/>
       </defs>
       <use xlink:href="#DejaVuSans-37"/>
      </g>
     </g>
    </g>
    <g id="xtick_8">
     <g id="line2d_8">
      <g>
       <use xlink:href="#mcc49ee438a" x="607.996875" y="530.44" style="stroke: #000000; stroke-width: 0.8"/>
      </g>
     </g>
     <g id="text_8">
      <!-- 8 -->
      <g transform="translate(604.815625 545.038437) scale(0.1 -0.1)">
       <defs>
        <path id="DejaVuSans-38" d="M 2034 2216 
Q 1584 2216 1326 1975 
Q 1069 1734 1069 1313 
Q 1069 891 1326 650 
Q 1584 409 2034 409 
Q 2484 409 2743 651 
Q 3003 894 3003 1313 
Q 3003 1734 2745 1975 
Q 2488 2216 2034 2216 
z
M 1403 2484 
Q 997 2584 770 2862 
Q 544 3141 544 3541 
Q 544 4100 942 4425 
Q 1341 4750 2034 4750 
Q 2731 4750 3128 4425 
Q 3525 4100 3525 3541 
Q 3525 3141 3298 2862 
Q 3072 2584 2669 2484 
Q 3125 2378 3379 2068 
Q 3634 1759 3634 1313 
Q 3634 634 3220 271 
Q 2806 -91 2034 -91 
Q 1263 -91 848 271 
Q 434 634 434 1313 
Q 434 1759 690 2068 
Q 947 2378 1403 2484 
z
M 1172 3481 
Q 1172 3119 1398 2916 
Q 1625 2713 2034 2713 
Q 2441 2713 2670 2916 
Q 2900 3119 2900 3481 
Q 2900 3844 2670 4047 
Q 2441 4250 2034 4250 
Q 1625 4250 1398 4047 
Q 1172 3844 1172 3481 
z
" transform="scale(0.015625)"/>
       </defs>
       <use xlink:href="#DejaVuSans-38"/>
      </g>
     </g>
    </g>
    <g id="text_9">
     <!-- Distance beetwen AP and STAs [m] -->
     <g transform="translate(256.786875 558.716562) scale(0.1 -0.1)">
      <defs>
       <path id="DejaVuSans-44" d="M 1259 4147 
L 1259 519 
L 2022 519 
Q 2988 519 3436 956 
Q 3884 1394 3884 2338 
Q 3884 3275 3436 3711 
Q 2988 4147 2022 4147 
L 1259 4147 
z
M 628 4666 
L 1925 4666 
Q 3281 4666 3915 4102 
Q 4550 3538 4550 2338 
Q 4550 1131 3912 565 
Q 3275 0 1925 0 
L 628 0 
L 628 4666 
z
" transform="scale(0.015625)"/>
       <path id="DejaVuSans-69" d="M 603 3500 
L 1178 3500 
L 1178 0 
L 603 0 
L 603 3500 
z
M 603 4863 
L 1178 4863 
L 1178 4134 
L 603 4134 
L 603 4863 
z
" transform="scale(0.015625)"/>
       <path id="DejaVuSans-73" d="M 2834 3397 
L 2834 2853 
Q 2591 2978 2328 3040 
Q 2066 3103 1784 3103 
Q 1356 3103 1142 2972 
Q 928 2841 928 2578 
Q 928 2378 1081 2264 
Q 1234 2150 1697 2047 
L 1894 2003 
Q 2506 1872 2764 1633 
Q 3022 1394 3022 966 
Q 3022 478 2636 193 
Q 2250 -91 1575 -91 
Q 1294 -91 989 -36 
Q 684 19 347 128 
L 347 722 
Q 666 556 975 473 
Q 1284 391 1588 391 
Q 1994 391 2212 530 
Q 2431 669 2431 922 
Q 2431 1156 2273 1281 
Q 2116 1406 1581 1522 
L 1381 1569 
Q 847 1681 609 1914 
Q 372 2147 372 2553 
Q 372 3047 722 3315 
Q 1072 3584 1716 3584 
Q 2034 3584 2315 3537 
Q 2597 3491 2834 3397 
z
" transform="scale(0.015625)"/>
       <path id="DejaVuSans-74" d="M 1172 4494 
L 1172 3500 
L 2356 3500 
L 2356 3053 
L 1172 3053 
L 1172 1153 
Q 1172 725 1289 603 
Q 1406 481 1766 481 
L 2356 481 
L 2356 0 
L 1766 0 
Q 1100 0 847 248 
Q 594 497 594 1153 
L 594 3053 
L 172 3053 
L 172 3500 
L 594 3500 
L 594 4494 
L 1172 4494 
z
" transform="scale(0.015625)"/>
       <path id="DejaVuSans-61" d="M 2194 1759 
Q 1497 1759 1228 1600 
Q 959 1441 959 1056 
Q 959 750 1161 570 
Q 1363 391 1709 391 
Q 2188 391 2477 730 
Q 2766 1069 2766 1631 
L 2766 1759 
L 2194 1759 
z
M 3341 1997 
L 3341 0 
L 2766 0 
L 2766 531 
Q 2569 213 2275 61 
Q 1981 -91 1556 -91 
Q 1019 -91 701 211 
Q 384 513 384 1019 
Q 384 1609 779 1909 
Q 1175 2209 1959 2209 
L 2766 2209 
L 2766 2266 
Q 2766 2663 2505 2880 
Q 2244 3097 1772 3097 
Q 1472 3097 1187 3025 
Q 903 2953 641 2809 
L 641 3341 
Q 956 3463 1253 3523 
Q 1550 3584 1831 3584 
Q 2591 3584 2966 3190 
Q 3341 2797 3341 1997 
z
" transform="scale(0.015625)"/>
       <path id="DejaVuSans-6e" d="M 3513 2113 
L 3513 0 
L 2938 0 
L 2938 2094 
Q 2938 2591 2744 2837 
Q 2550 3084 2163 3084 
Q 1697 3084 1428 2787 
Q 1159 2491 1159 1978 
L 1159 0 
L 581 0 
L 581 3500 
L 1159 3500 
L 1159 2956 
Q 1366 3272 1645 3428 
Q 1925 3584 2291 3584 
Q 2894 3584 3203 3211 
Q 3513 2838 3513 2113 
z
" transform="scale(0.015625)"/>
       <path id="DejaVuSans-63" d="M 3122 3366 
L 3122 2828 
Q 2878 2963 2633 3030 
Q 2388 3097 2138 3097 
Q 1578 3097 1268 2742 
Q 959 2388 959 1747 
Q 959 1106 1268 751 
Q 1578 397 2138 397 
Q 2388 397 2633 464 
Q 2878 531 3122 666 
L 3122 134 
Q 2881 22 2623 -34 
Q 2366 -91 2075 -91 
Q 1284 -91 818 406 
Q 353 903 353 1747 
Q 353 2603 823 3093 
Q 1294 3584 2113 3584 
Q 2378 3584 2631 3529 
Q 2884 3475 3122 3366 
z
" transform="scale(0.015625)"/>
       <path id="DejaVuSans-65" d="M 3597 1894 
L 3597 1613 
L 953 1613 
Q 991 1019 1311 708 
Q 1631 397 2203 397 
Q 2534 397 2845 478 
Q 3156 559 3463 722 
L 3463 178 
Q 3153 47 2828 -22 
Q 2503 -91 2169 -91 
Q 1331 -91 842 396 
Q 353 884 353 1716 
Q 353 2575 817 3079 
Q 1281 3584 2069 3584 
Q 2775 3584 3186 3129 
Q 3597 2675 3597 1894 
z
M 3022 2063 
Q 3016 2534 2758 2815 
Q 2500 3097 2075 3097 
Q 1594 3097 1305 2825 
Q 1016 2553 972 2059 
L 3022 2063 
z
" transform="scale(0.015625)"/>
       <path id="DejaVuSans-20" transform="scale(0.015625)"/>
       <path id="DejaVuSans-62" d="M 3116 1747 
Q 3116 2381 2855 2742 
Q 2594 3103 2138 3103 
Q 1681 3103 1420 2742 
Q 1159 2381 1159 1747 
Q 1159 1113 1420 752 
Q 1681 391 2138 391 
Q 2594 391 2855 752 
Q 3116 1113 3116 1747 
z
M 1159 2969 
Q 1341 3281 1617 3432 
Q 1894 3584 2278 3584 
Q 2916 3584 3314 3078 
Q 3713 2572 3713 1747 
Q 3713 922 3314 415 
Q 2916 -91 2278 -91 
Q 1894 -91 1617 61 
Q 1341 213 1159 525 
L 1159 0 
L 581 0 
L 581 4863 
L 1159 4863 
L 1159 2969 
z
" transform="scale(0.015625)"/>
       <path id="DejaVuSans-77" d="M 269 3500 
L 844 3500 
L 1563 769 
L 2278 3500 
L 2956 3500 
L 3675 769 
L 4391 3500 
L 4966 3500 
L 4050 0 
L 3372 0 
L 2619 2869 
L 1863 0 
L 1184 0 
L 269 3500 
z
" transform="scale(0.015625)"/>
       <path id="DejaVuSans-41" d="M 2188 4044 
L 1331 1722 
L 3047 1722 
L 2188 4044 
z
M 1831 4666 
L 2547 4666 
L 4325 0 
L 3669 0 
L 3244 1197 
L 1141 1197 
L 716 0 
L 50 0 
L 1831 4666 
z
" transform="scale(0.015625)"/>
       <path id="DejaVuSans-50" d="M 1259 4147 
L 1259 2394 
L 2053 2394 
Q 2494 2394 2734 2622 
Q 2975 2850 2975 3272 
Q 2975 3691 2734 3919 
Q 2494 4147 2053 4147 
L 1259 4147 
z
M 628 4666 
L 2053 4666 
Q 2838 4666 3239 4311 
Q 3641 3956 3641 3272 
Q 3641 2581 3239 2228 
Q 2838 1875 2053 1875 
L 1259 1875 
L 1259 0 
L 628 0 
L 628 4666 
z
" transform="scale(0.015625)"/>
       <path id="DejaVuSans-64" d="M 2906 2969 
L 2906 4863 
L 3481 4863 
L 3481 0 
L 2906 0 
L 2906 525 
Q 2725 213 2448 61 
Q 2172 -91 1784 -91 
Q 1150 -91 751 415 
Q 353 922 353 1747 
Q 353 2572 751 3078 
Q 1150 3584 1784 3584 
Q 2172 3584 2448 3432 
Q 2725 3281 2906 2969 
z
M 947 1747 
Q 947 1113 1208 752 
Q 1469 391 1925 391 
Q 2381 391 2643 752 
Q 2906 1113 2906 1747 
Q 2906 2381 2643 2742 
Q 2381 3103 1925 3103 
Q 1469 3103 1208 2742 
Q 947 2381 947 1747 
z
" transform="scale(0.015625)"/>
       <path id="DejaVuSans-53" d="M 3425 4513 
L 3425 3897 
Q 3066 4069 2747 4153 
Q 2428 4238 2131 4238 
Q 1616 4238 1336 4038 
Q 1056 3838 1056 3469 
Q 1056 3159 1242 3001 
Q 1428 2844 1947 2747 
L 2328 2669 
Q 3034 2534 3370 2195 
Q 3706 1856 3706 1288 
Q 3706 609 3251 259 
Q 2797 -91 1919 -91 
Q 1588 -91 1214 -16 
Q 841 59 441 206 
L 441 856 
Q 825 641 1194 531 
Q 1563 422 1919 422 
Q 2459 422 2753 634 
Q 3047 847 3047 1241 
Q 3047 1584 2836 1778 
Q 2625 1972 2144 2069 
L 1759 2144 
Q 1053 2284 737 2584 
Q 422 2884 422 3419 
Q 422 4038 858 4394 
Q 1294 4750 2059 4750 
Q 2388 4750 2728 4690 
Q 3069 4631 3425 4513 
z
" transform="scale(0.015625)"/>
       <path id="DejaVuSans-54" d="M -19 4666 
L 3928 4666 
L 3928 4134 
L 2272 4134 
L 2272 0 
L 1638 0 
L 1638 4134 
L -19 4134 
L -19 4666 
z
" transform="scale(0.015625)"/>
       <path id="DejaVuSans-5b" d="M 550 4863 
L 1875 4863 
L 1875 4416 
L 1125 4416 
L 1125 -397 
L 1875 -397 
L 1875 -844 
L 550 -844 
L 550 4863 
z
" transform="scale(0.015625)"/>
       <path id="DejaVuSans-6d" d="M 3328 2828 
Q 3544 3216 3844 3400 
Q 4144 3584 4550 3584 
Q 5097 3584 5394 3201 
Q 5691 2819 5691 2113 
L 5691 0 
L 5113 0 
L 5113 2094 
Q 5113 2597 4934 2840 
Q 4756 3084 4391 3084 
Q 3944 3084 3684 2787 
Q 3425 2491 3425 1978 
L 3425 0 
L 2847 0 
L 2847 2094 
Q 2847 2600 2669 2842 
Q 2491 3084 2119 3084 
Q 1678 3084 1418 2786 
Q 1159 2488 1159 1978 
L 1159 0 
L 581 0 
L 581 3500 
L 1159 3500 
L 1159 2956 
Q 1356 3278 1631 3431 
Q 1906 3584 2284 3584 
Q 2666 3584 2933 3390 
Q 3200 3197 3328 2828 
z
" transform="scale(0.015625)"/>
       <path id="DejaVuSans-5d" d="M 1947 4863 
L 1947 -844 
L 622 -844 
L 622 -397 
L 1369 -397 
L 1369 4416 
L 622 4416 
L 622 4863 
L 1947 4863 
z
" transform="scale(0.015625)"/>
      </defs>
      <use xlink:href="#DejaVuSans-44"/>
      <use xlink:href="#DejaVuSans-69" x="77.001953"/>
      <use xlink:href="#DejaVuSans-73" x="104.785156"/>
      <use xlink:href="#DejaVuSans-74" x="156.884766"/>
      <use xlink:href="#DejaVuSans-61" x="196.09375"/>
      <use xlink:href="#DejaVuSans-6e" x="257.373047"/>
      <use xlink:href="#DejaVuSans-63" x="320.751953"/>
      <use xlink:href="#DejaVuSans-65" x="375.732422"/>
      <use xlink:href="#DejaVuSans-20" x="437.255859"/>
      <use xlink:href="#DejaVuSans-62" x="469.042969"/>
      <use xlink:href="#DejaVuSans-65" x="532.519531"/>
      <use xlink:href="#DejaVuSans-65" x="594.042969"/>
      <use xlink:href="#DejaVuSans-74" x="655.566406"/>
      <use xlink:href="#DejaVuSans-77" x="694.775391"/>
      <use xlink:href="#DejaVuSans-65" x="776.5625"/>
      <use xlink:href="#DejaVuSans-6e" x="838.085938"/>
      <use xlink:href="#DejaVuSans-20" x="901.464844"/>
      <use xlink:href="#DejaVuSans-41" x="933.251953"/>
      <use xlink:href="#DejaVuSans-50" x="1001.660156"/>
      <use xlink:href="#DejaVuSans-20" x="1061.962891"/>
      <use xlink:href="#DejaVuSans-61" x="1093.75"/>
      <use xlink:href="#DejaVuSans-6e" x="1155.029297"/>
      <use xlink:href="#DejaVuSans-64" x="1218.408203"/>
      <use xlink:href="#DejaVuSans-20" x="1281.884766"/>
      <use xlink:href="#DejaVuSans-53" x="1313.671875"/>
      <use xlink:href="#DejaVuSans-54" x="1377.148438"/>
      <use xlink:href="#DejaVuSans-41" x="1430.482422"/>
      <use xlink:href="#DejaVuSans-73" x="1498.890625"/>
      <use xlink:href="#DejaVuSans-20" x="1550.990234"/>
      <use xlink:href="#DejaVuSans-5b" x="1582.777344"/>
      <use xlink:href="#DejaVuSans-6d" x="1621.791016"/>
      <use xlink:href="#DejaVuSans-5d" x="1719.203125"/>
     </g>
    </g>
   </g>
   <g id="matplotlib.axis_2">
    <g id="ytick_1">
     <g id="line2d_9">
      <defs>
       <path id="m5907a13bf1" d="M 0 0 
L -3.5 0 
" style="stroke: #000000; stroke-width: 0.8"/>
      </defs>
      <g>
       <use xlink:href="#m5907a13bf1" x="43.78125" y="530.44" style="stroke: #000000; stroke-width: 0.8"/>
      </g>
     </g>
     <g id="text_10">
      <!-- 0.0 -->
      <g transform="translate(20.878125 534.239219) scale(0.1 -0.1)">
       <defs>
        <path id="DejaVuSans-30" d="M 2034 4250 
Q 1547 4250 1301 3770 
Q 1056 3291 1056 2328 
Q 1056 1369 1301 889 
Q 1547 409 2034 409 
Q 2525 409 2770 889 
Q 3016 1369 3016 2328 
Q 3016 3291 2770 3770 
Q 2525 4250 2034 4250 
z
M 2034 4750 
Q 2819 4750 3233 4129 
Q 3647 3509 3647 2328 
Q 3647 1150 3233 529 
Q 2819 -91 2034 -91 
Q 1250 -91 836 529 
Q 422 1150 422 2328 
Q 422 3509 836 4129 
Q 1250 4750 2034 4750 
z
" transform="scale(0.015625)"/>
        <path id="DejaVuSans-2e" d="M 684 794 
L 1344 794 
L 1344 0 
L 684 0 
L 684 794 
z
" transform="scale(0.015625)"/>
       </defs>
       <use xlink:href="#DejaVuSans-30"/>
       <use xlink:href="#DejaVuSans-2e" x="63.623047"/>
       <use xlink:href="#DejaVuSans-30" x="95.410156"/>
      </g>
     </g>
    </g>
    <g id="ytick_2">
     <g id="line2d_10">
      <g>
       <use xlink:href="#m5907a13bf1" x="43.78125" y="466.639036" style="stroke: #000000; stroke-width: 0.8"/>
      </g>
     </g>
     <g id="text_11">
      <!-- 0.2 -->
      <g transform="translate(20.878125 470.438255) scale(0.1 -0.1)">
       <use xlink:href="#DejaVuSans-30"/>
       <use xlink:href="#DejaVuSans-2e" x="63.623047"/>
       <use xlink:href="#DejaVuSans-32" x="95.410156"/>
      </g>
     </g>
    </g>
    <g id="ytick_3">
     <g id="line2d_11">
      <g>
       <use xlink:href="#m5907a13bf1" x="43.78125" y="402.838072" style="stroke: #000000; stroke-width: 0.8"/>
      </g>
     </g>
     <g id="text_12">
      <!-- 0.4 -->
      <g transform="translate(20.878125 406.637291) scale(0.1 -0.1)">
       <use xlink:href="#DejaVuSans-30"/>
       <use xlink:href="#DejaVuSans-2e" x="63.623047"/>
       <use xlink:href="#DejaVuSans-34" x="95.410156"/>
      </g>
     </g>
    </g>
    <g id="ytick_4">
     <g id="line2d_12">
      <g>
       <use xlink:href="#m5907a13bf1" x="43.78125" y="339.037108" style="stroke: #000000; stroke-width: 0.8"/>
      </g>
     </g>
     <g id="text_13">
      <!-- 0.6 -->
      <g transform="translate(20.878125 342.836327) scale(0.1 -0.1)">
       <use xlink:href="#DejaVuSans-30"/>
       <use xlink:href="#DejaVuSans-2e" x="63.623047"/>
       <use xlink:href="#DejaVuSans-36" x="95.410156"/>
      </g>
     </g>
    </g>
    <g id="ytick_5">
     <g id="line2d_13">
      <g>
       <use xlink:href="#m5907a13bf1" x="43.78125" y="275.236144" style="stroke: #000000; stroke-width: 0.8"/>
      </g>
     </g>
     <g id="text_14">
      <!-- 0.8 -->
      <g transform="translate(20.878125 279.035363) scale(0.1 -0.1)">
       <use xlink:href="#DejaVuSans-30"/>
       <use xlink:href="#DejaVuSans-2e" x="63.623047"/>
       <use xlink:href="#DejaVuSans-38" x="95.410156"/>
      </g>
     </g>
    </g>
    <g id="ytick_6">
     <g id="line2d_14">
      <g>
       <use xlink:href="#m5907a13bf1" x="43.78125" y="211.43518" style="stroke: #000000; stroke-width: 0.8"/>
      </g>
     </g>
     <g id="text_15">
      <!-- 1.0 -->
      <g transform="translate(20.878125 215.234399) scale(0.1 -0.1)">
       <use xlink:href="#DejaVuSans-31"/>
       <use xlink:href="#DejaVuSans-2e" x="63.623047"/>
       <use xlink:href="#DejaVuSans-30" x="95.410156"/>
      </g>
     </g>
    </g>
    <g id="ytick_7">
     <g id="line2d_15">
      <g>
       <use xlink:href="#m5907a13bf1" x="43.78125" y="147.634216" style="stroke: #000000; stroke-width: 0.8"/>
      </g>
     </g>
     <g id="text_16">
      <!-- 1.2 -->
      <g transform="translate(20.878125 151.433435) scale(0.1 -0.1)">
       <use xlink:href="#DejaVuSans-31"/>
       <use xlink:href="#DejaVuSans-2e" x="63.623047"/>
       <use xlink:href="#DejaVuSans-32" x="95.410156"/>
      </g>
     </g>
    </g>
    <g id="ytick_8">
     <g id="line2d_16">
      <g>
       <use xlink:href="#m5907a13bf1" x="43.78125" y="83.833252" style="stroke: #000000; stroke-width: 0.8"/>
      </g>
     </g>
     <g id="text_17">
      <!-- 1.4 -->
      <g transform="translate(20.878125 87.632471) scale(0.1 -0.1)">
       <use xlink:href="#DejaVuSans-31"/>
       <use xlink:href="#DejaVuSans-2e" x="63.623047"/>
       <use xlink:href="#DejaVuSans-34" x="95.410156"/>
      </g>
     </g>
    </g>
    <g id="ytick_9">
     <g id="line2d_17">
      <g>
       <use xlink:href="#m5907a13bf1" x="43.78125" y="20.032288" style="stroke: #000000; stroke-width: 0.8"/>
      </g>
     </g>
     <g id="text_18">
      <!-- 1.6 -->
      <g transform="translate(20.878125 23.831507) scale(0.1 -0.1)">
       <use xlink:href="#DejaVuSans-31"/>
       <use xlink:href="#DejaVuSans-2e" x="63.623047"/>
       <use xlink:href="#DejaVuSans-36" x="95.410156"/>
      </g>
     </g>
    </g>
    <g id="text_19">
     <!-- Throughput [Mbps] -->
     <g transform="translate(14.798438 316.617656) rotate(-90) scale(0.1 -0.1)">
      <defs>
       <path id="DejaVuSans-68" d="M 3513 2113 
L 3513 0 
L 2938 0 
L 2938 2094 
Q 2938 2591 2744 2837 
Q 2550 3084 2163 3084 
Q 1697 3084 1428 2787 
Q 1159 2491 1159 1978 
L 1159 0 
L 581 0 
L 581 4863 
L 1159 4863 
L 1159 2956 
Q 1366 3272 1645 3428 
Q 1925 3584 2291 3584 
Q 2894 3584 3203 3211 
Q 3513 2838 3513 2113 
z
" transform="scale(0.015625)"/>
       <path id="DejaVuSans-72" d="M 2631 2963 
Q 2534 3019 2420 3045 
Q 2306 3072 2169 3072 
Q 1681 3072 1420 2755 
Q 1159 2438 1159 1844 
L 1159 0 
L 581 0 
L 581 3500 
L 1159 3500 
L 1159 2956 
Q 1341 3275 1631 3429 
Q 1922 3584 2338 3584 
Q 2397 3584 2469 3576 
Q 2541 3569 2628 3553 
L 2631 2963 
z
" transform="scale(0.015625)"/>
       <path id="DejaVuSans-6f" d="M 1959 3097 
Q 1497 3097 1228 2736 
Q 959 2375 959 1747 
Q 959 1119 1226 758 
Q 1494 397 1959 397 
Q 2419 397 2687 759 
Q 2956 1122 2956 1747 
Q 2956 2369 2687 2733 
Q 2419 3097 1959 3097 
z
M 1959 3584 
Q 2709 3584 3137 3096 
Q 3566 2609 3566 1747 
Q 3566 888 3137 398 
Q 2709 -91 1959 -91 
Q 1206 -91 779 398 
Q 353 888 353 1747 
Q 353 2609 779 3096 
Q 1206 3584 1959 3584 
z
" transform="scale(0.015625)"/>
       <path id="DejaVuSans-75" d="M 544 1381 
L 544 3500 
L 1119 3500 
L 1119 1403 
Q 1119 906 1312 657 
Q 1506 409 1894 409 
Q 2359 409 2629 706 
Q 2900 1003 2900 1516 
L 2900 3500 
L 3475 3500 
L 3475 0 
L 2900 0 
L 2900 538 
Q 2691 219 2414 64 
Q 2138 -91 1772 -91 
Q 1169 -91 856 284 
Q 544 659 544 1381 
z
M 1991 3584 
L 1991 3584 
z
" transform="scale(0.015625)"/>
       <path id="DejaVuSans-67" d="M 2906 1791 
Q 2906 2416 2648 2759 
Q 2391 3103 1925 3103 
Q 1463 3103 1205 2759 
Q 947 2416 947 1791 
Q 947 1169 1205 825 
Q 1463 481 1925 481 
Q 2391 481 2648 825 
Q 2906 1169 2906 1791 
z
M 3481 434 
Q 3481 -459 3084 -895 
Q 2688 -1331 1869 -1331 
Q 1566 -1331 1297 -1286 
Q 1028 -1241 775 -1147 
L 775 -588 
Q 1028 -725 1275 -790 
Q 1522 -856 1778 -856 
Q 2344 -856 2625 -561 
Q 2906 -266 2906 331 
L 2906 616 
Q 2728 306 2450 153 
Q 2172 0 1784 0 
Q 1141 0 747 490 
Q 353 981 353 1791 
Q 353 2603 747 3093 
Q 1141 3584 1784 3584 
Q 2172 3584 2450 3431 
Q 2728 3278 2906 2969 
L 2906 3500 
L 3481 3500 
L 3481 434 
z
" transform="scale(0.015625)"/>
       <path id="DejaVuSans-70" d="M 1159 525 
L 1159 -1331 
L 581 -1331 
L 581 3500 
L 1159 3500 
L 1159 2969 
Q 1341 3281 1617 3432 
Q 1894 3584 2278 3584 
Q 2916 3584 3314 3078 
Q 3713 2572 3713 1747 
Q 3713 922 3314 415 
Q 2916 -91 2278 -91 
Q 1894 -91 1617 61 
Q 1341 213 1159 525 
z
M 3116 1747 
Q 3116 2381 2855 2742 
Q 2594 3103 2138 3103 
Q 1681 3103 1420 2742 
Q 1159 2381 1159 1747 
Q 1159 1113 1420 752 
Q 1681 391 2138 391 
Q 2594 391 2855 752 
Q 3116 1113 3116 1747 
z
" transform="scale(0.015625)"/>
       <path id="DejaVuSans-4d" d="M 628 4666 
L 1569 4666 
L 2759 1491 
L 3956 4666 
L 4897 4666 
L 4897 0 
L 4281 0 
L 4281 4097 
L 3078 897 
L 2444 897 
L 1241 4097 
L 1241 0 
L 628 0 
L 628 4666 
z
" transform="scale(0.015625)"/>
      </defs>
      <use xlink:href="#DejaVuSans-54"/>
      <use xlink:href="#DejaVuSans-68" x="61.083984"/>
      <use xlink:href="#DejaVuSans-72" x="124.462891"/>
      <use xlink:href="#DejaVuSans-6f" x="163.326172"/>
      <use xlink:href="#DejaVuSans-75" x="224.507812"/>
      <use xlink:href="#DejaVuSans-67" x="287.886719"/>
      <use xlink:href="#DejaVuSans-68" x="351.363281"/>
      <use xlink:href="#DejaVuSans-70" x="414.742188"/>
      <use xlink:href="#DejaVuSans-75" x="478.21875"/>
      <use xlink:href="#DejaVuSans-74" x="541.597656"/>
      <use xlink:href="#DejaVuSans-20" x="580.806641"/>
      <use xlink:href="#DejaVuSans-5b" x="612.59375"/>
      <use xlink:href="#DejaVuSans-4d" x="651.607422"/>
      <use xlink:href="#DejaVuSans-62" x="737.886719"/>
      <use xlink:href="#DejaVuSans-70" x="801.363281"/>
      <use xlink:href="#DejaVuSans-73" x="864.839844"/>
      <use xlink:href="#DejaVuSans-5d" x="916.939453"/>
     </g>
    </g>
   </g>
   <g id="line2d_18">
    <path d="M 58.827 67.238621 
L 58.827 64.740813 
" clip-path="url(#p957a09ec7c)" style="fill: none; stroke: #424242; stroke-width: 2.25; stroke-linecap: square"/>
   </g>
   <g id="line2d_19">
    <path d="M 134.05575 230.425537 
L 134.05575 229.725959 
" clip-path="url(#p957a09ec7c)" style="fill: none; stroke: #424242; stroke-width: 2.25; stroke-linecap: square"/>
   </g>
   <g id="line2d_20">
    <path d="M 209.2845 65.560656 
L 209.2845 62.402508 
" clip-path="url(#p957a09ec7c)" style="fill: none; stroke: #424242; stroke-width: 2.25; stroke-linecap: square"/>
   </g>
   <g id="line2d_21">
    <path d="M 284.51325 64.147464 
L 284.51325 61.786829 
" clip-path="url(#p957a09ec7c)" style="fill: none; stroke: #424242; stroke-width: 2.25; stroke-linecap: square"/>
   </g>
   <g id="line2d_22">
    <path d="M 359.742 61.589046 
L 359.742 57.087888 
" clip-path="url(#p957a09ec7c)" style="fill: none; stroke: #424242; stroke-width: 2.25; stroke-linecap: square"/>
   </g>
   <g id="line2d_23">
    <path d="M 434.97075 225.385899 
L 434.97075 224.270658 
" clip-path="url(#p957a09ec7c)" style="fill: none; stroke: #424242; stroke-width: 2.25; stroke-linecap: square"/>
   </g>
   <g id="line2d_24">
    <path d="M 510.1995 224.01673 
L 510.1995 223.635519 
" clip-path="url(#p957a09ec7c)" style="fill: none; stroke: #424242; stroke-width: 2.25; stroke-linecap: square"/>
   </g>
   <g id="line2d_25">
    <path d="M 585.42825 220.097756 
L 585.42825 218.33972 
" clip-path="url(#p957a09ec7c)" style="fill: none; stroke: #424242; stroke-width: 2.25; stroke-linecap: square"/>
   </g>
   <g id="line2d_26">
    <path d="M 73.87275 68.154165 
L 73.87275 61.432733 
" clip-path="url(#p957a09ec7c)" style="fill: none; stroke: #424242; stroke-width: 2.25; stroke-linecap: square"/>
   </g>
   <g id="line2d_27">
    <path d="M 149.1015 230.875334 
L 149.1015 228.941526 
" clip-path="url(#p957a09ec7c)" style="fill: none; stroke: #424242; stroke-width: 2.25; stroke-linecap: square"/>
   </g>
   <g id="line2d_28">
    <path d="M 224.33025 49.109577 
L 224.33025 47.032856 
" clip-path="url(#p957a09ec7c)" style="fill: none; stroke: #424242; stroke-width: 2.25; stroke-linecap: square"/>
   </g>
   <g id="line2d_29">
    <path d="M 299.559 46.809552 
L 299.559 46.223647 
" clip-path="url(#p957a09ec7c)" style="fill: none; stroke: #424242; stroke-width: 2.25; stroke-linecap: square"/>
   </g>
   <g id="line2d_30">
    <path d="M 374.78775 35.622053 
L 374.78775 32.11619 
" clip-path="url(#p957a09ec7c)" style="fill: none; stroke: #424242; stroke-width: 2.25; stroke-linecap: square"/>
   </g>
   <g id="line2d_31">
    <path d="M 450.0165 222.122479 
L 450.0165 220.369867 
" clip-path="url(#p957a09ec7c)" style="fill: none; stroke: #424242; stroke-width: 2.25; stroke-linecap: square"/>
   </g>
   <g id="line2d_32">
    <path d="M 525.24525 221.44268 
L 525.24525 220.068088 
" clip-path="url(#p957a09ec7c)" style="fill: none; stroke: #424242; stroke-width: 2.25; stroke-linecap: square"/>
   </g>
   <g id="line2d_33">
    <path d="M 600.474 216.403999 
L 600.474 214.479762 
" clip-path="url(#p957a09ec7c)" style="fill: none; stroke: #424242; stroke-width: 2.25; stroke-linecap: square"/>
   </g>
   <g id="line2d_34">
    <path d="M 88.9185 506.63736 
L 88.9185 506.563765 
" clip-path="url(#p957a09ec7c)" style="fill: none; stroke: #424242; stroke-width: 2.25; stroke-linecap: square"/>
   </g>
   <g id="line2d_35">
    <path d="M 164.14725 479.078629 
L 164.14725 478.399468 
" clip-path="url(#p957a09ec7c)" style="fill: none; stroke: #424242; stroke-width: 2.25; stroke-linecap: square"/>
   </g>
   <g id="line2d_36">
    <path d="M 239.376 479.38615 
L 239.376 478.826615 
" clip-path="url(#p957a09ec7c)" style="fill: none; stroke: #424242; stroke-width: 2.25; stroke-linecap: square"/>
   </g>
   <g id="line2d_37">
    <path d="M 314.60475 437.152463 
L 314.60475 436.647798 
" clip-path="url(#p957a09ec7c)" style="fill: none; stroke: #424242; stroke-width: 2.25; stroke-linecap: square"/>
   </g>
   <g id="line2d_38">
    <path d="M 389.8335 437.231896 
L 389.8335 436.336768 
" clip-path="url(#p957a09ec7c)" style="fill: none; stroke: #424242; stroke-width: 2.25; stroke-linecap: square"/>
   </g>
   <g id="line2d_39">
    <path d="M 465.06225 437.207332 
L 465.06225 436.651307 
" clip-path="url(#p957a09ec7c)" style="fill: none; stroke: #424242; stroke-width: 2.25; stroke-linecap: square"/>
   </g>
   <g id="line2d_40">
    <path d="M 540.291 465.709669 
L 540.291 465.695101 
" clip-path="url(#p957a09ec7c)" style="fill: none; stroke: #424242; stroke-width: 2.25; stroke-linecap: square"/>
   </g>
   <g id="line2d_41">
    <path d="M 615.51975 465.711051 
L 615.51975 465.700205 
" clip-path="url(#p957a09ec7c)" style="fill: none; stroke: #424242; stroke-width: 2.25; stroke-linecap: square"/>
   </g>
   <g id="line2d_42">
    <path d="M 103.96425 488.367411 
L 103.96425 487.936436 
" clip-path="url(#p957a09ec7c)" style="fill: none; stroke: #424242; stroke-width: 2.25; stroke-linecap: square"/>
   </g>
   <g id="line2d_43">
    <path d="M 179.193 378.237058 
L 179.193 377.509089 
" clip-path="url(#p957a09ec7c)" style="fill: none; stroke: #424242; stroke-width: 2.25; stroke-linecap: square"/>
   </g>
   <g id="line2d_44">
    <path d="M 254.42175 427.294257 
L 254.42175 426.782574 
" clip-path="url(#p957a09ec7c)" style="fill: none; stroke: #424242; stroke-width: 2.25; stroke-linecap: square"/>
   </g>
   <g id="line2d_45">
    <path d="M 329.6505 427.263633 
L 329.6505 426.709522 
" clip-path="url(#p957a09ec7c)" style="fill: none; stroke: #424242; stroke-width: 2.25; stroke-linecap: square"/>
   </g>
   <g id="line2d_46">
    <path d="M 404.87925 454.903168 
L 404.87925 454.781308 
" clip-path="url(#p957a09ec7c)" style="fill: none; stroke: #424242; stroke-width: 2.25; stroke-linecap: square"/>
   </g>
   <g id="line2d_47">
    <path d="M 480.108 456.295305 
L 480.108 456.247135 
" clip-path="url(#p957a09ec7c)" style="fill: none; stroke: #424242; stroke-width: 2.25; stroke-linecap: square"/>
   </g>
   <g id="line2d_48">
    <path d="M 555.33675 456.259576 
L 555.33675 456.219701 
" clip-path="url(#p957a09ec7c)" style="fill: none; stroke: #424242; stroke-width: 2.25; stroke-linecap: square"/>
   </g>
   <g id="line2d_49">
    <path d="M 630.5655 474.850539 
L 630.5655 474.819596 
" clip-path="url(#p957a09ec7c)" style="fill: none; stroke: #424242; stroke-width: 2.25; stroke-linecap: square"/>
   </g>
   <g id="patch_39">
    <path d="M 43.78125 530.44 
L 43.78125 7.2 
" style="fill: none; stroke: #000000; stroke-width: 0.8; stroke-linejoin: miter; stroke-linecap: square"/>
   </g>
   <g id="patch_40">
    <path d="M 645.61125 530.44 
L 645.61125 7.2 
" style="fill: none; stroke: #000000; stroke-width: 0.8; stroke-linejoin: miter; stroke-linecap: square"/>
   </g>
   <g id="patch_41">
    <path d="M 43.78125 530.44 
L 645.61125 530.44 
" style="fill: none; stroke: #000000; stroke-width: 0.8; stroke-linejoin: miter; stroke-linecap: square"/>
   </g>
   <g id="patch_42">
    <path d="M 43.78125 7.2 
L 645.61125 7.2 
" style="fill: none; stroke: #000000; stroke-width: 0.8; stroke-linejoin: miter; stroke-linecap: square"/>
   </g>
   <g id="legend_1">
    <g id="patch_43">
     <path d="M 476.887813 88.590625 
L 638.61125 88.590625 
Q 640.61125 88.590625 640.61125 86.590625 
L 640.61125 14.2 
Q 640.61125 12.2 638.61125 12.2 
L 476.887813 12.2 
Q 474.887813 12.2 474.887813 14.2 
L 474.887813 86.590625 
Q 474.887813 88.590625 476.887813 88.590625 
z
" style="fill: #ffffff; opacity: 0.8; stroke: #cccccc; stroke-linejoin: miter"/>
    </g>
    <g id="text_20">
     <!-- Firts BSS devices configuration: -->
     <g transform="translate(478.887813 23.798437) scale(0.1 -0.1)">
      <defs>
       <path id="DejaVuSans-46" d="M 628 4666 
L 3309 4666 
L 3309 4134 
L 1259 4134 
L 1259 2759 
L 3109 2759 
L 3109 2228 
L 1259 2228 
L 1259 0 
L 628 0 
L 628 4666 
z
" transform="scale(0.015625)"/>
       <path id="DejaVuSans-42" d="M 1259 2228 
L 1259 519 
L 2272 519 
Q 2781 519 3026 730 
Q 3272 941 3272 1375 
Q 3272 1813 3026 2020 
Q 2781 2228 2272 2228 
L 1259 2228 
z
M 1259 4147 
L 1259 2741 
L 2194 2741 
Q 2656 2741 2882 2914 
Q 3109 3088 3109 3444 
Q 3109 3797 2882 3972 
Q 2656 4147 2194 4147 
L 1259 4147 
z
M 628 4666 
L 2241 4666 
Q 2963 4666 3353 4366 
Q 3744 4066 3744 3513 
Q 3744 3084 3544 2831 
Q 3344 2578 2956 2516 
Q 3422 2416 3680 2098 
Q 3938 1781 3938 1306 
Q 3938 681 3513 340 
Q 3088 0 2303 0 
L 628 0 
L 628 4666 
z
" transform="scale(0.015625)"/>
       <path id="DejaVuSans-76" d="M 191 3500 
L 800 3500 
L 1894 563 
L 2988 3500 
L 3597 3500 
L 2284 0 
L 1503 0 
L 191 3500 
z
" transform="scale(0.015625)"/>
       <path id="DejaVuSans-66" d="M 2375 4863 
L 2375 4384 
L 1825 4384 
Q 1516 4384 1395 4259 
Q 1275 4134 1275 3809 
L 1275 3500 
L 2222 3500 
L 2222 3053 
L 1275 3053 
L 1275 0 
L 697 0 
L 697 3053 
L 147 3053 
L 147 3500 
L 697 3500 
L 697 3744 
Q 697 4328 969 4595 
Q 1241 4863 1831 4863 
L 2375 4863 
z
" transform="scale(0.015625)"/>
       <path id="DejaVuSans-3a" d="M 750 794 
L 1409 794 
L 1409 0 
L 750 0 
L 750 794 
z
M 750 3309 
L 1409 3309 
L 1409 2516 
L 750 2516 
L 750 3309 
z
" transform="scale(0.015625)"/>
      </defs>
      <use xlink:href="#DejaVuSans-46"/>
      <use xlink:href="#DejaVuSans-69" x="50.269531"/>
      <use xlink:href="#DejaVuSans-72" x="78.052734"/>
      <use xlink:href="#DejaVuSans-74" x="119.166016"/>
      <use xlink:href="#DejaVuSans-73" x="158.375"/>
      <use xlink:href="#DejaVuSans-20" x="210.474609"/>
      <use xlink:href="#DejaVuSans-42" x="242.261719"/>
      <use xlink:href="#DejaVuSans-53" x="309.115234"/>
      <use xlink:href="#DejaVuSans-53" x="372.591797"/>
      <use xlink:href="#DejaVuSans-20" x="436.068359"/>
      <use xlink:href="#DejaVuSans-64" x="467.855469"/>
      <use xlink:href="#DejaVuSans-65" x="531.332031"/>
      <use xlink:href="#DejaVuSans-76" x="592.855469"/>
      <use xlink:href="#DejaVuSans-69" x="652.035156"/>
      <use xlink:href="#DejaVuSans-63" x="679.818359"/>
      <use xlink:href="#DejaVuSans-65" x="734.798828"/>
      <use xlink:href="#DejaVuSans-73" x="796.322266"/>
      <use xlink:href="#DejaVuSans-20" x="848.421875"/>
      <use xlink:href="#DejaVuSans-63" x="880.208984"/>
      <use xlink:href="#DejaVuSans-6f" x="935.189453"/>
      <use xlink:href="#DejaVuSans-6e" x="996.371094"/>
      <use xlink:href="#DejaVuSans-66" x="1059.75"/>
      <use xlink:href="#DejaVuSans-69" x="1094.955078"/>
      <use xlink:href="#DejaVuSans-67" x="1122.738281"/>
      <use xlink:href="#DejaVuSans-75" x="1186.214844"/>
      <use xlink:href="#DejaVuSans-72" x="1249.59375"/>
      <use xlink:href="#DejaVuSans-61" x="1290.707031"/>
      <use xlink:href="#DejaVuSans-74" x="1351.986328"/>
      <use xlink:href="#DejaVuSans-69" x="1391.195312"/>
      <use xlink:href="#DejaVuSans-6f" x="1418.978516"/>
      <use xlink:href="#DejaVuSans-6e" x="1480.160156"/>
      <use xlink:href="#DejaVuSans-3a" x="1543.539062"/>
     </g>
    </g>
    <g id="patch_44">
     <path d="M 539.899531 38.476562 
L 559.899531 38.476562 
L 559.899531 31.476562 
L 539.899531 31.476562 
z
" style="fill: #0c3b50"/>
    </g>
    <g id="text_21">
     <!-- A -->
     <g transform="translate(567.899531 38.476562) scale(0.1 -0.1)">
      <use xlink:href="#DejaVuSans-41"/>
     </g>
    </g>
    <g id="patch_45">
     <path d="M 539.899531 53.154688 
L 559.899531 53.154688 
L 559.899531 46.154688 
L 539.899531 46.154688 
z
" style="fill: #785a8c"/>
    </g>
    <g id="text_22">
     <!-- B -->
     <g transform="translate(567.899531 53.154688) scale(0.1 -0.1)">
      <use xlink:href="#DejaVuSans-42"/>
     </g>
    </g>
    <g id="patch_46">
     <path d="M 539.899531 67.832812 
L 559.899531 67.832812 
L 559.899531 60.832812 
L 539.899531 60.832812 
z
" style="fill: #dc6980"/>
    </g>
    <g id="text_23">
     <!-- C -->
     <g transform="translate(567.899531 67.832812) scale(0.1 -0.1)">
      <defs>
       <path id="DejaVuSans-43" d="M 4122 4306 
L 4122 3641 
Q 3803 3938 3442 4084 
Q 3081 4231 2675 4231 
Q 1875 4231 1450 3742 
Q 1025 3253 1025 2328 
Q 1025 1406 1450 917 
Q 1875 428 2675 428 
Q 3081 428 3442 575 
Q 3803 722 4122 1019 
L 4122 359 
Q 3791 134 3420 21 
Q 3050 -91 2638 -91 
Q 1578 -91 968 557 
Q 359 1206 359 2328 
Q 359 3453 968 4101 
Q 1578 4750 2638 4750 
Q 3056 4750 3426 4639 
Q 3797 4528 4122 4306 
z
" transform="scale(0.015625)"/>
      </defs>
      <use xlink:href="#DejaVuSans-43"/>
     </g>
    </g>
    <g id="patch_47">
     <path d="M 539.899531 82.510938 
L 559.899531 82.510938 
L 559.899531 75.510938 
L 539.899531 75.510938 
z
" style="fill: #df9c20"/>
    </g>
    <g id="text_24">
     <!-- D -->
     <g transform="translate(567.899531 82.510938) scale(0.1 -0.1)">
      <use xlink:href="#DejaVuSans-44"/>
     </g>
    </g>
   </g>
  </g>
  <g id="axes_2">
   <g id="patch_48">
    <path d="M 679.34125 530.44 
L 1281.17125 530.44 
L 1281.17125 7.2 
L 679.34125 7.2 
z
" style="fill: #ffffff"/>
   </g>
   <g id="patch_49">
    <path d="M 686.864125 530.44 
L 701.909875 530.44 
L 701.909875 71.065616 
L 686.864125 71.065616 
z
" clip-path="url(#p572b9109a4)" style="fill: #0c3b50"/>
   </g>
   <g id="patch_50">
    <path d="M 762.092875 530.44 
L 777.138625 530.44 
L 777.138625 237.776046 
L 762.092875 237.776046 
z
" clip-path="url(#p572b9109a4)" style="fill: #0c3b50"/>
   </g>
   <g id="patch_51">
    <path d="M 837.321625 530.44 
L 852.367375 530.44 
L 852.367375 66.420905 
L 837.321625 66.420905 
z
" clip-path="url(#p572b9109a4)" style="fill: #0c3b50"/>
   </g>
   <g id="patch_52">
    <path d="M 912.550375 530.44 
L 927.596125 530.44 
L 927.596125 67.032331 
L 912.550375 67.032331 
z
" clip-path="url(#p572b9109a4)" style="fill: #0c3b50"/>
   </g>
   <g id="patch_53">
    <path d="M 987.779125 530.44 
L 1002.824875 530.44 
L 1002.824875 65.764819 
L 987.779125 65.764819 
z
" clip-path="url(#p572b9109a4)" style="fill: #0c3b50"/>
   </g>
   <g id="patch_54">
    <path d="M 1063.007875 530.44 
L 1078.053625 530.44 
L 1078.053625 230.459245 
L 1063.007875 230.459245 
z
" clip-path="url(#p572b9109a4)" style="fill: #0c3b50"/>
   </g>
   <g id="patch_55">
    <path d="M 1138.236625 530.44 
L 1153.282375 530.44 
L 1153.282375 229.875041 
L 1138.236625 229.875041 
z
" clip-path="url(#p572b9109a4)" style="fill: #0c3b50"/>
   </g>
   <g id="patch_56">
    <path d="M 1213.465375 530.44 
L 1228.511125 530.44 
L 1228.511125 225.316462 
L 1213.465375 225.316462 
z
" clip-path="url(#p572b9109a4)" style="fill: #0c3b50"/>
   </g>
   <g id="patch_57">
    <path d="M 701.909875 530.44 
L 716.955625 530.44 
L 716.955625 68.358328 
L 701.909875 68.358328 
z
" clip-path="url(#p572b9109a4)" style="fill: #785a8c"/>
   </g>
   <g id="patch_58">
    <path d="M 777.138625 530.44 
L 792.184375 530.44 
L 792.184375 238.35706 
L 777.138625 238.35706 
z
" clip-path="url(#p572b9109a4)" style="fill: #785a8c"/>
   </g>
   <g id="patch_59">
    <path d="M 852.367375 530.44 
L 867.413125 530.44 
L 867.413125 53.168382 
L 852.367375 53.168382 
z
" clip-path="url(#p572b9109a4)" style="fill: #785a8c"/>
   </g>
   <g id="patch_60">
    <path d="M 927.596125 530.44 
L 942.641875 530.44 
L 942.641875 52.757929 
L 927.596125 52.757929 
z
" clip-path="url(#p572b9109a4)" style="fill: #785a8c"/>
   </g>
   <g id="patch_61">
    <path d="M 1002.824875 530.44 
L 1017.870625 530.44 
L 1017.870625 42.403033 
L 1002.824875 42.403033 
z
" clip-path="url(#p572b9109a4)" style="fill: #785a8c"/>
   </g>
   <g id="patch_62">
    <path d="M 1078.053625 530.44 
L 1093.099375 530.44 
L 1093.099375 226.568343 
L 1078.053625 226.568343 
z
" clip-path="url(#p572b9109a4)" style="fill: #785a8c"/>
   </g>
   <g id="patch_63">
    <path d="M 1153.282375 530.44 
L 1168.328125 530.44 
L 1168.328125 226.601413 
L 1153.282375 226.601413 
z
" clip-path="url(#p572b9109a4)" style="fill: #785a8c"/>
   </g>
   <g id="patch_64">
    <path d="M 1228.511125 530.44 
L 1243.556875 530.44 
L 1243.556875 220.642297 
L 1228.511125 220.642297 
z
" clip-path="url(#p572b9109a4)" style="fill: #785a8c"/>
   </g>
   <g id="patch_65">
    <path d="M 716.955625 530.44 
L 732.001375 530.44 
L 732.001375 512.154452 
L 716.955625 512.154452 
z
" clip-path="url(#p572b9109a4)" style="fill: #dc6980"/>
   </g>
   <g id="patch_66">
    <path d="M 792.184375 530.44 
L 807.230125 530.44 
L 807.230125 519.49907 
L 792.184375 519.49907 
z
" clip-path="url(#p572b9109a4)" style="fill: #dc6980"/>
   </g>
   <g id="patch_67">
    <path d="M 867.413125 530.44 
L 882.458875 530.44 
L 882.458875 519.48026 
L 867.413125 519.48026 
z
" clip-path="url(#p572b9109a4)" style="fill: #dc6980"/>
   </g>
   <g id="patch_68">
    <path d="M 942.641875 530.44 
L 957.687625 530.44 
L 957.687625 523.209501 
L 942.641875 523.209501 
z
" clip-path="url(#p572b9109a4)" style="fill: #dc6980"/>
   </g>
   <g id="patch_69">
    <path d="M 1017.870625 530.44 
L 1032.916375 530.44 
L 1032.916375 523.264412 
L 1017.870625 523.264412 
z
" clip-path="url(#p572b9109a4)" style="fill: #dc6980"/>
   </g>
   <g id="patch_70">
    <path d="M 1093.099375 530.44 
L 1108.145125 530.44 
L 1108.145125 523.148007 
L 1093.099375 523.148007 
z
" clip-path="url(#p572b9109a4)" style="fill: #dc6980"/>
   </g>
   <g id="patch_71">
    <path d="M 1168.328125 530.44 
L 1183.373875 530.44 
L 1183.373875 524.686216 
L 1168.328125 524.686216 
z
" clip-path="url(#p572b9109a4)" style="fill: #dc6980"/>
   </g>
   <g id="patch_72">
    <path d="M 1243.556875 530.44 
L 1258.602625 530.44 
L 1258.602625 524.670096 
L 1243.556875 524.670096 
z
" clip-path="url(#p572b9109a4)" style="fill: #dc6980"/>
   </g>
   <g id="patch_73">
    <path d="M 732.001375 530.44 
L 747.047125 530.44 
L 747.047125 487.9459 
L 732.001375 487.9459 
z
" clip-path="url(#p572b9109a4)" style="fill: #df9c20"/>
   </g>
   <g id="patch_74">
    <path d="M 807.230125 530.44 
L 822.275875 530.44 
L 822.275875 377.368727 
L 807.230125 377.368727 
z
" clip-path="url(#p572b9109a4)" style="fill: #df9c20"/>
   </g>
   <g id="patch_75">
    <path d="M 882.458875 530.44 
L 897.504625 530.44 
L 897.504625 426.97068 
L 882.458875 426.97068 
z
" clip-path="url(#p572b9109a4)" style="fill: #df9c20"/>
   </g>
   <g id="patch_76">
    <path d="M 957.687625 530.44 
L 972.733375 530.44 
L 972.733375 426.841909 
L 957.687625 426.841909 
z
" clip-path="url(#p572b9109a4)" style="fill: #df9c20"/>
   </g>
   <g id="patch_77">
    <path d="M 1032.916375 530.44 
L 1047.962125 530.44 
L 1047.962125 455.073835 
L 1032.916375 455.073835 
z
" clip-path="url(#p572b9109a4)" style="fill: #df9c20"/>
   </g>
   <g id="patch_78">
    <path d="M 1108.145125 530.44 
L 1123.190875 530.44 
L 1123.190875 455.554895 
L 1108.145125 455.554895 
z
" clip-path="url(#p572b9109a4)" style="fill: #df9c20"/>
   </g>
   <g id="patch_79">
    <path d="M 1183.373875 530.44 
L 1198.419625 530.44 
L 1198.419625 455.548727 
L 1183.373875 455.548727 
z
" clip-path="url(#p572b9109a4)" style="fill: #df9c20"/>
   </g>
   <g id="patch_80">
    <path d="M 1258.602625 530.44 
L 1273.648375 530.44 
L 1273.648375 474.227523 
L 1258.602625 474.227523 
z
" clip-path="url(#p572b9109a4)" style="fill: #df9c20"/>
   </g>
   <g id="patch_81">
    <path d="M 716.955625 530.44 
L 716.955625 530.44 
L 716.955625 530.44 
L 716.955625 530.44 
z
" clip-path="url(#p572b9109a4)" style="fill: #0c3b50"/>
   </g>
   <g id="patch_82">
    <path d="M 716.955625 530.44 
L 716.955625 530.44 
L 716.955625 530.44 
L 716.955625 530.44 
z
" clip-path="url(#p572b9109a4)" style="fill: #785a8c"/>
   </g>
   <g id="patch_83">
    <path d="M 716.955625 530.44 
L 716.955625 530.44 
L 716.955625 530.44 
L 716.955625 530.44 
z
" clip-path="url(#p572b9109a4)" style="fill: #dc6980"/>
   </g>
   <g id="patch_84">
    <path d="M 716.955625 530.44 
L 716.955625 530.44 
L 716.955625 530.44 
L 716.955625 530.44 
z
" clip-path="url(#p572b9109a4)" style="fill: #df9c20"/>
   </g>
   <g id="matplotlib.axis_3">
    <g id="xtick_9">
     <g id="line2d_50">
      <g>
       <use xlink:href="#mcc49ee438a" x="716.955625" y="530.44" style="stroke: #000000; stroke-width: 0.8"/>
      </g>
     </g>
     <g id="text_25">
      <!-- 1 -->
      <g transform="translate(713.774375 545.038437) scale(0.1 -0.1)">
       <use xlink:href="#DejaVuSans-31"/>
      </g>
     </g>
    </g>
    <g id="xtick_10">
     <g id="line2d_51">
      <g>
       <use xlink:href="#mcc49ee438a" x="792.184375" y="530.44" style="stroke: #000000; stroke-width: 0.8"/>
      </g>
     </g>
     <g id="text_26">
      <!-- 2 -->
      <g transform="translate(789.003125 545.038437) scale(0.1 -0.1)">
       <use xlink:href="#DejaVuSans-32"/>
      </g>
     </g>
    </g>
    <g id="xtick_11">
     <g id="line2d_52">
      <g>
       <use xlink:href="#mcc49ee438a" x="867.413125" y="530.44" style="stroke: #000000; stroke-width: 0.8"/>
      </g>
     </g>
     <g id="text_27">
      <!-- 3 -->
      <g transform="translate(864.231875 545.038437) scale(0.1 -0.1)">
       <use xlink:href="#DejaVuSans-33"/>
      </g>
     </g>
    </g>
    <g id="xtick_12">
     <g id="line2d_53">
      <g>
       <use xlink:href="#mcc49ee438a" x="942.641875" y="530.44" style="stroke: #000000; stroke-width: 0.8"/>
      </g>
     </g>
     <g id="text_28">
      <!-- 4 -->
      <g transform="translate(939.460625 545.038437) scale(0.1 -0.1)">
       <use xlink:href="#DejaVuSans-34"/>
      </g>
     </g>
    </g>
    <g id="xtick_13">
     <g id="line2d_54">
      <g>
       <use xlink:href="#mcc49ee438a" x="1017.870625" y="530.44" style="stroke: #000000; stroke-width: 0.8"/>
      </g>
     </g>
     <g id="text_29">
      <!-- 5 -->
      <g transform="translate(1014.689375 545.038437) scale(0.1 -0.1)">
       <use xlink:href="#DejaVuSans-35"/>
      </g>
     </g>
    </g>
    <g id="xtick_14">
     <g id="line2d_55">
      <g>
       <use xlink:href="#mcc49ee438a" x="1093.099375" y="530.44" style="stroke: #000000; stroke-width: 0.8"/>
      </g>
     </g>
     <g id="text_30">
      <!-- 6 -->
      <g transform="translate(1089.918125 545.038437) scale(0.1 -0.1)">
       <use xlink:href="#DejaVuSans-36"/>
      </g>
     </g>
    </g>
    <g id="xtick_15">
     <g id="line2d_56">
      <g>
       <use xlink:href="#mcc49ee438a" x="1168.328125" y="530.44" style="stroke: #000000; stroke-width: 0.8"/>
      </g>
     </g>
     <g id="text_31">
      <!-- 7 -->
      <g transform="translate(1165.146875 545.038437) scale(0.1 -0.1)">
       <use xlink:href="#DejaVuSans-37"/>
      </g>
     </g>
    </g>
    <g id="xtick_16">
     <g id="line2d_57">
      <g>
       <use xlink:href="#mcc49ee438a" x="1243.556875" y="530.44" style="stroke: #000000; stroke-width: 0.8"/>
      </g>
     </g>
     <g id="text_32">
      <!-- 8 -->
      <g transform="translate(1240.375625 545.038437) scale(0.1 -0.1)">
       <use xlink:href="#DejaVuSans-38"/>
      </g>
     </g>
    </g>
    <g id="text_33">
     <!-- Distance beetwen AP and STAs [m] -->
     <g transform="translate(892.346875 558.716562) scale(0.1 -0.1)">
      <use xlink:href="#DejaVuSans-44"/>
      <use xlink:href="#DejaVuSans-69" x="77.001953"/>
      <use xlink:href="#DejaVuSans-73" x="104.785156"/>
      <use xlink:href="#DejaVuSans-74" x="156.884766"/>
      <use xlink:href="#DejaVuSans-61" x="196.09375"/>
      <use xlink:href="#DejaVuSans-6e" x="257.373047"/>
      <use xlink:href="#DejaVuSans-63" x="320.751953"/>
      <use xlink:href="#DejaVuSans-65" x="375.732422"/>
      <use xlink:href="#DejaVuSans-20" x="437.255859"/>
      <use xlink:href="#DejaVuSans-62" x="469.042969"/>
      <use xlink:href="#DejaVuSans-65" x="532.519531"/>
      <use xlink:href="#DejaVuSans-65" x="594.042969"/>
      <use xlink:href="#DejaVuSans-74" x="655.566406"/>
      <use xlink:href="#DejaVuSans-77" x="694.775391"/>
      <use xlink:href="#DejaVuSans-65" x="776.5625"/>
      <use xlink:href="#DejaVuSans-6e" x="838.085938"/>
      <use xlink:href="#DejaVuSans-20" x="901.464844"/>
      <use xlink:href="#DejaVuSans-41" x="933.251953"/>
      <use xlink:href="#DejaVuSans-50" x="1001.660156"/>
      <use xlink:href="#DejaVuSans-20" x="1061.962891"/>
      <use xlink:href="#DejaVuSans-61" x="1093.75"/>
      <use xlink:href="#DejaVuSans-6e" x="1155.029297"/>
      <use xlink:href="#DejaVuSans-64" x="1218.408203"/>
      <use xlink:href="#DejaVuSans-20" x="1281.884766"/>
      <use xlink:href="#DejaVuSans-53" x="1313.671875"/>
      <use xlink:href="#DejaVuSans-54" x="1377.148438"/>
      <use xlink:href="#DejaVuSans-41" x="1430.482422"/>
      <use xlink:href="#DejaVuSans-73" x="1498.890625"/>
      <use xlink:href="#DejaVuSans-20" x="1550.990234"/>
      <use xlink:href="#DejaVuSans-5b" x="1582.777344"/>
      <use xlink:href="#DejaVuSans-6d" x="1621.791016"/>
      <use xlink:href="#DejaVuSans-5d" x="1719.203125"/>
     </g>
    </g>
   </g>
   <g id="matplotlib.axis_4">
    <g id="ytick_10">
     <g id="line2d_58">
      <g>
       <use xlink:href="#m5907a13bf1" x="679.34125" y="530.44" style="stroke: #000000; stroke-width: 0.8"/>
      </g>
     </g>
     <g id="text_34">
      <!-- 0.0 -->
      <g transform="translate(656.438125 534.239219) scale(0.1 -0.1)">
       <use xlink:href="#DejaVuSans-30"/>
       <use xlink:href="#DejaVuSans-2e" x="63.623047"/>
       <use xlink:href="#DejaVuSans-30" x="95.410156"/>
      </g>
     </g>
    </g>
    <g id="ytick_11">
     <g id="line2d_59">
      <g>
       <use xlink:href="#m5907a13bf1" x="679.34125" y="466.639036" style="stroke: #000000; stroke-width: 0.8"/>
      </g>
     </g>
     <g id="text_35">
      <!-- 0.2 -->
      <g transform="translate(656.438125 470.438255) scale(0.1 -0.1)">
       <use xlink:href="#DejaVuSans-30"/>
       <use xlink:href="#DejaVuSans-2e" x="63.623047"/>
       <use xlink:href="#DejaVuSans-32" x="95.410156"/>
      </g>
     </g>
    </g>
    <g id="ytick_12">
     <g id="line2d_60">
      <g>
       <use xlink:href="#m5907a13bf1" x="679.34125" y="402.838072" style="stroke: #000000; stroke-width: 0.8"/>
      </g>
     </g>
     <g id="text_36">
      <!-- 0.4 -->
      <g transform="translate(656.438125 406.637291) scale(0.1 -0.1)">
       <use xlink:href="#DejaVuSans-30"/>
       <use xlink:href="#DejaVuSans-2e" x="63.623047"/>
       <use xlink:href="#DejaVuSans-34" x="95.410156"/>
      </g>
     </g>
    </g>
    <g id="ytick_13">
     <g id="line2d_61">
      <g>
       <use xlink:href="#m5907a13bf1" x="679.34125" y="339.037108" style="stroke: #000000; stroke-width: 0.8"/>
      </g>
     </g>
     <g id="text_37">
      <!-- 0.6 -->
      <g transform="translate(656.438125 342.836327) scale(0.1 -0.1)">
       <use xlink:href="#DejaVuSans-30"/>
       <use xlink:href="#DejaVuSans-2e" x="63.623047"/>
       <use xlink:href="#DejaVuSans-36" x="95.410156"/>
      </g>
     </g>
    </g>
    <g id="ytick_14">
     <g id="line2d_62">
      <g>
       <use xlink:href="#m5907a13bf1" x="679.34125" y="275.236144" style="stroke: #000000; stroke-width: 0.8"/>
      </g>
     </g>
     <g id="text_38">
      <!-- 0.8 -->
      <g transform="translate(656.438125 279.035363) scale(0.1 -0.1)">
       <use xlink:href="#DejaVuSans-30"/>
       <use xlink:href="#DejaVuSans-2e" x="63.623047"/>
       <use xlink:href="#DejaVuSans-38" x="95.410156"/>
      </g>
     </g>
    </g>
    <g id="ytick_15">
     <g id="line2d_63">
      <g>
       <use xlink:href="#m5907a13bf1" x="679.34125" y="211.43518" style="stroke: #000000; stroke-width: 0.8"/>
      </g>
     </g>
     <g id="text_39">
      <!-- 1.0 -->
      <g transform="translate(656.438125 215.234399) scale(0.1 -0.1)">
       <use xlink:href="#DejaVuSans-31"/>
       <use xlink:href="#DejaVuSans-2e" x="63.623047"/>
       <use xlink:href="#DejaVuSans-30" x="95.410156"/>
      </g>
     </g>
    </g>
    <g id="ytick_16">
     <g id="line2d_64">
      <g>
       <use xlink:href="#m5907a13bf1" x="679.34125" y="147.634216" style="stroke: #000000; stroke-width: 0.8"/>
      </g>
     </g>
     <g id="text_40">
      <!-- 1.2 -->
      <g transform="translate(656.438125 151.433435) scale(0.1 -0.1)">
       <use xlink:href="#DejaVuSans-31"/>
       <use xlink:href="#DejaVuSans-2e" x="63.623047"/>
       <use xlink:href="#DejaVuSans-32" x="95.410156"/>
      </g>
     </g>
    </g>
    <g id="ytick_17">
     <g id="line2d_65">
      <g>
       <use xlink:href="#m5907a13bf1" x="679.34125" y="83.833252" style="stroke: #000000; stroke-width: 0.8"/>
      </g>
     </g>
     <g id="text_41">
      <!-- 1.4 -->
      <g transform="translate(656.438125 87.632471) scale(0.1 -0.1)">
       <use xlink:href="#DejaVuSans-31"/>
       <use xlink:href="#DejaVuSans-2e" x="63.623047"/>
       <use xlink:href="#DejaVuSans-34" x="95.410156"/>
      </g>
     </g>
    </g>
    <g id="ytick_18">
     <g id="line2d_66">
      <g>
       <use xlink:href="#m5907a13bf1" x="679.34125" y="20.032288" style="stroke: #000000; stroke-width: 0.8"/>
      </g>
     </g>
     <g id="text_42">
      <!-- 1.6 -->
      <g transform="translate(656.438125 23.831507) scale(0.1 -0.1)">
       <use xlink:href="#DejaVuSans-31"/>
       <use xlink:href="#DejaVuSans-2e" x="63.623047"/>
       <use xlink:href="#DejaVuSans-36" x="95.410156"/>
      </g>
     </g>
    </g>
   </g>
   <g id="line2d_67">
    <path d="M 694.387 72.42564 
L 694.387 70.080954 
" clip-path="url(#p572b9109a4)" style="fill: none; stroke: #424242; stroke-width: 2.25; stroke-linecap: square"/>
   </g>
   <g id="line2d_68">
    <path d="M 769.61575 238.03125 
L 769.61575 237.494046 
" clip-path="url(#p572b9109a4)" style="fill: none; stroke: #424242; stroke-width: 2.25; stroke-linecap: square"/>
   </g>
   <g id="line2d_69">
    <path d="M 844.8445 67.141404 
L 844.8445 65.273551 
" clip-path="url(#p572b9109a4)" style="fill: none; stroke: #424242; stroke-width: 2.25; stroke-linecap: square"/>
   </g>
   <g id="line2d_70">
    <path d="M 920.07325 67.742649 
L 920.07325 65.876471 
" clip-path="url(#p572b9109a4)" style="fill: none; stroke: #424242; stroke-width: 2.25; stroke-linecap: square"/>
   </g>
   <g id="line2d_71">
    <path d="M 995.302 66.220996 
L 995.302 64.935406 
" clip-path="url(#p572b9109a4)" style="fill: none; stroke: #424242; stroke-width: 2.25; stroke-linecap: square"/>
   </g>
   <g id="line2d_72">
    <path d="M 1070.53075 230.53368 
L 1070.53075 230.361417 
" clip-path="url(#p572b9109a4)" style="fill: none; stroke: #424242; stroke-width: 2.25; stroke-linecap: square"/>
   </g>
   <g id="line2d_73">
    <path d="M 1145.7595 230.555053 
L 1145.7595 229.464694 
" clip-path="url(#p572b9109a4)" style="fill: none; stroke: #424242; stroke-width: 2.25; stroke-linecap: square"/>
   </g>
   <g id="line2d_74">
    <path d="M 1220.98825 225.951494 
L 1220.98825 224.742466 
" clip-path="url(#p572b9109a4)" style="fill: none; stroke: #424242; stroke-width: 2.25; stroke-linecap: square"/>
   </g>
   <g id="line2d_75">
    <path d="M 709.43275 71.344213 
L 709.43275 65.072578 
" clip-path="url(#p572b9109a4)" style="fill: none; stroke: #424242; stroke-width: 2.25; stroke-linecap: square"/>
   </g>
   <g id="line2d_76">
    <path d="M 784.6615 238.641506 
L 784.6615 237.806032 
" clip-path="url(#p572b9109a4)" style="fill: none; stroke: #424242; stroke-width: 2.25; stroke-linecap: square"/>
   </g>
   <g id="line2d_77">
    <path d="M 859.89025 53.438473 
L 859.89025 52.730282 
" clip-path="url(#p572b9109a4)" style="fill: none; stroke: #424242; stroke-width: 2.25; stroke-linecap: square"/>
   </g>
   <g id="line2d_78">
    <path d="M 935.119 53.014196 
L 935.119 52.60906 
" clip-path="url(#p572b9109a4)" style="fill: none; stroke: #424242; stroke-width: 2.25; stroke-linecap: square"/>
   </g>
   <g id="line2d_79">
    <path d="M 1010.34775 43.274979 
L 1010.34775 41.061086 
" clip-path="url(#p572b9109a4)" style="fill: none; stroke: #424242; stroke-width: 2.25; stroke-linecap: square"/>
   </g>
   <g id="line2d_80">
    <path d="M 1085.5765 227.124156 
L 1085.5765 225.707456 
" clip-path="url(#p572b9109a4)" style="fill: none; stroke: #424242; stroke-width: 2.25; stroke-linecap: square"/>
   </g>
   <g id="line2d_81">
    <path d="M 1160.80525 227.078538 
L 1160.80525 225.876209 
" clip-path="url(#p572b9109a4)" style="fill: none; stroke: #424242; stroke-width: 2.25; stroke-linecap: square"/>
   </g>
   <g id="line2d_82">
    <path d="M 1236.034 221.172802 
L 1236.034 220.189948 
" clip-path="url(#p572b9109a4)" style="fill: none; stroke: #424242; stroke-width: 2.25; stroke-linecap: square"/>
   </g>
   <g id="line2d_83">
    <path d="M 724.4785 512.186767 
L 724.4785 512.120638 
" clip-path="url(#p572b9109a4)" style="fill: none; stroke: #424242; stroke-width: 2.25; stroke-linecap: square"/>
   </g>
   <g id="line2d_84">
    <path d="M 799.70725 519.551919 
L 799.70725 519.419181 
" clip-path="url(#p572b9109a4)" style="fill: none; stroke: #424242; stroke-width: 2.25; stroke-linecap: square"/>
   </g>
   <g id="line2d_85">
    <path d="M 874.936 519.540849 
L 874.936 519.423296 
" clip-path="url(#p572b9109a4)" style="fill: none; stroke: #424242; stroke-width: 2.25; stroke-linecap: square"/>
   </g>
   <g id="line2d_86">
    <path d="M 950.16475 523.296142 
L 950.16475 523.143084 
" clip-path="url(#p572b9109a4)" style="fill: none; stroke: #424242; stroke-width: 2.25; stroke-linecap: square"/>
   </g>
   <g id="line2d_87">
    <path d="M 1025.3935 523.281021 
L 1025.3935 523.255235 
" clip-path="url(#p572b9109a4)" style="fill: none; stroke: #424242; stroke-width: 2.25; stroke-linecap: square"/>
   </g>
   <g id="line2d_88">
    <path d="M 1100.62225 523.20663 
L 1100.62225 523.081037 
" clip-path="url(#p572b9109a4)" style="fill: none; stroke: #424242; stroke-width: 2.25; stroke-linecap: square"/>
   </g>
   <g id="line2d_89">
    <path d="M 1175.851 524.741394 
L 1175.851 524.589515 
" clip-path="url(#p572b9109a4)" style="fill: none; stroke: #424242; stroke-width: 2.25; stroke-linecap: square"/>
   </g>
   <g id="line2d_90">
    <path d="M 1251.07975 524.788224 
L 1251.07975 524.551171 
" clip-path="url(#p572b9109a4)" style="fill: none; stroke: #424242; stroke-width: 2.25; stroke-linecap: square"/>
   </g>
   <g id="line2d_91">
    <path d="M 739.52425 488.122735 
L 739.52425 487.808196 
" clip-path="url(#p572b9109a4)" style="fill: none; stroke: #424242; stroke-width: 2.25; stroke-linecap: square"/>
   </g>
   <g id="line2d_92">
    <path d="M 814.753 377.685499 
L 814.753 377.051636 
" clip-path="url(#p572b9109a4)" style="fill: none; stroke: #424242; stroke-width: 2.25; stroke-linecap: square"/>
   </g>
   <g id="line2d_93">
    <path d="M 889.98175 427.381346 
L 889.98175 426.714626 
" clip-path="url(#p572b9109a4)" style="fill: none; stroke: #424242; stroke-width: 2.25; stroke-linecap: square"/>
   </g>
   <g id="line2d_94">
    <path d="M 965.2105 427.40559 
L 965.2105 425.973259 
" clip-path="url(#p572b9109a4)" style="fill: none; stroke: #424242; stroke-width: 2.25; stroke-linecap: square"/>
   </g>
   <g id="line2d_95">
    <path d="M 1040.43925 455.116263 
L 1040.43925 455.035661 
" clip-path="url(#p572b9109a4)" style="fill: none; stroke: #424242; stroke-width: 2.25; stroke-linecap: square"/>
   </g>
   <g id="line2d_96">
    <path d="M 1115.668 455.62699 
L 1115.668 455.517571 
" clip-path="url(#p572b9109a4)" style="fill: none; stroke: #424242; stroke-width: 2.25; stroke-linecap: square"/>
   </g>
   <g id="line2d_97">
    <path d="M 1190.89675 455.55649 
L 1190.89675 455.536073 
" clip-path="url(#p572b9109a4)" style="fill: none; stroke: #424242; stroke-width: 2.25; stroke-linecap: square"/>
   </g>
   <g id="line2d_98">
    <path d="M 1266.1255 474.246663 
L 1266.1255 474.216676 
" clip-path="url(#p572b9109a4)" style="fill: none; stroke: #424242; stroke-width: 2.25; stroke-linecap: square"/>
   </g>
   <g id="patch_85">
    <path d="M 679.34125 530.44 
L 679.34125 7.2 
" style="fill: none; stroke: #000000; stroke-width: 0.8; stroke-linejoin: miter; stroke-linecap: square"/>
   </g>
   <g id="patch_86">
    <path d="M 1281.17125 530.44 
L 1281.17125 7.2 
" style="fill: none; stroke: #000000; stroke-width: 0.8; stroke-linejoin: miter; stroke-linecap: square"/>
   </g>
   <g id="patch_87">
    <path d="M 679.34125 530.44 
L 1281.17125 530.44 
" style="fill: none; stroke: #000000; stroke-width: 0.8; stroke-linejoin: miter; stroke-linecap: square"/>
   </g>
   <g id="patch_88">
    <path d="M 679.34125 7.2 
L 1281.17125 7.2 
" style="fill: none; stroke: #000000; stroke-width: 0.8; stroke-linejoin: miter; stroke-linecap: square"/>
   </g>
   <g id="legend_2">
    <g id="patch_89">
     <path d="M 1112.447813 88.590625 
L 1274.17125 88.590625 
Q 1276.17125 88.590625 1276.17125 86.590625 
L 1276.17125 14.2 
Q 1276.17125 12.2 1274.17125 12.2 
L 1112.447813 12.2 
Q 1110.447813 12.2 1110.447813 14.2 
L 1110.447813 86.590625 
Q 1110.447813 88.590625 1112.447813 88.590625 
z
" style="fill: #ffffff; opacity: 0.8; stroke: #cccccc; stroke-linejoin: miter"/>
    </g>
    <g id="text_43">
     <!-- Firts BSS devices configuration: -->
     <g transform="translate(1114.447813 23.798437) scale(0.1 -0.1)">
      <use xlink:href="#DejaVuSans-46"/>
      <use xlink:href="#DejaVuSans-69" x="50.269531"/>
      <use xlink:href="#DejaVuSans-72" x="78.052734"/>
      <use xlink:href="#DejaVuSans-74" x="119.166016"/>
      <use xlink:href="#DejaVuSans-73" x="158.375"/>
      <use xlink:href="#DejaVuSans-20" x="210.474609"/>
      <use xlink:href="#DejaVuSans-42" x="242.261719"/>
      <use xlink:href="#DejaVuSans-53" x="309.115234"/>
      <use xlink:href="#DejaVuSans-53" x="372.591797"/>
      <use xlink:href="#DejaVuSans-20" x="436.068359"/>
      <use xlink:href="#DejaVuSans-64" x="467.855469"/>
      <use xlink:href="#DejaVuSans-65" x="531.332031"/>
      <use xlink:href="#DejaVuSans-76" x="592.855469"/>
      <use xlink:href="#DejaVuSans-69" x="652.035156"/>
      <use xlink:href="#DejaVuSans-63" x="679.818359"/>
      <use xlink:href="#DejaVuSans-65" x="734.798828"/>
      <use xlink:href="#DejaVuSans-73" x="796.322266"/>
      <use xlink:href="#DejaVuSans-20" x="848.421875"/>
      <use xlink:href="#DejaVuSans-63" x="880.208984"/>
      <use xlink:href="#DejaVuSans-6f" x="935.189453"/>
      <use xlink:href="#DejaVuSans-6e" x="996.371094"/>
      <use xlink:href="#DejaVuSans-66" x="1059.75"/>
      <use xlink:href="#DejaVuSans-69" x="1094.955078"/>
      <use xlink:href="#DejaVuSans-67" x="1122.738281"/>
      <use xlink:href="#DejaVuSans-75" x="1186.214844"/>
      <use xlink:href="#DejaVuSans-72" x="1249.59375"/>
      <use xlink:href="#DejaVuSans-61" x="1290.707031"/>
      <use xlink:href="#DejaVuSans-74" x="1351.986328"/>
      <use xlink:href="#DejaVuSans-69" x="1391.195312"/>
      <use xlink:href="#DejaVuSans-6f" x="1418.978516"/>
      <use xlink:href="#DejaVuSans-6e" x="1480.160156"/>
      <use xlink:href="#DejaVuSans-3a" x="1543.539062"/>
     </g>
    </g>
    <g id="patch_90">
     <path d="M 1175.459531 38.476562 
L 1195.459531 38.476562 
L 1195.459531 31.476562 
L 1175.459531 31.476562 
z
" style="fill: #0c3b50"/>
    </g>
    <g id="text_44">
     <!-- A -->
     <g transform="translate(1203.459531 38.476562) scale(0.1 -0.1)">
      <use xlink:href="#DejaVuSans-41"/>
     </g>
    </g>
    <g id="patch_91">
     <path d="M 1175.459531 53.154688 
L 1195.459531 53.154688 
L 1195.459531 46.154688 
L 1175.459531 46.154688 
z
" style="fill: #785a8c"/>
    </g>
    <g id="text_45">
     <!-- B -->
     <g transform="translate(1203.459531 53.154688) scale(0.1 -0.1)">
      <use xlink:href="#DejaVuSans-42"/>
     </g>
    </g>
    <g id="patch_92">
     <path d="M 1175.459531 67.832812 
L 1195.459531 67.832812 
L 1195.459531 60.832812 
L 1175.459531 60.832812 
z
" style="fill: #dc6980"/>
    </g>
    <g id="text_46">
     <!-- C -->
     <g transform="translate(1203.459531 67.832812) scale(0.1 -0.1)">
      <use xlink:href="#DejaVuSans-43"/>
     </g>
    </g>
    <g id="patch_93">
     <path d="M 1175.459531 82.510938 
L 1195.459531 82.510938 
L 1195.459531 75.510938 
L 1175.459531 75.510938 
z
" style="fill: #df9c20"/>
    </g>
    <g id="text_47">
     <!-- D -->
     <g transform="translate(1203.459531 82.510938) scale(0.1 -0.1)">
      <use xlink:href="#DejaVuSans-44"/>
     </g>
    </g>
   </g>
  </g>
 </g>
 <defs>
  <clipPath id="p957a09ec7c">
   <rect x="43.78125" y="7.2" width="601.83" height="523.24"/>
  </clipPath>
  <clipPath id="p572b9109a4">
   <rect x="679.34125" y="7.2" width="601.83" height="523.24"/>
  </clipPath>
 </defs>
</svg>
