<?xml version="1.0" encoding="utf-8" standalone="no"?>
<!DOCTYPE svg PUBLIC "-//W3C//DTD SVG 1.1//EN"
  "http://www.w3.org/Graphics/SVG/1.1/DTD/svg11.dtd">
<svg xmlns:xlink="http://www.w3.org/1999/xlink" width="576pt" height="576pt" viewBox="0 0 576 576" xmlns="http://www.w3.org/2000/svg" version="1.1">
 <metadata>
  <rdf:RDF xmlns:dc="http://purl.org/dc/elements/1.1/" xmlns:cc="http://creativecommons.org/ns#" xmlns:rdf="http://www.w3.org/1999/02/22-rdf-syntax-ns#">
   <cc:Work>
    <dc:type rdf:resource="http://purl.org/dc/dcmitype/StillImage"/>
    <dc:date>2026-04-20T15:23:59.880400</dc:date>
    <dc:format>image/svg+xml</dc:format>
    <dc:creator>
     <cc:Agent>
      <dc:title>Matplotlib v3.9.2, https://matplotlib.org/</dc:title>
     </cc:Agent>
    </dc:creator>
   </cc:Work>
  </rdf:RDF>
 </metadata>
 <defs>
  <style type="text/css">*{stroke-linejoin: round; stroke-linecap: butt}</style>
 </defs>
 <g id="figure_1">
  <g id="patch_1">
   <path d="M 0 576 
L 576 576 
L 576 0 
L 0 0 
z
" style="fill: #ffffff"/>
  </g>
  <g id="axes_1">
   <g id="patch_2">
    <path d="M 147.027273 51.336 
C 141.255799 51.336 135.495971 51.854394 129.817247 52.88493 
C 124.138523 53.915467 118.56382 55.453986 113.160365 57.481937 
L 147.027273 147.72 
z
" style="fill: #003f5c"/>
   </g>
   <g id="patch_3">
    <path d="M 113.160366 57.481936 
C 98.692419 62.911847 85.74031 71.742442 75.400009 83.226508 
C 65.059708 94.710574 57.631342 108.514795 53.743486 123.471067 
C 49.855631 138.427341 49.621134 154.101565 53.059822 169.167452 
C 56.49851 184.233339 63.510575 198.253578 73.502693 210.041838 
C 83.494811 221.830098 96.176942 231.044214 110.475977 236.904518 
C 124.775012 242.764821 140.275949 245.101217 155.667073 243.715987 
C 171.058197 242.330763 185.8928 237.264127 198.915649 228.944819 
C 211.938502 220.625511 222.771586 209.294996 230.498258 195.912017 
L 147.027273 147.72 
z
" style="fill: #ffa600"/>
   </g>
   <g id="patch_4">
    <path d="M 230.498258 195.912017 
C 238.957093 181.26089 243.411267 164.637695 243.411273 147.720029 
C 243.411273 130.802363 238.957116 114.179168 230.498287 99.528034 
C 222.039457 84.876901 209.8704 72.707844 195.219273 64.249009 
C 180.568145 55.790174 163.944952 51.336 147.027286 51.336 
L 147.027273 147.72 
z
" style="fill: #bb4e99"/>
   </g>
   <g id="matplotlib.axis_1"/>
   <g id="matplotlib.axis_2"/>
   <g id="text_1">
    <!-- 5.7% -->
    <g transform="translate(123.998912 93.578333) scale(0.1 -0.1)">
     <defs>
      <path id="DejaVuSans-35" d="M 691 4666 
L 3169 4666 
L 3169 4134 
L 1269 4134 
L 1269 2991 
Q 1406 3038 1543 3061 
Q 1681 3084 1819 3084 
Q 2600 3084 3056 2656 
Q 3513 2228 3513 1497 
Q 3513 744 3044 326 
Q 2575 -91 1722 -91 
Q 1428 -91 1123 -41 
Q 819 9 494 109 
L 494 744 
Q 775 591 1075 516 
Q 1375 441 1709 441 
Q 2250 441 2565 725 
Q 2881 1009 2881 1497 
Q 2881 1984 2565 2268 
Q 2250 2553 1709 2553 
Q 1456 2553 1204 2497 
Q 953 2441 691 2322 
L 691 4666 
z
" transform="scale(0.015625)"/>
      <path id="DejaVuSans-2e" d="M 684 794 
L 1344 794 
L 1344 0 
L 684 0 
L 684 794 
z
" transform="scale(0.015625)"/>
      <path id="DejaVuSans-37" d="M 525 4666 
L 3525 4666 
L 3525 4397 
L 1831 0 
L 1172 0 
L 2766 4134 
L 525 4134 
L 525 4666 
z
" transform="scale(0.015625)"/>
      <path id="DejaVuSans-25" d="M 4653 2053 
Q 4381 2053 4226 1822 
Q 4072 1591 4072 1178 
Q 4072 772 4226 539 
Q 4381 306 4653 306 
Q 4919 306 5073 539 
Q 5228 772 5228 1178 
Q 5228 1588 5073 1820 
Q 4919 2053 4653 2053 
z
M 4653 2450 
Q 5147 2450 5437 2106 
Q 5728 1763 5728 1178 
Q 5728 594 5436 251 
Q 5144 -91 4653 -91 
Q 4153 -91 3862 251 
Q 3572 594 3572 1178 
Q 3572 1766 3864 2108 
Q 4156 2450 4653 2450 
z
M 1428 4353 
Q 1159 4353 1004 4120 
Q 850 3888 850 3481 
Q 850 3069 1003 2837 
Q 1156 2606 1428 2606 
Q 1700 2606 1854 2837 
Q 2009 3069 2009 3481 
Q 2009 3884 1853 4118 
Q 1697 4353 1428 4353 
z
M 4250 4750 
L 4750 4750 
L 1831 -91 
L 1331 -91 
L 4250 4750 
z
M 1428 4750 
Q 1922 4750 2215 4408 
Q 2509 4066 2509 3481 
Q 2509 2891 2217 2550 
Q 1925 2209 1428 2209 
Q 931 2209 642 2551 
Q 353 2894 353 3481 
Q 353 4063 643 4406 
Q 934 4750 1428 4750 
z
" transform="scale(0.015625)"/>
     </defs>
     <use xlink:href="#DejaVuSans-35"/>
     <use xlink:href="#DejaVuSans-2e" x="63.623047"/>
     <use xlink:href="#DejaVuSans-37" x="95.410156"/>
     <use xlink:href="#DejaVuSans-25" x="159.033203"/>
    </g>
   </g>
   <g id="text_2">
    <!-- 61.0% -->
    <g transform="translate(87.028942 187.872491) scale(0.1 -0.1)">
     <defs>
      <path id="DejaVuSans-36" d="M 2113 2584 
Q 1688 2584 1439 2293 
Q 1191 2003 1191 1497 
Q 1191 994 1439 701 
Q 1688 409 2113 409 
Q 2538 409 2786 701 
Q 3034 994 3034 1497 
Q 3034 2003 2786 2293 
Q 2538 2584 2113 2584 
z
M 3366 4563 
L 3366 3988 
Q 3128 4100 2886 4159 
Q 2644 4219 2406 4219 
Q 1781 4219 1451 3797 
Q 1122 3375 1075 2522 
Q 1259 2794 1537 2939 
Q 1816 3084 2150 3084 
Q 2853 3084 3261 2657 
Q 3669 2231 3669 1497 
Q 3669 778 3244 343 
Q 2819 -91 2113 -91 
Q 1303 -91 875 529 
Q 447 1150 447 2328 
Q 447 3434 972 4092 
Q 1497 4750 2381 4750 
Q 2619 4750 2861 4703 
Q 3103 4656 3366 4563 
z
" transform="scale(0.015625)"/>
      <path id="DejaVuSans-31" d="M 794 531 
L 1825 531 
L 1825 4091 
L 703 3866 
L 703 4441 
L 1819 4666 
L 2450 4666 
L 2450 531 
L 3481 531 
L 3481 0 
L 794 0 
L 794 531 
z
" transform="scale(0.015625)"/>
      <path id="DejaVuSans-30" d="M 2034 4250 
Q 1547 4250 1301 3770 
Q 1056 3291 1056 2328 
Q 1056 1369 1301 889 
Q 1547 409 2034 409 
Q 2525 409 2770 889 
Q 3016 1369 3016 2328 
Q 3016 3291 2770 3770 
Q 2525 4250 2034 4250 
z
M 2034 4750 
Q 2819 4750 3233 4129 
Q 3647 3509 3647 2328 
Q 3647 1150 3233 529 
Q 2819 -91 2034 -91 
Q 1250 -91 836 529 
Q 422 1150 422 2328 
Q 422 3509 836 4129 
Q 1250 4750 2034 4750 
z
" transform="scale(0.015625)"/>
     </defs>
     <use xlink:href="#DejaVuSans-36"/>
     <use xlink:href="#DejaVuSans-31" x="63.623047"/>
     <use xlink:href="#DejaVuSans-2e" x="127.246094"/>
     <use xlink:href="#DejaVuSans-30" x="159.033203"/>
     <use xlink:href="#DejaVuSans-25" x="222.65625"/>
    </g>
   </g>
   <g id="text_3">
    <!-- 33.3% -->
    <g transform="translate(181.226259 121.564148) scale(0.1 -0.1)">
     <defs>
      <path id="DejaVuSans-33" d="M 2597 2516 
Q 3050 2419 3304 2112 
Q 3559 1806 3559 1356 
Q 3559 666 3084 287 
Q 2609 -91 1734 -91 
Q 1441 -91 1130 -33 
Q 819 25 488 141 
L 488 750 
Q 750 597 1062 519 
Q 1375 441 1716 441 
Q 2309 441 2620 675 
Q 2931 909 2931 1356 
Q 2931 1769 2642 2001 
Q 2353 2234 1838 2234 
L 1294 2234 
L 1294 2753 
L 1863 2753 
Q 2328 2753 2575 2939 
Q 2822 3125 2822 3475 
Q 2822 3834 2567 4026 
Q 2313 4219 1838 4219 
Q 1578 4219 1281 4162 
Q 984 4106 628 3988 
L 628 4550 
Q 988 4650 1302 4700 
Q 1616 4750 1894 4750 
Q 2613 4750 3031 4423 
Q 3450 4097 3450 3541 
Q 3450 3153 3228 2886 
Q 3006 2619 2597 2516 
z
" transform="scale(0.015625)"/>
     </defs>
     <use xlink:href="#DejaVuSans-33"/>
     <use xlink:href="#DejaVuSans-33" x="63.623047"/>
     <use xlink:href="#DejaVuSans-2e" x="127.246094"/>
     <use xlink:href="#DejaVuSans-33" x="159.033203"/>
     <use xlink:href="#DejaVuSans-25" x="222.65625"/>
    </g>
   </g>
   <g id="text_4">
    <!-- Odpowiedź na pytanie nr 6 - Tak, tak -->
    <g transform="translate(36.925398 21.24) scale(0.12 -0.12)">
     <defs>
      <path id="DejaVuSans-4f" d="M 2522 4238 
Q 1834 4238 1429 3725 
Q 1025 3213 1025 2328 
Q 1025 1447 1429 934 
Q 1834 422 2522 422 
Q 3209 422 3611 934 
Q 4013 1447 4013 2328 
Q 4013 3213 3611 3725 
Q 3209 4238 2522 4238 
z
M 2522 4750 
Q 3503 4750 4090 4092 
Q 4678 3434 4678 2328 
Q 4678 1225 4090 567 
Q 3503 -91 2522 -91 
Q 1538 -91 948 565 
Q 359 1222 359 2328 
Q 359 3434 948 4092 
Q 1538 4750 2522 4750 
z
" transform="scale(0.015625)"/>
      <path id="DejaVuSans-64" d="M 2906 2969 
L 2906 4863 
L 3481 4863 
L 3481 0 
L 2906 0 
L 2906 525 
Q 2725 213 2448 61 
Q 2172 -91 1784 -91 
Q 1150 -91 751 415 
Q 353 922 353 1747 
Q 353 2572 751 3078 
Q 1150 3584 1784 3584 
Q 2172 3584 2448 3432 
Q 2725 3281 2906 2969 
z
M 947 1747 
Q 947 1113 1208 752 
Q 1469 391 1925 391 
Q 2381 391 2643 752 
Q 2906 1113 2906 1747 
Q 2906 2381 2643 2742 
Q 2381 3103 1925 3103 
Q 1469 3103 1208 2742 
Q 947 2381 947 1747 
z
" transform="scale(0.015625)"/>
      <path id="DejaVuSans-70" d="M 1159 525 
L 1159 -1331 
L 581 -1331 
L 581 3500 
L 1159 3500 
L 1159 2969 
Q 1341 3281 1617 3432 
Q 1894 3584 2278 3584 
Q 2916 3584 3314 3078 
Q 3713 2572 3713 1747 
Q 3713 922 3314 415 
Q 2916 -91 2278 -91 
Q 1894 -91 1617 61 
Q 1341 213 1159 525 
z
M 3116 1747 
Q 3116 2381 2855 2742 
Q 2594 3103 2138 3103 
Q 1681 3103 1420 2742 
Q 1159 2381 1159 1747 
Q 1159 1113 1420 752 
Q 1681 391 2138 391 
Q 2594 391 2855 752 
Q 3116 1113 3116 1747 
z
" transform="scale(0.015625)"/>
      <path id="DejaVuSans-6f" d="M 1959 3097 
Q 1497 3097 1228 2736 
Q 959 2375 959 1747 
Q 959 1119 1226 758 
Q 1494 397 1959 397 
Q 2419 397 2687 759 
Q 2956 1122 2956 1747 
Q 2956 2369 2687 2733 
Q 2419 3097 1959 3097 
z
M 1959 3584 
Q 2709 3584 3137 3096 
Q 3566 2609 3566 1747 
Q 3566 888 3137 398 
Q 2709 -91 1959 -91 
Q 1206 -91 779 398 
Q 353 888 353 1747 
Q 353 2609 779 3096 
Q 1206 3584 1959 3584 
z
" transform="scale(0.015625)"/>
      <path id="DejaVuSans-77" d="M 269 3500 
L 844 3500 
L 1563 769 
L 2278 3500 
L 2956 3500 
L 3675 769 
L 4391 3500 
L 4966 3500 
L 4050 0 
L 3372 0 
L 2619 2869 
L 1863 0 
L 1184 0 
L 269 3500 
z
" transform="scale(0.015625)"/>
      <path id="DejaVuSans-69" d="M 603 3500 
L 1178 3500 
L 1178 0 
L 603 0 
L 603 3500 
z
M 603 4863 
L 1178 4863 
L 1178 4134 
L 603 4134 
L 603 4863 
z
" transform="scale(0.015625)"/>
      <path id="DejaVuSans-65" d="M 3597 1894 
L 3597 1613 
L 953 1613 
Q 991 1019 1311 708 
Q 1631 397 2203 397 
Q 2534 397 2845 478 
Q 3156 559 3463 722 
L 3463 178 
Q 3153 47 2828 -22 
Q 2503 -91 2169 -91 
Q 1331 -91 842 396 
Q 353 884 353 1716 
Q 353 2575 817 3079 
Q 1281 3584 2069 3584 
Q 2775 3584 3186 3129 
Q 3597 2675 3597 1894 
z
M 3022 2063 
Q 3016 2534 2758 2815 
Q 2500 3097 2075 3097 
Q 1594 3097 1305 2825 
Q 1016 2553 972 2059 
L 3022 2063 
z
" transform="scale(0.015625)"/>
      <path id="DejaVuSans-17a" d="M 2242 5119 
L 2864 5119 
L 1846 3944 
L 1367 3944 
L 2242 5119 
z
M 353 3500 
L 3084 3500 
L 3084 2975 
L 922 459 
L 3084 459 
L 3084 0 
L 275 0 
L 275 525 
L 2438 3041 
L 353 3041 
L 353 3500 
z
" transform="scale(0.015625)"/>
      <path id="DejaVuSans-20" transform="scale(0.015625)"/>
      <path id="DejaVuSans-6e" d="M 3513 2113 
L 3513 0 
L 2938 0 
L 2938 2094 
Q 2938 2591 2744 2837 
Q 2550 3084 2163 3084 
Q 1697 3084 1428 2787 
Q 1159 2491 1159 1978 
L 1159 0 
L 581 0 
L 581 3500 
L 1159 3500 
L 1159 2956 
Q 1366 3272 1645 3428 
Q 1925 3584 2291 3584 
Q 2894 3584 3203 3211 
Q 3513 2838 3513 2113 
z
" transform="scale(0.015625)"/>
      <path id="DejaVuSans-61" d="M 2194 1759 
Q 1497 1759 1228 1600 
Q 959 1441 959 1056 
Q 959 750 1161 570 
Q 1363 391 1709 391 
Q 2188 391 2477 730 
Q 2766 1069 2766 1631 
L 2766 1759 
L 2194 1759 
z
M 3341 1997 
L 3341 0 
L 2766 0 
L 2766 531 
Q 2569 213 2275 61 
Q 1981 -91 1556 -91 
Q 1019 -91 701 211 
Q 384 513 384 1019 
Q 384 1609 779 1909 
Q 1175 2209 1959 2209 
L 2766 2209 
L 2766 2266 
Q 2766 2663 2505 2880 
Q 2244 3097 1772 3097 
Q 1472 3097 1187 3025 
Q 903 2953 641 2809 
L 641 3341 
Q 956 3463 1253 3523 
Q 1550 3584 1831 3584 
Q 2591 3584 2966 3190 
Q 3341 2797 3341 1997 
z
" transform="scale(0.015625)"/>
      <path id="DejaVuSans-79" d="M 2059 -325 
Q 1816 -950 1584 -1140 
Q 1353 -1331 966 -1331 
L 506 -1331 
L 506 -850 
L 844 -850 
Q 1081 -850 1212 -737 
Q 1344 -625 1503 -206 
L 1606 56 
L 191 3500 
L 800 3500 
L 1894 763 
L 2988 3500 
L 3597 3500 
L 2059 -325 
z
" transform="scale(0.015625)"/>
      <path id="DejaVuSans-74" d="M 1172 4494 
L 1172 3500 
L 2356 3500 
L 2356 3053 
L 1172 3053 
L 1172 1153 
Q 1172 725 1289 603 
Q 1406 481 1766 481 
L 2356 481 
L 2356 0 
L 1766 0 
Q 1100 0 847 248 
Q 594 497 594 1153 
L 594 3053 
L 172 3053 
L 172 3500 
L 594 3500 
L 594 4494 
L 1172 4494 
z
" transform="scale(0.015625)"/>
      <path id="DejaVuSans-72" d="M 2631 2963 
Q 2534 3019 2420 3045 
Q 2306 3072 2169 3072 
Q 1681 3072 1420 2755 
Q 1159 2438 1159 1844 
L 1159 0 
L 581 0 
L 581 3500 
L 1159 3500 
L 1159 2956 
Q 1341 3275 1631 3429 
Q 1922 3584 2338 3584 
Q 2397 3584 2469 3576 
Q 2541 3569 2628 3553 
L 2631 2963 
z
" transform="scale(0.015625)"/>
      <path id="DejaVuSans-2d" d="M 313 2009 
L 1997 2009 
L 1997 1497 
L 313 1497 
L 313 2009 
z
" transform="scale(0.015625)"/>
      <path id="DejaVuSans-54" d="M -19 4666 
L 3928 4666 
L 3928 4134 
L 2272 4134 
L 2272 0 
L 1638 0 
L 1638 4134 
L -19 4134 
L -19 4666 
z
" transform="scale(0.015625)"/>
      <path id="DejaVuSans-6b" d="M 581 4863 
L 1159 4863 
L 1159 1991 
L 2875 3500 
L 3609 3500 
L 1753 1863 
L 3688 0 
L 2938 0 
L 1159 1709 
L 1159 0 
L 581 0 
L 581 4863 
z
" transform="scale(0.015625)"/>
      <path id="DejaVuSans-2c" d="M 750 794 
L 1409 794 
L 1409 256 
L 897 -744 
L 494 -744 
L 750 256 
L 750 794 
z
" transform="scale(0.015625)"/>
     </defs>
     <use xlink:href="#DejaVuSans-4f"/>
     <use xlink:href="#DejaVuSans-64" x="78.710938"/>
     <use xlink:href="#DejaVuSans-70" x="142.1875"/>
     <use xlink:href="#DejaVuSans-6f" x="205.664062"/>
     <use xlink:href="#DejaVuSans-77" x="266.845703"/>
     <use xlink:href="#DejaVuSans-69" x="348.632812"/>
     <use xlink:href="#DejaVuSans-65" x="376.416016"/>
     <use xlink:href="#DejaVuSans-64" x="437.939453"/>
     <use xlink:href="#DejaVuSans-17a" x="501.416016"/>
     <use xlink:href="#DejaVuSans-20" x="553.90625"/>
     <use xlink:href="#DejaVuSans-6e" x="585.693359"/>
     <use xlink:href="#DejaVuSans-61" x="649.072266"/>
     <use xlink:href="#DejaVuSans-20" x="710.351562"/>
     <use xlink:href="#DejaVuSans-70" x="742.138672"/>
     <use xlink:href="#DejaVuSans-79" x="805.615234"/>
     <use xlink:href="#DejaVuSans-74" x="864.794922"/>
     <use xlink:href="#DejaVuSans-61" x="904.003906"/>
     <use xlink:href="#DejaVuSans-6e" x="965.283203"/>
     <use xlink:href="#DejaVuSans-69" x="1028.662109"/>
     <use xlink:href="#DejaVuSans-65" x="1056.445312"/>
     <use xlink:href="#DejaVuSans-20" x="1117.96875"/>
     <use xlink:href="#DejaVuSans-6e" x="1149.755859"/>
     <use xlink:href="#DejaVuSans-72" x="1213.134766"/>
     <use xlink:href="#DejaVuSans-20" x="1254.248047"/>
     <use xlink:href="#DejaVuSans-36" x="1286.035156"/>
     <use xlink:href="#DejaVuSans-20" x="1349.658203"/>
     <use xlink:href="#DejaVuSans-2d" x="1381.445312"/>
     <use xlink:href="#DejaVuSans-20" x="1417.529297"/>
     <use xlink:href="#DejaVuSans-54" x="1449.316406"/>
     <use xlink:href="#DejaVuSans-61" x="1493.900391"/>
     <use xlink:href="#DejaVuSans-6b" x="1555.179688"/>
     <use xlink:href="#DejaVuSans-2c" x="1613.089844"/>
     <use xlink:href="#DejaVuSans-20" x="1644.876953"/>
     <use xlink:href="#DejaVuSans-74" x="1676.664062"/>
     <use xlink:href="#DejaVuSans-61" x="1715.873047"/>
     <use xlink:href="#DejaVuSans-6b" x="1777.152344"/>
    </g>
   </g>
  </g>
  <g id="axes_2">
   <g id="patch_5">
    <path d="M 428.972727 51.336 
C 427.466195 51.336 425.95987 51.371322 424.454994 51.441936 
C 422.950118 51.512551 421.447104 51.618439 419.947192 51.759512 
L 428.972727 147.72 
z
" style="fill: #003f5c"/>
   </g>
   <g id="patch_6">
    <path d="M 419.947197 51.759511 
C 406.019489 53.069476 392.542509 57.396072 380.454949 64.437943 
C 368.36739 71.479813 357.956575 81.069584 349.947643 92.539288 
C 341.938711 104.008988 336.522031 117.086018 334.074896 130.859489 
C 331.627761 144.632961 332.208332 158.775498 335.776172 172.302047 
C 339.344011 185.828595 345.814301 198.417619 354.73639 209.192283 
C 363.65848 219.966947 374.820278 228.671125 387.444345 234.698555 
C 400.068413 240.725985 413.854719 243.933398 427.842933 244.097376 
C 441.831146 244.261354 455.688805 241.378017 468.450702 235.648181 
L 428.972727 147.72 
z
" style="fill: #ffa600"/>
   </g>
   <g id="patch_7">
    <path d="M 468.450702 235.648181 
C 488.567916 226.615961 504.988632 210.947699 514.953858 191.27595 
C 524.919084 171.604204 527.837608 149.09606 523.219066 127.533306 
C 518.600524 105.970553 506.71892 86.632461 489.570591 72.768189 
C 472.422258 58.903917 451.024573 51.336006 428.972741 51.336 
L 428.972727 147.72 
z
" style="fill: #bb4e99"/>
   </g>
   <g id="matplotlib.axis_3"/>
   <g id="matplotlib.axis_4"/>
   <g id="text_5">
    <!-- 1.5% -->
    <g transform="translate(413.55974 92.712537) scale(0.1 -0.1)">
     <use xlink:href="#DejaVuSans-31"/>
     <use xlink:href="#DejaVuSans-2e" x="63.623047"/>
     <use xlink:href="#DejaVuSans-35" x="95.410156"/>
     <use xlink:href="#DejaVuSans-25" x="159.033203"/>
    </g>
   </g>
   <g id="text_6">
    <!-- 55.2% -->
    <g transform="translate(357.171199 165.228603) scale(0.1 -0.1)">
     <defs>
      <path id="DejaVuSans-32" d="M 1228 531 
L 3431 531 
L 3431 0 
L 469 0 
L 469 531 
Q 828 903 1448 1529 
Q 2069 2156 2228 2338 
Q 2531 2678 2651 2914 
Q 2772 3150 2772 3378 
Q 2772 3750 2511 3984 
Q 2250 4219 1831 4219 
Q 1534 4219 1204 4116 
Q 875 4013 500 3803 
L 500 4441 
Q 881 4594 1212 4672 
Q 1544 4750 1819 4750 
Q 2544 4750 2975 4387 
Q 3406 4025 3406 3419 
Q 3406 3131 3298 2873 
Q 3191 2616 2906 2266 
Q 2828 2175 2409 1742 
Q 1991 1309 1228 531 
z
" transform="scale(0.015625)"/>
     </defs>
     <use xlink:href="#DejaVuSans-35"/>
     <use xlink:href="#DejaVuSans-35" x="63.623047"/>
     <use xlink:href="#DejaVuSans-2e" x="127.246094"/>
     <use xlink:href="#DejaVuSans-32" x="159.033203"/>
     <use xlink:href="#DejaVuSans-25" x="222.65625"/>
    </g>
   </g>
   <g id="text_7">
    <!-- 43.3% -->
    <g transform="translate(469.636938 138.367359) scale(0.1 -0.1)">
     <defs>
      <path id="DejaVuSans-34" d="M 2419 4116 
L 825 1625 
L 2419 1625 
L 2419 4116 
z
M 2253 4666 
L 3047 4666 
L 3047 1625 
L 3713 1625 
L 3713 1100 
L 3047 1100 
L 3047 0 
L 2419 0 
L 2419 1100 
L 313 1100 
L 313 1709 
L 2253 4666 
z
" transform="scale(0.015625)"/>
     </defs>
     <use xlink:href="#DejaVuSans-34"/>
     <use xlink:href="#DejaVuSans-33" x="63.623047"/>
     <use xlink:href="#DejaVuSans-2e" x="127.246094"/>
     <use xlink:href="#DejaVuSans-33" x="159.033203"/>
     <use xlink:href="#DejaVuSans-25" x="222.65625"/>
    </g>
   </g>
   <g id="text_8">
    <!-- Odpowiedź na pytanie nr 6 - Tak, nie -->
    <g transform="translate(319.21304 21.24) scale(0.12 -0.12)">
     <use xlink:href="#DejaVuSans-4f"/>
     <use xlink:href="#DejaVuSans-64" x="78.710938"/>
     <use xlink:href="#DejaVuSans-70" x="142.1875"/>
     <use xlink:href="#DejaVuSans-6f" x="205.664062"/>
     <use xlink:href="#DejaVuSans-77" x="266.845703"/>
     <use xlink:href="#DejaVuSans-69" x="348.632812"/>
     <use xlink:href="#DejaVuSans-65" x="376.416016"/>
     <use xlink:href="#DejaVuSans-64" x="437.939453"/>
     <use xlink:href="#DejaVuSans-17a" x="501.416016"/>
     <use xlink:href="#DejaVuSans-20" x="553.90625"/>
     <use xlink:href="#DejaVuSans-6e" x="585.693359"/>
     <use xlink:href="#DejaVuSans-61" x="649.072266"/>
     <use xlink:href="#DejaVuSans-20" x="710.351562"/>
     <use xlink:href="#DejaVuSans-70" x="742.138672"/>
     <use xlink:href="#DejaVuSans-79" x="805.615234"/>
     <use xlink:href="#DejaVuSans-74" x="864.794922"/>
     <use xlink:href="#DejaVuSans-61" x="904.003906"/>
     <use xlink:href="#DejaVuSans-6e" x="965.283203"/>
     <use xlink:href="#DejaVuSans-69" x="1028.662109"/>
     <use xlink:href="#DejaVuSans-65" x="1056.445312"/>
     <use xlink:href="#DejaVuSans-20" x="1117.96875"/>
     <use xlink:href="#DejaVuSans-6e" x="1149.755859"/>
     <use xlink:href="#DejaVuSans-72" x="1213.134766"/>
     <use xlink:href="#DejaVuSans-20" x="1254.248047"/>
     <use xlink:href="#DejaVuSans-36" x="1286.035156"/>
     <use xlink:href="#DejaVuSans-20" x="1349.658203"/>
     <use xlink:href="#DejaVuSans-2d" x="1381.445312"/>
     <use xlink:href="#DejaVuSans-20" x="1417.529297"/>
     <use xlink:href="#DejaVuSans-54" x="1449.316406"/>
     <use xlink:href="#DejaVuSans-61" x="1493.900391"/>
     <use xlink:href="#DejaVuSans-6b" x="1555.179688"/>
     <use xlink:href="#DejaVuSans-2c" x="1613.089844"/>
     <use xlink:href="#DejaVuSans-20" x="1644.876953"/>
     <use xlink:href="#DejaVuSans-6e" x="1676.664062"/>
     <use xlink:href="#DejaVuSans-69" x="1740.042969"/>
     <use xlink:href="#DejaVuSans-65" x="1767.826172"/>
    </g>
   </g>
  </g>
  <g id="axes_3">
   <g id="patch_8">
    <path d="M 147.027273 319.536 
C 147.027273 319.536 147.027273 319.536 147.027273 319.536 
L 147.027273 415.92 
z
" style="fill: #003f5c"/>
   </g>
   <g id="patch_9">
    <path d="M 147.027269 319.536 
C 121.474449 319.536 96.942064 329.697651 78.873494 347.766221 
C 60.804924 365.834791 50.643278 390.367165 50.643273 415.919985 
C 50.643273 441.472806 60.804929 466.00522 78.873505 484.07379 
C 96.942081 502.142361 121.474452 512.304 147.027274 512.304 
L 147.027273 415.92 
z
" style="fill: #ffa600"/>
   </g>
   <g id="patch_10">
    <path d="M 147.027274 512.304 
C 172.580093 512.304 197.112464 502.142361 215.18104 484.07379 
C 233.249616 466.00522 243.411267 441.472849 243.411273 415.920029 
C 243.411284 390.367208 233.249622 365.834791 215.181052 347.766221 
C 197.112481 329.697651 172.580108 319.536006 147.027286 319.536 
L 147.027273 415.92 
z
" style="fill: #bb4e99"/>
   </g>
   <g id="matplotlib.axis_5"/>
   <g id="matplotlib.axis_6"/>
   <g id="text_9">
    <!-- 50.0% -->
    <g transform="translate(73.313279 418.67938) scale(0.1 -0.1)">
     <use xlink:href="#DejaVuSans-35"/>
     <use xlink:href="#DejaVuSans-30" x="63.623047"/>
     <use xlink:href="#DejaVuSans-2e" x="127.246094"/>
     <use xlink:href="#DejaVuSans-30" x="159.033203"/>
     <use xlink:href="#DejaVuSans-25" x="222.65625"/>
    </g>
   </g>
   <g id="text_10">
    <!-- 50.0% -->
    <g transform="translate(188.974079 418.679365) scale(0.1 -0.1)">
     <use xlink:href="#DejaVuSans-35"/>
     <use xlink:href="#DejaVuSans-30" x="63.623047"/>
     <use xlink:href="#DejaVuSans-2e" x="127.246094"/>
     <use xlink:href="#DejaVuSans-30" x="159.033203"/>
     <use xlink:href="#DejaVuSans-25" x="222.65625"/>
    </g>
   </g>
   <g id="text_11">
    <!-- Odpowiedź na pytanie nr 6 - Nie -->
    <g transform="translate(50.221023 289.44) scale(0.12 -0.12)">
     <defs>
      <path id="DejaVuSans-4e" d="M 628 4666 
L 1478 4666 
L 3547 763 
L 3547 4666 
L 4159 4666 
L 4159 0 
L 3309 0 
L 1241 3903 
L 1241 0 
L 628 0 
L 628 4666 
z
" transform="scale(0.015625)"/>
     </defs>
     <use xlink:href="#DejaVuSans-4f"/>
     <use xlink:href="#DejaVuSans-64" x="78.710938"/>
     <use xlink:href="#DejaVuSans-70" x="142.1875"/>
     <use xlink:href="#DejaVuSans-6f" x="205.664062"/>
     <use xlink:href="#DejaVuSans-77" x="266.845703"/>
     <use xlink:href="#DejaVuSans-69" x="348.632812"/>
     <use xlink:href="#DejaVuSans-65" x="376.416016"/>
     <use xlink:href="#DejaVuSans-64" x="437.939453"/>
     <use xlink:href="#DejaVuSans-17a" x="501.416016"/>
     <use xlink:href="#DejaVuSans-20" x="553.90625"/>
     <use xlink:href="#DejaVuSans-6e" x="585.693359"/>
     <use xlink:href="#DejaVuSans-61" x="649.072266"/>
     <use xlink:href="#DejaVuSans-20" x="710.351562"/>
     <use xlink:href="#DejaVuSans-70" x="742.138672"/>
     <use xlink:href="#DejaVuSans-79" x="805.615234"/>
     <use xlink:href="#DejaVuSans-74" x="864.794922"/>
     <use xlink:href="#DejaVuSans-61" x="904.003906"/>
     <use xlink:href="#DejaVuSans-6e" x="965.283203"/>
     <use xlink:href="#DejaVuSans-69" x="1028.662109"/>
     <use xlink:href="#DejaVuSans-65" x="1056.445312"/>
     <use xlink:href="#DejaVuSans-20" x="1117.96875"/>
     <use xlink:href="#DejaVuSans-6e" x="1149.755859"/>
     <use xlink:href="#DejaVuSans-72" x="1213.134766"/>
     <use xlink:href="#DejaVuSans-20" x="1254.248047"/>
     <use xlink:href="#DejaVuSans-36" x="1286.035156"/>
     <use xlink:href="#DejaVuSans-20" x="1349.658203"/>
     <use xlink:href="#DejaVuSans-2d" x="1381.445312"/>
     <use xlink:href="#DejaVuSans-20" x="1417.529297"/>
     <use xlink:href="#DejaVuSans-4e" x="1449.316406"/>
     <use xlink:href="#DejaVuSans-69" x="1524.121094"/>
     <use xlink:href="#DejaVuSans-65" x="1551.904297"/>
    </g>
   </g>
  </g>
  <g id="axes_4">
   <g id="patch_11">
    <path d="M 428.972727 319.536 
C 428.972727 319.536 428.972727 319.536 428.972727 319.536 
L 428.972727 415.92 
z
" style="fill: #003f5c"/>
   </g>
   <g id="patch_12">
    <path d="M 525.356727 415.92 
C 525.356727 403.262969 522.863568 390.729012 518.019932 379.03544 
C 513.176296 367.341868 506.07638 356.716092 497.126507 347.76622 
C 488.176635 338.816348 477.550859 331.716431 465.857287 326.872795 
C 454.163715 322.029159 441.629758 319.536 428.972727 319.536 
C 416.315696 319.536 403.781739 322.029159 392.088167 326.872795 
C 380.394596 331.716431 369.76882 338.816348 360.818947 347.76622 
C 351.869075 356.716092 344.769158 367.341868 339.925522 379.03544 
C 335.081886 390.729012 332.588727 403.262969 332.588727 415.92 
C 332.588727 428.577031 335.081886 441.110988 339.925522 452.80456 
C 344.769158 464.498132 351.869075 475.123908 360.818947 484.07378 
C 369.76882 493.023652 380.394596 500.123569 392.088167 504.967205 
C 403.781739 509.810841 416.315696 512.304 428.972727 512.304 
C 441.629758 512.304 454.163715 509.810841 465.857287 504.967205 
C 477.550859 500.123569 488.176635 493.023652 497.126507 484.07378 
C 506.07638 475.123908 513.176296 464.498132 518.019932 452.80456 
C 522.863568 441.110988 525.356727 428.577031 525.356727 415.92 
M 428.972727 415.92 
z
" style="fill: #ffa600"/>
   </g>
   <g id="patch_13">
    <path d="M 428.972741 319.536 
C 428.972741 319.536 428.972741 319.536 428.972741 319.536 
L 428.972727 415.92 
z
" style="fill: #bb4e99"/>
   </g>
   <g id="matplotlib.axis_7"/>
   <g id="matplotlib.axis_8"/>
   <g id="text_12">
    <!-- 100.0% -->
    <g transform="translate(409.907884 476.509775) scale(0.1 -0.1)">
     <use xlink:href="#DejaVuSans-31"/>
     <use xlink:href="#DejaVuSans-30" x="63.623047"/>
     <use xlink:href="#DejaVuSans-30" x="127.246094"/>
     <use xlink:href="#DejaVuSans-2e" x="190.869141"/>
     <use xlink:href="#DejaVuSans-30" x="222.65625"/>
     <use xlink:href="#DejaVuSans-25" x="286.279297"/>
    </g>
   </g>
   <g id="text_13">
    <!-- Odpowiedź na pytanie nr 6 - Brak -->
    <g transform="translate(328.279602 289.44) scale(0.12 -0.12)">
     <defs>
      <path id="DejaVuSans-42" d="M 1259 2228 
L 1259 519 
L 2272 519 
Q 2781 519 3026 730 
Q 3272 941 3272 1375 
Q 3272 1813 3026 2020 
Q 2781 2228 2272 2228 
L 1259 2228 
z
M 1259 4147 
L 1259 2741 
L 2194 2741 
Q 2656 2741 2882 2914 
Q 3109 3088 3109 3444 
Q 3109 3797 2882 3972 
Q 2656 4147 2194 4147 
L 1259 4147 
z
M 628 4666 
L 2241 4666 
Q 2963 4666 3353 4366 
Q 3744 4066 3744 3513 
Q 3744 3084 3544 2831 
Q 3344 2578 2956 2516 
Q 3422 2416 3680 2098 
Q 3938 1781 3938 1306 
Q 3938 681 3513 340 
Q 3088 0 2303 0 
L 628 0 
L 628 4666 
z
" transform="scale(0.015625)"/>
     </defs>
     <use xlink:href="#DejaVuSans-4f"/>
     <use xlink:href="#DejaVuSans-64" x="78.710938"/>
     <use xlink:href="#DejaVuSans-70" x="142.1875"/>
     <use xlink:href="#DejaVuSans-6f" x="205.664062"/>
     <use xlink:href="#DejaVuSans-77" x="266.845703"/>
     <use xlink:href="#DejaVuSans-69" x="348.632812"/>
     <use xlink:href="#DejaVuSans-65" x="376.416016"/>
     <use xlink:href="#DejaVuSans-64" x="437.939453"/>
     <use xlink:href="#DejaVuSans-17a" x="501.416016"/>
     <use xlink:href="#DejaVuSans-20" x="553.90625"/>
     <use xlink:href="#DejaVuSans-6e" x="585.693359"/>
     <use xlink:href="#DejaVuSans-61" x="649.072266"/>
     <use xlink:href="#DejaVuSans-20" x="710.351562"/>
     <use xlink:href="#DejaVuSans-70" x="742.138672"/>
     <use xlink:href="#DejaVuSans-79" x="805.615234"/>
     <use xlink:href="#DejaVuSans-74" x="864.794922"/>
     <use xlink:href="#DejaVuSans-61" x="904.003906"/>
     <use xlink:href="#DejaVuSans-6e" x="965.283203"/>
     <use xlink:href="#DejaVuSans-69" x="1028.662109"/>
     <use xlink:href="#DejaVuSans-65" x="1056.445312"/>
     <use xlink:href="#DejaVuSans-20" x="1117.96875"/>
     <use xlink:href="#DejaVuSans-6e" x="1149.755859"/>
     <use xlink:href="#DejaVuSans-72" x="1213.134766"/>
     <use xlink:href="#DejaVuSans-20" x="1254.248047"/>
     <use xlink:href="#DejaVuSans-36" x="1286.035156"/>
     <use xlink:href="#DejaVuSans-20" x="1349.658203"/>
     <use xlink:href="#DejaVuSans-2d" x="1381.445312"/>
     <use xlink:href="#DejaVuSans-20" x="1417.529297"/>
     <use xlink:href="#DejaVuSans-42" x="1449.316406"/>
     <use xlink:href="#DejaVuSans-72" x="1517.919922"/>
     <use xlink:href="#DejaVuSans-61" x="1559.033203"/>
     <use xlink:href="#DejaVuSans-6b" x="1620.3125"/>
    </g>
   </g>
  </g>
  <g id="legend_1">
   <g id="patch_14">
    <path d="M 140.9125 571 
L 435.0875 571 
Q 437.0875 571 437.0875 569 
L 437.0875 555.321875 
Q 437.0875 553.321875 435.0875 553.321875 
L 140.9125 553.321875 
Q 138.9125 553.321875 138.9125 555.321875 
L 138.9125 569 
Q 138.9125 571 140.9125 571 
z
" style="fill: #ffffff; opacity: 0.8; stroke: #cccccc; stroke-linejoin: miter"/>
   </g>
   <g id="patch_15">
    <path d="M 142.9125 564.920313 
L 162.9125 564.920313 
L 162.9125 557.920313 
L 142.9125 557.920313 
z
" style="fill: #003f5c"/>
   </g>
   <g id="text_14">
    <!-- Poprawna -->
    <g transform="translate(170.9125 564.920313) scale(0.1 -0.1)">
     <defs>
      <path id="DejaVuSans-50" d="M 1259 4147 
L 1259 2394 
L 2053 2394 
Q 2494 2394 2734 2622 
Q 2975 2850 2975 3272 
Q 2975 3691 2734 3919 
Q 2494 4147 2053 4147 
L 1259 4147 
z
M 628 4666 
L 2053 4666 
Q 2838 4666 3239 4311 
Q 3641 3956 3641 3272 
Q 3641 2581 3239 2228 
Q 2838 1875 2053 1875 
L 1259 1875 
L 1259 0 
L 628 0 
L 628 4666 
z
" transform="scale(0.015625)"/>
     </defs>
     <use xlink:href="#DejaVuSans-50"/>
     <use xlink:href="#DejaVuSans-6f" x="56.677734"/>
     <use xlink:href="#DejaVuSans-70" x="117.859375"/>
     <use xlink:href="#DejaVuSans-72" x="181.335938"/>
     <use xlink:href="#DejaVuSans-61" x="222.449219"/>
     <use xlink:href="#DejaVuSans-77" x="283.728516"/>
     <use xlink:href="#DejaVuSans-6e" x="365.515625"/>
     <use xlink:href="#DejaVuSans-61" x="428.894531"/>
    </g>
   </g>
   <g id="patch_16">
    <path d="M 239.929688 564.920313 
L 259.929688 564.920313 
L 259.929688 557.920313 
L 239.929688 557.920313 
z
" style="fill: #ffa600"/>
   </g>
   <g id="text_15">
    <!-- Błędna -->
    <g transform="translate(267.929688 564.920313) scale(0.1 -0.1)">
     <defs>
      <path id="DejaVuSans-142" d="M 622 4863 
L 1197 4863 
L 1197 2981 
L 1588 3263 
L 1825 2931 
L 1197 2491 
L 1197 0 
L 622 0 
L 622 2081 
L 238 1806 
L 6 2138 
L 622 2578 
L 622 4863 
z
" transform="scale(0.015625)"/>
      <path id="DejaVuSans-119" d="M 3597 1894 
L 3597 1613 
L 953 1613 
Q 991 1019 1311 708 
Q 1631 397 2203 397 
Q 2534 397 2845 478 
Q 3156 559 3463 722 
L 3463 178 
Q 3153 47 2828 -22 
Q 2503 -91 2169 -91 
Q 1331 -91 842 396 
Q 353 884 353 1716 
Q 353 2575 817 3079 
Q 1281 3584 2069 3584 
Q 2775 3584 3186 3129 
Q 3597 2675 3597 1894 
z
M 3022 2063 
Q 3016 2534 2758 2815 
Q 2500 3097 2075 3097 
Q 1594 3097 1305 2825 
Q 1016 2553 972 2059 
L 3022 2063 
z
M 2551 0 
L 2923 0 
Q 2782 -191 2715 -328 
Q 2648 -466 2648 -563 
Q 2648 -706 2734 -778 
Q 2820 -850 2989 -850 
Q 3089 -850 3185 -826 
Q 3282 -803 3379 -756 
L 3379 -1172 
Q 3260 -1203 3154 -1218 
Q 3048 -1234 2954 -1234 
Q 2573 -1234 2393 -1098 
Q 2214 -963 2214 -672 
Q 2214 -522 2296 -358 
Q 2379 -194 2551 0 
z
" transform="scale(0.015625)"/>
     </defs>
     <use xlink:href="#DejaVuSans-42"/>
     <use xlink:href="#DejaVuSans-142" x="68.603516"/>
     <use xlink:href="#DejaVuSans-119" x="97.021484"/>
     <use xlink:href="#DejaVuSans-64" x="158.544922"/>
     <use xlink:href="#DejaVuSans-6e" x="222.021484"/>
     <use xlink:href="#DejaVuSans-61" x="285.400391"/>
    </g>
   </g>
   <g id="patch_17">
    <path d="M 322.6 564.920313 
L 342.6 564.920313 
L 342.6 557.920313 
L 322.6 557.920313 
z
" style="fill: #bb4e99"/>
   </g>
   <g id="text_16">
    <!-- Brak odpowiedzi -->
    <g transform="translate(350.6 564.920313) scale(0.1 -0.1)">
     <defs>
      <path id="DejaVuSans-7a" d="M 353 3500 
L 3084 3500 
L 3084 2975 
L 922 459 
L 3084 459 
L 3084 0 
L 275 0 
L 275 525 
L 2438 3041 
L 353 3041 
L 353 3500 
z
" transform="scale(0.015625)"/>
     </defs>
     <use xlink:href="#DejaVuSans-42"/>
     <use xlink:href="#DejaVuSans-72" x="68.603516"/>
     <use xlink:href="#DejaVuSans-61" x="109.716797"/>
     <use xlink:href="#DejaVuSans-6b" x="170.996094"/>
     <use xlink:href="#DejaVuSans-20" x="228.90625"/>
     <use xlink:href="#DejaVuSans-6f" x="260.693359"/>
     <use xlink:href="#DejaVuSans-64" x="321.875"/>
     <use xlink:href="#DejaVuSans-70" x="385.351562"/>
     <use xlink:href="#DejaVuSans-6f" x="448.828125"/>
     <use xlink:href="#DejaVuSans-77" x="510.009766"/>
     <use xlink:href="#DejaVuSans-69" x="591.796875"/>
     <use xlink:href="#DejaVuSans-65" x="619.580078"/>
     <use xlink:href="#DejaVuSans-64" x="681.103516"/>
     <use xlink:href="#DejaVuSans-7a" x="744.580078"/>
     <use xlink:href="#DejaVuSans-69" x="797.070312"/>
    </g>
   </g>
  </g>
 </g>
</svg>
