<?xml version="1.0" encoding="utf-8" standalone="no"?>
<!DOCTYPE svg PUBLIC "-//W3C//DTD SVG 1.1//EN"
  "http://www.w3.org/Graphics/SVG/1.1/DTD/svg11.dtd">
<svg xmlns:xlink="http://www.w3.org/1999/xlink" width="856.46125pt" height="351.99625pt" viewBox="0 0 856.46125 351.99625" xmlns="http://www.w3.org/2000/svg" version="1.1">
 <metadata>
  <rdf:RDF xmlns:dc="http://purl.org/dc/elements/1.1/" xmlns:cc="http://creativecommons.org/ns#" xmlns:rdf="http://www.w3.org/1999/02/22-rdf-syntax-ns#">
   <cc:Work>
    <dc:type rdf:resource="http://purl.org/dc/dcmitype/StillImage"/>
    <dc:date>2025-05-21T15:40:32.793763</dc:date>
    <dc:format>image/svg+xml</dc:format>
    <dc:creator>
     <cc:Agent>
      <dc:title>Matplotlib v3.9.2, https://matplotlib.org/</dc:title>
     </cc:Agent>
    </dc:creator>
   </cc:Work>
  </rdf:RDF>
 </metadata>
 <defs>
  <style type="text/css">*{stroke-linejoin: round; stroke-linecap: butt}</style>
 </defs>
 <g id="figure_1">
  <g id="patch_1">
   <path d="M 0 351.99625 
L 856.46125 351.99625 
L 856.46125 0 
L 0 0 
z
" style="fill: #ffffff"/>
  </g>
  <g id="axes_1">
   <g id="patch_2">
    <path d="M 43.78125 314.44 
L 410.06125 314.44 
L 410.06125 7.2 
L 43.78125 7.2 
z
" style="fill: #ffffff"/>
   </g>
   <g id="PolyCollection_1">
    <defs>
     <path id="m3200034f1e" d="M 60.430341 -51.014305 
L 60.430341 -50.960743 
L 82.629129 -50.960743 
L 104.827917 -50.960743 
L 127.026705 -50.960743 
L 149.225492 -50.960743 
L 171.42428 -50.960743 
L 193.623068 -50.971428 
L 215.821856 -170.68151 
L 238.020644 -224.993311 
L 260.219432 -237.459911 
L 282.41822 -237.95457 
L 304.617008 -237.853659 
L 326.815795 -237.586543 
L 349.014583 -241.824783 
L 371.213371 -277.594581 
L 393.412159 -285.293457 
L 393.412159 -285.940471 
L 393.412159 -285.940471 
L 371.213371 -279.414926 
L 349.014583 -245.871096 
L 326.815795 -241.878207 
L 304.617008 -241.816869 
L 282.41822 -242.01869 
L 260.219432 -240.04401 
L 238.020644 -225.106687 
L 215.821856 -175.144721 
L 193.623068 -51.260546 
L 171.42428 -51.014305 
L 149.225492 -51.014305 
L 127.026705 -51.014305 
L 104.827917 -51.014305 
L 82.629129 -51.014305 
L 60.430341 -51.014305 
z
" style="stroke: #003f5c; stroke-opacity: 0.2"/>
    </defs>
    <g clip-path="url(#p7230c88b0c)">
     <use xlink:href="#m3200034f1e" x="0" y="351.99625" style="fill: #003f5c; fill-opacity: 0.2; stroke: #003f5c; stroke-opacity: 0.2"/>
    </g>
   </g>
   <g id="PolyCollection_2">
    <defs>
     <path id="m4242553f77" d="M 60.430341 -54.436179 
L 60.430341 -54.278917 
L 82.629129 -54.278917 
L 104.827917 -54.278917 
L 127.026705 -54.311228 
L 149.225492 -114.221305 
L 171.42428 -225.18049 
L 193.623068 -224.810287 
L 215.821856 -233.049925 
L 238.020644 -245.845374 
L 260.219432 -277.630196 
L 282.41822 -292.851849 
L 304.617008 -292.586712 
L 326.815795 -295.616005 
L 349.014583 -304.618803 
L 371.213371 -316.172063 
L 393.412159 -322.788625 
L 393.412159 -323.23184 
L 393.412159 -323.23184 
L 371.213371 -316.739932 
L 349.014583 -304.771158 
L 326.815795 -296.316443 
L 304.617008 -294.571285 
L 282.41822 -294.138953 
L 260.219432 -280.028304 
L 238.020644 -248.827179 
L 215.821856 -233.903904 
L 193.623068 -226.973927 
L 171.42428 -225.757263 
L 149.225492 -115.70647 
L 127.026705 -54.419024 
L 104.827917 -54.436179 
L 82.629129 -54.436179 
L 60.430341 -54.436179 
z
" style="stroke: #7a5195; stroke-opacity: 0.2"/>
    </defs>
    <g clip-path="url(#p7230c88b0c)">
     <use xlink:href="#m4242553f77" x="0" y="351.99625" style="fill: #7a5195; fill-opacity: 0.2; stroke: #7a5195; stroke-opacity: 0.2"/>
    </g>
   </g>
   <g id="PolyCollection_3">
    <defs>
     <path id="m3777e8b79e" d="M 60.430341 -54.539583 
L 60.430341 -54.458142 
L 82.629129 -54.458142 
L 104.827917 -54.458142 
L 127.026705 -54.459369 
L 149.225492 -73.810615 
L 171.42428 -139.506899 
L 193.623068 -140.282327 
L 215.821856 -223.50221 
L 238.020644 -236.264814 
L 260.219432 -264.129957 
L 282.41822 -274.128009 
L 304.617008 -274.871976 
L 326.815795 -275.380486 
L 349.014583 -282.143467 
L 371.213371 -299.442689 
L 393.412159 -305.099612 
L 393.412159 -306.152246 
L 393.412159 -306.152246 
L 371.213371 -300.218314 
L 349.014583 -282.614382 
L 326.815795 -276.395527 
L 304.617008 -275.602093 
L 282.41822 -274.816574 
L 260.219432 -264.889753 
L 238.020644 -237.101777 
L 215.821856 -224.67851 
L 193.623068 -144.856935 
L 171.42428 -142.227921 
L 149.225492 -74.785688 
L 127.026705 -54.539583 
L 104.827917 -54.539583 
L 82.629129 -54.539583 
L 60.430341 -54.539583 
z
" style="stroke: #ef5675; stroke-opacity: 0.2"/>
    </defs>
    <g clip-path="url(#p7230c88b0c)">
     <use xlink:href="#m3777e8b79e" x="0" y="351.99625" style="fill: #ef5675; fill-opacity: 0.2; stroke: #ef5675; stroke-opacity: 0.2"/>
    </g>
   </g>
   <g id="PolyCollection_4">
    <path d="M 60.430341 298.208213 
L 60.430341 298.223211 
L 82.629129 298.223211 
L 104.827917 298.223211 
L 127.026705 298.166543 
L 149.225492 213.570478 
L 171.42428 126.337721 
L 193.623068 126.130558 
L 215.821856 116.348771 
L 238.020644 88.260042 
L 260.219432 64.373938 
L 260.219432 62.842473 
L 260.219432 62.842473 
L 238.020644 85.933165 
L 215.821856 115.45047 
L 193.623068 125.405783 
L 171.42428 124.312784 
L 149.225492 211.562359 
L 127.026705 298.105739 
L 104.827917 298.208213 
L 82.629129 298.208213 
L 60.430341 298.208213 
z
" clip-path="url(#p7230c88b0c)" style="fill: #ffa600; fill-opacity: 0.2; stroke: #ffa600; stroke-opacity: 0.2"/>
    <path d="M 393.412159 21.192167 
L 393.412159 21.97175 
L 393.412159 21.192167 
L 393.412159 21.192167 
z
" clip-path="url(#p7230c88b0c)" style="fill: #ffa600; fill-opacity: 0.2; stroke: #ffa600; stroke-opacity: 0.2"/>
   </g>
   <g id="matplotlib.axis_1">
    <g id="xtick_1">
     <g id="line2d_1">
      <path d="M 49.330947 314.44 
L 49.330947 7.2 
" clip-path="url(#p7230c88b0c)" style="fill: none; stroke-dasharray: 1.85,0.8; stroke-dashoffset: 0; stroke: #ffffff; stroke-width: 0.5"/>
     </g>
     <g id="line2d_2">
      <defs>
       <path id="m145a8d3f59" d="M 0 0 
L 0 3.5 
" style="stroke: #000000; stroke-width: 0.8"/>
      </defs>
      <g>
       <use xlink:href="#m145a8d3f59" x="49.330947" y="314.44" style="stroke: #000000; stroke-width: 0.8"/>
      </g>
     </g>
     <g id="text_1">
      <!-- 0 -->
      <g transform="translate(46.149697 329.038437) scale(0.1 -0.1)">
       <defs>
        <path id="DejaVuSans-30" d="M 2034 4250 
Q 1547 4250 1301 3770 
Q 1056 3291 1056 2328 
Q 1056 1369 1301 889 
Q 1547 409 2034 409 
Q 2525 409 2770 889 
Q 3016 1369 3016 2328 
Q 3016 3291 2770 3770 
Q 2525 4250 2034 4250 
z
M 2034 4750 
Q 2819 4750 3233 4129 
Q 3647 3509 3647 2328 
Q 3647 1150 3233 529 
Q 2819 -91 2034 -91 
Q 1250 -91 836 529 
Q 422 1150 422 2328 
Q 422 3509 836 4129 
Q 1250 4750 2034 4750 
z
" transform="scale(0.015625)"/>
       </defs>
       <use xlink:href="#DejaVuSans-30"/>
      </g>
     </g>
    </g>
    <g id="xtick_2">
     <g id="line2d_3">
      <path d="M 104.827917 314.44 
L 104.827917 7.2 
" clip-path="url(#p7230c88b0c)" style="fill: none; stroke-dasharray: 1.85,0.8; stroke-dashoffset: 0; stroke: #ffffff; stroke-width: 0.5"/>
     </g>
     <g id="line2d_4">
      <g>
       <use xlink:href="#m145a8d3f59" x="104.827917" y="314.44" style="stroke: #000000; stroke-width: 0.8"/>
      </g>
     </g>
     <g id="text_2">
      <!-- 5 -->
      <g transform="translate(101.646667 329.038437) scale(0.1 -0.1)">
       <defs>
        <path id="DejaVuSans-35" d="M 691 4666 
L 3169 4666 
L 3169 4134 
L 1269 4134 
L 1269 2991 
Q 1406 3038 1543 3061 
Q 1681 3084 1819 3084 
Q 2600 3084 3056 2656 
Q 3513 2228 3513 1497 
Q 3513 744 3044 326 
Q 2575 -91 1722 -91 
Q 1428 -91 1123 -41 
Q 819 9 494 109 
L 494 744 
Q 775 591 1075 516 
Q 1375 441 1709 441 
Q 2250 441 2565 725 
Q 2881 1009 2881 1497 
Q 2881 1984 2565 2268 
Q 2250 2553 1709 2553 
Q 1456 2553 1204 2497 
Q 953 2441 691 2322 
L 691 4666 
z
" transform="scale(0.015625)"/>
       </defs>
       <use xlink:href="#DejaVuSans-35"/>
      </g>
     </g>
    </g>
    <g id="xtick_3">
     <g id="line2d_5">
      <path d="M 160.324886 314.44 
L 160.324886 7.2 
" clip-path="url(#p7230c88b0c)" style="fill: none; stroke-dasharray: 1.85,0.8; stroke-dashoffset: 0; stroke: #ffffff; stroke-width: 0.5"/>
     </g>
     <g id="line2d_6">
      <g>
       <use xlink:href="#m145a8d3f59" x="160.324886" y="314.44" style="stroke: #000000; stroke-width: 0.8"/>
      </g>
     </g>
     <g id="text_3">
      <!-- 10 -->
      <g transform="translate(153.962386 329.038437) scale(0.1 -0.1)">
       <defs>
        <path id="DejaVuSans-31" d="M 794 531 
L 1825 531 
L 1825 4091 
L 703 3866 
L 703 4441 
L 1819 4666 
L 2450 4666 
L 2450 531 
L 3481 531 
L 3481 0 
L 794 0 
L 794 531 
z
" transform="scale(0.015625)"/>
       </defs>
       <use xlink:href="#DejaVuSans-31"/>
       <use xlink:href="#DejaVuSans-30" x="63.623047"/>
      </g>
     </g>
    </g>
    <g id="xtick_4">
     <g id="line2d_7">
      <path d="M 215.821856 314.44 
L 215.821856 7.2 
" clip-path="url(#p7230c88b0c)" style="fill: none; stroke-dasharray: 1.85,0.8; stroke-dashoffset: 0; stroke: #ffffff; stroke-width: 0.5"/>
     </g>
     <g id="line2d_8">
      <g>
       <use xlink:href="#m145a8d3f59" x="215.821856" y="314.44" style="stroke: #000000; stroke-width: 0.8"/>
      </g>
     </g>
     <g id="text_4">
      <!-- 15 -->
      <g transform="translate(209.459356 329.038437) scale(0.1 -0.1)">
       <use xlink:href="#DejaVuSans-31"/>
       <use xlink:href="#DejaVuSans-35" x="63.623047"/>
      </g>
     </g>
    </g>
    <g id="xtick_5">
     <g id="line2d_9">
      <path d="M 271.318826 314.44 
L 271.318826 7.2 
" clip-path="url(#p7230c88b0c)" style="fill: none; stroke-dasharray: 1.85,0.8; stroke-dashoffset: 0; stroke: #ffffff; stroke-width: 0.5"/>
     </g>
     <g id="line2d_10">
      <g>
       <use xlink:href="#m145a8d3f59" x="271.318826" y="314.44" style="stroke: #000000; stroke-width: 0.8"/>
      </g>
     </g>
     <g id="text_5">
      <!-- 20 -->
      <g transform="translate(264.956326 329.038437) scale(0.1 -0.1)">
       <defs>
        <path id="DejaVuSans-32" d="M 1228 531 
L 3431 531 
L 3431 0 
L 469 0 
L 469 531 
Q 828 903 1448 1529 
Q 2069 2156 2228 2338 
Q 2531 2678 2651 2914 
Q 2772 3150 2772 3378 
Q 2772 3750 2511 3984 
Q 2250 4219 1831 4219 
Q 1534 4219 1204 4116 
Q 875 4013 500 3803 
L 500 4441 
Q 881 4594 1212 4672 
Q 1544 4750 1819 4750 
Q 2544 4750 2975 4387 
Q 3406 4025 3406 3419 
Q 3406 3131 3298 2873 
Q 3191 2616 2906 2266 
Q 2828 2175 2409 1742 
Q 1991 1309 1228 531 
z
" transform="scale(0.015625)"/>
       </defs>
       <use xlink:href="#DejaVuSans-32"/>
       <use xlink:href="#DejaVuSans-30" x="63.623047"/>
      </g>
     </g>
    </g>
    <g id="xtick_6">
     <g id="line2d_11">
      <path d="M 326.815795 314.44 
L 326.815795 7.2 
" clip-path="url(#p7230c88b0c)" style="fill: none; stroke-dasharray: 1.85,0.8; stroke-dashoffset: 0; stroke: #ffffff; stroke-width: 0.5"/>
     </g>
     <g id="line2d_12">
      <g>
       <use xlink:href="#m145a8d3f59" x="326.815795" y="314.44" style="stroke: #000000; stroke-width: 0.8"/>
      </g>
     </g>
     <g id="text_6">
      <!-- 25 -->
      <g transform="translate(320.453295 329.038437) scale(0.1 -0.1)">
       <use xlink:href="#DejaVuSans-32"/>
       <use xlink:href="#DejaVuSans-35" x="63.623047"/>
      </g>
     </g>
    </g>
    <g id="xtick_7">
     <g id="line2d_13">
      <path d="M 382.312765 314.44 
L 382.312765 7.2 
" clip-path="url(#p7230c88b0c)" style="fill: none; stroke-dasharray: 1.85,0.8; stroke-dashoffset: 0; stroke: #ffffff; stroke-width: 0.5"/>
     </g>
     <g id="line2d_14">
      <g>
       <use xlink:href="#m145a8d3f59" x="382.312765" y="314.44" style="stroke: #000000; stroke-width: 0.8"/>
      </g>
     </g>
     <g id="text_7">
      <!-- 30 -->
      <g transform="translate(375.950265 329.038437) scale(0.1 -0.1)">
       <defs>
        <path id="DejaVuSans-33" d="M 2597 2516 
Q 3050 2419 3304 2112 
Q 3559 1806 3559 1356 
Q 3559 666 3084 287 
Q 2609 -91 1734 -91 
Q 1441 -91 1130 -33 
Q 819 25 488 141 
L 488 750 
Q 750 597 1062 519 
Q 1375 441 1716 441 
Q 2309 441 2620 675 
Q 2931 909 2931 1356 
Q 2931 1769 2642 2001 
Q 2353 2234 1838 2234 
L 1294 2234 
L 1294 2753 
L 1863 2753 
Q 2328 2753 2575 2939 
Q 2822 3125 2822 3475 
Q 2822 3834 2567 4026 
Q 2313 4219 1838 4219 
Q 1578 4219 1281 4162 
Q 984 4106 628 3988 
L 628 4550 
Q 988 4650 1302 4700 
Q 1616 4750 1894 4750 
Q 2613 4750 3031 4423 
Q 3450 4097 3450 3541 
Q 3450 3153 3228 2886 
Q 3006 2619 2597 2516 
z
" transform="scale(0.015625)"/>
       </defs>
       <use xlink:href="#DejaVuSans-33"/>
       <use xlink:href="#DejaVuSans-30" x="63.623047"/>
      </g>
     </g>
    </g>
    <g id="text_8">
     <!-- Distance between APs [m] -->
     <g transform="translate(160.945469 342.716562) scale(0.1 -0.1)">
      <defs>
       <path id="DejaVuSans-44" d="M 1259 4147 
L 1259 519 
L 2022 519 
Q 2988 519 3436 956 
Q 3884 1394 3884 2338 
Q 3884 3275 3436 3711 
Q 2988 4147 2022 4147 
L 1259 4147 
z
M 628 4666 
L 1925 4666 
Q 3281 4666 3915 4102 
Q 4550 3538 4550 2338 
Q 4550 1131 3912 565 
Q 3275 0 1925 0 
L 628 0 
L 628 4666 
z
" transform="scale(0.015625)"/>
       <path id="DejaVuSans-69" d="M 603 3500 
L 1178 3500 
L 1178 0 
L 603 0 
L 603 3500 
z
M 603 4863 
L 1178 4863 
L 1178 4134 
L 603 4134 
L 603 4863 
z
" transform="scale(0.015625)"/>
       <path id="DejaVuSans-73" d="M 2834 3397 
L 2834 2853 
Q 2591 2978 2328 3040 
Q 2066 3103 1784 3103 
Q 1356 3103 1142 2972 
Q 928 2841 928 2578 
Q 928 2378 1081 2264 
Q 1234 2150 1697 2047 
L 1894 2003 
Q 2506 1872 2764 1633 
Q 3022 1394 3022 966 
Q 3022 478 2636 193 
Q 2250 -91 1575 -91 
Q 1294 -91 989 -36 
Q 684 19 347 128 
L 347 722 
Q 666 556 975 473 
Q 1284 391 1588 391 
Q 1994 391 2212 530 
Q 2431 669 2431 922 
Q 2431 1156 2273 1281 
Q 2116 1406 1581 1522 
L 1381 1569 
Q 847 1681 609 1914 
Q 372 2147 372 2553 
Q 372 3047 722 3315 
Q 1072 3584 1716 3584 
Q 2034 3584 2315 3537 
Q 2597 3491 2834 3397 
z
" transform="scale(0.015625)"/>
       <path id="DejaVuSans-74" d="M 1172 4494 
L 1172 3500 
L 2356 3500 
L 2356 3053 
L 1172 3053 
L 1172 1153 
Q 1172 725 1289 603 
Q 1406 481 1766 481 
L 2356 481 
L 2356 0 
L 1766 0 
Q 1100 0 847 248 
Q 594 497 594 1153 
L 594 3053 
L 172 3053 
L 172 3500 
L 594 3500 
L 594 4494 
L 1172 4494 
z
" transform="scale(0.015625)"/>
       <path id="DejaVuSans-61" d="M 2194 1759 
Q 1497 1759 1228 1600 
Q 959 1441 959 1056 
Q 959 750 1161 570 
Q 1363 391 1709 391 
Q 2188 391 2477 730 
Q 2766 1069 2766 1631 
L 2766 1759 
L 2194 1759 
z
M 3341 1997 
L 3341 0 
L 2766 0 
L 2766 531 
Q 2569 213 2275 61 
Q 1981 -91 1556 -91 
Q 1019 -91 701 211 
Q 384 513 384 1019 
Q 384 1609 779 1909 
Q 1175 2209 1959 2209 
L 2766 2209 
L 2766 2266 
Q 2766 2663 2505 2880 
Q 2244 3097 1772 3097 
Q 1472 3097 1187 3025 
Q 903 2953 641 2809 
L 641 3341 
Q 956 3463 1253 3523 
Q 1550 3584 1831 3584 
Q 2591 3584 2966 3190 
Q 3341 2797 3341 1997 
z
" transform="scale(0.015625)"/>
       <path id="DejaVuSans-6e" d="M 3513 2113 
L 3513 0 
L 2938 0 
L 2938 2094 
Q 2938 2591 2744 2837 
Q 2550 3084 2163 3084 
Q 1697 3084 1428 2787 
Q 1159 2491 1159 1978 
L 1159 0 
L 581 0 
L 581 3500 
L 1159 3500 
L 1159 2956 
Q 1366 3272 1645 3428 
Q 1925 3584 2291 3584 
Q 2894 3584 3203 3211 
Q 3513 2838 3513 2113 
z
" transform="scale(0.015625)"/>
       <path id="DejaVuSans-63" d="M 3122 3366 
L 3122 2828 
Q 2878 2963 2633 3030 
Q 2388 3097 2138 3097 
Q 1578 3097 1268 2742 
Q 959 2388 959 1747 
Q 959 1106 1268 751 
Q 1578 397 2138 397 
Q 2388 397 2633 464 
Q 2878 531 3122 666 
L 3122 134 
Q 2881 22 2623 -34 
Q 2366 -91 2075 -91 
Q 1284 -91 818 406 
Q 353 903 353 1747 
Q 353 2603 823 3093 
Q 1294 3584 2113 3584 
Q 2378 3584 2631 3529 
Q 2884 3475 3122 3366 
z
" transform="scale(0.015625)"/>
       <path id="DejaVuSans-65" d="M 3597 1894 
L 3597 1613 
L 953 1613 
Q 991 1019 1311 708 
Q 1631 397 2203 397 
Q 2534 397 2845 478 
Q 3156 559 3463 722 
L 3463 178 
Q 3153 47 2828 -22 
Q 2503 -91 2169 -91 
Q 1331 -91 842 396 
Q 353 884 353 1716 
Q 353 2575 817 3079 
Q 1281 3584 2069 3584 
Q 2775 3584 3186 3129 
Q 3597 2675 3597 1894 
z
M 3022 2063 
Q 3016 2534 2758 2815 
Q 2500 3097 2075 3097 
Q 1594 3097 1305 2825 
Q 1016 2553 972 2059 
L 3022 2063 
z
" transform="scale(0.015625)"/>
       <path id="DejaVuSans-20" transform="scale(0.015625)"/>
       <path id="DejaVuSans-62" d="M 3116 1747 
Q 3116 2381 2855 2742 
Q 2594 3103 2138 3103 
Q 1681 3103 1420 2742 
Q 1159 2381 1159 1747 
Q 1159 1113 1420 752 
Q 1681 391 2138 391 
Q 2594 391 2855 752 
Q 3116 1113 3116 1747 
z
M 1159 2969 
Q 1341 3281 1617 3432 
Q 1894 3584 2278 3584 
Q 2916 3584 3314 3078 
Q 3713 2572 3713 1747 
Q 3713 922 3314 415 
Q 2916 -91 2278 -91 
Q 1894 -91 1617 61 
Q 1341 213 1159 525 
L 1159 0 
L 581 0 
L 581 4863 
L 1159 4863 
L 1159 2969 
z
" transform="scale(0.015625)"/>
       <path id="DejaVuSans-77" d="M 269 3500 
L 844 3500 
L 1563 769 
L 2278 3500 
L 2956 3500 
L 3675 769 
L 4391 3500 
L 4966 3500 
L 4050 0 
L 3372 0 
L 2619 2869 
L 1863 0 
L 1184 0 
L 269 3500 
z
" transform="scale(0.015625)"/>
       <path id="DejaVuSans-41" d="M 2188 4044 
L 1331 1722 
L 3047 1722 
L 2188 4044 
z
M 1831 4666 
L 2547 4666 
L 4325 0 
L 3669 0 
L 3244 1197 
L 1141 1197 
L 716 0 
L 50 0 
L 1831 4666 
z
" transform="scale(0.015625)"/>
       <path id="DejaVuSans-50" d="M 1259 4147 
L 1259 2394 
L 2053 2394 
Q 2494 2394 2734 2622 
Q 2975 2850 2975 3272 
Q 2975 3691 2734 3919 
Q 2494 4147 2053 4147 
L 1259 4147 
z
M 628 4666 
L 2053 4666 
Q 2838 4666 3239 4311 
Q 3641 3956 3641 3272 
Q 3641 2581 3239 2228 
Q 2838 1875 2053 1875 
L 1259 1875 
L 1259 0 
L 628 0 
L 628 4666 
z
" transform="scale(0.015625)"/>
       <path id="DejaVuSans-5b" d="M 550 4863 
L 1875 4863 
L 1875 4416 
L 1125 4416 
L 1125 -397 
L 1875 -397 
L 1875 -844 
L 550 -844 
L 550 4863 
z
" transform="scale(0.015625)"/>
       <path id="DejaVuSans-6d" d="M 3328 2828 
Q 3544 3216 3844 3400 
Q 4144 3584 4550 3584 
Q 5097 3584 5394 3201 
Q 5691 2819 5691 2113 
L 5691 0 
L 5113 0 
L 5113 2094 
Q 5113 2597 4934 2840 
Q 4756 3084 4391 3084 
Q 3944 3084 3684 2787 
Q 3425 2491 3425 1978 
L 3425 0 
L 2847 0 
L 2847 2094 
Q 2847 2600 2669 2842 
Q 2491 3084 2119 3084 
Q 1678 3084 1418 2786 
Q 1159 2488 1159 1978 
L 1159 0 
L 581 0 
L 581 3500 
L 1159 3500 
L 1159 2956 
Q 1356 3278 1631 3431 
Q 1906 3584 2284 3584 
Q 2666 3584 2933 3390 
Q 3200 3197 3328 2828 
z
" transform="scale(0.015625)"/>
       <path id="DejaVuSans-5d" d="M 1947 4863 
L 1947 -844 
L 622 -844 
L 622 -397 
L 1369 -397 
L 1369 4416 
L 622 4416 
L 622 4863 
L 1947 4863 
z
" transform="scale(0.015625)"/>
      </defs>
      <use xlink:href="#DejaVuSans-44"/>
      <use xlink:href="#DejaVuSans-69" x="77.001953"/>
      <use xlink:href="#DejaVuSans-73" x="104.785156"/>
      <use xlink:href="#DejaVuSans-74" x="156.884766"/>
      <use xlink:href="#DejaVuSans-61" x="196.09375"/>
      <use xlink:href="#DejaVuSans-6e" x="257.373047"/>
      <use xlink:href="#DejaVuSans-63" x="320.751953"/>
      <use xlink:href="#DejaVuSans-65" x="375.732422"/>
      <use xlink:href="#DejaVuSans-20" x="437.255859"/>
      <use xlink:href="#DejaVuSans-62" x="469.042969"/>
      <use xlink:href="#DejaVuSans-65" x="532.519531"/>
      <use xlink:href="#DejaVuSans-74" x="594.042969"/>
      <use xlink:href="#DejaVuSans-77" x="633.251953"/>
      <use xlink:href="#DejaVuSans-65" x="715.039062"/>
      <use xlink:href="#DejaVuSans-65" x="776.5625"/>
      <use xlink:href="#DejaVuSans-6e" x="838.085938"/>
      <use xlink:href="#DejaVuSans-20" x="901.464844"/>
      <use xlink:href="#DejaVuSans-41" x="933.251953"/>
      <use xlink:href="#DejaVuSans-50" x="1001.660156"/>
      <use xlink:href="#DejaVuSans-73" x="1060.212891"/>
      <use xlink:href="#DejaVuSans-20" x="1112.3125"/>
      <use xlink:href="#DejaVuSans-5b" x="1144.099609"/>
      <use xlink:href="#DejaVuSans-6d" x="1183.113281"/>
      <use xlink:href="#DejaVuSans-5d" x="1280.525391"/>
     </g>
    </g>
   </g>
   <g id="matplotlib.axis_2">
    <g id="ytick_1">
     <g id="line2d_15">
      <path d="M 43.78125 314.44 
L 410.06125 314.44 
" clip-path="url(#p7230c88b0c)" style="fill: none; stroke-dasharray: 1.85,0.8; stroke-dashoffset: 0; stroke: #ffffff; stroke-width: 0.5"/>
     </g>
     <g id="line2d_16">
      <defs>
       <path id="me37d6a298f" d="M 0 0 
L -3.5 0 
" style="stroke: #000000; stroke-width: 0.8"/>
      </defs>
      <g>
       <use xlink:href="#me37d6a298f" x="43.78125" y="314.44" style="stroke: #000000; stroke-width: 0.8"/>
      </g>
     </g>
     <g id="text_9">
      <!-- 0.0 -->
      <g transform="translate(20.878125 318.239219) scale(0.1 -0.1)">
       <defs>
        <path id="DejaVuSans-2e" d="M 684 794 
L 1344 794 
L 1344 0 
L 684 0 
L 684 794 
z
" transform="scale(0.015625)"/>
       </defs>
       <use xlink:href="#DejaVuSans-30"/>
       <use xlink:href="#DejaVuSans-2e" x="63.623047"/>
       <use xlink:href="#DejaVuSans-30" x="95.410156"/>
      </g>
     </g>
    </g>
    <g id="ytick_2">
     <g id="line2d_17">
      <path d="M 43.78125 274.867263 
L 410.06125 274.867263 
" clip-path="url(#p7230c88b0c)" style="fill: none; stroke-dasharray: 1.85,0.8; stroke-dashoffset: 0; stroke: #ffffff; stroke-width: 0.5"/>
     </g>
     <g id="line2d_18">
      <g>
       <use xlink:href="#me37d6a298f" x="43.78125" y="274.867263" style="stroke: #000000; stroke-width: 0.8"/>
      </g>
     </g>
     <g id="text_10">
      <!-- 0.2 -->
      <g transform="translate(20.878125 278.666482) scale(0.1 -0.1)">
       <use xlink:href="#DejaVuSans-30"/>
       <use xlink:href="#DejaVuSans-2e" x="63.623047"/>
       <use xlink:href="#DejaVuSans-32" x="95.410156"/>
      </g>
     </g>
    </g>
    <g id="ytick_3">
     <g id="line2d_19">
      <path d="M 43.78125 235.294526 
L 410.06125 235.294526 
" clip-path="url(#p7230c88b0c)" style="fill: none; stroke-dasharray: 1.85,0.8; stroke-dashoffset: 0; stroke: #ffffff; stroke-width: 0.5"/>
     </g>
     <g id="line2d_20">
      <g>
       <use xlink:href="#me37d6a298f" x="43.78125" y="235.294526" style="stroke: #000000; stroke-width: 0.8"/>
      </g>
     </g>
     <g id="text_11">
      <!-- 0.4 -->
      <g transform="translate(20.878125 239.093744) scale(0.1 -0.1)">
       <defs>
        <path id="DejaVuSans-34" d="M 2419 4116 
L 825 1625 
L 2419 1625 
L 2419 4116 
z
M 2253 4666 
L 3047 4666 
L 3047 1625 
L 3713 1625 
L 3713 1100 
L 3047 1100 
L 3047 0 
L 2419 0 
L 2419 1100 
L 313 1100 
L 313 1709 
L 2253 4666 
z
" transform="scale(0.015625)"/>
       </defs>
       <use xlink:href="#DejaVuSans-30"/>
       <use xlink:href="#DejaVuSans-2e" x="63.623047"/>
       <use xlink:href="#DejaVuSans-34" x="95.410156"/>
      </g>
     </g>
    </g>
    <g id="ytick_4">
     <g id="line2d_21">
      <path d="M 43.78125 195.721788 
L 410.06125 195.721788 
" clip-path="url(#p7230c88b0c)" style="fill: none; stroke-dasharray: 1.85,0.8; stroke-dashoffset: 0; stroke: #ffffff; stroke-width: 0.5"/>
     </g>
     <g id="line2d_22">
      <g>
       <use xlink:href="#me37d6a298f" x="43.78125" y="195.721788" style="stroke: #000000; stroke-width: 0.8"/>
      </g>
     </g>
     <g id="text_12">
      <!-- 0.6 -->
      <g transform="translate(20.878125 199.521007) scale(0.1 -0.1)">
       <defs>
        <path id="DejaVuSans-36" d="M 2113 2584 
Q 1688 2584 1439 2293 
Q 1191 2003 1191 1497 
Q 1191 994 1439 701 
Q 1688 409 2113 409 
Q 2538 409 2786 701 
Q 3034 994 3034 1497 
Q 3034 2003 2786 2293 
Q 2538 2584 2113 2584 
z
M 3366 4563 
L 3366 3988 
Q 3128 4100 2886 4159 
Q 2644 4219 2406 4219 
Q 1781 4219 1451 3797 
Q 1122 3375 1075 2522 
Q 1259 2794 1537 2939 
Q 1816 3084 2150 3084 
Q 2853 3084 3261 2657 
Q 3669 2231 3669 1497 
Q 3669 778 3244 343 
Q 2819 -91 2113 -91 
Q 1303 -91 875 529 
Q 447 1150 447 2328 
Q 447 3434 972 4092 
Q 1497 4750 2381 4750 
Q 2619 4750 2861 4703 
Q 3103 4656 3366 4563 
z
" transform="scale(0.015625)"/>
       </defs>
       <use xlink:href="#DejaVuSans-30"/>
       <use xlink:href="#DejaVuSans-2e" x="63.623047"/>
       <use xlink:href="#DejaVuSans-36" x="95.410156"/>
      </g>
     </g>
    </g>
    <g id="ytick_5">
     <g id="line2d_23">
      <path d="M 43.78125 156.149051 
L 410.06125 156.149051 
" clip-path="url(#p7230c88b0c)" style="fill: none; stroke-dasharray: 1.85,0.8; stroke-dashoffset: 0; stroke: #ffffff; stroke-width: 0.5"/>
     </g>
     <g id="line2d_24">
      <g>
       <use xlink:href="#me37d6a298f" x="43.78125" y="156.149051" style="stroke: #000000; stroke-width: 0.8"/>
      </g>
     </g>
     <g id="text_13">
      <!-- 0.8 -->
      <g transform="translate(20.878125 159.94827) scale(0.1 -0.1)">
       <defs>
        <path id="DejaVuSans-38" d="M 2034 2216 
Q 1584 2216 1326 1975 
Q 1069 1734 1069 1313 
Q 1069 891 1326 650 
Q 1584 409 2034 409 
Q 2484 409 2743 651 
Q 3003 894 3003 1313 
Q 3003 1734 2745 1975 
Q 2488 2216 2034 2216 
z
M 1403 2484 
Q 997 2584 770 2862 
Q 544 3141 544 3541 
Q 544 4100 942 4425 
Q 1341 4750 2034 4750 
Q 2731 4750 3128 4425 
Q 3525 4100 3525 3541 
Q 3525 3141 3298 2862 
Q 3072 2584 2669 2484 
Q 3125 2378 3379 2068 
Q 3634 1759 3634 1313 
Q 3634 634 3220 271 
Q 2806 -91 2034 -91 
Q 1263 -91 848 271 
Q 434 634 434 1313 
Q 434 1759 690 2068 
Q 947 2378 1403 2484 
z
M 1172 3481 
Q 1172 3119 1398 2916 
Q 1625 2713 2034 2713 
Q 2441 2713 2670 2916 
Q 2900 3119 2900 3481 
Q 2900 3844 2670 4047 
Q 2441 4250 2034 4250 
Q 1625 4250 1398 4047 
Q 1172 3844 1172 3481 
z
" transform="scale(0.015625)"/>
       </defs>
       <use xlink:href="#DejaVuSans-30"/>
       <use xlink:href="#DejaVuSans-2e" x="63.623047"/>
       <use xlink:href="#DejaVuSans-38" x="95.410156"/>
      </g>
     </g>
    </g>
    <g id="ytick_6">
     <g id="line2d_25">
      <path d="M 43.78125 116.576314 
L 410.06125 116.576314 
" clip-path="url(#p7230c88b0c)" style="fill: none; stroke-dasharray: 1.85,0.8; stroke-dashoffset: 0; stroke: #ffffff; stroke-width: 0.5"/>
     </g>
     <g id="line2d_26">
      <g>
       <use xlink:href="#me37d6a298f" x="43.78125" y="116.576314" style="stroke: #000000; stroke-width: 0.8"/>
      </g>
     </g>
     <g id="text_14">
      <!-- 1.0 -->
      <g transform="translate(20.878125 120.375533) scale(0.1 -0.1)">
       <use xlink:href="#DejaVuSans-31"/>
       <use xlink:href="#DejaVuSans-2e" x="63.623047"/>
       <use xlink:href="#DejaVuSans-30" x="95.410156"/>
      </g>
     </g>
    </g>
    <g id="ytick_7">
     <g id="line2d_27">
      <path d="M 43.78125 77.003577 
L 410.06125 77.003577 
" clip-path="url(#p7230c88b0c)" style="fill: none; stroke-dasharray: 1.85,0.8; stroke-dashoffset: 0; stroke: #ffffff; stroke-width: 0.5"/>
     </g>
     <g id="line2d_28">
      <g>
       <use xlink:href="#me37d6a298f" x="43.78125" y="77.003577" style="stroke: #000000; stroke-width: 0.8"/>
      </g>
     </g>
     <g id="text_15">
      <!-- 1.2 -->
      <g transform="translate(20.878125 80.802796) scale(0.1 -0.1)">
       <use xlink:href="#DejaVuSans-31"/>
       <use xlink:href="#DejaVuSans-2e" x="63.623047"/>
       <use xlink:href="#DejaVuSans-32" x="95.410156"/>
      </g>
     </g>
    </g>
    <g id="ytick_8">
     <g id="line2d_29">
      <path d="M 43.78125 37.43084 
L 410.06125 37.43084 
" clip-path="url(#p7230c88b0c)" style="fill: none; stroke-dasharray: 1.85,0.8; stroke-dashoffset: 0; stroke: #ffffff; stroke-width: 0.5"/>
     </g>
     <g id="line2d_30">
      <g>
       <use xlink:href="#me37d6a298f" x="43.78125" y="37.43084" style="stroke: #000000; stroke-width: 0.8"/>
      </g>
     </g>
     <g id="text_16">
      <!-- 1.4 -->
      <g transform="translate(20.878125 41.230058) scale(0.1 -0.1)">
       <use xlink:href="#DejaVuSans-31"/>
       <use xlink:href="#DejaVuSans-2e" x="63.623047"/>
       <use xlink:href="#DejaVuSans-34" x="95.410156"/>
      </g>
     </g>
    </g>
    <g id="text_17">
     <!-- Latency [s] -->
     <g transform="translate(14.798438 188.679375) rotate(-90) scale(0.1 -0.1)">
      <defs>
       <path id="DejaVuSans-4c" d="M 628 4666 
L 1259 4666 
L 1259 531 
L 3531 531 
L 3531 0 
L 628 0 
L 628 4666 
z
" transform="scale(0.015625)"/>
       <path id="DejaVuSans-79" d="M 2059 -325 
Q 1816 -950 1584 -1140 
Q 1353 -1331 966 -1331 
L 506 -1331 
L 506 -850 
L 844 -850 
Q 1081 -850 1212 -737 
Q 1344 -625 1503 -206 
L 1606 56 
L 191 3500 
L 800 3500 
L 1894 763 
L 2988 3500 
L 3597 3500 
L 2059 -325 
z
" transform="scale(0.015625)"/>
      </defs>
      <use xlink:href="#DejaVuSans-4c"/>
      <use xlink:href="#DejaVuSans-61" x="55.712891"/>
      <use xlink:href="#DejaVuSans-74" x="116.992188"/>
      <use xlink:href="#DejaVuSans-65" x="156.201172"/>
      <use xlink:href="#DejaVuSans-6e" x="217.724609"/>
      <use xlink:href="#DejaVuSans-63" x="281.103516"/>
      <use xlink:href="#DejaVuSans-79" x="336.083984"/>
      <use xlink:href="#DejaVuSans-20" x="395.263672"/>
      <use xlink:href="#DejaVuSans-5b" x="427.050781"/>
      <use xlink:href="#DejaVuSans-73" x="466.064453"/>
      <use xlink:href="#DejaVuSans-5d" x="518.164062"/>
     </g>
    </g>
   </g>
   <g id="line2d_31">
    <path d="M 60.430341 301.00189 
L 82.629129 301.00189 
L 104.827917 301.00189 
L 127.026705 301.00189 
L 149.225492 301.00189 
L 171.42428 301.00189 
L 193.623068 300.874934 
L 215.821856 179.653872 
L 238.020644 126.959607 
L 260.219432 113.526575 
L 282.41822 111.556512 
L 304.617008 111.677869 
L 326.815795 111.712165 
L 349.014583 107.74236 
L 371.213371 73.221742 
L 393.412159 66.437656 
" clip-path="url(#p7230c88b0c)" style="fill: none; stroke: #003f5c; stroke-width: 1.5; stroke-linecap: square"/>
    <defs>
     <path id="m6a1d2050f1" d="M 0 4 
C 1.060812 4 2.078319 3.578535 2.828427 2.828427 
C 3.578535 2.078319 4 1.060812 4 0 
C 4 -1.060812 3.578535 -2.078319 2.828427 -2.828427 
C 2.078319 -3.578535 1.060812 -4 0 -4 
C -1.060812 -4 -2.078319 -3.578535 -2.828427 -2.828427 
C -3.578535 -2.078319 -4 -1.060812 -4 0 
C -4 1.060812 -3.578535 2.078319 -2.828427 2.828427 
C -2.078319 3.578535 -1.060812 4 0 4 
z
" style="stroke: #ffffff; stroke-width: 0.75"/>
    </defs>
    <g clip-path="url(#p7230c88b0c)">
     <use xlink:href="#m6a1d2050f1" x="60.430341" y="301.00189" style="fill: #003f5c; stroke: #ffffff; stroke-width: 0.75"/>
     <use xlink:href="#m6a1d2050f1" x="82.629129" y="301.00189" style="fill: #003f5c; stroke: #ffffff; stroke-width: 0.75"/>
     <use xlink:href="#m6a1d2050f1" x="104.827917" y="301.00189" style="fill: #003f5c; stroke: #ffffff; stroke-width: 0.75"/>
     <use xlink:href="#m6a1d2050f1" x="127.026705" y="301.00189" style="fill: #003f5c; stroke: #ffffff; stroke-width: 0.75"/>
     <use xlink:href="#m6a1d2050f1" x="149.225492" y="301.00189" style="fill: #003f5c; stroke: #ffffff; stroke-width: 0.75"/>
     <use xlink:href="#m6a1d2050f1" x="171.42428" y="301.00189" style="fill: #003f5c; stroke: #ffffff; stroke-width: 0.75"/>
     <use xlink:href="#m6a1d2050f1" x="193.623068" y="300.874934" style="fill: #003f5c; stroke: #ffffff; stroke-width: 0.75"/>
     <use xlink:href="#m6a1d2050f1" x="215.821856" y="179.653872" style="fill: #003f5c; stroke: #ffffff; stroke-width: 0.75"/>
     <use xlink:href="#m6a1d2050f1" x="238.020644" y="126.959607" style="fill: #003f5c; stroke: #ffffff; stroke-width: 0.75"/>
     <use xlink:href="#m6a1d2050f1" x="260.219432" y="113.526575" style="fill: #003f5c; stroke: #ffffff; stroke-width: 0.75"/>
     <use xlink:href="#m6a1d2050f1" x="282.41822" y="111.556512" style="fill: #003f5c; stroke: #ffffff; stroke-width: 0.75"/>
     <use xlink:href="#m6a1d2050f1" x="304.617008" y="111.677869" style="fill: #003f5c; stroke: #ffffff; stroke-width: 0.75"/>
     <use xlink:href="#m6a1d2050f1" x="326.815795" y="111.712165" style="fill: #003f5c; stroke: #ffffff; stroke-width: 0.75"/>
     <use xlink:href="#m6a1d2050f1" x="349.014583" y="107.74236" style="fill: #003f5c; stroke: #ffffff; stroke-width: 0.75"/>
     <use xlink:href="#m6a1d2050f1" x="371.213371" y="73.221742" style="fill: #003f5c; stroke: #ffffff; stroke-width: 0.75"/>
     <use xlink:href="#m6a1d2050f1" x="393.412159" y="66.437656" style="fill: #003f5c; stroke: #ffffff; stroke-width: 0.75"/>
    </g>
   </g>
   <g id="line2d_32">
    <path d="M 60.430341 297.653265 
L 82.629129 297.653265 
L 104.827917 297.653265 
L 127.026705 297.647975 
L 149.225492 237.013236 
L 171.42428 126.437378 
L 193.623068 126.283704 
L 215.821856 118.596568 
L 238.020644 104.879273 
L 260.219432 72.909777 
L 282.41822 58.457154 
L 304.617008 58.296225 
L 326.815795 56.030026 
L 349.014583 47.30127 
L 371.213371 35.540252 
L 393.412159 28.986018 
" clip-path="url(#p7230c88b0c)" style="fill: none; stroke: #7a5195; stroke-width: 1.5; stroke-linecap: square"/>
    <defs>
     <path id="macf07d04e0" d="M 0 4 
C 1.060812 4 2.078319 3.578535 2.828427 2.828427 
C 3.578535 2.078319 4 1.060812 4 0 
C 4 -1.060812 3.578535 -2.078319 2.828427 -2.828427 
C 2.078319 -3.578535 1.060812 -4 0 -4 
C -1.060812 -4 -2.078319 -3.578535 -2.828427 -2.828427 
C -3.578535 -2.078319 -4 -1.060812 -4 0 
C -4 1.060812 -3.578535 2.078319 -2.828427 2.828427 
C -2.078319 3.578535 -1.060812 4 0 4 
z
" style="stroke: #ffffff; stroke-width: 0.75"/>
    </defs>
    <g clip-path="url(#p7230c88b0c)">
     <use xlink:href="#macf07d04e0" x="60.430341" y="297.653265" style="fill: #7a5195; stroke: #ffffff; stroke-width: 0.75"/>
     <use xlink:href="#macf07d04e0" x="82.629129" y="297.653265" style="fill: #7a5195; stroke: #ffffff; stroke-width: 0.75"/>
     <use xlink:href="#macf07d04e0" x="104.827917" y="297.653265" style="fill: #7a5195; stroke: #ffffff; stroke-width: 0.75"/>
     <use xlink:href="#macf07d04e0" x="127.026705" y="297.647975" style="fill: #7a5195; stroke: #ffffff; stroke-width: 0.75"/>
     <use xlink:href="#macf07d04e0" x="149.225492" y="237.013236" style="fill: #7a5195; stroke: #ffffff; stroke-width: 0.75"/>
     <use xlink:href="#macf07d04e0" x="171.42428" y="126.437378" style="fill: #7a5195; stroke: #ffffff; stroke-width: 0.75"/>
     <use xlink:href="#macf07d04e0" x="193.623068" y="126.283704" style="fill: #7a5195; stroke: #ffffff; stroke-width: 0.75"/>
     <use xlink:href="#macf07d04e0" x="215.821856" y="118.596568" style="fill: #7a5195; stroke: #ffffff; stroke-width: 0.75"/>
     <use xlink:href="#macf07d04e0" x="238.020644" y="104.879273" style="fill: #7a5195; stroke: #ffffff; stroke-width: 0.75"/>
     <use xlink:href="#macf07d04e0" x="260.219432" y="72.909777" style="fill: #7a5195; stroke: #ffffff; stroke-width: 0.75"/>
     <use xlink:href="#macf07d04e0" x="282.41822" y="58.457154" style="fill: #7a5195; stroke: #ffffff; stroke-width: 0.75"/>
     <use xlink:href="#macf07d04e0" x="304.617008" y="58.296225" style="fill: #7a5195; stroke: #ffffff; stroke-width: 0.75"/>
     <use xlink:href="#macf07d04e0" x="326.815795" y="56.030026" style="fill: #7a5195; stroke: #ffffff; stroke-width: 0.75"/>
     <use xlink:href="#macf07d04e0" x="349.014583" y="47.30127" style="fill: #7a5195; stroke: #ffffff; stroke-width: 0.75"/>
     <use xlink:href="#macf07d04e0" x="371.213371" y="35.540252" style="fill: #7a5195; stroke: #ffffff; stroke-width: 0.75"/>
     <use xlink:href="#macf07d04e0" x="393.412159" y="28.986018" style="fill: #7a5195; stroke: #ffffff; stroke-width: 0.75"/>
    </g>
   </g>
   <g id="line2d_33">
    <path d="M 60.430341 297.495594 
L 82.629129 297.495594 
L 104.827917 297.495594 
L 127.026705 297.495185 
L 149.225492 277.829348 
L 171.42428 211.151331 
L 193.623068 209.685952 
L 215.821856 127.883102 
L 238.020644 115.265797 
L 260.219432 87.569498 
L 282.41822 77.446792 
L 304.617008 76.687655 
L 326.815795 76.147487 
L 349.014583 69.576434 
L 371.213371 52.280509 
L 393.412159 46.475189 
" clip-path="url(#p7230c88b0c)" style="fill: none; stroke: #ef5675; stroke-width: 1.5; stroke-linecap: square"/>
    <defs>
     <path id="m338bc81907" d="M 0 4 
C 1.060812 4 2.078319 3.578535 2.828427 2.828427 
C 3.578535 2.078319 4 1.060812 4 0 
C 4 -1.060812 3.578535 -2.078319 2.828427 -2.828427 
C 2.078319 -3.578535 1.060812 -4 0 -4 
C -1.060812 -4 -2.078319 -3.578535 -2.828427 -2.828427 
C -3.578535 -2.078319 -4 -1.060812 -4 0 
C -4 1.060812 -3.578535 2.078319 -2.828427 2.828427 
C -2.078319 3.578535 -1.060812 4 0 4 
z
" style="stroke: #ffffff; stroke-width: 0.75"/>
    </defs>
    <g clip-path="url(#p7230c88b0c)">
     <use xlink:href="#m338bc81907" x="60.430341" y="297.495594" style="fill: #ef5675; stroke: #ffffff; stroke-width: 0.75"/>
     <use xlink:href="#m338bc81907" x="82.629129" y="297.495594" style="fill: #ef5675; stroke: #ffffff; stroke-width: 0.75"/>
     <use xlink:href="#m338bc81907" x="104.827917" y="297.495594" style="fill: #ef5675; stroke: #ffffff; stroke-width: 0.75"/>
     <use xlink:href="#m338bc81907" x="127.026705" y="297.495185" style="fill: #ef5675; stroke: #ffffff; stroke-width: 0.75"/>
     <use xlink:href="#m338bc81907" x="149.225492" y="277.829348" style="fill: #ef5675; stroke: #ffffff; stroke-width: 0.75"/>
     <use xlink:href="#m338bc81907" x="171.42428" y="211.151331" style="fill: #ef5675; stroke: #ffffff; stroke-width: 0.75"/>
     <use xlink:href="#m338bc81907" x="193.623068" y="209.685952" style="fill: #ef5675; stroke: #ffffff; stroke-width: 0.75"/>
     <use xlink:href="#m338bc81907" x="215.821856" y="127.883102" style="fill: #ef5675; stroke: #ffffff; stroke-width: 0.75"/>
     <use xlink:href="#m338bc81907" x="238.020644" y="115.265797" style="fill: #ef5675; stroke: #ffffff; stroke-width: 0.75"/>
     <use xlink:href="#m338bc81907" x="260.219432" y="87.569498" style="fill: #ef5675; stroke: #ffffff; stroke-width: 0.75"/>
     <use xlink:href="#m338bc81907" x="282.41822" y="77.446792" style="fill: #ef5675; stroke: #ffffff; stroke-width: 0.75"/>
     <use xlink:href="#m338bc81907" x="304.617008" y="76.687655" style="fill: #ef5675; stroke: #ffffff; stroke-width: 0.75"/>
     <use xlink:href="#m338bc81907" x="326.815795" y="76.147487" style="fill: #ef5675; stroke: #ffffff; stroke-width: 0.75"/>
     <use xlink:href="#m338bc81907" x="349.014583" y="69.576434" style="fill: #ef5675; stroke: #ffffff; stroke-width: 0.75"/>
     <use xlink:href="#m338bc81907" x="371.213371" y="52.280509" style="fill: #ef5675; stroke: #ffffff; stroke-width: 0.75"/>
     <use xlink:href="#m338bc81907" x="393.412159" y="46.475189" style="fill: #ef5675; stroke: #ffffff; stroke-width: 0.75"/>
    </g>
   </g>
   <g id="line2d_34">
    <path d="M 60.430341 298.216325 
L 82.629129 298.216325 
L 104.827917 298.216325 
L 127.026705 298.142694 
L 149.225492 212.592042 
L 171.42428 125.15443 
L 193.623068 125.81457 
L 215.821856 115.960298 
L 238.020644 87.088689 
L 260.219432 63.710435 
L 282.41822 57.741547 
L 304.617008 55.232636 
L 326.815795 48.920784 
L 349.014583 39.08498 
L 371.213371 28.31526 
L 393.412159 21.465219 
" clip-path="url(#p7230c88b0c)" style="fill: none; stroke: #ffa600; stroke-width: 1.5; stroke-linecap: square"/>
    <defs>
     <path id="m144712922b" d="M 0 4 
C 1.060812 4 2.078319 3.578535 2.828427 2.828427 
C 3.578535 2.078319 4 1.060812 4 0 
C 4 -1.060812 3.578535 -2.078319 2.828427 -2.828427 
C 2.078319 -3.578535 1.060812 -4 0 -4 
C -1.060812 -4 -2.078319 -3.578535 -2.828427 -2.828427 
C -3.578535 -2.078319 -4 -1.060812 -4 0 
C -4 1.060812 -3.578535 2.078319 -2.828427 2.828427 
C -2.078319 3.578535 -1.060812 4 0 4 
z
" style="stroke: #ffffff; stroke-width: 0.75"/>
    </defs>
    <g clip-path="url(#p7230c88b0c)">
     <use xlink:href="#m144712922b" x="60.430341" y="298.216325" style="fill: #ffa600; stroke: #ffffff; stroke-width: 0.75"/>
     <use xlink:href="#m144712922b" x="82.629129" y="298.216325" style="fill: #ffa600; stroke: #ffffff; stroke-width: 0.75"/>
     <use xlink:href="#m144712922b" x="104.827917" y="298.216325" style="fill: #ffa600; stroke: #ffffff; stroke-width: 0.75"/>
     <use xlink:href="#m144712922b" x="127.026705" y="298.142694" style="fill: #ffa600; stroke: #ffffff; stroke-width: 0.75"/>
     <use xlink:href="#m144712922b" x="149.225492" y="212.592042" style="fill: #ffa600; stroke: #ffffff; stroke-width: 0.75"/>
     <use xlink:href="#m144712922b" x="171.42428" y="125.15443" style="fill: #ffa600; stroke: #ffffff; stroke-width: 0.75"/>
     <use xlink:href="#m144712922b" x="193.623068" y="125.81457" style="fill: #ffa600; stroke: #ffffff; stroke-width: 0.75"/>
     <use xlink:href="#m144712922b" x="215.821856" y="115.960298" style="fill: #ffa600; stroke: #ffffff; stroke-width: 0.75"/>
     <use xlink:href="#m144712922b" x="238.020644" y="87.088689" style="fill: #ffa600; stroke: #ffffff; stroke-width: 0.75"/>
     <use xlink:href="#m144712922b" x="260.219432" y="63.710435" style="fill: #ffa600; stroke: #ffffff; stroke-width: 0.75"/>
     <use xlink:href="#m144712922b" x="282.41822" y="57.741547" style="fill: #ffa600; stroke: #ffffff; stroke-width: 0.75"/>
     <use xlink:href="#m144712922b" x="304.617008" y="55.232636" style="fill: #ffa600; stroke: #ffffff; stroke-width: 0.75"/>
     <use xlink:href="#m144712922b" x="326.815795" y="48.920784" style="fill: #ffa600; stroke: #ffffff; stroke-width: 0.75"/>
     <use xlink:href="#m144712922b" x="349.014583" y="39.08498" style="fill: #ffa600; stroke: #ffffff; stroke-width: 0.75"/>
     <use xlink:href="#m144712922b" x="371.213371" y="28.31526" style="fill: #ffa600; stroke: #ffffff; stroke-width: 0.75"/>
     <use xlink:href="#m144712922b" x="393.412159" y="21.465219" style="fill: #ffa600; stroke: #ffffff; stroke-width: 0.75"/>
    </g>
   </g>
   <g id="line2d_35"/>
   <g id="line2d_36"/>
   <g id="line2d_37"/>
   <g id="line2d_38"/>
   <g id="line2d_39"/>
   <g id="line2d_40"/>
   <g id="line2d_41"/>
   <g id="patch_3">
    <path d="M 43.78125 314.44 
L 43.78125 7.2 
" style="fill: none; stroke: #000000; stroke-width: 0.8; stroke-linejoin: miter; stroke-linecap: square"/>
   </g>
   <g id="patch_4">
    <path d="M 410.06125 314.44 
L 410.06125 7.2 
" style="fill: none; stroke: #000000; stroke-width: 0.8; stroke-linejoin: miter; stroke-linecap: square"/>
   </g>
   <g id="patch_5">
    <path d="M 43.78125 314.44 
L 410.06125 314.44 
" style="fill: none; stroke: #000000; stroke-width: 0.8; stroke-linejoin: miter; stroke-linecap: square"/>
   </g>
   <g id="patch_6">
    <path d="M 43.78125 7.2 
L 410.06125 7.2 
" style="fill: none; stroke: #000000; stroke-width: 0.8; stroke-linejoin: miter; stroke-linecap: square"/>
   </g>
   <g id="legend_1">
    <g id="patch_7">
     <path d="M 52.18125 87.255 
L 99.82125 87.255 
Q 102.22125 87.255 102.22125 84.855 
L 102.22125 15.6 
Q 102.22125 13.2 99.82125 13.2 
L 52.18125 13.2 
Q 49.78125 13.2 49.78125 15.6 
L 49.78125 84.855 
Q 49.78125 87.255 52.18125 87.255 
z
" style="fill: #ffffff; opacity: 0.8; stroke: #cccccc; stroke-linejoin: miter"/>
    </g>
    <g id="line2d_42">
     <path d="M 54.58125 22.918125 
L 66.58125 22.918125 
L 78.58125 22.918125 
" style="fill: none; stroke: #003f5c; stroke-width: 1.5; stroke-linecap: square"/>
    </g>
    <g id="text_18">
     <!-- A -->
     <g transform="translate(88.18125 27.118125) scale(0.12 -0.12)">
      <use xlink:href="#DejaVuSans-41"/>
     </g>
    </g>
    <g id="line2d_43">
     <path d="M 54.58125 40.531875 
L 66.58125 40.531875 
L 78.58125 40.531875 
" style="fill: none; stroke: #7a5195; stroke-width: 1.5; stroke-linecap: square"/>
    </g>
    <g id="text_19">
     <!-- B -->
     <g transform="translate(88.18125 44.731875) scale(0.12 -0.12)">
      <defs>
       <path id="DejaVuSans-42" d="M 1259 2228 
L 1259 519 
L 2272 519 
Q 2781 519 3026 730 
Q 3272 941 3272 1375 
Q 3272 1813 3026 2020 
Q 2781 2228 2272 2228 
L 1259 2228 
z
M 1259 4147 
L 1259 2741 
L 2194 2741 
Q 2656 2741 2882 2914 
Q 3109 3088 3109 3444 
Q 3109 3797 2882 3972 
Q 2656 4147 2194 4147 
L 1259 4147 
z
M 628 4666 
L 2241 4666 
Q 2963 4666 3353 4366 
Q 3744 4066 3744 3513 
Q 3744 3084 3544 2831 
Q 3344 2578 2956 2516 
Q 3422 2416 3680 2098 
Q 3938 1781 3938 1306 
Q 3938 681 3513 340 
Q 3088 0 2303 0 
L 628 0 
L 628 4666 
z
" transform="scale(0.015625)"/>
      </defs>
      <use xlink:href="#DejaVuSans-42"/>
     </g>
    </g>
    <g id="line2d_44">
     <path d="M 54.58125 58.145625 
L 66.58125 58.145625 
L 78.58125 58.145625 
" style="fill: none; stroke: #ef5675; stroke-width: 1.5; stroke-linecap: square"/>
    </g>
    <g id="text_20">
     <!-- C -->
     <g transform="translate(88.18125 62.345625) scale(0.12 -0.12)">
      <defs>
       <path id="DejaVuSans-43" d="M 4122 4306 
L 4122 3641 
Q 3803 3938 3442 4084 
Q 3081 4231 2675 4231 
Q 1875 4231 1450 3742 
Q 1025 3253 1025 2328 
Q 1025 1406 1450 917 
Q 1875 428 2675 428 
Q 3081 428 3442 575 
Q 3803 722 4122 1019 
L 4122 359 
Q 3791 134 3420 21 
Q 3050 -91 2638 -91 
Q 1578 -91 968 557 
Q 359 1206 359 2328 
Q 359 3453 968 4101 
Q 1578 4750 2638 4750 
Q 3056 4750 3426 4639 
Q 3797 4528 4122 4306 
z
" transform="scale(0.015625)"/>
      </defs>
      <use xlink:href="#DejaVuSans-43"/>
     </g>
    </g>
    <g id="line2d_45">
     <path d="M 54.58125 75.759375 
L 66.58125 75.759375 
L 78.58125 75.759375 
" style="fill: none; stroke: #ffa600; stroke-width: 1.5; stroke-linecap: square"/>
    </g>
    <g id="text_21">
     <!-- D -->
     <g transform="translate(88.18125 79.959375) scale(0.12 -0.12)">
      <use xlink:href="#DejaVuSans-44"/>
     </g>
    </g>
   </g>
  </g>
  <g id="axes_2">
   <g id="patch_8">
    <path d="M 482.98125 314.44 
L 849.26125 314.44 
L 849.26125 7.2 
L 482.98125 7.2 
z
" style="fill: #ffffff"/>
   </g>
   <g id="PolyCollection_5">
    <defs>
     <path id="md0aa5a4088" d="M 499.630341 -52.674881 
L 499.630341 -52.636239 
L 521.829129 -52.636239 
L 544.027917 -52.636239 
L 566.226705 -52.636239 
L 588.425492 -52.636239 
L 610.62428 -52.636239 
L 632.823068 -54.630681 
L 655.021856 -171.616071 
L 677.220644 -202.781746 
L 699.419432 -92.497834 
L 721.61822 -92.597112 
L 743.817008 -92.68731 
L 766.015795 -96.726539 
L 788.214583 -147.703554 
L 810.413371 -159.674442 
L 832.612159 -231.118397 
L 832.612159 -232.554096 
L 832.612159 -232.554096 
L 810.413371 -161.58938 
L 788.214583 -149.373324 
L 766.015795 -97.705397 
L 743.817008 -93.850398 
L 721.61822 -93.721457 
L 699.419432 -93.222443 
L 677.220644 -203.207512 
L 655.021856 -186.974927 
L 632.823068 -54.850223 
L 610.62428 -52.674881 
L 588.425492 -52.674881 
L 566.226705 -52.674881 
L 544.027917 -52.674881 
L 521.829129 -52.674881 
L 499.630341 -52.674881 
z
" style="stroke: #003f5c; stroke-opacity: 0.2"/>
    </defs>
    <g clip-path="url(#p8e6e35c6ef)">
     <use xlink:href="#md0aa5a4088" x="0" y="351.99625" style="fill: #003f5c; fill-opacity: 0.2; stroke: #003f5c; stroke-opacity: 0.2"/>
    </g>
   </g>
   <g id="PolyCollection_6">
    <defs>
     <path id="m5c7596469e" d="M 499.630341 -54.753871 
L 499.630341 -54.72895 
L 521.829129 -54.72895 
L 544.027917 -54.72895 
L 566.226705 -54.737728 
L 588.425492 -164.416387 
L 610.62428 -81.090127 
L 632.823068 -81.8106 
L 655.021856 -119.529441 
L 677.220644 -231.146647 
L 699.419432 -202.691952 
L 721.61822 -152.249767 
L 743.817008 -153.688493 
L 766.015795 -183.685834 
L 788.214583 -211.673397 
L 810.413371 -308.114463 
L 832.612159 -302.383772 
L 832.612159 -302.762119 
L 832.612159 -302.762119 
L 810.413371 -314.014653 
L 788.214583 -215.681853 
L 766.015795 -184.579741 
L 743.817008 -154.060787 
L 721.61822 -153.075067 
L 699.419432 -204.394007 
L 677.220644 -231.651109 
L 655.021856 -121.369013 
L 632.823068 -81.976871 
L 610.62428 -81.303616 
L 588.425492 -165.225544 
L 566.226705 -54.753266 
L 544.027917 -54.753871 
L 521.829129 -54.753871 
L 499.630341 -54.753871 
z
" style="stroke: #7a5195; stroke-opacity: 0.2"/>
    </defs>
    <g clip-path="url(#p8e6e35c6ef)">
     <use xlink:href="#m5c7596469e" x="0" y="351.99625" style="fill: #7a5195; fill-opacity: 0.2; stroke: #7a5195; stroke-opacity: 0.2"/>
    </g>
   </g>
   <g id="PolyCollection_7">
    <defs>
     <path id="mb58d549fd5" d="M 499.630341 -54.843867 
L 499.630341 -54.83176 
L 521.829129 -54.83176 
L 544.027917 -54.83176 
L 566.226705 -54.83176 
L 588.425492 -106.04224 
L 610.62428 -68.73151 
L 632.823068 -70.471803 
L 655.021856 -142.035417 
L 677.220644 -217.850032 
L 699.419432 -145.37193 
L 721.61822 -122.831045 
L 743.817008 -124.354319 
L 766.015795 -137.881977 
L 788.214583 -181.872797 
L 810.413371 -217.734006 
L 832.612159 -267.236881 
L 832.612159 -268.904634 
L 832.612159 -268.904634 
L 810.413371 -224.884354 
L 788.214583 -183.256032 
L 766.015795 -138.670654 
L 743.817008 -124.752844 
L 721.61822 -123.025364 
L 699.419432 -147.639992 
L 677.220644 -218.721743 
L 655.021856 -154.101144 
L 632.823068 -70.618299 
L 610.62428 -69.008056 
L 588.425492 -106.5916 
L 566.226705 -54.84538 
L 544.027917 -54.843867 
L 521.829129 -54.843867 
L 499.630341 -54.843867 
z
" style="stroke: #ef5675; stroke-opacity: 0.2"/>
    </defs>
    <g clip-path="url(#p8e6e35c6ef)">
     <use xlink:href="#mb58d549fd5" x="0" y="351.99625" style="fill: #ef5675; fill-opacity: 0.2; stroke: #ef5675; stroke-opacity: 0.2"/>
    </g>
   </g>
   <g id="PolyCollection_8">
    <path d="M 499.630341 297.51378 
L 499.630341 297.518623 
L 521.829129 297.518623 
L 544.027917 297.518623 
L 566.226705 296.94747 
L 588.425492 213.89019 
L 610.62428 268.088197 
L 632.823068 267.384674 
L 655.021856 192.087738 
L 677.220644 115.225859 
L 699.419432 176.200205 
L 699.419432 173.724305 
L 699.419432 173.724305 
L 677.220644 113.550035 
L 655.021856 189.368686 
L 632.823068 266.833196 
L 610.62428 267.607041 
L 588.425492 212.771697 
L 566.226705 296.921541 
L 544.027917 297.51378 
L 521.829129 297.51378 
L 499.630341 297.51378 
z
" clip-path="url(#p8e6e35c6ef)" style="fill: #ffa600; fill-opacity: 0.2; stroke: #ffa600; stroke-opacity: 0.2"/>
    <path d="M 832.612159 21.112381 
L 832.612159 22.282734 
L 832.612159 21.112381 
L 832.612159 21.112381 
z
" clip-path="url(#p8e6e35c6ef)" style="fill: #ffa600; fill-opacity: 0.2; stroke: #ffa600; stroke-opacity: 0.2"/>
   </g>
   <g id="matplotlib.axis_3">
    <g id="xtick_8">
     <g id="line2d_46">
      <path d="M 488.530947 314.44 
L 488.530947 7.2 
" clip-path="url(#p8e6e35c6ef)" style="fill: none; stroke-dasharray: 1.85,0.8; stroke-dashoffset: 0; stroke: #ffffff; stroke-width: 0.5"/>
     </g>
     <g id="line2d_47">
      <g>
       <use xlink:href="#m145a8d3f59" x="488.530947" y="314.44" style="stroke: #000000; stroke-width: 0.8"/>
      </g>
     </g>
     <g id="text_22">
      <!-- 0 -->
      <g transform="translate(485.349697 329.038437) scale(0.1 -0.1)">
       <use xlink:href="#DejaVuSans-30"/>
      </g>
     </g>
    </g>
    <g id="xtick_9">
     <g id="line2d_48">
      <path d="M 544.027917 314.44 
L 544.027917 7.2 
" clip-path="url(#p8e6e35c6ef)" style="fill: none; stroke-dasharray: 1.85,0.8; stroke-dashoffset: 0; stroke: #ffffff; stroke-width: 0.5"/>
     </g>
     <g id="line2d_49">
      <g>
       <use xlink:href="#m145a8d3f59" x="544.027917" y="314.44" style="stroke: #000000; stroke-width: 0.8"/>
      </g>
     </g>
     <g id="text_23">
      <!-- 5 -->
      <g transform="translate(540.846667 329.038437) scale(0.1 -0.1)">
       <use xlink:href="#DejaVuSans-35"/>
      </g>
     </g>
    </g>
    <g id="xtick_10">
     <g id="line2d_50">
      <path d="M 599.524886 314.44 
L 599.524886 7.2 
" clip-path="url(#p8e6e35c6ef)" style="fill: none; stroke-dasharray: 1.85,0.8; stroke-dashoffset: 0; stroke: #ffffff; stroke-width: 0.5"/>
     </g>
     <g id="line2d_51">
      <g>
       <use xlink:href="#m145a8d3f59" x="599.524886" y="314.44" style="stroke: #000000; stroke-width: 0.8"/>
      </g>
     </g>
     <g id="text_24">
      <!-- 10 -->
      <g transform="translate(593.162386 329.038437) scale(0.1 -0.1)">
       <use xlink:href="#DejaVuSans-31"/>
       <use xlink:href="#DejaVuSans-30" x="63.623047"/>
      </g>
     </g>
    </g>
    <g id="xtick_11">
     <g id="line2d_52">
      <path d="M 655.021856 314.44 
L 655.021856 7.2 
" clip-path="url(#p8e6e35c6ef)" style="fill: none; stroke-dasharray: 1.85,0.8; stroke-dashoffset: 0; stroke: #ffffff; stroke-width: 0.5"/>
     </g>
     <g id="line2d_53">
      <g>
       <use xlink:href="#m145a8d3f59" x="655.021856" y="314.44" style="stroke: #000000; stroke-width: 0.8"/>
      </g>
     </g>
     <g id="text_25">
      <!-- 15 -->
      <g transform="translate(648.659356 329.038437) scale(0.1 -0.1)">
       <use xlink:href="#DejaVuSans-31"/>
       <use xlink:href="#DejaVuSans-35" x="63.623047"/>
      </g>
     </g>
    </g>
    <g id="xtick_12">
     <g id="line2d_54">
      <path d="M 710.518826 314.44 
L 710.518826 7.2 
" clip-path="url(#p8e6e35c6ef)" style="fill: none; stroke-dasharray: 1.85,0.8; stroke-dashoffset: 0; stroke: #ffffff; stroke-width: 0.5"/>
     </g>
     <g id="line2d_55">
      <g>
       <use xlink:href="#m145a8d3f59" x="710.518826" y="314.44" style="stroke: #000000; stroke-width: 0.8"/>
      </g>
     </g>
     <g id="text_26">
      <!-- 20 -->
      <g transform="translate(704.156326 329.038437) scale(0.1 -0.1)">
       <use xlink:href="#DejaVuSans-32"/>
       <use xlink:href="#DejaVuSans-30" x="63.623047"/>
      </g>
     </g>
    </g>
    <g id="xtick_13">
     <g id="line2d_56">
      <path d="M 766.015795 314.44 
L 766.015795 7.2 
" clip-path="url(#p8e6e35c6ef)" style="fill: none; stroke-dasharray: 1.85,0.8; stroke-dashoffset: 0; stroke: #ffffff; stroke-width: 0.5"/>
     </g>
     <g id="line2d_57">
      <g>
       <use xlink:href="#m145a8d3f59" x="766.015795" y="314.44" style="stroke: #000000; stroke-width: 0.8"/>
      </g>
     </g>
     <g id="text_27">
      <!-- 25 -->
      <g transform="translate(759.653295 329.038437) scale(0.1 -0.1)">
       <use xlink:href="#DejaVuSans-32"/>
       <use xlink:href="#DejaVuSans-35" x="63.623047"/>
      </g>
     </g>
    </g>
    <g id="xtick_14">
     <g id="line2d_58">
      <path d="M 821.512765 314.44 
L 821.512765 7.2 
" clip-path="url(#p8e6e35c6ef)" style="fill: none; stroke-dasharray: 1.85,0.8; stroke-dashoffset: 0; stroke: #ffffff; stroke-width: 0.5"/>
     </g>
     <g id="line2d_59">
      <g>
       <use xlink:href="#m145a8d3f59" x="821.512765" y="314.44" style="stroke: #000000; stroke-width: 0.8"/>
      </g>
     </g>
     <g id="text_28">
      <!-- 30 -->
      <g transform="translate(815.150265 329.038437) scale(0.1 -0.1)">
       <use xlink:href="#DejaVuSans-33"/>
       <use xlink:href="#DejaVuSans-30" x="63.623047"/>
      </g>
     </g>
    </g>
    <g id="text_29">
     <!-- Distance between APs [m] -->
     <g transform="translate(600.145469 342.716562) scale(0.1 -0.1)">
      <use xlink:href="#DejaVuSans-44"/>
      <use xlink:href="#DejaVuSans-69" x="77.001953"/>
      <use xlink:href="#DejaVuSans-73" x="104.785156"/>
      <use xlink:href="#DejaVuSans-74" x="156.884766"/>
      <use xlink:href="#DejaVuSans-61" x="196.09375"/>
      <use xlink:href="#DejaVuSans-6e" x="257.373047"/>
      <use xlink:href="#DejaVuSans-63" x="320.751953"/>
      <use xlink:href="#DejaVuSans-65" x="375.732422"/>
      <use xlink:href="#DejaVuSans-20" x="437.255859"/>
      <use xlink:href="#DejaVuSans-62" x="469.042969"/>
      <use xlink:href="#DejaVuSans-65" x="532.519531"/>
      <use xlink:href="#DejaVuSans-74" x="594.042969"/>
      <use xlink:href="#DejaVuSans-77" x="633.251953"/>
      <use xlink:href="#DejaVuSans-65" x="715.039062"/>
      <use xlink:href="#DejaVuSans-65" x="776.5625"/>
      <use xlink:href="#DejaVuSans-6e" x="838.085938"/>
      <use xlink:href="#DejaVuSans-20" x="901.464844"/>
      <use xlink:href="#DejaVuSans-41" x="933.251953"/>
      <use xlink:href="#DejaVuSans-50" x="1001.660156"/>
      <use xlink:href="#DejaVuSans-73" x="1060.212891"/>
      <use xlink:href="#DejaVuSans-20" x="1112.3125"/>
      <use xlink:href="#DejaVuSans-5b" x="1144.099609"/>
      <use xlink:href="#DejaVuSans-6d" x="1183.113281"/>
      <use xlink:href="#DejaVuSans-5d" x="1280.525391"/>
     </g>
    </g>
   </g>
   <g id="matplotlib.axis_4">
    <g id="ytick_9">
     <g id="line2d_60">
      <path d="M 482.98125 314.44 
L 849.26125 314.44 
" clip-path="url(#p8e6e35c6ef)" style="fill: none; stroke-dasharray: 1.85,0.8; stroke-dashoffset: 0; stroke: #ffffff; stroke-width: 0.5"/>
     </g>
     <g id="line2d_61">
      <g>
       <use xlink:href="#me37d6a298f" x="482.98125" y="314.44" style="stroke: #000000; stroke-width: 0.8"/>
      </g>
     </g>
     <g id="text_30">
      <!-- 0.00000 -->
      <g transform="translate(434.628125 318.239219) scale(0.1 -0.1)">
       <use xlink:href="#DejaVuSans-30"/>
       <use xlink:href="#DejaVuSans-2e" x="63.623047"/>
       <use xlink:href="#DejaVuSans-30" x="95.410156"/>
       <use xlink:href="#DejaVuSans-30" x="159.033203"/>
       <use xlink:href="#DejaVuSans-30" x="222.65625"/>
       <use xlink:href="#DejaVuSans-30" x="286.279297"/>
       <use xlink:href="#DejaVuSans-30" x="349.902344"/>
      </g>
     </g>
    </g>
    <g id="ytick_10">
     <g id="line2d_62">
      <path d="M 482.98125 263.99378 
L 849.26125 263.99378 
" clip-path="url(#p8e6e35c6ef)" style="fill: none; stroke-dasharray: 1.85,0.8; stroke-dashoffset: 0; stroke: #ffffff; stroke-width: 0.5"/>
     </g>
     <g id="line2d_63">
      <g>
       <use xlink:href="#me37d6a298f" x="482.98125" y="263.99378" style="stroke: #000000; stroke-width: 0.8"/>
      </g>
     </g>
     <g id="text_31">
      <!-- 0.00005 -->
      <g transform="translate(434.628125 267.792999) scale(0.1 -0.1)">
       <use xlink:href="#DejaVuSans-30"/>
       <use xlink:href="#DejaVuSans-2e" x="63.623047"/>
       <use xlink:href="#DejaVuSans-30" x="95.410156"/>
       <use xlink:href="#DejaVuSans-30" x="159.033203"/>
       <use xlink:href="#DejaVuSans-30" x="222.65625"/>
       <use xlink:href="#DejaVuSans-30" x="286.279297"/>
       <use xlink:href="#DejaVuSans-35" x="349.902344"/>
      </g>
     </g>
    </g>
    <g id="ytick_11">
     <g id="line2d_64">
      <path d="M 482.98125 213.54756 
L 849.26125 213.54756 
" clip-path="url(#p8e6e35c6ef)" style="fill: none; stroke-dasharray: 1.85,0.8; stroke-dashoffset: 0; stroke: #ffffff; stroke-width: 0.5"/>
     </g>
     <g id="line2d_65">
      <g>
       <use xlink:href="#me37d6a298f" x="482.98125" y="213.54756" style="stroke: #000000; stroke-width: 0.8"/>
      </g>
     </g>
     <g id="text_32">
      <!-- 0.00010 -->
      <g transform="translate(434.628125 217.346778) scale(0.1 -0.1)">
       <use xlink:href="#DejaVuSans-30"/>
       <use xlink:href="#DejaVuSans-2e" x="63.623047"/>
       <use xlink:href="#DejaVuSans-30" x="95.410156"/>
       <use xlink:href="#DejaVuSans-30" x="159.033203"/>
       <use xlink:href="#DejaVuSans-30" x="222.65625"/>
       <use xlink:href="#DejaVuSans-31" x="286.279297"/>
       <use xlink:href="#DejaVuSans-30" x="349.902344"/>
      </g>
     </g>
    </g>
    <g id="ytick_12">
     <g id="line2d_66">
      <path d="M 482.98125 163.10134 
L 849.26125 163.10134 
" clip-path="url(#p8e6e35c6ef)" style="fill: none; stroke-dasharray: 1.85,0.8; stroke-dashoffset: 0; stroke: #ffffff; stroke-width: 0.5"/>
     </g>
     <g id="line2d_67">
      <g>
       <use xlink:href="#me37d6a298f" x="482.98125" y="163.10134" style="stroke: #000000; stroke-width: 0.8"/>
      </g>
     </g>
     <g id="text_33">
      <!-- 0.00015 -->
      <g transform="translate(434.628125 166.900558) scale(0.1 -0.1)">
       <use xlink:href="#DejaVuSans-30"/>
       <use xlink:href="#DejaVuSans-2e" x="63.623047"/>
       <use xlink:href="#DejaVuSans-30" x="95.410156"/>
       <use xlink:href="#DejaVuSans-30" x="159.033203"/>
       <use xlink:href="#DejaVuSans-30" x="222.65625"/>
       <use xlink:href="#DejaVuSans-31" x="286.279297"/>
       <use xlink:href="#DejaVuSans-35" x="349.902344"/>
      </g>
     </g>
    </g>
    <g id="ytick_13">
     <g id="line2d_68">
      <path d="M 482.98125 112.655119 
L 849.26125 112.655119 
" clip-path="url(#p8e6e35c6ef)" style="fill: none; stroke-dasharray: 1.85,0.8; stroke-dashoffset: 0; stroke: #ffffff; stroke-width: 0.5"/>
     </g>
     <g id="line2d_69">
      <g>
       <use xlink:href="#me37d6a298f" x="482.98125" y="112.655119" style="stroke: #000000; stroke-width: 0.8"/>
      </g>
     </g>
     <g id="text_34">
      <!-- 0.00020 -->
      <g transform="translate(434.628125 116.454338) scale(0.1 -0.1)">
       <use xlink:href="#DejaVuSans-30"/>
       <use xlink:href="#DejaVuSans-2e" x="63.623047"/>
       <use xlink:href="#DejaVuSans-30" x="95.410156"/>
       <use xlink:href="#DejaVuSans-30" x="159.033203"/>
       <use xlink:href="#DejaVuSans-30" x="222.65625"/>
       <use xlink:href="#DejaVuSans-32" x="286.279297"/>
       <use xlink:href="#DejaVuSans-30" x="349.902344"/>
      </g>
     </g>
    </g>
    <g id="ytick_14">
     <g id="line2d_70">
      <path d="M 482.98125 62.208899 
L 849.26125 62.208899 
" clip-path="url(#p8e6e35c6ef)" style="fill: none; stroke-dasharray: 1.85,0.8; stroke-dashoffset: 0; stroke: #ffffff; stroke-width: 0.5"/>
     </g>
     <g id="line2d_71">
      <g>
       <use xlink:href="#me37d6a298f" x="482.98125" y="62.208899" style="stroke: #000000; stroke-width: 0.8"/>
      </g>
     </g>
     <g id="text_35">
      <!-- 0.00025 -->
      <g transform="translate(434.628125 66.008118) scale(0.1 -0.1)">
       <use xlink:href="#DejaVuSans-30"/>
       <use xlink:href="#DejaVuSans-2e" x="63.623047"/>
       <use xlink:href="#DejaVuSans-30" x="95.410156"/>
       <use xlink:href="#DejaVuSans-30" x="159.033203"/>
       <use xlink:href="#DejaVuSans-30" x="222.65625"/>
       <use xlink:href="#DejaVuSans-32" x="286.279297"/>
       <use xlink:href="#DejaVuSans-35" x="349.902344"/>
      </g>
     </g>
    </g>
    <g id="ytick_15">
     <g id="line2d_72">
      <path d="M 482.98125 11.762679 
L 849.26125 11.762679 
" clip-path="url(#p8e6e35c6ef)" style="fill: none; stroke-dasharray: 1.85,0.8; stroke-dashoffset: 0; stroke: #ffffff; stroke-width: 0.5"/>
     </g>
     <g id="line2d_73">
      <g>
       <use xlink:href="#me37d6a298f" x="482.98125" y="11.762679" style="stroke: #000000; stroke-width: 0.8"/>
      </g>
     </g>
     <g id="text_36">
      <!-- 0.00030 -->
      <g transform="translate(434.628125 15.561898) scale(0.1 -0.1)">
       <use xlink:href="#DejaVuSans-30"/>
       <use xlink:href="#DejaVuSans-2e" x="63.623047"/>
       <use xlink:href="#DejaVuSans-30" x="95.410156"/>
       <use xlink:href="#DejaVuSans-30" x="159.033203"/>
       <use xlink:href="#DejaVuSans-30" x="222.65625"/>
       <use xlink:href="#DejaVuSans-33" x="286.279297"/>
       <use xlink:href="#DejaVuSans-30" x="349.902344"/>
      </g>
     </g>
    </g>
    <g id="text_37">
     <!-- Jitter [s] -->
     <g transform="translate(428.548437 180.831719) rotate(-90) scale(0.1 -0.1)">
      <defs>
       <path id="DejaVuSans-4a" d="M 628 4666 
L 1259 4666 
L 1259 325 
Q 1259 -519 939 -900 
Q 619 -1281 -91 -1281 
L -331 -1281 
L -331 -750 
L -134 -750 
Q 284 -750 456 -515 
Q 628 -281 628 325 
L 628 4666 
z
" transform="scale(0.015625)"/>
       <path id="DejaVuSans-72" d="M 2631 2963 
Q 2534 3019 2420 3045 
Q 2306 3072 2169 3072 
Q 1681 3072 1420 2755 
Q 1159 2438 1159 1844 
L 1159 0 
L 581 0 
L 581 3500 
L 1159 3500 
L 1159 2956 
Q 1341 3275 1631 3429 
Q 1922 3584 2338 3584 
Q 2397 3584 2469 3576 
Q 2541 3569 2628 3553 
L 2631 2963 
z
" transform="scale(0.015625)"/>
      </defs>
      <use xlink:href="#DejaVuSans-4a"/>
      <use xlink:href="#DejaVuSans-69" x="29.492188"/>
      <use xlink:href="#DejaVuSans-74" x="57.275391"/>
      <use xlink:href="#DejaVuSans-74" x="96.484375"/>
      <use xlink:href="#DejaVuSans-65" x="135.693359"/>
      <use xlink:href="#DejaVuSans-72" x="197.216797"/>
      <use xlink:href="#DejaVuSans-20" x="238.330078"/>
      <use xlink:href="#DejaVuSans-5b" x="270.117188"/>
      <use xlink:href="#DejaVuSans-73" x="309.130859"/>
      <use xlink:href="#DejaVuSans-5d" x="361.230469"/>
     </g>
    </g>
   </g>
   <g id="line2d_74">
    <path d="M 499.630341 299.344271 
L 521.829129 299.344271 
L 544.027917 299.344271 
L 566.226705 299.344271 
L 588.425492 299.344271 
L 610.62428 299.344271 
L 632.823068 297.251997 
L 655.021856 174.537498 
L 677.220644 149.042651 
L 699.419432 259.234683 
L 721.61822 258.746465 
L 743.817008 258.64759 
L 766.015795 254.688975 
L 788.214583 203.534658 
L 810.413371 191.660963 
L 832.612159 120.129231 
" clip-path="url(#p8e6e35c6ef)" style="fill: none; stroke: #003f5c; stroke-width: 1.5; stroke-linecap: square"/>
    <g clip-path="url(#p8e6e35c6ef)">
     <use xlink:href="#m6a1d2050f1" x="499.630341" y="299.344271" style="fill: #003f5c; stroke: #ffffff; stroke-width: 0.75"/>
     <use xlink:href="#m6a1d2050f1" x="521.829129" y="299.344271" style="fill: #003f5c; stroke: #ffffff; stroke-width: 0.75"/>
     <use xlink:href="#m6a1d2050f1" x="544.027917" y="299.344271" style="fill: #003f5c; stroke: #ffffff; stroke-width: 0.75"/>
     <use xlink:href="#m6a1d2050f1" x="566.226705" y="299.344271" style="fill: #003f5c; stroke: #ffffff; stroke-width: 0.75"/>
     <use xlink:href="#m6a1d2050f1" x="588.425492" y="299.344271" style="fill: #003f5c; stroke: #ffffff; stroke-width: 0.75"/>
     <use xlink:href="#m6a1d2050f1" x="610.62428" y="299.344271" style="fill: #003f5c; stroke: #ffffff; stroke-width: 0.75"/>
     <use xlink:href="#m6a1d2050f1" x="632.823068" y="297.251997" style="fill: #003f5c; stroke: #ffffff; stroke-width: 0.75"/>
     <use xlink:href="#m6a1d2050f1" x="655.021856" y="174.537498" style="fill: #003f5c; stroke: #ffffff; stroke-width: 0.75"/>
     <use xlink:href="#m6a1d2050f1" x="677.220644" y="149.042651" style="fill: #003f5c; stroke: #ffffff; stroke-width: 0.75"/>
     <use xlink:href="#m6a1d2050f1" x="699.419432" y="259.234683" style="fill: #003f5c; stroke: #ffffff; stroke-width: 0.75"/>
     <use xlink:href="#m6a1d2050f1" x="721.61822" y="258.746465" style="fill: #003f5c; stroke: #ffffff; stroke-width: 0.75"/>
     <use xlink:href="#m6a1d2050f1" x="743.817008" y="258.64759" style="fill: #003f5c; stroke: #ffffff; stroke-width: 0.75"/>
     <use xlink:href="#m6a1d2050f1" x="766.015795" y="254.688975" style="fill: #003f5c; stroke: #ffffff; stroke-width: 0.75"/>
     <use xlink:href="#m6a1d2050f1" x="788.214583" y="203.534658" style="fill: #003f5c; stroke: #ffffff; stroke-width: 0.75"/>
     <use xlink:href="#m6a1d2050f1" x="810.413371" y="191.660963" style="fill: #003f5c; stroke: #ffffff; stroke-width: 0.75"/>
     <use xlink:href="#m6a1d2050f1" x="832.612159" y="120.129231" style="fill: #003f5c; stroke: #ffffff; stroke-width: 0.75"/>
    </g>
   </g>
   <g id="line2d_75">
    <path d="M 499.630341 297.252367 
L 521.829129 297.252367 
L 544.027917 297.252367 
L 566.226705 297.248433 
L 588.425492 187.080782 
L 610.62428 270.806105 
L 632.823068 270.106685 
L 655.021856 231.852105 
L 677.220644 120.607461 
L 699.419432 148.352546 
L 721.61822 199.438761 
L 743.817008 198.149692 
L 766.015795 167.863463 
L 788.214583 138.318625 
L 810.413371 40.931692 
L 832.612159 49.423305 
" clip-path="url(#p8e6e35c6ef)" style="fill: none; stroke: #7a5195; stroke-width: 1.5; stroke-linecap: square"/>
    <g clip-path="url(#p8e6e35c6ef)">
     <use xlink:href="#macf07d04e0" x="499.630341" y="297.252367" style="fill: #7a5195; stroke: #ffffff; stroke-width: 0.75"/>
     <use xlink:href="#macf07d04e0" x="521.829129" y="297.252367" style="fill: #7a5195; stroke: #ffffff; stroke-width: 0.75"/>
     <use xlink:href="#macf07d04e0" x="544.027917" y="297.252367" style="fill: #7a5195; stroke: #ffffff; stroke-width: 0.75"/>
     <use xlink:href="#macf07d04e0" x="566.226705" y="297.248433" style="fill: #7a5195; stroke: #ffffff; stroke-width: 0.75"/>
     <use xlink:href="#macf07d04e0" x="588.425492" y="187.080782" style="fill: #7a5195; stroke: #ffffff; stroke-width: 0.75"/>
     <use xlink:href="#macf07d04e0" x="610.62428" y="270.806105" style="fill: #7a5195; stroke: #ffffff; stroke-width: 0.75"/>
     <use xlink:href="#macf07d04e0" x="632.823068" y="270.106685" style="fill: #7a5195; stroke: #ffffff; stroke-width: 0.75"/>
     <use xlink:href="#macf07d04e0" x="655.021856" y="231.852105" style="fill: #7a5195; stroke: #ffffff; stroke-width: 0.75"/>
     <use xlink:href="#macf07d04e0" x="677.220644" y="120.607461" style="fill: #7a5195; stroke: #ffffff; stroke-width: 0.75"/>
     <use xlink:href="#macf07d04e0" x="699.419432" y="148.352546" style="fill: #7a5195; stroke: #ffffff; stroke-width: 0.75"/>
     <use xlink:href="#macf07d04e0" x="721.61822" y="199.438761" style="fill: #7a5195; stroke: #ffffff; stroke-width: 0.75"/>
     <use xlink:href="#macf07d04e0" x="743.817008" y="198.149692" style="fill: #7a5195; stroke: #ffffff; stroke-width: 0.75"/>
     <use xlink:href="#macf07d04e0" x="766.015795" y="167.863463" style="fill: #7a5195; stroke: #ffffff; stroke-width: 0.75"/>
     <use xlink:href="#macf07d04e0" x="788.214583" y="138.318625" style="fill: #7a5195; stroke: #ffffff; stroke-width: 0.75"/>
     <use xlink:href="#macf07d04e0" x="810.413371" y="40.931692" style="fill: #7a5195; stroke: #ffffff; stroke-width: 0.75"/>
     <use xlink:href="#macf07d04e0" x="832.612159" y="49.423305" style="fill: #7a5195; stroke: #ffffff; stroke-width: 0.75"/>
    </g>
   </g>
   <g id="line2d_76">
    <path d="M 499.630341 297.157562 
L 521.829129 297.157562 
L 544.027917 297.157562 
L 566.226705 297.155914 
L 588.425492 245.695389 
L 610.62428 283.168422 
L 632.823068 281.44834 
L 655.021856 204.464213 
L 677.220644 133.80991 
L 699.419432 205.348704 
L 721.61822 229.085836 
L 743.817008 227.391045 
L 766.015795 213.701824 
L 788.214583 169.276293 
L 810.413371 129.755715 
L 832.612159 84.017809 
" clip-path="url(#p8e6e35c6ef)" style="fill: none; stroke: #ef5675; stroke-width: 1.5; stroke-linecap: square"/>
    <g clip-path="url(#p8e6e35c6ef)">
     <use xlink:href="#m338bc81907" x="499.630341" y="297.157562" style="fill: #ef5675; stroke: #ffffff; stroke-width: 0.75"/>
     <use xlink:href="#m338bc81907" x="521.829129" y="297.157562" style="fill: #ef5675; stroke: #ffffff; stroke-width: 0.75"/>
     <use xlink:href="#m338bc81907" x="544.027917" y="297.157562" style="fill: #ef5675; stroke: #ffffff; stroke-width: 0.75"/>
     <use xlink:href="#m338bc81907" x="566.226705" y="297.155914" style="fill: #ef5675; stroke: #ffffff; stroke-width: 0.75"/>
     <use xlink:href="#m338bc81907" x="588.425492" y="245.695389" style="fill: #ef5675; stroke: #ffffff; stroke-width: 0.75"/>
     <use xlink:href="#m338bc81907" x="610.62428" y="283.168422" style="fill: #ef5675; stroke: #ffffff; stroke-width: 0.75"/>
     <use xlink:href="#m338bc81907" x="632.823068" y="281.44834" style="fill: #ef5675; stroke: #ffffff; stroke-width: 0.75"/>
     <use xlink:href="#m338bc81907" x="655.021856" y="204.464213" style="fill: #ef5675; stroke: #ffffff; stroke-width: 0.75"/>
     <use xlink:href="#m338bc81907" x="677.220644" y="133.80991" style="fill: #ef5675; stroke: #ffffff; stroke-width: 0.75"/>
     <use xlink:href="#m338bc81907" x="699.419432" y="205.348704" style="fill: #ef5675; stroke: #ffffff; stroke-width: 0.75"/>
     <use xlink:href="#m338bc81907" x="721.61822" y="229.085836" style="fill: #ef5675; stroke: #ffffff; stroke-width: 0.75"/>
     <use xlink:href="#m338bc81907" x="743.817008" y="227.391045" style="fill: #ef5675; stroke: #ffffff; stroke-width: 0.75"/>
     <use xlink:href="#m338bc81907" x="766.015795" y="213.701824" style="fill: #ef5675; stroke: #ffffff; stroke-width: 0.75"/>
     <use xlink:href="#m338bc81907" x="788.214583" y="169.276293" style="fill: #ef5675; stroke: #ffffff; stroke-width: 0.75"/>
     <use xlink:href="#m338bc81907" x="810.413371" y="129.755715" style="fill: #ef5675; stroke: #ffffff; stroke-width: 0.75"/>
     <use xlink:href="#m338bc81907" x="832.612159" y="84.017809" style="fill: #ef5675; stroke: #ffffff; stroke-width: 0.75"/>
    </g>
   </g>
   <g id="line2d_77">
    <path d="M 499.630341 297.515764 
L 521.829129 297.515764 
L 544.027917 297.515764 
L 566.226705 296.930857 
L 588.425492 213.416534 
L 610.62428 267.834486 
L 632.823068 267.073925 
L 655.021856 190.890481 
L 677.220644 114.262 
L 699.419432 174.978734 
L 721.61822 191.483392 
L 743.817008 161.696917 
L 766.015795 148.387186 
L 788.214583 111.54732 
L 810.413371 23.390533 
L 832.612159 21.620207 
" clip-path="url(#p8e6e35c6ef)" style="fill: none; stroke: #ffa600; stroke-width: 1.5; stroke-linecap: square"/>
    <g clip-path="url(#p8e6e35c6ef)">
     <use xlink:href="#m144712922b" x="499.630341" y="297.515764" style="fill: #ffa600; stroke: #ffffff; stroke-width: 0.75"/>
     <use xlink:href="#m144712922b" x="521.829129" y="297.515764" style="fill: #ffa600; stroke: #ffffff; stroke-width: 0.75"/>
     <use xlink:href="#m144712922b" x="544.027917" y="297.515764" style="fill: #ffa600; stroke: #ffffff; stroke-width: 0.75"/>
     <use xlink:href="#m144712922b" x="566.226705" y="296.930857" style="fill: #ffa600; stroke: #ffffff; stroke-width: 0.75"/>
     <use xlink:href="#m144712922b" x="588.425492" y="213.416534" style="fill: #ffa600; stroke: #ffffff; stroke-width: 0.75"/>
     <use xlink:href="#m144712922b" x="610.62428" y="267.834486" style="fill: #ffa600; stroke: #ffffff; stroke-width: 0.75"/>
     <use xlink:href="#m144712922b" x="632.823068" y="267.073925" style="fill: #ffa600; stroke: #ffffff; stroke-width: 0.75"/>
     <use xlink:href="#m144712922b" x="655.021856" y="190.890481" style="fill: #ffa600; stroke: #ffffff; stroke-width: 0.75"/>
     <use xlink:href="#m144712922b" x="677.220644" y="114.262" style="fill: #ffa600; stroke: #ffffff; stroke-width: 0.75"/>
     <use xlink:href="#m144712922b" x="699.419432" y="174.978734" style="fill: #ffa600; stroke: #ffffff; stroke-width: 0.75"/>
     <use xlink:href="#m144712922b" x="721.61822" y="191.483392" style="fill: #ffa600; stroke: #ffffff; stroke-width: 0.75"/>
     <use xlink:href="#m144712922b" x="743.817008" y="161.696917" style="fill: #ffa600; stroke: #ffffff; stroke-width: 0.75"/>
     <use xlink:href="#m144712922b" x="766.015795" y="148.387186" style="fill: #ffa600; stroke: #ffffff; stroke-width: 0.75"/>
     <use xlink:href="#m144712922b" x="788.214583" y="111.54732" style="fill: #ffa600; stroke: #ffffff; stroke-width: 0.75"/>
     <use xlink:href="#m144712922b" x="810.413371" y="23.390533" style="fill: #ffa600; stroke: #ffffff; stroke-width: 0.75"/>
     <use xlink:href="#m144712922b" x="832.612159" y="21.620207" style="fill: #ffa600; stroke: #ffffff; stroke-width: 0.75"/>
    </g>
   </g>
   <g id="line2d_78"/>
   <g id="line2d_79"/>
   <g id="line2d_80"/>
   <g id="line2d_81"/>
   <g id="line2d_82"/>
   <g id="line2d_83"/>
   <g id="line2d_84"/>
   <g id="patch_9">
    <path d="M 482.98125 314.44 
L 482.98125 7.2 
" style="fill: none; stroke: #000000; stroke-width: 0.8; stroke-linejoin: miter; stroke-linecap: square"/>
   </g>
   <g id="patch_10">
    <path d="M 849.26125 314.44 
L 849.26125 7.2 
" style="fill: none; stroke: #000000; stroke-width: 0.8; stroke-linejoin: miter; stroke-linecap: square"/>
   </g>
   <g id="patch_11">
    <path d="M 482.98125 314.44 
L 849.26125 314.44 
" style="fill: none; stroke: #000000; stroke-width: 0.8; stroke-linejoin: miter; stroke-linecap: square"/>
   </g>
   <g id="patch_12">
    <path d="M 482.98125 7.2 
L 849.26125 7.2 
" style="fill: none; stroke: #000000; stroke-width: 0.8; stroke-linejoin: miter; stroke-linecap: square"/>
   </g>
   <g id="legend_2">
    <g id="patch_13">
     <path d="M 491.38125 87.255 
L 539.02125 87.255 
Q 541.42125 87.255 541.42125 84.855 
L 541.42125 15.6 
Q 541.42125 13.2 539.02125 13.2 
L 491.38125 13.2 
Q 488.98125 13.2 488.98125 15.6 
L 488.98125 84.855 
Q 488.98125 87.255 491.38125 87.255 
z
" style="fill: #ffffff; opacity: 0.8; stroke: #cccccc; stroke-linejoin: miter"/>
    </g>
    <g id="line2d_85">
     <path d="M 493.78125 22.918125 
L 505.78125 22.918125 
L 517.78125 22.918125 
" style="fill: none; stroke: #003f5c; stroke-width: 1.5; stroke-linecap: square"/>
    </g>
    <g id="text_38">
     <!-- A -->
     <g transform="translate(527.38125 27.118125) scale(0.12 -0.12)">
      <use xlink:href="#DejaVuSans-41"/>
     </g>
    </g>
    <g id="line2d_86">
     <path d="M 493.78125 40.531875 
L 505.78125 40.531875 
L 517.78125 40.531875 
" style="fill: none; stroke: #7a5195; stroke-width: 1.5; stroke-linecap: square"/>
    </g>
    <g id="text_39">
     <!-- B -->
     <g transform="translate(527.38125 44.731875) scale(0.12 -0.12)">
      <use xlink:href="#DejaVuSans-42"/>
     </g>
    </g>
    <g id="line2d_87">
     <path d="M 493.78125 58.145625 
L 505.78125 58.145625 
L 517.78125 58.145625 
" style="fill: none; stroke: #ef5675; stroke-width: 1.5; stroke-linecap: square"/>
    </g>
    <g id="text_40">
     <!-- C -->
     <g transform="translate(527.38125 62.345625) scale(0.12 -0.12)">
      <use xlink:href="#DejaVuSans-43"/>
     </g>
    </g>
    <g id="line2d_88">
     <path d="M 493.78125 75.759375 
L 505.78125 75.759375 
L 517.78125 75.759375 
" style="fill: none; stroke: #ffa600; stroke-width: 1.5; stroke-linecap: square"/>
    </g>
    <g id="text_41">
     <!-- D -->
     <g transform="translate(527.38125 79.959375) scale(0.12 -0.12)">
      <use xlink:href="#DejaVuSans-44"/>
     </g>
    </g>
   </g>
  </g>
 </g>
 <defs>
  <clipPath id="p7230c88b0c">
   <rect x="43.78125" y="7.2" width="366.28" height="307.24"/>
  </clipPath>
  <clipPath id="p8e6e35c6ef">
   <rect x="482.98125" y="7.2" width="366.28" height="307.24"/>
  </clipPath>
 </defs>
</svg>
