<?xml version="1.0" encoding="utf-8" standalone="no"?>
<!DOCTYPE svg PUBLIC "-//W3C//DTD SVG 1.1//EN"
  "http://www.w3.org/Graphics/SVG/1.1/DTD/svg11.dtd">
<svg xmlns:xlink="http://www.w3.org/1999/xlink" width="856.495625pt" height="351.99625pt" viewBox="0 0 856.495625 351.99625" xmlns="http://www.w3.org/2000/svg" version="1.1">
 <metadata>
  <rdf:RDF xmlns:dc="http://purl.org/dc/elements/1.1/" xmlns:cc="http://creativecommons.org/ns#" xmlns:rdf="http://www.w3.org/1999/02/22-rdf-syntax-ns#">
   <cc:Work>
    <dc:type rdf:resource="http://purl.org/dc/dcmitype/StillImage"/>
    <dc:date>2025-05-21T15:40:26.863529</dc:date>
    <dc:format>image/svg+xml</dc:format>
    <dc:creator>
     <cc:Agent>
      <dc:title>Matplotlib v3.9.2, https://matplotlib.org/</dc:title>
     </cc:Agent>
    </dc:creator>
   </cc:Work>
  </rdf:RDF>
 </metadata>
 <defs>
  <style type="text/css">*{stroke-linejoin: round; stroke-linecap: butt}</style>
 </defs>
 <g id="figure_1">
  <g id="patch_1">
   <path d="M 0 351.99625 
L 856.495625 351.99625 
L 856.495625 0 
L 0 0 
z
" style="fill: #ffffff"/>
  </g>
  <g id="axes_1">
   <g id="patch_2">
    <path d="M 46.965625 314.44 
L 425.845625 314.44 
L 425.845625 7.2 
L 46.965625 7.2 
z
" style="fill: #ffffff"/>
   </g>
   <g id="PolyCollection_1">
    <defs>
     <path id="m14f88788da" d="M 64.187443 -337.257112 
L 64.187443 -337.222877 
L 87.149867 -337.222877 
L 110.112292 -337.222877 
L 133.074716 -337.222877 
L 156.03714 -337.222877 
L 178.999564 -337.222877 
L 201.961989 -337.083085 
L 224.924413 -308.153454 
L 247.886837 -294.889523 
L 270.849261 -278.652671 
L 293.811686 -278.055843 
L 316.77411 -278.051278 
L 339.736534 -277.867551 
L 362.698958 -274.579859 
L 385.661383 -252.727724 
L 408.623807 -245.740095 
L 408.623807 -246.080162 
L 408.623807 -246.080162 
L 385.661383 -253.323696 
L 362.698958 -275.722164 
L 339.736534 -278.901159 
L 316.77411 -279.117125 
L 293.811686 -279.12226 
L 270.849261 -279.232667 
L 247.886837 -294.895419 
L 224.924413 -308.313787 
L 201.961989 -337.120172 
L 178.999564 -337.257112 
L 156.03714 -337.257112 
L 133.074716 -337.257112 
L 110.112292 -337.257112 
L 87.149867 -337.257112 
L 64.187443 -337.257112 
z
" style="stroke: #003f5c; stroke-opacity: 0.2"/>
    </defs>
    <g clip-path="url(#p7e796b915c)">
     <use xlink:href="#m14f88788da" x="0" y="351.99625" style="fill: #003f5c; fill-opacity: 0.2; stroke: #003f5c; stroke-opacity: 0.2"/>
    </g>
   </g>
   <g id="PolyCollection_2">
    <defs>
     <path id="m69585be309" d="M 64.187443 -334.458409 
L 64.187443 -334.435586 
L 87.149867 -334.435586 
L 110.112292 -334.435586 
L 133.074716 -334.435586 
L 156.03714 -317.348662 
L 178.999564 -294.476041 
L 201.961989 -294.242673 
L 224.924413 -286.12187 
L 247.886837 -272.419637 
L 270.849261 -252.620454 
L 293.811686 -235.372056 
L 316.77411 -235.413138 
L 339.736534 -233.537922 
L 362.698958 -221.698638 
L 385.661383 -207.253508 
L 408.623807 -198.684512 
L 408.623807 -198.756406 
L 408.623807 -198.756406 
L 385.661383 -207.317127 
L 362.698958 -222.068375 
L 339.736534 -233.589559 
L 316.77411 -235.782305 
L 293.811686 -235.962894 
L 270.849261 -253.191892 
L 247.886837 -273.108329 
L 224.924413 -286.149829 
L 201.961989 -294.344808 
L 178.999564 -294.616119 
L 156.03714 -317.495302 
L 133.074716 -334.455556 
L 110.112292 -334.458409 
L 87.149867 -334.458409 
L 64.187443 -334.458409 
z
" style="stroke: #7a5195; stroke-opacity: 0.2"/>
    </defs>
    <g clip-path="url(#p7e796b915c)">
     <use xlink:href="#m69585be309" x="0" y="351.99625" style="fill: #7a5195; fill-opacity: 0.2; stroke: #7a5195; stroke-opacity: 0.2"/>
    </g>
   </g>
   <g id="PolyCollection_3">
    <defs>
     <path id="me0a1b4216e" d="M 64.187443 -334.327175 
L 64.187443 -334.307205 
L 87.149867 -334.307205 
L 110.112292 -334.307205 
L 133.074716 -334.307205 
L 156.03714 -326.073712 
L 178.999564 -313.319215 
L 201.961989 -313.203957 
L 224.924413 -295.337905 
L 247.886837 -282.39426 
L 270.849261 -265.319034 
L 293.811686 -256.831917 
L 316.77411 -256.579435 
L 339.736534 -255.71586 
L 362.698958 -248.00131 
L 385.661383 -228.91564 
L 408.623807 -221.291813 
L 408.623807 -221.761972 
L 408.623807 -221.761972 
L 385.661383 -229.110779 
L 362.698958 -248.276616 
L 339.736534 -255.860502 
L 316.77411 -256.833344 
L 293.811686 -257.106652 
L 270.849261 -265.373489 
L 247.886837 -282.646457 
L 224.924413 -295.405519 
L 201.961989 -313.318359 
L 178.999564 -313.645873 
L 156.03714 -326.122211 
L 133.074716 -334.327175 
L 110.112292 -334.327175 
L 87.149867 -334.327175 
L 64.187443 -334.327175 
z
" style="stroke: #ef5675; stroke-opacity: 0.2"/>
    </defs>
    <g clip-path="url(#p7e796b915c)">
     <use xlink:href="#me0a1b4216e" x="0" y="351.99625" style="fill: #ef5675; fill-opacity: 0.2; stroke: #ef5675; stroke-opacity: 0.2"/>
    </g>
   </g>
   <g id="PolyCollection_4">
    <path d="M 64.187443 17.212609 
L 64.187443 17.218315 
L 87.149867 17.218315 
L 110.112292 17.218315 
L 133.074716 17.258256 
L 156.03714 38.546372 
L 178.999564 58.298767 
L 201.961989 58.45311 
L 224.924413 69.511552 
L 247.886837 87.342942 
L 270.849261 110.172912 
L 270.849261 109.622872 
L 270.849261 109.622872 
L 247.886837 86.974774 
L 224.924413 69.147521 
L 201.961989 57.920186 
L 178.999564 58.016301 
L 156.03714 38.341248 
L 133.074716 17.249697 
L 110.112292 17.212609 
L 87.149867 17.212609 
L 64.187443 17.212609 
z
" clip-path="url(#p7e796b915c)" style="fill: #ffa600; fill-opacity: 0.2; stroke: #ffa600; stroke-opacity: 0.2"/>
    <path d="M 408.623807 165.260573 
L 408.623807 165.521899 
L 408.623807 165.260573 
L 408.623807 165.260573 
z
" clip-path="url(#p7e796b915c)" style="fill: #ffa600; fill-opacity: 0.2; stroke: #ffa600; stroke-opacity: 0.2"/>
   </g>
   <g id="matplotlib.axis_1">
    <g id="xtick_1">
     <g id="line2d_1">
      <path d="M 52.706231 314.44 
L 52.706231 7.2 
" clip-path="url(#p7e796b915c)" style="fill: none; stroke-dasharray: 1.85,0.8; stroke-dashoffset: 0; stroke: #ffffff; stroke-width: 0.5"/>
     </g>
     <g id="line2d_2">
      <defs>
       <path id="m27f824d42b" d="M 0 0 
L 0 3.5 
" style="stroke: #000000; stroke-width: 0.8"/>
      </defs>
      <g>
       <use xlink:href="#m27f824d42b" x="52.706231" y="314.44" style="stroke: #000000; stroke-width: 0.8"/>
      </g>
     </g>
     <g id="text_1">
      <!-- 0 -->
      <g transform="translate(49.524981 329.038437) scale(0.1 -0.1)">
       <defs>
        <path id="DejaVuSans-30" d="M 2034 4250 
Q 1547 4250 1301 3770 
Q 1056 3291 1056 2328 
Q 1056 1369 1301 889 
Q 1547 409 2034 409 
Q 2525 409 2770 889 
Q 3016 1369 3016 2328 
Q 3016 3291 2770 3770 
Q 2525 4250 2034 4250 
z
M 2034 4750 
Q 2819 4750 3233 4129 
Q 3647 3509 3647 2328 
Q 3647 1150 3233 529 
Q 2819 -91 2034 -91 
Q 1250 -91 836 529 
Q 422 1150 422 2328 
Q 422 3509 836 4129 
Q 1250 4750 2034 4750 
z
" transform="scale(0.015625)"/>
       </defs>
       <use xlink:href="#DejaVuSans-30"/>
      </g>
     </g>
    </g>
    <g id="xtick_2">
     <g id="line2d_3">
      <path d="M 110.112292 314.44 
L 110.112292 7.2 
" clip-path="url(#p7e796b915c)" style="fill: none; stroke-dasharray: 1.85,0.8; stroke-dashoffset: 0; stroke: #ffffff; stroke-width: 0.5"/>
     </g>
     <g id="line2d_4">
      <g>
       <use xlink:href="#m27f824d42b" x="110.112292" y="314.44" style="stroke: #000000; stroke-width: 0.8"/>
      </g>
     </g>
     <g id="text_2">
      <!-- 5 -->
      <g transform="translate(106.931042 329.038437) scale(0.1 -0.1)">
       <defs>
        <path id="DejaVuSans-35" d="M 691 4666 
L 3169 4666 
L 3169 4134 
L 1269 4134 
L 1269 2991 
Q 1406 3038 1543 3061 
Q 1681 3084 1819 3084 
Q 2600 3084 3056 2656 
Q 3513 2228 3513 1497 
Q 3513 744 3044 326 
Q 2575 -91 1722 -91 
Q 1428 -91 1123 -41 
Q 819 9 494 109 
L 494 744 
Q 775 591 1075 516 
Q 1375 441 1709 441 
Q 2250 441 2565 725 
Q 2881 1009 2881 1497 
Q 2881 1984 2565 2268 
Q 2250 2553 1709 2553 
Q 1456 2553 1204 2497 
Q 953 2441 691 2322 
L 691 4666 
z
" transform="scale(0.015625)"/>
       </defs>
       <use xlink:href="#DejaVuSans-35"/>
      </g>
     </g>
    </g>
    <g id="xtick_3">
     <g id="line2d_5">
      <path d="M 167.518352 314.44 
L 167.518352 7.2 
" clip-path="url(#p7e796b915c)" style="fill: none; stroke-dasharray: 1.85,0.8; stroke-dashoffset: 0; stroke: #ffffff; stroke-width: 0.5"/>
     </g>
     <g id="line2d_6">
      <g>
       <use xlink:href="#m27f824d42b" x="167.518352" y="314.44" style="stroke: #000000; stroke-width: 0.8"/>
      </g>
     </g>
     <g id="text_3">
      <!-- 10 -->
      <g transform="translate(161.155852 329.038437) scale(0.1 -0.1)">
       <defs>
        <path id="DejaVuSans-31" d="M 794 531 
L 1825 531 
L 1825 4091 
L 703 3866 
L 703 4441 
L 1819 4666 
L 2450 4666 
L 2450 531 
L 3481 531 
L 3481 0 
L 794 0 
L 794 531 
z
" transform="scale(0.015625)"/>
       </defs>
       <use xlink:href="#DejaVuSans-31"/>
       <use xlink:href="#DejaVuSans-30" x="63.623047"/>
      </g>
     </g>
    </g>
    <g id="xtick_4">
     <g id="line2d_7">
      <path d="M 224.924413 314.44 
L 224.924413 7.2 
" clip-path="url(#p7e796b915c)" style="fill: none; stroke-dasharray: 1.85,0.8; stroke-dashoffset: 0; stroke: #ffffff; stroke-width: 0.5"/>
     </g>
     <g id="line2d_8">
      <g>
       <use xlink:href="#m27f824d42b" x="224.924413" y="314.44" style="stroke: #000000; stroke-width: 0.8"/>
      </g>
     </g>
     <g id="text_4">
      <!-- 15 -->
      <g transform="translate(218.561913 329.038437) scale(0.1 -0.1)">
       <use xlink:href="#DejaVuSans-31"/>
       <use xlink:href="#DejaVuSans-35" x="63.623047"/>
      </g>
     </g>
    </g>
    <g id="xtick_5">
     <g id="line2d_9">
      <path d="M 282.330473 314.44 
L 282.330473 7.2 
" clip-path="url(#p7e796b915c)" style="fill: none; stroke-dasharray: 1.85,0.8; stroke-dashoffset: 0; stroke: #ffffff; stroke-width: 0.5"/>
     </g>
     <g id="line2d_10">
      <g>
       <use xlink:href="#m27f824d42b" x="282.330473" y="314.44" style="stroke: #000000; stroke-width: 0.8"/>
      </g>
     </g>
     <g id="text_5">
      <!-- 20 -->
      <g transform="translate(275.967973 329.038437) scale(0.1 -0.1)">
       <defs>
        <path id="DejaVuSans-32" d="M 1228 531 
L 3431 531 
L 3431 0 
L 469 0 
L 469 531 
Q 828 903 1448 1529 
Q 2069 2156 2228 2338 
Q 2531 2678 2651 2914 
Q 2772 3150 2772 3378 
Q 2772 3750 2511 3984 
Q 2250 4219 1831 4219 
Q 1534 4219 1204 4116 
Q 875 4013 500 3803 
L 500 4441 
Q 881 4594 1212 4672 
Q 1544 4750 1819 4750 
Q 2544 4750 2975 4387 
Q 3406 4025 3406 3419 
Q 3406 3131 3298 2873 
Q 3191 2616 2906 2266 
Q 2828 2175 2409 1742 
Q 1991 1309 1228 531 
z
" transform="scale(0.015625)"/>
       </defs>
       <use xlink:href="#DejaVuSans-32"/>
       <use xlink:href="#DejaVuSans-30" x="63.623047"/>
      </g>
     </g>
    </g>
    <g id="xtick_6">
     <g id="line2d_11">
      <path d="M 339.736534 314.44 
L 339.736534 7.2 
" clip-path="url(#p7e796b915c)" style="fill: none; stroke-dasharray: 1.85,0.8; stroke-dashoffset: 0; stroke: #ffffff; stroke-width: 0.5"/>
     </g>
     <g id="line2d_12">
      <g>
       <use xlink:href="#m27f824d42b" x="339.736534" y="314.44" style="stroke: #000000; stroke-width: 0.8"/>
      </g>
     </g>
     <g id="text_6">
      <!-- 25 -->
      <g transform="translate(333.374034 329.038437) scale(0.1 -0.1)">
       <use xlink:href="#DejaVuSans-32"/>
       <use xlink:href="#DejaVuSans-35" x="63.623047"/>
      </g>
     </g>
    </g>
    <g id="xtick_7">
     <g id="line2d_13">
      <path d="M 397.142595 314.44 
L 397.142595 7.2 
" clip-path="url(#p7e796b915c)" style="fill: none; stroke-dasharray: 1.85,0.8; stroke-dashoffset: 0; stroke: #ffffff; stroke-width: 0.5"/>
     </g>
     <g id="line2d_14">
      <g>
       <use xlink:href="#m27f824d42b" x="397.142595" y="314.44" style="stroke: #000000; stroke-width: 0.8"/>
      </g>
     </g>
     <g id="text_7">
      <!-- 30 -->
      <g transform="translate(390.780095 329.038437) scale(0.1 -0.1)">
       <defs>
        <path id="DejaVuSans-33" d="M 2597 2516 
Q 3050 2419 3304 2112 
Q 3559 1806 3559 1356 
Q 3559 666 3084 287 
Q 2609 -91 1734 -91 
Q 1441 -91 1130 -33 
Q 819 25 488 141 
L 488 750 
Q 750 597 1062 519 
Q 1375 441 1716 441 
Q 2309 441 2620 675 
Q 2931 909 2931 1356 
Q 2931 1769 2642 2001 
Q 2353 2234 1838 2234 
L 1294 2234 
L 1294 2753 
L 1863 2753 
Q 2328 2753 2575 2939 
Q 2822 3125 2822 3475 
Q 2822 3834 2567 4026 
Q 2313 4219 1838 4219 
Q 1578 4219 1281 4162 
Q 984 4106 628 3988 
L 628 4550 
Q 988 4650 1302 4700 
Q 1616 4750 1894 4750 
Q 2613 4750 3031 4423 
Q 3450 4097 3450 3541 
Q 3450 3153 3228 2886 
Q 3006 2619 2597 2516 
z
" transform="scale(0.015625)"/>
       </defs>
       <use xlink:href="#DejaVuSans-33"/>
       <use xlink:href="#DejaVuSans-30" x="63.623047"/>
      </g>
     </g>
    </g>
    <g id="text_8">
     <!-- Distance beetwen AP and STAs [m] -->
     <g transform="translate(148.49625 342.716562) scale(0.1 -0.1)">
      <defs>
       <path id="DejaVuSans-44" d="M 1259 4147 
L 1259 519 
L 2022 519 
Q 2988 519 3436 956 
Q 3884 1394 3884 2338 
Q 3884 3275 3436 3711 
Q 2988 4147 2022 4147 
L 1259 4147 
z
M 628 4666 
L 1925 4666 
Q 3281 4666 3915 4102 
Q 4550 3538 4550 2338 
Q 4550 1131 3912 565 
Q 3275 0 1925 0 
L 628 0 
L 628 4666 
z
" transform="scale(0.015625)"/>
       <path id="DejaVuSans-69" d="M 603 3500 
L 1178 3500 
L 1178 0 
L 603 0 
L 603 3500 
z
M 603 4863 
L 1178 4863 
L 1178 4134 
L 603 4134 
L 603 4863 
z
" transform="scale(0.015625)"/>
       <path id="DejaVuSans-73" d="M 2834 3397 
L 2834 2853 
Q 2591 2978 2328 3040 
Q 2066 3103 1784 3103 
Q 1356 3103 1142 2972 
Q 928 2841 928 2578 
Q 928 2378 1081 2264 
Q 1234 2150 1697 2047 
L 1894 2003 
Q 2506 1872 2764 1633 
Q 3022 1394 3022 966 
Q 3022 478 2636 193 
Q 2250 -91 1575 -91 
Q 1294 -91 989 -36 
Q 684 19 347 128 
L 347 722 
Q 666 556 975 473 
Q 1284 391 1588 391 
Q 1994 391 2212 530 
Q 2431 669 2431 922 
Q 2431 1156 2273 1281 
Q 2116 1406 1581 1522 
L 1381 1569 
Q 847 1681 609 1914 
Q 372 2147 372 2553 
Q 372 3047 722 3315 
Q 1072 3584 1716 3584 
Q 2034 3584 2315 3537 
Q 2597 3491 2834 3397 
z
" transform="scale(0.015625)"/>
       <path id="DejaVuSans-74" d="M 1172 4494 
L 1172 3500 
L 2356 3500 
L 2356 3053 
L 1172 3053 
L 1172 1153 
Q 1172 725 1289 603 
Q 1406 481 1766 481 
L 2356 481 
L 2356 0 
L 1766 0 
Q 1100 0 847 248 
Q 594 497 594 1153 
L 594 3053 
L 172 3053 
L 172 3500 
L 594 3500 
L 594 4494 
L 1172 4494 
z
" transform="scale(0.015625)"/>
       <path id="DejaVuSans-61" d="M 2194 1759 
Q 1497 1759 1228 1600 
Q 959 1441 959 1056 
Q 959 750 1161 570 
Q 1363 391 1709 391 
Q 2188 391 2477 730 
Q 2766 1069 2766 1631 
L 2766 1759 
L 2194 1759 
z
M 3341 1997 
L 3341 0 
L 2766 0 
L 2766 531 
Q 2569 213 2275 61 
Q 1981 -91 1556 -91 
Q 1019 -91 701 211 
Q 384 513 384 1019 
Q 384 1609 779 1909 
Q 1175 2209 1959 2209 
L 2766 2209 
L 2766 2266 
Q 2766 2663 2505 2880 
Q 2244 3097 1772 3097 
Q 1472 3097 1187 3025 
Q 903 2953 641 2809 
L 641 3341 
Q 956 3463 1253 3523 
Q 1550 3584 1831 3584 
Q 2591 3584 2966 3190 
Q 3341 2797 3341 1997 
z
" transform="scale(0.015625)"/>
       <path id="DejaVuSans-6e" d="M 3513 2113 
L 3513 0 
L 2938 0 
L 2938 2094 
Q 2938 2591 2744 2837 
Q 2550 3084 2163 3084 
Q 1697 3084 1428 2787 
Q 1159 2491 1159 1978 
L 1159 0 
L 581 0 
L 581 3500 
L 1159 3500 
L 1159 2956 
Q 1366 3272 1645 3428 
Q 1925 3584 2291 3584 
Q 2894 3584 3203 3211 
Q 3513 2838 3513 2113 
z
" transform="scale(0.015625)"/>
       <path id="DejaVuSans-63" d="M 3122 3366 
L 3122 2828 
Q 2878 2963 2633 3030 
Q 2388 3097 2138 3097 
Q 1578 3097 1268 2742 
Q 959 2388 959 1747 
Q 959 1106 1268 751 
Q 1578 397 2138 397 
Q 2388 397 2633 464 
Q 2878 531 3122 666 
L 3122 134 
Q 2881 22 2623 -34 
Q 2366 -91 2075 -91 
Q 1284 -91 818 406 
Q 353 903 353 1747 
Q 353 2603 823 3093 
Q 1294 3584 2113 3584 
Q 2378 3584 2631 3529 
Q 2884 3475 3122 3366 
z
" transform="scale(0.015625)"/>
       <path id="DejaVuSans-65" d="M 3597 1894 
L 3597 1613 
L 953 1613 
Q 991 1019 1311 708 
Q 1631 397 2203 397 
Q 2534 397 2845 478 
Q 3156 559 3463 722 
L 3463 178 
Q 3153 47 2828 -22 
Q 2503 -91 2169 -91 
Q 1331 -91 842 396 
Q 353 884 353 1716 
Q 353 2575 817 3079 
Q 1281 3584 2069 3584 
Q 2775 3584 3186 3129 
Q 3597 2675 3597 1894 
z
M 3022 2063 
Q 3016 2534 2758 2815 
Q 2500 3097 2075 3097 
Q 1594 3097 1305 2825 
Q 1016 2553 972 2059 
L 3022 2063 
z
" transform="scale(0.015625)"/>
       <path id="DejaVuSans-20" transform="scale(0.015625)"/>
       <path id="DejaVuSans-62" d="M 3116 1747 
Q 3116 2381 2855 2742 
Q 2594 3103 2138 3103 
Q 1681 3103 1420 2742 
Q 1159 2381 1159 1747 
Q 1159 1113 1420 752 
Q 1681 391 2138 391 
Q 2594 391 2855 752 
Q 3116 1113 3116 1747 
z
M 1159 2969 
Q 1341 3281 1617 3432 
Q 1894 3584 2278 3584 
Q 2916 3584 3314 3078 
Q 3713 2572 3713 1747 
Q 3713 922 3314 415 
Q 2916 -91 2278 -91 
Q 1894 -91 1617 61 
Q 1341 213 1159 525 
L 1159 0 
L 581 0 
L 581 4863 
L 1159 4863 
L 1159 2969 
z
" transform="scale(0.015625)"/>
       <path id="DejaVuSans-77" d="M 269 3500 
L 844 3500 
L 1563 769 
L 2278 3500 
L 2956 3500 
L 3675 769 
L 4391 3500 
L 4966 3500 
L 4050 0 
L 3372 0 
L 2619 2869 
L 1863 0 
L 1184 0 
L 269 3500 
z
" transform="scale(0.015625)"/>
       <path id="DejaVuSans-41" d="M 2188 4044 
L 1331 1722 
L 3047 1722 
L 2188 4044 
z
M 1831 4666 
L 2547 4666 
L 4325 0 
L 3669 0 
L 3244 1197 
L 1141 1197 
L 716 0 
L 50 0 
L 1831 4666 
z
" transform="scale(0.015625)"/>
       <path id="DejaVuSans-50" d="M 1259 4147 
L 1259 2394 
L 2053 2394 
Q 2494 2394 2734 2622 
Q 2975 2850 2975 3272 
Q 2975 3691 2734 3919 
Q 2494 4147 2053 4147 
L 1259 4147 
z
M 628 4666 
L 2053 4666 
Q 2838 4666 3239 4311 
Q 3641 3956 3641 3272 
Q 3641 2581 3239 2228 
Q 2838 1875 2053 1875 
L 1259 1875 
L 1259 0 
L 628 0 
L 628 4666 
z
" transform="scale(0.015625)"/>
       <path id="DejaVuSans-64" d="M 2906 2969 
L 2906 4863 
L 3481 4863 
L 3481 0 
L 2906 0 
L 2906 525 
Q 2725 213 2448 61 
Q 2172 -91 1784 -91 
Q 1150 -91 751 415 
Q 353 922 353 1747 
Q 353 2572 751 3078 
Q 1150 3584 1784 3584 
Q 2172 3584 2448 3432 
Q 2725 3281 2906 2969 
z
M 947 1747 
Q 947 1113 1208 752 
Q 1469 391 1925 391 
Q 2381 391 2643 752 
Q 2906 1113 2906 1747 
Q 2906 2381 2643 2742 
Q 2381 3103 1925 3103 
Q 1469 3103 1208 2742 
Q 947 2381 947 1747 
z
" transform="scale(0.015625)"/>
       <path id="DejaVuSans-53" d="M 3425 4513 
L 3425 3897 
Q 3066 4069 2747 4153 
Q 2428 4238 2131 4238 
Q 1616 4238 1336 4038 
Q 1056 3838 1056 3469 
Q 1056 3159 1242 3001 
Q 1428 2844 1947 2747 
L 2328 2669 
Q 3034 2534 3370 2195 
Q 3706 1856 3706 1288 
Q 3706 609 3251 259 
Q 2797 -91 1919 -91 
Q 1588 -91 1214 -16 
Q 841 59 441 206 
L 441 856 
Q 825 641 1194 531 
Q 1563 422 1919 422 
Q 2459 422 2753 634 
Q 3047 847 3047 1241 
Q 3047 1584 2836 1778 
Q 2625 1972 2144 2069 
L 1759 2144 
Q 1053 2284 737 2584 
Q 422 2884 422 3419 
Q 422 4038 858 4394 
Q 1294 4750 2059 4750 
Q 2388 4750 2728 4690 
Q 3069 4631 3425 4513 
z
" transform="scale(0.015625)"/>
       <path id="DejaVuSans-54" d="M -19 4666 
L 3928 4666 
L 3928 4134 
L 2272 4134 
L 2272 0 
L 1638 0 
L 1638 4134 
L -19 4134 
L -19 4666 
z
" transform="scale(0.015625)"/>
       <path id="DejaVuSans-5b" d="M 550 4863 
L 1875 4863 
L 1875 4416 
L 1125 4416 
L 1125 -397 
L 1875 -397 
L 1875 -844 
L 550 -844 
L 550 4863 
z
" transform="scale(0.015625)"/>
       <path id="DejaVuSans-6d" d="M 3328 2828 
Q 3544 3216 3844 3400 
Q 4144 3584 4550 3584 
Q 5097 3584 5394 3201 
Q 5691 2819 5691 2113 
L 5691 0 
L 5113 0 
L 5113 2094 
Q 5113 2597 4934 2840 
Q 4756 3084 4391 3084 
Q 3944 3084 3684 2787 
Q 3425 2491 3425 1978 
L 3425 0 
L 2847 0 
L 2847 2094 
Q 2847 2600 2669 2842 
Q 2491 3084 2119 3084 
Q 1678 3084 1418 2786 
Q 1159 2488 1159 1978 
L 1159 0 
L 581 0 
L 581 3500 
L 1159 3500 
L 1159 2956 
Q 1356 3278 1631 3431 
Q 1906 3584 2284 3584 
Q 2666 3584 2933 3390 
Q 3200 3197 3328 2828 
z
" transform="scale(0.015625)"/>
       <path id="DejaVuSans-5d" d="M 1947 4863 
L 1947 -844 
L 622 -844 
L 622 -397 
L 1369 -397 
L 1369 4416 
L 622 4416 
L 622 4863 
L 1947 4863 
z
" transform="scale(0.015625)"/>
      </defs>
      <use xlink:href="#DejaVuSans-44"/>
      <use xlink:href="#DejaVuSans-69" x="77.001953"/>
      <use xlink:href="#DejaVuSans-73" x="104.785156"/>
      <use xlink:href="#DejaVuSans-74" x="156.884766"/>
      <use xlink:href="#DejaVuSans-61" x="196.09375"/>
      <use xlink:href="#DejaVuSans-6e" x="257.373047"/>
      <use xlink:href="#DejaVuSans-63" x="320.751953"/>
      <use xlink:href="#DejaVuSans-65" x="375.732422"/>
      <use xlink:href="#DejaVuSans-20" x="437.255859"/>
      <use xlink:href="#DejaVuSans-62" x="469.042969"/>
      <use xlink:href="#DejaVuSans-65" x="532.519531"/>
      <use xlink:href="#DejaVuSans-65" x="594.042969"/>
      <use xlink:href="#DejaVuSans-74" x="655.566406"/>
      <use xlink:href="#DejaVuSans-77" x="694.775391"/>
      <use xlink:href="#DejaVuSans-65" x="776.5625"/>
      <use xlink:href="#DejaVuSans-6e" x="838.085938"/>
      <use xlink:href="#DejaVuSans-20" x="901.464844"/>
      <use xlink:href="#DejaVuSans-41" x="933.251953"/>
      <use xlink:href="#DejaVuSans-50" x="1001.660156"/>
      <use xlink:href="#DejaVuSans-20" x="1061.962891"/>
      <use xlink:href="#DejaVuSans-61" x="1093.75"/>
      <use xlink:href="#DejaVuSans-6e" x="1155.029297"/>
      <use xlink:href="#DejaVuSans-64" x="1218.408203"/>
      <use xlink:href="#DejaVuSans-20" x="1281.884766"/>
      <use xlink:href="#DejaVuSans-53" x="1313.671875"/>
      <use xlink:href="#DejaVuSans-54" x="1377.148438"/>
      <use xlink:href="#DejaVuSans-41" x="1430.482422"/>
      <use xlink:href="#DejaVuSans-73" x="1498.890625"/>
      <use xlink:href="#DejaVuSans-20" x="1550.990234"/>
      <use xlink:href="#DejaVuSans-5b" x="1582.777344"/>
      <use xlink:href="#DejaVuSans-6d" x="1621.791016"/>
      <use xlink:href="#DejaVuSans-5d" x="1719.203125"/>
     </g>
    </g>
   </g>
   <g id="matplotlib.axis_2">
    <g id="ytick_1">
     <g id="line2d_15">
      <path d="M 46.965625 314.44 
L 425.845625 314.44 
" clip-path="url(#p7e796b915c)" style="fill: none; stroke-dasharray: 1.85,0.8; stroke-dashoffset: 0; stroke: #ffffff; stroke-width: 0.5"/>
     </g>
     <g id="line2d_16">
      <defs>
       <path id="ma2bc46f3d2" d="M 0 0 
L -3.5 0 
" style="stroke: #000000; stroke-width: 0.8"/>
      </defs>
      <g>
       <use xlink:href="#ma2bc46f3d2" x="46.965625" y="314.44" style="stroke: #000000; stroke-width: 0.8"/>
      </g>
     </g>
     <g id="text_9">
      <!-- 0 -->
      <g transform="translate(33.603125 318.239219) scale(0.1 -0.1)">
       <use xlink:href="#DejaVuSans-30"/>
      </g>
     </g>
    </g>
    <g id="ytick_2">
     <g id="line2d_17">
      <path d="M 46.965625 257.381836 
L 425.845625 257.381836 
" clip-path="url(#p7e796b915c)" style="fill: none; stroke-dasharray: 1.85,0.8; stroke-dashoffset: 0; stroke: #ffffff; stroke-width: 0.5"/>
     </g>
     <g id="line2d_18">
      <g>
       <use xlink:href="#ma2bc46f3d2" x="46.965625" y="257.381836" style="stroke: #000000; stroke-width: 0.8"/>
      </g>
     </g>
     <g id="text_10">
      <!-- 20 -->
      <g transform="translate(27.240625 261.181054) scale(0.1 -0.1)">
       <use xlink:href="#DejaVuSans-32"/>
       <use xlink:href="#DejaVuSans-30" x="63.623047"/>
      </g>
     </g>
    </g>
    <g id="ytick_3">
     <g id="line2d_19">
      <path d="M 46.965625 200.323671 
L 425.845625 200.323671 
" clip-path="url(#p7e796b915c)" style="fill: none; stroke-dasharray: 1.85,0.8; stroke-dashoffset: 0; stroke: #ffffff; stroke-width: 0.5"/>
     </g>
     <g id="line2d_20">
      <g>
       <use xlink:href="#ma2bc46f3d2" x="46.965625" y="200.323671" style="stroke: #000000; stroke-width: 0.8"/>
      </g>
     </g>
     <g id="text_11">
      <!-- 40 -->
      <g transform="translate(27.240625 204.12289) scale(0.1 -0.1)">
       <defs>
        <path id="DejaVuSans-34" d="M 2419 4116 
L 825 1625 
L 2419 1625 
L 2419 4116 
z
M 2253 4666 
L 3047 4666 
L 3047 1625 
L 3713 1625 
L 3713 1100 
L 3047 1100 
L 3047 0 
L 2419 0 
L 2419 1100 
L 313 1100 
L 313 1709 
L 2253 4666 
z
" transform="scale(0.015625)"/>
       </defs>
       <use xlink:href="#DejaVuSans-34"/>
       <use xlink:href="#DejaVuSans-30" x="63.623047"/>
      </g>
     </g>
    </g>
    <g id="ytick_4">
     <g id="line2d_21">
      <path d="M 46.965625 143.265507 
L 425.845625 143.265507 
" clip-path="url(#p7e796b915c)" style="fill: none; stroke-dasharray: 1.85,0.8; stroke-dashoffset: 0; stroke: #ffffff; stroke-width: 0.5"/>
     </g>
     <g id="line2d_22">
      <g>
       <use xlink:href="#ma2bc46f3d2" x="46.965625" y="143.265507" style="stroke: #000000; stroke-width: 0.8"/>
      </g>
     </g>
     <g id="text_12">
      <!-- 60 -->
      <g transform="translate(27.240625 147.064725) scale(0.1 -0.1)">
       <defs>
        <path id="DejaVuSans-36" d="M 2113 2584 
Q 1688 2584 1439 2293 
Q 1191 2003 1191 1497 
Q 1191 994 1439 701 
Q 1688 409 2113 409 
Q 2538 409 2786 701 
Q 3034 994 3034 1497 
Q 3034 2003 2786 2293 
Q 2538 2584 2113 2584 
z
M 3366 4563 
L 3366 3988 
Q 3128 4100 2886 4159 
Q 2644 4219 2406 4219 
Q 1781 4219 1451 3797 
Q 1122 3375 1075 2522 
Q 1259 2794 1537 2939 
Q 1816 3084 2150 3084 
Q 2853 3084 3261 2657 
Q 3669 2231 3669 1497 
Q 3669 778 3244 343 
Q 2819 -91 2113 -91 
Q 1303 -91 875 529 
Q 447 1150 447 2328 
Q 447 3434 972 4092 
Q 1497 4750 2381 4750 
Q 2619 4750 2861 4703 
Q 3103 4656 3366 4563 
z
" transform="scale(0.015625)"/>
       </defs>
       <use xlink:href="#DejaVuSans-36"/>
       <use xlink:href="#DejaVuSans-30" x="63.623047"/>
      </g>
     </g>
    </g>
    <g id="ytick_5">
     <g id="line2d_23">
      <path d="M 46.965625 86.207342 
L 425.845625 86.207342 
" clip-path="url(#p7e796b915c)" style="fill: none; stroke-dasharray: 1.85,0.8; stroke-dashoffset: 0; stroke: #ffffff; stroke-width: 0.5"/>
     </g>
     <g id="line2d_24">
      <g>
       <use xlink:href="#ma2bc46f3d2" x="46.965625" y="86.207342" style="stroke: #000000; stroke-width: 0.8"/>
      </g>
     </g>
     <g id="text_13">
      <!-- 80 -->
      <g transform="translate(27.240625 90.006561) scale(0.1 -0.1)">
       <defs>
        <path id="DejaVuSans-38" d="M 2034 2216 
Q 1584 2216 1326 1975 
Q 1069 1734 1069 1313 
Q 1069 891 1326 650 
Q 1584 409 2034 409 
Q 2484 409 2743 651 
Q 3003 894 3003 1313 
Q 3003 1734 2745 1975 
Q 2488 2216 2034 2216 
z
M 1403 2484 
Q 997 2584 770 2862 
Q 544 3141 544 3541 
Q 544 4100 942 4425 
Q 1341 4750 2034 4750 
Q 2731 4750 3128 4425 
Q 3525 4100 3525 3541 
Q 3525 3141 3298 2862 
Q 3072 2584 2669 2484 
Q 3125 2378 3379 2068 
Q 3634 1759 3634 1313 
Q 3634 634 3220 271 
Q 2806 -91 2034 -91 
Q 1263 -91 848 271 
Q 434 634 434 1313 
Q 434 1759 690 2068 
Q 947 2378 1403 2484 
z
M 1172 3481 
Q 1172 3119 1398 2916 
Q 1625 2713 2034 2713 
Q 2441 2713 2670 2916 
Q 2900 3119 2900 3481 
Q 2900 3844 2670 4047 
Q 2441 4250 2034 4250 
Q 1625 4250 1398 4047 
Q 1172 3844 1172 3481 
z
" transform="scale(0.015625)"/>
       </defs>
       <use xlink:href="#DejaVuSans-38"/>
       <use xlink:href="#DejaVuSans-30" x="63.623047"/>
      </g>
     </g>
    </g>
    <g id="ytick_6">
     <g id="line2d_25">
      <path d="M 46.965625 29.149178 
L 425.845625 29.149178 
" clip-path="url(#p7e796b915c)" style="fill: none; stroke-dasharray: 1.85,0.8; stroke-dashoffset: 0; stroke: #ffffff; stroke-width: 0.5"/>
     </g>
     <g id="line2d_26">
      <g>
       <use xlink:href="#ma2bc46f3d2" x="46.965625" y="29.149178" style="stroke: #000000; stroke-width: 0.8"/>
      </g>
     </g>
     <g id="text_14">
      <!-- 100 -->
      <g transform="translate(20.878125 32.948396) scale(0.1 -0.1)">
       <use xlink:href="#DejaVuSans-31"/>
       <use xlink:href="#DejaVuSans-30" x="63.623047"/>
       <use xlink:href="#DejaVuSans-30" x="127.246094"/>
      </g>
     </g>
    </g>
    <g id="text_15">
     <!-- Total throughput [Mbps] -->
     <g transform="translate(14.798438 220.789531) rotate(-90) scale(0.1 -0.1)">
      <defs>
       <path id="DejaVuSans-6f" d="M 1959 3097 
Q 1497 3097 1228 2736 
Q 959 2375 959 1747 
Q 959 1119 1226 758 
Q 1494 397 1959 397 
Q 2419 397 2687 759 
Q 2956 1122 2956 1747 
Q 2956 2369 2687 2733 
Q 2419 3097 1959 3097 
z
M 1959 3584 
Q 2709 3584 3137 3096 
Q 3566 2609 3566 1747 
Q 3566 888 3137 398 
Q 2709 -91 1959 -91 
Q 1206 -91 779 398 
Q 353 888 353 1747 
Q 353 2609 779 3096 
Q 1206 3584 1959 3584 
z
" transform="scale(0.015625)"/>
       <path id="DejaVuSans-6c" d="M 603 4863 
L 1178 4863 
L 1178 0 
L 603 0 
L 603 4863 
z
" transform="scale(0.015625)"/>
       <path id="DejaVuSans-68" d="M 3513 2113 
L 3513 0 
L 2938 0 
L 2938 2094 
Q 2938 2591 2744 2837 
Q 2550 3084 2163 3084 
Q 1697 3084 1428 2787 
Q 1159 2491 1159 1978 
L 1159 0 
L 581 0 
L 581 4863 
L 1159 4863 
L 1159 2956 
Q 1366 3272 1645 3428 
Q 1925 3584 2291 3584 
Q 2894 3584 3203 3211 
Q 3513 2838 3513 2113 
z
" transform="scale(0.015625)"/>
       <path id="DejaVuSans-72" d="M 2631 2963 
Q 2534 3019 2420 3045 
Q 2306 3072 2169 3072 
Q 1681 3072 1420 2755 
Q 1159 2438 1159 1844 
L 1159 0 
L 581 0 
L 581 3500 
L 1159 3500 
L 1159 2956 
Q 1341 3275 1631 3429 
Q 1922 3584 2338 3584 
Q 2397 3584 2469 3576 
Q 2541 3569 2628 3553 
L 2631 2963 
z
" transform="scale(0.015625)"/>
       <path id="DejaVuSans-75" d="M 544 1381 
L 544 3500 
L 1119 3500 
L 1119 1403 
Q 1119 906 1312 657 
Q 1506 409 1894 409 
Q 2359 409 2629 706 
Q 2900 1003 2900 1516 
L 2900 3500 
L 3475 3500 
L 3475 0 
L 2900 0 
L 2900 538 
Q 2691 219 2414 64 
Q 2138 -91 1772 -91 
Q 1169 -91 856 284 
Q 544 659 544 1381 
z
M 1991 3584 
L 1991 3584 
z
" transform="scale(0.015625)"/>
       <path id="DejaVuSans-67" d="M 2906 1791 
Q 2906 2416 2648 2759 
Q 2391 3103 1925 3103 
Q 1463 3103 1205 2759 
Q 947 2416 947 1791 
Q 947 1169 1205 825 
Q 1463 481 1925 481 
Q 2391 481 2648 825 
Q 2906 1169 2906 1791 
z
M 3481 434 
Q 3481 -459 3084 -895 
Q 2688 -1331 1869 -1331 
Q 1566 -1331 1297 -1286 
Q 1028 -1241 775 -1147 
L 775 -588 
Q 1028 -725 1275 -790 
Q 1522 -856 1778 -856 
Q 2344 -856 2625 -561 
Q 2906 -266 2906 331 
L 2906 616 
Q 2728 306 2450 153 
Q 2172 0 1784 0 
Q 1141 0 747 490 
Q 353 981 353 1791 
Q 353 2603 747 3093 
Q 1141 3584 1784 3584 
Q 2172 3584 2450 3431 
Q 2728 3278 2906 2969 
L 2906 3500 
L 3481 3500 
L 3481 434 
z
" transform="scale(0.015625)"/>
       <path id="DejaVuSans-70" d="M 1159 525 
L 1159 -1331 
L 581 -1331 
L 581 3500 
L 1159 3500 
L 1159 2969 
Q 1341 3281 1617 3432 
Q 1894 3584 2278 3584 
Q 2916 3584 3314 3078 
Q 3713 2572 3713 1747 
Q 3713 922 3314 415 
Q 2916 -91 2278 -91 
Q 1894 -91 1617 61 
Q 1341 213 1159 525 
z
M 3116 1747 
Q 3116 2381 2855 2742 
Q 2594 3103 2138 3103 
Q 1681 3103 1420 2742 
Q 1159 2381 1159 1747 
Q 1159 1113 1420 752 
Q 1681 391 2138 391 
Q 2594 391 2855 752 
Q 3116 1113 3116 1747 
z
" transform="scale(0.015625)"/>
       <path id="DejaVuSans-4d" d="M 628 4666 
L 1569 4666 
L 2759 1491 
L 3956 4666 
L 4897 4666 
L 4897 0 
L 4281 0 
L 4281 4097 
L 3078 897 
L 2444 897 
L 1241 4097 
L 1241 0 
L 628 0 
L 628 4666 
z
" transform="scale(0.015625)"/>
      </defs>
      <use xlink:href="#DejaVuSans-54"/>
      <use xlink:href="#DejaVuSans-6f" x="44.083984"/>
      <use xlink:href="#DejaVuSans-74" x="105.265625"/>
      <use xlink:href="#DejaVuSans-61" x="144.474609"/>
      <use xlink:href="#DejaVuSans-6c" x="205.753906"/>
      <use xlink:href="#DejaVuSans-20" x="233.537109"/>
      <use xlink:href="#DejaVuSans-74" x="265.324219"/>
      <use xlink:href="#DejaVuSans-68" x="304.533203"/>
      <use xlink:href="#DejaVuSans-72" x="367.912109"/>
      <use xlink:href="#DejaVuSans-6f" x="406.775391"/>
      <use xlink:href="#DejaVuSans-75" x="467.957031"/>
      <use xlink:href="#DejaVuSans-67" x="531.335938"/>
      <use xlink:href="#DejaVuSans-68" x="594.8125"/>
      <use xlink:href="#DejaVuSans-70" x="658.191406"/>
      <use xlink:href="#DejaVuSans-75" x="721.667969"/>
      <use xlink:href="#DejaVuSans-74" x="785.046875"/>
      <use xlink:href="#DejaVuSans-20" x="824.255859"/>
      <use xlink:href="#DejaVuSans-5b" x="856.042969"/>
      <use xlink:href="#DejaVuSans-4d" x="895.056641"/>
      <use xlink:href="#DejaVuSans-62" x="981.335938"/>
      <use xlink:href="#DejaVuSans-70" x="1044.8125"/>
      <use xlink:href="#DejaVuSans-73" x="1108.289062"/>
      <use xlink:href="#DejaVuSans-5d" x="1160.388672"/>
     </g>
    </g>
   </g>
   <g id="line2d_27">
    <path d="M 64.187443 14.753403 
L 87.149867 14.753403 
L 110.112292 14.753403 
L 133.074716 14.753403 
L 156.03714 14.753403 
L 178.999564 14.753403 
L 201.961989 14.892244 
L 224.924413 43.782314 
L 247.886837 57.104445 
L 270.849261 72.964142 
L 293.811686 73.488411 
L 316.77411 73.493261 
L 339.736534 73.70295 
L 362.698958 77.028775 
L 385.661383 99.052942 
L 408.623807 106.062727 
" clip-path="url(#p7e796b915c)" style="fill: none; stroke: #003f5c; stroke-width: 1.5; stroke-linecap: square"/>
    <defs>
     <path id="mf45ca671e6" d="M 0 4 
C 1.060812 4 2.078319 3.578535 2.828427 2.828427 
C 3.578535 2.078319 4 1.060812 4 0 
C 4 -1.060812 3.578535 -2.078319 2.828427 -2.828427 
C 2.078319 -3.578535 1.060812 -4 0 -4 
C -1.060812 -4 -2.078319 -3.578535 -2.828427 -2.828427 
C -3.578535 -2.078319 -4 -1.060812 -4 0 
C -4 1.060812 -3.578535 2.078319 -2.828427 2.828427 
C -2.078319 3.578535 -1.060812 4 0 4 
z
" style="stroke: #ffffff; stroke-width: 0.75"/>
    </defs>
    <g clip-path="url(#p7e796b915c)">
     <use xlink:href="#mf45ca671e6" x="64.187443" y="14.753403" style="fill: #003f5c; stroke: #ffffff; stroke-width: 0.75"/>
     <use xlink:href="#mf45ca671e6" x="87.149867" y="14.753403" style="fill: #003f5c; stroke: #ffffff; stroke-width: 0.75"/>
     <use xlink:href="#mf45ca671e6" x="110.112292" y="14.753403" style="fill: #003f5c; stroke: #ffffff; stroke-width: 0.75"/>
     <use xlink:href="#mf45ca671e6" x="133.074716" y="14.753403" style="fill: #003f5c; stroke: #ffffff; stroke-width: 0.75"/>
     <use xlink:href="#mf45ca671e6" x="156.03714" y="14.753403" style="fill: #003f5c; stroke: #ffffff; stroke-width: 0.75"/>
     <use xlink:href="#mf45ca671e6" x="178.999564" y="14.753403" style="fill: #003f5c; stroke: #ffffff; stroke-width: 0.75"/>
     <use xlink:href="#mf45ca671e6" x="201.961989" y="14.892244" style="fill: #003f5c; stroke: #ffffff; stroke-width: 0.75"/>
     <use xlink:href="#mf45ca671e6" x="224.924413" y="43.782314" style="fill: #003f5c; stroke: #ffffff; stroke-width: 0.75"/>
     <use xlink:href="#mf45ca671e6" x="247.886837" y="57.104445" style="fill: #003f5c; stroke: #ffffff; stroke-width: 0.75"/>
     <use xlink:href="#mf45ca671e6" x="270.849261" y="72.964142" style="fill: #003f5c; stroke: #ffffff; stroke-width: 0.75"/>
     <use xlink:href="#mf45ca671e6" x="293.811686" y="73.488411" style="fill: #003f5c; stroke: #ffffff; stroke-width: 0.75"/>
     <use xlink:href="#mf45ca671e6" x="316.77411" y="73.493261" style="fill: #003f5c; stroke: #ffffff; stroke-width: 0.75"/>
     <use xlink:href="#mf45ca671e6" x="339.736534" y="73.70295" style="fill: #003f5c; stroke: #ffffff; stroke-width: 0.75"/>
     <use xlink:href="#mf45ca671e6" x="362.698958" y="77.028775" style="fill: #003f5c; stroke: #ffffff; stroke-width: 0.75"/>
     <use xlink:href="#mf45ca671e6" x="385.661383" y="99.052942" style="fill: #003f5c; stroke: #ffffff; stroke-width: 0.75"/>
     <use xlink:href="#mf45ca671e6" x="408.623807" y="106.062727" style="fill: #003f5c; stroke: #ffffff; stroke-width: 0.75"/>
    </g>
   </g>
   <g id="line2d_28">
    <path d="M 64.187443 17.552106 
L 87.149867 17.552106 
L 110.112292 17.552106 
L 133.074716 17.553057 
L 156.03714 34.58178 
L 178.999564 57.461439 
L 201.961989 57.686153 
L 224.924413 65.859259 
L 247.886837 79.120147 
L 270.849261 99.111046 
L 293.811686 116.252079 
L 316.77411 116.37523 
L 339.736534 118.43251 
L 362.698958 130.112744 
L 385.661383 144.710932 
L 408.623807 153.275791 
" clip-path="url(#p7e796b915c)" style="fill: none; stroke: #7a5195; stroke-width: 1.5; stroke-linecap: square"/>
    <defs>
     <path id="m3f8aa45756" d="M 0 4 
C 1.060812 4 2.078319 3.578535 2.828427 2.828427 
C 3.578535 2.078319 4 1.060812 4 0 
C 4 -1.060812 3.578535 -2.078319 2.828427 -2.828427 
C 2.078319 -3.578535 1.060812 -4 0 -4 
C -1.060812 -4 -2.078319 -3.578535 -2.828427 -2.828427 
C -3.578535 -2.078319 -4 -1.060812 -4 0 
C -4 1.060812 -3.578535 2.078319 -2.828427 2.828427 
C -2.078319 3.578535 -1.060812 4 0 4 
z
" style="stroke: #ffffff; stroke-width: 0.75"/>
    </defs>
    <g clip-path="url(#p7e796b915c)">
     <use xlink:href="#m3f8aa45756" x="64.187443" y="17.552106" style="fill: #7a5195; stroke: #ffffff; stroke-width: 0.75"/>
     <use xlink:href="#m3f8aa45756" x="87.149867" y="17.552106" style="fill: #7a5195; stroke: #ffffff; stroke-width: 0.75"/>
     <use xlink:href="#m3f8aa45756" x="110.112292" y="17.552106" style="fill: #7a5195; stroke: #ffffff; stroke-width: 0.75"/>
     <use xlink:href="#m3f8aa45756" x="133.074716" y="17.553057" style="fill: #7a5195; stroke: #ffffff; stroke-width: 0.75"/>
     <use xlink:href="#m3f8aa45756" x="156.03714" y="34.58178" style="fill: #7a5195; stroke: #ffffff; stroke-width: 0.75"/>
     <use xlink:href="#m3f8aa45756" x="178.999564" y="57.461439" style="fill: #7a5195; stroke: #ffffff; stroke-width: 0.75"/>
     <use xlink:href="#m3f8aa45756" x="201.961989" y="57.686153" style="fill: #7a5195; stroke: #ffffff; stroke-width: 0.75"/>
     <use xlink:href="#m3f8aa45756" x="224.924413" y="65.859259" style="fill: #7a5195; stroke: #ffffff; stroke-width: 0.75"/>
     <use xlink:href="#m3f8aa45756" x="247.886837" y="79.120147" style="fill: #7a5195; stroke: #ffffff; stroke-width: 0.75"/>
     <use xlink:href="#m3f8aa45756" x="270.849261" y="99.111046" style="fill: #7a5195; stroke: #ffffff; stroke-width: 0.75"/>
     <use xlink:href="#m3f8aa45756" x="293.811686" y="116.252079" style="fill: #7a5195; stroke: #ffffff; stroke-width: 0.75"/>
     <use xlink:href="#m3f8aa45756" x="316.77411" y="116.37523" style="fill: #7a5195; stroke: #ffffff; stroke-width: 0.75"/>
     <use xlink:href="#m3f8aa45756" x="339.736534" y="118.43251" style="fill: #7a5195; stroke: #ffffff; stroke-width: 0.75"/>
     <use xlink:href="#m3f8aa45756" x="362.698958" y="130.112744" style="fill: #7a5195; stroke: #ffffff; stroke-width: 0.75"/>
     <use xlink:href="#m3f8aa45756" x="385.661383" y="144.710932" style="fill: #7a5195; stroke: #ffffff; stroke-width: 0.75"/>
     <use xlink:href="#m3f8aa45756" x="408.623807" y="153.275791" style="fill: #7a5195; stroke: #ffffff; stroke-width: 0.75"/>
    </g>
   </g>
   <g id="line2d_29">
    <path d="M 64.187443 17.681437 
L 87.149867 17.681437 
L 110.112292 17.681437 
L 133.074716 17.681437 
L 156.03714 25.900666 
L 178.999564 38.547989 
L 201.961989 38.727436 
L 224.924413 56.619926 
L 247.886837 69.472182 
L 270.849261 86.644408 
L 293.811686 95.065337 
L 316.77411 95.292048 
L 339.736534 96.219528 
L 362.698958 103.889477 
L 385.661383 123.005008 
L 408.623807 130.393945 
" clip-path="url(#p7e796b915c)" style="fill: none; stroke: #ef5675; stroke-width: 1.5; stroke-linecap: square"/>
    <defs>
     <path id="m118894f677" d="M 0 4 
C 1.060812 4 2.078319 3.578535 2.828427 2.828427 
C 3.578535 2.078319 4 1.060812 4 0 
C 4 -1.060812 3.578535 -2.078319 2.828427 -2.828427 
C 2.078319 -3.578535 1.060812 -4 0 -4 
C -1.060812 -4 -2.078319 -3.578535 -2.828427 -2.828427 
C -3.578535 -2.078319 -4 -1.060812 -4 0 
C -4 1.060812 -3.578535 2.078319 -2.828427 2.828427 
C -2.078319 3.578535 -1.060812 4 0 4 
z
" style="stroke: #ffffff; stroke-width: 0.75"/>
    </defs>
    <g clip-path="url(#p7e796b915c)">
     <use xlink:href="#m118894f677" x="64.187443" y="17.681437" style="fill: #ef5675; stroke: #ffffff; stroke-width: 0.75"/>
     <use xlink:href="#m118894f677" x="87.149867" y="17.681437" style="fill: #ef5675; stroke: #ffffff; stroke-width: 0.75"/>
     <use xlink:href="#m118894f677" x="110.112292" y="17.681437" style="fill: #ef5675; stroke: #ffffff; stroke-width: 0.75"/>
     <use xlink:href="#m118894f677" x="133.074716" y="17.681437" style="fill: #ef5675; stroke: #ffffff; stroke-width: 0.75"/>
     <use xlink:href="#m118894f677" x="156.03714" y="25.900666" style="fill: #ef5675; stroke: #ffffff; stroke-width: 0.75"/>
     <use xlink:href="#m118894f677" x="178.999564" y="38.547989" style="fill: #ef5675; stroke: #ffffff; stroke-width: 0.75"/>
     <use xlink:href="#m118894f677" x="201.961989" y="38.727436" style="fill: #ef5675; stroke: #ffffff; stroke-width: 0.75"/>
     <use xlink:href="#m118894f677" x="224.924413" y="56.619926" style="fill: #ef5675; stroke: #ffffff; stroke-width: 0.75"/>
     <use xlink:href="#m118894f677" x="247.886837" y="69.472182" style="fill: #ef5675; stroke: #ffffff; stroke-width: 0.75"/>
     <use xlink:href="#m118894f677" x="270.849261" y="86.644408" style="fill: #ef5675; stroke: #ffffff; stroke-width: 0.75"/>
     <use xlink:href="#m118894f677" x="293.811686" y="95.065337" style="fill: #ef5675; stroke: #ffffff; stroke-width: 0.75"/>
     <use xlink:href="#m118894f677" x="316.77411" y="95.292048" style="fill: #ef5675; stroke: #ffffff; stroke-width: 0.75"/>
     <use xlink:href="#m118894f677" x="339.736534" y="96.219528" style="fill: #ef5675; stroke: #ffffff; stroke-width: 0.75"/>
     <use xlink:href="#m118894f677" x="362.698958" y="103.889477" style="fill: #ef5675; stroke: #ffffff; stroke-width: 0.75"/>
     <use xlink:href="#m118894f677" x="385.661383" y="123.005008" style="fill: #ef5675; stroke: #ffffff; stroke-width: 0.75"/>
     <use xlink:href="#m118894f677" x="408.623807" y="130.393945" style="fill: #ef5675; stroke: #ffffff; stroke-width: 0.75"/>
    </g>
   </g>
   <g id="line2d_30">
    <path d="M 64.187443 17.214511 
L 87.149867 17.214511 
L 110.112292 17.214511 
L 133.074716 17.255403 
L 156.03714 38.433777 
L 178.999564 58.158785 
L 201.961989 58.169816 
L 224.924413 69.32716 
L 247.886837 87.180944 
L 270.849261 109.863942 
L 293.811686 116.784527 
L 316.77411 118.844612 
L 339.736534 126.292985 
L 362.698958 138.486029 
L 385.661383 153.624131 
L 408.623807 165.412728 
" clip-path="url(#p7e796b915c)" style="fill: none; stroke: #ffa600; stroke-width: 1.5; stroke-linecap: square"/>
    <defs>
     <path id="mce23bd07eb" d="M 0 4 
C 1.060812 4 2.078319 3.578535 2.828427 2.828427 
C 3.578535 2.078319 4 1.060812 4 0 
C 4 -1.060812 3.578535 -2.078319 2.828427 -2.828427 
C 2.078319 -3.578535 1.060812 -4 0 -4 
C -1.060812 -4 -2.078319 -3.578535 -2.828427 -2.828427 
C -3.578535 -2.078319 -4 -1.060812 -4 0 
C -4 1.060812 -3.578535 2.078319 -2.828427 2.828427 
C -2.078319 3.578535 -1.060812 4 0 4 
z
" style="stroke: #ffffff; stroke-width: 0.75"/>
    </defs>
    <g clip-path="url(#p7e796b915c)">
     <use xlink:href="#mce23bd07eb" x="64.187443" y="17.214511" style="fill: #ffa600; stroke: #ffffff; stroke-width: 0.75"/>
     <use xlink:href="#mce23bd07eb" x="87.149867" y="17.214511" style="fill: #ffa600; stroke: #ffffff; stroke-width: 0.75"/>
     <use xlink:href="#mce23bd07eb" x="110.112292" y="17.214511" style="fill: #ffa600; stroke: #ffffff; stroke-width: 0.75"/>
     <use xlink:href="#mce23bd07eb" x="133.074716" y="17.255403" style="fill: #ffa600; stroke: #ffffff; stroke-width: 0.75"/>
     <use xlink:href="#mce23bd07eb" x="156.03714" y="38.433777" style="fill: #ffa600; stroke: #ffffff; stroke-width: 0.75"/>
     <use xlink:href="#mce23bd07eb" x="178.999564" y="58.158785" style="fill: #ffa600; stroke: #ffffff; stroke-width: 0.75"/>
     <use xlink:href="#mce23bd07eb" x="201.961989" y="58.169816" style="fill: #ffa600; stroke: #ffffff; stroke-width: 0.75"/>
     <use xlink:href="#mce23bd07eb" x="224.924413" y="69.32716" style="fill: #ffa600; stroke: #ffffff; stroke-width: 0.75"/>
     <use xlink:href="#mce23bd07eb" x="247.886837" y="87.180944" style="fill: #ffa600; stroke: #ffffff; stroke-width: 0.75"/>
     <use xlink:href="#mce23bd07eb" x="270.849261" y="109.863942" style="fill: #ffa600; stroke: #ffffff; stroke-width: 0.75"/>
     <use xlink:href="#mce23bd07eb" x="293.811686" y="116.784527" style="fill: #ffa600; stroke: #ffffff; stroke-width: 0.75"/>
     <use xlink:href="#mce23bd07eb" x="316.77411" y="118.844612" style="fill: #ffa600; stroke: #ffffff; stroke-width: 0.75"/>
     <use xlink:href="#mce23bd07eb" x="339.736534" y="126.292985" style="fill: #ffa600; stroke: #ffffff; stroke-width: 0.75"/>
     <use xlink:href="#mce23bd07eb" x="362.698958" y="138.486029" style="fill: #ffa600; stroke: #ffffff; stroke-width: 0.75"/>
     <use xlink:href="#mce23bd07eb" x="385.661383" y="153.624131" style="fill: #ffa600; stroke: #ffffff; stroke-width: 0.75"/>
     <use xlink:href="#mce23bd07eb" x="408.623807" y="165.412728" style="fill: #ffa600; stroke: #ffffff; stroke-width: 0.75"/>
    </g>
   </g>
   <g id="line2d_31"/>
   <g id="line2d_32"/>
   <g id="line2d_33"/>
   <g id="line2d_34"/>
   <g id="line2d_35"/>
   <g id="line2d_36"/>
   <g id="line2d_37"/>
   <g id="patch_3">
    <path d="M 46.965625 314.44 
L 46.965625 7.2 
" style="fill: none; stroke: #000000; stroke-width: 0.8; stroke-linejoin: miter; stroke-linecap: square"/>
   </g>
   <g id="patch_4">
    <path d="M 425.845625 314.44 
L 425.845625 7.2 
" style="fill: none; stroke: #000000; stroke-width: 0.8; stroke-linejoin: miter; stroke-linecap: square"/>
   </g>
   <g id="patch_5">
    <path d="M 46.965625 314.44 
L 425.845625 314.44 
" style="fill: none; stroke: #000000; stroke-width: 0.8; stroke-linejoin: miter; stroke-linecap: square"/>
   </g>
   <g id="patch_6">
    <path d="M 46.965625 7.2 
L 425.845625 7.2 
" style="fill: none; stroke: #000000; stroke-width: 0.8; stroke-linejoin: miter; stroke-linecap: square"/>
   </g>
   <g id="legend_1">
    <g id="patch_7">
     <path d="M 55.365625 308.44 
L 103.005625 308.44 
Q 105.405625 308.44 105.405625 306.04 
L 105.405625 236.785 
Q 105.405625 234.385 103.005625 234.385 
L 55.365625 234.385 
Q 52.965625 234.385 52.965625 236.785 
L 52.965625 306.04 
Q 52.965625 308.44 55.365625 308.44 
z
" style="fill: #ffffff; opacity: 0.8; stroke: #cccccc; stroke-linejoin: miter"/>
    </g>
    <g id="line2d_38">
     <path d="M 57.765625 244.103125 
L 69.765625 244.103125 
L 81.765625 244.103125 
" style="fill: none; stroke: #003f5c; stroke-width: 1.5; stroke-linecap: square"/>
    </g>
    <g id="text_16">
     <!-- A -->
     <g transform="translate(91.365625 248.303125) scale(0.12 -0.12)">
      <use xlink:href="#DejaVuSans-41"/>
     </g>
    </g>
    <g id="line2d_39">
     <path d="M 57.765625 261.716875 
L 69.765625 261.716875 
L 81.765625 261.716875 
" style="fill: none; stroke: #7a5195; stroke-width: 1.5; stroke-linecap: square"/>
    </g>
    <g id="text_17">
     <!-- B -->
     <g transform="translate(91.365625 265.916875) scale(0.12 -0.12)">
      <defs>
       <path id="DejaVuSans-42" d="M 1259 2228 
L 1259 519 
L 2272 519 
Q 2781 519 3026 730 
Q 3272 941 3272 1375 
Q 3272 1813 3026 2020 
Q 2781 2228 2272 2228 
L 1259 2228 
z
M 1259 4147 
L 1259 2741 
L 2194 2741 
Q 2656 2741 2882 2914 
Q 3109 3088 3109 3444 
Q 3109 3797 2882 3972 
Q 2656 4147 2194 4147 
L 1259 4147 
z
M 628 4666 
L 2241 4666 
Q 2963 4666 3353 4366 
Q 3744 4066 3744 3513 
Q 3744 3084 3544 2831 
Q 3344 2578 2956 2516 
Q 3422 2416 3680 2098 
Q 3938 1781 3938 1306 
Q 3938 681 3513 340 
Q 3088 0 2303 0 
L 628 0 
L 628 4666 
z
" transform="scale(0.015625)"/>
      </defs>
      <use xlink:href="#DejaVuSans-42"/>
     </g>
    </g>
    <g id="line2d_40">
     <path d="M 57.765625 279.330625 
L 69.765625 279.330625 
L 81.765625 279.330625 
" style="fill: none; stroke: #ef5675; stroke-width: 1.5; stroke-linecap: square"/>
    </g>
    <g id="text_18">
     <!-- C -->
     <g transform="translate(91.365625 283.530625) scale(0.12 -0.12)">
      <defs>
       <path id="DejaVuSans-43" d="M 4122 4306 
L 4122 3641 
Q 3803 3938 3442 4084 
Q 3081 4231 2675 4231 
Q 1875 4231 1450 3742 
Q 1025 3253 1025 2328 
Q 1025 1406 1450 917 
Q 1875 428 2675 428 
Q 3081 428 3442 575 
Q 3803 722 4122 1019 
L 4122 359 
Q 3791 134 3420 21 
Q 3050 -91 2638 -91 
Q 1578 -91 968 557 
Q 359 1206 359 2328 
Q 359 3453 968 4101 
Q 1578 4750 2638 4750 
Q 3056 4750 3426 4639 
Q 3797 4528 4122 4306 
z
" transform="scale(0.015625)"/>
      </defs>
      <use xlink:href="#DejaVuSans-43"/>
     </g>
    </g>
    <g id="line2d_41">
     <path d="M 57.765625 296.944375 
L 69.765625 296.944375 
L 81.765625 296.944375 
" style="fill: none; stroke: #ffa600; stroke-width: 1.5; stroke-linecap: square"/>
    </g>
    <g id="text_19">
     <!-- D -->
     <g transform="translate(91.365625 301.144375) scale(0.12 -0.12)">
      <use xlink:href="#DejaVuSans-44"/>
     </g>
    </g>
   </g>
  </g>
  <g id="axes_2">
   <g id="patch_8">
    <path d="M 470.415625 314.44 
L 849.295625 314.44 
L 849.295625 7.2 
L 470.415625 7.2 
z
" style="fill: #ffffff"/>
   </g>
   <g id="PolyCollection_5">
    <defs>
     <path id="m6ac3593767" d="M 487.637443 -48.090463 
L 487.637443 -48.001085 
L 510.599867 -48.001085 
L 533.562292 -48.012913 
L 556.524716 -48.001085 
L 579.48714 -48.001085 
L 602.449564 -48.001085 
L 625.411989 -48.256172 
L 648.374413 -102.251539 
L 671.336837 -127.412344 
L 694.299261 -156.760512 
L 717.261686 -156.998548 
L 740.22411 -157.007703 
L 763.186534 -157.412821 
L 786.148958 -163.371146 
L 809.111383 -205.351787 
L 832.073807 -218.924386 
L 832.073807 -219.573261 
L 832.073807 -219.573261 
L 809.111383 -206.443546 
L 786.148958 -165.497443 
L 763.186534 -159.321682 
L 740.22411 -158.977218 
L 717.261686 -158.969207 
L 694.299261 -157.872298 
L 671.336837 -127.444387 
L 648.374413 -102.561357 
L 625.411989 -48.355392 
L 602.449564 -48.090463 
L 579.48714 -48.090463 
L 556.524716 -48.090463 
L 533.562292 -48.090463 
L 510.599867 -48.090463 
L 487.637443 -48.090463 
z
" style="stroke: #003f5c; stroke-opacity: 0.2"/>
    </defs>
    <g clip-path="url(#pd876823c90)">
     <use xlink:href="#m6ac3593767" x="0" y="351.99625" style="fill: #003f5c; fill-opacity: 0.2; stroke: #003f5c; stroke-opacity: 0.2"/>
    </g>
   </g>
   <g id="PolyCollection_6">
    <defs>
     <path id="m191a31e231" d="M 487.637443 -53.307445 
L 487.637443 -53.267448 
L 510.599867 -53.279731 
L 533.562292 -53.267448 
L 556.524716 -53.267963 
L 579.48714 -85.059142 
L 602.449564 -127.954218 
L 625.411989 -128.456037 
L 648.374413 -143.812757 
L 671.336837 -168.296077 
L 694.299261 -205.59955 
L 717.261686 -237.935751 
L 740.22411 -238.239017 
L 763.186534 -242.342268 
L 786.148958 -263.946273 
L 809.111383 -291.58299 
L 832.073807 -307.633789 
L 832.073807 -307.765968 
L 832.073807 -307.765968 
L 809.111383 -291.70258 
L 786.148958 -264.628909 
L 763.186534 -242.450413 
L 740.22411 -238.935957 
L 717.261686 -238.9886 
L 694.299261 -206.663271 
L 671.336837 -169.553773 
L 648.374413 -143.868833 
L 625.411989 -128.648297 
L 602.449564 -128.206558 
L 579.48714 -85.334485 
L 556.524716 -53.30796 
L 533.562292 -53.307445 
L 510.599867 -53.307445 
L 487.637443 -53.307445 
z
" style="stroke: #7a5195; stroke-opacity: 0.2"/>
    </defs>
    <g clip-path="url(#pd876823c90)">
     <use xlink:href="#m191a31e231" x="0" y="351.99625" style="fill: #7a5195; fill-opacity: 0.2; stroke: #7a5195; stroke-opacity: 0.2"/>
    </g>
   </g>
   <g id="PolyCollection_7">
    <defs>
     <path id="m3392fd9a8b" d="M 487.637443 -53.545366 
L 487.637443 -53.508974 
L 510.599867 -53.508974 
L 533.562292 -53.508974 
L 556.524716 -53.508974 
L 579.48714 -68.892358 
L 602.449564 -92.272074 
L 625.411989 -92.888735 
L 648.374413 -126.465924 
L 671.336837 -150.38677 
L 694.299261 -182.744142 
L 717.261686 -198.25135 
L 740.22411 -198.77663 
L 763.186534 -200.591651 
L 786.148958 -214.814269 
L 809.111383 -250.72844 
L 832.073807 -264.511608 
L 832.073807 -265.383069 
L 832.073807 -265.383069 
L 809.111383 -251.102659 
L 786.148958 -215.333255 
L 763.186534 -200.858296 
L 740.22411 -199.239541 
L 717.261686 -198.770336 
L 694.299261 -182.859154 
L 671.336837 -150.858835 
L 648.374413 -126.588947 
L 625.411989 -93.105885 
L 602.449564 -92.889822 
L 579.48714 -68.991578 
L 556.524716 -53.545881 
L 533.562292 -53.545366 
L 510.599867 -53.544696 
L 487.637443 -53.545366 
z
" style="stroke: #ef5675; stroke-opacity: 0.2"/>
    </defs>
    <g clip-path="url(#pd876823c90)">
     <use xlink:href="#m3392fd9a8b" x="0" y="351.99625" style="fill: #ef5675; fill-opacity: 0.2; stroke: #ef5675; stroke-opacity: 0.2"/>
    </g>
   </g>
   <g id="PolyCollection_8">
    <path d="M 487.637443 299.346035 
L 487.637443 299.354332 
L 510.599867 299.354332 
L 533.562292 299.354332 
L 556.524716 299.287842 
L 579.48714 259.751699 
L 602.449564 222.872826 
L 625.411989 223.053842 
L 648.374413 202.008876 
L 671.336837 168.583206 
L 694.299261 126.13851 
L 694.299261 125.029585 
L 694.299261 125.029585 
L 671.336837 167.601882 
L 648.374413 201.31308 
L 625.411989 222.051347 
L 602.449564 222.341452 
L 579.48714 259.367237 
L 556.524716 299.269131 
L 533.562292 299.346035 
L 510.599867 299.346035 
L 487.637443 299.346035 
z
" clip-path="url(#pd876823c90)" style="fill: #ffa600; fill-opacity: 0.2; stroke: #ffa600; stroke-opacity: 0.2"/>
    <path d="M 832.073807 21.333103 
L 832.073807 21.816613 
L 832.073807 21.333103 
L 832.073807 21.333103 
z
" clip-path="url(#pd876823c90)" style="fill: #ffa600; fill-opacity: 0.2; stroke: #ffa600; stroke-opacity: 0.2"/>
   </g>
   <g id="matplotlib.axis_3">
    <g id="xtick_8">
     <g id="line2d_42">
      <path d="M 476.156231 314.44 
L 476.156231 7.2 
" clip-path="url(#pd876823c90)" style="fill: none; stroke-dasharray: 1.85,0.8; stroke-dashoffset: 0; stroke: #ffffff; stroke-width: 0.5"/>
     </g>
     <g id="line2d_43">
      <g>
       <use xlink:href="#m27f824d42b" x="476.156231" y="314.44" style="stroke: #000000; stroke-width: 0.8"/>
      </g>
     </g>
     <g id="text_20">
      <!-- 0 -->
      <g transform="translate(472.974981 329.038437) scale(0.1 -0.1)">
       <use xlink:href="#DejaVuSans-30"/>
      </g>
     </g>
    </g>
    <g id="xtick_9">
     <g id="line2d_44">
      <path d="M 533.562292 314.44 
L 533.562292 7.2 
" clip-path="url(#pd876823c90)" style="fill: none; stroke-dasharray: 1.85,0.8; stroke-dashoffset: 0; stroke: #ffffff; stroke-width: 0.5"/>
     </g>
     <g id="line2d_45">
      <g>
       <use xlink:href="#m27f824d42b" x="533.562292" y="314.44" style="stroke: #000000; stroke-width: 0.8"/>
      </g>
     </g>
     <g id="text_21">
      <!-- 5 -->
      <g transform="translate(530.381042 329.038437) scale(0.1 -0.1)">
       <use xlink:href="#DejaVuSans-35"/>
      </g>
     </g>
    </g>
    <g id="xtick_10">
     <g id="line2d_46">
      <path d="M 590.968352 314.44 
L 590.968352 7.2 
" clip-path="url(#pd876823c90)" style="fill: none; stroke-dasharray: 1.85,0.8; stroke-dashoffset: 0; stroke: #ffffff; stroke-width: 0.5"/>
     </g>
     <g id="line2d_47">
      <g>
       <use xlink:href="#m27f824d42b" x="590.968352" y="314.44" style="stroke: #000000; stroke-width: 0.8"/>
      </g>
     </g>
     <g id="text_22">
      <!-- 10 -->
      <g transform="translate(584.605852 329.038437) scale(0.1 -0.1)">
       <use xlink:href="#DejaVuSans-31"/>
       <use xlink:href="#DejaVuSans-30" x="63.623047"/>
      </g>
     </g>
    </g>
    <g id="xtick_11">
     <g id="line2d_48">
      <path d="M 648.374413 314.44 
L 648.374413 7.2 
" clip-path="url(#pd876823c90)" style="fill: none; stroke-dasharray: 1.85,0.8; stroke-dashoffset: 0; stroke: #ffffff; stroke-width: 0.5"/>
     </g>
     <g id="line2d_49">
      <g>
       <use xlink:href="#m27f824d42b" x="648.374413" y="314.44" style="stroke: #000000; stroke-width: 0.8"/>
      </g>
     </g>
     <g id="text_23">
      <!-- 15 -->
      <g transform="translate(642.011913 329.038437) scale(0.1 -0.1)">
       <use xlink:href="#DejaVuSans-31"/>
       <use xlink:href="#DejaVuSans-35" x="63.623047"/>
      </g>
     </g>
    </g>
    <g id="xtick_12">
     <g id="line2d_50">
      <path d="M 705.780473 314.44 
L 705.780473 7.2 
" clip-path="url(#pd876823c90)" style="fill: none; stroke-dasharray: 1.85,0.8; stroke-dashoffset: 0; stroke: #ffffff; stroke-width: 0.5"/>
     </g>
     <g id="line2d_51">
      <g>
       <use xlink:href="#m27f824d42b" x="705.780473" y="314.44" style="stroke: #000000; stroke-width: 0.8"/>
      </g>
     </g>
     <g id="text_24">
      <!-- 20 -->
      <g transform="translate(699.417973 329.038437) scale(0.1 -0.1)">
       <use xlink:href="#DejaVuSans-32"/>
       <use xlink:href="#DejaVuSans-30" x="63.623047"/>
      </g>
     </g>
    </g>
    <g id="xtick_13">
     <g id="line2d_52">
      <path d="M 763.186534 314.44 
L 763.186534 7.2 
" clip-path="url(#pd876823c90)" style="fill: none; stroke-dasharray: 1.85,0.8; stroke-dashoffset: 0; stroke: #ffffff; stroke-width: 0.5"/>
     </g>
     <g id="line2d_53">
      <g>
       <use xlink:href="#m27f824d42b" x="763.186534" y="314.44" style="stroke: #000000; stroke-width: 0.8"/>
      </g>
     </g>
     <g id="text_25">
      <!-- 25 -->
      <g transform="translate(756.824034 329.038437) scale(0.1 -0.1)">
       <use xlink:href="#DejaVuSans-32"/>
       <use xlink:href="#DejaVuSans-35" x="63.623047"/>
      </g>
     </g>
    </g>
    <g id="xtick_14">
     <g id="line2d_54">
      <path d="M 820.592595 314.44 
L 820.592595 7.2 
" clip-path="url(#pd876823c90)" style="fill: none; stroke-dasharray: 1.85,0.8; stroke-dashoffset: 0; stroke: #ffffff; stroke-width: 0.5"/>
     </g>
     <g id="line2d_55">
      <g>
       <use xlink:href="#m27f824d42b" x="820.592595" y="314.44" style="stroke: #000000; stroke-width: 0.8"/>
      </g>
     </g>
     <g id="text_26">
      <!-- 30 -->
      <g transform="translate(814.230095 329.038437) scale(0.1 -0.1)">
       <use xlink:href="#DejaVuSans-33"/>
       <use xlink:href="#DejaVuSans-30" x="63.623047"/>
      </g>
     </g>
    </g>
    <g id="text_27">
     <!-- Distance beetwen AP and STAs [m] -->
     <g transform="translate(571.94625 342.716562) scale(0.1 -0.1)">
      <use xlink:href="#DejaVuSans-44"/>
      <use xlink:href="#DejaVuSans-69" x="77.001953"/>
      <use xlink:href="#DejaVuSans-73" x="104.785156"/>
      <use xlink:href="#DejaVuSans-74" x="156.884766"/>
      <use xlink:href="#DejaVuSans-61" x="196.09375"/>
      <use xlink:href="#DejaVuSans-6e" x="257.373047"/>
      <use xlink:href="#DejaVuSans-63" x="320.751953"/>
      <use xlink:href="#DejaVuSans-65" x="375.732422"/>
      <use xlink:href="#DejaVuSans-20" x="437.255859"/>
      <use xlink:href="#DejaVuSans-62" x="469.042969"/>
      <use xlink:href="#DejaVuSans-65" x="532.519531"/>
      <use xlink:href="#DejaVuSans-65" x="594.042969"/>
      <use xlink:href="#DejaVuSans-74" x="655.566406"/>
      <use xlink:href="#DejaVuSans-77" x="694.775391"/>
      <use xlink:href="#DejaVuSans-65" x="776.5625"/>
      <use xlink:href="#DejaVuSans-6e" x="838.085938"/>
      <use xlink:href="#DejaVuSans-20" x="901.464844"/>
      <use xlink:href="#DejaVuSans-41" x="933.251953"/>
      <use xlink:href="#DejaVuSans-50" x="1001.660156"/>
      <use xlink:href="#DejaVuSans-20" x="1061.962891"/>
      <use xlink:href="#DejaVuSans-61" x="1093.75"/>
      <use xlink:href="#DejaVuSans-6e" x="1155.029297"/>
      <use xlink:href="#DejaVuSans-64" x="1218.408203"/>
      <use xlink:href="#DejaVuSans-20" x="1281.884766"/>
      <use xlink:href="#DejaVuSans-53" x="1313.671875"/>
      <use xlink:href="#DejaVuSans-54" x="1377.148438"/>
      <use xlink:href="#DejaVuSans-41" x="1430.482422"/>
      <use xlink:href="#DejaVuSans-73" x="1498.890625"/>
      <use xlink:href="#DejaVuSans-20" x="1550.990234"/>
      <use xlink:href="#DejaVuSans-5b" x="1582.777344"/>
      <use xlink:href="#DejaVuSans-6d" x="1621.791016"/>
      <use xlink:href="#DejaVuSans-5d" x="1719.203125"/>
     </g>
    </g>
   </g>
   <g id="matplotlib.axis_4">
    <g id="ytick_7">
     <g id="line2d_56">
      <path d="M 470.415625 314.44 
L 849.295625 314.44 
" clip-path="url(#pd876823c90)" style="fill: none; stroke-dasharray: 1.85,0.8; stroke-dashoffset: 0; stroke: #ffffff; stroke-width: 0.5"/>
     </g>
     <g id="line2d_57">
      <g>
       <use xlink:href="#ma2bc46f3d2" x="470.415625" y="314.44" style="stroke: #000000; stroke-width: 0.8"/>
      </g>
     </g>
     <g id="text_28">
      <!-- 0 -->
      <g transform="translate(457.053125 318.239219) scale(0.1 -0.1)">
       <use xlink:href="#DejaVuSans-30"/>
      </g>
     </g>
    </g>
    <g id="ytick_8">
     <g id="line2d_58">
      <path d="M 470.415625 257.21994 
L 849.295625 257.21994 
" clip-path="url(#pd876823c90)" style="fill: none; stroke-dasharray: 1.85,0.8; stroke-dashoffset: 0; stroke: #ffffff; stroke-width: 0.5"/>
     </g>
     <g id="line2d_59">
      <g>
       <use xlink:href="#ma2bc46f3d2" x="470.415625" y="257.21994" style="stroke: #000000; stroke-width: 0.8"/>
      </g>
     </g>
     <g id="text_29">
      <!-- 10 -->
      <g transform="translate(450.690625 261.019159) scale(0.1 -0.1)">
       <use xlink:href="#DejaVuSans-31"/>
       <use xlink:href="#DejaVuSans-30" x="63.623047"/>
      </g>
     </g>
    </g>
    <g id="ytick_9">
     <g id="line2d_60">
      <path d="M 470.415625 199.99988 
L 849.295625 199.99988 
" clip-path="url(#pd876823c90)" style="fill: none; stroke-dasharray: 1.85,0.8; stroke-dashoffset: 0; stroke: #ffffff; stroke-width: 0.5"/>
     </g>
     <g id="line2d_61">
      <g>
       <use xlink:href="#ma2bc46f3d2" x="470.415625" y="199.99988" style="stroke: #000000; stroke-width: 0.8"/>
      </g>
     </g>
     <g id="text_30">
      <!-- 20 -->
      <g transform="translate(450.690625 203.799099) scale(0.1 -0.1)">
       <use xlink:href="#DejaVuSans-32"/>
       <use xlink:href="#DejaVuSans-30" x="63.623047"/>
      </g>
     </g>
    </g>
    <g id="ytick_10">
     <g id="line2d_62">
      <path d="M 470.415625 142.77982 
L 849.295625 142.77982 
" clip-path="url(#pd876823c90)" style="fill: none; stroke-dasharray: 1.85,0.8; stroke-dashoffset: 0; stroke: #ffffff; stroke-width: 0.5"/>
     </g>
     <g id="line2d_63">
      <g>
       <use xlink:href="#ma2bc46f3d2" x="470.415625" y="142.77982" style="stroke: #000000; stroke-width: 0.8"/>
      </g>
     </g>
     <g id="text_31">
      <!-- 30 -->
      <g transform="translate(450.690625 146.579038) scale(0.1 -0.1)">
       <use xlink:href="#DejaVuSans-33"/>
       <use xlink:href="#DejaVuSans-30" x="63.623047"/>
      </g>
     </g>
    </g>
    <g id="ytick_11">
     <g id="line2d_64">
      <path d="M 470.415625 85.55976 
L 849.295625 85.55976 
" clip-path="url(#pd876823c90)" style="fill: none; stroke-dasharray: 1.85,0.8; stroke-dashoffset: 0; stroke: #ffffff; stroke-width: 0.5"/>
     </g>
     <g id="line2d_65">
      <g>
       <use xlink:href="#ma2bc46f3d2" x="470.415625" y="85.55976" style="stroke: #000000; stroke-width: 0.8"/>
      </g>
     </g>
     <g id="text_32">
      <!-- 40 -->
      <g transform="translate(450.690625 89.358978) scale(0.1 -0.1)">
       <use xlink:href="#DejaVuSans-34"/>
       <use xlink:href="#DejaVuSans-30" x="63.623047"/>
      </g>
     </g>
    </g>
    <g id="ytick_12">
     <g id="line2d_66">
      <path d="M 470.415625 28.339699 
L 849.295625 28.339699 
" clip-path="url(#pd876823c90)" style="fill: none; stroke-dasharray: 1.85,0.8; stroke-dashoffset: 0; stroke: #ffffff; stroke-width: 0.5"/>
     </g>
     <g id="line2d_67">
      <g>
       <use xlink:href="#ma2bc46f3d2" x="470.415625" y="28.339699" style="stroke: #000000; stroke-width: 0.8"/>
      </g>
     </g>
     <g id="text_33">
      <!-- 50 -->
      <g transform="translate(450.690625 32.138918) scale(0.1 -0.1)">
       <use xlink:href="#DejaVuSans-35"/>
       <use xlink:href="#DejaVuSans-30" x="63.623047"/>
      </g>
     </g>
    </g>
    <g id="text_34">
     <!-- Loss [%] -->
     <g transform="translate(444.610937 182.028594) rotate(-90) scale(0.1 -0.1)">
      <defs>
       <path id="DejaVuSans-4c" d="M 628 4666 
L 1259 4666 
L 1259 531 
L 3531 531 
L 3531 0 
L 628 0 
L 628 4666 
z
" transform="scale(0.015625)"/>
       <path id="DejaVuSans-25" d="M 4653 2053 
Q 4381 2053 4226 1822 
Q 4072 1591 4072 1178 
Q 4072 772 4226 539 
Q 4381 306 4653 306 
Q 4919 306 5073 539 
Q 5228 772 5228 1178 
Q 5228 1588 5073 1820 
Q 4919 2053 4653 2053 
z
M 4653 2450 
Q 5147 2450 5437 2106 
Q 5728 1763 5728 1178 
Q 5728 594 5436 251 
Q 5144 -91 4653 -91 
Q 4153 -91 3862 251 
Q 3572 594 3572 1178 
Q 3572 1766 3864 2108 
Q 4156 2450 4653 2450 
z
M 1428 4353 
Q 1159 4353 1004 4120 
Q 850 3888 850 3481 
Q 850 3069 1003 2837 
Q 1156 2606 1428 2606 
Q 1700 2606 1854 2837 
Q 2009 3069 2009 3481 
Q 2009 3884 1853 4118 
Q 1697 4353 1428 4353 
z
M 4250 4750 
L 4750 4750 
L 1831 -91 
L 1331 -91 
L 4250 4750 
z
M 1428 4750 
Q 1922 4750 2215 4408 
Q 2509 4066 2509 3481 
Q 2509 2891 2217 2550 
Q 1925 2209 1428 2209 
Q 931 2209 642 2551 
Q 353 2894 353 3481 
Q 353 4063 643 4406 
Q 934 4750 1428 4750 
z
" transform="scale(0.015625)"/>
      </defs>
      <use xlink:href="#DejaVuSans-4c"/>
      <use xlink:href="#DejaVuSans-6f" x="53.962891"/>
      <use xlink:href="#DejaVuSans-73" x="115.144531"/>
      <use xlink:href="#DejaVuSans-73" x="167.244141"/>
      <use xlink:href="#DejaVuSans-20" x="219.34375"/>
      <use xlink:href="#DejaVuSans-5b" x="251.130859"/>
      <use xlink:href="#DejaVuSans-25" x="290.144531"/>
      <use xlink:href="#DejaVuSans-5d" x="385.164062"/>
     </g>
    </g>
   </g>
   <g id="line2d_68">
    <path d="M 487.637443 303.953241 
L 510.599867 303.953241 
L 533.562292 303.953241 
L 556.524716 303.953241 
L 579.48714 303.953241 
L 602.449564 303.953241 
L 625.411989 303.692966 
L 648.374413 249.541771 
L 671.336837 224.56674 
L 694.299261 194.84645 
L 717.261686 193.860549 
L 740.22411 193.851966 
L 763.186534 193.458673 
L 786.148958 187.224738 
L 809.111383 145.94447 
L 832.073807 132.796445 
" clip-path="url(#pd876823c90)" style="fill: none; stroke: #003f5c; stroke-width: 1.5; stroke-linecap: square"/>
    <g clip-path="url(#pd876823c90)">
     <use xlink:href="#mf45ca671e6" x="487.637443" y="303.953241" style="fill: #003f5c; stroke: #ffffff; stroke-width: 0.75"/>
     <use xlink:href="#mf45ca671e6" x="510.599867" y="303.953241" style="fill: #003f5c; stroke: #ffffff; stroke-width: 0.75"/>
     <use xlink:href="#mf45ca671e6" x="533.562292" y="303.953241" style="fill: #003f5c; stroke: #ffffff; stroke-width: 0.75"/>
     <use xlink:href="#mf45ca671e6" x="556.524716" y="303.953241" style="fill: #003f5c; stroke: #ffffff; stroke-width: 0.75"/>
     <use xlink:href="#mf45ca671e6" x="579.48714" y="303.953241" style="fill: #003f5c; stroke: #ffffff; stroke-width: 0.75"/>
     <use xlink:href="#mf45ca671e6" x="602.449564" y="303.953241" style="fill: #003f5c; stroke: #ffffff; stroke-width: 0.75"/>
     <use xlink:href="#mf45ca671e6" x="625.411989" y="303.692966" style="fill: #003f5c; stroke: #ffffff; stroke-width: 0.75"/>
     <use xlink:href="#mf45ca671e6" x="648.374413" y="249.541771" style="fill: #003f5c; stroke: #ffffff; stroke-width: 0.75"/>
     <use xlink:href="#mf45ca671e6" x="671.336837" y="224.56674" style="fill: #003f5c; stroke: #ffffff; stroke-width: 0.75"/>
     <use xlink:href="#mf45ca671e6" x="694.299261" y="194.84645" style="fill: #003f5c; stroke: #ffffff; stroke-width: 0.75"/>
     <use xlink:href="#mf45ca671e6" x="717.261686" y="193.860549" style="fill: #003f5c; stroke: #ffffff; stroke-width: 0.75"/>
     <use xlink:href="#mf45ca671e6" x="740.22411" y="193.851966" style="fill: #003f5c; stroke: #ffffff; stroke-width: 0.75"/>
     <use xlink:href="#mf45ca671e6" x="763.186534" y="193.458673" style="fill: #003f5c; stroke: #ffffff; stroke-width: 0.75"/>
     <use xlink:href="#mf45ca671e6" x="786.148958" y="187.224738" style="fill: #003f5c; stroke: #ffffff; stroke-width: 0.75"/>
     <use xlink:href="#mf45ca671e6" x="809.111383" y="145.94447" style="fill: #003f5c; stroke: #ffffff; stroke-width: 0.75"/>
     <use xlink:href="#mf45ca671e6" x="832.073807" y="132.796445" style="fill: #003f5c; stroke: #ffffff; stroke-width: 0.75"/>
    </g>
   </g>
   <g id="line2d_69">
    <path d="M 487.637443 298.703186 
L 510.599867 298.703186 
L 533.562292 298.703186 
L 556.524716 298.702672 
L 579.48714 266.784197 
L 602.449564 223.895549 
L 625.411989 223.465063 
L 648.374413 208.15412 
L 671.336837 183.280369 
L 694.299261 145.815153 
L 717.261686 113.685136 
L 740.22411 113.455493 
L 763.186534 109.59991 
L 786.148958 87.708659 
L 809.111383 60.353465 
L 832.073807 44.296372 
" clip-path="url(#pd876823c90)" style="fill: none; stroke: #7a5195; stroke-width: 1.5; stroke-linecap: square"/>
    <g clip-path="url(#pd876823c90)">
     <use xlink:href="#m3f8aa45756" x="487.637443" y="298.703186" style="fill: #7a5195; stroke: #ffffff; stroke-width: 0.75"/>
     <use xlink:href="#m3f8aa45756" x="510.599867" y="298.703186" style="fill: #7a5195; stroke: #ffffff; stroke-width: 0.75"/>
     <use xlink:href="#m3f8aa45756" x="533.562292" y="298.703186" style="fill: #7a5195; stroke: #ffffff; stroke-width: 0.75"/>
     <use xlink:href="#m3f8aa45756" x="556.524716" y="298.702672" style="fill: #7a5195; stroke: #ffffff; stroke-width: 0.75"/>
     <use xlink:href="#m3f8aa45756" x="579.48714" y="266.784197" style="fill: #7a5195; stroke: #ffffff; stroke-width: 0.75"/>
     <use xlink:href="#m3f8aa45756" x="602.449564" y="223.895549" style="fill: #7a5195; stroke: #ffffff; stroke-width: 0.75"/>
     <use xlink:href="#m3f8aa45756" x="625.411989" y="223.465063" style="fill: #7a5195; stroke: #ffffff; stroke-width: 0.75"/>
     <use xlink:href="#m3f8aa45756" x="648.374413" y="208.15412" style="fill: #7a5195; stroke: #ffffff; stroke-width: 0.75"/>
     <use xlink:href="#m3f8aa45756" x="671.336837" y="183.280369" style="fill: #7a5195; stroke: #ffffff; stroke-width: 0.75"/>
     <use xlink:href="#m3f8aa45756" x="694.299261" y="145.815153" style="fill: #7a5195; stroke: #ffffff; stroke-width: 0.75"/>
     <use xlink:href="#m3f8aa45756" x="717.261686" y="113.685136" style="fill: #7a5195; stroke: #ffffff; stroke-width: 0.75"/>
     <use xlink:href="#m3f8aa45756" x="740.22411" y="113.455493" style="fill: #7a5195; stroke: #ffffff; stroke-width: 0.75"/>
     <use xlink:href="#m3f8aa45756" x="763.186534" y="109.59991" style="fill: #7a5195; stroke: #ffffff; stroke-width: 0.75"/>
     <use xlink:href="#m3f8aa45756" x="786.148958" y="87.708659" style="fill: #7a5195; stroke: #ffffff; stroke-width: 0.75"/>
     <use xlink:href="#m3f8aa45756" x="809.111383" y="60.353465" style="fill: #7a5195; stroke: #ffffff; stroke-width: 0.75"/>
     <use xlink:href="#m3f8aa45756" x="832.073807" y="44.296372" style="fill: #7a5195; stroke: #ffffff; stroke-width: 0.75"/>
    </g>
   </g>
   <g id="line2d_70">
    <path d="M 487.637443 298.463701 
L 510.599867 298.463701 
L 533.562292 298.463701 
L 556.524716 298.46353 
L 579.48714 283.052813 
L 602.449564 259.351311 
L 625.411989 259.014685 
L 648.374413 225.478447 
L 671.336837 201.382507 
L 694.299261 169.195651 
L 717.261686 153.409972 
L 740.22411 152.984636 
L 763.186534 151.24629 
L 786.148958 136.862503 
L 809.111383 101.037023 
L 832.073807 87.189005 
" clip-path="url(#pd876823c90)" style="fill: none; stroke: #ef5675; stroke-width: 1.5; stroke-linecap: square"/>
    <g clip-path="url(#pd876823c90)">
     <use xlink:href="#m118894f677" x="487.637443" y="298.463701" style="fill: #ef5675; stroke: #ffffff; stroke-width: 0.75"/>
     <use xlink:href="#m118894f677" x="510.599867" y="298.463701" style="fill: #ef5675; stroke: #ffffff; stroke-width: 0.75"/>
     <use xlink:href="#m118894f677" x="533.562292" y="298.463701" style="fill: #ef5675; stroke: #ffffff; stroke-width: 0.75"/>
     <use xlink:href="#m118894f677" x="556.524716" y="298.46353" style="fill: #ef5675; stroke: #ffffff; stroke-width: 0.75"/>
     <use xlink:href="#m118894f677" x="579.48714" y="283.052813" style="fill: #ef5675; stroke: #ffffff; stroke-width: 0.75"/>
     <use xlink:href="#m118894f677" x="602.449564" y="259.351311" style="fill: #ef5675; stroke: #ffffff; stroke-width: 0.75"/>
     <use xlink:href="#m118894f677" x="625.411989" y="259.014685" style="fill: #ef5675; stroke: #ffffff; stroke-width: 0.75"/>
     <use xlink:href="#m118894f677" x="648.374413" y="225.478447" style="fill: #ef5675; stroke: #ffffff; stroke-width: 0.75"/>
     <use xlink:href="#m118894f677" x="671.336837" y="201.382507" style="fill: #ef5675; stroke: #ffffff; stroke-width: 0.75"/>
     <use xlink:href="#m118894f677" x="694.299261" y="169.195651" style="fill: #ef5675; stroke: #ffffff; stroke-width: 0.75"/>
     <use xlink:href="#m118894f677" x="717.261686" y="153.409972" style="fill: #ef5675; stroke: #ffffff; stroke-width: 0.75"/>
     <use xlink:href="#m118894f677" x="740.22411" y="152.984636" style="fill: #ef5675; stroke: #ffffff; stroke-width: 0.75"/>
     <use xlink:href="#m118894f677" x="763.186534" y="151.24629" style="fill: #ef5675; stroke: #ffffff; stroke-width: 0.75"/>
     <use xlink:href="#m118894f677" x="786.148958" y="136.862503" style="fill: #ef5675; stroke: #ffffff; stroke-width: 0.75"/>
     <use xlink:href="#m118894f677" x="809.111383" y="101.037023" style="fill: #ef5675; stroke: #ffffff; stroke-width: 0.75"/>
     <use xlink:href="#m118894f677" x="832.073807" y="87.189005" style="fill: #ef5675; stroke: #ffffff; stroke-width: 0.75"/>
    </g>
   </g>
   <g id="line2d_71">
    <path d="M 487.637443 299.351223 
L 510.599867 299.351223 
L 533.562292 299.351223 
L 556.524716 299.27554 
L 579.48714 259.573496 
L 602.449564 222.605046 
L 625.411989 222.56442 
L 648.374413 201.64839 
L 671.336837 168.148715 
L 694.299261 125.659005 
L 717.261686 112.668907 
L 740.22411 108.791104 
L 763.186534 94.832842 
L 786.148958 71.982584 
L 809.111383 43.600862 
L 832.073807 21.50648 
" clip-path="url(#pd876823c90)" style="fill: none; stroke: #ffa600; stroke-width: 1.5; stroke-linecap: square"/>
    <g clip-path="url(#pd876823c90)">
     <use xlink:href="#mce23bd07eb" x="487.637443" y="299.351223" style="fill: #ffa600; stroke: #ffffff; stroke-width: 0.75"/>
     <use xlink:href="#mce23bd07eb" x="510.599867" y="299.351223" style="fill: #ffa600; stroke: #ffffff; stroke-width: 0.75"/>
     <use xlink:href="#mce23bd07eb" x="533.562292" y="299.351223" style="fill: #ffa600; stroke: #ffffff; stroke-width: 0.75"/>
     <use xlink:href="#mce23bd07eb" x="556.524716" y="299.27554" style="fill: #ffa600; stroke: #ffffff; stroke-width: 0.75"/>
     <use xlink:href="#mce23bd07eb" x="579.48714" y="259.573496" style="fill: #ffa600; stroke: #ffffff; stroke-width: 0.75"/>
     <use xlink:href="#mce23bd07eb" x="602.449564" y="222.605046" style="fill: #ffa600; stroke: #ffffff; stroke-width: 0.75"/>
     <use xlink:href="#mce23bd07eb" x="625.411989" y="222.56442" style="fill: #ffa600; stroke: #ffffff; stroke-width: 0.75"/>
     <use xlink:href="#mce23bd07eb" x="648.374413" y="201.64839" style="fill: #ffa600; stroke: #ffffff; stroke-width: 0.75"/>
     <use xlink:href="#mce23bd07eb" x="671.336837" y="168.148715" style="fill: #ffa600; stroke: #ffffff; stroke-width: 0.75"/>
     <use xlink:href="#mce23bd07eb" x="694.299261" y="125.659005" style="fill: #ffa600; stroke: #ffffff; stroke-width: 0.75"/>
     <use xlink:href="#mce23bd07eb" x="717.261686" y="112.668907" style="fill: #ffa600; stroke: #ffffff; stroke-width: 0.75"/>
     <use xlink:href="#mce23bd07eb" x="740.22411" y="108.791104" style="fill: #ffa600; stroke: #ffffff; stroke-width: 0.75"/>
     <use xlink:href="#mce23bd07eb" x="763.186534" y="94.832842" style="fill: #ffa600; stroke: #ffffff; stroke-width: 0.75"/>
     <use xlink:href="#mce23bd07eb" x="786.148958" y="71.982584" style="fill: #ffa600; stroke: #ffffff; stroke-width: 0.75"/>
     <use xlink:href="#mce23bd07eb" x="809.111383" y="43.600862" style="fill: #ffa600; stroke: #ffffff; stroke-width: 0.75"/>
     <use xlink:href="#mce23bd07eb" x="832.073807" y="21.50648" style="fill: #ffa600; stroke: #ffffff; stroke-width: 0.75"/>
    </g>
   </g>
   <g id="line2d_72"/>
   <g id="line2d_73"/>
   <g id="line2d_74"/>
   <g id="line2d_75"/>
   <g id="line2d_76"/>
   <g id="line2d_77"/>
   <g id="line2d_78"/>
   <g id="patch_9">
    <path d="M 470.415625 314.44 
L 470.415625 7.2 
" style="fill: none; stroke: #000000; stroke-width: 0.8; stroke-linejoin: miter; stroke-linecap: square"/>
   </g>
   <g id="patch_10">
    <path d="M 849.295625 314.44 
L 849.295625 7.2 
" style="fill: none; stroke: #000000; stroke-width: 0.8; stroke-linejoin: miter; stroke-linecap: square"/>
   </g>
   <g id="patch_11">
    <path d="M 470.415625 314.44 
L 849.295625 314.44 
" style="fill: none; stroke: #000000; stroke-width: 0.8; stroke-linejoin: miter; stroke-linecap: square"/>
   </g>
   <g id="patch_12">
    <path d="M 470.415625 7.2 
L 849.295625 7.2 
" style="fill: none; stroke: #000000; stroke-width: 0.8; stroke-linejoin: miter; stroke-linecap: square"/>
   </g>
   <g id="legend_2">
    <g id="patch_13">
     <path d="M 478.815625 87.255 
L 526.455625 87.255 
Q 528.855625 87.255 528.855625 84.855 
L 528.855625 15.6 
Q 528.855625 13.2 526.455625 13.2 
L 478.815625 13.2 
Q 476.415625 13.2 476.415625 15.6 
L 476.415625 84.855 
Q 476.415625 87.255 478.815625 87.255 
z
" style="fill: #ffffff; opacity: 0.8; stroke: #cccccc; stroke-linejoin: miter"/>
    </g>
    <g id="line2d_79">
     <path d="M 481.215625 22.918125 
L 493.215625 22.918125 
L 505.215625 22.918125 
" style="fill: none; stroke: #003f5c; stroke-width: 1.5; stroke-linecap: square"/>
    </g>
    <g id="text_35">
     <!-- A -->
     <g transform="translate(514.815625 27.118125) scale(0.12 -0.12)">
      <use xlink:href="#DejaVuSans-41"/>
     </g>
    </g>
    <g id="line2d_80">
     <path d="M 481.215625 40.531875 
L 493.215625 40.531875 
L 505.215625 40.531875 
" style="fill: none; stroke: #7a5195; stroke-width: 1.5; stroke-linecap: square"/>
    </g>
    <g id="text_36">
     <!-- B -->
     <g transform="translate(514.815625 44.731875) scale(0.12 -0.12)">
      <use xlink:href="#DejaVuSans-42"/>
     </g>
    </g>
    <g id="line2d_81">
     <path d="M 481.215625 58.145625 
L 493.215625 58.145625 
L 505.215625 58.145625 
" style="fill: none; stroke: #ef5675; stroke-width: 1.5; stroke-linecap: square"/>
    </g>
    <g id="text_37">
     <!-- C -->
     <g transform="translate(514.815625 62.345625) scale(0.12 -0.12)">
      <use xlink:href="#DejaVuSans-43"/>
     </g>
    </g>
    <g id="line2d_82">
     <path d="M 481.215625 75.759375 
L 493.215625 75.759375 
L 505.215625 75.759375 
" style="fill: none; stroke: #ffa600; stroke-width: 1.5; stroke-linecap: square"/>
    </g>
    <g id="text_38">
     <!-- D -->
     <g transform="translate(514.815625 79.959375) scale(0.12 -0.12)">
      <use xlink:href="#DejaVuSans-44"/>
     </g>
    </g>
   </g>
  </g>
 </g>
 <defs>
  <clipPath id="p7e796b915c">
   <rect x="46.965625" y="7.2" width="378.88" height="307.24"/>
  </clipPath>
  <clipPath id="pd876823c90">
   <rect x="470.415625" y="7.2" width="378.88" height="307.24"/>
  </clipPath>
 </defs>
</svg>
