<?xml version="1.0" encoding="utf-8" standalone="no"?>
<!DOCTYPE svg PUBLIC "-//W3C//DTD SVG 1.1//EN"
  "http://www.w3.org/Graphics/SVG/1.1/DTD/svg11.dtd">
<svg xmlns:xlink="http://www.w3.org/1999/xlink" width="411.285625pt" height="310.86825pt" viewBox="0 0 411.285625 310.86825" xmlns="http://www.w3.org/2000/svg" version="1.1">
 <metadata>
  <rdf:RDF xmlns:dc="http://purl.org/dc/elements/1.1/" xmlns:cc="http://creativecommons.org/ns#" xmlns:rdf="http://www.w3.org/1999/02/22-rdf-syntax-ns#">
   <cc:Work>
    <dc:type rdf:resource="http://purl.org/dc/dcmitype/StillImage"/>
    <dc:date>2025-06-20T11:10:54.661158</dc:date>
    <dc:format>image/svg+xml</dc:format>
    <dc:creator>
     <cc:Agent>
      <dc:title>Matplotlib v3.9.2, https://matplotlib.org/</dc:title>
     </cc:Agent>
    </dc:creator>
   </cc:Work>
  </rdf:RDF>
 </metadata>
 <defs>
  <style type="text/css">*{stroke-linejoin: round; stroke-linecap: butt}</style>
 </defs>
 <g id="figure_1">
  <g id="patch_1">
   <path d="M 0 310.86825 
L 411.285625 310.86825 
L 411.285625 0 
L 0 0 
z
" style="fill: #ffffff"/>
  </g>
  <g id="axes_1">
   <g id="patch_2">
    <path d="M 46.965625 273.312 
L 404.085625 273.312 
L 404.085625 7.2 
L 46.965625 7.2 
z
" style="fill: #ffffff"/>
   </g>
   <g id="PolyCollection_1">
    <defs>
     <path id="m8d9b0279a6" d="M 60.70101 -203.674455 
L 60.70101 -203.244327 
L 74.436394 -204.211222 
L 88.171779 -207.96751 
L 101.907163 -209.020583 
L 115.642548 -212.482356 
L 129.377933 -213.819013 
L 143.113317 -216.131717 
L 156.848702 -191.275671 
L 170.584087 -191.206463 
L 184.319471 -191.6839 
L 198.054856 -191.939998 
L 211.79024 -193.023249 
L 225.525625 -193.163053 
L 239.26101 -193.481654 
L 252.996394 -168.851344 
L 266.731779 -171.122188 
L 280.467163 -171.055893 
L 294.202548 -171.117509 
L 307.937933 -170.825196 
L 321.673317 -170.790622 
L 335.408702 -170.791758 
L 349.144087 -170.603873 
L 362.879471 -136.020331 
L 376.614856 -135.935631 
L 390.35024 -135.714193 
L 390.35024 -136.344508 
L 390.35024 -136.344508 
L 376.614856 -136.425019 
L 362.879471 -136.460732 
L 349.144087 -170.897978 
L 335.408702 -171.141974 
L 321.673317 -171.251928 
L 307.937933 -171.126723 
L 294.202548 -171.417957 
L 280.467163 -171.527582 
L 266.731779 -171.532916 
L 252.996394 -169.270252 
L 239.26101 -193.946262 
L 225.525625 -193.585795 
L 211.79024 -193.549188 
L 198.054856 -192.506884 
L 184.319471 -192.212456 
L 170.584087 -191.518993 
L 156.848702 -191.597874 
L 143.113317 -216.529552 
L 129.377933 -214.459314 
L 115.642548 -212.914389 
L 101.907163 -209.405931 
L 88.171779 -208.317344 
L 74.436394 -204.685659 
L 60.70101 -203.674455 
z
" style="stroke: #003f5c; stroke-opacity: 0.2"/>
    </defs>
    <g clip-path="url(#p907714b6e8)">
     <use xlink:href="#m8d9b0279a6" x="0" y="310.86825" style="fill: #003f5c; fill-opacity: 0.2; stroke: #003f5c; stroke-opacity: 0.2"/>
    </g>
   </g>
   <g id="PolyCollection_2">
    <defs>
     <path id="m9c365dcb02" d="M 60.70101 -145.782711 
L 60.70101 -145.263342 
L 74.436394 -145.406064 
L 88.171779 -144.023736 
L 101.907163 -142.221534 
L 115.642548 -141.649802 
L 129.377933 -139.411973 
L 143.113317 -138.956913 
L 156.848702 -166.837512 
L 170.584087 -169.526122 
L 184.319471 -170.445676 
L 198.054856 -170.803856 
L 211.79024 -168.235392 
L 225.525625 -166.435273 
L 239.26101 -165.957633 
L 252.996394 -168.878392 
L 266.731779 -171.142143 
L 280.467163 -171.120349 
L 294.202548 -171.142903 
L 307.937933 -170.84237 
L 321.673317 -170.831361 
L 335.408702 -170.755774 
L 349.144087 -170.763954 
L 362.879471 -131.621442 
L 376.614856 -131.629695 
L 390.35024 -131.780809 
L 390.35024 -132.222746 
L 390.35024 -132.222746 
L 376.614856 -132.117041 
L 362.879471 -132.152319 
L 349.144087 -171.157232 
L 335.408702 -171.17996 
L 321.673317 -171.174057 
L 307.937933 -171.194539 
L 294.202548 -171.528951 
L 280.467163 -171.537684 
L 266.731779 -171.614179 
L 252.996394 -169.319542 
L 239.26101 -166.498223 
L 225.525625 -166.998528 
L 211.79024 -168.753323 
L 198.054856 -171.215654 
L 184.319471 -170.967394 
L 170.584087 -170.063709 
L 156.848702 -167.256163 
L 143.113317 -139.539484 
L 129.377933 -140.1076 
L 115.642548 -142.248874 
L 101.907163 -142.705588 
L 88.171779 -144.683873 
L 74.436394 -146.021704 
L 60.70101 -145.782711 
z
" style="stroke: #7a5195; stroke-opacity: 0.2"/>
    </defs>
    <g clip-path="url(#p907714b6e8)">
     <use xlink:href="#m9c365dcb02" x="0" y="310.86825" style="fill: #7a5195; fill-opacity: 0.2; stroke: #7a5195; stroke-opacity: 0.2"/>
    </g>
   </g>
   <g id="PolyCollection_3">
    <defs>
     <path id="mabca9973f5" d="M 692.528702 -135.498768 
L 692.528702 -135.464396 
L 719.999471 -135.157714 
L 719.999471 -136.171434 
L 719.999471 -136.171434 
L 692.528702 -135.498768 
z
" style="stroke: #7a5195; stroke-opacity: 0.2"/>
    </defs>
    <g clip-path="url(#p907714b6e8)">
     <use xlink:href="#mabca9973f5" x="0" y="310.86825" style="fill: #7a5195; fill-opacity: 0.2; stroke: #7a5195; stroke-opacity: 0.2"/>
    </g>
   </g>
   <g id="PolyCollection_4">
    <defs>
     <path id="m7f6c501796" d="M 60.70101 -262.700069 
L 60.70101 -262.135178 
L 74.436394 -256.482271 
L 88.171779 -254.100043 
L 101.907163 -253.782508 
L 115.642548 -252.494794 
L 129.377933 -252.753237 
L 143.113317 -251.794621 
L 156.848702 -268.247698 
L 170.584087 -265.61911 
L 184.319471 -264.427972 
L 198.054856 -264.350333 
L 211.79024 -265.480219 
L 225.525625 -266.785539 
L 239.26101 -266.565666 
L 252.996394 -288.67566 
L 266.731779 -295.44625 
L 280.467163 -295.441981 
L 294.202548 -295.435884 
L 307.937933 -295.447011 
L 321.673317 -295.440838 
L 335.408702 -295.446892 
L 349.144087 -295.43952 
L 362.879471 -295.439578 
L 376.614856 -295.426944 
L 390.35024 -295.439853 
L 390.35024 -295.462243 
L 390.35024 -295.462243 
L 376.614856 -295.465269 
L 362.879471 -295.467017 
L 349.144087 -295.452399 
L 335.408702 -295.460431 
L 321.673317 -295.45944 
L 307.937933 -295.461338 
L 294.202548 -295.452053 
L 280.467163 -295.458349 
L 266.731779 -295.456624 
L 252.996394 -288.871302 
L 239.26101 -267.069932 
L 225.525625 -267.415401 
L 211.79024 -265.958647 
L 198.054856 -264.988535 
L 184.319471 -265.093534 
L 170.584087 -266.087049 
L 156.848702 -268.741578 
L 143.113317 -252.667962 
L 129.377933 -253.47967 
L 115.642548 -253.223084 
L 101.907163 -254.437991 
L 88.171779 -254.833674 
L 74.436394 -257.449058 
L 60.70101 -262.700069 
z
" style="stroke: #ef5675; stroke-opacity: 0.2"/>
    </defs>
    <g clip-path="url(#p907714b6e8)">
     <use xlink:href="#m7f6c501796" x="0" y="310.86825" style="fill: #ef5675; fill-opacity: 0.2; stroke: #ef5675; stroke-opacity: 0.2"/>
    </g>
   </g>
   <g id="PolyCollection_5">
    <defs>
     <path id="mb15380b3cb" d="M 1035.913317 -135.996255 
L 1035.913317 -135.443673 
L 1035.913317 -135.996255 
L 1035.913317 -135.996255 
z
" style="stroke: #ef5675; stroke-opacity: 0.2"/>
    </defs>
    <g clip-path="url(#p907714b6e8)">
     <use xlink:href="#mb15380b3cb" x="0" y="310.86825" style="fill: #ef5675; fill-opacity: 0.2; stroke: #ef5675; stroke-opacity: 0.2"/>
    </g>
   </g>
   <g id="PolyCollection_6">
    <defs>
     <path id="m28a725bb87" d="M 60.70101 -289.402378 
L 60.70101 -289.276235 
L 74.436394 -289.538793 
L 88.171779 -289.68577 
L 101.907163 -289.636684 
L 115.642548 -289.635253 
L 129.377933 -289.543693 
L 143.113317 -289.582919 
L 156.848702 -288.189439 
L 170.584087 -288.318807 
L 184.319471 -288.292353 
L 198.054856 -288.244405 
L 211.79024 -287.186797 
L 225.525625 -286.915163 
L 239.26101 -286.779365 
L 252.996394 -287.899337 
L 266.731779 -287.526491 
L 280.467163 -286.904373 
L 294.202548 -286.349197 
L 307.937933 -285.58699 
L 321.673317 -285.151924 
L 335.408702 -284.999081 
L 349.144087 -284.407063 
L 362.879471 -131.681827 
L 376.614856 -131.947039 
L 390.35024 -131.793021 
L 390.35024 -132.290273 
L 390.35024 -132.290273 
L 376.614856 -132.414587 
L 362.879471 -132.078875 
L 349.144087 -284.486501 
L 335.408702 -285.108578 
L 321.673317 -285.260964 
L 307.937933 -285.711534 
L 294.202548 -286.487076 
L 280.467163 -286.975832 
L 266.731779 -287.645045 
L 252.996394 -287.915296 
L 239.26101 -286.810469 
L 225.525625 -286.94655 
L 211.79024 -287.214478 
L 198.054856 -288.272657 
L 184.319471 -288.325072 
L 170.584087 -288.348111 
L 156.848702 -288.236753 
L 143.113317 -289.6877 
L 129.377933 -289.609196 
L 115.642548 -289.703766 
L 101.907163 -289.698352 
L 88.171779 -289.74267 
L 74.436394 -289.645794 
L 60.70101 -289.402378 
z
" style="stroke: #ffa600; stroke-opacity: 0.2"/>
    </defs>
    <g clip-path="url(#p907714b6e8)">
     <use xlink:href="#m28a725bb87" x="0" y="310.86825" style="fill: #ffa600; fill-opacity: 0.2; stroke: #ffa600; stroke-opacity: 0.2"/>
    </g>
   </g>
   <g id="PolyCollection_7">
    <defs>
     <path id="mb1ff2e9cb5" d="M 692.528702 -132.465113 
L 692.528702 -132.350622 
L 719.999471 -131.532724 
L 719.999471 -131.745731 
L 719.999471 -131.745731 
L 692.528702 -132.465113 
z
" style="stroke: #ffa600; stroke-opacity: 0.2"/>
    </defs>
    <g clip-path="url(#p907714b6e8)">
     <use xlink:href="#mb1ff2e9cb5" x="0" y="310.86825" style="fill: #ffa600; fill-opacity: 0.2; stroke: #ffa600; stroke-opacity: 0.2"/>
    </g>
   </g>
   <g id="PolyCollection_8">
    <defs>
     <path id="m25a7c14d6e" d="M 692.528702 -295.456797 
L 692.528702 -295.454376 
L 719.999471 -295.384181 
L 719.999471 -295.47132 
L 719.999471 -295.47132 
L 692.528702 -295.456797 
z
" style="stroke: #003f5c; stroke-opacity: 0.2"/>
    </defs>
    <g clip-path="url(#p907714b6e8)">
     <use xlink:href="#m25a7c14d6e" x="0" y="310.86825" style="fill: #003f5c; fill-opacity: 0.2; stroke: #003f5c; stroke-opacity: 0.2"/>
    </g>
   </g>
   <g id="PolyCollection_9">
    <defs>
     <path id="md3bd42df44" d="M 1035.913317 -132.312436 
L 1035.913317 -131.832092 
L 1035.913317 -132.312436 
L 1035.913317 -132.312436 
z
" style="stroke: #003f5c; stroke-opacity: 0.2"/>
    </defs>
    <g clip-path="url(#p907714b6e8)">
     <use xlink:href="#md3bd42df44" x="0" y="310.86825" style="fill: #003f5c; fill-opacity: 0.2; stroke: #003f5c; stroke-opacity: 0.2"/>
    </g>
   </g>
   <g id="PolyCollection_10">
    <defs>
     <path id="m020fb9b530" d="M 692.528702 -132.577426 
L 692.528702 -131.955591 
L 719.999471 -132.635035 
L 719.999471 -133.001261 
L 719.999471 -133.001261 
L 692.528702 -132.577426 
z
" style="stroke: #7a5195; stroke-opacity: 0.2"/>
    </defs>
    <g clip-path="url(#p907714b6e8)">
     <use xlink:href="#m020fb9b530" x="0" y="310.86825" style="fill: #7a5195; fill-opacity: 0.2; stroke: #7a5195; stroke-opacity: 0.2"/>
    </g>
   </g>
   <g id="PolyCollection_11">
    <defs>
     <path id="md9a0334de1" d="M 1035.913317 -295.463178 
L 1035.913317 -295.434567 
L 1035.913317 -295.463178 
L 1035.913317 -295.463178 
z
" style="stroke: #ef5675; stroke-opacity: 0.2"/>
    </defs>
    <g clip-path="url(#p907714b6e8)">
     <use xlink:href="#md9a0334de1" x="0" y="310.86825" style="fill: #ef5675; fill-opacity: 0.2; stroke: #ef5675; stroke-opacity: 0.2"/>
    </g>
   </g>
   <g id="PolyCollection_12">
    <defs>
     <path id="medf4b57948" d="M 1035.913317 -132.616951 
L 1035.913317 -132.14771 
L 1035.913317 -132.616951 
L 1035.913317 -132.616951 
z
" style="stroke: #ffa600; stroke-opacity: 0.2"/>
    </defs>
    <g clip-path="url(#p907714b6e8)">
     <use xlink:href="#medf4b57948" x="0" y="310.86825" style="fill: #ffa600; fill-opacity: 0.2; stroke: #ffa600; stroke-opacity: 0.2"/>
    </g>
   </g>
   <g id="matplotlib.axis_1">
    <g id="xtick_1">
     <g id="line2d_1">
      <path d="M 46.965625 273.312 
L 46.965625 7.2 
" clip-path="url(#p907714b6e8)" style="fill: none; stroke-dasharray: 1.85,0.8; stroke-dashoffset: 0; stroke: #ffffff; stroke-width: 0.5"/>
     </g>
     <g id="line2d_2">
      <defs>
       <path id="md24044446f" d="M 0 0 
L 0 3.5 
" style="stroke: #000000; stroke-width: 0.8"/>
      </defs>
      <g>
       <use xlink:href="#md24044446f" x="46.965625" y="273.312" style="stroke: #000000; stroke-width: 0.8"/>
      </g>
     </g>
     <g id="text_1">
      <!-- 0 -->
      <g transform="translate(43.784375 287.910437) scale(0.1 -0.1)">
       <defs>
        <path id="DejaVuSans-30" d="M 2034 4250 
Q 1547 4250 1301 3770 
Q 1056 3291 1056 2328 
Q 1056 1369 1301 889 
Q 1547 409 2034 409 
Q 2525 409 2770 889 
Q 3016 1369 3016 2328 
Q 3016 3291 2770 3770 
Q 2525 4250 2034 4250 
z
M 2034 4750 
Q 2819 4750 3233 4129 
Q 3647 3509 3647 2328 
Q 3647 1150 3233 529 
Q 2819 -91 2034 -91 
Q 1250 -91 836 529 
Q 422 1150 422 2328 
Q 422 3509 836 4129 
Q 1250 4750 2034 4750 
z
" transform="scale(0.015625)"/>
       </defs>
       <use xlink:href="#DejaVuSans-30"/>
      </g>
     </g>
    </g>
    <g id="xtick_2">
     <g id="line2d_3">
      <path d="M 101.907163 273.312 
L 101.907163 7.2 
" clip-path="url(#p907714b6e8)" style="fill: none; stroke-dasharray: 1.85,0.8; stroke-dashoffset: 0; stroke: #ffffff; stroke-width: 0.5"/>
     </g>
     <g id="line2d_4">
      <g>
       <use xlink:href="#md24044446f" x="101.907163" y="273.312" style="stroke: #000000; stroke-width: 0.8"/>
      </g>
     </g>
     <g id="text_2">
      <!-- 20 -->
      <g transform="translate(95.544663 287.910437) scale(0.1 -0.1)">
       <defs>
        <path id="DejaVuSans-32" d="M 1228 531 
L 3431 531 
L 3431 0 
L 469 0 
L 469 531 
Q 828 903 1448 1529 
Q 2069 2156 2228 2338 
Q 2531 2678 2651 2914 
Q 2772 3150 2772 3378 
Q 2772 3750 2511 3984 
Q 2250 4219 1831 4219 
Q 1534 4219 1204 4116 
Q 875 4013 500 3803 
L 500 4441 
Q 881 4594 1212 4672 
Q 1544 4750 1819 4750 
Q 2544 4750 2975 4387 
Q 3406 4025 3406 3419 
Q 3406 3131 3298 2873 
Q 3191 2616 2906 2266 
Q 2828 2175 2409 1742 
Q 1991 1309 1228 531 
z
" transform="scale(0.015625)"/>
       </defs>
       <use xlink:href="#DejaVuSans-32"/>
       <use xlink:href="#DejaVuSans-30" x="63.623047"/>
      </g>
     </g>
    </g>
    <g id="xtick_3">
     <g id="line2d_5">
      <path d="M 156.848702 273.312 
L 156.848702 7.2 
" clip-path="url(#p907714b6e8)" style="fill: none; stroke-dasharray: 1.85,0.8; stroke-dashoffset: 0; stroke: #ffffff; stroke-width: 0.5"/>
     </g>
     <g id="line2d_6">
      <g>
       <use xlink:href="#md24044446f" x="156.848702" y="273.312" style="stroke: #000000; stroke-width: 0.8"/>
      </g>
     </g>
     <g id="text_3">
      <!-- 40 -->
      <g transform="translate(150.486202 287.910437) scale(0.1 -0.1)">
       <defs>
        <path id="DejaVuSans-34" d="M 2419 4116 
L 825 1625 
L 2419 1625 
L 2419 4116 
z
M 2253 4666 
L 3047 4666 
L 3047 1625 
L 3713 1625 
L 3713 1100 
L 3047 1100 
L 3047 0 
L 2419 0 
L 2419 1100 
L 313 1100 
L 313 1709 
L 2253 4666 
z
" transform="scale(0.015625)"/>
       </defs>
       <use xlink:href="#DejaVuSans-34"/>
       <use xlink:href="#DejaVuSans-30" x="63.623047"/>
      </g>
     </g>
    </g>
    <g id="xtick_4">
     <g id="line2d_7">
      <path d="M 211.79024 273.312 
L 211.79024 7.2 
" clip-path="url(#p907714b6e8)" style="fill: none; stroke-dasharray: 1.85,0.8; stroke-dashoffset: 0; stroke: #ffffff; stroke-width: 0.5"/>
     </g>
     <g id="line2d_8">
      <g>
       <use xlink:href="#md24044446f" x="211.79024" y="273.312" style="stroke: #000000; stroke-width: 0.8"/>
      </g>
     </g>
     <g id="text_4">
      <!-- 60 -->
      <g transform="translate(205.42774 287.910437) scale(0.1 -0.1)">
       <defs>
        <path id="DejaVuSans-36" d="M 2113 2584 
Q 1688 2584 1439 2293 
Q 1191 2003 1191 1497 
Q 1191 994 1439 701 
Q 1688 409 2113 409 
Q 2538 409 2786 701 
Q 3034 994 3034 1497 
Q 3034 2003 2786 2293 
Q 2538 2584 2113 2584 
z
M 3366 4563 
L 3366 3988 
Q 3128 4100 2886 4159 
Q 2644 4219 2406 4219 
Q 1781 4219 1451 3797 
Q 1122 3375 1075 2522 
Q 1259 2794 1537 2939 
Q 1816 3084 2150 3084 
Q 2853 3084 3261 2657 
Q 3669 2231 3669 1497 
Q 3669 778 3244 343 
Q 2819 -91 2113 -91 
Q 1303 -91 875 529 
Q 447 1150 447 2328 
Q 447 3434 972 4092 
Q 1497 4750 2381 4750 
Q 2619 4750 2861 4703 
Q 3103 4656 3366 4563 
z
" transform="scale(0.015625)"/>
       </defs>
       <use xlink:href="#DejaVuSans-36"/>
       <use xlink:href="#DejaVuSans-30" x="63.623047"/>
      </g>
     </g>
    </g>
    <g id="xtick_5">
     <g id="line2d_9">
      <path d="M 266.731779 273.312 
L 266.731779 7.2 
" clip-path="url(#p907714b6e8)" style="fill: none; stroke-dasharray: 1.85,0.8; stroke-dashoffset: 0; stroke: #ffffff; stroke-width: 0.5"/>
     </g>
     <g id="line2d_10">
      <g>
       <use xlink:href="#md24044446f" x="266.731779" y="273.312" style="stroke: #000000; stroke-width: 0.8"/>
      </g>
     </g>
     <g id="text_5">
      <!-- 80 -->
      <g transform="translate(260.369279 287.910437) scale(0.1 -0.1)">
       <defs>
        <path id="DejaVuSans-38" d="M 2034 2216 
Q 1584 2216 1326 1975 
Q 1069 1734 1069 1313 
Q 1069 891 1326 650 
Q 1584 409 2034 409 
Q 2484 409 2743 651 
Q 3003 894 3003 1313 
Q 3003 1734 2745 1975 
Q 2488 2216 2034 2216 
z
M 1403 2484 
Q 997 2584 770 2862 
Q 544 3141 544 3541 
Q 544 4100 942 4425 
Q 1341 4750 2034 4750 
Q 2731 4750 3128 4425 
Q 3525 4100 3525 3541 
Q 3525 3141 3298 2862 
Q 3072 2584 2669 2484 
Q 3125 2378 3379 2068 
Q 3634 1759 3634 1313 
Q 3634 634 3220 271 
Q 2806 -91 2034 -91 
Q 1263 -91 848 271 
Q 434 634 434 1313 
Q 434 1759 690 2068 
Q 947 2378 1403 2484 
z
M 1172 3481 
Q 1172 3119 1398 2916 
Q 1625 2713 2034 2713 
Q 2441 2713 2670 2916 
Q 2900 3119 2900 3481 
Q 2900 3844 2670 4047 
Q 2441 4250 2034 4250 
Q 1625 4250 1398 4047 
Q 1172 3844 1172 3481 
z
" transform="scale(0.015625)"/>
       </defs>
       <use xlink:href="#DejaVuSans-38"/>
       <use xlink:href="#DejaVuSans-30" x="63.623047"/>
      </g>
     </g>
    </g>
    <g id="xtick_6">
     <g id="line2d_11">
      <path d="M 321.673317 273.312 
L 321.673317 7.2 
" clip-path="url(#p907714b6e8)" style="fill: none; stroke-dasharray: 1.85,0.8; stroke-dashoffset: 0; stroke: #ffffff; stroke-width: 0.5"/>
     </g>
     <g id="line2d_12">
      <g>
       <use xlink:href="#md24044446f" x="321.673317" y="273.312" style="stroke: #000000; stroke-width: 0.8"/>
      </g>
     </g>
     <g id="text_6">
      <!-- 100 -->
      <g transform="translate(312.129567 287.910437) scale(0.1 -0.1)">
       <defs>
        <path id="DejaVuSans-31" d="M 794 531 
L 1825 531 
L 1825 4091 
L 703 3866 
L 703 4441 
L 1819 4666 
L 2450 4666 
L 2450 531 
L 3481 531 
L 3481 0 
L 794 0 
L 794 531 
z
" transform="scale(0.015625)"/>
       </defs>
       <use xlink:href="#DejaVuSans-31"/>
       <use xlink:href="#DejaVuSans-30" x="63.623047"/>
       <use xlink:href="#DejaVuSans-30" x="127.246094"/>
      </g>
     </g>
    </g>
    <g id="xtick_7">
     <g id="line2d_13">
      <path d="M 376.614856 273.312 
L 376.614856 7.2 
" clip-path="url(#p907714b6e8)" style="fill: none; stroke-dasharray: 1.85,0.8; stroke-dashoffset: 0; stroke: #ffffff; stroke-width: 0.5"/>
     </g>
     <g id="line2d_14">
      <g>
       <use xlink:href="#md24044446f" x="376.614856" y="273.312" style="stroke: #000000; stroke-width: 0.8"/>
      </g>
     </g>
     <g id="text_7">
      <!-- 120 -->
      <g transform="translate(367.071106 287.910437) scale(0.1 -0.1)">
       <use xlink:href="#DejaVuSans-31"/>
       <use xlink:href="#DejaVuSans-32" x="63.623047"/>
       <use xlink:href="#DejaVuSans-30" x="127.246094"/>
      </g>
     </g>
    </g>
    <g id="text_8">
     <!-- Channel switch delay [μs] -->
     <g transform="translate(160.919375 301.588562) scale(0.1 -0.1)">
      <defs>
       <path id="DejaVuSans-43" d="M 4122 4306 
L 4122 3641 
Q 3803 3938 3442 4084 
Q 3081 4231 2675 4231 
Q 1875 4231 1450 3742 
Q 1025 3253 1025 2328 
Q 1025 1406 1450 917 
Q 1875 428 2675 428 
Q 3081 428 3442 575 
Q 3803 722 4122 1019 
L 4122 359 
Q 3791 134 3420 21 
Q 3050 -91 2638 -91 
Q 1578 -91 968 557 
Q 359 1206 359 2328 
Q 359 3453 968 4101 
Q 1578 4750 2638 4750 
Q 3056 4750 3426 4639 
Q 3797 4528 4122 4306 
z
" transform="scale(0.015625)"/>
       <path id="DejaVuSans-68" d="M 3513 2113 
L 3513 0 
L 2938 0 
L 2938 2094 
Q 2938 2591 2744 2837 
Q 2550 3084 2163 3084 
Q 1697 3084 1428 2787 
Q 1159 2491 1159 1978 
L 1159 0 
L 581 0 
L 581 4863 
L 1159 4863 
L 1159 2956 
Q 1366 3272 1645 3428 
Q 1925 3584 2291 3584 
Q 2894 3584 3203 3211 
Q 3513 2838 3513 2113 
z
" transform="scale(0.015625)"/>
       <path id="DejaVuSans-61" d="M 2194 1759 
Q 1497 1759 1228 1600 
Q 959 1441 959 1056 
Q 959 750 1161 570 
Q 1363 391 1709 391 
Q 2188 391 2477 730 
Q 2766 1069 2766 1631 
L 2766 1759 
L 2194 1759 
z
M 3341 1997 
L 3341 0 
L 2766 0 
L 2766 531 
Q 2569 213 2275 61 
Q 1981 -91 1556 -91 
Q 1019 -91 701 211 
Q 384 513 384 1019 
Q 384 1609 779 1909 
Q 1175 2209 1959 2209 
L 2766 2209 
L 2766 2266 
Q 2766 2663 2505 2880 
Q 2244 3097 1772 3097 
Q 1472 3097 1187 3025 
Q 903 2953 641 2809 
L 641 3341 
Q 956 3463 1253 3523 
Q 1550 3584 1831 3584 
Q 2591 3584 2966 3190 
Q 3341 2797 3341 1997 
z
" transform="scale(0.015625)"/>
       <path id="DejaVuSans-6e" d="M 3513 2113 
L 3513 0 
L 2938 0 
L 2938 2094 
Q 2938 2591 2744 2837 
Q 2550 3084 2163 3084 
Q 1697 3084 1428 2787 
Q 1159 2491 1159 1978 
L 1159 0 
L 581 0 
L 581 3500 
L 1159 3500 
L 1159 2956 
Q 1366 3272 1645 3428 
Q 1925 3584 2291 3584 
Q 2894 3584 3203 3211 
Q 3513 2838 3513 2113 
z
" transform="scale(0.015625)"/>
       <path id="DejaVuSans-65" d="M 3597 1894 
L 3597 1613 
L 953 1613 
Q 991 1019 1311 708 
Q 1631 397 2203 397 
Q 2534 397 2845 478 
Q 3156 559 3463 722 
L 3463 178 
Q 3153 47 2828 -22 
Q 2503 -91 2169 -91 
Q 1331 -91 842 396 
Q 353 884 353 1716 
Q 353 2575 817 3079 
Q 1281 3584 2069 3584 
Q 2775 3584 3186 3129 
Q 3597 2675 3597 1894 
z
M 3022 2063 
Q 3016 2534 2758 2815 
Q 2500 3097 2075 3097 
Q 1594 3097 1305 2825 
Q 1016 2553 972 2059 
L 3022 2063 
z
" transform="scale(0.015625)"/>
       <path id="DejaVuSans-6c" d="M 603 4863 
L 1178 4863 
L 1178 0 
L 603 0 
L 603 4863 
z
" transform="scale(0.015625)"/>
       <path id="DejaVuSans-20" transform="scale(0.015625)"/>
       <path id="DejaVuSans-73" d="M 2834 3397 
L 2834 2853 
Q 2591 2978 2328 3040 
Q 2066 3103 1784 3103 
Q 1356 3103 1142 2972 
Q 928 2841 928 2578 
Q 928 2378 1081 2264 
Q 1234 2150 1697 2047 
L 1894 2003 
Q 2506 1872 2764 1633 
Q 3022 1394 3022 966 
Q 3022 478 2636 193 
Q 2250 -91 1575 -91 
Q 1294 -91 989 -36 
Q 684 19 347 128 
L 347 722 
Q 666 556 975 473 
Q 1284 391 1588 391 
Q 1994 391 2212 530 
Q 2431 669 2431 922 
Q 2431 1156 2273 1281 
Q 2116 1406 1581 1522 
L 1381 1569 
Q 847 1681 609 1914 
Q 372 2147 372 2553 
Q 372 3047 722 3315 
Q 1072 3584 1716 3584 
Q 2034 3584 2315 3537 
Q 2597 3491 2834 3397 
z
" transform="scale(0.015625)"/>
       <path id="DejaVuSans-77" d="M 269 3500 
L 844 3500 
L 1563 769 
L 2278 3500 
L 2956 3500 
L 3675 769 
L 4391 3500 
L 4966 3500 
L 4050 0 
L 3372 0 
L 2619 2869 
L 1863 0 
L 1184 0 
L 269 3500 
z
" transform="scale(0.015625)"/>
       <path id="DejaVuSans-69" d="M 603 3500 
L 1178 3500 
L 1178 0 
L 603 0 
L 603 3500 
z
M 603 4863 
L 1178 4863 
L 1178 4134 
L 603 4134 
L 603 4863 
z
" transform="scale(0.015625)"/>
       <path id="DejaVuSans-74" d="M 1172 4494 
L 1172 3500 
L 2356 3500 
L 2356 3053 
L 1172 3053 
L 1172 1153 
Q 1172 725 1289 603 
Q 1406 481 1766 481 
L 2356 481 
L 2356 0 
L 1766 0 
Q 1100 0 847 248 
Q 594 497 594 1153 
L 594 3053 
L 172 3053 
L 172 3500 
L 594 3500 
L 594 4494 
L 1172 4494 
z
" transform="scale(0.015625)"/>
       <path id="DejaVuSans-63" d="M 3122 3366 
L 3122 2828 
Q 2878 2963 2633 3030 
Q 2388 3097 2138 3097 
Q 1578 3097 1268 2742 
Q 959 2388 959 1747 
Q 959 1106 1268 751 
Q 1578 397 2138 397 
Q 2388 397 2633 464 
Q 2878 531 3122 666 
L 3122 134 
Q 2881 22 2623 -34 
Q 2366 -91 2075 -91 
Q 1284 -91 818 406 
Q 353 903 353 1747 
Q 353 2603 823 3093 
Q 1294 3584 2113 3584 
Q 2378 3584 2631 3529 
Q 2884 3475 3122 3366 
z
" transform="scale(0.015625)"/>
       <path id="DejaVuSans-64" d="M 2906 2969 
L 2906 4863 
L 3481 4863 
L 3481 0 
L 2906 0 
L 2906 525 
Q 2725 213 2448 61 
Q 2172 -91 1784 -91 
Q 1150 -91 751 415 
Q 353 922 353 1747 
Q 353 2572 751 3078 
Q 1150 3584 1784 3584 
Q 2172 3584 2448 3432 
Q 2725 3281 2906 2969 
z
M 947 1747 
Q 947 1113 1208 752 
Q 1469 391 1925 391 
Q 2381 391 2643 752 
Q 2906 1113 2906 1747 
Q 2906 2381 2643 2742 
Q 2381 3103 1925 3103 
Q 1469 3103 1208 2742 
Q 947 2381 947 1747 
z
" transform="scale(0.015625)"/>
       <path id="DejaVuSans-79" d="M 2059 -325 
Q 1816 -950 1584 -1140 
Q 1353 -1331 966 -1331 
L 506 -1331 
L 506 -850 
L 844 -850 
Q 1081 -850 1212 -737 
Q 1344 -625 1503 -206 
L 1606 56 
L 191 3500 
L 800 3500 
L 1894 763 
L 2988 3500 
L 3597 3500 
L 2059 -325 
z
" transform="scale(0.015625)"/>
       <path id="DejaVuSans-5b" d="M 550 4863 
L 1875 4863 
L 1875 4416 
L 1125 4416 
L 1125 -397 
L 1875 -397 
L 1875 -844 
L 550 -844 
L 550 4863 
z
" transform="scale(0.015625)"/>
       <path id="DejaVuSans-3bc" d="M 544 -1331 
L 544 3500 
L 1119 3500 
L 1119 1325 
Q 1119 872 1334 640 
Q 1550 409 1972 409 
Q 2434 409 2667 671 
Q 2900 934 2900 1459 
L 2900 3500 
L 3475 3500 
L 3475 806 
Q 3475 619 3529 530 
Q 3584 441 3700 441 
Q 3728 441 3778 458 
Q 3828 475 3916 513 
L 3916 50 
Q 3788 -22 3673 -56 
Q 3559 -91 3450 -91 
Q 3234 -91 3106 31 
Q 2978 153 2931 403 
Q 2775 156 2548 32 
Q 2322 -91 2016 -91 
Q 1697 -91 1473 31 
Q 1250 153 1119 397 
L 1119 -1331 
L 544 -1331 
z
" transform="scale(0.015625)"/>
       <path id="DejaVuSans-5d" d="M 1947 4863 
L 1947 -844 
L 622 -844 
L 622 -397 
L 1369 -397 
L 1369 4416 
L 622 4416 
L 622 4863 
L 1947 4863 
z
" transform="scale(0.015625)"/>
      </defs>
      <use xlink:href="#DejaVuSans-43"/>
      <use xlink:href="#DejaVuSans-68" x="69.824219"/>
      <use xlink:href="#DejaVuSans-61" x="133.203125"/>
      <use xlink:href="#DejaVuSans-6e" x="194.482422"/>
      <use xlink:href="#DejaVuSans-6e" x="257.861328"/>
      <use xlink:href="#DejaVuSans-65" x="321.240234"/>
      <use xlink:href="#DejaVuSans-6c" x="382.763672"/>
      <use xlink:href="#DejaVuSans-20" x="410.546875"/>
      <use xlink:href="#DejaVuSans-73" x="442.333984"/>
      <use xlink:href="#DejaVuSans-77" x="494.433594"/>
      <use xlink:href="#DejaVuSans-69" x="576.220703"/>
      <use xlink:href="#DejaVuSans-74" x="604.003906"/>
      <use xlink:href="#DejaVuSans-63" x="643.212891"/>
      <use xlink:href="#DejaVuSans-68" x="698.193359"/>
      <use xlink:href="#DejaVuSans-20" x="761.572266"/>
      <use xlink:href="#DejaVuSans-64" x="793.359375"/>
      <use xlink:href="#DejaVuSans-65" x="856.835938"/>
      <use xlink:href="#DejaVuSans-6c" x="918.359375"/>
      <use xlink:href="#DejaVuSans-61" x="946.142578"/>
      <use xlink:href="#DejaVuSans-79" x="1007.421875"/>
      <use xlink:href="#DejaVuSans-20" x="1066.601562"/>
      <use xlink:href="#DejaVuSans-5b" x="1098.388672"/>
      <use xlink:href="#DejaVuSans-3bc" x="1137.402344"/>
      <use xlink:href="#DejaVuSans-73" x="1201.025391"/>
      <use xlink:href="#DejaVuSans-5d" x="1253.125"/>
     </g>
    </g>
   </g>
   <g id="matplotlib.axis_2">
    <g id="ytick_1">
     <g id="line2d_15">
      <path d="M 46.965625 273.312 
L 404.085625 273.312 
" clip-path="url(#p907714b6e8)" style="fill: none; stroke-dasharray: 1.85,0.8; stroke-dashoffset: 0; stroke: #ffffff; stroke-width: 0.5"/>
     </g>
     <g id="line2d_16">
      <defs>
       <path id="m484f730b6f" d="M 0 0 
L -3.5 0 
" style="stroke: #000000; stroke-width: 0.8"/>
      </defs>
      <g>
       <use xlink:href="#m484f730b6f" x="46.965625" y="273.312" style="stroke: #000000; stroke-width: 0.8"/>
      </g>
     </g>
     <g id="text_9">
      <!-- 0 -->
      <g transform="translate(33.603125 277.111219) scale(0.1 -0.1)">
       <use xlink:href="#DejaVuSans-30"/>
      </g>
     </g>
    </g>
    <g id="ytick_2">
     <g id="line2d_17">
      <path d="M 46.965625 224.901337 
L 404.085625 224.901337 
" clip-path="url(#p907714b6e8)" style="fill: none; stroke-dasharray: 1.85,0.8; stroke-dashoffset: 0; stroke: #ffffff; stroke-width: 0.5"/>
     </g>
     <g id="line2d_18">
      <g>
       <use xlink:href="#m484f730b6f" x="46.965625" y="224.901337" style="stroke: #000000; stroke-width: 0.8"/>
      </g>
     </g>
     <g id="text_10">
      <!-- 20 -->
      <g transform="translate(27.240625 228.700555) scale(0.1 -0.1)">
       <use xlink:href="#DejaVuSans-32"/>
       <use xlink:href="#DejaVuSans-30" x="63.623047"/>
      </g>
     </g>
    </g>
    <g id="ytick_3">
     <g id="line2d_19">
      <path d="M 46.965625 176.490673 
L 404.085625 176.490673 
" clip-path="url(#p907714b6e8)" style="fill: none; stroke-dasharray: 1.85,0.8; stroke-dashoffset: 0; stroke: #ffffff; stroke-width: 0.5"/>
     </g>
     <g id="line2d_20">
      <g>
       <use xlink:href="#m484f730b6f" x="46.965625" y="176.490673" style="stroke: #000000; stroke-width: 0.8"/>
      </g>
     </g>
     <g id="text_11">
      <!-- 40 -->
      <g transform="translate(27.240625 180.289892) scale(0.1 -0.1)">
       <use xlink:href="#DejaVuSans-34"/>
       <use xlink:href="#DejaVuSans-30" x="63.623047"/>
      </g>
     </g>
    </g>
    <g id="ytick_4">
     <g id="line2d_21">
      <path d="M 46.965625 128.08001 
L 404.085625 128.08001 
" clip-path="url(#p907714b6e8)" style="fill: none; stroke-dasharray: 1.85,0.8; stroke-dashoffset: 0; stroke: #ffffff; stroke-width: 0.5"/>
     </g>
     <g id="line2d_22">
      <g>
       <use xlink:href="#m484f730b6f" x="46.965625" y="128.08001" style="stroke: #000000; stroke-width: 0.8"/>
      </g>
     </g>
     <g id="text_12">
      <!-- 60 -->
      <g transform="translate(27.240625 131.879229) scale(0.1 -0.1)">
       <use xlink:href="#DejaVuSans-36"/>
       <use xlink:href="#DejaVuSans-30" x="63.623047"/>
      </g>
     </g>
    </g>
    <g id="ytick_5">
     <g id="line2d_23">
      <path d="M 46.965625 79.669347 
L 404.085625 79.669347 
" clip-path="url(#p907714b6e8)" style="fill: none; stroke-dasharray: 1.85,0.8; stroke-dashoffset: 0; stroke: #ffffff; stroke-width: 0.5"/>
     </g>
     <g id="line2d_24">
      <g>
       <use xlink:href="#m484f730b6f" x="46.965625" y="79.669347" style="stroke: #000000; stroke-width: 0.8"/>
      </g>
     </g>
     <g id="text_13">
      <!-- 80 -->
      <g transform="translate(27.240625 83.468566) scale(0.1 -0.1)">
       <use xlink:href="#DejaVuSans-38"/>
       <use xlink:href="#DejaVuSans-30" x="63.623047"/>
      </g>
     </g>
    </g>
    <g id="ytick_6">
     <g id="line2d_25">
      <path d="M 46.965625 31.258684 
L 404.085625 31.258684 
" clip-path="url(#p907714b6e8)" style="fill: none; stroke-dasharray: 1.85,0.8; stroke-dashoffset: 0; stroke: #ffffff; stroke-width: 0.5"/>
     </g>
     <g id="line2d_26">
      <g>
       <use xlink:href="#m484f730b6f" x="46.965625" y="31.258684" style="stroke: #000000; stroke-width: 0.8"/>
      </g>
     </g>
     <g id="text_14">
      <!-- 100 -->
      <g transform="translate(20.878125 35.057902) scale(0.1 -0.1)">
       <use xlink:href="#DejaVuSans-31"/>
       <use xlink:href="#DejaVuSans-30" x="63.623047"/>
       <use xlink:href="#DejaVuSans-30" x="127.246094"/>
      </g>
     </g>
    </g>
    <g id="text_15">
     <!-- Total throughput [Mbps] -->
     <g transform="translate(14.798438 200.225531) rotate(-90) scale(0.1 -0.1)">
      <defs>
       <path id="DejaVuSans-54" d="M -19 4666 
L 3928 4666 
L 3928 4134 
L 2272 4134 
L 2272 0 
L 1638 0 
L 1638 4134 
L -19 4134 
L -19 4666 
z
" transform="scale(0.015625)"/>
       <path id="DejaVuSans-6f" d="M 1959 3097 
Q 1497 3097 1228 2736 
Q 959 2375 959 1747 
Q 959 1119 1226 758 
Q 1494 397 1959 397 
Q 2419 397 2687 759 
Q 2956 1122 2956 1747 
Q 2956 2369 2687 2733 
Q 2419 3097 1959 3097 
z
M 1959 3584 
Q 2709 3584 3137 3096 
Q 3566 2609 3566 1747 
Q 3566 888 3137 398 
Q 2709 -91 1959 -91 
Q 1206 -91 779 398 
Q 353 888 353 1747 
Q 353 2609 779 3096 
Q 1206 3584 1959 3584 
z
" transform="scale(0.015625)"/>
       <path id="DejaVuSans-72" d="M 2631 2963 
Q 2534 3019 2420 3045 
Q 2306 3072 2169 3072 
Q 1681 3072 1420 2755 
Q 1159 2438 1159 1844 
L 1159 0 
L 581 0 
L 581 3500 
L 1159 3500 
L 1159 2956 
Q 1341 3275 1631 3429 
Q 1922 3584 2338 3584 
Q 2397 3584 2469 3576 
Q 2541 3569 2628 3553 
L 2631 2963 
z
" transform="scale(0.015625)"/>
       <path id="DejaVuSans-75" d="M 544 1381 
L 544 3500 
L 1119 3500 
L 1119 1403 
Q 1119 906 1312 657 
Q 1506 409 1894 409 
Q 2359 409 2629 706 
Q 2900 1003 2900 1516 
L 2900 3500 
L 3475 3500 
L 3475 0 
L 2900 0 
L 2900 538 
Q 2691 219 2414 64 
Q 2138 -91 1772 -91 
Q 1169 -91 856 284 
Q 544 659 544 1381 
z
M 1991 3584 
L 1991 3584 
z
" transform="scale(0.015625)"/>
       <path id="DejaVuSans-67" d="M 2906 1791 
Q 2906 2416 2648 2759 
Q 2391 3103 1925 3103 
Q 1463 3103 1205 2759 
Q 947 2416 947 1791 
Q 947 1169 1205 825 
Q 1463 481 1925 481 
Q 2391 481 2648 825 
Q 2906 1169 2906 1791 
z
M 3481 434 
Q 3481 -459 3084 -895 
Q 2688 -1331 1869 -1331 
Q 1566 -1331 1297 -1286 
Q 1028 -1241 775 -1147 
L 775 -588 
Q 1028 -725 1275 -790 
Q 1522 -856 1778 -856 
Q 2344 -856 2625 -561 
Q 2906 -266 2906 331 
L 2906 616 
Q 2728 306 2450 153 
Q 2172 0 1784 0 
Q 1141 0 747 490 
Q 353 981 353 1791 
Q 353 2603 747 3093 
Q 1141 3584 1784 3584 
Q 2172 3584 2450 3431 
Q 2728 3278 2906 2969 
L 2906 3500 
L 3481 3500 
L 3481 434 
z
" transform="scale(0.015625)"/>
       <path id="DejaVuSans-70" d="M 1159 525 
L 1159 -1331 
L 581 -1331 
L 581 3500 
L 1159 3500 
L 1159 2969 
Q 1341 3281 1617 3432 
Q 1894 3584 2278 3584 
Q 2916 3584 3314 3078 
Q 3713 2572 3713 1747 
Q 3713 922 3314 415 
Q 2916 -91 2278 -91 
Q 1894 -91 1617 61 
Q 1341 213 1159 525 
z
M 3116 1747 
Q 3116 2381 2855 2742 
Q 2594 3103 2138 3103 
Q 1681 3103 1420 2742 
Q 1159 2381 1159 1747 
Q 1159 1113 1420 752 
Q 1681 391 2138 391 
Q 2594 391 2855 752 
Q 3116 1113 3116 1747 
z
" transform="scale(0.015625)"/>
       <path id="DejaVuSans-4d" d="M 628 4666 
L 1569 4666 
L 2759 1491 
L 3956 4666 
L 4897 4666 
L 4897 0 
L 4281 0 
L 4281 4097 
L 3078 897 
L 2444 897 
L 1241 4097 
L 1241 0 
L 628 0 
L 628 4666 
z
" transform="scale(0.015625)"/>
       <path id="DejaVuSans-62" d="M 3116 1747 
Q 3116 2381 2855 2742 
Q 2594 3103 2138 3103 
Q 1681 3103 1420 2742 
Q 1159 2381 1159 1747 
Q 1159 1113 1420 752 
Q 1681 391 2138 391 
Q 2594 391 2855 752 
Q 3116 1113 3116 1747 
z
M 1159 2969 
Q 1341 3281 1617 3432 
Q 1894 3584 2278 3584 
Q 2916 3584 3314 3078 
Q 3713 2572 3713 1747 
Q 3713 922 3314 415 
Q 2916 -91 2278 -91 
Q 1894 -91 1617 61 
Q 1341 213 1159 525 
L 1159 0 
L 581 0 
L 581 4863 
L 1159 4863 
L 1159 2969 
z
" transform="scale(0.015625)"/>
      </defs>
      <use xlink:href="#DejaVuSans-54"/>
      <use xlink:href="#DejaVuSans-6f" x="44.083984"/>
      <use xlink:href="#DejaVuSans-74" x="105.265625"/>
      <use xlink:href="#DejaVuSans-61" x="144.474609"/>
      <use xlink:href="#DejaVuSans-6c" x="205.753906"/>
      <use xlink:href="#DejaVuSans-20" x="233.537109"/>
      <use xlink:href="#DejaVuSans-74" x="265.324219"/>
      <use xlink:href="#DejaVuSans-68" x="304.533203"/>
      <use xlink:href="#DejaVuSans-72" x="367.912109"/>
      <use xlink:href="#DejaVuSans-6f" x="406.775391"/>
      <use xlink:href="#DejaVuSans-75" x="467.957031"/>
      <use xlink:href="#DejaVuSans-67" x="531.335938"/>
      <use xlink:href="#DejaVuSans-68" x="594.8125"/>
      <use xlink:href="#DejaVuSans-70" x="658.191406"/>
      <use xlink:href="#DejaVuSans-75" x="721.667969"/>
      <use xlink:href="#DejaVuSans-74" x="785.046875"/>
      <use xlink:href="#DejaVuSans-20" x="824.255859"/>
      <use xlink:href="#DejaVuSans-5b" x="856.042969"/>
      <use xlink:href="#DejaVuSans-4d" x="895.056641"/>
      <use xlink:href="#DejaVuSans-62" x="981.335938"/>
      <use xlink:href="#DejaVuSans-70" x="1044.8125"/>
      <use xlink:href="#DejaVuSans-73" x="1108.289062"/>
      <use xlink:href="#DejaVuSans-5d" x="1160.388672"/>
     </g>
    </g>
   </g>
   <g id="line2d_27">
    <path d="M 60.70101 107.401019 
L 74.436394 106.418276 
L 88.171779 102.726055 
L 101.907163 101.649456 
L 115.642548 98.170678 
L 129.377933 96.710667 
L 143.113317 94.540418 
L 156.848702 119.44383 
L 170.584087 119.508118 
L 184.319471 118.932807 
L 198.054856 118.637906 
L 211.79024 117.567788 
L 225.525625 117.496531 
L 239.26101 117.167986 
L 252.996394 141.799141 
L 266.731779 139.528268 
L 280.467163 139.579334 
L 294.202548 139.605495 
L 307.937933 139.898001 
L 321.673317 139.842998 
L 335.408702 139.907637 
L 349.144087 140.114043 
L 362.879471 174.632081 
L 376.614856 174.693468 
L 390.35024 174.799054 
" clip-path="url(#p907714b6e8)" style="fill: none; stroke: #003f5c; stroke-width: 1.5; stroke-linecap: square"/>
    <defs>
     <path id="m16864947ab" d="M 0 4 
C 1.060812 4 2.078319 3.578535 2.828427 2.828427 
C 3.578535 2.078319 4 1.060812 4 0 
C 4 -1.060812 3.578535 -2.078319 2.828427 -2.828427 
C 2.078319 -3.578535 1.060812 -4 0 -4 
C -1.060812 -4 -2.078319 -3.578535 -2.828427 -2.828427 
C -3.578535 -2.078319 -4 -1.060812 -4 0 
C -4 1.060812 -3.578535 2.078319 -2.828427 2.828427 
C -2.078319 3.578535 -1.060812 4 0 4 
z
" style="stroke: #ffffff; stroke-width: 0.75"/>
    </defs>
    <g clip-path="url(#p907714b6e8)">
     <use xlink:href="#m16864947ab" x="60.70101" y="107.401019" style="fill: #003f5c; stroke: #ffffff; stroke-width: 0.75"/>
     <use xlink:href="#m16864947ab" x="74.436394" y="106.418276" style="fill: #003f5c; stroke: #ffffff; stroke-width: 0.75"/>
     <use xlink:href="#m16864947ab" x="88.171779" y="102.726055" style="fill: #003f5c; stroke: #ffffff; stroke-width: 0.75"/>
     <use xlink:href="#m16864947ab" x="101.907163" y="101.649456" style="fill: #003f5c; stroke: #ffffff; stroke-width: 0.75"/>
     <use xlink:href="#m16864947ab" x="115.642548" y="98.170678" style="fill: #003f5c; stroke: #ffffff; stroke-width: 0.75"/>
     <use xlink:href="#m16864947ab" x="129.377933" y="96.710667" style="fill: #003f5c; stroke: #ffffff; stroke-width: 0.75"/>
     <use xlink:href="#m16864947ab" x="143.113317" y="94.540418" style="fill: #003f5c; stroke: #ffffff; stroke-width: 0.75"/>
     <use xlink:href="#m16864947ab" x="156.848702" y="119.44383" style="fill: #003f5c; stroke: #ffffff; stroke-width: 0.75"/>
     <use xlink:href="#m16864947ab" x="170.584087" y="119.508118" style="fill: #003f5c; stroke: #ffffff; stroke-width: 0.75"/>
     <use xlink:href="#m16864947ab" x="184.319471" y="118.932807" style="fill: #003f5c; stroke: #ffffff; stroke-width: 0.75"/>
     <use xlink:href="#m16864947ab" x="198.054856" y="118.637906" style="fill: #003f5c; stroke: #ffffff; stroke-width: 0.75"/>
     <use xlink:href="#m16864947ab" x="211.79024" y="117.567788" style="fill: #003f5c; stroke: #ffffff; stroke-width: 0.75"/>
     <use xlink:href="#m16864947ab" x="225.525625" y="117.496531" style="fill: #003f5c; stroke: #ffffff; stroke-width: 0.75"/>
     <use xlink:href="#m16864947ab" x="239.26101" y="117.167986" style="fill: #003f5c; stroke: #ffffff; stroke-width: 0.75"/>
     <use xlink:href="#m16864947ab" x="252.996394" y="141.799141" style="fill: #003f5c; stroke: #ffffff; stroke-width: 0.75"/>
     <use xlink:href="#m16864947ab" x="266.731779" y="139.528268" style="fill: #003f5c; stroke: #ffffff; stroke-width: 0.75"/>
     <use xlink:href="#m16864947ab" x="280.467163" y="139.579334" style="fill: #003f5c; stroke: #ffffff; stroke-width: 0.75"/>
     <use xlink:href="#m16864947ab" x="294.202548" y="139.605495" style="fill: #003f5c; stroke: #ffffff; stroke-width: 0.75"/>
     <use xlink:href="#m16864947ab" x="307.937933" y="139.898001" style="fill: #003f5c; stroke: #ffffff; stroke-width: 0.75"/>
     <use xlink:href="#m16864947ab" x="321.673317" y="139.842998" style="fill: #003f5c; stroke: #ffffff; stroke-width: 0.75"/>
     <use xlink:href="#m16864947ab" x="335.408702" y="139.907637" style="fill: #003f5c; stroke: #ffffff; stroke-width: 0.75"/>
     <use xlink:href="#m16864947ab" x="349.144087" y="140.114043" style="fill: #003f5c; stroke: #ffffff; stroke-width: 0.75"/>
     <use xlink:href="#m16864947ab" x="362.879471" y="174.632081" style="fill: #003f5c; stroke: #ffffff; stroke-width: 0.75"/>
     <use xlink:href="#m16864947ab" x="376.614856" y="174.693468" style="fill: #003f5c; stroke: #ffffff; stroke-width: 0.75"/>
     <use xlink:href="#m16864947ab" x="390.35024" y="174.799054" style="fill: #003f5c; stroke: #ffffff; stroke-width: 0.75"/>
    </g>
   </g>
   <g id="line2d_28">
    <path d="M 60.70101 165.344461 
L 74.436394 165.15804 
L 88.171779 166.480854 
L 101.907163 168.400774 
L 115.642548 168.929227 
L 129.377933 171.137442 
L 143.113317 171.635651 
L 156.848702 143.835412 
L 170.584087 141.089199 
L 184.319471 140.156835 
L 198.054856 139.863125 
L 211.79024 142.391316 
L 225.525625 144.157408 
L 239.26101 144.64397 
L 252.996394 141.761832 
L 266.731779 139.479062 
L 280.467163 139.535474 
L 294.202548 139.530342 
L 307.937933 139.844336 
L 321.673317 139.860008 
L 335.408702 139.888372 
L 349.144087 139.909926 
L 362.879471 178.955072 
L 376.614856 179.011981 
L 390.35024 178.860678 
" clip-path="url(#p907714b6e8)" style="fill: none; stroke: #7a5195; stroke-width: 1.5; stroke-linecap: square"/>
    <defs>
     <path id="m2002184e19" d="M 0 4 
C 1.060812 4 2.078319 3.578535 2.828427 2.828427 
C 3.578535 2.078319 4 1.060812 4 0 
C 4 -1.060812 3.578535 -2.078319 2.828427 -2.828427 
C 2.078319 -3.578535 1.060812 -4 0 -4 
C -1.060812 -4 -2.078319 -3.578535 -2.828427 -2.828427 
C -3.578535 -2.078319 -4 -1.060812 -4 0 
C -4 1.060812 -3.578535 2.078319 -2.828427 2.828427 
C -2.078319 3.578535 -1.060812 4 0 4 
z
" style="stroke: #ffffff; stroke-width: 0.75"/>
    </defs>
    <g clip-path="url(#p907714b6e8)">
     <use xlink:href="#m2002184e19" x="60.70101" y="165.344461" style="fill: #7a5195; stroke: #ffffff; stroke-width: 0.75"/>
     <use xlink:href="#m2002184e19" x="74.436394" y="165.15804" style="fill: #7a5195; stroke: #ffffff; stroke-width: 0.75"/>
     <use xlink:href="#m2002184e19" x="88.171779" y="166.480854" style="fill: #7a5195; stroke: #ffffff; stroke-width: 0.75"/>
     <use xlink:href="#m2002184e19" x="101.907163" y="168.400774" style="fill: #7a5195; stroke: #ffffff; stroke-width: 0.75"/>
     <use xlink:href="#m2002184e19" x="115.642548" y="168.929227" style="fill: #7a5195; stroke: #ffffff; stroke-width: 0.75"/>
     <use xlink:href="#m2002184e19" x="129.377933" y="171.137442" style="fill: #7a5195; stroke: #ffffff; stroke-width: 0.75"/>
     <use xlink:href="#m2002184e19" x="143.113317" y="171.635651" style="fill: #7a5195; stroke: #ffffff; stroke-width: 0.75"/>
     <use xlink:href="#m2002184e19" x="156.848702" y="143.835412" style="fill: #7a5195; stroke: #ffffff; stroke-width: 0.75"/>
     <use xlink:href="#m2002184e19" x="170.584087" y="141.089199" style="fill: #7a5195; stroke: #ffffff; stroke-width: 0.75"/>
     <use xlink:href="#m2002184e19" x="184.319471" y="140.156835" style="fill: #7a5195; stroke: #ffffff; stroke-width: 0.75"/>
     <use xlink:href="#m2002184e19" x="198.054856" y="139.863125" style="fill: #7a5195; stroke: #ffffff; stroke-width: 0.75"/>
     <use xlink:href="#m2002184e19" x="211.79024" y="142.391316" style="fill: #7a5195; stroke: #ffffff; stroke-width: 0.75"/>
     <use xlink:href="#m2002184e19" x="225.525625" y="144.157408" style="fill: #7a5195; stroke: #ffffff; stroke-width: 0.75"/>
     <use xlink:href="#m2002184e19" x="239.26101" y="144.64397" style="fill: #7a5195; stroke: #ffffff; stroke-width: 0.75"/>
     <use xlink:href="#m2002184e19" x="252.996394" y="141.761832" style="fill: #7a5195; stroke: #ffffff; stroke-width: 0.75"/>
     <use xlink:href="#m2002184e19" x="266.731779" y="139.479062" style="fill: #7a5195; stroke: #ffffff; stroke-width: 0.75"/>
     <use xlink:href="#m2002184e19" x="280.467163" y="139.535474" style="fill: #7a5195; stroke: #ffffff; stroke-width: 0.75"/>
     <use xlink:href="#m2002184e19" x="294.202548" y="139.530342" style="fill: #7a5195; stroke: #ffffff; stroke-width: 0.75"/>
     <use xlink:href="#m2002184e19" x="307.937933" y="139.844336" style="fill: #7a5195; stroke: #ffffff; stroke-width: 0.75"/>
     <use xlink:href="#m2002184e19" x="321.673317" y="139.860008" style="fill: #7a5195; stroke: #ffffff; stroke-width: 0.75"/>
     <use xlink:href="#m2002184e19" x="335.408702" y="139.888372" style="fill: #7a5195; stroke: #ffffff; stroke-width: 0.75"/>
     <use xlink:href="#m2002184e19" x="349.144087" y="139.909926" style="fill: #7a5195; stroke: #ffffff; stroke-width: 0.75"/>
     <use xlink:href="#m2002184e19" x="362.879471" y="178.955072" style="fill: #7a5195; stroke: #ffffff; stroke-width: 0.75"/>
     <use xlink:href="#m2002184e19" x="376.614856" y="179.011981" style="fill: #7a5195; stroke: #ffffff; stroke-width: 0.75"/>
     <use xlink:href="#m2002184e19" x="390.35024" y="178.860678" style="fill: #7a5195; stroke: #ffffff; stroke-width: 0.75"/>
    </g>
   </g>
   <g id="line2d_29">
    <path clip-path="url(#p907714b6e8)" style="fill: none; stroke-dasharray: 6,2.25; stroke-dashoffset: 0; stroke: #7a5195; stroke-width: 1.5"/>
    <defs>
     <path id="m52438e20e5" d="M -2 4 
L 0 2 
L 2 4 
L 4 2 
L 2 0 
L 4 -2 
L 2 -4 
L 0 -2 
L -2 -4 
L -4 -2 
L -2 0 
L -4 2 
z
" style="stroke: #ffffff; stroke-width: 0.75; stroke-linejoin: miter"/>
    </defs>
    <g clip-path="url(#p907714b6e8)">
     <use xlink:href="#m52438e20e5" x="692.528702" y="175.386668" style="fill: #7a5195; stroke: #ffffff; stroke-width: 0.75; stroke-linejoin: miter"/>
     <use xlink:href="#m52438e20e5" x="719.999471" y="175.038273" style="fill: #7a5195; stroke: #ffffff; stroke-width: 0.75; stroke-linejoin: miter"/>
    </g>
   </g>
   <g id="line2d_30">
    <path d="M 60.70101 48.457735 
L 74.436394 53.905004 
L 88.171779 56.393601 
L 101.907163 56.770754 
L 115.642548 58.011107 
L 129.377933 57.750579 
L 143.113317 58.630702 
L 156.848702 42.367428 
L 170.584087 45.005584 
L 184.319471 46.090784 
L 198.054856 46.200054 
L 211.79024 45.150591 
L 225.525625 43.754755 
L 239.26101 44.05675 
L 252.996394 22.081452 
L 266.731779 15.416726 
L 280.467163 15.418521 
L 294.202548 15.42404 
L 307.937933 15.413672 
L 321.673317 15.417284 
L 335.408702 15.414314 
L 349.144087 15.421795 
L 362.879471 15.413605 
L 376.614856 15.423556 
L 390.35024 15.416294 
" clip-path="url(#p907714b6e8)" style="fill: none; stroke: #ef5675; stroke-width: 1.5; stroke-linecap: square"/>
    <defs>
     <path id="m9e87698a91" d="M 0 4 
C 1.060812 4 2.078319 3.578535 2.828427 2.828427 
C 3.578535 2.078319 4 1.060812 4 0 
C 4 -1.060812 3.578535 -2.078319 2.828427 -2.828427 
C 2.078319 -3.578535 1.060812 -4 0 -4 
C -1.060812 -4 -2.078319 -3.578535 -2.828427 -2.828427 
C -3.578535 -2.078319 -4 -1.060812 -4 0 
C -4 1.060812 -3.578535 2.078319 -2.828427 2.828427 
C -2.078319 3.578535 -1.060812 4 0 4 
z
" style="stroke: #ffffff; stroke-width: 0.75"/>
    </defs>
    <g clip-path="url(#p907714b6e8)">
     <use xlink:href="#m9e87698a91" x="60.70101" y="48.457735" style="fill: #ef5675; stroke: #ffffff; stroke-width: 0.75"/>
     <use xlink:href="#m9e87698a91" x="74.436394" y="53.905004" style="fill: #ef5675; stroke: #ffffff; stroke-width: 0.75"/>
     <use xlink:href="#m9e87698a91" x="88.171779" y="56.393601" style="fill: #ef5675; stroke: #ffffff; stroke-width: 0.75"/>
     <use xlink:href="#m9e87698a91" x="101.907163" y="56.770754" style="fill: #ef5675; stroke: #ffffff; stroke-width: 0.75"/>
     <use xlink:href="#m9e87698a91" x="115.642548" y="58.011107" style="fill: #ef5675; stroke: #ffffff; stroke-width: 0.75"/>
     <use xlink:href="#m9e87698a91" x="129.377933" y="57.750579" style="fill: #ef5675; stroke: #ffffff; stroke-width: 0.75"/>
     <use xlink:href="#m9e87698a91" x="143.113317" y="58.630702" style="fill: #ef5675; stroke: #ffffff; stroke-width: 0.75"/>
     <use xlink:href="#m9e87698a91" x="156.848702" y="42.367428" style="fill: #ef5675; stroke: #ffffff; stroke-width: 0.75"/>
     <use xlink:href="#m9e87698a91" x="170.584087" y="45.005584" style="fill: #ef5675; stroke: #ffffff; stroke-width: 0.75"/>
     <use xlink:href="#m9e87698a91" x="184.319471" y="46.090784" style="fill: #ef5675; stroke: #ffffff; stroke-width: 0.75"/>
     <use xlink:href="#m9e87698a91" x="198.054856" y="46.200054" style="fill: #ef5675; stroke: #ffffff; stroke-width: 0.75"/>
     <use xlink:href="#m9e87698a91" x="211.79024" y="45.150591" style="fill: #ef5675; stroke: #ffffff; stroke-width: 0.75"/>
     <use xlink:href="#m9e87698a91" x="225.525625" y="43.754755" style="fill: #ef5675; stroke: #ffffff; stroke-width: 0.75"/>
     <use xlink:href="#m9e87698a91" x="239.26101" y="44.05675" style="fill: #ef5675; stroke: #ffffff; stroke-width: 0.75"/>
     <use xlink:href="#m9e87698a91" x="252.996394" y="22.081452" style="fill: #ef5675; stroke: #ffffff; stroke-width: 0.75"/>
     <use xlink:href="#m9e87698a91" x="266.731779" y="15.416726" style="fill: #ef5675; stroke: #ffffff; stroke-width: 0.75"/>
     <use xlink:href="#m9e87698a91" x="280.467163" y="15.418521" style="fill: #ef5675; stroke: #ffffff; stroke-width: 0.75"/>
     <use xlink:href="#m9e87698a91" x="294.202548" y="15.42404" style="fill: #ef5675; stroke: #ffffff; stroke-width: 0.75"/>
     <use xlink:href="#m9e87698a91" x="307.937933" y="15.413672" style="fill: #ef5675; stroke: #ffffff; stroke-width: 0.75"/>
     <use xlink:href="#m9e87698a91" x="321.673317" y="15.417284" style="fill: #ef5675; stroke: #ffffff; stroke-width: 0.75"/>
     <use xlink:href="#m9e87698a91" x="335.408702" y="15.414314" style="fill: #ef5675; stroke: #ffffff; stroke-width: 0.75"/>
     <use xlink:href="#m9e87698a91" x="349.144087" y="15.421795" style="fill: #ef5675; stroke: #ffffff; stroke-width: 0.75"/>
     <use xlink:href="#m9e87698a91" x="362.879471" y="15.413605" style="fill: #ef5675; stroke: #ffffff; stroke-width: 0.75"/>
     <use xlink:href="#m9e87698a91" x="376.614856" y="15.423556" style="fill: #ef5675; stroke: #ffffff; stroke-width: 0.75"/>
     <use xlink:href="#m9e87698a91" x="390.35024" y="15.416294" style="fill: #ef5675; stroke: #ffffff; stroke-width: 0.75"/>
    </g>
   </g>
   <g id="line2d_31">
    <path clip-path="url(#p907714b6e8)" style="fill: none; stroke-dasharray: 1.5,1.5; stroke-dashoffset: 0; stroke: #ef5675; stroke-width: 1.5"/>
    <defs>
     <path id="m03c6b7d109" d="M -2.828427 -2.828427 
L -2.828427 2.828427 
L 2.828427 2.828427 
L 2.828427 -2.828427 
z
" style="stroke: #ffffff; stroke-width: 0.75; stroke-linejoin: miter"/>
    </defs>
    <g clip-path="url(#p907714b6e8)">
     <use xlink:href="#m03c6b7d109" x="1035.913317" y="175.157268" style="fill: #ef5675; stroke: #ffffff; stroke-width: 0.75; stroke-linejoin: miter"/>
    </g>
   </g>
   <g id="line2d_32">
    <path d="M 60.70101 21.521013 
L 74.436394 21.273581 
L 88.171779 21.153159 
L 101.907163 21.199217 
L 115.642548 21.197097 
L 129.377933 21.288642 
L 143.113317 21.230207 
L 156.848702 22.654193 
L 170.584087 22.534331 
L 184.319471 22.559621 
L 198.054856 22.609554 
L 211.79024 23.667246 
L 225.525625 23.936744 
L 239.26101 24.073331 
L 252.996394 22.960546 
L 266.731779 23.263835 
L 280.467163 23.921564 
L 294.202548 24.442365 
L 307.937933 25.210679 
L 321.673317 25.65614 
L 335.408702 25.808853 
L 349.144087 26.414207 
L 362.879471 178.984495 
L 376.614856 178.687993 
L 390.35024 178.79372 
" clip-path="url(#p907714b6e8)" style="fill: none; stroke: #ffa600; stroke-width: 1.5; stroke-linecap: square"/>
    <defs>
     <path id="m2f467512f7" d="M 0 4 
C 1.060812 4 2.078319 3.578535 2.828427 2.828427 
C 3.578535 2.078319 4 1.060812 4 0 
C 4 -1.060812 3.578535 -2.078319 2.828427 -2.828427 
C 2.078319 -3.578535 1.060812 -4 0 -4 
C -1.060812 -4 -2.078319 -3.578535 -2.828427 -2.828427 
C -3.578535 -2.078319 -4 -1.060812 -4 0 
C -4 1.060812 -3.578535 2.078319 -2.828427 2.828427 
C -2.078319 3.578535 -1.060812 4 0 4 
z
" style="stroke: #ffffff; stroke-width: 0.75"/>
    </defs>
    <g clip-path="url(#p907714b6e8)">
     <use xlink:href="#m2f467512f7" x="60.70101" y="21.521013" style="fill: #ffa600; stroke: #ffffff; stroke-width: 0.75"/>
     <use xlink:href="#m2f467512f7" x="74.436394" y="21.273581" style="fill: #ffa600; stroke: #ffffff; stroke-width: 0.75"/>
     <use xlink:href="#m2f467512f7" x="88.171779" y="21.153159" style="fill: #ffa600; stroke: #ffffff; stroke-width: 0.75"/>
     <use xlink:href="#m2f467512f7" x="101.907163" y="21.199217" style="fill: #ffa600; stroke: #ffffff; stroke-width: 0.75"/>
     <use xlink:href="#m2f467512f7" x="115.642548" y="21.197097" style="fill: #ffa600; stroke: #ffffff; stroke-width: 0.75"/>
     <use xlink:href="#m2f467512f7" x="129.377933" y="21.288642" style="fill: #ffa600; stroke: #ffffff; stroke-width: 0.75"/>
     <use xlink:href="#m2f467512f7" x="143.113317" y="21.230207" style="fill: #ffa600; stroke: #ffffff; stroke-width: 0.75"/>
     <use xlink:href="#m2f467512f7" x="156.848702" y="22.654193" style="fill: #ffa600; stroke: #ffffff; stroke-width: 0.75"/>
     <use xlink:href="#m2f467512f7" x="170.584087" y="22.534331" style="fill: #ffa600; stroke: #ffffff; stroke-width: 0.75"/>
     <use xlink:href="#m2f467512f7" x="184.319471" y="22.559621" style="fill: #ffa600; stroke: #ffffff; stroke-width: 0.75"/>
     <use xlink:href="#m2f467512f7" x="198.054856" y="22.609554" style="fill: #ffa600; stroke: #ffffff; stroke-width: 0.75"/>
     <use xlink:href="#m2f467512f7" x="211.79024" y="23.667246" style="fill: #ffa600; stroke: #ffffff; stroke-width: 0.75"/>
     <use xlink:href="#m2f467512f7" x="225.525625" y="23.936744" style="fill: #ffa600; stroke: #ffffff; stroke-width: 0.75"/>
     <use xlink:href="#m2f467512f7" x="239.26101" y="24.073331" style="fill: #ffa600; stroke: #ffffff; stroke-width: 0.75"/>
     <use xlink:href="#m2f467512f7" x="252.996394" y="22.960546" style="fill: #ffa600; stroke: #ffffff; stroke-width: 0.75"/>
     <use xlink:href="#m2f467512f7" x="266.731779" y="23.263835" style="fill: #ffa600; stroke: #ffffff; stroke-width: 0.75"/>
     <use xlink:href="#m2f467512f7" x="280.467163" y="23.921564" style="fill: #ffa600; stroke: #ffffff; stroke-width: 0.75"/>
     <use xlink:href="#m2f467512f7" x="294.202548" y="24.442365" style="fill: #ffa600; stroke: #ffffff; stroke-width: 0.75"/>
     <use xlink:href="#m2f467512f7" x="307.937933" y="25.210679" style="fill: #ffa600; stroke: #ffffff; stroke-width: 0.75"/>
     <use xlink:href="#m2f467512f7" x="321.673317" y="25.65614" style="fill: #ffa600; stroke: #ffffff; stroke-width: 0.75"/>
     <use xlink:href="#m2f467512f7" x="335.408702" y="25.808853" style="fill: #ffa600; stroke: #ffffff; stroke-width: 0.75"/>
     <use xlink:href="#m2f467512f7" x="349.144087" y="26.414207" style="fill: #ffa600; stroke: #ffffff; stroke-width: 0.75"/>
     <use xlink:href="#m2f467512f7" x="362.879471" y="178.984495" style="fill: #ffa600; stroke: #ffffff; stroke-width: 0.75"/>
     <use xlink:href="#m2f467512f7" x="376.614856" y="178.687993" style="fill: #ffa600; stroke: #ffffff; stroke-width: 0.75"/>
     <use xlink:href="#m2f467512f7" x="390.35024" y="178.79372" style="fill: #ffa600; stroke: #ffffff; stroke-width: 0.75"/>
    </g>
   </g>
   <g id="line2d_33">
    <path clip-path="url(#p907714b6e8)" style="fill: none; stroke-dasharray: 6,2.25; stroke-dashoffset: 0; stroke: #ffa600; stroke-width: 1.5"/>
    <defs>
     <path id="m596470dbf3" d="M -2 4 
L 0 2 
L 2 4 
L 4 2 
L 2 0 
L 4 -2 
L 2 -4 
L 0 -2 
L -2 -4 
L -4 -2 
L -2 0 
L -4 2 
z
" style="stroke: #ffffff; stroke-width: 0.75; stroke-linejoin: miter"/>
    </defs>
    <g clip-path="url(#p907714b6e8)">
     <use xlink:href="#m596470dbf3" x="692.528702" y="178.460382" style="fill: #ffa600; stroke: #ffffff; stroke-width: 0.75; stroke-linejoin: miter"/>
     <use xlink:href="#m596470dbf3" x="719.999471" y="179.207238" style="fill: #ffa600; stroke: #ffffff; stroke-width: 0.75; stroke-linejoin: miter"/>
    </g>
   </g>
   <g id="line2d_34">
    <path clip-path="url(#p907714b6e8)" style="fill: none; stroke-dasharray: 6,2.25; stroke-dashoffset: 0; stroke: #003f5c; stroke-width: 1.5"/>
    <defs>
     <path id="m85134e98d3" d="M -2 4 
L 0 2 
L 2 4 
L 4 2 
L 2 0 
L 4 -2 
L 2 -4 
L 0 -2 
L -2 -4 
L -4 -2 
L -2 0 
L -4 2 
z
" style="stroke: #ffffff; stroke-width: 0.75; stroke-linejoin: miter"/>
    </defs>
    <g clip-path="url(#p907714b6e8)">
     <use xlink:href="#m85134e98d3" x="692.528702" y="15.412663" style="fill: #003f5c; stroke: #ffffff; stroke-width: 0.75; stroke-linejoin: miter"/>
     <use xlink:href="#m85134e98d3" x="719.999471" y="15.435658" style="fill: #003f5c; stroke: #ffffff; stroke-width: 0.75; stroke-linejoin: miter"/>
    </g>
   </g>
   <g id="line2d_35">
    <path clip-path="url(#p907714b6e8)" style="fill: none; stroke-dasharray: 1.5,1.5; stroke-dashoffset: 0; stroke: #003f5c; stroke-width: 1.5"/>
    <defs>
     <path id="m4413d0b3f5" d="M -2.828427 -2.828427 
L -2.828427 2.828427 
L 2.828427 2.828427 
L 2.828427 -2.828427 
z
" style="stroke: #ffffff; stroke-width: 0.75; stroke-linejoin: miter"/>
    </defs>
    <g clip-path="url(#p907714b6e8)">
     <use xlink:href="#m4413d0b3f5" x="1035.913317" y="178.806772" style="fill: #003f5c; stroke: #ffffff; stroke-width: 0.75; stroke-linejoin: miter"/>
    </g>
   </g>
   <g id="line2d_36">
    <path clip-path="url(#p907714b6e8)" style="fill: none; stroke-dasharray: 6,2.25; stroke-dashoffset: 0; stroke: #7a5195; stroke-width: 1.5"/>
    <g clip-path="url(#p907714b6e8)">
     <use xlink:href="#m52438e20e5" x="692.528702" y="178.601741" style="fill: #7a5195; stroke: #ffffff; stroke-width: 0.75; stroke-linejoin: miter"/>
     <use xlink:href="#m52438e20e5" x="719.999471" y="177.993421" style="fill: #7a5195; stroke: #ffffff; stroke-width: 0.75; stroke-linejoin: miter"/>
    </g>
   </g>
   <g id="line2d_37">
    <path clip-path="url(#p907714b6e8)" style="fill: none; stroke-dasharray: 1.5,1.5; stroke-dashoffset: 0; stroke: #ef5675; stroke-width: 1.5"/>
    <g clip-path="url(#p907714b6e8)">
     <use xlink:href="#m03c6b7d109" x="1035.913317" y="15.419155" style="fill: #ef5675; stroke: #ffffff; stroke-width: 0.75; stroke-linejoin: miter"/>
    </g>
   </g>
   <g id="line2d_38">
    <path clip-path="url(#p907714b6e8)" style="fill: none; stroke-dasharray: 1.5,1.5; stroke-dashoffset: 0; stroke: #ffa600; stroke-width: 1.5"/>
    <defs>
     <path id="mae0727a343" d="M -2.828427 -2.828427 
L -2.828427 2.828427 
L 2.828427 2.828427 
L 2.828427 -2.828427 
z
" style="stroke: #ffffff; stroke-width: 0.75; stroke-linejoin: miter"/>
    </defs>
    <g clip-path="url(#p907714b6e8)">
     <use xlink:href="#mae0727a343" x="1035.913317" y="178.496261" style="fill: #ffa600; stroke: #ffffff; stroke-width: 0.75; stroke-linejoin: miter"/>
    </g>
   </g>
   <g id="line2d_39"/>
   <g id="line2d_40"/>
   <g id="line2d_41"/>
   <g id="line2d_42"/>
   <g id="line2d_43"/>
   <g id="line2d_44"/>
   <g id="line2d_45"/>
   <g id="line2d_46"/>
   <g id="line2d_47"/>
   <g id="line2d_48"/>
   <g id="line2d_49"/>
   <g id="line2d_50"/>
   <g id="line2d_51"/>
   <g id="patch_3">
    <path d="M 46.965625 273.312 
L 46.965625 7.2 
" style="fill: none; stroke: #000000; stroke-width: 0.8; stroke-linejoin: miter; stroke-linecap: square"/>
   </g>
   <g id="patch_4">
    <path d="M 404.085625 273.312 
L 404.085625 7.2 
" style="fill: none; stroke: #000000; stroke-width: 0.8; stroke-linejoin: miter; stroke-linecap: square"/>
   </g>
   <g id="patch_5">
    <path d="M 46.965625 273.312 
L 404.085625 273.312 
" style="fill: none; stroke: #000000; stroke-width: 0.8; stroke-linejoin: miter; stroke-linecap: square"/>
   </g>
   <g id="patch_6">
    <path d="M 46.965625 7.2 
L 404.085625 7.2 
" style="fill: none; stroke: #000000; stroke-width: 0.8; stroke-linejoin: miter; stroke-linecap: square"/>
   </g>
   <g id="legend_1">
    <g id="patch_7">
     <path d="M 53.965625 268.312 
L 122.748438 268.312 
Q 124.748438 268.312 124.748438 266.312 
L 124.748438 193.921375 
Q 124.748438 191.921375 122.748438 191.921375 
L 53.965625 191.921375 
Q 51.965625 191.921375 51.965625 193.921375 
L 51.965625 266.312 
Q 51.965625 268.312 53.965625 268.312 
z
" style="fill: #ffffff; opacity: 0.8; stroke: #cccccc; stroke-linejoin: miter"/>
    </g>
    <g id="text_16">
     <!-- BSS number: -->
     <g transform="translate(55.965625 203.519812) scale(0.1 -0.1)">
      <defs>
       <path id="DejaVuSans-42" d="M 1259 2228 
L 1259 519 
L 2272 519 
Q 2781 519 3026 730 
Q 3272 941 3272 1375 
Q 3272 1813 3026 2020 
Q 2781 2228 2272 2228 
L 1259 2228 
z
M 1259 4147 
L 1259 2741 
L 2194 2741 
Q 2656 2741 2882 2914 
Q 3109 3088 3109 3444 
Q 3109 3797 2882 3972 
Q 2656 4147 2194 4147 
L 1259 4147 
z
M 628 4666 
L 2241 4666 
Q 2963 4666 3353 4366 
Q 3744 4066 3744 3513 
Q 3744 3084 3544 2831 
Q 3344 2578 2956 2516 
Q 3422 2416 3680 2098 
Q 3938 1781 3938 1306 
Q 3938 681 3513 340 
Q 3088 0 2303 0 
L 628 0 
L 628 4666 
z
" transform="scale(0.015625)"/>
       <path id="DejaVuSans-53" d="M 3425 4513 
L 3425 3897 
Q 3066 4069 2747 4153 
Q 2428 4238 2131 4238 
Q 1616 4238 1336 4038 
Q 1056 3838 1056 3469 
Q 1056 3159 1242 3001 
Q 1428 2844 1947 2747 
L 2328 2669 
Q 3034 2534 3370 2195 
Q 3706 1856 3706 1288 
Q 3706 609 3251 259 
Q 2797 -91 1919 -91 
Q 1588 -91 1214 -16 
Q 841 59 441 206 
L 441 856 
Q 825 641 1194 531 
Q 1563 422 1919 422 
Q 2459 422 2753 634 
Q 3047 847 3047 1241 
Q 3047 1584 2836 1778 
Q 2625 1972 2144 2069 
L 1759 2144 
Q 1053 2284 737 2584 
Q 422 2884 422 3419 
Q 422 4038 858 4394 
Q 1294 4750 2059 4750 
Q 2388 4750 2728 4690 
Q 3069 4631 3425 4513 
z
" transform="scale(0.015625)"/>
       <path id="DejaVuSans-6d" d="M 3328 2828 
Q 3544 3216 3844 3400 
Q 4144 3584 4550 3584 
Q 5097 3584 5394 3201 
Q 5691 2819 5691 2113 
L 5691 0 
L 5113 0 
L 5113 2094 
Q 5113 2597 4934 2840 
Q 4756 3084 4391 3084 
Q 3944 3084 3684 2787 
Q 3425 2491 3425 1978 
L 3425 0 
L 2847 0 
L 2847 2094 
Q 2847 2600 2669 2842 
Q 2491 3084 2119 3084 
Q 1678 3084 1418 2786 
Q 1159 2488 1159 1978 
L 1159 0 
L 581 0 
L 581 3500 
L 1159 3500 
L 1159 2956 
Q 1356 3278 1631 3431 
Q 1906 3584 2284 3584 
Q 2666 3584 2933 3390 
Q 3200 3197 3328 2828 
z
" transform="scale(0.015625)"/>
       <path id="DejaVuSans-3a" d="M 750 794 
L 1409 794 
L 1409 0 
L 750 0 
L 750 794 
z
M 750 3309 
L 1409 3309 
L 1409 2516 
L 750 2516 
L 750 3309 
z
" transform="scale(0.015625)"/>
      </defs>
      <use xlink:href="#DejaVuSans-42"/>
      <use xlink:href="#DejaVuSans-53" x="66.853516"/>
      <use xlink:href="#DejaVuSans-53" x="130.330078"/>
      <use xlink:href="#DejaVuSans-20" x="193.806641"/>
      <use xlink:href="#DejaVuSans-6e" x="225.59375"/>
      <use xlink:href="#DejaVuSans-75" x="288.972656"/>
      <use xlink:href="#DejaVuSans-6d" x="352.351562"/>
      <use xlink:href="#DejaVuSans-62" x="449.763672"/>
      <use xlink:href="#DejaVuSans-65" x="513.240234"/>
      <use xlink:href="#DejaVuSans-72" x="574.763672"/>
      <use xlink:href="#DejaVuSans-3a" x="614.126953"/>
     </g>
    </g>
    <g id="line2d_52">
     <path d="M 71.175781 214.697937 
L 81.175781 214.697937 
L 91.175781 214.697937 
" style="fill: none; stroke: #003f5c; stroke-width: 4; stroke-linecap: square"/>
    </g>
    <g id="text_17">
     <!-- 1 -->
     <g transform="translate(99.175781 218.197937) scale(0.1 -0.1)">
      <use xlink:href="#DejaVuSans-31"/>
     </g>
    </g>
    <g id="line2d_53">
     <path d="M 71.175781 229.376062 
L 81.175781 229.376062 
L 91.175781 229.376062 
" style="fill: none; stroke: #7a5195; stroke-width: 4; stroke-linecap: square"/>
    </g>
    <g id="text_18">
     <!-- 2 -->
     <g transform="translate(99.175781 232.876062) scale(0.1 -0.1)">
      <use xlink:href="#DejaVuSans-32"/>
     </g>
    </g>
    <g id="line2d_54">
     <path d="M 71.175781 244.054187 
L 81.175781 244.054187 
L 91.175781 244.054187 
" style="fill: none; stroke: #ef5675; stroke-width: 4; stroke-linecap: square"/>
    </g>
    <g id="text_19">
     <!-- 3 -->
     <g transform="translate(99.175781 247.554187) scale(0.1 -0.1)">
      <defs>
       <path id="DejaVuSans-33" d="M 2597 2516 
Q 3050 2419 3304 2112 
Q 3559 1806 3559 1356 
Q 3559 666 3084 287 
Q 2609 -91 1734 -91 
Q 1441 -91 1130 -33 
Q 819 25 488 141 
L 488 750 
Q 750 597 1062 519 
Q 1375 441 1716 441 
Q 2309 441 2620 675 
Q 2931 909 2931 1356 
Q 2931 1769 2642 2001 
Q 2353 2234 1838 2234 
L 1294 2234 
L 1294 2753 
L 1863 2753 
Q 2328 2753 2575 2939 
Q 2822 3125 2822 3475 
Q 2822 3834 2567 4026 
Q 2313 4219 1838 4219 
Q 1578 4219 1281 4162 
Q 984 4106 628 3988 
L 628 4550 
Q 988 4650 1302 4700 
Q 1616 4750 1894 4750 
Q 2613 4750 3031 4423 
Q 3450 4097 3450 3541 
Q 3450 3153 3228 2886 
Q 3006 2619 2597 2516 
z
" transform="scale(0.015625)"/>
      </defs>
      <use xlink:href="#DejaVuSans-33"/>
     </g>
    </g>
    <g id="line2d_55">
     <path d="M 71.175781 258.732312 
L 81.175781 258.732312 
L 91.175781 258.732312 
" style="fill: none; stroke: #ffa600; stroke-width: 4; stroke-linecap: square"/>
    </g>
    <g id="text_20">
     <!-- 4 -->
     <g transform="translate(99.175781 262.232312) scale(0.1 -0.1)">
      <use xlink:href="#DejaVuSans-34"/>
     </g>
    </g>
   </g>
  </g>
 </g>
 <defs>
  <clipPath id="p907714b6e8">
   <rect x="46.965625" y="7.2" width="357.12" height="266.112"/>
  </clipPath>
 </defs>
</svg>
