<?xml version="1.0" encoding="utf-8" standalone="no"?>
<!DOCTYPE svg PUBLIC "-//W3C//DTD SVG 1.1//EN"
  "http://www.w3.org/Graphics/SVG/1.1/DTD/svg11.dtd">
<svg xmlns:xlink="http://www.w3.org/1999/xlink" width="417.648125pt" height="310.86825pt" viewBox="0 0 417.648125 310.86825" xmlns="http://www.w3.org/2000/svg" version="1.1">
 <metadata>
  <rdf:RDF xmlns:dc="http://purl.org/dc/elements/1.1/" xmlns:cc="http://creativecommons.org/ns#" xmlns:rdf="http://www.w3.org/1999/02/22-rdf-syntax-ns#">
   <cc:Work>
    <dc:type rdf:resource="http://purl.org/dc/dcmitype/StillImage"/>
    <dc:date>2025-06-15T20:06:54.544820</dc:date>
    <dc:format>image/svg+xml</dc:format>
    <dc:creator>
     <cc:Agent>
      <dc:title>Matplotlib v3.9.2, https://matplotlib.org/</dc:title>
     </cc:Agent>
    </dc:creator>
   </cc:Work>
  </rdf:RDF>
 </metadata>
 <defs>
  <style type="text/css">*{stroke-linejoin: round; stroke-linecap: butt}</style>
 </defs>
 <g id="figure_1">
  <g id="patch_1">
   <path d="M 0 310.86825 
L 417.648125 310.86825 
L 417.648125 0 
L 0 0 
z
" style="fill: #ffffff"/>
  </g>
  <g id="axes_1">
   <g id="patch_2">
    <path d="M 53.328125 273.312 
L 410.448125 273.312 
L 410.448125 7.2 
L 53.328125 7.2 
z
" style="fill: #ffffff"/>
   </g>
   <g id="PolyCollection_1"/>
   <g id="PolyCollection_2"/>
   <g id="PolyCollection_3"/>
   <g id="PolyCollection_4"/>
   <g id="PolyCollection_5"/>
   <g id="matplotlib.axis_1">
    <g id="xtick_1">
     <g id="line2d_1">
      <path d="M 92.750463 273.312 
L 92.750463 7.2 
" clip-path="url(#p834e5d08be)" style="fill: none; stroke-dasharray: 1.85,0.8; stroke-dashoffset: 0; stroke: #ffffff; stroke-width: 0.5"/>
     </g>
     <g id="line2d_2">
      <defs>
       <path id="m43b81d4e9d" d="M 0 0 
L 0 3.5 
" style="stroke: #000000; stroke-width: 0.8"/>
      </defs>
      <g>
       <use xlink:href="#m43b81d4e9d" x="92.750463" y="273.312" style="stroke: #000000; stroke-width: 0.8"/>
      </g>
     </g>
     <g id="text_1">
      <!-- 200 -->
      <g transform="translate(83.206713 287.910437) scale(0.1 -0.1)">
       <defs>
        <path id="DejaVuSans-32" d="M 1228 531 
L 3431 531 
L 3431 0 
L 469 0 
L 469 531 
Q 828 903 1448 1529 
Q 2069 2156 2228 2338 
Q 2531 2678 2651 2914 
Q 2772 3150 2772 3378 
Q 2772 3750 2511 3984 
Q 2250 4219 1831 4219 
Q 1534 4219 1204 4116 
Q 875 4013 500 3803 
L 500 4441 
Q 881 4594 1212 4672 
Q 1544 4750 1819 4750 
Q 2544 4750 2975 4387 
Q 3406 4025 3406 3419 
Q 3406 3131 3298 2873 
Q 3191 2616 2906 2266 
Q 2828 2175 2409 1742 
Q 1991 1309 1228 531 
z
" transform="scale(0.015625)"/>
        <path id="DejaVuSans-30" d="M 2034 4250 
Q 1547 4250 1301 3770 
Q 1056 3291 1056 2328 
Q 1056 1369 1301 889 
Q 1547 409 2034 409 
Q 2525 409 2770 889 
Q 3016 1369 3016 2328 
Q 3016 3291 2770 3770 
Q 2525 4250 2034 4250 
z
M 2034 4750 
Q 2819 4750 3233 4129 
Q 3647 3509 3647 2328 
Q 3647 1150 3233 529 
Q 2819 -91 2034 -91 
Q 1250 -91 836 529 
Q 422 1150 422 2328 
Q 422 3509 836 4129 
Q 1250 4750 2034 4750 
z
" transform="scale(0.015625)"/>
       </defs>
       <use xlink:href="#DejaVuSans-32"/>
       <use xlink:href="#DejaVuSans-30" x="63.623047"/>
       <use xlink:href="#DejaVuSans-30" x="127.246094"/>
      </g>
     </g>
    </g>
    <g id="xtick_2">
     <g id="line2d_3">
      <path d="M 139.129683 273.312 
L 139.129683 7.2 
" clip-path="url(#p834e5d08be)" style="fill: none; stroke-dasharray: 1.85,0.8; stroke-dashoffset: 0; stroke: #ffffff; stroke-width: 0.5"/>
     </g>
     <g id="line2d_4">
      <g>
       <use xlink:href="#m43b81d4e9d" x="139.129683" y="273.312" style="stroke: #000000; stroke-width: 0.8"/>
      </g>
     </g>
     <g id="text_2">
      <!-- 400 -->
      <g transform="translate(129.585933 287.910437) scale(0.1 -0.1)">
       <defs>
        <path id="DejaVuSans-34" d="M 2419 4116 
L 825 1625 
L 2419 1625 
L 2419 4116 
z
M 2253 4666 
L 3047 4666 
L 3047 1625 
L 3713 1625 
L 3713 1100 
L 3047 1100 
L 3047 0 
L 2419 0 
L 2419 1100 
L 313 1100 
L 313 1709 
L 2253 4666 
z
" transform="scale(0.015625)"/>
       </defs>
       <use xlink:href="#DejaVuSans-34"/>
       <use xlink:href="#DejaVuSans-30" x="63.623047"/>
       <use xlink:href="#DejaVuSans-30" x="127.246094"/>
      </g>
     </g>
    </g>
    <g id="xtick_3">
     <g id="line2d_5">
      <path d="M 185.508904 273.312 
L 185.508904 7.2 
" clip-path="url(#p834e5d08be)" style="fill: none; stroke-dasharray: 1.85,0.8; stroke-dashoffset: 0; stroke: #ffffff; stroke-width: 0.5"/>
     </g>
     <g id="line2d_6">
      <g>
       <use xlink:href="#m43b81d4e9d" x="185.508904" y="273.312" style="stroke: #000000; stroke-width: 0.8"/>
      </g>
     </g>
     <g id="text_3">
      <!-- 600 -->
      <g transform="translate(175.965154 287.910437) scale(0.1 -0.1)">
       <defs>
        <path id="DejaVuSans-36" d="M 2113 2584 
Q 1688 2584 1439 2293 
Q 1191 2003 1191 1497 
Q 1191 994 1439 701 
Q 1688 409 2113 409 
Q 2538 409 2786 701 
Q 3034 994 3034 1497 
Q 3034 2003 2786 2293 
Q 2538 2584 2113 2584 
z
M 3366 4563 
L 3366 3988 
Q 3128 4100 2886 4159 
Q 2644 4219 2406 4219 
Q 1781 4219 1451 3797 
Q 1122 3375 1075 2522 
Q 1259 2794 1537 2939 
Q 1816 3084 2150 3084 
Q 2853 3084 3261 2657 
Q 3669 2231 3669 1497 
Q 3669 778 3244 343 
Q 2819 -91 2113 -91 
Q 1303 -91 875 529 
Q 447 1150 447 2328 
Q 447 3434 972 4092 
Q 1497 4750 2381 4750 
Q 2619 4750 2861 4703 
Q 3103 4656 3366 4563 
z
" transform="scale(0.015625)"/>
       </defs>
       <use xlink:href="#DejaVuSans-36"/>
       <use xlink:href="#DejaVuSans-30" x="63.623047"/>
       <use xlink:href="#DejaVuSans-30" x="127.246094"/>
      </g>
     </g>
    </g>
    <g id="xtick_4">
     <g id="line2d_7">
      <path d="M 231.888125 273.312 
L 231.888125 7.2 
" clip-path="url(#p834e5d08be)" style="fill: none; stroke-dasharray: 1.85,0.8; stroke-dashoffset: 0; stroke: #ffffff; stroke-width: 0.5"/>
     </g>
     <g id="line2d_8">
      <g>
       <use xlink:href="#m43b81d4e9d" x="231.888125" y="273.312" style="stroke: #000000; stroke-width: 0.8"/>
      </g>
     </g>
     <g id="text_4">
      <!-- 800 -->
      <g transform="translate(222.344375 287.910437) scale(0.1 -0.1)">
       <defs>
        <path id="DejaVuSans-38" d="M 2034 2216 
Q 1584 2216 1326 1975 
Q 1069 1734 1069 1313 
Q 1069 891 1326 650 
Q 1584 409 2034 409 
Q 2484 409 2743 651 
Q 3003 894 3003 1313 
Q 3003 1734 2745 1975 
Q 2488 2216 2034 2216 
z
M 1403 2484 
Q 997 2584 770 2862 
Q 544 3141 544 3541 
Q 544 4100 942 4425 
Q 1341 4750 2034 4750 
Q 2731 4750 3128 4425 
Q 3525 4100 3525 3541 
Q 3525 3141 3298 2862 
Q 3072 2584 2669 2484 
Q 3125 2378 3379 2068 
Q 3634 1759 3634 1313 
Q 3634 634 3220 271 
Q 2806 -91 2034 -91 
Q 1263 -91 848 271 
Q 434 634 434 1313 
Q 434 1759 690 2068 
Q 947 2378 1403 2484 
z
M 1172 3481 
Q 1172 3119 1398 2916 
Q 1625 2713 2034 2713 
Q 2441 2713 2670 2916 
Q 2900 3119 2900 3481 
Q 2900 3844 2670 4047 
Q 2441 4250 2034 4250 
Q 1625 4250 1398 4047 
Q 1172 3844 1172 3481 
z
" transform="scale(0.015625)"/>
       </defs>
       <use xlink:href="#DejaVuSans-38"/>
       <use xlink:href="#DejaVuSans-30" x="63.623047"/>
       <use xlink:href="#DejaVuSans-30" x="127.246094"/>
      </g>
     </g>
    </g>
    <g id="xtick_5">
     <g id="line2d_9">
      <path d="M 278.267346 273.312 
L 278.267346 7.2 
" clip-path="url(#p834e5d08be)" style="fill: none; stroke-dasharray: 1.85,0.8; stroke-dashoffset: 0; stroke: #ffffff; stroke-width: 0.5"/>
     </g>
     <g id="line2d_10">
      <g>
       <use xlink:href="#m43b81d4e9d" x="278.267346" y="273.312" style="stroke: #000000; stroke-width: 0.8"/>
      </g>
     </g>
     <g id="text_5">
      <!-- 1000 -->
      <g transform="translate(265.542346 287.910437) scale(0.1 -0.1)">
       <defs>
        <path id="DejaVuSans-31" d="M 794 531 
L 1825 531 
L 1825 4091 
L 703 3866 
L 703 4441 
L 1819 4666 
L 2450 4666 
L 2450 531 
L 3481 531 
L 3481 0 
L 794 0 
L 794 531 
z
" transform="scale(0.015625)"/>
       </defs>
       <use xlink:href="#DejaVuSans-31"/>
       <use xlink:href="#DejaVuSans-30" x="63.623047"/>
       <use xlink:href="#DejaVuSans-30" x="127.246094"/>
       <use xlink:href="#DejaVuSans-30" x="190.869141"/>
      </g>
     </g>
    </g>
    <g id="xtick_6">
     <g id="line2d_11">
      <path d="M 324.646567 273.312 
L 324.646567 7.2 
" clip-path="url(#p834e5d08be)" style="fill: none; stroke-dasharray: 1.85,0.8; stroke-dashoffset: 0; stroke: #ffffff; stroke-width: 0.5"/>
     </g>
     <g id="line2d_12">
      <g>
       <use xlink:href="#m43b81d4e9d" x="324.646567" y="273.312" style="stroke: #000000; stroke-width: 0.8"/>
      </g>
     </g>
     <g id="text_6">
      <!-- 1200 -->
      <g transform="translate(311.921567 287.910437) scale(0.1 -0.1)">
       <use xlink:href="#DejaVuSans-31"/>
       <use xlink:href="#DejaVuSans-32" x="63.623047"/>
       <use xlink:href="#DejaVuSans-30" x="127.246094"/>
       <use xlink:href="#DejaVuSans-30" x="190.869141"/>
      </g>
     </g>
    </g>
    <g id="xtick_7">
     <g id="line2d_13">
      <path d="M 371.025787 273.312 
L 371.025787 7.2 
" clip-path="url(#p834e5d08be)" style="fill: none; stroke-dasharray: 1.85,0.8; stroke-dashoffset: 0; stroke: #ffffff; stroke-width: 0.5"/>
     </g>
     <g id="line2d_14">
      <g>
       <use xlink:href="#m43b81d4e9d" x="371.025787" y="273.312" style="stroke: #000000; stroke-width: 0.8"/>
      </g>
     </g>
     <g id="text_7">
      <!-- 1400 -->
      <g transform="translate(358.300787 287.910437) scale(0.1 -0.1)">
       <use xlink:href="#DejaVuSans-31"/>
       <use xlink:href="#DejaVuSans-34" x="63.623047"/>
       <use xlink:href="#DejaVuSans-30" x="127.246094"/>
       <use xlink:href="#DejaVuSans-30" x="190.869141"/>
      </g>
     </g>
    </g>
    <g id="text_8">
     <!-- Offered load by STA [Mbps] -->
     <g transform="translate(163.555313 301.588562) scale(0.1 -0.1)">
      <defs>
       <path id="DejaVuSans-4f" d="M 2522 4238 
Q 1834 4238 1429 3725 
Q 1025 3213 1025 2328 
Q 1025 1447 1429 934 
Q 1834 422 2522 422 
Q 3209 422 3611 934 
Q 4013 1447 4013 2328 
Q 4013 3213 3611 3725 
Q 3209 4238 2522 4238 
z
M 2522 4750 
Q 3503 4750 4090 4092 
Q 4678 3434 4678 2328 
Q 4678 1225 4090 567 
Q 3503 -91 2522 -91 
Q 1538 -91 948 565 
Q 359 1222 359 2328 
Q 359 3434 948 4092 
Q 1538 4750 2522 4750 
z
" transform="scale(0.015625)"/>
       <path id="DejaVuSans-66" d="M 2375 4863 
L 2375 4384 
L 1825 4384 
Q 1516 4384 1395 4259 
Q 1275 4134 1275 3809 
L 1275 3500 
L 2222 3500 
L 2222 3053 
L 1275 3053 
L 1275 0 
L 697 0 
L 697 3053 
L 147 3053 
L 147 3500 
L 697 3500 
L 697 3744 
Q 697 4328 969 4595 
Q 1241 4863 1831 4863 
L 2375 4863 
z
" transform="scale(0.015625)"/>
       <path id="DejaVuSans-65" d="M 3597 1894 
L 3597 1613 
L 953 1613 
Q 991 1019 1311 708 
Q 1631 397 2203 397 
Q 2534 397 2845 478 
Q 3156 559 3463 722 
L 3463 178 
Q 3153 47 2828 -22 
Q 2503 -91 2169 -91 
Q 1331 -91 842 396 
Q 353 884 353 1716 
Q 353 2575 817 3079 
Q 1281 3584 2069 3584 
Q 2775 3584 3186 3129 
Q 3597 2675 3597 1894 
z
M 3022 2063 
Q 3016 2534 2758 2815 
Q 2500 3097 2075 3097 
Q 1594 3097 1305 2825 
Q 1016 2553 972 2059 
L 3022 2063 
z
" transform="scale(0.015625)"/>
       <path id="DejaVuSans-72" d="M 2631 2963 
Q 2534 3019 2420 3045 
Q 2306 3072 2169 3072 
Q 1681 3072 1420 2755 
Q 1159 2438 1159 1844 
L 1159 0 
L 581 0 
L 581 3500 
L 1159 3500 
L 1159 2956 
Q 1341 3275 1631 3429 
Q 1922 3584 2338 3584 
Q 2397 3584 2469 3576 
Q 2541 3569 2628 3553 
L 2631 2963 
z
" transform="scale(0.015625)"/>
       <path id="DejaVuSans-64" d="M 2906 2969 
L 2906 4863 
L 3481 4863 
L 3481 0 
L 2906 0 
L 2906 525 
Q 2725 213 2448 61 
Q 2172 -91 1784 -91 
Q 1150 -91 751 415 
Q 353 922 353 1747 
Q 353 2572 751 3078 
Q 1150 3584 1784 3584 
Q 2172 3584 2448 3432 
Q 2725 3281 2906 2969 
z
M 947 1747 
Q 947 1113 1208 752 
Q 1469 391 1925 391 
Q 2381 391 2643 752 
Q 2906 1113 2906 1747 
Q 2906 2381 2643 2742 
Q 2381 3103 1925 3103 
Q 1469 3103 1208 2742 
Q 947 2381 947 1747 
z
" transform="scale(0.015625)"/>
       <path id="DejaVuSans-20" transform="scale(0.015625)"/>
       <path id="DejaVuSans-6c" d="M 603 4863 
L 1178 4863 
L 1178 0 
L 603 0 
L 603 4863 
z
" transform="scale(0.015625)"/>
       <path id="DejaVuSans-6f" d="M 1959 3097 
Q 1497 3097 1228 2736 
Q 959 2375 959 1747 
Q 959 1119 1226 758 
Q 1494 397 1959 397 
Q 2419 397 2687 759 
Q 2956 1122 2956 1747 
Q 2956 2369 2687 2733 
Q 2419 3097 1959 3097 
z
M 1959 3584 
Q 2709 3584 3137 3096 
Q 3566 2609 3566 1747 
Q 3566 888 3137 398 
Q 2709 -91 1959 -91 
Q 1206 -91 779 398 
Q 353 888 353 1747 
Q 353 2609 779 3096 
Q 1206 3584 1959 3584 
z
" transform="scale(0.015625)"/>
       <path id="DejaVuSans-61" d="M 2194 1759 
Q 1497 1759 1228 1600 
Q 959 1441 959 1056 
Q 959 750 1161 570 
Q 1363 391 1709 391 
Q 2188 391 2477 730 
Q 2766 1069 2766 1631 
L 2766 1759 
L 2194 1759 
z
M 3341 1997 
L 3341 0 
L 2766 0 
L 2766 531 
Q 2569 213 2275 61 
Q 1981 -91 1556 -91 
Q 1019 -91 701 211 
Q 384 513 384 1019 
Q 384 1609 779 1909 
Q 1175 2209 1959 2209 
L 2766 2209 
L 2766 2266 
Q 2766 2663 2505 2880 
Q 2244 3097 1772 3097 
Q 1472 3097 1187 3025 
Q 903 2953 641 2809 
L 641 3341 
Q 956 3463 1253 3523 
Q 1550 3584 1831 3584 
Q 2591 3584 2966 3190 
Q 3341 2797 3341 1997 
z
" transform="scale(0.015625)"/>
       <path id="DejaVuSans-62" d="M 3116 1747 
Q 3116 2381 2855 2742 
Q 2594 3103 2138 3103 
Q 1681 3103 1420 2742 
Q 1159 2381 1159 1747 
Q 1159 1113 1420 752 
Q 1681 391 2138 391 
Q 2594 391 2855 752 
Q 3116 1113 3116 1747 
z
M 1159 2969 
Q 1341 3281 1617 3432 
Q 1894 3584 2278 3584 
Q 2916 3584 3314 3078 
Q 3713 2572 3713 1747 
Q 3713 922 3314 415 
Q 2916 -91 2278 -91 
Q 1894 -91 1617 61 
Q 1341 213 1159 525 
L 1159 0 
L 581 0 
L 581 4863 
L 1159 4863 
L 1159 2969 
z
" transform="scale(0.015625)"/>
       <path id="DejaVuSans-79" d="M 2059 -325 
Q 1816 -950 1584 -1140 
Q 1353 -1331 966 -1331 
L 506 -1331 
L 506 -850 
L 844 -850 
Q 1081 -850 1212 -737 
Q 1344 -625 1503 -206 
L 1606 56 
L 191 3500 
L 800 3500 
L 1894 763 
L 2988 3500 
L 3597 3500 
L 2059 -325 
z
" transform="scale(0.015625)"/>
       <path id="DejaVuSans-53" d="M 3425 4513 
L 3425 3897 
Q 3066 4069 2747 4153 
Q 2428 4238 2131 4238 
Q 1616 4238 1336 4038 
Q 1056 3838 1056 3469 
Q 1056 3159 1242 3001 
Q 1428 2844 1947 2747 
L 2328 2669 
Q 3034 2534 3370 2195 
Q 3706 1856 3706 1288 
Q 3706 609 3251 259 
Q 2797 -91 1919 -91 
Q 1588 -91 1214 -16 
Q 841 59 441 206 
L 441 856 
Q 825 641 1194 531 
Q 1563 422 1919 422 
Q 2459 422 2753 634 
Q 3047 847 3047 1241 
Q 3047 1584 2836 1778 
Q 2625 1972 2144 2069 
L 1759 2144 
Q 1053 2284 737 2584 
Q 422 2884 422 3419 
Q 422 4038 858 4394 
Q 1294 4750 2059 4750 
Q 2388 4750 2728 4690 
Q 3069 4631 3425 4513 
z
" transform="scale(0.015625)"/>
       <path id="DejaVuSans-54" d="M -19 4666 
L 3928 4666 
L 3928 4134 
L 2272 4134 
L 2272 0 
L 1638 0 
L 1638 4134 
L -19 4134 
L -19 4666 
z
" transform="scale(0.015625)"/>
       <path id="DejaVuSans-41" d="M 2188 4044 
L 1331 1722 
L 3047 1722 
L 2188 4044 
z
M 1831 4666 
L 2547 4666 
L 4325 0 
L 3669 0 
L 3244 1197 
L 1141 1197 
L 716 0 
L 50 0 
L 1831 4666 
z
" transform="scale(0.015625)"/>
       <path id="DejaVuSans-5b" d="M 550 4863 
L 1875 4863 
L 1875 4416 
L 1125 4416 
L 1125 -397 
L 1875 -397 
L 1875 -844 
L 550 -844 
L 550 4863 
z
" transform="scale(0.015625)"/>
       <path id="DejaVuSans-4d" d="M 628 4666 
L 1569 4666 
L 2759 1491 
L 3956 4666 
L 4897 4666 
L 4897 0 
L 4281 0 
L 4281 4097 
L 3078 897 
L 2444 897 
L 1241 4097 
L 1241 0 
L 628 0 
L 628 4666 
z
" transform="scale(0.015625)"/>
       <path id="DejaVuSans-70" d="M 1159 525 
L 1159 -1331 
L 581 -1331 
L 581 3500 
L 1159 3500 
L 1159 2969 
Q 1341 3281 1617 3432 
Q 1894 3584 2278 3584 
Q 2916 3584 3314 3078 
Q 3713 2572 3713 1747 
Q 3713 922 3314 415 
Q 2916 -91 2278 -91 
Q 1894 -91 1617 61 
Q 1341 213 1159 525 
z
M 3116 1747 
Q 3116 2381 2855 2742 
Q 2594 3103 2138 3103 
Q 1681 3103 1420 2742 
Q 1159 2381 1159 1747 
Q 1159 1113 1420 752 
Q 1681 391 2138 391 
Q 2594 391 2855 752 
Q 3116 1113 3116 1747 
z
" transform="scale(0.015625)"/>
       <path id="DejaVuSans-73" d="M 2834 3397 
L 2834 2853 
Q 2591 2978 2328 3040 
Q 2066 3103 1784 3103 
Q 1356 3103 1142 2972 
Q 928 2841 928 2578 
Q 928 2378 1081 2264 
Q 1234 2150 1697 2047 
L 1894 2003 
Q 2506 1872 2764 1633 
Q 3022 1394 3022 966 
Q 3022 478 2636 193 
Q 2250 -91 1575 -91 
Q 1294 -91 989 -36 
Q 684 19 347 128 
L 347 722 
Q 666 556 975 473 
Q 1284 391 1588 391 
Q 1994 391 2212 530 
Q 2431 669 2431 922 
Q 2431 1156 2273 1281 
Q 2116 1406 1581 1522 
L 1381 1569 
Q 847 1681 609 1914 
Q 372 2147 372 2553 
Q 372 3047 722 3315 
Q 1072 3584 1716 3584 
Q 2034 3584 2315 3537 
Q 2597 3491 2834 3397 
z
" transform="scale(0.015625)"/>
       <path id="DejaVuSans-5d" d="M 1947 4863 
L 1947 -844 
L 622 -844 
L 622 -397 
L 1369 -397 
L 1369 4416 
L 622 4416 
L 622 4863 
L 1947 4863 
z
" transform="scale(0.015625)"/>
      </defs>
      <use xlink:href="#DejaVuSans-4f"/>
      <use xlink:href="#DejaVuSans-66" x="78.710938"/>
      <use xlink:href="#DejaVuSans-66" x="113.916016"/>
      <use xlink:href="#DejaVuSans-65" x="149.121094"/>
      <use xlink:href="#DejaVuSans-72" x="210.644531"/>
      <use xlink:href="#DejaVuSans-65" x="249.507812"/>
      <use xlink:href="#DejaVuSans-64" x="311.03125"/>
      <use xlink:href="#DejaVuSans-20" x="374.507812"/>
      <use xlink:href="#DejaVuSans-6c" x="406.294922"/>
      <use xlink:href="#DejaVuSans-6f" x="434.078125"/>
      <use xlink:href="#DejaVuSans-61" x="495.259766"/>
      <use xlink:href="#DejaVuSans-64" x="556.539062"/>
      <use xlink:href="#DejaVuSans-20" x="620.015625"/>
      <use xlink:href="#DejaVuSans-62" x="651.802734"/>
      <use xlink:href="#DejaVuSans-79" x="715.279297"/>
      <use xlink:href="#DejaVuSans-20" x="774.458984"/>
      <use xlink:href="#DejaVuSans-53" x="806.246094"/>
      <use xlink:href="#DejaVuSans-54" x="869.722656"/>
      <use xlink:href="#DejaVuSans-41" x="923.056641"/>
      <use xlink:href="#DejaVuSans-20" x="991.464844"/>
      <use xlink:href="#DejaVuSans-5b" x="1023.251953"/>
      <use xlink:href="#DejaVuSans-4d" x="1062.265625"/>
      <use xlink:href="#DejaVuSans-62" x="1148.544922"/>
      <use xlink:href="#DejaVuSans-70" x="1212.021484"/>
      <use xlink:href="#DejaVuSans-73" x="1275.498047"/>
      <use xlink:href="#DejaVuSans-5d" x="1327.597656"/>
     </g>
    </g>
   </g>
   <g id="matplotlib.axis_2">
    <g id="ytick_1">
     <g id="line2d_15">
      <path d="M 53.328125 273.312 
L 410.448125 273.312 
" clip-path="url(#p834e5d08be)" style="fill: none; stroke-dasharray: 1.85,0.8; stroke-dashoffset: 0; stroke: #ffffff; stroke-width: 0.5"/>
     </g>
     <g id="line2d_16">
      <defs>
       <path id="m51ed634ecd" d="M 0 0 
L -3.5 0 
" style="stroke: #000000; stroke-width: 0.8"/>
      </defs>
      <g>
       <use xlink:href="#m51ed634ecd" x="53.328125" y="273.312" style="stroke: #000000; stroke-width: 0.8"/>
      </g>
     </g>
     <g id="text_9">
      <!-- 0 -->
      <g transform="translate(39.965625 277.111219) scale(0.1 -0.1)">
       <use xlink:href="#DejaVuSans-30"/>
      </g>
     </g>
    </g>
    <g id="ytick_2">
     <g id="line2d_17">
      <path d="M 53.328125 221.752707 
L 410.448125 221.752707 
" clip-path="url(#p834e5d08be)" style="fill: none; stroke-dasharray: 1.85,0.8; stroke-dashoffset: 0; stroke: #ffffff; stroke-width: 0.5"/>
     </g>
     <g id="line2d_18">
      <g>
       <use xlink:href="#m51ed634ecd" x="53.328125" y="221.752707" style="stroke: #000000; stroke-width: 0.8"/>
      </g>
     </g>
     <g id="text_10">
      <!-- 200 -->
      <g transform="translate(27.240625 225.551926) scale(0.1 -0.1)">
       <use xlink:href="#DejaVuSans-32"/>
       <use xlink:href="#DejaVuSans-30" x="63.623047"/>
       <use xlink:href="#DejaVuSans-30" x="127.246094"/>
      </g>
     </g>
    </g>
    <g id="ytick_3">
     <g id="line2d_19">
      <path d="M 53.328125 170.193414 
L 410.448125 170.193414 
" clip-path="url(#p834e5d08be)" style="fill: none; stroke-dasharray: 1.85,0.8; stroke-dashoffset: 0; stroke: #ffffff; stroke-width: 0.5"/>
     </g>
     <g id="line2d_20">
      <g>
       <use xlink:href="#m51ed634ecd" x="53.328125" y="170.193414" style="stroke: #000000; stroke-width: 0.8"/>
      </g>
     </g>
     <g id="text_11">
      <!-- 400 -->
      <g transform="translate(27.240625 173.992632) scale(0.1 -0.1)">
       <use xlink:href="#DejaVuSans-34"/>
       <use xlink:href="#DejaVuSans-30" x="63.623047"/>
       <use xlink:href="#DejaVuSans-30" x="127.246094"/>
      </g>
     </g>
    </g>
    <g id="ytick_4">
     <g id="line2d_21">
      <path d="M 53.328125 118.634121 
L 410.448125 118.634121 
" clip-path="url(#p834e5d08be)" style="fill: none; stroke-dasharray: 1.85,0.8; stroke-dashoffset: 0; stroke: #ffffff; stroke-width: 0.5"/>
     </g>
     <g id="line2d_22">
      <g>
       <use xlink:href="#m51ed634ecd" x="53.328125" y="118.634121" style="stroke: #000000; stroke-width: 0.8"/>
      </g>
     </g>
     <g id="text_12">
      <!-- 600 -->
      <g transform="translate(27.240625 122.433339) scale(0.1 -0.1)">
       <use xlink:href="#DejaVuSans-36"/>
       <use xlink:href="#DejaVuSans-30" x="63.623047"/>
       <use xlink:href="#DejaVuSans-30" x="127.246094"/>
      </g>
     </g>
    </g>
    <g id="ytick_5">
     <g id="line2d_23">
      <path d="M 53.328125 67.074827 
L 410.448125 67.074827 
" clip-path="url(#p834e5d08be)" style="fill: none; stroke-dasharray: 1.85,0.8; stroke-dashoffset: 0; stroke: #ffffff; stroke-width: 0.5"/>
     </g>
     <g id="line2d_24">
      <g>
       <use xlink:href="#m51ed634ecd" x="53.328125" y="67.074827" style="stroke: #000000; stroke-width: 0.8"/>
      </g>
     </g>
     <g id="text_13">
      <!-- 800 -->
      <g transform="translate(27.240625 70.874046) scale(0.1 -0.1)">
       <use xlink:href="#DejaVuSans-38"/>
       <use xlink:href="#DejaVuSans-30" x="63.623047"/>
       <use xlink:href="#DejaVuSans-30" x="127.246094"/>
      </g>
     </g>
    </g>
    <g id="ytick_6">
     <g id="line2d_25">
      <path d="M 53.328125 15.515534 
L 410.448125 15.515534 
" clip-path="url(#p834e5d08be)" style="fill: none; stroke-dasharray: 1.85,0.8; stroke-dashoffset: 0; stroke: #ffffff; stroke-width: 0.5"/>
     </g>
     <g id="line2d_26">
      <g>
       <use xlink:href="#m51ed634ecd" x="53.328125" y="15.515534" style="stroke: #000000; stroke-width: 0.8"/>
      </g>
     </g>
     <g id="text_14">
      <!-- 1000 -->
      <g transform="translate(20.878125 19.314753) scale(0.1 -0.1)">
       <use xlink:href="#DejaVuSans-31"/>
       <use xlink:href="#DejaVuSans-30" x="63.623047"/>
       <use xlink:href="#DejaVuSans-30" x="127.246094"/>
       <use xlink:href="#DejaVuSans-30" x="190.869141"/>
      </g>
     </g>
    </g>
    <g id="text_15">
     <!-- Total throughput [Mbps] -->
     <g transform="translate(14.798438 200.225531) rotate(-90) scale(0.1 -0.1)">
      <defs>
       <path id="DejaVuSans-74" d="M 1172 4494 
L 1172 3500 
L 2356 3500 
L 2356 3053 
L 1172 3053 
L 1172 1153 
Q 1172 725 1289 603 
Q 1406 481 1766 481 
L 2356 481 
L 2356 0 
L 1766 0 
Q 1100 0 847 248 
Q 594 497 594 1153 
L 594 3053 
L 172 3053 
L 172 3500 
L 594 3500 
L 594 4494 
L 1172 4494 
z
" transform="scale(0.015625)"/>
       <path id="DejaVuSans-68" d="M 3513 2113 
L 3513 0 
L 2938 0 
L 2938 2094 
Q 2938 2591 2744 2837 
Q 2550 3084 2163 3084 
Q 1697 3084 1428 2787 
Q 1159 2491 1159 1978 
L 1159 0 
L 581 0 
L 581 4863 
L 1159 4863 
L 1159 2956 
Q 1366 3272 1645 3428 
Q 1925 3584 2291 3584 
Q 2894 3584 3203 3211 
Q 3513 2838 3513 2113 
z
" transform="scale(0.015625)"/>
       <path id="DejaVuSans-75" d="M 544 1381 
L 544 3500 
L 1119 3500 
L 1119 1403 
Q 1119 906 1312 657 
Q 1506 409 1894 409 
Q 2359 409 2629 706 
Q 2900 1003 2900 1516 
L 2900 3500 
L 3475 3500 
L 3475 0 
L 2900 0 
L 2900 538 
Q 2691 219 2414 64 
Q 2138 -91 1772 -91 
Q 1169 -91 856 284 
Q 544 659 544 1381 
z
M 1991 3584 
L 1991 3584 
z
" transform="scale(0.015625)"/>
       <path id="DejaVuSans-67" d="M 2906 1791 
Q 2906 2416 2648 2759 
Q 2391 3103 1925 3103 
Q 1463 3103 1205 2759 
Q 947 2416 947 1791 
Q 947 1169 1205 825 
Q 1463 481 1925 481 
Q 2391 481 2648 825 
Q 2906 1169 2906 1791 
z
M 3481 434 
Q 3481 -459 3084 -895 
Q 2688 -1331 1869 -1331 
Q 1566 -1331 1297 -1286 
Q 1028 -1241 775 -1147 
L 775 -588 
Q 1028 -725 1275 -790 
Q 1522 -856 1778 -856 
Q 2344 -856 2625 -561 
Q 2906 -266 2906 331 
L 2906 616 
Q 2728 306 2450 153 
Q 2172 0 1784 0 
Q 1141 0 747 490 
Q 353 981 353 1791 
Q 353 2603 747 3093 
Q 1141 3584 1784 3584 
Q 2172 3584 2450 3431 
Q 2728 3278 2906 2969 
L 2906 3500 
L 3481 3500 
L 3481 434 
z
" transform="scale(0.015625)"/>
      </defs>
      <use xlink:href="#DejaVuSans-54"/>
      <use xlink:href="#DejaVuSans-6f" x="44.083984"/>
      <use xlink:href="#DejaVuSans-74" x="105.265625"/>
      <use xlink:href="#DejaVuSans-61" x="144.474609"/>
      <use xlink:href="#DejaVuSans-6c" x="205.753906"/>
      <use xlink:href="#DejaVuSans-20" x="233.537109"/>
      <use xlink:href="#DejaVuSans-74" x="265.324219"/>
      <use xlink:href="#DejaVuSans-68" x="304.533203"/>
      <use xlink:href="#DejaVuSans-72" x="367.912109"/>
      <use xlink:href="#DejaVuSans-6f" x="406.775391"/>
      <use xlink:href="#DejaVuSans-75" x="467.957031"/>
      <use xlink:href="#DejaVuSans-67" x="531.335938"/>
      <use xlink:href="#DejaVuSans-68" x="594.8125"/>
      <use xlink:href="#DejaVuSans-70" x="658.191406"/>
      <use xlink:href="#DejaVuSans-75" x="721.667969"/>
      <use xlink:href="#DejaVuSans-74" x="785.046875"/>
      <use xlink:href="#DejaVuSans-20" x="824.255859"/>
      <use xlink:href="#DejaVuSans-5b" x="856.042969"/>
      <use xlink:href="#DejaVuSans-4d" x="895.056641"/>
      <use xlink:href="#DejaVuSans-62" x="981.335938"/>
      <use xlink:href="#DejaVuSans-70" x="1044.8125"/>
      <use xlink:href="#DejaVuSans-73" x="1108.289062"/>
      <use xlink:href="#DejaVuSans-5d" x="1160.388672"/>
     </g>
    </g>
   </g>
   <g id="line2d_27">
    <path d="M 69.560852 247.532611 
L 92.750463 245.796094 
L 115.940073 245.795063 
L 139.129683 245.797125 
L 162.319294 245.795063 
L 185.508904 245.797125 
L 208.698515 245.797125 
L 231.888125 245.794032 
L 255.077735 245.795063 
L 278.267346 245.795063 
L 301.456956 245.798157 
L 324.646567 245.796094 
L 347.836177 245.796094 
L 371.025787 245.798157 
L 394.215398 245.799188 
" clip-path="url(#p834e5d08be)" style="fill: none; stroke: #003f5c; stroke-width: 1.5; stroke-linecap: square"/>
    <defs>
     <path id="ma538be059a" d="M 0 4 
C 1.060812 4 2.078319 3.578535 2.828427 2.828427 
C 3.578535 2.078319 4 1.060812 4 0 
C 4 -1.060812 3.578535 -2.078319 2.828427 -2.828427 
C 2.078319 -3.578535 1.060812 -4 0 -4 
C -1.060812 -4 -2.078319 -3.578535 -2.828427 -2.828427 
C -3.578535 -2.078319 -4 -1.060812 -4 0 
C -4 1.060812 -3.578535 2.078319 -2.828427 2.828427 
C -2.078319 3.578535 -1.060812 4 0 4 
z
" style="stroke: #ffffff; stroke-width: 0.75"/>
    </defs>
    <g clip-path="url(#p834e5d08be)">
     <use xlink:href="#ma538be059a" x="69.560852" y="247.532611" style="fill: #003f5c; stroke: #ffffff; stroke-width: 0.75"/>
     <use xlink:href="#ma538be059a" x="92.750463" y="245.796094" style="fill: #003f5c; stroke: #ffffff; stroke-width: 0.75"/>
     <use xlink:href="#ma538be059a" x="115.940073" y="245.795063" style="fill: #003f5c; stroke: #ffffff; stroke-width: 0.75"/>
     <use xlink:href="#ma538be059a" x="139.129683" y="245.797125" style="fill: #003f5c; stroke: #ffffff; stroke-width: 0.75"/>
     <use xlink:href="#ma538be059a" x="162.319294" y="245.795063" style="fill: #003f5c; stroke: #ffffff; stroke-width: 0.75"/>
     <use xlink:href="#ma538be059a" x="185.508904" y="245.797125" style="fill: #003f5c; stroke: #ffffff; stroke-width: 0.75"/>
     <use xlink:href="#ma538be059a" x="208.698515" y="245.797125" style="fill: #003f5c; stroke: #ffffff; stroke-width: 0.75"/>
     <use xlink:href="#ma538be059a" x="231.888125" y="245.794032" style="fill: #003f5c; stroke: #ffffff; stroke-width: 0.75"/>
     <use xlink:href="#ma538be059a" x="255.077735" y="245.795063" style="fill: #003f5c; stroke: #ffffff; stroke-width: 0.75"/>
     <use xlink:href="#ma538be059a" x="278.267346" y="245.795063" style="fill: #003f5c; stroke: #ffffff; stroke-width: 0.75"/>
     <use xlink:href="#ma538be059a" x="301.456956" y="245.798157" style="fill: #003f5c; stroke: #ffffff; stroke-width: 0.75"/>
     <use xlink:href="#ma538be059a" x="324.646567" y="245.796094" style="fill: #003f5c; stroke: #ffffff; stroke-width: 0.75"/>
     <use xlink:href="#ma538be059a" x="347.836177" y="245.796094" style="fill: #003f5c; stroke: #ffffff; stroke-width: 0.75"/>
     <use xlink:href="#ma538be059a" x="371.025787" y="245.798157" style="fill: #003f5c; stroke: #ffffff; stroke-width: 0.75"/>
     <use xlink:href="#ma538be059a" x="394.215398" y="245.799188" style="fill: #003f5c; stroke: #ffffff; stroke-width: 0.75"/>
    </g>
   </g>
   <g id="line2d_28">
    <path d="M 69.560852 247.532353 
L 92.750463 221.753738 
L 115.940073 221.112598 
L 139.129683 221.111567 
L 162.319294 221.111567 
L 185.508904 221.108474 
L 208.698515 221.110536 
L 231.888125 221.111567 
L 255.077735 221.108474 
L 278.267346 221.108474 
L 301.456956 221.110536 
L 324.646567 221.108474 
L 347.836177 221.108474 
L 371.025787 221.111567 
L 394.215398 221.113629 
" clip-path="url(#p834e5d08be)" style="fill: none; stroke: #58508d; stroke-width: 1.5; stroke-linecap: square"/>
    <defs>
     <path id="m477d3522c9" d="M 0 4 
C 1.060812 4 2.078319 3.578535 2.828427 2.828427 
C 3.578535 2.078319 4 1.060812 4 0 
C 4 -1.060812 3.578535 -2.078319 2.828427 -2.828427 
C 2.078319 -3.578535 1.060812 -4 0 -4 
C -1.060812 -4 -2.078319 -3.578535 -2.828427 -2.828427 
C -3.578535 -2.078319 -4 -1.060812 -4 0 
C -4 1.060812 -3.578535 2.078319 -2.828427 2.828427 
C -2.078319 3.578535 -1.060812 4 0 4 
z
" style="stroke: #ffffff; stroke-width: 0.75"/>
    </defs>
    <g clip-path="url(#p834e5d08be)">
     <use xlink:href="#m477d3522c9" x="69.560852" y="247.532353" style="fill: #58508d; stroke: #ffffff; stroke-width: 0.75"/>
     <use xlink:href="#m477d3522c9" x="92.750463" y="221.753738" style="fill: #58508d; stroke: #ffffff; stroke-width: 0.75"/>
     <use xlink:href="#m477d3522c9" x="115.940073" y="221.112598" style="fill: #58508d; stroke: #ffffff; stroke-width: 0.75"/>
     <use xlink:href="#m477d3522c9" x="139.129683" y="221.111567" style="fill: #58508d; stroke: #ffffff; stroke-width: 0.75"/>
     <use xlink:href="#m477d3522c9" x="162.319294" y="221.111567" style="fill: #58508d; stroke: #ffffff; stroke-width: 0.75"/>
     <use xlink:href="#m477d3522c9" x="185.508904" y="221.108474" style="fill: #58508d; stroke: #ffffff; stroke-width: 0.75"/>
     <use xlink:href="#m477d3522c9" x="208.698515" y="221.110536" style="fill: #58508d; stroke: #ffffff; stroke-width: 0.75"/>
     <use xlink:href="#m477d3522c9" x="231.888125" y="221.111567" style="fill: #58508d; stroke: #ffffff; stroke-width: 0.75"/>
     <use xlink:href="#m477d3522c9" x="255.077735" y="221.108474" style="fill: #58508d; stroke: #ffffff; stroke-width: 0.75"/>
     <use xlink:href="#m477d3522c9" x="278.267346" y="221.108474" style="fill: #58508d; stroke: #ffffff; stroke-width: 0.75"/>
     <use xlink:href="#m477d3522c9" x="301.456956" y="221.110536" style="fill: #58508d; stroke: #ffffff; stroke-width: 0.75"/>
     <use xlink:href="#m477d3522c9" x="324.646567" y="221.108474" style="fill: #58508d; stroke: #ffffff; stroke-width: 0.75"/>
     <use xlink:href="#m477d3522c9" x="347.836177" y="221.108474" style="fill: #58508d; stroke: #ffffff; stroke-width: 0.75"/>
     <use xlink:href="#m477d3522c9" x="371.025787" y="221.111567" style="fill: #58508d; stroke: #ffffff; stroke-width: 0.75"/>
     <use xlink:href="#m477d3522c9" x="394.215398" y="221.113629" style="fill: #58508d; stroke: #ffffff; stroke-width: 0.75"/>
    </g>
   </g>
   <g id="line2d_29">
    <path d="M 69.560852 247.532096 
L 92.750463 221.752965 
L 115.940073 195.97306 
L 139.129683 175.040245 
L 162.319294 175.038956 
L 185.508904 175.038956 
L 208.698515 175.04205 
L 231.888125 175.045143 
L 255.077735 175.04205 
L 278.267346 175.04205 
L 301.456956 175.050041 
L 324.646567 175.033542 
L 347.836177 175.033542 
L 371.025787 175.041792 
L 394.215398 175.04205 
" clip-path="url(#p834e5d08be)" style="fill: none; stroke: #bc5090; stroke-width: 1.5; stroke-linecap: square"/>
    <defs>
     <path id="mb728697498" d="M 0 4 
C 1.060812 4 2.078319 3.578535 2.828427 2.828427 
C 3.578535 2.078319 4 1.060812 4 0 
C 4 -1.060812 3.578535 -2.078319 2.828427 -2.828427 
C 2.078319 -3.578535 1.060812 -4 0 -4 
C -1.060812 -4 -2.078319 -3.578535 -2.828427 -2.828427 
C -3.578535 -2.078319 -4 -1.060812 -4 0 
C -4 1.060812 -3.578535 2.078319 -2.828427 2.828427 
C -2.078319 3.578535 -1.060812 4 0 4 
z
" style="stroke: #ffffff; stroke-width: 0.75"/>
    </defs>
    <g clip-path="url(#p834e5d08be)">
     <use xlink:href="#mb728697498" x="69.560852" y="247.532096" style="fill: #bc5090; stroke: #ffffff; stroke-width: 0.75"/>
     <use xlink:href="#mb728697498" x="92.750463" y="221.752965" style="fill: #bc5090; stroke: #ffffff; stroke-width: 0.75"/>
     <use xlink:href="#mb728697498" x="115.940073" y="195.97306" style="fill: #bc5090; stroke: #ffffff; stroke-width: 0.75"/>
     <use xlink:href="#mb728697498" x="139.129683" y="175.040245" style="fill: #bc5090; stroke: #ffffff; stroke-width: 0.75"/>
     <use xlink:href="#mb728697498" x="162.319294" y="175.038956" style="fill: #bc5090; stroke: #ffffff; stroke-width: 0.75"/>
     <use xlink:href="#mb728697498" x="185.508904" y="175.038956" style="fill: #bc5090; stroke: #ffffff; stroke-width: 0.75"/>
     <use xlink:href="#mb728697498" x="208.698515" y="175.04205" style="fill: #bc5090; stroke: #ffffff; stroke-width: 0.75"/>
     <use xlink:href="#mb728697498" x="231.888125" y="175.045143" style="fill: #bc5090; stroke: #ffffff; stroke-width: 0.75"/>
     <use xlink:href="#mb728697498" x="255.077735" y="175.04205" style="fill: #bc5090; stroke: #ffffff; stroke-width: 0.75"/>
     <use xlink:href="#mb728697498" x="278.267346" y="175.04205" style="fill: #bc5090; stroke: #ffffff; stroke-width: 0.75"/>
     <use xlink:href="#mb728697498" x="301.456956" y="175.050041" style="fill: #bc5090; stroke: #ffffff; stroke-width: 0.75"/>
     <use xlink:href="#mb728697498" x="324.646567" y="175.033542" style="fill: #bc5090; stroke: #ffffff; stroke-width: 0.75"/>
     <use xlink:href="#mb728697498" x="347.836177" y="175.033542" style="fill: #bc5090; stroke: #ffffff; stroke-width: 0.75"/>
     <use xlink:href="#mb728697498" x="371.025787" y="175.041792" style="fill: #bc5090; stroke: #ffffff; stroke-width: 0.75"/>
     <use xlink:href="#mb728697498" x="394.215398" y="175.04205" style="fill: #bc5090; stroke: #ffffff; stroke-width: 0.75"/>
    </g>
   </g>
   <g id="line2d_30">
    <path d="M 69.560852 247.532096 
L 92.750463 221.752965 
L 115.940073 195.972803 
L 139.129683 170.192383 
L 162.319294 144.411447 
L 185.508904 118.638245 
L 208.698515 106.914435 
L 231.888125 106.905928 
L 255.077735 106.907217 
L 278.267346 106.909795 
L 301.456956 106.909795 
L 324.646567 106.913147 
L 347.836177 106.912889 
L 371.025787 106.912889 
L 394.215398 106.912889 
" clip-path="url(#p834e5d08be)" style="fill: none; stroke: #ff6361; stroke-width: 1.5; stroke-linecap: square"/>
    <defs>
     <path id="mc62ae192a8" d="M 0 4 
C 1.060812 4 2.078319 3.578535 2.828427 2.828427 
C 3.578535 2.078319 4 1.060812 4 0 
C 4 -1.060812 3.578535 -2.078319 2.828427 -2.828427 
C 2.078319 -3.578535 1.060812 -4 0 -4 
C -1.060812 -4 -2.078319 -3.578535 -2.828427 -2.828427 
C -3.578535 -2.078319 -4 -1.060812 -4 0 
C -4 1.060812 -3.578535 2.078319 -2.828427 2.828427 
C -2.078319 3.578535 -1.060812 4 0 4 
z
" style="stroke: #ffffff; stroke-width: 0.75"/>
    </defs>
    <g clip-path="url(#p834e5d08be)">
     <use xlink:href="#mc62ae192a8" x="69.560852" y="247.532096" style="fill: #ff6361; stroke: #ffffff; stroke-width: 0.75"/>
     <use xlink:href="#mc62ae192a8" x="92.750463" y="221.752965" style="fill: #ff6361; stroke: #ffffff; stroke-width: 0.75"/>
     <use xlink:href="#mc62ae192a8" x="115.940073" y="195.972803" style="fill: #ff6361; stroke: #ffffff; stroke-width: 0.75"/>
     <use xlink:href="#mc62ae192a8" x="139.129683" y="170.192383" style="fill: #ff6361; stroke: #ffffff; stroke-width: 0.75"/>
     <use xlink:href="#mc62ae192a8" x="162.319294" y="144.411447" style="fill: #ff6361; stroke: #ffffff; stroke-width: 0.75"/>
     <use xlink:href="#mc62ae192a8" x="185.508904" y="118.638245" style="fill: #ff6361; stroke: #ffffff; stroke-width: 0.75"/>
     <use xlink:href="#mc62ae192a8" x="208.698515" y="106.914435" style="fill: #ff6361; stroke: #ffffff; stroke-width: 0.75"/>
     <use xlink:href="#mc62ae192a8" x="231.888125" y="106.905928" style="fill: #ff6361; stroke: #ffffff; stroke-width: 0.75"/>
     <use xlink:href="#mc62ae192a8" x="255.077735" y="106.907217" style="fill: #ff6361; stroke: #ffffff; stroke-width: 0.75"/>
     <use xlink:href="#mc62ae192a8" x="278.267346" y="106.909795" style="fill: #ff6361; stroke: #ffffff; stroke-width: 0.75"/>
     <use xlink:href="#mc62ae192a8" x="301.456956" y="106.909795" style="fill: #ff6361; stroke: #ffffff; stroke-width: 0.75"/>
     <use xlink:href="#mc62ae192a8" x="324.646567" y="106.913147" style="fill: #ff6361; stroke: #ffffff; stroke-width: 0.75"/>
     <use xlink:href="#mc62ae192a8" x="347.836177" y="106.912889" style="fill: #ff6361; stroke: #ffffff; stroke-width: 0.75"/>
     <use xlink:href="#mc62ae192a8" x="371.025787" y="106.912889" style="fill: #ff6361; stroke: #ffffff; stroke-width: 0.75"/>
     <use xlink:href="#mc62ae192a8" x="394.215398" y="106.912889" style="fill: #ff6361; stroke: #ffffff; stroke-width: 0.75"/>
    </g>
   </g>
   <g id="line2d_31">
    <path d="M 69.560852 247.532353 
L 92.750463 221.752965 
L 115.940073 195.972803 
L 139.129683 170.192383 
L 162.319294 144.411447 
L 185.508904 118.637988 
L 208.698515 92.855763 
L 231.888125 67.072765 
L 255.077735 41.294923 
L 278.267346 18.645183 
L 301.456956 18.651113 
L 324.646567 18.66194 
L 347.836177 18.64441 
L 371.025787 18.64441 
L 394.215398 18.64441 
" clip-path="url(#p834e5d08be)" style="fill: none; stroke: #ffa600; stroke-width: 1.5; stroke-linecap: square"/>
    <defs>
     <path id="mcb1531899b" d="M 0 4 
C 1.060812 4 2.078319 3.578535 2.828427 2.828427 
C 3.578535 2.078319 4 1.060812 4 0 
C 4 -1.060812 3.578535 -2.078319 2.828427 -2.828427 
C 2.078319 -3.578535 1.060812 -4 0 -4 
C -1.060812 -4 -2.078319 -3.578535 -2.828427 -2.828427 
C -3.578535 -2.078319 -4 -1.060812 -4 0 
C -4 1.060812 -3.578535 2.078319 -2.828427 2.828427 
C -2.078319 3.578535 -1.060812 4 0 4 
z
" style="stroke: #ffffff; stroke-width: 0.75"/>
    </defs>
    <g clip-path="url(#p834e5d08be)">
     <use xlink:href="#mcb1531899b" x="69.560852" y="247.532353" style="fill: #ffa600; stroke: #ffffff; stroke-width: 0.75"/>
     <use xlink:href="#mcb1531899b" x="92.750463" y="221.752965" style="fill: #ffa600; stroke: #ffffff; stroke-width: 0.75"/>
     <use xlink:href="#mcb1531899b" x="115.940073" y="195.972803" style="fill: #ffa600; stroke: #ffffff; stroke-width: 0.75"/>
     <use xlink:href="#mcb1531899b" x="139.129683" y="170.192383" style="fill: #ffa600; stroke: #ffffff; stroke-width: 0.75"/>
     <use xlink:href="#mcb1531899b" x="162.319294" y="144.411447" style="fill: #ffa600; stroke: #ffffff; stroke-width: 0.75"/>
     <use xlink:href="#mcb1531899b" x="185.508904" y="118.637988" style="fill: #ffa600; stroke: #ffffff; stroke-width: 0.75"/>
     <use xlink:href="#mcb1531899b" x="208.698515" y="92.855763" style="fill: #ffa600; stroke: #ffffff; stroke-width: 0.75"/>
     <use xlink:href="#mcb1531899b" x="231.888125" y="67.072765" style="fill: #ffa600; stroke: #ffffff; stroke-width: 0.75"/>
     <use xlink:href="#mcb1531899b" x="255.077735" y="41.294923" style="fill: #ffa600; stroke: #ffffff; stroke-width: 0.75"/>
     <use xlink:href="#mcb1531899b" x="278.267346" y="18.645183" style="fill: #ffa600; stroke: #ffffff; stroke-width: 0.75"/>
     <use xlink:href="#mcb1531899b" x="301.456956" y="18.651113" style="fill: #ffa600; stroke: #ffffff; stroke-width: 0.75"/>
     <use xlink:href="#mcb1531899b" x="324.646567" y="18.66194" style="fill: #ffa600; stroke: #ffffff; stroke-width: 0.75"/>
     <use xlink:href="#mcb1531899b" x="347.836177" y="18.64441" style="fill: #ffa600; stroke: #ffffff; stroke-width: 0.75"/>
     <use xlink:href="#mcb1531899b" x="371.025787" y="18.64441" style="fill: #ffa600; stroke: #ffffff; stroke-width: 0.75"/>
     <use xlink:href="#mcb1531899b" x="394.215398" y="18.64441" style="fill: #ffa600; stroke: #ffffff; stroke-width: 0.75"/>
    </g>
   </g>
   <g id="line2d_32"/>
   <g id="line2d_33"/>
   <g id="line2d_34"/>
   <g id="line2d_35"/>
   <g id="line2d_36"/>
   <g id="line2d_37"/>
   <g id="line2d_38"/>
   <g id="line2d_39"/>
   <g id="patch_3">
    <path d="M 53.328125 273.312 
L 53.328125 7.2 
" style="fill: none; stroke: #000000; stroke-width: 0.8; stroke-linejoin: miter; stroke-linecap: square"/>
   </g>
   <g id="patch_4">
    <path d="M 410.448125 273.312 
L 410.448125 7.2 
" style="fill: none; stroke: #000000; stroke-width: 0.8; stroke-linejoin: miter; stroke-linecap: square"/>
   </g>
   <g id="patch_5">
    <path d="M 53.328125 273.312 
L 410.448125 273.312 
" style="fill: none; stroke: #000000; stroke-width: 0.8; stroke-linejoin: miter; stroke-linecap: square"/>
   </g>
   <g id="patch_6">
    <path d="M 53.328125 7.2 
L 410.448125 7.2 
" style="fill: none; stroke: #000000; stroke-width: 0.8; stroke-linejoin: miter; stroke-linecap: square"/>
   </g>
   <g id="legend_1">
    <g id="patch_7">
     <path d="M 60.328125 103.26875 
L 139.492188 103.26875 
Q 141.492188 103.26875 141.492188 101.26875 
L 141.492188 14.2 
Q 141.492188 12.2 139.492188 12.2 
L 60.328125 12.2 
Q 58.328125 12.2 58.328125 14.2 
L 58.328125 101.26875 
Q 58.328125 103.26875 60.328125 103.26875 
z
" style="fill: #ffffff; opacity: 0.8; stroke: #cccccc; stroke-linejoin: miter"/>
    </g>
    <g id="text_16">
     <!-- Channel width: -->
     <g transform="translate(62.328125 23.798437) scale(0.1 -0.1)">
      <defs>
       <path id="DejaVuSans-43" d="M 4122 4306 
L 4122 3641 
Q 3803 3938 3442 4084 
Q 3081 4231 2675 4231 
Q 1875 4231 1450 3742 
Q 1025 3253 1025 2328 
Q 1025 1406 1450 917 
Q 1875 428 2675 428 
Q 3081 428 3442 575 
Q 3803 722 4122 1019 
L 4122 359 
Q 3791 134 3420 21 
Q 3050 -91 2638 -91 
Q 1578 -91 968 557 
Q 359 1206 359 2328 
Q 359 3453 968 4101 
Q 1578 4750 2638 4750 
Q 3056 4750 3426 4639 
Q 3797 4528 4122 4306 
z
" transform="scale(0.015625)"/>
       <path id="DejaVuSans-6e" d="M 3513 2113 
L 3513 0 
L 2938 0 
L 2938 2094 
Q 2938 2591 2744 2837 
Q 2550 3084 2163 3084 
Q 1697 3084 1428 2787 
Q 1159 2491 1159 1978 
L 1159 0 
L 581 0 
L 581 3500 
L 1159 3500 
L 1159 2956 
Q 1366 3272 1645 3428 
Q 1925 3584 2291 3584 
Q 2894 3584 3203 3211 
Q 3513 2838 3513 2113 
z
" transform="scale(0.015625)"/>
       <path id="DejaVuSans-77" d="M 269 3500 
L 844 3500 
L 1563 769 
L 2278 3500 
L 2956 3500 
L 3675 769 
L 4391 3500 
L 4966 3500 
L 4050 0 
L 3372 0 
L 2619 2869 
L 1863 0 
L 1184 0 
L 269 3500 
z
" transform="scale(0.015625)"/>
       <path id="DejaVuSans-69" d="M 603 3500 
L 1178 3500 
L 1178 0 
L 603 0 
L 603 3500 
z
M 603 4863 
L 1178 4863 
L 1178 4134 
L 603 4134 
L 603 4863 
z
" transform="scale(0.015625)"/>
       <path id="DejaVuSans-3a" d="M 750 794 
L 1409 794 
L 1409 0 
L 750 0 
L 750 794 
z
M 750 3309 
L 1409 3309 
L 1409 2516 
L 750 2516 
L 750 3309 
z
" transform="scale(0.015625)"/>
      </defs>
      <use xlink:href="#DejaVuSans-43"/>
      <use xlink:href="#DejaVuSans-68" x="69.824219"/>
      <use xlink:href="#DejaVuSans-61" x="133.203125"/>
      <use xlink:href="#DejaVuSans-6e" x="194.482422"/>
      <use xlink:href="#DejaVuSans-6e" x="257.861328"/>
      <use xlink:href="#DejaVuSans-65" x="321.240234"/>
      <use xlink:href="#DejaVuSans-6c" x="382.763672"/>
      <use xlink:href="#DejaVuSans-20" x="410.546875"/>
      <use xlink:href="#DejaVuSans-77" x="442.333984"/>
      <use xlink:href="#DejaVuSans-69" x="524.121094"/>
      <use xlink:href="#DejaVuSans-64" x="551.904297"/>
      <use xlink:href="#DejaVuSans-74" x="615.380859"/>
      <use xlink:href="#DejaVuSans-68" x="654.589844"/>
      <use xlink:href="#DejaVuSans-3a" x="717.96875"/>
     </g>
    </g>
    <g id="line2d_40">
     <path d="M 64.078906 34.976562 
L 74.078906 34.976562 
L 84.078906 34.976562 
" style="fill: none; stroke: #003f5c; stroke-width: 4; stroke-linecap: square"/>
    </g>
    <g id="text_17">
     <!-- 20 MHz -->
     <g transform="translate(92.078906 38.476562) scale(0.1 -0.1)">
      <defs>
       <path id="DejaVuSans-48" d="M 628 4666 
L 1259 4666 
L 1259 2753 
L 3553 2753 
L 3553 4666 
L 4184 4666 
L 4184 0 
L 3553 0 
L 3553 2222 
L 1259 2222 
L 1259 0 
L 628 0 
L 628 4666 
z
" transform="scale(0.015625)"/>
       <path id="DejaVuSans-7a" d="M 353 3500 
L 3084 3500 
L 3084 2975 
L 922 459 
L 3084 459 
L 3084 0 
L 275 0 
L 275 525 
L 2438 3041 
L 353 3041 
L 353 3500 
z
" transform="scale(0.015625)"/>
      </defs>
      <use xlink:href="#DejaVuSans-32"/>
      <use xlink:href="#DejaVuSans-30" x="63.623047"/>
      <use xlink:href="#DejaVuSans-20" x="127.246094"/>
      <use xlink:href="#DejaVuSans-4d" x="159.033203"/>
      <use xlink:href="#DejaVuSans-48" x="245.3125"/>
      <use xlink:href="#DejaVuSans-7a" x="320.507812"/>
     </g>
    </g>
    <g id="line2d_41">
     <path d="M 64.078906 49.654688 
L 74.078906 49.654688 
L 84.078906 49.654688 
" style="fill: none; stroke: #58508d; stroke-width: 4; stroke-linecap: square"/>
    </g>
    <g id="text_18">
     <!-- 40 MHz -->
     <g transform="translate(92.078906 53.154688) scale(0.1 -0.1)">
      <use xlink:href="#DejaVuSans-34"/>
      <use xlink:href="#DejaVuSans-30" x="63.623047"/>
      <use xlink:href="#DejaVuSans-20" x="127.246094"/>
      <use xlink:href="#DejaVuSans-4d" x="159.033203"/>
      <use xlink:href="#DejaVuSans-48" x="245.3125"/>
      <use xlink:href="#DejaVuSans-7a" x="320.507812"/>
     </g>
    </g>
    <g id="line2d_42">
     <path d="M 64.078906 64.332812 
L 74.078906 64.332812 
L 84.078906 64.332812 
" style="fill: none; stroke: #bc5090; stroke-width: 4; stroke-linecap: square"/>
    </g>
    <g id="text_19">
     <!-- 80 MHz -->
     <g transform="translate(92.078906 67.832812) scale(0.1 -0.1)">
      <use xlink:href="#DejaVuSans-38"/>
      <use xlink:href="#DejaVuSans-30" x="63.623047"/>
      <use xlink:href="#DejaVuSans-20" x="127.246094"/>
      <use xlink:href="#DejaVuSans-4d" x="159.033203"/>
      <use xlink:href="#DejaVuSans-48" x="245.3125"/>
      <use xlink:href="#DejaVuSans-7a" x="320.507812"/>
     </g>
    </g>
    <g id="line2d_43">
     <path d="M 64.078906 79.010938 
L 74.078906 79.010938 
L 84.078906 79.010938 
" style="fill: none; stroke: #ff6361; stroke-width: 4; stroke-linecap: square"/>
    </g>
    <g id="text_20">
     <!-- 160 MHz -->
     <g transform="translate(92.078906 82.510938) scale(0.1 -0.1)">
      <use xlink:href="#DejaVuSans-31"/>
      <use xlink:href="#DejaVuSans-36" x="63.623047"/>
      <use xlink:href="#DejaVuSans-30" x="127.246094"/>
      <use xlink:href="#DejaVuSans-20" x="190.869141"/>
      <use xlink:href="#DejaVuSans-4d" x="222.65625"/>
      <use xlink:href="#DejaVuSans-48" x="308.935547"/>
      <use xlink:href="#DejaVuSans-7a" x="384.130859"/>
     </g>
    </g>
    <g id="line2d_44">
     <path d="M 64.078906 93.689063 
L 74.078906 93.689063 
L 84.078906 93.689063 
" style="fill: none; stroke: #ffa600; stroke-width: 4; stroke-linecap: square"/>
    </g>
    <g id="text_21">
     <!-- 320 MHz -->
     <g transform="translate(92.078906 97.189063) scale(0.1 -0.1)">
      <defs>
       <path id="DejaVuSans-33" d="M 2597 2516 
Q 3050 2419 3304 2112 
Q 3559 1806 3559 1356 
Q 3559 666 3084 287 
Q 2609 -91 1734 -91 
Q 1441 -91 1130 -33 
Q 819 25 488 141 
L 488 750 
Q 750 597 1062 519 
Q 1375 441 1716 441 
Q 2309 441 2620 675 
Q 2931 909 2931 1356 
Q 2931 1769 2642 2001 
Q 2353 2234 1838 2234 
L 1294 2234 
L 1294 2753 
L 1863 2753 
Q 2328 2753 2575 2939 
Q 2822 3125 2822 3475 
Q 2822 3834 2567 4026 
Q 2313 4219 1838 4219 
Q 1578 4219 1281 4162 
Q 984 4106 628 3988 
L 628 4550 
Q 988 4650 1302 4700 
Q 1616 4750 1894 4750 
Q 2613 4750 3031 4423 
Q 3450 4097 3450 3541 
Q 3450 3153 3228 2886 
Q 3006 2619 2597 2516 
z
" transform="scale(0.015625)"/>
      </defs>
      <use xlink:href="#DejaVuSans-33"/>
      <use xlink:href="#DejaVuSans-32" x="63.623047"/>
      <use xlink:href="#DejaVuSans-30" x="127.246094"/>
      <use xlink:href="#DejaVuSans-20" x="190.869141"/>
      <use xlink:href="#DejaVuSans-4d" x="222.65625"/>
      <use xlink:href="#DejaVuSans-48" x="308.935547"/>
      <use xlink:href="#DejaVuSans-7a" x="384.130859"/>
     </g>
    </g>
   </g>
  </g>
 </g>
 <defs>
  <clipPath id="p834e5d08be">
   <rect x="53.328125" y="7.2" width="357.12" height="266.112"/>
  </clipPath>
 </defs>
</svg>
